const long int apple_mid_size = 74317;
const unsigned char apple_mid[74317] = {
    0x4D, 0x54, 0x68, 0x64, 0x00, 0x00, 0x00, 0x06, 0x00, 0x01, 0x00, 0x0C, 0x03, 0xC0, 0x4D, 0x54,
    0x72, 0x6B, 0x00, 0x00, 0x00, 0x28, 0x00, 0xFF, 0x51, 0x03, 0x06, 0xA2, 0x5F, 0x00, 0xFF, 0x59,
    0x02, 0x00, 0x00, 0x00, 0xFF, 0x03, 0x0B, 0x42, 0x61, 0x64, 0x20, 0x41, 0x70, 0x70, 0x6C, 0x65,
    0x21, 0x21, 0x00, 0xFF, 0x58, 0x04, 0x04, 0x02, 0x18, 0x08, 0x00, 0xFF, 0x2F, 0x00, 0x4D, 0x54,
    0x72, 0x6B, 0x00, 0x00, 0x52, 0x45, 0x00, 0xB9, 0x00, 0x00, 0x00, 0x20, 0x00, 0x00, 0xC9, 0x18,
    0x00, 0xFF, 0x03, 0x08, 0x55, 0x6E, 0x74, 0x69, 0x74, 0x6C, 0x65, 0x64, 0x00, 0xB9, 0x07, 0x7F,
    0x00, 0x00, 0x00, 0x00, 0x20, 0x00, 0x00, 0x07, 0x7F, 0x00, 0xE9, 0x00, 0x40, 0x00, 0xB9, 0x07,
    0x7F, 0x00, 0x0A, 0x40, 0x00, 0x5D, 0x00, 0x00, 0x5B, 0x00, 0x00, 0x5F, 0x00, 0x00, 0x5C, 0x00,
    0x00, 0x0B, 0x7F, 0x00, 0x99, 0x23, 0x5F, 0x00, 0x24, 0x46, 0x00, 0x31, 0x5F, 0x00, 0x2C, 0x28,
    0x1F, 0x89, 0x24, 0x00, 0x00, 0x31, 0x00, 0x00, 0x2C, 0x00, 0x00, 0x23, 0x00, 0x81, 0x51, 0x99,
    0x2A, 0x1E, 0x1F, 0x89, 0x2A, 0x00, 0x81, 0x51, 0x99, 0x2A, 0x46, 0x1F, 0x89, 0x2A, 0x00, 0x83,
    0x41, 0x99, 0x2C, 0x28, 0x00, 0x24, 0x46, 0x00, 0x28, 0x28, 0x00, 0x23, 0x5F, 0x1F, 0x89, 0x24,
    0x00, 0x00, 0x28, 0x00, 0x00, 0x23, 0x00, 0x00, 0x2C, 0x00, 0x81, 0x51, 0x99, 0x2A, 0x1E, 0x1F,
    0x89, 0x2A, 0x00, 0x81, 0x51, 0x99, 0x2A, 0x46, 0x1F, 0x89, 0x2A, 0x00, 0x83, 0x41, 0x99, 0x2C,
    0x28, 0x00, 0x23, 0x5F, 0x00, 0x24, 0x46, 0x1F, 0x89, 0x23, 0x00, 0x00, 0x24, 0x00, 0x00, 0x2C,
    0x00, 0x81, 0x51, 0x99, 0x2A, 0x1E, 0x1F, 0x89, 0x2A, 0x00, 0x81, 0x51, 0x99, 0x2A, 0x46, 0x1F,
    0x89, 0x2A, 0x00, 0x83, 0x41, 0x99, 0x2C, 0x28, 0x00, 0x24, 0x46, 0x00, 0x28, 0x28, 0x00, 0x23,
    0x5F, 0x1F, 0x89, 0x24, 0x00, 0x00, 0x28, 0x00, 0x00, 0x23, 0x00, 0x00, 0x2C, 0x00, 0x81, 0x51,
    0x99, 0x28, 0x28, 0x00, 0x23, 0x5F, 0x00, 0x2A, 0x1E, 0x00, 0x24, 0x46, 0x1F, 0x89, 0x23, 0x00,
    0x00, 0x2A, 0x00, 0x00, 0x24, 0x00, 0x00, 0x28, 0x00, 0x81, 0x51, 0x99, 0x2A, 0x46, 0x00, 0x28,
    0x28, 0x00, 0x24, 0x46, 0x00, 0x23, 0x5F, 0x1F, 0x89, 0x28, 0x00, 0x00, 0x24, 0x00, 0x00, 0x23,
    0x00, 0x00, 0x2A, 0x00, 0x81, 0x51, 0x99, 0x24, 0x46, 0x00, 0x23, 0x5F, 0x00, 0x28, 0x28, 0x1F,
    0x89, 0x23, 0x00, 0x00, 0x28, 0x00, 0x00, 0x24, 0x00, 0x81, 0x51, 0x99, 0x23, 0x5F, 0x00, 0x24,
    0x46, 0x00, 0x2C, 0x28, 0x00, 0x28, 0x28, 0x1F, 0x89, 0x24, 0x00, 0x00, 0x2C, 0x00, 0x00, 0x28,
    0x00, 0x00, 0x23, 0x00, 0x81, 0x51, 0x99, 0x2A, 0x1E, 0x1F, 0x89, 0x2A, 0x00, 0x81, 0x51, 0x99,
    0x2A, 0x46, 0x1F, 0x89, 0x2A, 0x00, 0x83, 0x41, 0x99, 0x2C, 0x28, 0x00, 0x24, 0x46, 0x00, 0x28,
    0x28, 0x00, 0x23, 0x5F, 0x1F, 0x89, 0x24, 0x00, 0x00, 0x28, 0x00, 0x00, 0x23, 0x00, 0x00, 0x2C,
    0x00, 0x81, 0x51, 0x99, 0x2A, 0x1E, 0x1F, 0x89, 0x2A, 0x00, 0x81, 0x51, 0x99, 0x2A, 0x46, 0x1F,
    0x89, 0x2A, 0x00, 0x83, 0x41, 0x99, 0x2C, 0x28, 0x00, 0x23, 0x5F, 0x00, 0x24, 0x46, 0x1F, 0x89,
    0x23, 0x00, 0x00, 0x24, 0x00, 0x00, 0x2C, 0x00, 0x81, 0x51, 0x99, 0x2A, 0x1E, 0x1F, 0x89, 0x2A,
    0x00, 0x81, 0x51, 0x99, 0x2A, 0x46, 0x1F, 0x89, 0x2A, 0x00, 0x83, 0x41, 0x99, 0x2C, 0x28, 0x00,
    0x24, 0x46, 0x00, 0x28, 0x28, 0x00, 0x23, 0x5F, 0x1F, 0x89, 0x24, 0x00, 0x00, 0x28, 0x00, 0x00,
    0x23, 0x00, 0x00, 0x2C, 0x00, 0x81, 0x51, 0x99, 0x2A, 0x1E, 0x1F, 0x89, 0x2A, 0x00, 0x81, 0x51,
    0x99, 0x23, 0x5F, 0x00, 0x2A, 0x46, 0x00, 0x24, 0x46, 0x1F, 0x89, 0x2A, 0x00, 0x00, 0x24, 0x00,
    0x00, 0x23, 0x00, 0x83, 0x41, 0x99, 0x2C, 0x28, 0x00, 0x23, 0x5F, 0x00, 0x24, 0x46, 0x1F, 0x89,
    0x23, 0x00, 0x00, 0x24, 0x00, 0x00, 0x2C, 0x00, 0x81, 0x51, 0x99, 0x2A, 0x1E, 0x1F, 0x89, 0x2A,
    0x00, 0x81, 0x51, 0x99, 0x2A, 0x46, 0x1F, 0x89, 0x2A, 0x00, 0x83, 0x41, 0x99, 0x2C, 0x28, 0x00,
    0x24, 0x46, 0x00, 0x28, 0x28, 0x00, 0x23, 0x5F, 0x1F, 0x89, 0x24, 0x00, 0x00, 0x28, 0x00, 0x00,
    0x23, 0x00, 0x00, 0x2C, 0x00, 0x81, 0x51, 0x99, 0x2A, 0x1E, 0x1F, 0x89, 0x2A, 0x00, 0x81, 0x51,
    0x99, 0x2A, 0x46, 0x1F, 0x89, 0x2A, 0x00, 0x83, 0x41, 0x99, 0x2C, 0x28, 0x00, 0x23, 0x5F, 0x00,
    0x24, 0x46, 0x1F, 0x89, 0x23, 0x00, 0x00, 0x24, 0x00, 0x00, 0x2C, 0x00, 0x81, 0x51, 0x99, 0x2A,
    0x1E, 0x1F, 0x89, 0x2A, 0x00, 0x81, 0x51, 0x99, 0x2A, 0x46, 0x1F, 0x89, 0x2A, 0x00, 0x83, 0x41,
    0x99, 0x2C, 0x28, 0x00, 0x24, 0x46, 0x00, 0x28, 0x28, 0x00, 0x23, 0x5F, 0x1F, 0x89, 0x24, 0x00,
    0x00, 0x28, 0x00, 0x00, 0x23, 0x00, 0x00, 0x2C, 0x00, 0x81, 0x51, 0x99, 0x28, 0x28, 0x00, 0x2A,
    0x1E, 0x00, 0x24, 0x46, 0x00, 0x23, 0x5F, 0x1F, 0x89, 0x2A, 0x00, 0x00, 0x24, 0x00, 0x00, 0x23,
    0x00, 0x00, 0x28, 0x00, 0x81, 0x51, 0x99, 0x28, 0x28, 0x00, 0x24, 0x46, 0x00, 0x2A, 0x46, 0x00,
    0x23, 0x5F, 0x1F, 0x89, 0x24, 0x00, 0x00, 0x2A, 0x00, 0x00, 0x23, 0x00, 0x00, 0x28, 0x00, 0x81,
    0x51, 0x99, 0x23, 0x5F, 0x00, 0x28, 0x28, 0x00, 0x24, 0x46, 0x1F, 0x89, 0x28, 0x00, 0x00, 0x24,
    0x00, 0x00, 0x23, 0x00, 0x81, 0x51, 0x99, 0x28, 0x28, 0x00, 0x24, 0x46, 0x00, 0x2C, 0x28, 0x00,
    0x23, 0x5F, 0x1F, 0x89, 0x24, 0x00, 0x00, 0x2C, 0x00, 0x00, 0x23, 0x00, 0x00, 0x28, 0x00, 0x81,
    0x51, 0x99, 0x2A, 0x1E, 0x1F, 0x89, 0x2A, 0x00, 0x81, 0x51, 0x99, 0x2A, 0x46, 0x1F, 0x89, 0x2A,
    0x00, 0x83, 0x41, 0x99, 0x2C, 0x28, 0x00, 0x24, 0x46, 0x00, 0x28, 0x28, 0x00, 0x23, 0x5F, 0x1F,
    0x89, 0x24, 0x00, 0x00, 0x28, 0x00, 0x00, 0x23, 0x00, 0x00, 0x2C, 0x00, 0x81, 0x51, 0x99, 0x2A,
    0x1E, 0x1F, 0x89, 0x2A, 0x00, 0x81, 0x51, 0x99, 0x2A, 0x46, 0x1F, 0x89, 0x2A, 0x00, 0x83, 0x41,
    0x99, 0x2C, 0x28, 0x00, 0x23, 0x5F, 0x00, 0x24, 0x46, 0x1F, 0x89, 0x23, 0x00, 0x00, 0x24, 0x00,
    0x00, 0x2C, 0x00, 0x81, 0x51, 0x99, 0x2A, 0x1E, 0x1F, 0x89, 0x2A, 0x00, 0x81, 0x51, 0x99, 0x2A,
    0x46, 0x1F, 0x89, 0x2A, 0x00, 0x83, 0x41, 0x99, 0x2C, 0x28, 0x00, 0x24, 0x46, 0x00, 0x28, 0x28,
    0x00, 0x23, 0x5F, 0x1F, 0x89, 0x24, 0x00, 0x00, 0x28, 0x00, 0x00, 0x23, 0x00, 0x00, 0x2C, 0x00,
    0x81, 0x51, 0x99, 0x2A, 0x1E, 0x1F, 0x89, 0x2A, 0x00, 0x81, 0x51, 0x99, 0x2A, 0x46, 0x00, 0x23,
    0x5F, 0x00, 0x24, 0x46, 0x1F, 0x89, 0x23, 0x00, 0x00, 0x24, 0x00, 0x00, 0x2A, 0x00, 0x83, 0x41,
    0x99, 0x23, 0x5F, 0x00, 0x2C, 0x28, 0x00, 0x24, 0x46, 0x1F, 0x89, 0x2C, 0x00, 0x00, 0x24, 0x00,
    0x00, 0x23, 0x00, 0x81, 0x51, 0x99, 0x2A, 0x1E, 0x1F, 0x89, 0x2A, 0x00, 0x81, 0x51, 0x99, 0x2A,
    0x46, 0x1F, 0x89, 0x2A, 0x00, 0x83, 0x41, 0x99, 0x23, 0x5F, 0x00, 0x24, 0x46, 0x00, 0x28, 0x28,
    0x00, 0x2C, 0x28, 0x1F, 0x89, 0x24, 0x00, 0x00, 0x28, 0x00, 0x00, 0x2C, 0x00, 0x00, 0x23, 0x00,
    0x81, 0x51, 0x99, 0x2A, 0x1E, 0x1F, 0x89, 0x2A, 0x00, 0x81, 0x51, 0x99, 0x2A, 0x46, 0x1F, 0x89,
    0x2A, 0x00, 0x83, 0x41, 0x99, 0x23, 0x5F, 0x00, 0x2C, 0x28, 0x00, 0x24, 0x46, 0x1F, 0x89, 0x2C,
    0x00, 0x00, 0x24, 0x00, 0x00, 0x23, 0x00, 0x81, 0x51, 0x99, 0x2A, 0x1E, 0x1F, 0x89, 0x2A, 0x00,
    0x81, 0x51, 0x99, 0x2A, 0x46, 0x1F, 0x89, 0x2A, 0x00, 0x83, 0x41, 0x99, 0x23, 0x5F, 0x00, 0x24,
    0x46, 0x00, 0x28, 0x28, 0x00, 0x2C, 0x28, 0x1F, 0x89, 0x24, 0x00, 0x00, 0x28, 0x00, 0x00, 0x2C,
    0x00, 0x00, 0x23, 0x00, 0x81, 0x51, 0x99, 0x2A, 0x1E, 0x00, 0x28, 0x28, 0x00, 0x24, 0x46, 0x00,
    0x23, 0x5F, 0x1F, 0x89, 0x28, 0x00, 0x00, 0x24, 0x00, 0x00, 0x23, 0x00, 0x00, 0x2A, 0x00, 0x81,
    0x51, 0x99, 0x24, 0x46, 0x00, 0x28, 0x28, 0x00, 0x23, 0x5F, 0x00, 0x2A, 0x46, 0x1F, 0x89, 0x28,
    0x00, 0x00, 0x23, 0x00, 0x00, 0x2A, 0x00, 0x00, 0x24, 0x00, 0x81, 0x51, 0x99, 0x23, 0x5F, 0x00,
    0x24, 0x46, 0x00, 0x28, 0x28, 0x1F, 0x89, 0x24, 0x00, 0x00, 0x28, 0x00, 0x00, 0x23, 0x00, 0x81,
    0x51, 0x99, 0x24, 0x46, 0x00, 0x28, 0x28, 0x00, 0x23, 0x5F, 0x00, 0x2C, 0x28, 0x1F, 0x89, 0x28,
    0x00, 0x00, 0x23, 0x00, 0x00, 0x2C, 0x00, 0x00, 0x24, 0x00, 0x81, 0x51, 0x99, 0x2A, 0x1E, 0x1F,
    0x89, 0x2A, 0x00, 0x81, 0x51, 0x99, 0x2A, 0x46, 0x1F, 0x89, 0x2A, 0x00, 0x83, 0x41, 0x99, 0x23,
    0x5F, 0x00, 0x24, 0x46, 0x00, 0x28, 0x28, 0x00, 0x2C, 0x28, 0x1F, 0x89, 0x24, 0x00, 0x00, 0x28,
    0x00, 0x00, 0x2C, 0x00, 0x00, 0x23, 0x00, 0x81, 0x51, 0x99, 0x2A, 0x1E, 0x1F, 0x89, 0x2A, 0x00,
    0x81, 0x51, 0x99, 0x2A, 0x46, 0x1F, 0x89, 0x2A, 0x00, 0x83, 0x41, 0x99, 0x23, 0x5F, 0x00, 0x2C,
    0x28, 0x00, 0x24, 0x46, 0x1F, 0x89, 0x2C, 0x00, 0x00, 0x24, 0x00, 0x00, 0x23, 0x00, 0x81, 0x51,
    0x99, 0x2A, 0x1E, 0x1F, 0x89, 0x2A, 0x00, 0x81, 0x51, 0x99, 0x2A, 0x46, 0x1F, 0x89, 0x2A, 0x00,
    0x83, 0x41, 0x99, 0x23, 0x5F, 0x00, 0x24, 0x46, 0x00, 0x28, 0x28, 0x00, 0x2C, 0x28, 0x1F, 0x89,
    0x24, 0x00, 0x00, 0x28, 0x00, 0x00, 0x2C, 0x00, 0x00, 0x23, 0x00, 0x81, 0x51, 0x99, 0x2A, 0x1E,
    0x1F, 0x89, 0x2A, 0x00, 0x81, 0x51, 0x99, 0x23, 0x5F, 0x00, 0x2A, 0x46, 0x00, 0x24, 0x46, 0x1F,
    0x89, 0x2A, 0x00, 0x00, 0x24, 0x00, 0x00, 0x23, 0x00, 0x83, 0x41, 0x99, 0x23, 0x5F, 0x00, 0x2C,
    0x28, 0x00, 0x24, 0x46, 0x1F, 0x89, 0x2C, 0x00, 0x00, 0x24, 0x00, 0x00, 0x23, 0x00, 0x81, 0x51,
    0x99, 0x2A, 0x1E, 0x1F, 0x89, 0x2A, 0x00, 0x81, 0x51, 0x99, 0x2A, 0x46, 0x1F, 0x89, 0x2A, 0x00,
    0x83, 0x41, 0x99, 0x23, 0x5F, 0x00, 0x24, 0x46, 0x00, 0x28, 0x28, 0x00, 0x2C, 0x28, 0x1F, 0x89,
    0x24, 0x00, 0x00, 0x28, 0x00, 0x00, 0x2C, 0x00, 0x00, 0x23, 0x00, 0x81, 0x51, 0x99, 0x2A, 0x1E,
    0x1F, 0x89, 0x2A, 0x00, 0x81, 0x51, 0x99, 0x2A, 0x46, 0x1F, 0x89, 0x2A, 0x00, 0x83, 0x41, 0x99,
    0x23, 0x5F, 0x00, 0x2C, 0x28, 0x00, 0x24, 0x46, 0x1F, 0x89, 0x2C, 0x00, 0x00, 0x24, 0x00, 0x00,
    0x23, 0x00, 0x81, 0x51, 0x99, 0x2A, 0x1E, 0x1F, 0x89, 0x2A, 0x00, 0x81, 0x51, 0x99, 0x2A, 0x46,
    0x1F, 0x89, 0x2A, 0x00, 0x83, 0x41, 0x99, 0x23, 0x5F, 0x00, 0x24, 0x46, 0x00, 0x28, 0x28, 0x00,
    0x2C, 0x28, 0x1F, 0x89, 0x24, 0x00, 0x00, 0x28, 0x00, 0x00, 0x2C, 0x00, 0x00, 0x23, 0x00, 0x81,
    0x51, 0x99, 0x2A, 0x1E, 0x00, 0x24, 0x46, 0x00, 0x28, 0x28, 0x00, 0x23, 0x5F, 0x1F, 0x89, 0x24,
    0x00, 0x00, 0x28, 0x00, 0x00, 0x23, 0x00, 0x00, 0x2A, 0x00, 0x81, 0x51, 0x99, 0x24, 0x46, 0x00,
    0x23, 0x5F, 0x00, 0x28, 0x28, 0x00, 0x2A, 0x46, 0x1F, 0x89, 0x23, 0x00, 0x00, 0x28, 0x00, 0x00,
    0x2A, 0x00, 0x00, 0x24, 0x00, 0x81, 0x51, 0x99, 0x28, 0x28, 0x00, 0x24, 0x46, 0x00, 0x23, 0x5F,
    0x1F, 0x89, 0x24, 0x00, 0x00, 0x23, 0x00, 0x00, 0x28, 0x00, 0x81, 0x51, 0x99, 0x24, 0x46, 0x00,
    0x23, 0x5F, 0x00, 0x28, 0x28, 0x00, 0x2C, 0x28, 0x1F, 0x89, 0x23, 0x00, 0x00, 0x28, 0x00, 0x00,
    0x2C, 0x00, 0x00, 0x24, 0x00, 0x81, 0x51, 0x99, 0x2A, 0x1E, 0x1F, 0x89, 0x2A, 0x00, 0x81, 0x51,
    0x99, 0x2A, 0x46, 0x1F, 0x89, 0x2A, 0x00, 0x83, 0x41, 0x99, 0x23, 0x5F, 0x00, 0x24, 0x46, 0x00,
    0x28, 0x28, 0x00, 0x2C, 0x28, 0x1F, 0x89, 0x24, 0x00, 0x00, 0x28, 0x00, 0x00, 0x2C, 0x00, 0x00,
    0x23, 0x00, 0x81, 0x51, 0x99, 0x2A, 0x1E, 0x1F, 0x89, 0x2A, 0x00, 0x81, 0x51, 0x99, 0x2A, 0x46,
    0x1F, 0x89, 0x2A, 0x00, 0x83, 0x41, 0x99, 0x23, 0x5F, 0x00, 0x2C, 0x28, 0x00, 0x24, 0x46, 0x1F,
    0x89, 0x2C, 0x00, 0x00, 0x24, 0x00, 0x00, 0x23, 0x00, 0x81, 0x51, 0x99, 0x2A, 0x1E, 0x1F, 0x89,
    0x2A, 0x00, 0x81, 0x51, 0x99, 0x2A, 0x46, 0x1F, 0x89, 0x2A, 0x00, 0x83, 0x41, 0x99, 0x23, 0x5F,
    0x00, 0x24, 0x46, 0x00, 0x28, 0x28, 0x00, 0x25, 0x5F, 0x00, 0x2C, 0x28, 0x00, 0x39, 0x50, 0x1F,
    0x89, 0x24, 0x00, 0x00, 0x28, 0x00, 0x00, 0x25, 0x00, 0x00, 0x2C, 0x00, 0x00, 0x39, 0x00, 0x00,
    0x23, 0x00, 0x87, 0x21, 0x99, 0x31, 0x5F, 0x00, 0x24, 0x46, 0x00, 0x23, 0x5F, 0x00, 0x2C, 0x28,
    0x1F, 0x89, 0x24, 0x00, 0x00, 0x23, 0x00, 0x00, 0x2C, 0x00, 0x00, 0x31, 0x00, 0x81, 0x51, 0x99,
    0x2A, 0x1E, 0x1F, 0x89, 0x2A, 0x00, 0x81, 0x51, 0x99, 0x2A, 0x46, 0x1F, 0x89, 0x2A, 0x00, 0x83,
    0x41, 0x99, 0x28, 0x3C, 0x00, 0x24, 0x46, 0x00, 0x2C, 0x28, 0x00, 0x23, 0x5F, 0x1F, 0x89, 0x24,
    0x00, 0x00, 0x2C, 0x00, 0x00, 0x23, 0x00, 0x00, 0x28, 0x00, 0x81, 0x51, 0x99, 0x2A, 0x1E, 0x1F,
    0x89, 0x2A, 0x00, 0x81, 0x51, 0x99, 0x2A, 0x46, 0x1F, 0x89, 0x2A, 0x00, 0x83, 0x41, 0x99, 0x2C,
    0x28, 0x00, 0x23, 0x5F, 0x00, 0x24, 0x46, 0x1F, 0x89, 0x23, 0x00, 0x00, 0x24, 0x00, 0x00, 0x2C,
    0x00, 0x81, 0x51, 0x99, 0x2A, 0x1E, 0x1F, 0x89, 0x2A, 0x00, 0x81, 0x51, 0x99, 0x2A, 0x46, 0x1F,
    0x89, 0x2A, 0x00, 0x83, 0x41, 0x99, 0x23, 0x5F, 0x00, 0x24, 0x46, 0x00, 0x2C, 0x28, 0x00, 0x28,
    0x3C, 0x1F, 0x89, 0x24, 0x00, 0x00, 0x2C, 0x00, 0x00, 0x28, 0x00, 0x00, 0x23, 0x00, 0x81, 0x51,
    0x99, 0x24, 0x46, 0x00, 0x2A, 0x1E, 0x1F, 0x89, 0x2A, 0x00, 0x00, 0x24, 0x00, 0x81, 0x51, 0x99,
    0x24, 0x46, 0x00, 0x2A, 0x46, 0x1F, 0x89, 0x2A, 0x00, 0x00, 0x24, 0x00, 0x81, 0x51, 0x99, 0x24,
    0x46, 0x1F, 0x89, 0x24, 0x00, 0x81, 0x51, 0x99, 0x2C, 0x28, 0x00, 0x23, 0x5F, 0x00, 0x24, 0x46,
    0x1F, 0x89, 0x23, 0x00, 0x00, 0x24, 0x00, 0x00, 0x2C, 0x00, 0x81, 0x51, 0x99, 0x2A, 0x1E, 0x1F,
    0x89, 0x2A, 0x00, 0x81, 0x51, 0x99, 0x2A, 0x46, 0x1F, 0x89, 0x2A, 0x00, 0x83, 0x41, 0x99, 0x28,
    0x3C, 0x00, 0x24, 0x46, 0x00, 0x2C, 0x28, 0x00, 0x23, 0x5F, 0x1F, 0x89, 0x24, 0x00, 0x00, 0x2C,
    0x00, 0x00, 0x23, 0x00, 0x00, 0x28, 0x00, 0x81, 0x51, 0x99, 0x2A, 0x1E, 0x1F, 0x89, 0x2A, 0x00,
    0x81, 0x51, 0x99, 0x2A, 0x46, 0x1F, 0x89, 0x2A, 0x00, 0x83, 0x41, 0x99, 0x2C, 0x28, 0x00, 0x23,
    0x5F, 0x00, 0x24, 0x46, 0x1F, 0x89, 0x23, 0x00, 0x00, 0x24, 0x00, 0x00, 0x2C, 0x00, 0x81, 0x51,
    0x99, 0x2A, 0x1E, 0x1F, 0x89, 0x2A, 0x00, 0x81, 0x51, 0x99, 0x2A, 0x46, 0x1F, 0x89, 0x2A, 0x00,
    0x83, 0x41, 0x99, 0x28, 0x3C, 0x00, 0x24, 0x46, 0x00, 0x2C, 0x28, 0x00, 0x23, 0x5F, 0x1F, 0x89,
    0x24, 0x00, 0x00, 0x2C, 0x00, 0x00, 0x23, 0x00, 0x00, 0x28, 0x00, 0x81, 0x51, 0x99, 0x2A, 0x1E,
    0x1F, 0x89, 0x2A, 0x00, 0x81, 0x51, 0x99, 0x2A, 0x46, 0x00, 0x23, 0x5F, 0x00, 0x24, 0x46, 0x1F,
    0x89, 0x23, 0x00, 0x00, 0x24, 0x00, 0x00, 0x2A, 0x00, 0x83, 0x41, 0x99, 0x2C, 0x28, 0x00, 0x23,
    0x5F, 0x00, 0x24, 0x46, 0x1F, 0x89, 0x23, 0x00, 0x00, 0x24, 0x00, 0x00, 0x2C, 0x00, 0x81, 0x51,
    0x99, 0x2A, 0x1E, 0x1F, 0x89, 0x2A, 0x00, 0x81, 0x51, 0x99, 0x2A, 0x46, 0x1F, 0x89, 0x2A, 0x00,
    0x83, 0x41, 0x99, 0x23, 0x5F, 0x00, 0x24, 0x46, 0x00, 0x2C, 0x28, 0x00, 0x28, 0x3C, 0x1F, 0x89,
    0x24, 0x00, 0x00, 0x2C, 0x00, 0x00, 0x28, 0x00, 0x00, 0x23, 0x00, 0x81, 0x51, 0x99, 0x2A, 0x1E,
    0x1F, 0x89, 0x2A, 0x00, 0x81, 0x51, 0x99, 0x2A, 0x46, 0x1F, 0x89, 0x2A, 0x00, 0x83, 0x41, 0x99,
    0x2C, 0x28, 0x00, 0x23, 0x5F, 0x00, 0x24, 0x46, 0x1F, 0x89, 0x23, 0x00, 0x00, 0x24, 0x00, 0x00,
    0x2C, 0x00, 0x81, 0x51, 0x99, 0x2A, 0x1E, 0x1F, 0x89, 0x2A, 0x00, 0x81, 0x51, 0x99, 0x2A, 0x46,
    0x1F, 0x89, 0x2A, 0x00, 0x83, 0x41, 0x99, 0x23, 0x5F, 0x00, 0x24, 0x46, 0x00, 0x2C, 0x28, 0x00,
    0x28, 0x3C, 0x1F, 0x89, 0x24, 0x00, 0x00, 0x2C, 0x00, 0x00, 0x28, 0x00, 0x00, 0x23, 0x00, 0x81,
    0x51, 0x99, 0x24, 0x46, 0x00, 0x2A, 0x1E, 0x1F, 0x89, 0x2A, 0x00, 0x00, 0x24, 0x00, 0x81, 0x51,
    0x99, 0x24, 0x46, 0x00, 0x2A, 0x46, 0x1F, 0x89, 0x2A, 0x00, 0x00, 0x24, 0x00, 0x81, 0x51, 0x99,
    0x24, 0x46, 0x1F, 0x89, 0x24, 0x00, 0x81, 0x51, 0x99, 0x2C, 0x28, 0x00, 0x23, 0x5F, 0x00, 0x24,
    0x46, 0x1F, 0x89, 0x23, 0x00, 0x00, 0x24, 0x00, 0x00, 0x2C, 0x00, 0x81, 0x51, 0x99, 0x2A, 0x1E,
    0x1F, 0x89, 0x2A, 0x00, 0x81, 0x51, 0x99, 0x2A, 0x46, 0x1F, 0x89, 0x2A, 0x00, 0x83, 0x41, 0x99,
    0x28, 0x3C, 0x00, 0x24, 0x46, 0x00, 0x2C, 0x28, 0x00, 0x23, 0x5F, 0x1F, 0x89, 0x24, 0x00, 0x00,
    0x2C, 0x00, 0x00, 0x23, 0x00, 0x00, 0x28, 0x00, 0x81, 0x51, 0x99, 0x2A, 0x1E, 0x1F, 0x89, 0x2A,
    0x00, 0x81, 0x51, 0x99, 0x2A, 0x46, 0x1F, 0x89, 0x2A, 0x00, 0x83, 0x41, 0x99, 0x2C, 0x28, 0x00,
    0x23, 0x5F, 0x00, 0x24, 0x46, 0x1F, 0x89, 0x23, 0x00, 0x00, 0x24, 0x00, 0x00, 0x2C, 0x00, 0x81,
    0x51, 0x99, 0x2A, 0x1E, 0x1F, 0x89, 0x2A, 0x00, 0x81, 0x51, 0x99, 0x2A, 0x46, 0x1F, 0x89, 0x2A,
    0x00, 0x83, 0x41, 0x99, 0x28, 0x3C, 0x00, 0x24, 0x46, 0x00, 0x2C, 0x28, 0x00, 0x23, 0x5F, 0x1F,
    0x89, 0x24, 0x00, 0x00, 0x2C, 0x00, 0x00, 0x23, 0x00, 0x00, 0x28, 0x00, 0x81, 0x51, 0x99, 0x2A,
    0x1E, 0x1F, 0x89, 0x2A, 0x00, 0x81, 0x51, 0x99, 0x2A, 0x46, 0x00, 0x23, 0x5F, 0x00, 0x24, 0x46,
    0x1F, 0x89, 0x23, 0x00, 0x00, 0x24, 0x00, 0x00, 0x2A, 0x00, 0x83, 0x41, 0x99, 0x23, 0x5F, 0x00,
    0x2C, 0x28, 0x00, 0x24, 0x46, 0x1F, 0x89, 0x2C, 0x00, 0x00, 0x24, 0x00, 0x00, 0x23, 0x00, 0x81,
    0x51, 0x99, 0x2A, 0x1E, 0x1F, 0x89, 0x2A, 0x00, 0x81, 0x51, 0x99, 0x2A, 0x46, 0x1F, 0x89, 0x2A,
    0x00, 0x83, 0x41, 0x99, 0x23, 0x5F, 0x00, 0x24, 0x46, 0x00, 0x28, 0x3C, 0x00, 0x2C, 0x28, 0x1F,
    0x89, 0x24, 0x00, 0x00, 0x28, 0x00, 0x00, 0x2C, 0x00, 0x00, 0x23, 0x00, 0x81, 0x51, 0x99, 0x2A,
    0x1E, 0x1F, 0x89, 0x2A, 0x00, 0x81, 0x51, 0x99, 0x2A, 0x46, 0x1F, 0x89, 0x2A, 0x00, 0x83, 0x41,
    0x99, 0x23, 0x5F, 0x00, 0x2C, 0x28, 0x00, 0x24, 0x46, 0x1F, 0x89, 0x2C, 0x00, 0x00, 0x24, 0x00,
    0x00, 0x23, 0x00, 0x81, 0x51, 0x99, 0x2A, 0x1E, 0x1F, 0x89, 0x2A, 0x00, 0x81, 0x51, 0x99, 0x2A,
    0x46, 0x1F, 0x89, 0x2A, 0x00, 0x83, 0x41, 0x99, 0x23, 0x5F, 0x00, 0x24, 0x46, 0x00, 0x28, 0x3C,
    0x00, 0x2C, 0x28, 0x1F, 0x89, 0x24, 0x00, 0x00, 0x28, 0x00, 0x00, 0x2C, 0x00, 0x00, 0x23, 0x00,
    0x81, 0x51, 0x99, 0x24, 0x46, 0x00, 0x2A, 0x1E, 0x1F, 0x89, 0x2A, 0x00, 0x00, 0x24, 0x00, 0x81,
    0x51, 0x99, 0x2A, 0x46, 0x00, 0x24, 0x46, 0x1F, 0x89, 0x24, 0x00, 0x00, 0x2A, 0x00, 0x81, 0x51,
    0x99, 0x24, 0x46, 0x1F, 0x89, 0x24, 0x00, 0x81, 0x51, 0x99, 0x23, 0x5F, 0x00, 0x2C, 0x28, 0x00,
    0x24, 0x46, 0x1F, 0x89, 0x2C, 0x00, 0x00, 0x24, 0x00, 0x00, 0x23, 0x00, 0x81, 0x51, 0x99, 0x2A,
    0x1E, 0x1F, 0x89, 0x2A, 0x00, 0x81, 0x51, 0x99, 0x2A, 0x46, 0x1F, 0x89, 0x2A, 0x00, 0x83, 0x41,
    0x99, 0x23, 0x5F, 0x00, 0x24, 0x46, 0x00, 0x28, 0x3C, 0x00, 0x2C, 0x28, 0x1F, 0x89, 0x24, 0x00,
    0x00, 0x28, 0x00, 0x00, 0x2C, 0x00, 0x00, 0x23, 0x00, 0x81, 0x51, 0x99, 0x2A, 0x1E, 0x1F, 0x89,
    0x2A, 0x00, 0x81, 0x51, 0x99, 0x2A, 0x46, 0x1F, 0x89, 0x2A, 0x00, 0x83, 0x41, 0x99, 0x23, 0x5F,
    0x00, 0x2C, 0x28, 0x00, 0x24, 0x46, 0x1F, 0x89, 0x2C, 0x00, 0x00, 0x24, 0x00, 0x00, 0x23, 0x00,
    0x81, 0x51, 0x99, 0x2A, 0x1E, 0x1F, 0x89, 0x2A, 0x00, 0x81, 0x51, 0x99, 0x2A, 0x46, 0x1F, 0x89,
    0x2A, 0x00, 0x83, 0x41, 0x99, 0x23, 0x5F, 0x00, 0x24, 0x46, 0x00, 0x28, 0x3C, 0x00, 0x2C, 0x28,
    0x1F, 0x89, 0x24, 0x00, 0x00, 0x28, 0x00, 0x00, 0x2C, 0x00, 0x00, 0x23, 0x00, 0x81, 0x51, 0x99,
    0x2A, 0x1E, 0x1F, 0x89, 0x2A, 0x00, 0x81, 0x51, 0x99, 0x23, 0x5F, 0x00, 0x2A, 0x46, 0x00, 0x24,
    0x46, 0x1F, 0x89, 0x2A, 0x00, 0x00, 0x24, 0x00, 0x00, 0x23, 0x00, 0x83, 0x41, 0x99, 0x23, 0x5F,
    0x00, 0x2C, 0x28, 0x00, 0x24, 0x46, 0x1F, 0x89, 0x2C, 0x00, 0x00, 0x24, 0x00, 0x00, 0x23, 0x00,
    0x81, 0x51, 0x99, 0x2A, 0x1E, 0x1F, 0x89, 0x2A, 0x00, 0x81, 0x51, 0x99, 0x2A, 0x46, 0x1F, 0x89,
    0x2A, 0x00, 0x83, 0x41, 0x99, 0x23, 0x5F, 0x00, 0x24, 0x46, 0x00, 0x28, 0x3C, 0x00, 0x2C, 0x28,
    0x1F, 0x89, 0x24, 0x00, 0x00, 0x28, 0x00, 0x00, 0x2C, 0x00, 0x00, 0x23, 0x00, 0x81, 0x51, 0x99,
    0x2A, 0x1E, 0x1F, 0x89, 0x2A, 0x00, 0x81, 0x51, 0x99, 0x2A, 0x46, 0x1F, 0x89, 0x2A, 0x00, 0x83,
    0x41, 0x99, 0x23, 0x5F, 0x00, 0x2C, 0x28, 0x00, 0x24, 0x46, 0x1F, 0x89, 0x2C, 0x00, 0x00, 0x24,
    0x00, 0x00, 0x23, 0x00, 0x81, 0x51, 0x99, 0x2A, 0x1E, 0x1F, 0x89, 0x2A, 0x00, 0x81, 0x51, 0x99,
    0x2A, 0x46, 0x1F, 0x89, 0x2A, 0x00, 0x83, 0x41, 0x99, 0x23, 0x5F, 0x00, 0x24, 0x46, 0x00, 0x28,
    0x3C, 0x00, 0x2C, 0x28, 0x1F, 0x89, 0x24, 0x00, 0x00, 0x28, 0x00, 0x00, 0x2C, 0x00, 0x00, 0x23,
    0x00, 0x81, 0x51, 0x99, 0x24, 0x46, 0x00, 0x2A, 0x1E, 0x1F, 0x89, 0x2A, 0x00, 0x00, 0x24, 0x00,
    0x81, 0x51, 0x99, 0x2A, 0x46, 0x00, 0x24, 0x46, 0x1F, 0x89, 0x24, 0x00, 0x00, 0x2A, 0x00, 0x81,
    0x51, 0x99, 0x24, 0x46, 0x1F, 0x89, 0x24, 0x00, 0x81, 0x51, 0x99, 0x23, 0x5F, 0x00, 0x2C, 0x28,
    0x00, 0x24, 0x46, 0x1F, 0x89, 0x2C, 0x00, 0x00, 0x24, 0x00, 0x00, 0x23, 0x00, 0x81, 0x51, 0x99,
    0x2A, 0x1E, 0x1F, 0x89, 0x2A, 0x00, 0x81, 0x51, 0x99, 0x2A, 0x46, 0x1F, 0x89, 0x2A, 0x00, 0x83,
    0x41, 0x99, 0x23, 0x5F, 0x00, 0x24, 0x46, 0x00, 0x28, 0x3C, 0x00, 0x2C, 0x28, 0x1F, 0x89, 0x24,
    0x00, 0x00, 0x28, 0x00, 0x00, 0x2C, 0x00, 0x00, 0x23, 0x00, 0x81, 0x51, 0x99, 0x2A, 0x1E, 0x1F,
    0x89, 0x2A, 0x00, 0x81, 0x51, 0x99, 0x2A, 0x46, 0x1F, 0x89, 0x2A, 0x00, 0x83, 0x41, 0x99, 0x24,
    0x46, 0x00, 0x23, 0x5F, 0x00, 0x39, 0x55, 0x00, 0x28, 0x32, 0x1F, 0x89, 0x23, 0x00, 0x00, 0x39,
    0x00, 0x00, 0x28, 0x00, 0x00, 0x24, 0x00, 0x82, 0x21, 0x99, 0x28, 0x32, 0x00, 0x23, 0x5F, 0x00,
    0x39, 0x55, 0x00, 0x24, 0x46, 0x1F, 0x89, 0x23, 0x00, 0x00, 0x39, 0x00, 0x00, 0x24, 0x00, 0x00,
    0x28, 0x00, 0x82, 0x21, 0x99, 0x39, 0x55, 0x00, 0x28, 0x32, 0x00, 0x23, 0x5F, 0x00, 0x24, 0x46,
    0x1F, 0x89, 0x28, 0x00, 0x00, 0x23, 0x00, 0x00, 0x24, 0x00, 0x00, 0x39, 0x00, 0x82, 0x21, 0x99,
    0x23, 0x5F, 0x00, 0x39, 0x55, 0x00, 0x28, 0x32, 0x00, 0x24, 0x46, 0x1F, 0x89, 0x39, 0x00, 0x00,
    0x28, 0x00, 0x00, 0x24, 0x00, 0x00, 0x23, 0x00, 0x82, 0x21, 0x99, 0x39, 0x55, 0x00, 0x23, 0x5F,
    0x00, 0x24, 0x46, 0x00, 0x28, 0x32, 0x1F, 0x89, 0x23, 0x00, 0x00, 0x24, 0x00, 0x00, 0x28, 0x00,
    0x00, 0x39, 0x00, 0x82, 0x21, 0x99, 0x28, 0x32, 0x00, 0x23, 0x5F, 0x00, 0x24, 0x46, 0x00, 0x39,
    0x55, 0x1F, 0x89, 0x23, 0x00, 0x00, 0x24, 0x00, 0x00, 0x39, 0x00, 0x00, 0x28, 0x00, 0x82, 0x21,
    0x99, 0x28, 0x32, 0x00, 0x23, 0x5F, 0x00, 0x2C, 0x28, 0x00, 0x31, 0x5F, 0x00, 0x24, 0x46, 0x1F,
    0x89, 0x23, 0x00, 0x00, 0x2C, 0x00, 0x00, 0x31, 0x00, 0x00, 0x24, 0x00, 0x00, 0x28, 0x00, 0x81,
    0x51, 0x99, 0x2A, 0x1E, 0x1F, 0x89, 0x2A, 0x00, 0x81, 0x51, 0x99, 0x2A, 0x46, 0x1F, 0x89, 0x2A,
    0x00, 0x83, 0x41, 0x99, 0x28, 0x3C, 0x00, 0x24, 0x46, 0x00, 0x2C, 0x28, 0x00, 0x23, 0x5F, 0x1F,
    0x89, 0x24, 0x00, 0x00, 0x2C, 0x00, 0x00, 0x23, 0x00, 0x00, 0x28, 0x00, 0x81, 0x51, 0x99, 0x2A,
    0x1E, 0x1F, 0x89, 0x2A, 0x00, 0x81, 0x51, 0x99, 0x2A, 0x46, 0x1F, 0x89, 0x2A, 0x00, 0x83, 0x41,
    0x99, 0x2C, 0x28, 0x00, 0x23, 0x5F, 0x00, 0x24, 0x46, 0x1F, 0x89, 0x23, 0x00, 0x00, 0x24, 0x00,
    0x00, 0x2C, 0x00, 0x81, 0x51, 0x99, 0x2A, 0x1E, 0x1F, 0x89, 0x2A, 0x00, 0x81, 0x51, 0x99, 0x2A,
    0x46, 0x1F, 0x89, 0x2A, 0x00, 0x83, 0x41, 0x99, 0x2C, 0x28, 0x00, 0x23, 0x5F, 0x00, 0x24, 0x46,
    0x00, 0x28, 0x3C, 0x1F, 0x89, 0x23, 0x00, 0x00, 0x24, 0x00, 0x00, 0x28, 0x00, 0x00, 0x2C, 0x00,
    0x81, 0x51, 0x99, 0x24, 0x46, 0x00, 0x2A, 0x1E, 0x1F, 0x89, 0x2A, 0x00, 0x00, 0x24, 0x00, 0x81,
    0x51, 0x99, 0x24, 0x46, 0x00, 0x2A, 0x46, 0x1F, 0x89, 0x2A, 0x00, 0x00, 0x24, 0x00, 0x81, 0x51,
    0x99, 0x24, 0x46, 0x1F, 0x89, 0x24, 0x00, 0x81, 0x51, 0x99, 0x2C, 0x28, 0x00, 0x23, 0x5F, 0x00,
    0x24, 0x46, 0x1F, 0x89, 0x23, 0x00, 0x00, 0x24, 0x00, 0x00, 0x2C, 0x00, 0x81, 0x51, 0x99, 0x2A,
    0x1E, 0x1F, 0x89, 0x2A, 0x00, 0x81, 0x51, 0x99, 0x2A, 0x46, 0x1F, 0x89, 0x2A, 0x00, 0x83, 0x41,
    0x99, 0x28, 0x3C, 0x00, 0x24, 0x46, 0x00, 0x2C, 0x28, 0x00, 0x23, 0x5F, 0x1F, 0x89, 0x24, 0x00,
    0x00, 0x2C, 0x00, 0x00, 0x23, 0x00, 0x00, 0x28, 0x00, 0x81, 0x51, 0x99, 0x2A, 0x1E, 0x1F, 0x89,
    0x2A, 0x00, 0x81, 0x51, 0x99, 0x2A, 0x46, 0x1F, 0x89, 0x2A, 0x00, 0x83, 0x41, 0x99, 0x2C, 0x28,
    0x00, 0x23, 0x5F, 0x00, 0x24, 0x46, 0x1F, 0x89, 0x23, 0x00, 0x00, 0x24, 0x00, 0x00, 0x2C, 0x00,
    0x81, 0x51, 0x99, 0x2A, 0x1E, 0x1F, 0x89, 0x2A, 0x00, 0x81, 0x51, 0x99, 0x2A, 0x46, 0x1F, 0x89,
    0x2A, 0x00, 0x83, 0x41, 0x99, 0x28, 0x3C, 0x00, 0x24, 0x46, 0x00, 0x2C, 0x28, 0x00, 0x23, 0x5F,
    0x1F, 0x89, 0x24, 0x00, 0x00, 0x2C, 0x00, 0x00, 0x23, 0x00, 0x00, 0x28, 0x00, 0x81, 0x51, 0x99,
    0x2A, 0x1E, 0x1F, 0x89, 0x2A, 0x00, 0x81, 0x51, 0x99, 0x2A, 0x46, 0x00, 0x23, 0x5F, 0x00, 0x24,
    0x46, 0x1F, 0x89, 0x23, 0x00, 0x00, 0x24, 0x00, 0x00, 0x2A, 0x00, 0x83, 0x41, 0x99, 0x2C, 0x28,
    0x00, 0x23, 0x5F, 0x00, 0x24, 0x46, 0x1F, 0x89, 0x23, 0x00, 0x00, 0x24, 0x00, 0x00, 0x2C, 0x00,
    0x81, 0x51, 0x99, 0x2A, 0x1E, 0x1F, 0x89, 0x2A, 0x00, 0x81, 0x51, 0x99, 0x2A, 0x46, 0x1F, 0x89,
    0x2A, 0x00, 0x83, 0x41, 0x99, 0x28, 0x3C, 0x00, 0x24, 0x46, 0x00, 0x2C, 0x28, 0x00, 0x23, 0x5F,
    0x1F, 0x89, 0x24, 0x00, 0x00, 0x2C, 0x00, 0x00, 0x23, 0x00, 0x00, 0x28, 0x00, 0x81, 0x51, 0x99,
    0x2A, 0x1E, 0x1F, 0x89, 0x2A, 0x00, 0x81, 0x51, 0x99, 0x2A, 0x46, 0x1F, 0x89, 0x2A, 0x00, 0x83,
    0x41, 0x99, 0x2C, 0x28, 0x00, 0x23, 0x5F, 0x00, 0x24, 0x46, 0x1F, 0x89, 0x23, 0x00, 0x00, 0x24,
    0x00, 0x00, 0x2C, 0x00, 0x81, 0x51, 0x99, 0x2A, 0x1E, 0x1F, 0x89, 0x2A, 0x00, 0x81, 0x51, 0x99,
    0x2A, 0x46, 0x1F, 0x89, 0x2A, 0x00, 0x83, 0x41, 0x99, 0x2C, 0x28, 0x00, 0x23, 0x5F, 0x00, 0x24,
    0x46, 0x00, 0x28, 0x3C, 0x1F, 0x89, 0x23, 0x00, 0x00, 0x24, 0x00, 0x00, 0x28, 0x00, 0x00, 0x2C,
    0x00, 0x81, 0x51, 0x99, 0x24, 0x46, 0x00, 0x2A, 0x1E, 0x1F, 0x89, 0x2A, 0x00, 0x00, 0x24, 0x00,
    0x81, 0x51, 0x99, 0x24, 0x46, 0x00, 0x2A, 0x46, 0x1F, 0x89, 0x2A, 0x00, 0x00, 0x24, 0x00, 0x81,
    0x51, 0x99, 0x24, 0x46, 0x1F, 0x89, 0x24, 0x00, 0x81, 0x51, 0x99, 0x2C, 0x28, 0x00, 0x23, 0x5F,
    0x00, 0x24, 0x46, 0x1F, 0x89, 0x23, 0x00, 0x00, 0x24, 0x00, 0x00, 0x2C, 0x00, 0x81, 0x51, 0x99,
    0x2A, 0x1E, 0x1F, 0x89, 0x2A, 0x00, 0x81, 0x51, 0x99, 0x2A, 0x46, 0x1F, 0x89, 0x2A, 0x00, 0x83,
    0x41, 0x99, 0x28, 0x3C, 0x00, 0x24, 0x46, 0x00, 0x2C, 0x28, 0x00, 0x23, 0x5F, 0x1F, 0x89, 0x24,
    0x00, 0x00, 0x2C, 0x00, 0x00, 0x23, 0x00, 0x00, 0x28, 0x00, 0x81, 0x51, 0x99, 0x2A, 0x1E, 0x1F,
    0x89, 0x2A, 0x00, 0x81, 0x51, 0x99, 0x2A, 0x46, 0x1F, 0x89, 0x2A, 0x00, 0x83, 0x41, 0x99, 0x2C,
    0x28, 0x00, 0x23, 0x5F, 0x00, 0x24, 0x46, 0x1F, 0x89, 0x23, 0x00, 0x00, 0x24, 0x00, 0x00, 0x2C,
    0x00, 0x81, 0x51, 0x99, 0x2A, 0x1E, 0x1F, 0x89, 0x2A, 0x00, 0x81, 0x51, 0x99, 0x2A, 0x46, 0x1F,
    0x89, 0x2A, 0x00, 0x83, 0x41, 0x99, 0x28, 0x3C, 0x00, 0x24, 0x46, 0x00, 0x2C, 0x28, 0x00, 0x23,
    0x5F, 0x1F, 0x89, 0x24, 0x00, 0x00, 0x2C, 0x00, 0x00, 0x23, 0x00, 0x00, 0x28, 0x00, 0x81, 0x51,
    0x99, 0x2A, 0x1E, 0x1F, 0x89, 0x2A, 0x00, 0x81, 0x51, 0x99, 0x2A, 0x46, 0x00, 0x23, 0x5F, 0x00,
    0x24, 0x46, 0x1F, 0x89, 0x23, 0x00, 0x00, 0x24, 0x00, 0x00, 0x2A, 0x00, 0x83, 0x41, 0x99, 0x23,
    0x5F, 0x00, 0x2C, 0x28, 0x00, 0x24, 0x46, 0x1F, 0x89, 0x2C, 0x00, 0x00, 0x24, 0x00, 0x00, 0x23,
    0x00, 0x81, 0x51, 0x99, 0x2A, 0x1E, 0x1F, 0x89, 0x2A, 0x00, 0x81, 0x51, 0x99, 0x2A, 0x46, 0x1F,
    0x89, 0x2A, 0x00, 0x83, 0x41, 0x99, 0x23, 0x5F, 0x00, 0x24, 0x46, 0x00, 0x28, 0x3C, 0x00, 0x2C,
    0x28, 0x1F, 0x89, 0x24, 0x00, 0x00, 0x28, 0x00, 0x00, 0x2C, 0x00, 0x00, 0x23, 0x00, 0x81, 0x51,
    0x99, 0x2A, 0x1E, 0x1F, 0x89, 0x2A, 0x00, 0x81, 0x51, 0x99, 0x2A, 0x46, 0x1F, 0x89, 0x2A, 0x00,
    0x83, 0x41, 0x99, 0x23, 0x5F, 0x00, 0x2C, 0x28, 0x00, 0x24, 0x46, 0x1F, 0x89, 0x2C, 0x00, 0x00,
    0x24, 0x00, 0x00, 0x23, 0x00, 0x81, 0x51, 0x99, 0x2A, 0x1E, 0x1F, 0x89, 0x2A, 0x00, 0x81, 0x51,
    0x99, 0x2A, 0x46, 0x1F, 0x89, 0x2A, 0x00, 0x83, 0x41, 0x99, 0x28, 0x3C, 0x00, 0x2C, 0x28, 0x00,
    0x23, 0x5F, 0x00, 0x24, 0x46, 0x1F, 0x89, 0x2C, 0x00, 0x00, 0x23, 0x00, 0x00, 0x24, 0x00, 0x00,
    0x28, 0x00, 0x81, 0x51, 0x99, 0x24, 0x46, 0x00, 0x2A, 0x1E, 0x1F, 0x89, 0x2A, 0x00, 0x00, 0x24,
    0x00, 0x81, 0x51, 0x99, 0x2A, 0x46, 0x00, 0x24, 0x46, 0x1F, 0x89, 0x24, 0x00, 0x00, 0x2A, 0x00,
    0x81, 0x51, 0x99, 0x24, 0x46, 0x1F, 0x89, 0x24, 0x00, 0x81, 0x51, 0x99, 0x24, 0x46, 0x00, 0x2C,
    0x28, 0x00, 0x23, 0x5F, 0x1F, 0x89, 0x2C, 0x00, 0x00, 0x23, 0x00, 0x00, 0x24, 0x00, 0x81, 0x51,
    0x99, 0x2A, 0x1E, 0x1F, 0x89, 0x2A, 0x00, 0x81, 0x51, 0x99, 0x2A, 0x46, 0x1F, 0x89, 0x2A, 0x00,
    0x83, 0x41, 0x99, 0x23, 0x5F, 0x00, 0x24, 0x46, 0x00, 0x28, 0x3C, 0x00, 0x2C, 0x28, 0x1F, 0x89,
    0x24, 0x00, 0x00, 0x28, 0x00, 0x00, 0x2C, 0x00, 0x00, 0x23, 0x00, 0x81, 0x51, 0x99, 0x2A, 0x1E,
    0x1F, 0x89, 0x2A, 0x00, 0x81, 0x51, 0x99, 0x2A, 0x46, 0x1F, 0x89, 0x2A, 0x00, 0x83, 0x41, 0x99,
    0x23, 0x5F, 0x00, 0x2C, 0x28, 0x00, 0x24, 0x46, 0x1F, 0x89, 0x2C, 0x00, 0x00, 0x24, 0x00, 0x00,
    0x23, 0x00, 0x81, 0x51, 0x99, 0x2A, 0x1E, 0x1F, 0x89, 0x2A, 0x00, 0x81, 0x51, 0x99, 0x2A, 0x46,
    0x1F, 0x89, 0x2A, 0x00, 0x83, 0x41, 0x99, 0x23, 0x5F, 0x00, 0x24, 0x46, 0x00, 0x28, 0x3C, 0x00,
    0x2C, 0x28, 0x1F, 0x89, 0x24, 0x00, 0x00, 0x28, 0x00, 0x00, 0x2C, 0x00, 0x00, 0x23, 0x00, 0x81,
    0x51, 0x99, 0x2A, 0x1E, 0x1F, 0x89, 0x2A, 0x00, 0x81, 0x51, 0x99, 0x23, 0x5F, 0x00, 0x2A, 0x46,
    0x00, 0x24, 0x46, 0x1F, 0x89, 0x2A, 0x00, 0x00, 0x24, 0x00, 0x00, 0x23, 0x00, 0x83, 0x41, 0x99,
    0x23, 0x5F, 0x00, 0x2C, 0x28, 0x00, 0x24, 0x46, 0x1F, 0x89, 0x2C, 0x00, 0x00, 0x24, 0x00, 0x00,
    0x23, 0x00, 0x81, 0x51, 0x99, 0x2A, 0x1E, 0x1F, 0x89, 0x2A, 0x00, 0x81, 0x51, 0x99, 0x2A, 0x46,
    0x1F, 0x89, 0x2A, 0x00, 0x83, 0x41, 0x99, 0x23, 0x5F, 0x00, 0x24, 0x46, 0x00, 0x28, 0x3C, 0x00,
    0x2C, 0x28, 0x1F, 0x89, 0x24, 0x00, 0x00, 0x28, 0x00, 0x00, 0x2C, 0x00, 0x00, 0x23, 0x00, 0x81,
    0x51, 0x99, 0x2A, 0x1E, 0x1F, 0x89, 0x2A, 0x00, 0x81, 0x51, 0x99, 0x2A, 0x46, 0x1F, 0x89, 0x2A,
    0x00, 0x83, 0x41, 0x99, 0x23, 0x5F, 0x00, 0x2C, 0x28, 0x00, 0x24, 0x46, 0x1F, 0x89, 0x2C, 0x00,
    0x00, 0x24, 0x00, 0x00, 0x23, 0x00, 0x81, 0x51, 0x99, 0x2A, 0x1E, 0x1F, 0x89, 0x2A, 0x00, 0x81,
    0x51, 0x99, 0x2A, 0x46, 0x1F, 0x89, 0x2A, 0x00, 0x83, 0x41, 0x99, 0x28, 0x3C, 0x00, 0x2C, 0x28,
    0x00, 0x23, 0x5F, 0x00, 0x24, 0x46, 0x1F, 0x89, 0x2C, 0x00, 0x00, 0x23, 0x00, 0x00, 0x24, 0x00,
    0x00, 0x28, 0x00, 0x81, 0x51, 0x99, 0x24, 0x46, 0x00, 0x2A, 0x1E, 0x1F, 0x89, 0x2A, 0x00, 0x00,
    0x24, 0x00, 0x81, 0x51, 0x99, 0x2A, 0x46, 0x00, 0x24, 0x46, 0x1F, 0x89, 0x24, 0x00, 0x00, 0x2A,
    0x00, 0x81, 0x51, 0x99, 0x24, 0x46, 0x1F, 0x89, 0x24, 0x00, 0x81, 0x51, 0x99, 0x24, 0x46, 0x00,
    0x2C, 0x28, 0x00, 0x23, 0x5F, 0x1F, 0x89, 0x2C, 0x00, 0x00, 0x23, 0x00, 0x00, 0x24, 0x00, 0x81,
    0x51, 0x99, 0x2A, 0x1E, 0x1F, 0x89, 0x2A, 0x00, 0x81, 0x51, 0x99, 0x2A, 0x46, 0x1F, 0x89, 0x2A,
    0x00, 0x83, 0x41, 0x99, 0x23, 0x5F, 0x00, 0x24, 0x46, 0x00, 0x28, 0x3C, 0x00, 0x2C, 0x28, 0x1F,
    0x89, 0x24, 0x00, 0x00, 0x28, 0x00, 0x00, 0x2C, 0x00, 0x00, 0x23, 0x00, 0x81, 0x51, 0x99, 0x2A,
    0x1E, 0x1F, 0x89, 0x2A, 0x00, 0x81, 0x51, 0x99, 0x2A, 0x46, 0x1F, 0x89, 0x2A, 0x00, 0x83, 0x41,
    0x99, 0x23, 0x5F, 0x00, 0x39, 0x55, 0x00, 0x24, 0x46, 0x1F, 0x89, 0x39, 0x00, 0x00, 0x24, 0x00,
    0x00, 0x23, 0x00, 0x82, 0x21, 0x99, 0x23, 0x5F, 0x00, 0x39, 0x55, 0x00, 0x24, 0x46, 0x1F, 0x89,
    0x39, 0x00, 0x00, 0x24, 0x00, 0x00, 0x23, 0x00, 0x82, 0x21, 0x99, 0x39, 0x55, 0x00, 0x23, 0x5F,
    0x00, 0x24, 0x46, 0x1F, 0x89, 0x23, 0x00, 0x00, 0x24, 0x00, 0x00, 0x39, 0x00, 0x82, 0x21, 0x99,
    0x23, 0x5F, 0x00, 0x39, 0x55, 0x00, 0x24, 0x46, 0x1F, 0x89, 0x39, 0x00, 0x00, 0x24, 0x00, 0x00,
    0x23, 0x00, 0x82, 0x21, 0x99, 0x39, 0x55, 0x00, 0x23, 0x5F, 0x00, 0x24, 0x46, 0x1F, 0x89, 0x23,
    0x00, 0x00, 0x24, 0x00, 0x00, 0x39, 0x00, 0x82, 0x21, 0x99, 0x39, 0x55, 0x00, 0x23, 0x5F, 0x00,
    0x24, 0x46, 0x1F, 0x89, 0x23, 0x00, 0x00, 0x24, 0x00, 0x00, 0x39, 0x00, 0x82, 0x21, 0x99, 0x2C,
    0x28, 0x00, 0x24, 0x46, 0x00, 0x23, 0x5F, 0x00, 0x31, 0x5F, 0x1F, 0x89, 0x24, 0x00, 0x00, 0x23,
    0x00, 0x00, 0x31, 0x00, 0x00, 0x2C, 0x00, 0x81, 0x51, 0x99, 0x2A, 0x1E, 0x1F, 0x89, 0x2A, 0x00,
    0x81, 0x51, 0x99, 0x2A, 0x46, 0x1F, 0x89, 0x2A, 0x00, 0x83, 0x41, 0x99, 0x2C, 0x28, 0x00, 0x24,
    0x46, 0x00, 0x28, 0x3C, 0x00, 0x23, 0x5F, 0x1F, 0x89, 0x24, 0x00, 0x00, 0x28, 0x00, 0x00, 0x23,
    0x00, 0x00, 0x2C, 0x00, 0x81, 0x51, 0x99, 0x2A, 0x1E, 0x1F, 0x89, 0x2A, 0x00, 0x81, 0x51, 0x99,
    0x2A, 0x46, 0x1F, 0x89, 0x2A, 0x00, 0x83, 0x41, 0x99, 0x23, 0x5F, 0x00, 0x2C, 0x28, 0x00, 0x24,
    0x46, 0x1F, 0x89, 0x2C, 0x00, 0x00, 0x24, 0x00, 0x00, 0x23, 0x00, 0x81, 0x51, 0x99, 0x2A, 0x1E,
    0x1F, 0x89, 0x2A, 0x00, 0x81, 0x51, 0x99, 0x2A, 0x46, 0x1F, 0x89, 0x2A, 0x00, 0x83, 0x41, 0x99,
    0x24, 0x46, 0x00, 0x28, 0x3C, 0x00, 0x2C, 0x28, 0x00, 0x23, 0x5F, 0x1F, 0x89, 0x28, 0x00, 0x00,
    0x2C, 0x00, 0x00, 0x23, 0x00, 0x00, 0x24, 0x00, 0x81, 0x51, 0x99, 0x24, 0x46, 0x00, 0x2A, 0x1E,
    0x1F, 0x89, 0x2A, 0x00, 0x00, 0x24, 0x00, 0x81, 0x51, 0x99, 0x24, 0x46, 0x00, 0x2A, 0x46, 0x1F,
    0x89, 0x2A, 0x00, 0x00, 0x24, 0x00, 0x81, 0x51, 0x99, 0x24, 0x46, 0x1F, 0x89, 0x24, 0x00, 0x81,
    0x51, 0x99, 0x23, 0x5F, 0x00, 0x24, 0x46, 0x00, 0x2C, 0x28, 0x1F, 0x89, 0x24, 0x00, 0x00, 0x2C,
    0x00, 0x00, 0x23, 0x00, 0x81, 0x51, 0x99, 0x2A, 0x1E, 0x1F, 0x89, 0x2A, 0x00, 0x81, 0x51, 0x99,
    0x2A, 0x46, 0x1F, 0x89, 0x2A, 0x00, 0x83, 0x41, 0x99, 0x2C, 0x28, 0x00, 0x24, 0x46, 0x00, 0x28,
    0x3C, 0x00, 0x23, 0x5F, 0x1F, 0x89, 0x24, 0x00, 0x00, 0x28, 0x00, 0x00, 0x23, 0x00, 0x00, 0x2C,
    0x00, 0x81, 0x51, 0x99, 0x2A, 0x1E, 0x1F, 0x89, 0x2A, 0x00, 0x81, 0x51, 0x99, 0x2A, 0x46, 0x1F,
    0x89, 0x2A, 0x00, 0x83, 0x41, 0x99, 0x23, 0x5F, 0x00, 0x2C, 0x28, 0x00, 0x24, 0x46, 0x1F, 0x89,
    0x2C, 0x00, 0x00, 0x24, 0x00, 0x00, 0x23, 0x00, 0x81, 0x51, 0x99, 0x2A, 0x1E, 0x1F, 0x89, 0x2A,
    0x00, 0x81, 0x51, 0x99, 0x2A, 0x46, 0x1F, 0x89, 0x2A, 0x00, 0x83, 0x41, 0x99, 0x2C, 0x28, 0x00,
    0x24, 0x46, 0x00, 0x28, 0x3C, 0x00, 0x23, 0x5F, 0x1F, 0x89, 0x24, 0x00, 0x00, 0x28, 0x00, 0x00,
    0x23, 0x00, 0x00, 0x2C, 0x00, 0x81, 0x51, 0x99, 0x2A, 0x1E, 0x1F, 0x89, 0x2A, 0x00, 0x81, 0x51,
    0x99, 0x2A, 0x46, 0x00, 0x23, 0x5F, 0x00, 0x24, 0x46, 0x1F, 0x89, 0x23, 0x00, 0x00, 0x24, 0x00,
    0x00, 0x2A, 0x00, 0x83, 0x41, 0x99, 0x23, 0x5F, 0x00, 0x2C, 0x28, 0x00, 0x24, 0x46, 0x1F, 0x89,
    0x2C, 0x00, 0x00, 0x24, 0x00, 0x00, 0x23, 0x00, 0x81, 0x51, 0x99, 0x2A, 0x1E, 0x1F, 0x89, 0x2A,
    0x00, 0x81, 0x51, 0x99, 0x2A, 0x46, 0x1F, 0x89, 0x2A, 0x00, 0x83, 0x41, 0x99, 0x2C, 0x28, 0x00,
    0x24, 0x46, 0x00, 0x28, 0x3C, 0x00, 0x23, 0x5F, 0x1F, 0x89, 0x24, 0x00, 0x00, 0x28, 0x00, 0x00,
    0x23, 0x00, 0x00, 0x2C, 0x00, 0x81, 0x51, 0x99, 0x2A, 0x1E, 0x1F, 0x89, 0x2A, 0x00, 0x81, 0x51,
    0x99, 0x2A, 0x46, 0x1F, 0x89, 0x2A, 0x00, 0x83, 0x41, 0x99, 0x23, 0x5F, 0x00, 0x2C, 0x28, 0x00,
    0x24, 0x46, 0x1F, 0x89, 0x2C, 0x00, 0x00, 0x24, 0x00, 0x00, 0x23, 0x00, 0x81, 0x51, 0x99, 0x2A,
    0x1E, 0x1F, 0x89, 0x2A, 0x00, 0x81, 0x51, 0x99, 0x2A, 0x46, 0x1F, 0x89, 0x2A, 0x00, 0x83, 0x41,
    0x99, 0x24, 0x46, 0x00, 0x28, 0x3C, 0x00, 0x2C, 0x28, 0x00, 0x23, 0x5F, 0x1F, 0x89, 0x28, 0x00,
    0x00, 0x2C, 0x00, 0x00, 0x23, 0x00, 0x00, 0x24, 0x00, 0x81, 0x51, 0x99, 0x24, 0x46, 0x00, 0x2A,
    0x1E, 0x1F, 0x89, 0x2A, 0x00, 0x00, 0x24, 0x00, 0x81, 0x51, 0x99, 0x24, 0x46, 0x00, 0x2A, 0x46,
    0x1F, 0x89, 0x2A, 0x00, 0x00, 0x24, 0x00, 0x81, 0x51, 0x99, 0x24, 0x46, 0x1F, 0x89, 0x24, 0x00,
    0x81, 0x51, 0x99, 0x23, 0x5F, 0x00, 0x24, 0x46, 0x00, 0x2C, 0x28, 0x1F, 0x89, 0x24, 0x00, 0x00,
    0x2C, 0x00, 0x00, 0x23, 0x00, 0x81, 0x51, 0x99, 0x2A, 0x1E, 0x1F, 0x89, 0x2A, 0x00, 0x81, 0x51,
    0x99, 0x2A, 0x46, 0x1F, 0x89, 0x2A, 0x00, 0x83, 0x41, 0x99, 0x2C, 0x28, 0x00, 0x24, 0x46, 0x00,
    0x28, 0x3C, 0x00, 0x23, 0x5F, 0x1F, 0x89, 0x24, 0x00, 0x00, 0x28, 0x00, 0x00, 0x23, 0x00, 0x00,
    0x2C, 0x00, 0x81, 0x51, 0x99, 0x2A, 0x1E, 0x1F, 0x89, 0x2A, 0x00, 0x81, 0x51, 0x99, 0x2A, 0x46,
    0x1F, 0x89, 0x2A, 0x00, 0x83, 0x41, 0x99, 0x23, 0x5F, 0x00, 0x2C, 0x28, 0x00, 0x24, 0x46, 0x1F,
    0x89, 0x2C, 0x00, 0x00, 0x24, 0x00, 0x00, 0x23, 0x00, 0x81, 0x51, 0x99, 0x2A, 0x1E, 0x1F, 0x89,
    0x2A, 0x00, 0x81, 0x51, 0x99, 0x2A, 0x46, 0x1F, 0x89, 0x2A, 0x00, 0x83, 0x41, 0x99, 0x2C, 0x28,
    0x00, 0x24, 0x46, 0x00, 0x28, 0x3C, 0x00, 0x23, 0x5F, 0x1F, 0x89, 0x24, 0x00, 0x00, 0x28, 0x00,
    0x00, 0x23, 0x00, 0x00, 0x2C, 0x00, 0x81, 0x51, 0x99, 0x2A, 0x1E, 0x1F, 0x89, 0x2A, 0x00, 0x81,
    0x51, 0x99, 0x2A, 0x46, 0x00, 0x23, 0x5F, 0x00, 0x24, 0x46, 0x1F, 0x89, 0x23, 0x00, 0x00, 0x24,
    0x00, 0x00, 0x2A, 0x00, 0x83, 0x41, 0x99, 0x2C, 0x28, 0x00, 0x23, 0x5F, 0x00, 0x24, 0x46, 0x1F,
    0x89, 0x23, 0x00, 0x00, 0x24, 0x00, 0x00, 0x2C, 0x00, 0x81, 0x51, 0x99, 0x2A, 0x1E, 0x1F, 0x89,
    0x2A, 0x00, 0x81, 0x51, 0x99, 0x2A, 0x46, 0x1F, 0x89, 0x2A, 0x00, 0x83, 0x41, 0x99, 0x23, 0x5F,
    0x00, 0x24, 0x46, 0x00, 0x28, 0x3C, 0x00, 0x2C, 0x28, 0x1F, 0x89, 0x24, 0x00, 0x00, 0x28, 0x00,
    0x00, 0x2C, 0x00, 0x00, 0x23, 0x00, 0x81, 0x51, 0x99, 0x2A, 0x1E, 0x1F, 0x89, 0x2A, 0x00, 0x81,
    0x51, 0x99, 0x2A, 0x46, 0x1F, 0x89, 0x2A, 0x00, 0x83, 0x41, 0x99, 0x2C, 0x28, 0x00, 0x23, 0x5F,
    0x00, 0x24, 0x46, 0x1F, 0x89, 0x23, 0x00, 0x00, 0x24, 0x00, 0x00, 0x2C, 0x00, 0x81, 0x51, 0x99,
    0x2A, 0x1E, 0x1F, 0x89, 0x2A, 0x00, 0x81, 0x51, 0x99, 0x2A, 0x46, 0x1F, 0x89, 0x2A, 0x00, 0x83,
    0x41, 0x99, 0x23, 0x5F, 0x00, 0x24, 0x46, 0x00, 0x2C, 0x28, 0x00, 0x28, 0x3C, 0x1F, 0x89, 0x24,
    0x00, 0x00, 0x2C, 0x00, 0x00, 0x28, 0x00, 0x00, 0x23, 0x00, 0x81, 0x51, 0x99, 0x24, 0x46, 0x00,
    0x2A, 0x1E, 0x1F, 0x89, 0x2A, 0x00, 0x00, 0x24, 0x00, 0x81, 0x51, 0x99, 0x2A, 0x46, 0x00, 0x24,
    0x46, 0x1F, 0x89, 0x24, 0x00, 0x00, 0x2A, 0x00, 0x81, 0x51, 0x99, 0x24, 0x46, 0x1F, 0x89, 0x24,
    0x00, 0x81, 0x51, 0x99, 0x2C, 0x28, 0x00, 0x23, 0x5F, 0x00, 0x24, 0x46, 0x1F, 0x89, 0x23, 0x00,
    0x00, 0x24, 0x00, 0x00, 0x2C, 0x00, 0x81, 0x51, 0x99, 0x2A, 0x1E, 0x1F, 0x89, 0x2A, 0x00, 0x81,
    0x51, 0x99, 0x2A, 0x46, 0x1F, 0x89, 0x2A, 0x00, 0x83, 0x41, 0x99, 0x23, 0x5F, 0x00, 0x24, 0x46,
    0x00, 0x28, 0x3C, 0x00, 0x2C, 0x28, 0x1F, 0x89, 0x24, 0x00, 0x00, 0x28, 0x00, 0x00, 0x2C, 0x00,
    0x00, 0x23, 0x00, 0x81, 0x51, 0x99, 0x2A, 0x1E, 0x1F, 0x89, 0x2A, 0x00, 0x81, 0x51, 0x99, 0x2A,
    0x46, 0x1F, 0x89, 0x2A, 0x00, 0x83, 0x41, 0x99, 0x2C, 0x28, 0x00, 0x23, 0x5F, 0x00, 0x24, 0x46,
    0x1F, 0x89, 0x23, 0x00, 0x00, 0x24, 0x00, 0x00, 0x2C, 0x00, 0x81, 0x51, 0x99, 0x2A, 0x1E, 0x1F,
    0x89, 0x2A, 0x00, 0x81, 0x51, 0x99, 0x2A, 0x46, 0x1F, 0x89, 0x2A, 0x00, 0x83, 0x41, 0x99, 0x23,
    0x5F, 0x00, 0x24, 0x46, 0x00, 0x28, 0x3C, 0x00, 0x2C, 0x28, 0x1F, 0x89, 0x24, 0x00, 0x00, 0x28,
    0x00, 0x00, 0x2C, 0x00, 0x00, 0x23, 0x00, 0x81, 0x51, 0x99, 0x2A, 0x1E, 0x1F, 0x89, 0x2A, 0x00,
    0x81, 0x51, 0x99, 0x23, 0x5F, 0x00, 0x2A, 0x46, 0x00, 0x24, 0x46, 0x1F, 0x89, 0x2A, 0x00, 0x00,
    0x24, 0x00, 0x00, 0x23, 0x00, 0x83, 0x41, 0x99, 0x2C, 0x28, 0x00, 0x23, 0x5F, 0x00, 0x24, 0x46,
    0x1F, 0x89, 0x23, 0x00, 0x00, 0x24, 0x00, 0x00, 0x2C, 0x00, 0x81, 0x51, 0x99, 0x2A, 0x1E, 0x1F,
    0x89, 0x2A, 0x00, 0x81, 0x51, 0x99, 0x2A, 0x46, 0x1F, 0x89, 0x2A, 0x00, 0x83, 0x41, 0x99, 0x23,
    0x5F, 0x00, 0x24, 0x46, 0x00, 0x28, 0x3C, 0x00, 0x2C, 0x28, 0x1F, 0x89, 0x24, 0x00, 0x00, 0x28,
    0x00, 0x00, 0x2C, 0x00, 0x00, 0x23, 0x00, 0x81, 0x51, 0x99, 0x2A, 0x1E, 0x1F, 0x89, 0x2A, 0x00,
    0x81, 0x51, 0x99, 0x2A, 0x46, 0x1F, 0x89, 0x2A, 0x00, 0x83, 0x41, 0x99, 0x2C, 0x28, 0x00, 0x23,
    0x5F, 0x00, 0x24, 0x46, 0x1F, 0x89, 0x23, 0x00, 0x00, 0x24, 0x00, 0x00, 0x2C, 0x00, 0x81, 0x51,
    0x99, 0x2A, 0x1E, 0x1F, 0x89, 0x2A, 0x00, 0x81, 0x51, 0x99, 0x2A, 0x46, 0x1F, 0x89, 0x2A, 0x00,
    0x83, 0x41, 0x99, 0x23, 0x5F, 0x00, 0x24, 0x46, 0x00, 0x2C, 0x28, 0x00, 0x28, 0x3C, 0x1F, 0x89,
    0x24, 0x00, 0x00, 0x2C, 0x00, 0x00, 0x28, 0x00, 0x00, 0x23, 0x00, 0x81, 0x51, 0x99, 0x24, 0x46,
    0x00, 0x2A, 0x1E, 0x1F, 0x89, 0x2A, 0x00, 0x00, 0x24, 0x00, 0x81, 0x51, 0x99, 0x2A, 0x46, 0x00,
    0x24, 0x46, 0x1F, 0x89, 0x24, 0x00, 0x00, 0x2A, 0x00, 0x81, 0x51, 0x99, 0x24, 0x46, 0x1F, 0x89,
    0x24, 0x00, 0x81, 0x51, 0x99, 0x31, 0x5F, 0x00, 0x23, 0x5F, 0x00, 0x24, 0x46, 0x1F, 0x89, 0x23,
    0x00, 0x00, 0x24, 0x00, 0x00, 0x31, 0x00, 0x87, 0x21, 0x99, 0x23, 0x5F, 0x00, 0x24, 0x46, 0x00,
    0x31, 0x5F, 0x1F, 0x89, 0x24, 0x00, 0x00, 0x31, 0x00, 0x00, 0x23, 0x00, 0x87, 0x21, 0x99, 0x24,
    0x46, 0x00, 0x31, 0x5F, 0x00, 0x23, 0x5F, 0x1F, 0x89, 0x31, 0x00, 0x00, 0x23, 0x00, 0x00, 0x24,
    0x00, 0x87, 0x21, 0x99, 0x31, 0x5F, 0x00, 0x24, 0x46, 0x00, 0x23, 0x5F, 0x1F, 0x89, 0x24, 0x00,
    0x00, 0x23, 0x00, 0x00, 0x31, 0x00, 0x87, 0x21, 0x99, 0x31, 0x5F, 0x00, 0x2C, 0x28, 0x00, 0x24,
    0x46, 0x00, 0x23, 0x5F, 0x1F, 0x89, 0x2C, 0x00, 0x00, 0x24, 0x00, 0x00, 0x23, 0x00, 0x00, 0x31,
    0x00, 0x81, 0x51, 0x99, 0x2A, 0x1E, 0x1F, 0x89, 0x2A, 0x00, 0x81, 0x51, 0x99, 0x2A, 0x46, 0x1F,
    0x89, 0x2A, 0x00, 0x83, 0x41, 0x99, 0x23, 0x5F, 0x00, 0x24, 0x46, 0x00, 0x28, 0x3C, 0x00, 0x2C,
    0x28, 0x1F, 0x89, 0x24, 0x00, 0x00, 0x28, 0x00, 0x00, 0x2C, 0x00, 0x00, 0x23, 0x00, 0x81, 0x51,
    0x99, 0x2A, 0x1E, 0x1F, 0x89, 0x2A, 0x00, 0x81, 0x51, 0x99, 0x2A, 0x46, 0x1F, 0x89, 0x2A, 0x00,
    0x83, 0x41, 0x99, 0x23, 0x5F, 0x00, 0x24, 0x46, 0x00, 0x2C, 0x28, 0x1F, 0x89, 0x24, 0x00, 0x00,
    0x2C, 0x00, 0x00, 0x23, 0x00, 0x81, 0x51, 0x99, 0x2A, 0x1E, 0x1F, 0x89, 0x2A, 0x00, 0x81, 0x51,
    0x99, 0x2A, 0x46, 0x1F, 0x89, 0x2A, 0x00, 0x83, 0x41, 0x99, 0x28, 0x3C, 0x00, 0x23, 0x5F, 0x00,
    0x24, 0x46, 0x00, 0x2C, 0x28, 0x1F, 0x89, 0x23, 0x00, 0x00, 0x24, 0x00, 0x00, 0x2C, 0x00, 0x00,
    0x28, 0x00, 0x81, 0x51, 0x99, 0x24, 0x46, 0x00, 0x2A, 0x1E, 0x1F, 0x89, 0x2A, 0x00, 0x00, 0x24,
    0x00, 0x81, 0x51, 0x99, 0x24, 0x46, 0x00, 0x2A, 0x46, 0x1F, 0x89, 0x2A, 0x00, 0x00, 0x24, 0x00,
    0x81, 0x51, 0x99, 0x24, 0x46, 0x1F, 0x89, 0x24, 0x00, 0x81, 0x51, 0x99, 0x24, 0x46, 0x00, 0x2C,
    0x28, 0x00, 0x23, 0x5F, 0x1F, 0x89, 0x2C, 0x00, 0x00, 0x23, 0x00, 0x00, 0x24, 0x00, 0x81, 0x51,
    0x99, 0x2A, 0x1E, 0x1F, 0x89, 0x2A, 0x00, 0x81, 0x51, 0x99, 0x2A, 0x46, 0x1F, 0x89, 0x2A, 0x00,
    0x83, 0x41, 0x99, 0x23, 0x5F, 0x00, 0x24, 0x46, 0x00, 0x28, 0x3C, 0x00, 0x2C, 0x28, 0x1F, 0x89,
    0x24, 0x00, 0x00, 0x28, 0x00, 0x00, 0x2C, 0x00, 0x00, 0x23, 0x00, 0x81, 0x51, 0x99, 0x2A, 0x1E,
    0x1F, 0x89, 0x2A, 0x00, 0x81, 0x51, 0x99, 0x2A, 0x46, 0x1F, 0x89, 0x2A, 0x00, 0x83, 0x41, 0x99,
    0x23, 0x5F, 0x00, 0x24, 0x46, 0x00, 0x2C, 0x28, 0x1F, 0x89, 0x24, 0x00, 0x00, 0x2C, 0x00, 0x00,
    0x23, 0x00, 0x81, 0x51, 0x99, 0x2A, 0x1E, 0x1F, 0x89, 0x2A, 0x00, 0x81, 0x51, 0x99, 0x2A, 0x46,
    0x1F, 0x89, 0x2A, 0x00, 0x83, 0x41, 0x99, 0x23, 0x5F, 0x00, 0x24, 0x46, 0x00, 0x28, 0x3C, 0x00,
    0x2C, 0x28, 0x1F, 0x89, 0x24, 0x00, 0x00, 0x28, 0x00, 0x00, 0x2C, 0x00, 0x00, 0x23, 0x00, 0x81,
    0x51, 0x99, 0x2A, 0x1E, 0x1F, 0x89, 0x2A, 0x00, 0x81, 0x51, 0x99, 0x23, 0x5F, 0x00, 0x24, 0x46,
    0x00, 0x2A, 0x46, 0x1F, 0x89, 0x24, 0x00, 0x00, 0x2A, 0x00, 0x00, 0x23, 0x00, 0x83, 0x41, 0x99,
    0x23, 0x5F, 0x00, 0x24, 0x46, 0x00, 0x2C, 0x28, 0x1F, 0x89, 0x24, 0x00, 0x00, 0x2C, 0x00, 0x00,
    0x23, 0x00, 0x81, 0x51, 0x99, 0x2A, 0x1E, 0x1F, 0x89, 0x2A, 0x00, 0x81, 0x51, 0x99, 0x2A, 0x46,
    0x1F, 0x89, 0x2A, 0x00, 0x83, 0x41, 0x99, 0x23, 0x5F, 0x00, 0x24, 0x46, 0x00, 0x28, 0x3C, 0x00,
    0x2C, 0x28, 0x1F, 0x89, 0x24, 0x00, 0x00, 0x28, 0x00, 0x00, 0x2C, 0x00, 0x00, 0x23, 0x00, 0x81,
    0x51, 0x99, 0x2A, 0x1E, 0x1F, 0x89, 0x2A, 0x00, 0x81, 0x51, 0x99, 0x2A, 0x46, 0x1F, 0x89, 0x2A,
    0x00, 0x83, 0x41, 0x99, 0x23, 0x5F, 0x00, 0x24, 0x46, 0x00, 0x2C, 0x28, 0x1F, 0x89, 0x24, 0x00,
    0x00, 0x2C, 0x00, 0x00, 0x23, 0x00, 0x81, 0x51, 0x99, 0x2A, 0x1E, 0x1F, 0x89, 0x2A, 0x00, 0x81,
    0x51, 0x99, 0x2A, 0x46, 0x1F, 0x89, 0x2A, 0x00, 0x83, 0x41, 0x99, 0x28, 0x3C, 0x00, 0x23, 0x5F,
    0x00, 0x24, 0x46, 0x00, 0x2C, 0x28, 0x1F, 0x89, 0x23, 0x00, 0x00, 0x24, 0x00, 0x00, 0x2C, 0x00,
    0x00, 0x28, 0x00, 0x81, 0x51, 0x99, 0x24, 0x46, 0x00, 0x2A, 0x1E, 0x1F, 0x89, 0x2A, 0x00, 0x00,
    0x24, 0x00, 0x81, 0x51, 0x99, 0x24, 0x46, 0x00, 0x2A, 0x46, 0x1F, 0x89, 0x2A, 0x00, 0x00, 0x24,
    0x00, 0x81, 0x51, 0x99, 0x24, 0x46, 0x1F, 0x89, 0x24, 0x00, 0x81, 0x51, 0x99, 0x24, 0x46, 0x00,
    0x2C, 0x28, 0x00, 0x23, 0x5F, 0x1F, 0x89, 0x2C, 0x00, 0x00, 0x23, 0x00, 0x00, 0x24, 0x00, 0x81,
    0x51, 0x99, 0x2A, 0x1E, 0x1F, 0x89, 0x2A, 0x00, 0x81, 0x51, 0x99, 0x2A, 0x46, 0x1F, 0x89, 0x2A,
    0x00, 0x83, 0x41, 0x99, 0x23, 0x5F, 0x00, 0x24, 0x46, 0x00, 0x28, 0x3C, 0x00, 0x2C, 0x28, 0x1F,
    0x89, 0x24, 0x00, 0x00, 0x28, 0x00, 0x00, 0x2C, 0x00, 0x00, 0x23, 0x00, 0x81, 0x51, 0x99, 0x2A,
    0x1E, 0x1F, 0x89, 0x2A, 0x00, 0x81, 0x51, 0x99, 0x2A, 0x46, 0x1F, 0x89, 0x2A, 0x00, 0x83, 0x41,
    0x99, 0x23, 0x5F, 0x00, 0x24, 0x46, 0x00, 0x2C, 0x28, 0x1F, 0x89, 0x24, 0x00, 0x00, 0x2C, 0x00,
    0x00, 0x23, 0x00, 0x81, 0x51, 0x99, 0x2A, 0x1E, 0x1F, 0x89, 0x2A, 0x00, 0x81, 0x51, 0x99, 0x2A,
    0x46, 0x1F, 0x89, 0x2A, 0x00, 0x83, 0x41, 0x99, 0x23, 0x5F, 0x00, 0x24, 0x46, 0x00, 0x28, 0x3C,
    0x00, 0x2C, 0x28, 0x1F, 0x89, 0x24, 0x00, 0x00, 0x28, 0x00, 0x00, 0x2C, 0x00, 0x00, 0x23, 0x00,
    0x81, 0x51, 0x99, 0x2A, 0x1E, 0x1F, 0x89, 0x2A, 0x00, 0x81, 0x51, 0x99, 0x23, 0x5F, 0x00, 0x24,
    0x46, 0x00, 0x2A, 0x46, 0x1F, 0x89, 0x24, 0x00, 0x00, 0x2A, 0x00, 0x00, 0x23, 0x00, 0x83, 0x41,
    0x99, 0x2C, 0x28, 0x00, 0x24, 0x46, 0x00, 0x39, 0x50, 0x00, 0x23, 0x5F, 0x1F, 0x89, 0x24, 0x00,
    0x00, 0x39, 0x00, 0x00, 0x23, 0x00, 0x00, 0x2C, 0x00, 0x81, 0x51, 0x99, 0x2A, 0x1E, 0x1F, 0x89,
    0x2A, 0x00, 0x81, 0x51, 0x99, 0x2A, 0x46, 0x1F, 0x89, 0x2A, 0x00, 0x83, 0x41, 0x99, 0x2C, 0x28,
    0x00, 0x24, 0x46, 0x00, 0x23, 0x5F, 0x00, 0x28, 0x3C, 0x1F, 0x89, 0x24, 0x00, 0x00, 0x23, 0x00,
    0x00, 0x28, 0x00, 0x00, 0x2C, 0x00, 0x81, 0x51, 0x99, 0x2A, 0x1E, 0x1F, 0x89, 0x2A, 0x00, 0x81,
    0x51, 0x99, 0x2A, 0x46, 0x1F, 0x89, 0x2A, 0x00, 0x83, 0x41, 0x99, 0x2C, 0x28, 0x00, 0x24, 0x46,
    0x00, 0x23, 0x5F, 0x1F, 0x89, 0x24, 0x00, 0x00, 0x23, 0x00, 0x00, 0x2C, 0x00, 0x81, 0x51, 0x99,
    0x2A, 0x1E, 0x1F, 0x89, 0x2A, 0x00, 0x81, 0x51, 0x99, 0x2A, 0x46, 0x1F, 0x89, 0x2A, 0x00, 0x83,
    0x41, 0x99, 0x2C, 0x28, 0x00, 0x28, 0x3C, 0x00, 0x23, 0x5F, 0x00, 0x24, 0x46, 0x1F, 0x89, 0x28,
    0x00, 0x00, 0x23, 0x00, 0x00, 0x24, 0x00, 0x00, 0x2C, 0x00, 0x81, 0x51, 0x99, 0x24, 0x46, 0x00,
    0x2A, 0x1E, 0x1F, 0x89, 0x2A, 0x00, 0x00, 0x24, 0x00, 0x81, 0x51, 0x99, 0x2A, 0x46, 0x00, 0x24,
    0x46, 0x1F, 0x89, 0x24, 0x00, 0x00, 0x2A, 0x00, 0x81, 0x51, 0x99, 0x24, 0x46, 0x1F, 0x89, 0x24,
    0x00, 0x81, 0x51, 0x99, 0x23, 0x5F, 0x00, 0x24, 0x46, 0x00, 0x2C, 0x28, 0x1F, 0x89, 0x24, 0x00,
    0x00, 0x2C, 0x00, 0x00, 0x23, 0x00, 0x81, 0x51, 0x99, 0x2A, 0x1E, 0x1F, 0x89, 0x2A, 0x00, 0x81,
    0x51, 0x99, 0x2A, 0x46, 0x1F, 0x89, 0x2A, 0x00, 0x83, 0x41, 0x99, 0x2C, 0x28, 0x00, 0x24, 0x46,
    0x00, 0x23, 0x5F, 0x00, 0x28, 0x3C, 0x1F, 0x89, 0x24, 0x00, 0x00, 0x23, 0x00, 0x00, 0x28, 0x00,
    0x00, 0x2C, 0x00, 0x81, 0x51, 0x99, 0x2A, 0x1E, 0x1F, 0x89, 0x2A, 0x00, 0x81, 0x51, 0x99, 0x2A,
    0x46, 0x1F, 0x89, 0x2A, 0x00, 0x83, 0x41, 0x99, 0x2C, 0x28, 0x00, 0x24, 0x46, 0x00, 0x23, 0x5F,
    0x1F, 0x89, 0x24, 0x00, 0x00, 0x23, 0x00, 0x00, 0x2C, 0x00, 0x81, 0x51, 0x99, 0x2A, 0x1E, 0x1F,
    0x89, 0x2A, 0x00, 0x81, 0x51, 0x99, 0x2A, 0x46, 0x1F, 0x89, 0x2A, 0x00, 0x83, 0x41, 0x99, 0x2C,
    0x28, 0x00, 0x24, 0x46, 0x00, 0x23, 0x5F, 0x00, 0x28, 0x3C, 0x1F, 0x89, 0x24, 0x00, 0x00, 0x23,
    0x00, 0x00, 0x28, 0x00, 0x00, 0x2C, 0x00, 0x81, 0x51, 0x99, 0x2A, 0x1E, 0x1F, 0x89, 0x2A, 0x00,
    0x81, 0x51, 0x99, 0x2A, 0x46, 0x00, 0x24, 0x46, 0x00, 0x23, 0x5F, 0x1F, 0x89, 0x24, 0x00, 0x00,
    0x23, 0x00, 0x00, 0x2A, 0x00, 0x83, 0x41, 0x99, 0x2C, 0x28, 0x00, 0x24, 0x46, 0x00, 0x23, 0x5F,
    0x1F, 0x89, 0x24, 0x00, 0x00, 0x23, 0x00, 0x00, 0x2C, 0x00, 0x81, 0x51, 0x99, 0x2A, 0x1E, 0x1F,
    0x89, 0x2A, 0x00, 0x81, 0x51, 0x99, 0x2A, 0x46, 0x1F, 0x89, 0x2A, 0x00, 0x83, 0x41, 0x99, 0x2C,
    0x28, 0x00, 0x24, 0x46, 0x00, 0x23, 0x5F, 0x00, 0x28, 0x3C, 0x1F, 0x89, 0x24, 0x00, 0x00, 0x23,
    0x00, 0x00, 0x28, 0x00, 0x00, 0x2C, 0x00, 0x81, 0x51, 0x99, 0x2A, 0x1E, 0x1F, 0x89, 0x2A, 0x00,
    0x81, 0x51, 0x99, 0x2A, 0x46, 0x1F, 0x89, 0x2A, 0x00, 0x83, 0x41, 0x99, 0x2C, 0x28, 0x00, 0x24,
    0x46, 0x00, 0x23, 0x5F, 0x1F, 0x89, 0x24, 0x00, 0x00, 0x23, 0x00, 0x00, 0x2C, 0x00, 0x81, 0x51,
    0x99, 0x2A, 0x1E, 0x1F, 0x89, 0x2A, 0x00, 0x81, 0x51, 0x99, 0x2A, 0x46, 0x1F, 0x89, 0x2A, 0x00,
    0x83, 0x41, 0x99, 0x2C, 0x28, 0x00, 0x28, 0x3C, 0x00, 0x23, 0x5F, 0x00, 0x24, 0x46, 0x1F, 0x89,
    0x28, 0x00, 0x00, 0x23, 0x00, 0x00, 0x24, 0x00, 0x00, 0x2C, 0x00, 0x81, 0x51, 0x99, 0x24, 0x46,
    0x00, 0x2A, 0x1E, 0x1F, 0x89, 0x2A, 0x00, 0x00, 0x24, 0x00, 0x81, 0x51, 0x99, 0x2A, 0x46, 0x00,
    0x24, 0x46, 0x1F, 0x89, 0x24, 0x00, 0x00, 0x2A, 0x00, 0x81, 0x51, 0x99, 0x24, 0x46, 0x1F, 0x89,
    0x24, 0x00, 0x81, 0x51, 0x99, 0x23, 0x5F, 0x00, 0x24, 0x46, 0x00, 0x2C, 0x28, 0x1F, 0x89, 0x24,
    0x00, 0x00, 0x2C, 0x00, 0x00, 0x23, 0x00, 0x81, 0x51, 0x99, 0x2A, 0x1E, 0x1F, 0x89, 0x2A, 0x00,
    0x81, 0x51, 0x99, 0x2A, 0x46, 0x1F, 0x89, 0x2A, 0x00, 0x83, 0x41, 0x99, 0x2C, 0x28, 0x00, 0x24,
    0x46, 0x00, 0x23, 0x5F, 0x00, 0x28, 0x3C, 0x1F, 0x89, 0x24, 0x00, 0x00, 0x23, 0x00, 0x00, 0x28,
    0x00, 0x00, 0x2C, 0x00, 0x81, 0x51, 0x99, 0x2A, 0x1E, 0x1F, 0x89, 0x2A, 0x00, 0x81, 0x51, 0x99,
    0x2A, 0x46, 0x1F, 0x89, 0x2A, 0x00, 0x83, 0x41, 0x99, 0x23, 0x5F, 0x00, 0x2C, 0x28, 0x00, 0x24,
    0x46, 0x1F, 0x89, 0x2C, 0x00, 0x00, 0x24, 0x00, 0x00, 0x23, 0x00, 0x82, 0x21, 0x99, 0x24, 0x46,
    0x00, 0x23, 0x5F, 0x1F, 0x89, 0x23, 0x00, 0x00, 0x24, 0x00, 0x82, 0x21, 0x99, 0x23, 0x5F, 0x00,
    0x24, 0x46, 0x1F, 0x89, 0x24, 0x00, 0x00, 0x23, 0x00, 0x82, 0x21, 0x99, 0x23, 0x5F, 0x00, 0x2C,
    0x28, 0x00, 0x24, 0x46, 0x1F, 0x89, 0x2C, 0x00, 0x00, 0x24, 0x00, 0x00, 0x23, 0x00, 0x82, 0x21,
    0x99, 0x23, 0x5F, 0x00, 0x24, 0x46, 0x1F, 0x89, 0x24, 0x00, 0x00, 0x23, 0x00, 0x82, 0x21, 0x99,
    0x23, 0x5F, 0x00, 0x24, 0x46, 0x1F, 0x89, 0x24, 0x00, 0x00, 0x23, 0x00, 0x82, 0x21, 0x99, 0x2C,
    0x28, 0x00, 0x23, 0x5F, 0x00, 0x31, 0x50, 0x00, 0x24, 0x46, 0x1F, 0x89, 0x23, 0x00, 0x00, 0x31,
    0x00, 0x00, 0x24, 0x00, 0x00, 0x2C, 0x00, 0x81, 0x51, 0x99, 0x2A, 0x1E, 0x1F, 0x89, 0x2A, 0x00,
    0x81, 0x51, 0x99, 0x2A, 0x46, 0x1F, 0x89, 0x2A, 0x00, 0x83, 0x41, 0x99, 0x23, 0x5F, 0x00, 0x31,
    0x50, 0x00, 0x24, 0x46, 0x00, 0x28, 0x3C, 0x00, 0x2C, 0x28, 0x1F, 0x89, 0x31, 0x00, 0x00, 0x24,
    0x00, 0x00, 0x28, 0x00, 0x00, 0x2C, 0x00, 0x00, 0x23, 0x00, 0x81, 0x51, 0x99, 0x2A, 0x1E, 0x1F,
    0x89, 0x2A, 0x00, 0x81, 0x51, 0x99, 0x2A, 0x46, 0x1F, 0x89, 0x2A, 0x00, 0x83, 0x41, 0x99, 0x2C,
    0x28, 0x00, 0x23, 0x5F, 0x00, 0x31, 0x50, 0x00, 0x24, 0x46, 0x1F, 0x89, 0x23, 0x00, 0x00, 0x31,
    0x00, 0x00, 0x24, 0x00, 0x00, 0x2C, 0x00, 0x81, 0x51, 0x99, 0x2A, 0x1E, 0x1F, 0x89, 0x2A, 0x00,
    0x81, 0x51, 0x99, 0x2A, 0x46, 0x1F, 0x89, 0x2A, 0x00, 0x83, 0x41, 0x99, 0x23, 0x5F, 0x00, 0x24,
    0x46, 0x00, 0x28, 0x3C, 0x00, 0x2C, 0x28, 0x00, 0x31, 0x50, 0x1F, 0x89, 0x24, 0x00, 0x00, 0x28,
    0x00, 0x00, 0x2C, 0x00, 0x00, 0x31, 0x00, 0x00, 0x23, 0x00, 0x81, 0x51, 0x99, 0x24, 0x46, 0x00,
    0x2A, 0x1E, 0x1F, 0x89, 0x2A, 0x00, 0x00, 0x24, 0x00, 0x81, 0x51, 0x99, 0x24, 0x46, 0x00, 0x2A,
    0x46, 0x1F, 0x89, 0x2A, 0x00, 0x00, 0x24, 0x00, 0x81, 0x51, 0x99, 0x24, 0x46, 0x1F, 0x89, 0x24,
    0x00, 0x81, 0x51, 0x99, 0x24, 0x46, 0x00, 0x31, 0x50, 0x00, 0x2C, 0x28, 0x00, 0x23, 0x5F, 0x1F,
    0x89, 0x31, 0x00, 0x00, 0x2C, 0x00, 0x00, 0x23, 0x00, 0x00, 0x24, 0x00, 0x81, 0x51, 0x99, 0x2A,
    0x1E, 0x1F, 0x89, 0x2A, 0x00, 0x81, 0x51, 0x99, 0x2A, 0x46, 0x1F, 0x89, 0x2A, 0x00, 0x83, 0x41,
    0x99, 0x23, 0x5F, 0x00, 0x31, 0x50, 0x00, 0x24, 0x46, 0x00, 0x28, 0x3C, 0x00, 0x2C, 0x28, 0x1F,
    0x89, 0x31, 0x00, 0x00, 0x24, 0x00, 0x00, 0x28, 0x00, 0x00, 0x2C, 0x00, 0x00, 0x23, 0x00, 0x81,
    0x51, 0x99, 0x2A, 0x1E, 0x1F, 0x89, 0x2A, 0x00, 0x81, 0x51, 0x99, 0x2A, 0x46, 0x1F, 0x89, 0x2A,
    0x00, 0x83, 0x41, 0x99, 0x2C, 0x28, 0x00, 0x23, 0x5F, 0x00, 0x31, 0x50, 0x00, 0x24, 0x46, 0x1F,
    0x89, 0x23, 0x00, 0x00, 0x31, 0x00, 0x00, 0x24, 0x00, 0x00, 0x2C, 0x00, 0x81, 0x51, 0x99, 0x2A,
    0x1E, 0x1F, 0x89, 0x2A, 0x00, 0x81, 0x51, 0x99, 0x2A, 0x46, 0x1F, 0x89, 0x2A, 0x00, 0x83, 0x41,
    0x99, 0x23, 0x5F, 0x00, 0x31, 0x50, 0x00, 0x24, 0x46, 0x00, 0x28, 0x3C, 0x00, 0x2C, 0x28, 0x1F,
    0x89, 0x31, 0x00, 0x00, 0x24, 0x00, 0x00, 0x28, 0x00, 0x00, 0x2C, 0x00, 0x00, 0x23, 0x00, 0x81,
    0x51, 0x99, 0x2A, 0x1E, 0x1F, 0x89, 0x2A, 0x00, 0x81, 0x51, 0x99, 0x24, 0x46, 0x00, 0x2A, 0x46,
    0x00, 0x23, 0x5F, 0x1F, 0x89, 0x2A, 0x00, 0x00, 0x23, 0x00, 0x00, 0x24, 0x00, 0x83, 0x41, 0x99,
    0x2C, 0x28, 0x00, 0x23, 0x5F, 0x00, 0x31, 0x50, 0x00, 0x24, 0x46, 0x1F, 0x89, 0x23, 0x00, 0x00,
    0x31, 0x00, 0x00, 0x24, 0x00, 0x00, 0x2C, 0x00, 0x81, 0x51, 0x99, 0x2A, 0x1E, 0x1F, 0x89, 0x2A,
    0x00, 0x81, 0x51, 0x99, 0x2A, 0x46, 0x1F, 0x89, 0x2A, 0x00, 0x83, 0x41, 0x99, 0x23, 0x5F, 0x00,
    0x31, 0x50, 0x00, 0x24, 0x46, 0x00, 0x28, 0x3C, 0x00, 0x2C, 0x28, 0x1F, 0x89, 0x31, 0x00, 0x00,
    0x24, 0x00, 0x00, 0x28, 0x00, 0x00, 0x2C, 0x00, 0x00, 0x23, 0x00, 0x81, 0x51, 0x99, 0x2A, 0x1E,
    0x1F, 0x89, 0x2A, 0x00, 0x81, 0x51, 0x99, 0x2A, 0x46, 0x1F, 0x89, 0x2A, 0x00, 0x83, 0x41, 0x99,
    0x2C, 0x28, 0x00, 0x23, 0x5F, 0x00, 0x31, 0x50, 0x00, 0x24, 0x46, 0x1F, 0x89, 0x23, 0x00, 0x00,
    0x31, 0x00, 0x00, 0x24, 0x00, 0x00, 0x2C, 0x00, 0x81, 0x51, 0x99, 0x2A, 0x1E, 0x1F, 0x89, 0x2A,
    0x00, 0x81, 0x51, 0x99, 0x2A, 0x46, 0x1F, 0x89, 0x2A, 0x00, 0x83, 0x41, 0x99, 0x23, 0x5F, 0x00,
    0x24, 0x46, 0x00, 0x28, 0x3C, 0x00, 0x2C, 0x28, 0x00, 0x31, 0x50, 0x1F, 0x89, 0x24, 0x00, 0x00,
    0x28, 0x00, 0x00, 0x2C, 0x00, 0x00, 0x31, 0x00, 0x00, 0x23, 0x00, 0x81, 0x51, 0x99, 0x24, 0x46,
    0x00, 0x2A, 0x1E, 0x1F, 0x89, 0x2A, 0x00, 0x00, 0x24, 0x00, 0x81, 0x51, 0x99, 0x24, 0x46, 0x00,
    0x2A, 0x46, 0x1F, 0x89, 0x2A, 0x00, 0x00, 0x24, 0x00, 0x81, 0x51, 0x99, 0x24, 0x46, 0x1F, 0x89,
    0x24, 0x00, 0x81, 0x51, 0x99, 0x24, 0x46, 0x00, 0x31, 0x50, 0x00, 0x2C, 0x28, 0x00, 0x23, 0x5F,
    0x1F, 0x89, 0x31, 0x00, 0x00, 0x2C, 0x00, 0x00, 0x23, 0x00, 0x00, 0x24, 0x00, 0x81, 0x51, 0x99,
    0x2A, 0x1E, 0x1F, 0x89, 0x2A, 0x00, 0x81, 0x51, 0x99, 0x2A, 0x46, 0x1F, 0x89, 0x2A, 0x00, 0x83,
    0x41, 0x99, 0x23, 0x5F, 0x00, 0x31, 0x50, 0x00, 0x24, 0x46, 0x00, 0x28, 0x3C, 0x00, 0x2C, 0x28,
    0x1F, 0x89, 0x31, 0x00, 0x00, 0x24, 0x00, 0x00, 0x28, 0x00, 0x00, 0x2C, 0x00, 0x00, 0x23, 0x00,
    0x81, 0x51, 0x99, 0x2A, 0x1E, 0x1F, 0x89, 0x2A, 0x00, 0x81, 0x51, 0x99, 0x2A, 0x46, 0x1F, 0x89,
    0x2A, 0x00, 0x83, 0x41, 0x99, 0x2C, 0x28, 0x00, 0x23, 0x5F, 0x00, 0x31, 0x50, 0x00, 0x24, 0x46,
    0x1F, 0x89, 0x23, 0x00, 0x00, 0x31, 0x00, 0x00, 0x24, 0x00, 0x00, 0x2C, 0x00, 0x81, 0x51, 0x99,
    0x2A, 0x1E, 0x1F, 0x89, 0x2A, 0x00, 0x81, 0x51, 0x99, 0x2A, 0x46, 0x1F, 0x89, 0x2A, 0x00, 0x83,
    0x41, 0x99, 0x23, 0x5F, 0x00, 0x31, 0x50, 0x00, 0x24, 0x46, 0x00, 0x28, 0x3C, 0x00, 0x2C, 0x28,
    0x1F, 0x89, 0x31, 0x00, 0x00, 0x24, 0x00, 0x00, 0x28, 0x00, 0x00, 0x2C, 0x00, 0x00, 0x23, 0x00,
    0x81, 0x51, 0x99, 0x2A, 0x1E, 0x1F, 0x89, 0x2A, 0x00, 0x81, 0x51, 0x99, 0x24, 0x46, 0x00, 0x2A,
    0x46, 0x00, 0x23, 0x5F, 0x1F, 0x89, 0x2A, 0x00, 0x00, 0x23, 0x00, 0x00, 0x24, 0x00, 0x83, 0x41,
    0x99, 0x23, 0x5F, 0x00, 0x2C, 0x28, 0x00, 0x31, 0x50, 0x00, 0x24, 0x46, 0x1F, 0x89, 0x2C, 0x00,
    0x00, 0x31, 0x00, 0x00, 0x24, 0x00, 0x00, 0x23, 0x00, 0x81, 0x51, 0x99, 0x2A, 0x1E, 0x1F, 0x89,
    0x2A, 0x00, 0x81, 0x51, 0x99, 0x2A, 0x46, 0x1F, 0x89, 0x2A, 0x00, 0x83, 0x41, 0x99, 0x2C, 0x28,
    0x00, 0x31, 0x50, 0x00, 0x24, 0x46, 0x00, 0x23, 0x5F, 0x00, 0x28, 0x3C, 0x1F, 0x89, 0x31, 0x00,
    0x00, 0x24, 0x00, 0x00, 0x23, 0x00, 0x00, 0x28, 0x00, 0x00, 0x2C, 0x00, 0x81, 0x51, 0x99, 0x2A,
    0x1E, 0x1F, 0x89, 0x2A, 0x00, 0x81, 0x51, 0x99, 0x2A, 0x46, 0x1F, 0x89, 0x2A, 0x00, 0x83, 0x41,
    0x99, 0x23, 0x5F, 0x00, 0x2C, 0x28, 0x00, 0x31, 0x50, 0x00, 0x24, 0x46, 0x1F, 0x89, 0x2C, 0x00,
    0x00, 0x31, 0x00, 0x00, 0x24, 0x00, 0x00, 0x23, 0x00, 0x81, 0x51, 0x99, 0x2A, 0x1E, 0x1F, 0x89,
    0x2A, 0x00, 0x81, 0x51, 0x99, 0x2A, 0x46, 0x1F, 0x89, 0x2A, 0x00, 0x83, 0x41, 0x99, 0x28, 0x3C,
    0x00, 0x23, 0x5F, 0x00, 0x24, 0x46, 0x00, 0x2C, 0x28, 0x00, 0x31, 0x50, 0x1F, 0x89, 0x23, 0x00,
    0x00, 0x24, 0x00, 0x00, 0x2C, 0x00, 0x00, 0x31, 0x00, 0x00, 0x28, 0x00, 0x81, 0x51, 0x99, 0x24,
    0x46, 0x00, 0x2A, 0x1E, 0x1F, 0x89, 0x2A, 0x00, 0x00, 0x24, 0x00, 0x81, 0x51, 0x99, 0x2A, 0x46,
    0x00, 0x24, 0x46, 0x1F, 0x89, 0x24, 0x00, 0x00, 0x2A, 0x00, 0x81, 0x51, 0x99, 0x24, 0x46, 0x1F,
    0x89, 0x24, 0x00, 0x81, 0x51, 0x99, 0x23, 0x5F, 0x00, 0x24, 0x46, 0x00, 0x31, 0x50, 0x00, 0x2C,
    0x28, 0x1F, 0x89, 0x24, 0x00, 0x00, 0x31, 0x00, 0x00, 0x2C, 0x00, 0x00, 0x23, 0x00, 0x81, 0x51,
    0x99, 0x2A, 0x1E, 0x1F, 0x89, 0x2A, 0x00, 0x81, 0x51, 0x99, 0x2A, 0x46, 0x1F, 0x89, 0x2A, 0x00,
    0x83, 0x41, 0x99, 0x2C, 0x28, 0x00, 0x31, 0x50, 0x00, 0x24, 0x46, 0x00, 0x23, 0x5F, 0x00, 0x28,
    0x3C, 0x1F, 0x89, 0x31, 0x00, 0x00, 0x24, 0x00, 0x00, 0x23, 0x00, 0x00, 0x28, 0x00, 0x00, 0x2C,
    0x00, 0x81, 0x51, 0x99, 0x2A, 0x1E, 0x1F, 0x89, 0x2A, 0x00, 0x81, 0x51, 0x99, 0x2A, 0x46, 0x1F,
    0x89, 0x2A, 0x00, 0x83, 0x41, 0x99, 0x23, 0x5F, 0x00, 0x2C, 0x28, 0x00, 0x31, 0x50, 0x00, 0x24,
    0x46, 0x1F, 0x89, 0x2C, 0x00, 0x00, 0x31, 0x00, 0x00, 0x24, 0x00, 0x00, 0x23, 0x00, 0x81, 0x51,
    0x99, 0x2A, 0x1E, 0x1F, 0x89, 0x2A, 0x00, 0x81, 0x51, 0x99, 0x2A, 0x46, 0x1F, 0x89, 0x2A, 0x00,
    0x83, 0x41, 0x99, 0x2C, 0x28, 0x00, 0x31, 0x50, 0x00, 0x24, 0x46, 0x00, 0x23, 0x5F, 0x00, 0x28,
    0x3C, 0x1F, 0x89, 0x31, 0x00, 0x00, 0x24, 0x00, 0x00, 0x23, 0x00, 0x00, 0x28, 0x00, 0x00, 0x2C,
    0x00, 0x81, 0x51, 0x99, 0x2A, 0x1E, 0x1F, 0x89, 0x2A, 0x00, 0x81, 0x51, 0x99, 0x24, 0x46, 0x00,
    0x23, 0x5F, 0x00, 0x2A, 0x46, 0x1F, 0x89, 0x23, 0x00, 0x00, 0x2A, 0x00, 0x00, 0x24, 0x00, 0x83,
    0x41, 0x99, 0x23, 0x5F, 0x00, 0x2C, 0x28, 0x00, 0x31, 0x50, 0x00, 0x24, 0x46, 0x1F, 0x89, 0x2C,
    0x00, 0x00, 0x31, 0x00, 0x00, 0x24, 0x00, 0x00, 0x23, 0x00, 0x81, 0x51, 0x99, 0x2A, 0x1E, 0x1F,
    0x89, 0x2A, 0x00, 0x81, 0x51, 0x99, 0x2A, 0x46, 0x1F, 0x89, 0x2A, 0x00, 0x83, 0x41, 0x99, 0x2C,
    0x28, 0x00, 0x31, 0x50, 0x00, 0x24, 0x46, 0x00, 0x23, 0x5F, 0x00, 0x28, 0x3C, 0x1F, 0x89, 0x31,
    0x00, 0x00, 0x24, 0x00, 0x00, 0x23, 0x00, 0x00, 0x28, 0x00, 0x00, 0x2C, 0x00, 0x81, 0x51, 0x99,
    0x2A, 0x1E, 0x1F, 0x89, 0x2A, 0x00, 0x81, 0x51, 0x99, 0x2A, 0x46, 0x1F, 0x89, 0x2A, 0x00, 0x83,
    0x41, 0x99, 0x23, 0x5F, 0x00, 0x2C, 0x28, 0x00, 0x31, 0x50, 0x00, 0x24, 0x46, 0x1F, 0x89, 0x2C,
    0x00, 0x00, 0x31, 0x00, 0x00, 0x24, 0x00, 0x00, 0x23, 0x00, 0x81, 0x51, 0x99, 0x2A, 0x1E, 0x1F,
    0x89, 0x2A, 0x00, 0x81, 0x51, 0x99, 0x2A, 0x46, 0x1F, 0x89, 0x2A, 0x00, 0x83, 0x41, 0x99, 0x28,
    0x3C, 0x00, 0x23, 0x5F, 0x00, 0x24, 0x46, 0x00, 0x2C, 0x28, 0x00, 0x31, 0x50, 0x1F, 0x89, 0x23,
    0x00, 0x00, 0x24, 0x00, 0x00, 0x2C, 0x00, 0x00, 0x31, 0x00, 0x00, 0x28, 0x00, 0x81, 0x51, 0x99,
    0x24, 0x46, 0x00, 0x2A, 0x1E, 0x1F, 0x89, 0x2A, 0x00, 0x00, 0x24, 0x00, 0x81, 0x51, 0x99, 0x2A,
    0x46, 0x00, 0x24, 0x46, 0x1F, 0x89, 0x24, 0x00, 0x00, 0x2A, 0x00, 0x81, 0x51, 0x99, 0x24, 0x46,
    0x1F, 0x89, 0x24, 0x00, 0x81, 0x51, 0x99, 0x23, 0x5F, 0x00, 0x24, 0x46, 0x00, 0x31, 0x50, 0x00,
    0x2C, 0x28, 0x1F, 0x89, 0x24, 0x00, 0x00, 0x31, 0x00, 0x00, 0x2C, 0x00, 0x00, 0x23, 0x00, 0x81,
    0x51, 0x99, 0x2A, 0x1E, 0x1F, 0x89, 0x2A, 0x00, 0x81, 0x51, 0x99, 0x2A, 0x46, 0x1F, 0x89, 0x2A,
    0x00, 0x83, 0x41, 0x99, 0x2C, 0x28, 0x00, 0x31, 0x50, 0x00, 0x24, 0x46, 0x00, 0x23, 0x5F, 0x00,
    0x28, 0x3C, 0x1F, 0x89, 0x31, 0x00, 0x00, 0x24, 0x00, 0x00, 0x23, 0x00, 0x00, 0x28, 0x00, 0x00,
    0x2C, 0x00, 0x81, 0x51, 0x99, 0x2A, 0x1E, 0x1F, 0x89, 0x2A, 0x00, 0x81, 0x51, 0x99, 0x2A, 0x46,
    0x1F, 0x89, 0x2A, 0x00, 0x83, 0x41, 0x99, 0x23, 0x5F, 0x00, 0x39, 0x55, 0x00, 0x24, 0x46, 0x1F,
    0x89, 0x39, 0x00, 0x00, 0x24, 0x00, 0x00, 0x23, 0x00, 0x82, 0x21, 0x99, 0x23, 0x5F, 0x00, 0x39,
    0x55, 0x00, 0x24, 0x46, 0x1F, 0x89, 0x39, 0x00, 0x00, 0x24, 0x00, 0x00, 0x23, 0x00, 0x82, 0x21,
    0x99, 0x39, 0x55, 0x00, 0x23, 0x5F, 0x00, 0x24, 0x46, 0x1F, 0x89, 0x23, 0x00, 0x00, 0x24, 0x00,
    0x00, 0x39, 0x00, 0x82, 0x21, 0x99, 0x23, 0x5F, 0x00, 0x39, 0x55, 0x00, 0x24, 0x46, 0x1F, 0x89,
    0x39, 0x00, 0x00, 0x24, 0x00, 0x00, 0x23, 0x00, 0x82, 0x21, 0x99, 0x39, 0x55, 0x00, 0x23, 0x5F,
    0x00, 0x24, 0x46, 0x1F, 0x89, 0x23, 0x00, 0x00, 0x24, 0x00, 0x00, 0x39, 0x00, 0x82, 0x21, 0x99,
    0x39, 0x55, 0x00, 0x23, 0x5F, 0x00, 0x24, 0x46, 0x1F, 0x89, 0x23, 0x00, 0x00, 0x24, 0x00, 0x00,
    0x39, 0x00, 0x82, 0x21, 0x99, 0x3E, 0x28, 0x00, 0x2C, 0x28, 0x00, 0x24, 0x46, 0x00, 0x23, 0x5F,
    0x00, 0x31, 0x5F, 0x1F, 0x89, 0x2C, 0x00, 0x00, 0x24, 0x00, 0x00, 0x23, 0x00, 0x00, 0x31, 0x00,
    0x00, 0x3E, 0x00, 0x81, 0x51, 0x99, 0x3E, 0x28, 0x1F, 0x89, 0x3E, 0x00, 0x81, 0x51, 0x99, 0x3E,
    0x28, 0x1F, 0x89, 0x3E, 0x00, 0x81, 0x51, 0x99, 0x3E, 0x28, 0x1F, 0x89, 0x3E, 0x00, 0x81, 0x51,
    0x99, 0x3E, 0x28, 0x1F, 0x89, 0x3E, 0x00, 0x81, 0x51, 0x99, 0x3E, 0x28, 0x1F, 0x89, 0x3E, 0x00,
    0x81, 0x51, 0x99, 0x3E, 0x28, 0x1F, 0x89, 0x3E, 0x00, 0x81, 0x51, 0x99, 0x3E, 0x28, 0x1F, 0x89,
    0x3E, 0x00, 0x81, 0x51, 0x99, 0x48, 0x50, 0x00, 0x3E, 0x28, 0x1F, 0x89, 0x3E, 0x00, 0x00, 0x48,
    0x00, 0x81, 0x51, 0x99, 0x3E, 0x28, 0x1F, 0x89, 0x3E, 0x00, 0x81, 0x51, 0x99, 0x3E, 0x28, 0x1F,
    0x89, 0x3E, 0x00, 0x81, 0x51, 0x99, 0x3E, 0x28, 0x1F, 0x89, 0x3E, 0x00, 0x81, 0x51, 0x99, 0x3E,
    0x28, 0x1F, 0x89, 0x3E, 0x00, 0x81, 0x51, 0x99, 0x3E, 0x28, 0x1F, 0x89, 0x3E, 0x00, 0x81, 0x51,
    0x99, 0x3E, 0x28, 0x1F, 0x89, 0x3E, 0x00, 0x81, 0x51, 0x99, 0x3E, 0x28, 0x1F, 0x89, 0x3E, 0x00,
    0x81, 0x51, 0x99, 0x3E, 0x28, 0x1F, 0x89, 0x3E, 0x00, 0x81, 0x51, 0x99, 0x3E, 0x28, 0x1F, 0x89,
    0x3E, 0x00, 0x81, 0x51, 0x99, 0x3E, 0x28, 0x1F, 0x89, 0x3E, 0x00, 0x81, 0x51, 0x99, 0x3E, 0x28,
    0x1F, 0x89, 0x3E, 0x00, 0x81, 0x51, 0x99, 0x3E, 0x28, 0x1F, 0x89, 0x3E, 0x00, 0x81, 0x51, 0x99,
    0x3E, 0x28, 0x1F, 0x89, 0x3E, 0x00, 0x81, 0x51, 0x99, 0x3E, 0x28, 0x1F, 0x89, 0x3E, 0x00, 0x81,
    0x51, 0x99, 0x3E, 0x28, 0x1F, 0x89, 0x3E, 0x00, 0x81, 0x51, 0x99, 0x48, 0x50, 0x00, 0x3E, 0x28,
    0x1F, 0x89, 0x3E, 0x00, 0x00, 0x48, 0x00, 0x81, 0x51, 0x99, 0x3E, 0x28, 0x1F, 0x89, 0x3E, 0x00,
    0x81, 0x51, 0x99, 0x3E, 0x28, 0x1F, 0x89, 0x3E, 0x00, 0x81, 0x51, 0x99, 0x3E, 0x28, 0x1F, 0x89,
    0x3E, 0x00, 0x81, 0x51, 0x99, 0x3E, 0x28, 0x1F, 0x89, 0x3E, 0x00, 0x81, 0x51, 0x99, 0x3E, 0x28,
    0x1F, 0x89, 0x3E, 0x00, 0x81, 0x51, 0x99, 0x3E, 0x28, 0x1F, 0x89, 0x3E, 0x00, 0x81, 0x51, 0x99,
    0x3E, 0x28, 0x1F, 0x89, 0x3E, 0x00, 0x81, 0x51, 0x99, 0x3E, 0x28, 0x1F, 0x89, 0x3E, 0x00, 0x81,
    0x51, 0x99, 0x3E, 0x28, 0x1F, 0x89, 0x3E, 0x00, 0x81, 0x51, 0x99, 0x3E, 0x28, 0x1F, 0x89, 0x3E,
    0x00, 0x81, 0x51, 0x99, 0x3E, 0x28, 0x1F, 0x89, 0x3E, 0x00, 0x81, 0x51, 0x99, 0x3E, 0x28, 0x1F,
    0x89, 0x3E, 0x00, 0x81, 0x51, 0x99, 0x3E, 0x28, 0x1F, 0x89, 0x3E, 0x00, 0x81, 0x51, 0x99, 0x3E,
    0x28, 0x1F, 0x89, 0x3E, 0x00, 0x81, 0x51, 0x99, 0x3E, 0x28, 0x1F, 0x89, 0x3E, 0x00, 0x81, 0x51,
    0x99, 0x48, 0x50, 0x00, 0x3E, 0x28, 0x1F, 0x89, 0x3E, 0x00, 0x00, 0x48, 0x00, 0x59, 0x99, 0x3E,
    0x1E, 0x1F, 0x89, 0x3E, 0x00, 0x59, 0x99, 0x3E, 0x28, 0x1F, 0x89, 0x3E, 0x00, 0x81, 0x51, 0x99,
    0x3E, 0x28, 0x1F, 0x89, 0x3E, 0x00, 0x81, 0x51, 0x99, 0x3E, 0x28, 0x1F, 0x89, 0x3E, 0x00, 0x81,
    0x51, 0x99, 0x3E, 0x28, 0x1F, 0x89, 0x3E, 0x00, 0x81, 0x51, 0x99, 0x3E, 0x28, 0x1F, 0x89, 0x3E,
    0x00, 0x81, 0x51, 0x99, 0x3E, 0x28, 0x1F, 0x89, 0x3E, 0x00, 0x81, 0x51, 0x99, 0x3E, 0x28, 0x1F,
    0x89, 0x3E, 0x00, 0x81, 0x51, 0x99, 0x3E, 0x28, 0x1F, 0x89, 0x3E, 0x00, 0x81, 0x51, 0x99, 0x3E,
    0x28, 0x1F, 0x89, 0x3E, 0x00, 0x81, 0x51, 0x99, 0x3E, 0x28, 0x1F, 0x89, 0x3E, 0x00, 0x81, 0x51,
    0x99, 0x3E, 0x28, 0x1F, 0x89, 0x3E, 0x00, 0x81, 0x51, 0x99, 0x3E, 0x28, 0x1F, 0x89, 0x3E, 0x00,
    0x81, 0x51, 0x99, 0x3E, 0x28, 0x1F, 0x89, 0x3E, 0x00, 0x81, 0x51, 0x99, 0x3E, 0x28, 0x1F, 0x89,
    0x3E, 0x00, 0x81, 0x51, 0x99, 0x3E, 0x28, 0x1F, 0x89, 0x3E, 0x00, 0x81, 0x51, 0x99, 0x47, 0x50,
    0x00, 0x3E, 0x28, 0x1F, 0x89, 0x3E, 0x00, 0x00, 0x47, 0x00, 0x81, 0x51, 0x99, 0x3E, 0x28, 0x1F,
    0x89, 0x3E, 0x00, 0x81, 0x51, 0x99, 0x3E, 0x28, 0x1F, 0x89, 0x3E, 0x00, 0x81, 0x51, 0x99, 0x3E,
    0x28, 0x1F, 0x89, 0x3E, 0x00, 0x81, 0x51, 0x99, 0x3E, 0x28, 0x1F, 0x89, 0x3E, 0x00, 0x81, 0x51,
    0x99, 0x3E, 0x28, 0x1F, 0x89, 0x3E, 0x00, 0x81, 0x51, 0x99, 0x3E, 0x28, 0x1F, 0x89, 0x3E, 0x00,
    0x81, 0x51, 0x99, 0x3E, 0x28, 0x1F, 0x89, 0x3E, 0x00, 0x81, 0x51, 0x99, 0x3E, 0x28, 0x1F, 0x89,
    0x3E, 0x00, 0x81, 0x51, 0x99, 0x3E, 0x28, 0x1F, 0x89, 0x3E, 0x00, 0x81, 0x51, 0x99, 0x3E, 0x28,
    0x1F, 0x89, 0x3E, 0x00, 0x81, 0x51, 0x99, 0x3E, 0x28, 0x1F, 0x89, 0x3E, 0x00, 0x81, 0x51, 0x99,
    0x3E, 0x28, 0x1F, 0x89, 0x3E, 0x00, 0x81, 0x51, 0x99, 0x3E, 0x28, 0x1F, 0x89, 0x3E, 0x00, 0x81,
    0x51, 0x99, 0x3E, 0x28, 0x1F, 0x89, 0x3E, 0x00, 0x81, 0x51, 0x99, 0x3E, 0x28, 0x1F, 0x89, 0x3E,
    0x00, 0x81, 0x51, 0x99, 0x48, 0x50, 0x00, 0x3E, 0x28, 0x1F, 0x89, 0x3E, 0x00, 0x00, 0x48, 0x00,
    0x81, 0x51, 0x99, 0x3E, 0x28, 0x1F, 0x89, 0x3E, 0x00, 0x81, 0x51, 0x99, 0x3E, 0x28, 0x1F, 0x89,
    0x3E, 0x00, 0x81, 0x51, 0x99, 0x3E, 0x28, 0x1F, 0x89, 0x3E, 0x00, 0x81, 0x51, 0x99, 0x3E, 0x28,
    0x1F, 0x89, 0x3E, 0x00, 0x81, 0x51, 0x99, 0x3E, 0x28, 0x1F, 0x89, 0x3E, 0x00, 0x81, 0x51, 0x99,
    0x3E, 0x28, 0x1F, 0x89, 0x3E, 0x00, 0x81, 0x51, 0x99, 0x3E, 0x28, 0x1F, 0x89, 0x3E, 0x00, 0x81,
    0x51, 0x99, 0x3E, 0x28, 0x1F, 0x89, 0x3E, 0x00, 0x81, 0x51, 0x99, 0x3E, 0x28, 0x1F, 0x89, 0x3E,
    0x00, 0x81, 0x51, 0x99, 0x3E, 0x28, 0x1F, 0x89, 0x3E, 0x00, 0x81, 0x51, 0x99, 0x3E, 0x28, 0x1F,
    0x89, 0x3E, 0x00, 0x81, 0x51, 0x99, 0x3E, 0x28, 0x1F, 0x89, 0x3E, 0x00, 0x81, 0x51, 0x99, 0x3E,
    0x28, 0x1F, 0x89, 0x3E, 0x00, 0x81, 0x51, 0x99, 0x3E, 0x28, 0x1F, 0x89, 0x3E, 0x00, 0x81, 0x51,
    0x99, 0x3E, 0x28, 0x1F, 0x89, 0x3E, 0x00, 0x81, 0x51, 0x99, 0x48, 0x50, 0x00, 0x3E, 0x28, 0x1F,
    0x89, 0x3E, 0x00, 0x00, 0x48, 0x00, 0x81, 0x51, 0x99, 0x3E, 0x28, 0x1F, 0x89, 0x3E, 0x00, 0x81,
    0x51, 0x99, 0x3E, 0x28, 0x1F, 0x89, 0x3E, 0x00, 0x81, 0x51, 0x99, 0x3E, 0x28, 0x1F, 0x89, 0x3E,
    0x00, 0x81, 0x51, 0x99, 0x3E, 0x28, 0x1F, 0x89, 0x3E, 0x00, 0x81, 0x51, 0x99, 0x3E, 0x28, 0x1F,
    0x89, 0x3E, 0x00, 0x81, 0x51, 0x99, 0x3E, 0x28, 0x1F, 0x89, 0x3E, 0x00, 0x81, 0x51, 0x99, 0x3E,
    0x28, 0x1F, 0x89, 0x3E, 0x00, 0x81, 0x51, 0x99, 0x3E, 0x28, 0x1F, 0x89, 0x3E, 0x00, 0x81, 0x51,
    0x99, 0x3E, 0x28, 0x1F, 0x89, 0x3E, 0x00, 0x81, 0x51, 0x99, 0x3E, 0x28, 0x1F, 0x89, 0x3E, 0x00,
    0x81, 0x51, 0x99, 0x3E, 0x28, 0x1F, 0x89, 0x3E, 0x00, 0x81, 0x51, 0x99, 0x3E, 0x28, 0x1F, 0x89,
    0x3E, 0x00, 0x81, 0x51, 0x99, 0x3E, 0x28, 0x1F, 0x89, 0x3E, 0x00, 0x81, 0x51, 0x99, 0x3E, 0x28,
    0x1F, 0x89, 0x3E, 0x00, 0x81, 0x51, 0x99, 0x3E, 0x28, 0x1F, 0x89, 0x3E, 0x00, 0x81, 0x51, 0x99,
    0x48, 0x50, 0x00, 0x3E, 0x28, 0x1F, 0x89, 0x3E, 0x00, 0x00, 0x48, 0x00, 0x59, 0x99, 0x3E, 0x1E,
    0x1F, 0x89, 0x3E, 0x00, 0x59, 0x99, 0x3E, 0x28, 0x1F, 0x89, 0x3E, 0x00, 0x81, 0x51, 0x99, 0x3E,
    0x28, 0x1F, 0x89, 0x3E, 0x00, 0x81, 0x51, 0x99, 0x3E, 0x28, 0x1F, 0x89, 0x3E, 0x00, 0x81, 0x51,
    0x99, 0x3E, 0x28, 0x1F, 0x89, 0x3E, 0x00, 0x81, 0x51, 0x99, 0x3E, 0x28, 0x1F, 0x89, 0x3E, 0x00,
    0x81, 0x51, 0x99, 0x3E, 0x28, 0x1F, 0x89, 0x3E, 0x00, 0x81, 0x51, 0x99, 0x3E, 0x28, 0x1F, 0x89,
    0x3E, 0x00, 0x81, 0x51, 0x99, 0x3E, 0x28, 0x1F, 0x89, 0x3E, 0x00, 0x81, 0x51, 0x99, 0x3E, 0x28,
    0x1F, 0x89, 0x3E, 0x00, 0x81, 0x51, 0x99, 0x3E, 0x28, 0x1F, 0x89, 0x3E, 0x00, 0x81, 0x51, 0x99,
    0x3E, 0x28, 0x1F, 0x89, 0x3E, 0x00, 0x81, 0x51, 0x99, 0x3E, 0x28, 0x1F, 0x89, 0x3E, 0x00, 0x81,
    0x51, 0x99, 0x3E, 0x28, 0x1F, 0x89, 0x3E, 0x00, 0x81, 0x51, 0x99, 0x3E, 0x28, 0x1F, 0x89, 0x3E,
    0x00, 0x81, 0x51, 0x99, 0x3E, 0x28, 0x1F, 0x89, 0x3E, 0x00, 0x81, 0x51, 0x99, 0x47, 0x50, 0x00,
    0x3E, 0x28, 0x1F, 0x89, 0x3E, 0x00, 0x00, 0x47, 0x00, 0x81, 0x51, 0x99, 0x3E, 0x28, 0x1F, 0x89,
    0x3E, 0x00, 0x81, 0x51, 0x99, 0x3E, 0x28, 0x1F, 0x89, 0x3E, 0x00, 0x81, 0x51, 0x99, 0x3E, 0x28,
    0x1F, 0x89, 0x3E, 0x00, 0x81, 0x51, 0x99, 0x3E, 0x28, 0x1F, 0x89, 0x3E, 0x00, 0x81, 0x51, 0x99,
    0x3E, 0x28, 0x1F, 0x89, 0x3E, 0x00, 0x81, 0x51, 0x99, 0x3E, 0x28, 0x1F, 0x89, 0x3E, 0x00, 0x81,
    0x51, 0x99, 0x3E, 0x28, 0x1F, 0x89, 0x3E, 0x00, 0x81, 0x51, 0x99, 0x3E, 0x28, 0x00, 0x2B, 0x28,
    0x1F, 0x89, 0x2B, 0x00, 0x00, 0x3E, 0x00, 0x81, 0x51, 0x99, 0x3E, 0x28, 0x1F, 0x89, 0x3E, 0x00,
    0x81, 0x51, 0x99, 0x3E, 0x28, 0x1F, 0x89, 0x3E, 0x00, 0x81, 0x51, 0x99, 0x3E, 0x28, 0x1F, 0x89,
    0x3E, 0x00, 0x81, 0x51, 0x99, 0x32, 0x28, 0x00, 0x3E, 0x28, 0x00, 0x4D, 0x50, 0x1F, 0x89, 0x3E,
    0x00, 0x00, 0x4D, 0x00, 0x00, 0x32, 0x00, 0x81, 0x51, 0x99, 0x3E, 0x28, 0x1F, 0x89, 0x3E, 0x00,
    0x81, 0x51, 0x99, 0x3E, 0x28, 0x1F, 0x89, 0x3E, 0x00, 0x81, 0x51, 0x99, 0x3E, 0x28, 0x1F, 0x89,
    0x3E, 0x00, 0x81, 0x51, 0x99, 0x2B, 0x28, 0x00, 0x3E, 0x28, 0x00, 0x48, 0x50, 0x1F, 0x89, 0x3E,
    0x00, 0x00, 0x48, 0x00, 0x00, 0x2B, 0x00, 0x81, 0x51, 0x99, 0x3E, 0x28, 0x1F, 0x89, 0x3E, 0x00,
    0x81, 0x51, 0x99, 0x3E, 0x28, 0x00, 0x32, 0x28, 0x1F, 0x89, 0x32, 0x00, 0x00, 0x3E, 0x00, 0x81,
    0x51, 0x99, 0x3E, 0x28, 0x1F, 0x89, 0x3E, 0x00, 0x81, 0x51, 0x99, 0x3E, 0x28, 0x1F, 0x89, 0x3E,
    0x00, 0x81, 0x51, 0x99, 0x3E, 0x28, 0x1F, 0x89, 0x3E, 0x00, 0x81, 0x51, 0x99, 0x3E, 0x28, 0x00,
    0x2D, 0x28, 0x1F, 0x89, 0x2D, 0x00, 0x00, 0x3E, 0x00, 0x81, 0x51, 0x99, 0x3E, 0x28, 0x1F, 0x89,
    0x3E, 0x00, 0x81, 0x51, 0x99, 0x3E, 0x28, 0x00, 0x2B, 0x28, 0x1F, 0x89, 0x2B, 0x00, 0x00, 0x3E,
    0x00, 0x81, 0x51, 0x99, 0x3E, 0x28, 0x1F, 0x89, 0x3E, 0x00, 0x81, 0x51, 0x99, 0x3E, 0x28, 0x1F,
    0x89, 0x3E, 0x00, 0x81, 0x51, 0x99, 0x3E, 0x28, 0x1F, 0x89, 0x3E, 0x00, 0x81, 0x51, 0x99, 0x32,
    0x28, 0x00, 0x3E, 0x28, 0x00, 0x4D, 0x50, 0x1F, 0x89, 0x3E, 0x00, 0x00, 0x4D, 0x00, 0x00, 0x32,
    0x00, 0x81, 0x51, 0x99, 0x3E, 0x28, 0x1F, 0x89, 0x3E, 0x00, 0x81, 0x51, 0x99, 0x3E, 0x28, 0x1F,
    0x89, 0x3E, 0x00, 0x81, 0x51, 0x99, 0x3E, 0x28, 0x1F, 0x89, 0x3E, 0x00, 0x81, 0x51, 0x99, 0x2B,
    0x28, 0x00, 0x3E, 0x28, 0x00, 0x48, 0x50, 0x1F, 0x89, 0x3E, 0x00, 0x00, 0x48, 0x00, 0x00, 0x2B,
    0x00, 0x81, 0x51, 0x99, 0x3E, 0x28, 0x1F, 0x89, 0x3E, 0x00, 0x81, 0x51, 0x99, 0x3E, 0x28, 0x00,
    0x32, 0x28, 0x1F, 0x89, 0x32, 0x00, 0x00, 0x3E, 0x00, 0x81, 0x51, 0x99, 0x3E, 0x28, 0x1F, 0x89,
    0x3E, 0x00, 0x81, 0x51, 0x99, 0x3E, 0x28, 0x1F, 0x89, 0x3E, 0x00, 0x81, 0x51, 0x99, 0x3E, 0x28,
    0x1F, 0x89, 0x3E, 0x00, 0x81, 0x51, 0x99, 0x3E, 0x28, 0x00, 0x2D, 0x28, 0x1F, 0x89, 0x2D, 0x00,
    0x00, 0x3E, 0x00, 0x81, 0x51, 0x99, 0x3E, 0x28, 0x1F, 0x89, 0x3E, 0x00, 0x81, 0x51, 0x99, 0x3E,
    0x28, 0x00, 0x2B, 0x28, 0x1F, 0x89, 0x2B, 0x00, 0x00, 0x3E, 0x00, 0x81, 0x51, 0x99, 0x3E, 0x28,
    0x1F, 0x89, 0x3E, 0x00, 0x81, 0x51, 0x99, 0x3E, 0x28, 0x1F, 0x89, 0x3E, 0x00, 0x81, 0x51, 0x99,
    0x3E, 0x28, 0x1F, 0x89, 0x3E, 0x00, 0x81, 0x51, 0x99, 0x32, 0x28, 0x00, 0x3E, 0x28, 0x00, 0x4D,
    0x50, 0x1F, 0x89, 0x3E, 0x00, 0x00, 0x4D, 0x00, 0x00, 0x32, 0x00, 0x81, 0x51, 0x99, 0x3E, 0x28,
    0x1F, 0x89, 0x3E, 0x00, 0x81, 0x51, 0x99, 0x3E, 0x28, 0x1F, 0x89, 0x3E, 0x00, 0x81, 0x51, 0x99,
    0x3E, 0x28, 0x1F, 0x89, 0x3E, 0x00, 0x81, 0x51, 0x99, 0x2B, 0x28, 0x00, 0x3E, 0x28, 0x00, 0x48,
    0x50, 0x1F, 0x89, 0x3E, 0x00, 0x00, 0x48, 0x00, 0x00, 0x2B, 0x00, 0x59, 0x99, 0x3E, 0x1E, 0x1F,
    0x89, 0x3E, 0x00, 0x59, 0x99, 0x3E, 0x28, 0x1F, 0x89, 0x3E, 0x00, 0x81, 0x51, 0x99, 0x3E, 0x28,
    0x00, 0x32, 0x28, 0x1F, 0x89, 0x32, 0x00, 0x00, 0x3E, 0x00, 0x81, 0x51, 0x99, 0x3E, 0x28, 0x1F,
    0x89, 0x3E, 0x00, 0x81, 0x51, 0x99, 0x3E, 0x28, 0x1F, 0x89, 0x3E, 0x00, 0x81, 0x51, 0x99, 0x3E,
    0x28, 0x1F, 0x89, 0x3E, 0x00, 0x81, 0x51, 0x99, 0x3E, 0x28, 0x00, 0x30, 0x28, 0x1F, 0x89, 0x30,
    0x00, 0x00, 0x3E, 0x00, 0x81, 0x51, 0x99, 0x3E, 0x28, 0x1F, 0x89, 0x3E, 0x00, 0x81, 0x51, 0x99,
    0x3E, 0x28, 0x00, 0x2B, 0x28, 0x1F, 0x89, 0x2B, 0x00, 0x00, 0x3E, 0x00, 0x81, 0x51, 0x99, 0x3E,
    0x28, 0x1F, 0x89, 0x3E, 0x00, 0x81, 0x51, 0x99, 0x3E, 0x28, 0x1F, 0x89, 0x3E, 0x00, 0x81, 0x51,
    0x99, 0x3E, 0x28, 0x1F, 0x89, 0x3E, 0x00, 0x81, 0x51, 0x99, 0x32, 0x28, 0x00, 0x3E, 0x28, 0x00,
    0x4D, 0x50, 0x1F, 0x89, 0x3E, 0x00, 0x00, 0x4D, 0x00, 0x00, 0x32, 0x00, 0x81, 0x51, 0x99, 0x3E,
    0x28, 0x1F, 0x89, 0x3E, 0x00, 0x59, 0x99, 0x2B, 0x28, 0x1F, 0x89, 0x2B, 0x00, 0x59, 0x99, 0x3E,
    0x28, 0x1F, 0x89, 0x3E, 0x00, 0x81, 0x51, 0x99, 0x3E, 0x28, 0x1F, 0x89, 0x3E, 0x00, 0x81, 0x51,
    0x99, 0x32, 0x28, 0x00, 0x3E, 0x28, 0x00, 0x47, 0x50, 0x1F, 0x89, 0x3E, 0x00, 0x00, 0x47, 0x00,
    0x00, 0x32, 0x00, 0x81, 0x51, 0x99, 0x3E, 0x28, 0x00, 0x32, 0x28, 0x1F, 0x89, 0x32, 0x00, 0x00,
    0x3E, 0x00, 0x81, 0x51, 0x99, 0x3E, 0x28, 0x00, 0x2B, 0x28, 0x1F, 0x89, 0x2B, 0x00, 0x00, 0x3E,
    0x00, 0x81, 0x51, 0x99, 0x3E, 0x28, 0x00, 0x32, 0x28, 0x1F, 0x89, 0x32, 0x00, 0x00, 0x3E, 0x00,
    0x81, 0x51, 0x99, 0x3E, 0x28, 0x00, 0x32, 0x28, 0x1F, 0x89, 0x32, 0x00, 0x00, 0x3E, 0x00, 0x81,
    0x51, 0x99, 0x3E, 0x28, 0x00, 0x2B, 0x28, 0x1F, 0x89, 0x2B, 0x00, 0x00, 0x3E, 0x00, 0x81, 0x51,
    0x99, 0x3E, 0x28, 0x00, 0x30, 0x28, 0x1F, 0x89, 0x30, 0x00, 0x00, 0x3E, 0x00, 0x81, 0x51, 0x99,
    0x3E, 0x28, 0x00, 0x30, 0x28, 0x1F, 0x89, 0x30, 0x00, 0x00, 0x3E, 0x00, 0x81, 0x51, 0x99, 0x3E,
    0x28, 0x00, 0x2B, 0x28, 0x1F, 0x89, 0x2B, 0x00, 0x00, 0x3E, 0x00, 0x81, 0x51, 0x99, 0x3E, 0x28,
    0x1F, 0x89, 0x3E, 0x00, 0x81, 0x51, 0x99, 0x3E, 0x28, 0x1F, 0x89, 0x3E, 0x00, 0x81, 0x51, 0x99,
    0x3E, 0x28, 0x1F, 0x89, 0x3E, 0x00, 0x81, 0x51, 0x99, 0x32, 0x28, 0x00, 0x3E, 0x28, 0x00, 0x4D,
    0x50, 0x1F, 0x89, 0x3E, 0x00, 0x00, 0x4D, 0x00, 0x00, 0x32, 0x00, 0x81, 0x51, 0x99, 0x3E, 0x28,
    0x1F, 0x89, 0x3E, 0x00, 0x81, 0x51, 0x99, 0x3E, 0x28, 0x1F, 0x89, 0x3E, 0x00, 0x81, 0x51, 0x99,
    0x3E, 0x28, 0x1F, 0x89, 0x3E, 0x00, 0x81, 0x51, 0x99, 0x2B, 0x28, 0x00, 0x3E, 0x28, 0x00, 0x48,
    0x50, 0x1F, 0x89, 0x3E, 0x00, 0x00, 0x48, 0x00, 0x00, 0x2B, 0x00, 0x81, 0x51, 0x99, 0x3E, 0x28,
    0x1F, 0x89, 0x3E, 0x00, 0x81, 0x51, 0x99, 0x3E, 0x28, 0x00, 0x32, 0x28, 0x1F, 0x89, 0x32, 0x00,
    0x00, 0x3E, 0x00, 0x81, 0x51, 0x99, 0x3E, 0x28, 0x1F, 0x89, 0x3E, 0x00, 0x81, 0x51, 0x99, 0x3E,
    0x28, 0x1F, 0x89, 0x3E, 0x00, 0x81, 0x51, 0x99, 0x3E, 0x28, 0x1F, 0x89, 0x3E, 0x00, 0x81, 0x51,
    0x99, 0x3E, 0x28, 0x00, 0x2D, 0x28, 0x1F, 0x89, 0x2D, 0x00, 0x00, 0x3E, 0x00, 0x81, 0x51, 0x99,
    0x3E, 0x28, 0x1F, 0x89, 0x3E, 0x00, 0x81, 0x51, 0x99, 0x3E, 0x28, 0x00, 0x2B, 0x28, 0x1F, 0x89,
    0x2B, 0x00, 0x00, 0x3E, 0x00, 0x81, 0x51, 0x99, 0x3E, 0x28, 0x1F, 0x89, 0x3E, 0x00, 0x81, 0x51,
    0x99, 0x3E, 0x28, 0x1F, 0x89, 0x3E, 0x00, 0x81, 0x51, 0x99, 0x3E, 0x28, 0x1F, 0x89, 0x3E, 0x00,
    0x81, 0x51, 0x99, 0x32, 0x28, 0x00, 0x3E, 0x28, 0x00, 0x4D, 0x50, 0x1F, 0x89, 0x3E, 0x00, 0x00,
    0x4D, 0x00, 0x00, 0x32, 0x00, 0x81, 0x51, 0x99, 0x3E, 0x28, 0x1F, 0x89, 0x3E, 0x00, 0x81, 0x51,
    0x99, 0x3E, 0x28, 0x1F, 0x89, 0x3E, 0x00, 0x81, 0x51, 0x99, 0x3E, 0x28, 0x1F, 0x89, 0x3E, 0x00,
    0x81, 0x51, 0x99, 0x2B, 0x28, 0x00, 0x3E, 0x28, 0x00, 0x48, 0x50, 0x1F, 0x89, 0x3E, 0x00, 0x00,
    0x48, 0x00, 0x00, 0x2B, 0x00, 0x81, 0x51, 0x99, 0x3E, 0x28, 0x1F, 0x89, 0x3E, 0x00, 0x81, 0x51,
    0x99, 0x3E, 0x28, 0x00, 0x32, 0x28, 0x1F, 0x89, 0x32, 0x00, 0x00, 0x3E, 0x00, 0x81, 0x51, 0x99,
    0x3E, 0x28, 0x1F, 0x89, 0x3E, 0x00, 0x81, 0x51, 0x99, 0x3E, 0x28, 0x1F, 0x89, 0x3E, 0x00, 0x81,
    0x51, 0x99, 0x3E, 0x28, 0x1F, 0x89, 0x3E, 0x00, 0x81, 0x51, 0x99, 0x3E, 0x28, 0x00, 0x2D, 0x28,
    0x1F, 0x89, 0x2D, 0x00, 0x00, 0x3E, 0x00, 0x81, 0x51, 0x99, 0x3E, 0x28, 0x1F, 0x89, 0x3E, 0x00,
    0x81, 0x51, 0x99, 0x3E, 0x28, 0x00, 0x2B, 0x28, 0x1F, 0x89, 0x2B, 0x00, 0x00, 0x3E, 0x00, 0x81,
    0x51, 0x99, 0x3E, 0x28, 0x1F, 0x89, 0x3E, 0x00, 0x81, 0x51, 0x99, 0x3E, 0x28, 0x1F, 0x89, 0x3E,
    0x00, 0x81, 0x51, 0x99, 0x3E, 0x28, 0x1F, 0x89, 0x3E, 0x00, 0x81, 0x51, 0x99, 0x32, 0x28, 0x00,
    0x3E, 0x28, 0x00, 0x4D, 0x50, 0x1F, 0x89, 0x3E, 0x00, 0x00, 0x4D, 0x00, 0x00, 0x32, 0x00, 0x81,
    0x51, 0x99, 0x3E, 0x28, 0x1F, 0x89, 0x3E, 0x00, 0x81, 0x51, 0x99, 0x3E, 0x28, 0x1F, 0x89, 0x3E,
    0x00, 0x81, 0x51, 0x99, 0x3E, 0x28, 0x1F, 0x89, 0x3E, 0x00, 0x81, 0x51, 0x99, 0x2B, 0x28, 0x00,
    0x3E, 0x28, 0x00, 0x48, 0x50, 0x1F, 0x89, 0x3E, 0x00, 0x00, 0x48, 0x00, 0x00, 0x2B, 0x00, 0x59,
    0x99, 0x3E, 0x1E, 0x1F, 0x89, 0x3E, 0x00, 0x59, 0x99, 0x3E, 0x28, 0x1F, 0x89, 0x3E, 0x00, 0x81,
    0x51, 0x99, 0x3E, 0x28, 0x00, 0x32, 0x28, 0x1F, 0x89, 0x32, 0x00, 0x00, 0x3E, 0x00, 0x81, 0x51,
    0x99, 0x3E, 0x28, 0x1F, 0x89, 0x3E, 0x00, 0x81, 0x51, 0x99, 0x3E, 0x28, 0x1F, 0x89, 0x3E, 0x00,
    0x81, 0x51, 0x99, 0x3E, 0x28, 0x1F, 0x89, 0x3E, 0x00, 0x81, 0x51, 0x99, 0x3E, 0x28, 0x00, 0x30,
    0x28, 0x1F, 0x89, 0x30, 0x00, 0x00, 0x3E, 0x00, 0x81, 0x51, 0x99, 0x3E, 0x28, 0x1F, 0x89, 0x3E,
    0x00, 0x81, 0x51, 0x99, 0x3E, 0x28, 0x1F, 0x89, 0x3E, 0x00, 0x8E, 0x61, 0x99, 0x24, 0x46, 0x00,
    0x23, 0x5F, 0x00, 0x47, 0x50, 0x00, 0x31, 0x50, 0x1F, 0x89, 0x23, 0x00, 0x00, 0x47, 0x00, 0x00,
    0x31, 0x00, 0x00, 0x24, 0x00, 0x87, 0x21, 0x99, 0x31, 0x50, 0x00, 0x23, 0x5F, 0x00, 0x24, 0x46,
    0x1F, 0x89, 0x23, 0x00, 0x00, 0x24, 0x00, 0x00, 0x31, 0x00, 0x87, 0x21, 0x99, 0x23, 0x5F, 0x00,
    0x31, 0x55, 0x00, 0x24, 0x46, 0x00, 0x2C, 0x28, 0x1F, 0x89, 0x31, 0x00, 0x00, 0x24, 0x00, 0x00,
    0x2C, 0x00, 0x00, 0x23, 0x00, 0x81, 0x51, 0x99, 0x2A, 0x1E, 0x1F, 0x89, 0x2A, 0x00, 0x81, 0x51,
    0x99, 0x2A, 0x46, 0x1F, 0x89, 0x2A, 0x00, 0x83, 0x41, 0x99, 0x24, 0x46, 0x00, 0x28, 0x3C, 0x00,
    0x2C, 0x28, 0x00, 0x23, 0x5F, 0x1F, 0x89, 0x28, 0x00, 0x00, 0x2C, 0x00, 0x00, 0x23, 0x00, 0x00,
    0x24, 0x00, 0x81, 0x51, 0x99, 0x2A, 0x1E, 0x1F, 0x89, 0x2A, 0x00, 0x81, 0x51, 0x99, 0x2A, 0x46,
    0x1F, 0x89, 0x2A, 0x00, 0x83, 0x41, 0x99, 0x23, 0x5F, 0x00, 0x24, 0x46, 0x00, 0x2C, 0x28, 0x1F,
    0x89, 0x24, 0x00, 0x00, 0x2C, 0x00, 0x00, 0x23, 0x00, 0x81, 0x51, 0x99, 0x2A, 0x1E, 0x1F, 0x89,
    0x2A, 0x00, 0x81, 0x51, 0x99, 0x2A, 0x46, 0x1F, 0x89, 0x2A, 0x00, 0x83, 0x41, 0x99, 0x2C, 0x28,
    0x00, 0x23, 0x5F, 0x00, 0x24, 0x46, 0x00, 0x28, 0x3C, 0x1F, 0x89, 0x23, 0x00, 0x00, 0x24, 0x00,
    0x00, 0x28, 0x00, 0x00, 0x2C, 0x00, 0x81, 0x51, 0x99, 0x24, 0x46, 0x00, 0x2A, 0x1E, 0x1F, 0x89,
    0x2A, 0x00, 0x00, 0x24, 0x00, 0x81, 0x51, 0x99, 0x24, 0x46, 0x00, 0x2A, 0x46, 0x1F, 0x89, 0x2A,
    0x00, 0x00, 0x24, 0x00, 0x81, 0x51, 0x99, 0x24, 0x46, 0x1F, 0x89, 0x24, 0x00, 0x81, 0x51, 0x99,
    0x23, 0x5F, 0x00, 0x24, 0x46, 0x00, 0x2C, 0x28, 0x1F, 0x89, 0x24, 0x00, 0x00, 0x2C, 0x00, 0x00,
    0x23, 0x00, 0x81, 0x51, 0x99, 0x2A, 0x1E, 0x1F, 0x89, 0x2A, 0x00, 0x81, 0x51, 0x99, 0x2A, 0x46,
    0x1F, 0x89, 0x2A, 0x00, 0x83, 0x41, 0x99, 0x24, 0x46, 0x00, 0x28, 0x3C, 0x00, 0x2C, 0x28, 0x00,
    0x23, 0x5F, 0x1F, 0x89, 0x28, 0x00, 0x00, 0x2C, 0x00, 0x00, 0x23, 0x00, 0x00, 0x24, 0x00, 0x81,
    0x51, 0x99, 0x2A, 0x1E, 0x1F, 0x89, 0x2A, 0x00, 0x81, 0x51, 0x99, 0x2A, 0x46, 0x1F, 0x89, 0x2A,
    0x00, 0x83, 0x41, 0x99, 0x23, 0x5F, 0x00, 0x24, 0x46, 0x00, 0x2C, 0x28, 0x1F, 0x89, 0x24, 0x00,
    0x00, 0x2C, 0x00, 0x00, 0x23, 0x00, 0x81, 0x51, 0x99, 0x2A, 0x1E, 0x1F, 0x89, 0x2A, 0x00, 0x81,
    0x51, 0x99, 0x2A, 0x46, 0x1F, 0x89, 0x2A, 0x00, 0x83, 0x41, 0x99, 0x24, 0x46, 0x00, 0x28, 0x3C,
    0x00, 0x2C, 0x28, 0x00, 0x23, 0x5F, 0x1F, 0x89, 0x28, 0x00, 0x00, 0x2C, 0x00, 0x00, 0x23, 0x00,
    0x00, 0x24, 0x00, 0x81, 0x51, 0x99, 0x2A, 0x1E, 0x1F, 0x89, 0x2A, 0x00, 0x81, 0x51, 0x99, 0x23,
    0x5F, 0x00, 0x24, 0x46, 0x00, 0x2A, 0x46, 0x1F, 0x89, 0x24, 0x00, 0x00, 0x2A, 0x00, 0x00, 0x23,
    0x00, 0x83, 0x41, 0x99, 0x23, 0x5F, 0x00, 0x24, 0x46, 0x00, 0x2C, 0x28, 0x1F, 0x89, 0x24, 0x00,
    0x00, 0x2C, 0x00, 0x00, 0x23, 0x00, 0x81, 0x51, 0x99, 0x2A, 0x1E, 0x1F, 0x89, 0x2A, 0x00, 0x81,
    0x51, 0x99, 0x2A, 0x46, 0x1F, 0x89, 0x2A, 0x00, 0x83, 0x41, 0x99, 0x24, 0x46, 0x00, 0x28, 0x3C,
    0x00, 0x2C, 0x28, 0x00, 0x23, 0x5F, 0x1F, 0x89, 0x28, 0x00, 0x00, 0x2C, 0x00, 0x00, 0x23, 0x00,
    0x00, 0x24, 0x00, 0x81, 0x51, 0x99, 0x2A, 0x1E, 0x1F, 0x89, 0x2A, 0x00, 0x81, 0x51, 0x99, 0x2A,
    0x46, 0x1F, 0x89, 0x2A, 0x00, 0x83, 0x41, 0x99, 0x23, 0x5F, 0x00, 0x24, 0x46, 0x00, 0x2C, 0x28,
    0x1F, 0x89, 0x24, 0x00, 0x00, 0x2C, 0x00, 0x00, 0x23, 0x00, 0x81, 0x51, 0x99, 0x2A, 0x1E, 0x1F,
    0x89, 0x2A, 0x00, 0x81, 0x51, 0x99, 0x2A, 0x46, 0x1F, 0x89, 0x2A, 0x00, 0x83, 0x41, 0x99, 0x2C,
    0x28, 0x00, 0x23, 0x5F, 0x00, 0x24, 0x46, 0x00, 0x28, 0x3C, 0x1F, 0x89, 0x23, 0x00, 0x00, 0x24,
    0x00, 0x00, 0x28, 0x00, 0x00, 0x2C, 0x00, 0x81, 0x51, 0x99, 0x24, 0x46, 0x00, 0x2A, 0x1E, 0x1F,
    0x89, 0x2A, 0x00, 0x00, 0x24, 0x00, 0x81, 0x51, 0x99, 0x24, 0x46, 0x00, 0x2A, 0x46, 0x1F, 0x89,
    0x2A, 0x00, 0x00, 0x24, 0x00, 0x81, 0x51, 0x99, 0x24, 0x46, 0x1F, 0x89, 0x24, 0x00, 0x81, 0x51,
    0x99, 0x23, 0x5F, 0x00, 0x24, 0x46, 0x00, 0x2C, 0x28, 0x1F, 0x89, 0x24, 0x00, 0x00, 0x2C, 0x00,
    0x00, 0x23, 0x00, 0x81, 0x51, 0x99, 0x2A, 0x1E, 0x1F, 0x89, 0x2A, 0x00, 0x81, 0x51, 0x99, 0x2A,
    0x46, 0x1F, 0x89, 0x2A, 0x00, 0x83, 0x41, 0x99, 0x24, 0x46, 0x00, 0x28, 0x3C, 0x00, 0x2C, 0x28,
    0x00, 0x23, 0x5F, 0x1F, 0x89, 0x28, 0x00, 0x00, 0x2C, 0x00, 0x00, 0x23, 0x00, 0x00, 0x24, 0x00,
    0x81, 0x51, 0x99, 0x2A, 0x1E, 0x1F, 0x89, 0x2A, 0x00, 0x81, 0x51, 0x99, 0x2A, 0x46, 0x1F, 0x89,
    0x2A, 0x00, 0x83, 0x41, 0x99, 0x23, 0x5F, 0x00, 0x24, 0x46, 0x00, 0x2C, 0x28, 0x1F, 0x89, 0x24,
    0x00, 0x00, 0x2C, 0x00, 0x00, 0x23, 0x00, 0x81, 0x51, 0x99, 0x2A, 0x1E, 0x1F, 0x89, 0x2A, 0x00,
    0x81, 0x51, 0x99, 0x2A, 0x46, 0x1F, 0x89, 0x2A, 0x00, 0x83, 0x41, 0x99, 0x24, 0x46, 0x00, 0x28,
    0x3C, 0x00, 0x2C, 0x28, 0x00, 0x23, 0x5F, 0x1F, 0x89, 0x28, 0x00, 0x00, 0x2C, 0x00, 0x00, 0x23,
    0x00, 0x00, 0x24, 0x00, 0x81, 0x51, 0x99, 0x2A, 0x1E, 0x1F, 0x89, 0x2A, 0x00, 0x81, 0x51, 0x99,
    0x23, 0x5F, 0x00, 0x24, 0x46, 0x00, 0x2A, 0x46, 0x1F, 0x89, 0x24, 0x00, 0x00, 0x2A, 0x00, 0x00,
    0x23, 0x00, 0x83, 0x41, 0x99, 0x2C, 0x28, 0x00, 0x24, 0x46, 0x00, 0x23, 0x5F, 0x1F, 0x89, 0x24,
    0x00, 0x00, 0x23, 0x00, 0x00, 0x2C, 0x00, 0x81, 0x51, 0x99, 0x2A, 0x1E, 0x1F, 0x89, 0x2A, 0x00,
    0x81, 0x51, 0x99, 0x2A, 0x46, 0x1F, 0x89, 0x2A, 0x00, 0x83, 0x41, 0x99, 0x24, 0x46, 0x00, 0x28,
    0x3C, 0x00, 0x23, 0x5F, 0x00, 0x2C, 0x28, 0x1F, 0x89, 0x28, 0x00, 0x00, 0x23, 0x00, 0x00, 0x2C,
    0x00, 0x00, 0x24, 0x00, 0x81, 0x51, 0x99, 0x2A, 0x1E, 0x1F, 0x89, 0x2A, 0x00, 0x81, 0x51, 0x99,
    0x2A, 0x46, 0x1F, 0x89, 0x2A, 0x00, 0x83, 0x41, 0x99, 0x2C, 0x28, 0x00, 0x24, 0x46, 0x00, 0x23,
    0x5F, 0x1F, 0x89, 0x24, 0x00, 0x00, 0x23, 0x00, 0x00, 0x2C, 0x00, 0x81, 0x51, 0x99, 0x2A, 0x1E,
    0x1F, 0x89, 0x2A, 0x00, 0x81, 0x51, 0x99, 0x2A, 0x46, 0x1F, 0x89, 0x2A, 0x00, 0x83, 0x41, 0x99,
    0x28, 0x3C, 0x00, 0x2C, 0x28, 0x00, 0x23, 0x5F, 0x00, 0x24, 0x46, 0x1F, 0x89, 0x2C, 0x00, 0x00,
    0x23, 0x00, 0x00, 0x24, 0x00, 0x00, 0x28, 0x00, 0x81, 0x51, 0x99, 0x24, 0x46, 0x00, 0x2A, 0x1E,
    0x1F, 0x89, 0x2A, 0x00, 0x00, 0x24, 0x00, 0x81, 0x51, 0x99, 0x2A, 0x46, 0x00, 0x24, 0x46, 0x1F,
    0x89, 0x24, 0x00, 0x00, 0x2A, 0x00, 0x81, 0x51, 0x99, 0x24, 0x46, 0x1F, 0x89, 0x24, 0x00, 0x81,
    0x51, 0x99, 0x2C, 0x28, 0x00, 0x23, 0x5F, 0x00, 0x24, 0x46, 0x1F, 0x89, 0x23, 0x00, 0x00, 0x24,
    0x00, 0x00, 0x2C, 0x00, 0x81, 0x51, 0x99, 0x2A, 0x1E, 0x1F, 0x89, 0x2A, 0x00, 0x81, 0x51, 0x99,
    0x2A, 0x46, 0x1F, 0x89, 0x2A, 0x00, 0x83, 0x41, 0x99, 0x24, 0x46, 0x00, 0x28, 0x3C, 0x00, 0x23,
    0x5F, 0x00, 0x2C, 0x28, 0x1F, 0x89, 0x28, 0x00, 0x00, 0x23, 0x00, 0x00, 0x2C, 0x00, 0x00, 0x24,
    0x00, 0x81, 0x51, 0x99, 0x2A, 0x1E, 0x1F, 0x89, 0x2A, 0x00, 0x81, 0x51, 0x99, 0x2A, 0x46, 0x1F,
    0x89, 0x2A, 0x00, 0x83, 0x41, 0x99, 0x2C, 0x28, 0x00, 0x24, 0x46, 0x00, 0x23, 0x5F, 0x1F, 0x89,
    0x24, 0x00, 0x00, 0x23, 0x00, 0x00, 0x2C, 0x00, 0x81, 0x51, 0x99, 0x2A, 0x1E, 0x1F, 0x89, 0x2A,
    0x00, 0x81, 0x51, 0x99, 0x2A, 0x46, 0x1F, 0x89, 0x2A, 0x00, 0x83, 0x41, 0x99, 0x24, 0x46, 0x00,
    0x28, 0x3C, 0x00, 0x23, 0x5F, 0x00, 0x2C, 0x28, 0x1F, 0x89, 0x28, 0x00, 0x00, 0x23, 0x00, 0x00,
    0x2C, 0x00, 0x00, 0x24, 0x00, 0x81, 0x51, 0x99, 0x2A, 0x1E, 0x1F, 0x89, 0x2A, 0x00, 0x81, 0x51,
    0x99, 0x2A, 0x46, 0x00, 0x24, 0x46, 0x00, 0x23, 0x5F, 0x1F, 0x89, 0x24, 0x00, 0x00, 0x23, 0x00,
    0x00, 0x2A, 0x00, 0x83, 0x41, 0x99, 0x2C, 0x28, 0x00, 0x24, 0x46, 0x00, 0x23, 0x5F, 0x1F, 0x89,
    0x24, 0x00, 0x00, 0x23, 0x00, 0x00, 0x2C, 0x00, 0x81, 0x51, 0x99, 0x2A, 0x1E, 0x1F, 0x89, 0x2A,
    0x00, 0x81, 0x51, 0x99, 0x2A, 0x46, 0x1F, 0x89, 0x2A, 0x00, 0x83, 0x41, 0x99, 0x24, 0x46, 0x00,
    0x28, 0x3C, 0x00, 0x23, 0x5F, 0x00, 0x2C, 0x28, 0x1F, 0x89, 0x28, 0x00, 0x00, 0x23, 0x00, 0x00,
    0x2C, 0x00, 0x00, 0x24, 0x00, 0x81, 0x51, 0x99, 0x2A, 0x1E, 0x1F, 0x89, 0x2A, 0x00, 0x81, 0x51,
    0x99, 0x2A, 0x46, 0x1F, 0x89, 0x2A, 0x00, 0x83, 0x41, 0x99, 0x2C, 0x28, 0x00, 0x24, 0x46, 0x00,
    0x23, 0x5F, 0x1F, 0x89, 0x24, 0x00, 0x00, 0x23, 0x00, 0x00, 0x2C, 0x00, 0x81, 0x51, 0x99, 0x2A,
    0x1E, 0x1F, 0x89, 0x2A, 0x00, 0x81, 0x51, 0x99, 0x2A, 0x46, 0x1F, 0x89, 0x2A, 0x00, 0x83, 0x41,
    0x99, 0x28, 0x3C, 0x00, 0x2C, 0x28, 0x00, 0x23, 0x5F, 0x00, 0x24, 0x46, 0x1F, 0x89, 0x2C, 0x00,
    0x00, 0x23, 0x00, 0x00, 0x24, 0x00, 0x00, 0x28, 0x00, 0x81, 0x51, 0x99, 0x24, 0x46, 0x00, 0x2A,
    0x1E, 0x1F, 0x89, 0x2A, 0x00, 0x00, 0x24, 0x00, 0x81, 0x51, 0x99, 0x2A, 0x46, 0x00, 0x24, 0x46,
    0x1F, 0x89, 0x24, 0x00, 0x00, 0x2A, 0x00, 0x81, 0x51, 0x99, 0x24, 0x46, 0x1F, 0x89, 0x24, 0x00,
    0x81, 0x51, 0x99, 0x2C, 0x28, 0x00, 0x23, 0x5F, 0x00, 0x24, 0x46, 0x1F, 0x89, 0x23, 0x00, 0x00,
    0x24, 0x00, 0x00, 0x2C, 0x00, 0x81, 0x51, 0x99, 0x2A, 0x1E, 0x1F, 0x89, 0x2A, 0x00, 0x81, 0x51,
    0x99, 0x2A, 0x46, 0x1F, 0x89, 0x2A, 0x00, 0x83, 0x41, 0x99, 0x24, 0x46, 0x00, 0x28, 0x3C, 0x00,
    0x23, 0x5F, 0x00, 0x2C, 0x28, 0x1F, 0x89, 0x28, 0x00, 0x00, 0x23, 0x00, 0x00, 0x2C, 0x00, 0x00,
    0x24, 0x00, 0x81, 0x51, 0x99, 0x2A, 0x1E, 0x1F, 0x89, 0x2A, 0x00, 0x81, 0x51, 0x99, 0x2A, 0x46,
    0x1F, 0x89, 0x2A, 0x00, 0x83, 0x41, 0x99, 0x23, 0x5F, 0x00, 0x39, 0x55, 0x00, 0x24, 0x46, 0x1F,
    0x89, 0x39, 0x00, 0x00, 0x24, 0x00, 0x00, 0x23, 0x00, 0x82, 0x21, 0x99, 0x23, 0x5F, 0x00, 0x39,
    0x55, 0x00, 0x24, 0x46, 0x1F, 0x89, 0x39, 0x00, 0x00, 0x24, 0x00, 0x00, 0x23, 0x00, 0x82, 0x21,
    0x99, 0x39, 0x55, 0x00, 0x23, 0x5F, 0x00, 0x24, 0x46, 0x1F, 0x89, 0x23, 0x00, 0x00, 0x24, 0x00,
    0x00, 0x39, 0x00, 0x82, 0x21, 0x99, 0x23, 0x5F, 0x00, 0x39, 0x55, 0x00, 0x24, 0x46, 0x1F, 0x89,
    0x39, 0x00, 0x00, 0x24, 0x00, 0x00, 0x23, 0x00, 0x82, 0x21, 0x99, 0x39, 0x55, 0x00, 0x23, 0x5F,
    0x00, 0x24, 0x46, 0x1F, 0x89, 0x23, 0x00, 0x00, 0x24, 0x00, 0x00, 0x39, 0x00, 0x82, 0x21, 0x99,
    0x39, 0x55, 0x00, 0x23, 0x5F, 0x00, 0x24, 0x46, 0x1F, 0x89, 0x23, 0x00, 0x00, 0x24, 0x00, 0x00,
    0x39, 0x00, 0x82, 0x21, 0x99, 0x24, 0x46, 0x00, 0x23, 0x5F, 0x00, 0x31, 0x5F, 0x00, 0x31, 0x50,
    0x00, 0x2C, 0x28, 0x1F, 0x89, 0x23, 0x00, 0x00, 0x31, 0x00, 0x00, 0x31, 0x00, 0x00, 0x2C, 0x00,
    0x00, 0x24, 0x00, 0x81, 0x51, 0x99, 0x2A, 0x1E, 0x1F, 0x89, 0x2A, 0x00, 0x81, 0x51, 0x99, 0x2A,
    0x46, 0x1F, 0x89, 0x2A, 0x00, 0x83, 0x41, 0x99, 0x24, 0x46, 0x00, 0x2C, 0x28, 0x00, 0x23, 0x5F,
    0x00, 0x28, 0x3C, 0x1F, 0x89, 0x2C, 0x00, 0x00, 0x23, 0x00, 0x00, 0x28, 0x00, 0x00, 0x24, 0x00,
    0x81, 0x51, 0x99, 0x2A, 0x1E, 0x1F, 0x89, 0x2A, 0x00, 0x81, 0x51, 0x99, 0x2A, 0x46, 0x1F, 0x89,
    0x2A, 0x00, 0x83, 0x41, 0x99, 0x2C, 0x28, 0x00, 0x23, 0x5F, 0x00, 0x24, 0x46, 0x1F, 0x89, 0x23,
    0x00, 0x00, 0x24, 0x00, 0x00, 0x2C, 0x00, 0x81, 0x51, 0x99, 0x2A, 0x1E, 0x1F, 0x89, 0x2A, 0x00,
    0x81, 0x51, 0x99, 0x2A, 0x46, 0x1F, 0x89, 0x2A, 0x00, 0x83, 0x41, 0x99, 0x24, 0x46, 0x00, 0x2C,
    0x28, 0x00, 0x28, 0x3C, 0x00, 0x23, 0x5F, 0x1F, 0x89, 0x2C, 0x00, 0x00, 0x28, 0x00, 0x00, 0x23,
    0x00, 0x00, 0x24, 0x00, 0x81, 0x51, 0x99, 0x24, 0x46, 0x00, 0x2A, 0x1E, 0x1F, 0x89, 0x2A, 0x00,
    0x00, 0x24, 0x00, 0x81, 0x51, 0x99, 0x24, 0x46, 0x00, 0x2A, 0x46, 0x1F, 0x89, 0x2A, 0x00, 0x00,
    0x24, 0x00, 0x81, 0x51, 0x99, 0x24, 0x46, 0x1F, 0x89, 0x24, 0x00, 0x81, 0x51, 0x99, 0x24, 0x46,
    0x00, 0x2C, 0x28, 0x00, 0x23, 0x5F, 0x1F, 0x89, 0x2C, 0x00, 0x00, 0x23, 0x00, 0x00, 0x24, 0x00,
    0x81, 0x51, 0x99, 0x2A, 0x1E, 0x1F, 0x89, 0x2A, 0x00, 0x81, 0x51, 0x99, 0x2A, 0x46, 0x1F, 0x89,
    0x2A, 0x00, 0x83, 0x41, 0x99, 0x24, 0x46, 0x00, 0x2C, 0x28, 0x00, 0x23, 0x5F, 0x00, 0x28, 0x3C,
    0x1F, 0x89, 0x2C, 0x00, 0x00, 0x23, 0x00, 0x00, 0x28, 0x00, 0x00, 0x24, 0x00, 0x81, 0x51, 0x99,
    0x2A, 0x1E, 0x1F, 0x89, 0x2A, 0x00, 0x81, 0x51, 0x99, 0x2A, 0x46, 0x1F, 0x89, 0x2A, 0x00, 0x83,
    0x41, 0x99, 0x2C, 0x28, 0x00, 0x23, 0x5F, 0x00, 0x24, 0x46, 0x1F, 0x89, 0x23, 0x00, 0x00, 0x24,
    0x00, 0x00, 0x2C, 0x00, 0x81, 0x51, 0x99, 0x2A, 0x1E, 0x1F, 0x89, 0x2A, 0x00, 0x81, 0x51, 0x99,
    0x2A, 0x46, 0x1F, 0x89, 0x2A, 0x00, 0x83, 0x41, 0x99, 0x24, 0x46, 0x00, 0x2C, 0x28, 0x00, 0x23,
    0x5F, 0x00, 0x28, 0x3C, 0x1F, 0x89, 0x2C, 0x00, 0x00, 0x23, 0x00, 0x00, 0x28, 0x00, 0x00, 0x24,
    0x00, 0x81, 0x51, 0x99, 0x2A, 0x1E, 0x1F, 0x89, 0x2A, 0x00, 0x81, 0x51, 0x99, 0x2A, 0x46, 0x00,
    0x23, 0x5F, 0x00, 0x24, 0x46, 0x1F, 0x89, 0x23, 0x00, 0x00, 0x24, 0x00, 0x00, 0x2A, 0x00, 0x83,
    0x41, 0x99, 0x2C, 0x28, 0x00, 0x23, 0x5F, 0x00, 0x24, 0x46, 0x1F, 0x89, 0x23, 0x00, 0x00, 0x24,
    0x00, 0x00, 0x2C, 0x00, 0x81, 0x51, 0x99, 0x2A, 0x1E, 0x1F, 0x89, 0x2A, 0x00, 0x81, 0x51, 0x99,
    0x2A, 0x46, 0x1F, 0x89, 0x2A, 0x00, 0x83, 0x41, 0x99, 0x24, 0x46, 0x00, 0x2C, 0x28, 0x00, 0x23,
    0x5F, 0x00, 0x28, 0x3C, 0x1F, 0x89, 0x2C, 0x00, 0x00, 0x23, 0x00, 0x00, 0x28, 0x00, 0x00, 0x24,
    0x00, 0x81, 0x51, 0x99, 0x2A, 0x1E, 0x1F, 0x89, 0x2A, 0x00, 0x81, 0x51, 0x99, 0x2A, 0x46, 0x1F,
    0x89, 0x2A, 0x00, 0x83, 0x41, 0x99, 0x2C, 0x28, 0x00, 0x23, 0x5F, 0x00, 0x24, 0x46, 0x1F, 0x89,
    0x23, 0x00, 0x00, 0x24, 0x00, 0x00, 0x2C, 0x00, 0x81, 0x51, 0x99, 0x2A, 0x1E, 0x1F, 0x89, 0x2A,
    0x00, 0x81, 0x51, 0x99, 0x2A, 0x46, 0x1F, 0x89, 0x2A, 0x00, 0x83, 0x41, 0x99, 0x24, 0x46, 0x00,
    0x2C, 0x28, 0x00, 0x28, 0x3C, 0x00, 0x23, 0x5F, 0x1F, 0x89, 0x2C, 0x00, 0x00, 0x28, 0x00, 0x00,
    0x23, 0x00, 0x00, 0x24, 0x00, 0x81, 0x51, 0x99, 0x24, 0x46, 0x00, 0x2A, 0x1E, 0x1F, 0x89, 0x2A,
    0x00, 0x00, 0x24, 0x00, 0x81, 0x51, 0x99, 0x24, 0x46, 0x00, 0x2A, 0x46, 0x1F, 0x89, 0x2A, 0x00,
    0x00, 0x24, 0x00, 0x81, 0x51, 0x99, 0x24, 0x46, 0x1F, 0x89, 0x24, 0x00, 0x81, 0x51, 0x99, 0x24,
    0x46, 0x00, 0x2C, 0x28, 0x00, 0x23, 0x5F, 0x1F, 0x89, 0x2C, 0x00, 0x00, 0x23, 0x00, 0x00, 0x24,
    0x00, 0x81, 0x51, 0x99, 0x2A, 0x1E, 0x1F, 0x89, 0x2A, 0x00, 0x81, 0x51, 0x99, 0x2A, 0x46, 0x1F,
    0x89, 0x2A, 0x00, 0x83, 0x41, 0x99, 0x24, 0x46, 0x00, 0x2C, 0x28, 0x00, 0x23, 0x5F, 0x00, 0x28,
    0x3C, 0x1F, 0x89, 0x2C, 0x00, 0x00, 0x23, 0x00, 0x00, 0x28, 0x00, 0x00, 0x24, 0x00, 0x81, 0x51,
    0x99, 0x2A, 0x1E, 0x1F, 0x89, 0x2A, 0x00, 0x81, 0x51, 0x99, 0x2A, 0x46, 0x1F, 0x89, 0x2A, 0x00,
    0x83, 0x41, 0x99, 0x2C, 0x28, 0x00, 0x23, 0x5F, 0x00, 0x24, 0x46, 0x1F, 0x89, 0x23, 0x00, 0x00,
    0x24, 0x00, 0x00, 0x2C, 0x00, 0x81, 0x51, 0x99, 0x2A, 0x1E, 0x1F, 0x89, 0x2A, 0x00, 0x81, 0x51,
    0x99, 0x2A, 0x46, 0x1F, 0x89, 0x2A, 0x00, 0x83, 0x41, 0x99, 0x24, 0x46, 0x00, 0x2C, 0x28, 0x00,
    0x23, 0x5F, 0x00, 0x28, 0x3C, 0x1F, 0x89, 0x2C, 0x00, 0x00, 0x23, 0x00, 0x00, 0x28, 0x00, 0x00,
    0x24, 0x00, 0x81, 0x51, 0x99, 0x2A, 0x1E, 0x1F, 0x89, 0x2A, 0x00, 0x81, 0x51, 0x99, 0x2A, 0x46,
    0x00, 0x23, 0x5F, 0x00, 0x24, 0x46, 0x1F, 0x89, 0x23, 0x00, 0x00, 0x24, 0x00, 0x00, 0x2A, 0x00,
    0x83, 0x41, 0x99, 0x2C, 0x28, 0x00, 0x24, 0x46, 0x00, 0x23, 0x5F, 0x00, 0x31, 0x50, 0x1F, 0x89,
    0x24, 0x00, 0x00, 0x23, 0x00, 0x00, 0x31, 0x00, 0x00, 0x2C, 0x00, 0x81, 0x51, 0x99, 0x2A, 0x1E,
    0x1F, 0x89, 0x2A, 0x00, 0x81, 0x51, 0x99, 0x2A, 0x46, 0x1F, 0x89, 0x2A, 0x00, 0x83, 0x41, 0x99,
    0x28, 0x3C, 0x00, 0x23, 0x5F, 0x00, 0x2C, 0x28, 0x00, 0x24, 0x46, 0x1F, 0x89, 0x23, 0x00, 0x00,
    0x2C, 0x00, 0x00, 0x24, 0x00, 0x00, 0x28, 0x00, 0x81, 0x51, 0x99, 0x2A, 0x1E, 0x1F, 0x89, 0x2A,
    0x00, 0x81, 0x51, 0x99, 0x2A, 0x46, 0x1F, 0x89, 0x2A, 0x00, 0x83, 0x41, 0x99, 0x23, 0x5F, 0x00,
    0x2C, 0x28, 0x00, 0x24, 0x46, 0x1F, 0x89, 0x2C, 0x00, 0x00, 0x24, 0x00, 0x00, 0x23, 0x00, 0x81,
    0x51, 0x99, 0x2A, 0x1E, 0x1F, 0x89, 0x2A, 0x00, 0x81, 0x51, 0x99, 0x2A, 0x46, 0x1F, 0x89, 0x2A,
    0x00, 0x83, 0x41, 0x99, 0x23, 0x5F, 0x00, 0x24, 0x46, 0x00, 0x28, 0x3C, 0x00, 0x2C, 0x28, 0x1F,
    0x89, 0x24, 0x00, 0x00, 0x28, 0x00, 0x00, 0x2C, 0x00, 0x00, 0x23, 0x00, 0x81, 0x51, 0x99, 0x24,
    0x46, 0x00, 0x2A, 0x1E, 0x1F, 0x89, 0x2A, 0x00, 0x00, 0x24, 0x00, 0x81, 0x51, 0x99, 0x2A, 0x46,
    0x00, 0x24, 0x46, 0x1F, 0x89, 0x24, 0x00, 0x00, 0x2A, 0x00, 0x81, 0x51, 0x99, 0x24, 0x46, 0x1F,
    0x89, 0x24, 0x00, 0x81, 0x51, 0x99, 0x23, 0x5F, 0x00, 0x24, 0x46, 0x00, 0x2C, 0x28, 0x1F, 0x89,
    0x24, 0x00, 0x00, 0x2C, 0x00, 0x00, 0x23, 0x00, 0x81, 0x51, 0x99, 0x2A, 0x1E, 0x1F, 0x89, 0x2A,
    0x00, 0x81, 0x51, 0x99, 0x2A, 0x46, 0x1F, 0x89, 0x2A, 0x00, 0x83, 0x41, 0x99, 0x28, 0x3C, 0x00,
    0x23, 0x5F, 0x00, 0x2C, 0x28, 0x00, 0x24, 0x46, 0x1F, 0x89, 0x23, 0x00, 0x00, 0x2C, 0x00, 0x00,
    0x24, 0x00, 0x00, 0x28, 0x00, 0x81, 0x51, 0x99, 0x2A, 0x1E, 0x1F, 0x89, 0x2A, 0x00, 0x81, 0x51,
    0x99, 0x2A, 0x46, 0x1F, 0x89, 0x2A, 0x00, 0x83, 0x41, 0x99, 0x23, 0x5F, 0x00, 0x2C, 0x28, 0x00,
    0x24, 0x46, 0x1F, 0x89, 0x2C, 0x00, 0x00, 0x24, 0x00, 0x00, 0x23, 0x00, 0x81, 0x51, 0x99, 0x2A,
    0x1E, 0x1F, 0x89, 0x2A, 0x00, 0x81, 0x51, 0x99, 0x2A, 0x46, 0x1F, 0x89, 0x2A, 0x00, 0x83, 0x41,
    0x99, 0x28, 0x3C, 0x00, 0x23, 0x5F, 0x00, 0x2C, 0x28, 0x00, 0x24, 0x46, 0x1F, 0x89, 0x23, 0x00,
    0x00, 0x2C, 0x00, 0x00, 0x24, 0x00, 0x00, 0x28, 0x00, 0x81, 0x51, 0x99, 0x2A, 0x1E, 0x1F, 0x89,
    0x2A, 0x00, 0x81, 0x51, 0x99, 0x23, 0x5F, 0x00, 0x2A, 0x46, 0x00, 0x24, 0x46, 0x1F, 0x89, 0x2A,
    0x00, 0x00, 0x24, 0x00, 0x00, 0x23, 0x00, 0x83, 0x41, 0x99, 0x23, 0x5F, 0x00, 0x2C, 0x28, 0x00,
    0x24, 0x46, 0x1F, 0x89, 0x2C, 0x00, 0x00, 0x24, 0x00, 0x00, 0x23, 0x00, 0x81, 0x51, 0x99, 0x2A,
    0x1E, 0x1F, 0x89, 0x2A, 0x00, 0x81, 0x51, 0x99, 0x2A, 0x46, 0x1F, 0x89, 0x2A, 0x00, 0x83, 0x41,
    0x99, 0x28, 0x3C, 0x00, 0x23, 0x5F, 0x00, 0x2C, 0x28, 0x00, 0x24, 0x46, 0x1F, 0x89, 0x23, 0x00,
    0x00, 0x2C, 0x00, 0x00, 0x24, 0x00, 0x00, 0x28, 0x00, 0x81, 0x51, 0x99, 0x2A, 0x1E, 0x1F, 0x89,
    0x2A, 0x00, 0x81, 0x51, 0x99, 0x2A, 0x46, 0x1F, 0x89, 0x2A, 0x00, 0x83, 0x41, 0x99, 0x23, 0x5F,
    0x00, 0x2C, 0x28, 0x00, 0x24, 0x46, 0x1F, 0x89, 0x2C, 0x00, 0x00, 0x24, 0x00, 0x00, 0x23, 0x00,
    0x81, 0x51, 0x99, 0x2A, 0x1E, 0x1F, 0x89, 0x2A, 0x00, 0x81, 0x51, 0x99, 0x2A, 0x46, 0x1F, 0x89,
    0x2A, 0x00, 0x83, 0x41, 0x99, 0x23, 0x5F, 0x00, 0x24, 0x46, 0x00, 0x28, 0x3C, 0x00, 0x2C, 0x28,
    0x1F, 0x89, 0x24, 0x00, 0x00, 0x28, 0x00, 0x00, 0x2C, 0x00, 0x00, 0x23, 0x00, 0x81, 0x51, 0x99,
    0x24, 0x46, 0x00, 0x2A, 0x1E, 0x1F, 0x89, 0x2A, 0x00, 0x00, 0x24, 0x00, 0x81, 0x51, 0x99, 0x2A,
    0x46, 0x00, 0x24, 0x46, 0x1F, 0x89, 0x24, 0x00, 0x00, 0x2A, 0x00, 0x81, 0x51, 0x99, 0x24, 0x46,
    0x1F, 0x89, 0x24, 0x00, 0x81, 0x51, 0x99, 0x23, 0x5F, 0x00, 0x24, 0x46, 0x00, 0x2C, 0x28, 0x1F,
    0x89, 0x24, 0x00, 0x00, 0x2C, 0x00, 0x00, 0x23, 0x00, 0x81, 0x51, 0x99, 0x2A, 0x1E, 0x1F, 0x89,
    0x2A, 0x00, 0x81, 0x51, 0x99, 0x2A, 0x46, 0x1F, 0x89, 0x2A, 0x00, 0x83, 0x41, 0x99, 0x28, 0x3C,
    0x00, 0x23, 0x5F, 0x00, 0x2C, 0x28, 0x00, 0x24, 0x46, 0x1F, 0x89, 0x23, 0x00, 0x00, 0x2C, 0x00,
    0x00, 0x24, 0x00, 0x00, 0x28, 0x00, 0x81, 0x51, 0x99, 0x2A, 0x1E, 0x1F, 0x89, 0x2A, 0x00, 0x81,
    0x51, 0x99, 0x2A, 0x46, 0x1F, 0x89, 0x2A, 0x00, 0x83, 0x41, 0x99, 0x23, 0x5F, 0x00, 0x39, 0x55,
    0x00, 0x24, 0x46, 0x1F, 0x89, 0x39, 0x00, 0x00, 0x24, 0x00, 0x00, 0x23, 0x00, 0x82, 0x21, 0x99,
    0x23, 0x5F, 0x00, 0x39, 0x55, 0x00, 0x24, 0x46, 0x1F, 0x89, 0x39, 0x00, 0x00, 0x24, 0x00, 0x00,
    0x23, 0x00, 0x82, 0x21, 0x99, 0x39, 0x55, 0x00, 0x23, 0x5F, 0x00, 0x24, 0x46, 0x1F, 0x89, 0x23,
    0x00, 0x00, 0x24, 0x00, 0x00, 0x39, 0x00, 0x82, 0x21, 0x99, 0x23, 0x5F, 0x00, 0x39, 0x55, 0x00,
    0x24, 0x46, 0x1F, 0x89, 0x39, 0x00, 0x00, 0x24, 0x00, 0x00, 0x23, 0x00, 0x82, 0x21, 0x99, 0x39,
    0x55, 0x00, 0x23, 0x5F, 0x00, 0x24, 0x46, 0x1F, 0x89, 0x23, 0x00, 0x00, 0x24, 0x00, 0x00, 0x39,
    0x00, 0x82, 0x21, 0x99, 0x39, 0x55, 0x00, 0x23, 0x5F, 0x00, 0x24, 0x46, 0x1F, 0x89, 0x23, 0x00,
    0x00, 0x24, 0x00, 0x00, 0x39, 0x00, 0x82, 0x21, 0x99, 0x31, 0x5F, 0x00, 0x24, 0x46, 0x00, 0x23,
    0x5F, 0x00, 0x2C, 0x28, 0x1F, 0x89, 0x24, 0x00, 0x00, 0x23, 0x00, 0x00, 0x2C, 0x00, 0x00, 0x31,
    0x00, 0x81, 0x51, 0x99, 0x2A, 0x1E, 0x1F, 0x89, 0x2A, 0x00, 0x81, 0x51, 0x99, 0x2A, 0x46, 0x1F,
    0x89, 0x2A, 0x00, 0x83, 0x41, 0x99, 0x24, 0x46, 0x00, 0x28, 0x3C, 0x00, 0x23, 0x5F, 0x00, 0x2C,
    0x28, 0x1F, 0x89, 0x28, 0x00, 0x00, 0x23, 0x00, 0x00, 0x2C, 0x00, 0x00, 0x24, 0x00, 0x81, 0x51,
    0x99, 0x2A, 0x1E, 0x1F, 0x89, 0x2A, 0x00, 0x81, 0x51, 0x99, 0x2A, 0x46, 0x1F, 0x89, 0x2A, 0x00,
    0x83, 0x41, 0x99, 0x2C, 0x28, 0x00, 0x24, 0x46, 0x00, 0x23, 0x5F, 0x1F, 0x89, 0x24, 0x00, 0x00,
    0x23, 0x00, 0x00, 0x2C, 0x00, 0x81, 0x51, 0x99, 0x2A, 0x1E, 0x1F, 0x89, 0x2A, 0x00, 0x81, 0x51,
    0x99, 0x2A, 0x46, 0x1F, 0x89, 0x2A, 0x00, 0x83, 0x41, 0x99, 0x28, 0x3C, 0x00, 0x23, 0x5F, 0x00,
    0x24, 0x46, 0x00, 0x2C, 0x28, 0x1F, 0x89, 0x23, 0x00, 0x00, 0x24, 0x00, 0x00, 0x2C, 0x00, 0x00,
    0x28, 0x00, 0x81, 0x51, 0x99, 0x24, 0x46, 0x00, 0x2A, 0x1E, 0x1F, 0x89, 0x2A, 0x00, 0x00, 0x24,
    0x00, 0x81, 0x51, 0x99, 0x24, 0x46, 0x00, 0x2A, 0x46, 0x1F, 0x89, 0x2A, 0x00, 0x00, 0x24, 0x00,
    0x81, 0x51, 0x99, 0x24, 0x46, 0x1F, 0x89, 0x24, 0x00, 0x81, 0x51, 0x99, 0x2C, 0x28, 0x00, 0x23,
    0x5F, 0x00, 0x24, 0x46, 0x1F, 0x89, 0x23, 0x00, 0x00, 0x24, 0x00, 0x00, 0x2C, 0x00, 0x81, 0x51,
    0x99, 0x2A, 0x1E, 0x1F, 0x89, 0x2A, 0x00, 0x81, 0x51, 0x99, 0x2A, 0x46, 0x1F, 0x89, 0x2A, 0x00,
    0x83, 0x41, 0x99, 0x24, 0x46, 0x00, 0x28, 0x3C, 0x00, 0x23, 0x5F, 0x00, 0x2C, 0x28, 0x1F, 0x89,
    0x28, 0x00, 0x00, 0x23, 0x00, 0x00, 0x2C, 0x00, 0x00, 0x24, 0x00, 0x81, 0x51, 0x99, 0x2A, 0x1E,
    0x1F, 0x89, 0x2A, 0x00, 0x81, 0x51, 0x99, 0x2A, 0x46, 0x1F, 0x89, 0x2A, 0x00, 0x83, 0x41, 0x99,
    0x2C, 0x28, 0x00, 0x24, 0x46, 0x00, 0x23, 0x5F, 0x1F, 0x89, 0x24, 0x00, 0x00, 0x23, 0x00, 0x00,
    0x2C, 0x00, 0x81, 0x51, 0x99, 0x2A, 0x1E, 0x1F, 0x89, 0x2A, 0x00, 0x81, 0x51, 0x99, 0x2A, 0x46,
    0x1F, 0x89, 0x2A, 0x00, 0x83, 0x41, 0x99, 0x24, 0x46, 0x00, 0x28, 0x3C, 0x00, 0x23, 0x5F, 0x00,
    0x2C, 0x28, 0x1F, 0x89, 0x28, 0x00, 0x00, 0x23, 0x00, 0x00, 0x2C, 0x00, 0x00, 0x24, 0x00, 0x81,
    0x51, 0x99, 0x2A, 0x1E, 0x1F, 0x89, 0x2A, 0x00, 0x81, 0x51, 0x99, 0x2A, 0x46, 0x00, 0x24, 0x46,
    0x00, 0x23, 0x5F, 0x1F, 0x89, 0x24, 0x00, 0x00, 0x23, 0x00, 0x00, 0x2A, 0x00, 0x83, 0x41, 0x99,
    0x2C, 0x28, 0x00, 0x24, 0x46, 0x00, 0x23, 0x5F, 0x1F, 0x89, 0x24, 0x00, 0x00, 0x23, 0x00, 0x00,
    0x2C, 0x00, 0x81, 0x51, 0x99, 0x2A, 0x1E, 0x1F, 0x89, 0x2A, 0x00, 0x81, 0x51, 0x99, 0x2A, 0x46,
    0x1F, 0x89, 0x2A, 0x00, 0x83, 0x41, 0x99, 0x24, 0x46, 0x00, 0x28, 0x3C, 0x00, 0x23, 0x5F, 0x00,
    0x2C, 0x28, 0x1F, 0x89, 0x28, 0x00, 0x00, 0x23, 0x00, 0x00, 0x2C, 0x00, 0x00, 0x24, 0x00, 0x81,
    0x51, 0x99, 0x2A, 0x1E, 0x1F, 0x89, 0x2A, 0x00, 0x81, 0x51, 0x99, 0x2A, 0x46, 0x1F, 0x89, 0x2A,
    0x00, 0x83, 0x41, 0x99, 0x2C, 0x28, 0x00, 0x24, 0x46, 0x00, 0x23, 0x5F, 0x1F, 0x89, 0x24, 0x00,
    0x00, 0x23, 0x00, 0x00, 0x2C, 0x00, 0x81, 0x51, 0x99, 0x2A, 0x1E, 0x1F, 0x89, 0x2A, 0x00, 0x81,
    0x51, 0x99, 0x2A, 0x46, 0x1F, 0x89, 0x2A, 0x00, 0x83, 0x41, 0x99, 0x28, 0x3C, 0x00, 0x23, 0x5F,
    0x00, 0x24, 0x46, 0x00, 0x2C, 0x28, 0x1F, 0x89, 0x23, 0x00, 0x00, 0x24, 0x00, 0x00, 0x2C, 0x00,
    0x00, 0x28, 0x00, 0x81, 0x51, 0x99, 0x24, 0x46, 0x00, 0x2A, 0x1E, 0x1F, 0x89, 0x2A, 0x00, 0x00,
    0x24, 0x00, 0x81, 0x51, 0x99, 0x24, 0x46, 0x00, 0x2A, 0x46, 0x1F, 0x89, 0x2A, 0x00, 0x00, 0x24,
    0x00, 0x81, 0x51, 0x99, 0x24, 0x46, 0x1F, 0x89, 0x24, 0x00, 0x81, 0x51, 0x99, 0x2C, 0x28, 0x00,
    0x23, 0x5F, 0x00, 0x24, 0x46, 0x1F, 0x89, 0x23, 0x00, 0x00, 0x24, 0x00, 0x00, 0x2C, 0x00, 0x81,
    0x51, 0x99, 0x2A, 0x1E, 0x1F, 0x89, 0x2A, 0x00, 0x81, 0x51, 0x99, 0x2A, 0x46, 0x1F, 0x89, 0x2A,
    0x00, 0x83, 0x41, 0x99, 0x24, 0x46, 0x00, 0x28, 0x3C, 0x00, 0x23, 0x5F, 0x00, 0x2C, 0x28, 0x1F,
    0x89, 0x28, 0x00, 0x00, 0x23, 0x00, 0x00, 0x2C, 0x00, 0x00, 0x24, 0x00, 0x81, 0x51, 0x99, 0x2A,
    0x1E, 0x1F, 0x89, 0x2A, 0x00, 0x81, 0x51, 0x99, 0x2A, 0x46, 0x1F, 0x89, 0x2A, 0x00, 0x83, 0x41,
    0x99, 0x2C, 0x28, 0x00, 0x24, 0x46, 0x00, 0x23, 0x5F, 0x1F, 0x89, 0x24, 0x00, 0x00, 0x23, 0x00,
    0x00, 0x2C, 0x00, 0x81, 0x51, 0x99, 0x2A, 0x1E, 0x1F, 0x89, 0x2A, 0x00, 0x81, 0x51, 0x99, 0x2A,
    0x46, 0x1F, 0x89, 0x2A, 0x00, 0x83, 0x41, 0x99, 0x24, 0x46, 0x00, 0x28, 0x3C, 0x00, 0x23, 0x5F,
    0x00, 0x2C, 0x28, 0x1F, 0x89, 0x28, 0x00, 0x00, 0x23, 0x00, 0x00, 0x2C, 0x00, 0x00, 0x24, 0x00,
    0x81, 0x51, 0x99, 0x2A, 0x1E, 0x1F, 0x89, 0x2A, 0x00, 0x81, 0x51, 0x99, 0x2A, 0x46, 0x00, 0x24,
    0x46, 0x00, 0x23, 0x5F, 0x1F, 0x89, 0x24, 0x00, 0x00, 0x23, 0x00, 0x00, 0x2A, 0x00, 0x83, 0x41,
    0x99, 0x23, 0x5F, 0x00, 0x31, 0x50, 0x00, 0x2C, 0x28, 0x00, 0x24, 0x46, 0x1F, 0x89, 0x31, 0x00,
    0x00, 0x2C, 0x00, 0x00, 0x24, 0x00, 0x00, 0x23, 0x00, 0x81, 0x51, 0x99, 0x2A, 0x1E, 0x1F, 0x89,
    0x2A, 0x00, 0x81, 0x51, 0x99, 0x2A, 0x46, 0x1F, 0x89, 0x2A, 0x00, 0x83, 0x41, 0x99, 0x24, 0x46,
    0x00, 0x28, 0x3C, 0x00, 0x23, 0x5F, 0x00, 0x2C, 0x28, 0x1F, 0x89, 0x28, 0x00, 0x00, 0x23, 0x00,
    0x00, 0x2C, 0x00, 0x00, 0x24, 0x00, 0x81, 0x51, 0x99, 0x2A, 0x1E, 0x1F, 0x89, 0x2A, 0x00, 0x81,
    0x51, 0x99, 0x2A, 0x46, 0x1F, 0x89, 0x2A, 0x00, 0x83, 0x41, 0x99, 0x2C, 0x28, 0x00, 0x24, 0x46,
    0x00, 0x23, 0x5F, 0x1F, 0x89, 0x24, 0x00, 0x00, 0x23, 0x00, 0x00, 0x2C, 0x00, 0x81, 0x51, 0x99,
    0x2A, 0x1E, 0x1F, 0x89, 0x2A, 0x00, 0x81, 0x51, 0x99, 0x2A, 0x46, 0x1F, 0x89, 0x2A, 0x00, 0x83,
    0x41, 0x99, 0x28, 0x3C, 0x00, 0x2C, 0x28, 0x00, 0x23, 0x5F, 0x00, 0x24, 0x46, 0x1F, 0x89, 0x2C,
    0x00, 0x00, 0x23, 0x00, 0x00, 0x24, 0x00, 0x00, 0x28, 0x00, 0x81, 0x51, 0x99, 0x24, 0x46, 0x00,
    0x2A, 0x1E, 0x1F, 0x89, 0x2A, 0x00, 0x00, 0x24, 0x00, 0x81, 0x51, 0x99, 0x2A, 0x46, 0x00, 0x24,
    0x46, 0x1F, 0x89, 0x24, 0x00, 0x00, 0x2A, 0x00, 0x81, 0x51, 0x99, 0x24, 0x46, 0x1F, 0x89, 0x24,
    0x00, 0x81, 0x51, 0x99, 0x24, 0x46, 0x00, 0x2C, 0x28, 0x00, 0x23, 0x5F, 0x1F, 0x89, 0x2C, 0x00,
    0x00, 0x23, 0x00, 0x00, 0x24, 0x00, 0x81, 0x51, 0x99, 0x2A, 0x1E, 0x1F, 0x89, 0x2A, 0x00, 0x81,
    0x51, 0x99, 0x2A, 0x46, 0x1F, 0x89, 0x2A, 0x00, 0x83, 0x41, 0x99, 0x24, 0x46, 0x00, 0x28, 0x3C,
    0x00, 0x23, 0x5F, 0x00, 0x2C, 0x28, 0x1F, 0x89, 0x28, 0x00, 0x00, 0x23, 0x00, 0x00, 0x2C, 0x00,
    0x00, 0x24, 0x00, 0x81, 0x51, 0x99, 0x2A, 0x1E, 0x1F, 0x89, 0x2A, 0x00, 0x81, 0x51, 0x99, 0x2A,
    0x46, 0x1F, 0x89, 0x2A, 0x00, 0x83, 0x41, 0x99, 0x2C, 0x28, 0x00, 0x24, 0x46, 0x00, 0x23, 0x5F,
    0x1F, 0x89, 0x24, 0x00, 0x00, 0x23, 0x00, 0x00, 0x2C, 0x00, 0x81, 0x51, 0x99, 0x2A, 0x1E, 0x1F,
    0x89, 0x2A, 0x00, 0x81, 0x51, 0x99, 0x2A, 0x46, 0x1F, 0x89, 0x2A, 0x00, 0x83, 0x41, 0x99, 0x24,
    0x46, 0x00, 0x28, 0x3C, 0x00, 0x23, 0x5F, 0x00, 0x2C, 0x28, 0x1F, 0x89, 0x28, 0x00, 0x00, 0x23,
    0x00, 0x00, 0x2C, 0x00, 0x00, 0x24, 0x00, 0x81, 0x51, 0x99, 0x2A, 0x1E, 0x1F, 0x89, 0x2A, 0x00,
    0x81, 0x51, 0x99, 0x2A, 0x46, 0x00, 0x24, 0x46, 0x00, 0x23, 0x5F, 0x1F, 0x89, 0x24, 0x00, 0x00,
    0x23, 0x00, 0x00, 0x2A, 0x00, 0x83, 0x41, 0x99, 0x2C, 0x28, 0x00, 0x24, 0x46, 0x00, 0x23, 0x5F,
    0x1F, 0x89, 0x24, 0x00, 0x00, 0x23, 0x00, 0x00, 0x2C, 0x00, 0x81, 0x51, 0x99, 0x2A, 0x1E, 0x1F,
    0x89, 0x2A, 0x00, 0x81, 0x51, 0x99, 0x2A, 0x46, 0x1F, 0x89, 0x2A, 0x00, 0x83, 0x41, 0x99, 0x24,
    0x46, 0x00, 0x28, 0x3C, 0x00, 0x23, 0x5F, 0x00, 0x2C, 0x28, 0x1F, 0x89, 0x28, 0x00, 0x00, 0x23,
    0x00, 0x00, 0x2C, 0x00, 0x00, 0x24, 0x00, 0x81, 0x51, 0x99, 0x2A, 0x1E, 0x1F, 0x89, 0x2A, 0x00,
    0x81, 0x51, 0x99, 0x2A, 0x46, 0x1F, 0x89, 0x2A, 0x00, 0x83, 0x41, 0x99, 0x2C, 0x28, 0x00, 0x24,
    0x46, 0x00, 0x23, 0x5F, 0x1F, 0x89, 0x24, 0x00, 0x00, 0x23, 0x00, 0x00, 0x2C, 0x00, 0x81, 0x51,
    0x99, 0x2A, 0x1E, 0x1F, 0x89, 0x2A, 0x00, 0x81, 0x51, 0x99, 0x2A, 0x46, 0x1F, 0x89, 0x2A, 0x00,
    0x83, 0x41, 0x99, 0x28, 0x3C, 0x00, 0x2C, 0x28, 0x00, 0x23, 0x5F, 0x00, 0x24, 0x46, 0x1F, 0x89,
    0x2C, 0x00, 0x00, 0x23, 0x00, 0x00, 0x24, 0x00, 0x00, 0x28, 0x00, 0x81, 0x51, 0x99, 0x24, 0x46,
    0x00, 0x2A, 0x1E, 0x1F, 0x89, 0x2A, 0x00, 0x00, 0x24, 0x00, 0x81, 0x51, 0x99, 0x2A, 0x46, 0x00,
    0x24, 0x46, 0x1F, 0x89, 0x24, 0x00, 0x00, 0x2A, 0x00, 0x81, 0x51, 0x99, 0x24, 0x46, 0x1F, 0x89,
    0x24, 0x00, 0x81, 0x51, 0x99, 0x31, 0x55, 0x00, 0x2C, 0x28, 0x00, 0x23, 0x5F, 0x00, 0x24, 0x46,
    0x1F, 0x89, 0x2C, 0x00, 0x00, 0x23, 0x00, 0x00, 0x24, 0x00, 0x00, 0x31, 0x00, 0x87, 0x21, 0x99,
    0x23, 0x5F, 0x00, 0x24, 0x46, 0x00, 0x31, 0x55, 0x00, 0x2C, 0x28, 0x1F, 0x89, 0x24, 0x00, 0x00,
    0x31, 0x00, 0x00, 0x2C, 0x00, 0x00, 0x23, 0x00, 0x87, 0x21, 0x99, 0x24, 0x46, 0x00, 0x31, 0x55,
    0x00, 0x23, 0x5F, 0x00, 0x2C, 0x28, 0x1F, 0x89, 0x31, 0x00, 0x00, 0x23, 0x00, 0x00, 0x2C, 0x00,
    0x00, 0x24, 0x00, 0x87, 0x21, 0x99, 0x31, 0x55, 0x00, 0x24, 0x46, 0x00, 0x23, 0x5F, 0x00, 0x2C,
    0x28, 0x1F, 0x89, 0x24, 0x00, 0x00, 0x23, 0x00, 0x00, 0x2C, 0x00, 0x00, 0x31, 0x00, 0x87, 0x21,
    0x99, 0x2C, 0x28, 0x00, 0x31, 0x5F, 0x00, 0x24, 0x46, 0x00, 0x23, 0x5F, 0x1F, 0x89, 0x31, 0x00,
    0x00, 0x24, 0x00, 0x00, 0x23, 0x00, 0x00, 0x2C, 0x00, 0x81, 0x51, 0x99, 0x2A, 0x1E, 0x1F, 0x89,
    0x2A, 0x00, 0x81, 0x51, 0x99, 0x2A, 0x46, 0x1F, 0x89, 0x2A, 0x00, 0x83, 0x41, 0x99, 0x2C, 0x28,
    0x00, 0x24, 0x46, 0x00, 0x28, 0x3C, 0x00, 0x23, 0x5F, 0x1F, 0x89, 0x24, 0x00, 0x00, 0x28, 0x00,
    0x00, 0x23, 0x00, 0x00, 0x2C, 0x00, 0x81, 0x51, 0x99, 0x2A, 0x1E, 0x1F, 0x89, 0x2A, 0x00, 0x81,
    0x51, 0x99, 0x2A, 0x46, 0x1F, 0x89, 0x2A, 0x00, 0x83, 0x41, 0x99, 0x2C, 0x28, 0x00, 0x24, 0x46,
    0x00, 0x23, 0x5F, 0x1F, 0x89, 0x24, 0x00, 0x00, 0x23, 0x00, 0x00, 0x2C, 0x00, 0x81, 0x51, 0x99,
    0x2A, 0x1E, 0x1F, 0x89, 0x2A, 0x00, 0x81, 0x51, 0x99, 0x2A, 0x46, 0x1F, 0x89, 0x2A, 0x00, 0x83,
    0x41, 0x99, 0x23, 0x5F, 0x00, 0x24, 0x46, 0x00, 0x28, 0x3C, 0x00, 0x2C, 0x28, 0x1F, 0x89, 0x24,
    0x00, 0x00, 0x28, 0x00, 0x00, 0x2C, 0x00, 0x00, 0x23, 0x00, 0x81, 0x51, 0x99, 0x24, 0x46, 0x00,
    0x2A, 0x1E, 0x1F, 0x89, 0x2A, 0x00, 0x00, 0x24, 0x00, 0x81, 0x51, 0x99, 0x24, 0x46, 0x00, 0x2A,
    0x46, 0x1F, 0x89, 0x2A, 0x00, 0x00, 0x24, 0x00, 0x81, 0x51, 0x99, 0x24, 0x46, 0x1F, 0x89, 0x24,
    0x00, 0x81, 0x51, 0x99, 0x23, 0x5F, 0x00, 0x24, 0x46, 0x00, 0x2C, 0x28, 0x1F, 0x89, 0x24, 0x00,
    0x00, 0x2C, 0x00, 0x00, 0x23, 0x00, 0x81, 0x51, 0x99, 0x2A, 0x1E, 0x1F, 0x89, 0x2A, 0x00, 0x81,
    0x51, 0x99, 0x2A, 0x46, 0x1F, 0x89, 0x2A, 0x00, 0x83, 0x41, 0x99, 0x2C, 0x28, 0x00, 0x24, 0x46,
    0x00, 0x28, 0x3C, 0x00, 0x23, 0x5F, 0x1F, 0x89, 0x24, 0x00, 0x00, 0x28, 0x00, 0x00, 0x23, 0x00,
    0x00, 0x2C, 0x00, 0x81, 0x51, 0x99, 0x2A, 0x1E, 0x1F, 0x89, 0x2A, 0x00, 0x81, 0x51, 0x99, 0x2A,
    0x46, 0x1F, 0x89, 0x2A, 0x00, 0x83, 0x41, 0x99, 0x2C, 0x28, 0x00, 0x24, 0x46, 0x00, 0x23, 0x5F,
    0x1F, 0x89, 0x24, 0x00, 0x00, 0x23, 0x00, 0x00, 0x2C, 0x00, 0x81, 0x51, 0x99, 0x2A, 0x1E, 0x1F,
    0x89, 0x2A, 0x00, 0x81, 0x51, 0x99, 0x2A, 0x46, 0x1F, 0x89, 0x2A, 0x00, 0x83, 0x41, 0x99, 0x2C,
    0x28, 0x00, 0x24, 0x46, 0x00, 0x28, 0x3C, 0x00, 0x23, 0x5F, 0x1F, 0x89, 0x24, 0x00, 0x00, 0x28,
    0x00, 0x00, 0x23, 0x00, 0x00, 0x2C, 0x00, 0x81, 0x51, 0x99, 0x2A, 0x1E, 0x1F, 0x89, 0x2A, 0x00,
    0x81, 0x51, 0x99, 0x2A, 0x46, 0x00, 0x24, 0x46, 0x00, 0x23, 0x5F, 0x1F, 0x89, 0x24, 0x00, 0x00,
    0x23, 0x00, 0x00, 0x2A, 0x00, 0x83, 0x41, 0x99, 0x2C, 0x28, 0x00, 0x24, 0x46, 0x00, 0x23, 0x5F,
    0x1F, 0x89, 0x24, 0x00, 0x00, 0x23, 0x00, 0x00, 0x2C, 0x00, 0x81, 0x51, 0x99, 0x2A, 0x1E, 0x1F,
    0x89, 0x2A, 0x00, 0x81, 0x51, 0x99, 0x2A, 0x46, 0x1F, 0x89, 0x2A, 0x00, 0x83, 0x41, 0x99, 0x2C,
    0x28, 0x00, 0x24, 0x46, 0x00, 0x28, 0x3C, 0x00, 0x23, 0x5F, 0x1F, 0x89, 0x24, 0x00, 0x00, 0x28,
    0x00, 0x00, 0x23, 0x00, 0x00, 0x2C, 0x00, 0x81, 0x51, 0x99, 0x2A, 0x1E, 0x1F, 0x89, 0x2A, 0x00,
    0x81, 0x51, 0x99, 0x2A, 0x46, 0x1F, 0x89, 0x2A, 0x00, 0x83, 0x41, 0x99, 0x2C, 0x28, 0x00, 0x24,
    0x46, 0x00, 0x23, 0x5F, 0x1F, 0x89, 0x24, 0x00, 0x00, 0x23, 0x00, 0x00, 0x2C, 0x00, 0x81, 0x51,
    0x99, 0x2A, 0x1E, 0x1F, 0x89, 0x2A, 0x00, 0x81, 0x51, 0x99, 0x2A, 0x46, 0x1F, 0x89, 0x2A, 0x00,
    0x83, 0x41, 0x99, 0x23, 0x5F, 0x00, 0x24, 0x46, 0x00, 0x28, 0x3C, 0x00, 0x2C, 0x28, 0x1F, 0x89,
    0x24, 0x00, 0x00, 0x28, 0x00, 0x00, 0x2C, 0x00, 0x00, 0x23, 0x00, 0x81, 0x51, 0x99, 0x24, 0x46,
    0x00, 0x2A, 0x1E, 0x1F, 0x89, 0x2A, 0x00, 0x00, 0x24, 0x00, 0x81, 0x51, 0x99, 0x24, 0x46, 0x00,
    0x2A, 0x46, 0x1F, 0x89, 0x2A, 0x00, 0x00, 0x24, 0x00, 0x81, 0x51, 0x99, 0x24, 0x46, 0x1F, 0x89,
    0x24, 0x00, 0x81, 0x51, 0x99, 0x23, 0x5F, 0x00, 0x24, 0x46, 0x00, 0x2C, 0x28, 0x1F, 0x89, 0x24,
    0x00, 0x00, 0x2C, 0x00, 0x00, 0x23, 0x00, 0x81, 0x51, 0x99, 0x2A, 0x1E, 0x1F, 0x89, 0x2A, 0x00,
    0x81, 0x51, 0x99, 0x2A, 0x46, 0x1F, 0x89, 0x2A, 0x00, 0x83, 0x41, 0x99, 0x2C, 0x28, 0x00, 0x24,
    0x46, 0x00, 0x28, 0x3C, 0x00, 0x23, 0x5F, 0x1F, 0x89, 0x24, 0x00, 0x00, 0x28, 0x00, 0x00, 0x23,
    0x00, 0x00, 0x2C, 0x00, 0x81, 0x51, 0x99, 0x2A, 0x1E, 0x1F, 0x89, 0x2A, 0x00, 0x81, 0x51, 0x99,
    0x2A, 0x46, 0x1F, 0x89, 0x2A, 0x00, 0x83, 0x41, 0x99, 0x2C, 0x28, 0x00, 0x24, 0x46, 0x00, 0x23,
    0x5F, 0x1F, 0x89, 0x24, 0x00, 0x00, 0x23, 0x00, 0x00, 0x2C, 0x00, 0x81, 0x51, 0x99, 0x2A, 0x1E,
    0x1F, 0x89, 0x2A, 0x00, 0x81, 0x51, 0x99, 0x23, 0x5F, 0x00, 0x2A, 0x46, 0x00, 0x24, 0x46, 0x1F,
    0x89, 0x2A, 0x00, 0x00, 0x24, 0x00, 0x00, 0x23, 0x00, 0x83, 0x41, 0x99, 0x2C, 0x28, 0x00, 0x24,
    0x46, 0x00, 0x28, 0x3C, 0x00, 0x23, 0x5F, 0x1F, 0x89, 0x24, 0x00, 0x00, 0x28, 0x00, 0x00, 0x23,
    0x00, 0x00, 0x2C, 0x00, 0x81, 0x51, 0x99, 0x2A, 0x1E, 0x1F, 0x89, 0x2A, 0x00, 0x81, 0x51, 0x99,
    0x2A, 0x46, 0x1F, 0x89, 0x2A, 0x00, 0x83, 0x41, 0x99, 0x23, 0x5F, 0x00, 0x2C, 0x28, 0x00, 0x24,
    0x46, 0x00, 0x39, 0x50, 0x1F, 0x89, 0x2C, 0x00, 0x00, 0x24, 0x00, 0x00, 0x39, 0x00, 0x00, 0x23,
    0x00, 0x81, 0x51, 0x99, 0x2A, 0x1E, 0x1F, 0x89, 0x2A, 0x00, 0x81, 0x51, 0x99, 0x2A, 0x46, 0x1F,
    0x89, 0x2A, 0x00, 0x83, 0x41, 0x99, 0x2C, 0x28, 0x00, 0x24, 0x46, 0x00, 0x23, 0x5F, 0x00, 0x28,
    0x3C, 0x1F, 0x89, 0x24, 0x00, 0x00, 0x23, 0x00, 0x00, 0x28, 0x00, 0x00, 0x2C, 0x00, 0x81, 0x51,
    0x99, 0x2A, 0x1E, 0x1F, 0x89, 0x2A, 0x00, 0x81, 0x51, 0x99, 0x2A, 0x46, 0x1F, 0x89, 0x2A, 0x00,
    0x83, 0x41, 0x99, 0x2C, 0x28, 0x00, 0x24, 0x46, 0x00, 0x23, 0x5F, 0x1F, 0x89, 0x24, 0x00, 0x00,
    0x23, 0x00, 0x00, 0x2C, 0x00, 0x81, 0x51, 0x99, 0x2A, 0x1E, 0x1F, 0x89, 0x2A, 0x00, 0x81, 0x51,
    0x99, 0x2A, 0x46, 0x1F, 0x89, 0x2A, 0x00, 0x83, 0x41, 0x99, 0x2C, 0x28, 0x00, 0x23, 0x5F, 0x00,
    0x24, 0x46, 0x00, 0x28, 0x3C, 0x1F, 0x89, 0x23, 0x00, 0x00, 0x24, 0x00, 0x00, 0x28, 0x00, 0x00,
    0x2C, 0x00, 0x81, 0x51, 0x99, 0x24, 0x46, 0x00, 0x2A, 0x1E, 0x1F, 0x89, 0x2A, 0x00, 0x00, 0x24,
    0x00, 0x81, 0x51, 0x99, 0x2A, 0x46, 0x00, 0x24, 0x46, 0x1F, 0x89, 0x24, 0x00, 0x00, 0x2A, 0x00,
    0x81, 0x51, 0x99, 0x24, 0x46, 0x1F, 0x89, 0x24, 0x00, 0x81, 0x51, 0x99, 0x2C, 0x28, 0x00, 0x23,
    0x5F, 0x00, 0x24, 0x46, 0x1F, 0x89, 0x23, 0x00, 0x00, 0x24, 0x00, 0x00, 0x2C, 0x00, 0x81, 0x51,
    0x99, 0x2A, 0x1E, 0x1F, 0x89, 0x2A, 0x00, 0x81, 0x51, 0x99, 0x2A, 0x46, 0x1F, 0x89, 0x2A, 0x00,
    0x83, 0x41, 0x99, 0x2C, 0x28, 0x00, 0x24, 0x46, 0x00, 0x23, 0x5F, 0x00, 0x28, 0x3C, 0x1F, 0x89,
    0x24, 0x00, 0x00, 0x23, 0x00, 0x00, 0x28, 0x00, 0x00, 0x2C, 0x00, 0x81, 0x51, 0x99, 0x2A, 0x1E,
    0x1F, 0x89, 0x2A, 0x00, 0x81, 0x51, 0x99, 0x2A, 0x46, 0x1F, 0x89, 0x2A, 0x00, 0x83, 0x41, 0x99,
    0x2C, 0x28, 0x00, 0x24, 0x46, 0x00, 0x23, 0x5F, 0x1F, 0x89, 0x24, 0x00, 0x00, 0x23, 0x00, 0x00,
    0x2C, 0x00, 0x81, 0x51, 0x99, 0x2A, 0x1E, 0x1F, 0x89, 0x2A, 0x00, 0x81, 0x51, 0x99, 0x2A, 0x46,
    0x1F, 0x89, 0x2A, 0x00, 0x83, 0x41, 0x99, 0x2C, 0x28, 0x00, 0x24, 0x46, 0x00, 0x23, 0x5F, 0x00,
    0x28, 0x3C, 0x1F, 0x89, 0x24, 0x00, 0x00, 0x23, 0x00, 0x00, 0x28, 0x00, 0x00, 0x2C, 0x00, 0x81,
    0x51, 0x99, 0x2A, 0x1E, 0x1F, 0x89, 0x2A, 0x00, 0x81, 0x51, 0x99, 0x2A, 0x46, 0x00, 0x24, 0x46,
    0x00, 0x23, 0x5F, 0x1F, 0x89, 0x24, 0x00, 0x00, 0x23, 0x00, 0x00, 0x2A, 0x00, 0x83, 0x41, 0x99,
    0x2C, 0x28, 0x00, 0x24, 0x46, 0x00, 0x23, 0x5F, 0x1F, 0x89, 0x24, 0x00, 0x00, 0x23, 0x00, 0x00,
    0x2C, 0x00, 0x81, 0x51, 0x99, 0x2A, 0x1E, 0x1F, 0x89, 0x2A, 0x00, 0x81, 0x51, 0x99, 0x2A, 0x46,
    0x1F, 0x89, 0x2A, 0x00, 0x83, 0x41, 0x99, 0x2C, 0x28, 0x00, 0x24, 0x46, 0x00, 0x23, 0x5F, 0x00,
    0x28, 0x3C, 0x1F, 0x89, 0x24, 0x00, 0x00, 0x23, 0x00, 0x00, 0x28, 0x00, 0x00, 0x2C, 0x00, 0x81,
    0x51, 0x99, 0x2A, 0x1E, 0x1F, 0x89, 0x2A, 0x00, 0x81, 0x51, 0x99, 0x2A, 0x46, 0x1F, 0x89, 0x2A,
    0x00, 0x83, 0x41, 0x99, 0x2C, 0x28, 0x00, 0x24, 0x46, 0x00, 0x23, 0x5F, 0x1F, 0x89, 0x24, 0x00,
    0x00, 0x23, 0x00, 0x00, 0x2C, 0x00, 0x81, 0x51, 0x99, 0x2A, 0x1E, 0x1F, 0x89, 0x2A, 0x00, 0x81,
    0x51, 0x99, 0x2A, 0x46, 0x1F, 0x89, 0x2A, 0x00, 0x83, 0x41, 0x99, 0x2C, 0x28, 0x00, 0x23, 0x5F,
    0x00, 0x24, 0x46, 0x00, 0x28, 0x3C, 0x1F, 0x89, 0x23, 0x00, 0x00, 0x24, 0x00, 0x00, 0x28, 0x00,
    0x00, 0x2C, 0x00, 0x81, 0x51, 0x99, 0x24, 0x46, 0x00, 0x2A, 0x1E, 0x1F, 0x89, 0x2A, 0x00, 0x00,
    0x24, 0x00, 0x81, 0x51, 0x99, 0x2A, 0x46, 0x00, 0x24, 0x46, 0x1F, 0x89, 0x24, 0x00, 0x00, 0x2A,
    0x00, 0x81, 0x51, 0x99, 0x24, 0x46, 0x1F, 0x89, 0x24, 0x00, 0x81, 0x51, 0x99, 0x23, 0x5F, 0x00,
    0x2C, 0x28, 0x00, 0x24, 0x46, 0x1F, 0x89, 0x2C, 0x00, 0x00, 0x24, 0x00, 0x00, 0x23, 0x00, 0x81,
    0x51, 0x99, 0x2A, 0x1E, 0x1F, 0x89, 0x2A, 0x00, 0x81, 0x51, 0x99, 0x2A, 0x46, 0x1F, 0x89, 0x2A,
    0x00, 0x83, 0x41, 0x99, 0x2C, 0x28, 0x00, 0x28, 0x3C, 0x00, 0x23, 0x5F, 0x00, 0x24, 0x46, 0x1F,
    0x89, 0x28, 0x00, 0x00, 0x23, 0x00, 0x00, 0x24, 0x00, 0x00, 0x2C, 0x00, 0x81, 0x51, 0x99, 0x2A,
    0x1E, 0x1F, 0x89, 0x2A, 0x00, 0x81, 0x51, 0x99, 0x2A, 0x46, 0x1F, 0x89, 0x2A, 0x00, 0x83, 0x41,
    0x99, 0x23, 0x5F, 0x00, 0x24, 0x46, 0x1F, 0x89, 0x24, 0x00, 0x00, 0x23, 0x00, 0x82, 0x21, 0x99,
    0x23, 0x5F, 0x00, 0x24, 0x46, 0x1F, 0x89, 0x24, 0x00, 0x00, 0x23, 0x00, 0x82, 0x21, 0x99, 0x23,
    0x5F, 0x00, 0x24, 0x46, 0x1F, 0x89, 0x24, 0x00, 0x00, 0x23, 0x00, 0x82, 0x21, 0x99, 0x23, 0x5F,
    0x00, 0x24, 0x46, 0x1F, 0x89, 0x24, 0x00, 0x00, 0x23, 0x00, 0x82, 0x21, 0x99, 0x23, 0x5F, 0x00,
    0x24, 0x46, 0x1F, 0x89, 0x24, 0x00, 0x00, 0x23, 0x00, 0x82, 0x21, 0x99, 0x23, 0x5F, 0x00, 0x24,
    0x46, 0x1F, 0x89, 0x24, 0x00, 0x00, 0x23, 0x00, 0x82, 0x21, 0x99, 0x24, 0x46, 0x00, 0x23, 0x5F,
    0x00, 0x2C, 0x28, 0x00, 0x31, 0x5F, 0x1F, 0x89, 0x23, 0x00, 0x00, 0x2C, 0x00, 0x00, 0x31, 0x00,
    0x00, 0x24, 0x00, 0x81, 0x51, 0x99, 0x2A, 0x1E, 0x1F, 0x89, 0x2A, 0x00, 0x81, 0x51, 0x99, 0x2A,
    0x46, 0x1F, 0x89, 0x2A, 0x00, 0x83, 0x41, 0x99, 0x2C, 0x28, 0x00, 0x24, 0x46, 0x00, 0x23, 0x5F,
    0x00, 0x28, 0x3C, 0x00, 0x31, 0x50, 0x1F, 0x89, 0x24, 0x00, 0x00, 0x23, 0x00, 0x00, 0x28, 0x00,
    0x00, 0x31, 0x00, 0x00, 0x2C, 0x00, 0x81, 0x51, 0x99, 0x2A, 0x1E, 0x1F, 0x89, 0x2A, 0x00, 0x81,
    0x51, 0x99, 0x2A, 0x46, 0x1F, 0x89, 0x2A, 0x00, 0x83, 0x41, 0x99, 0x23, 0x5F, 0x00, 0x24, 0x46,
    0x00, 0x2C, 0x28, 0x00, 0x31, 0x50, 0x1F, 0x89, 0x24, 0x00, 0x00, 0x2C, 0x00, 0x00, 0x31, 0x00,
    0x00, 0x23, 0x00, 0x81, 0x51, 0x99, 0x2A, 0x1E, 0x1F, 0x89, 0x2A, 0x00, 0x81, 0x51, 0x99, 0x2A,
    0x46, 0x1F, 0x89, 0x2A, 0x00, 0x83, 0x41, 0x99, 0x2C, 0x28, 0x00, 0x24, 0x46, 0x00, 0x31, 0x50,
    0x00, 0x28, 0x3C, 0x00, 0x23, 0x5F, 0x1F, 0x89, 0x24, 0x00, 0x00, 0x31, 0x00, 0x00, 0x28, 0x00,
    0x00, 0x23, 0x00, 0x00, 0x2C, 0x00, 0x81, 0x51, 0x99, 0x24, 0x46, 0x00, 0x2A, 0x1E, 0x1F, 0x89,
    0x2A, 0x00, 0x00, 0x24, 0x00, 0x81, 0x51, 0x99, 0x2A, 0x46, 0x00, 0x24, 0x46, 0x1F, 0x89, 0x24,
    0x00, 0x00, 0x2A, 0x00, 0x81, 0x51, 0x99, 0x24, 0x46, 0x1F, 0x89, 0x24, 0x00, 0x81, 0x51, 0x99,
    0x23, 0x5F, 0x00, 0x31, 0x50, 0x00, 0x2C, 0x28, 0x00, 0x24, 0x46, 0x1F, 0x89, 0x31, 0x00, 0x00,
    0x2C, 0x00, 0x00, 0x24, 0x00, 0x00, 0x23, 0x00, 0x81, 0x51, 0x99, 0x2A, 0x1E, 0x1F, 0x89, 0x2A,
    0x00, 0x81, 0x51, 0x99, 0x2A, 0x46, 0x1F, 0x89, 0x2A, 0x00, 0x83, 0x41, 0x99, 0x2C, 0x28, 0x00,
    0x23, 0x5F, 0x00, 0x28, 0x3C, 0x00, 0x24, 0x46, 0x00, 0x31, 0x50, 0x1F, 0x89, 0x23, 0x00, 0x00,
    0x28, 0x00, 0x00, 0x24, 0x00, 0x00, 0x31, 0x00, 0x00, 0x2C, 0x00, 0x81, 0x51, 0x99, 0x2A, 0x1E,
    0x1F, 0x89, 0x2A, 0x00, 0x81, 0x51, 0x99, 0x2A, 0x46, 0x1F, 0x89, 0x2A, 0x00, 0x83, 0x41, 0x99,
    0x31, 0x50, 0x00, 0x23, 0x5F, 0x00, 0x2C, 0x28, 0x00, 0x24, 0x46, 0x1F, 0x89, 0x23, 0x00, 0x00,
    0x2C, 0x00, 0x00, 0x24, 0x00, 0x00, 0x31, 0x00, 0x81, 0x51, 0x99, 0x2A, 0x1E, 0x1F, 0x89, 0x2A,
    0x00, 0x81, 0x51, 0x99, 0x2A, 0x46, 0x1F, 0x89, 0x2A, 0x00, 0x83, 0x41, 0x99, 0x2C, 0x28, 0x00,
    0x28, 0x3C, 0x00, 0x31, 0x50, 0x00, 0x24, 0x46, 0x00, 0x23, 0x5F, 0x1F, 0x89, 0x28, 0x00, 0x00,
    0x31, 0x00, 0x00, 0x24, 0x00, 0x00, 0x23, 0x00, 0x00, 0x2C, 0x00, 0x81, 0x51, 0x99, 0x2A, 0x1E,
    0x1F, 0x89, 0x2A, 0x00, 0x81, 0x51, 0x99, 0x2A, 0x46, 0x00, 0x24, 0x46, 0x00, 0x23, 0x5F, 0x1F,
    0x89, 0x24, 0x00, 0x00, 0x23, 0x00, 0x00, 0x2A, 0x00, 0x83, 0x41, 0x99, 0x23, 0x5F, 0x00, 0x24,
    0x46, 0x00, 0x2C, 0x28, 0x00, 0x31, 0x50, 0x1F, 0x89, 0x24, 0x00, 0x00, 0x2C, 0x00, 0x00, 0x31,
    0x00, 0x00, 0x23, 0x00, 0x81, 0x51, 0x99, 0x2A, 0x1E, 0x1F, 0x89, 0x2A, 0x00, 0x81, 0x51, 0x99,
    0x2A, 0x46, 0x1F, 0x89, 0x2A, 0x00, 0x83, 0x41, 0x99, 0x2C, 0x28, 0x00, 0x28, 0x3C, 0x00, 0x24,
    0x46, 0x00, 0x31, 0x50, 0x00, 0x23, 0x5F, 0x1F, 0x89, 0x28, 0x00, 0x00, 0x24, 0x00, 0x00, 0x31,
    0x00, 0x00, 0x23, 0x00, 0x00, 0x2C, 0x00, 0x81, 0x51, 0x99, 0x2A, 0x1E, 0x1F, 0x89, 0x2A, 0x00,
    0x81, 0x51, 0x99, 0x2A, 0x46, 0x1F, 0x89, 0x2A, 0x00, 0x83, 0x41, 0x99, 0x23, 0x5F, 0x00, 0x24,
    0x46, 0x00, 0x2C, 0x28, 0x00, 0x31, 0x50, 0x1F, 0x89, 0x24, 0x00, 0x00, 0x2C, 0x00, 0x00, 0x31,
    0x00, 0x00, 0x23, 0x00, 0x81, 0x51, 0x99, 0x2A, 0x1E, 0x1F, 0x89, 0x2A, 0x00, 0x81, 0x51, 0x99,
    0x2A, 0x46, 0x1F, 0x89, 0x2A, 0x00, 0x83, 0x41, 0x99, 0x2C, 0x28, 0x00, 0x28, 0x3C, 0x00, 0x23,
    0x5F, 0x00, 0x31, 0x50, 0x00, 0x24, 0x46, 0x1F, 0x89, 0x28, 0x00, 0x00, 0x23, 0x00, 0x00, 0x31,
    0x00, 0x00, 0x24, 0x00, 0x00, 0x2C, 0x00, 0x81, 0x51, 0x99, 0x24, 0x46, 0x00, 0x2A, 0x1E, 0x1F,
    0x89, 0x2A, 0x00, 0x00, 0x24, 0x00, 0x81, 0x51, 0x99, 0x2A, 0x46, 0x00, 0x24, 0x46, 0x1F, 0x89,
    0x24, 0x00, 0x00, 0x2A, 0x00, 0x81, 0x51, 0x99, 0x24, 0x46, 0x1F, 0x89, 0x24, 0x00, 0x81, 0x51,
    0x99, 0x24, 0x46, 0x00, 0x23, 0x5F, 0x00, 0x2C, 0x28, 0x00, 0x31, 0x50, 0x1F, 0x89, 0x23, 0x00,
    0x00, 0x2C, 0x00, 0x00, 0x31, 0x00, 0x00, 0x24, 0x00, 0x81, 0x51, 0x99, 0x2A, 0x1E, 0x1F, 0x89,
    0x2A, 0x00, 0x81, 0x51, 0x99, 0x2A, 0x46, 0x1F, 0x89, 0x2A, 0x00, 0x83, 0x41, 0x99, 0x2C, 0x28,
    0x00, 0x28, 0x3C, 0x00, 0x24, 0x46, 0x00, 0x31, 0x50, 0x00, 0x23, 0x5F, 0x1F, 0x89, 0x28, 0x00,
    0x00, 0x24, 0x00, 0x00, 0x31, 0x00, 0x00, 0x23, 0x00, 0x00, 0x2C, 0x00, 0x81, 0x51, 0x99, 0x2A,
    0x1E, 0x1F, 0x89, 0x2A, 0x00, 0x81, 0x51, 0x99, 0x2A, 0x46, 0x1F, 0x89, 0x2A, 0x00, 0x83, 0x41,
    0x99, 0x23, 0x5F, 0x00, 0x24, 0x46, 0x00, 0x2C, 0x28, 0x00, 0x31, 0x50, 0x1F, 0x89, 0x24, 0x00,
    0x00, 0x2C, 0x00, 0x00, 0x31, 0x00, 0x00, 0x23, 0x00, 0x81, 0x51, 0x99, 0x2A, 0x1E, 0x1F, 0x89,
    0x2A, 0x00, 0x81, 0x51, 0x99, 0x2A, 0x46, 0x00, 0x23, 0x5F, 0x00, 0x24, 0x46, 0x1F, 0x89, 0x23,
    0x00, 0x00, 0x24, 0x00, 0x00, 0x2A, 0x00, 0x83, 0x41, 0x99, 0x2C, 0x28, 0x00, 0x28, 0x3C, 0x00,
    0x24, 0x46, 0x00, 0x31, 0x50, 0x00, 0x23, 0x5F, 0x1F, 0x89, 0x28, 0x00, 0x00, 0x24, 0x00, 0x00,
    0x31, 0x00, 0x00, 0x23, 0x00, 0x00, 0x2C, 0x00, 0x81, 0x51, 0x99, 0x2A, 0x1E, 0x1F, 0x89, 0x2A,
    0x00, 0x81, 0x51, 0x99, 0x2A, 0x46, 0x1F, 0x89, 0x2A, 0x00, 0x83, 0x41, 0x99, 0x31, 0x5A, 0x00,
    0x24, 0x46, 0x00, 0x2C, 0x28, 0x00, 0x23, 0x5F, 0x1F, 0x89, 0x24, 0x00, 0x00, 0x2C, 0x00, 0x00,
    0x23, 0x00, 0x00, 0x31, 0x00, 0x81, 0x51, 0x99, 0x2A, 0x1E, 0x1F, 0x89, 0x2A, 0x00, 0x81, 0x51,
    0x99, 0x2A, 0x46, 0x1F, 0x89, 0x2A, 0x00, 0x83, 0x41, 0x99, 0x2C, 0x28, 0x00, 0x24, 0x46, 0x00,
    0x28, 0x3C, 0x00, 0x23, 0x5F, 0x00, 0x31, 0x50, 0x1F, 0x89, 0x24, 0x00, 0x00, 0x28, 0x00, 0x00,
    0x23, 0x00, 0x00, 0x31, 0x00, 0x00, 0x2C, 0x00, 0x81, 0x51, 0x99, 0x2A, 0x1E, 0x1F, 0x89, 0x2A,
    0x00, 0x81, 0x51, 0x99, 0x2A, 0x46, 0x1F, 0x89, 0x2A, 0x00, 0x83, 0x41, 0x99, 0x31, 0x50, 0x00,
    0x24, 0x46, 0x00, 0x2C, 0x28, 0x00, 0x23, 0x5F, 0x1F, 0x89, 0x24, 0x00, 0x00, 0x2C, 0x00, 0x00,
    0x23, 0x00, 0x00, 0x31, 0x00, 0x81, 0x51, 0x99, 0x2A, 0x1E, 0x1F, 0x89, 0x2A, 0x00, 0x81, 0x51,
    0x99, 0x2A, 0x46, 0x1F, 0x89, 0x2A, 0x00, 0x83, 0x41, 0x99, 0x2C, 0x28, 0x00, 0x24, 0x46, 0x00,
    0x28, 0x3C, 0x00, 0x23, 0x5F, 0x00, 0x31, 0x50, 0x1F, 0x89, 0x24, 0x00, 0x00, 0x28, 0x00, 0x00,
    0x23, 0x00, 0x00, 0x31, 0x00, 0x00, 0x2C, 0x00, 0x81, 0x51, 0x99, 0x24, 0x46, 0x00, 0x2A, 0x1E,
    0x1F, 0x89, 0x2A, 0x00, 0x00, 0x24, 0x00, 0x81, 0x51, 0x99, 0x2A, 0x46, 0x00, 0x24, 0x46, 0x1F,
    0x89, 0x24, 0x00, 0x00, 0x2A, 0x00, 0x81, 0x51, 0x99, 0x24, 0x46, 0x1F, 0x89, 0x24, 0x00, 0x81,
    0x51, 0x99, 0x31, 0x50, 0x00, 0x24, 0x46, 0x00, 0x2C, 0x28, 0x00, 0x23, 0x5F, 0x1F, 0x89, 0x24,
    0x00, 0x00, 0x2C, 0x00, 0x00, 0x23, 0x00, 0x00, 0x31, 0x00, 0x81, 0x51, 0x99, 0x2A, 0x1E, 0x1F,
    0x89, 0x2A, 0x00, 0x81, 0x51, 0x99, 0x2A, 0x46, 0x1F, 0x89, 0x2A, 0x00, 0x83, 0x41, 0x99, 0x2C,
    0x28, 0x00, 0x24, 0x46, 0x00, 0x28, 0x3C, 0x00, 0x23, 0x5F, 0x00, 0x31, 0x50, 0x1F, 0x89, 0x24,
    0x00, 0x00, 0x28, 0x00, 0x00, 0x23, 0x00, 0x00, 0x31, 0x00, 0x00, 0x2C, 0x00, 0x81, 0x51, 0x99,
    0x2A, 0x1E, 0x1F, 0x89, 0x2A, 0x00, 0x81, 0x51, 0x99, 0x2A, 0x46, 0x1F, 0x89, 0x2A, 0x00, 0x83,
    0x41, 0x99, 0x31, 0x50, 0x00, 0x24, 0x46, 0x00, 0x2C, 0x28, 0x00, 0x23, 0x5F, 0x1F, 0x89, 0x24,
    0x00, 0x00, 0x2C, 0x00, 0x00, 0x23, 0x00, 0x00, 0x31, 0x00, 0x81, 0x51, 0x99, 0x2A, 0x1E, 0x1F,
    0x89, 0x2A, 0x00, 0x81, 0x51, 0x99, 0x2A, 0x46, 0x1F, 0x89, 0x2A, 0x00, 0x83, 0x41, 0x99, 0x2C,
    0x28, 0x00, 0x24, 0x46, 0x00, 0x28, 0x3C, 0x00, 0x23, 0x5F, 0x00, 0x31, 0x50, 0x1F, 0x89, 0x24,
    0x00, 0x00, 0x28, 0x00, 0x00, 0x23, 0x00, 0x00, 0x31, 0x00, 0x00, 0x2C, 0x00, 0x81, 0x51, 0x99,
    0x2A, 0x1E, 0x1F, 0x89, 0x2A, 0x00, 0x81, 0x51, 0x99, 0x2A, 0x46, 0x00, 0x24, 0x46, 0x00, 0x23,
    0x5F, 0x1F, 0x89, 0x24, 0x00, 0x00, 0x23, 0x00, 0x00, 0x2A, 0x00, 0x83, 0x41, 0x99, 0x24, 0x46,
    0x00, 0x31, 0x50, 0x00, 0x2C, 0x28, 0x00, 0x23, 0x5F, 0x1F, 0x89, 0x31, 0x00, 0x00, 0x2C, 0x00,
    0x00, 0x23, 0x00, 0x00, 0x24, 0x00, 0x81, 0x51, 0x99, 0x2A, 0x1E, 0x1F, 0x89, 0x2A, 0x00, 0x81,
    0x51, 0x99, 0x2A, 0x46, 0x1F, 0x89, 0x2A, 0x00, 0x83, 0x41, 0x99, 0x2C, 0x28, 0x00, 0x31, 0x50,
    0x00, 0x28, 0x3C, 0x00, 0x23, 0x5F, 0x00, 0x24, 0x46, 0x1F, 0x89, 0x31, 0x00, 0x00, 0x28, 0x00,
    0x00, 0x23, 0x00, 0x00, 0x24, 0x00, 0x00, 0x2C, 0x00, 0x81, 0x51, 0x99, 0x2A, 0x1E, 0x1F, 0x89,
    0x2A, 0x00, 0x81, 0x51, 0x99, 0x2A, 0x46, 0x1F, 0x89, 0x2A, 0x00, 0x83, 0x41, 0x99, 0x24, 0x46,
    0x00, 0x31, 0x50, 0x00, 0x2C, 0x28, 0x00, 0x23, 0x5F, 0x1F, 0x89, 0x31, 0x00, 0x00, 0x2C, 0x00,
    0x00, 0x23, 0x00, 0x00, 0x24, 0x00, 0x81, 0x51, 0x99, 0x2A, 0x1E, 0x1F, 0x89, 0x2A, 0x00, 0x81,
    0x51, 0x99, 0x2A, 0x46, 0x1F, 0x89, 0x2A, 0x00, 0x83, 0x41, 0x99, 0x2C, 0x28, 0x00, 0x31, 0x50,
    0x00, 0x28, 0x3C, 0x00, 0x23, 0x5F, 0x00, 0x24, 0x46, 0x1F, 0x89, 0x31, 0x00, 0x00, 0x28, 0x00,
    0x00, 0x23, 0x00, 0x00, 0x24, 0x00, 0x00, 0x2C, 0x00, 0x81, 0x51, 0x99, 0x24, 0x46, 0x00, 0x2A,
    0x1E, 0x1F, 0x89, 0x2A, 0x00, 0x00, 0x24, 0x00, 0x81, 0x51, 0x99, 0x2A, 0x46, 0x00, 0x24, 0x46,
    0x1F, 0x89, 0x24, 0x00, 0x00, 0x2A, 0x00, 0x81, 0x51, 0x99, 0x24, 0x46, 0x1F, 0x89, 0x24, 0x00,
    0x81, 0x51, 0x99, 0x24, 0x46, 0x00, 0x31, 0x50, 0x00, 0x2C, 0x28, 0x00, 0x23, 0x5F, 0x1F, 0x89,
    0x31, 0x00, 0x00, 0x2C, 0x00, 0x00, 0x23, 0x00, 0x00, 0x24, 0x00, 0x81, 0x51, 0x99, 0x2A, 0x1E,
    0x1F, 0x89, 0x2A, 0x00, 0x81, 0x51, 0x99, 0x2A, 0x46, 0x1F, 0x89, 0x2A, 0x00, 0x83, 0x41, 0x99,
    0x2C, 0x28, 0x00, 0x31, 0x50, 0x00, 0x28, 0x3C, 0x00, 0x23, 0x5F, 0x00, 0x24, 0x46, 0x1F, 0x89,
    0x31, 0x00, 0x00, 0x28, 0x00, 0x00, 0x23, 0x00, 0x00, 0x24, 0x00, 0x00, 0x2C, 0x00, 0x81, 0x51,
    0x99, 0x2A, 0x1E, 0x1F, 0x89, 0x2A, 0x00, 0x81, 0x51, 0x99, 0x2A, 0x46, 0x1F, 0x89, 0x2A, 0x00,
    0x83, 0x41, 0x99, 0x31, 0x50, 0x00, 0x39, 0x32, 0x00, 0x23, 0x5F, 0x00, 0x24, 0x46, 0x1F, 0x89,
    0x39, 0x00, 0x00, 0x23, 0x00, 0x00, 0x24, 0x00, 0x00, 0x31, 0x00, 0x87, 0x21, 0x99, 0x23, 0x5F,
    0x00, 0x24, 0x46, 0x00, 0x39, 0x32, 0x00, 0x31, 0x50, 0x1F, 0x89, 0x24, 0x00, 0x00, 0x39, 0x00,
    0x00, 0x31, 0x00, 0x00, 0x23, 0x00, 0x87, 0x21, 0x99, 0x39, 0x32, 0x00, 0x3E, 0x28, 0x00, 0x24,
    0x46, 0x00, 0x2B, 0x28, 0x00, 0x23, 0x5F, 0x00, 0x31, 0x50, 0x1F, 0x89, 0x3E, 0x00, 0x00, 0x24,
    0x00, 0x00, 0x2B, 0x00, 0x00, 0x23, 0x00, 0x00, 0x31, 0x00, 0x00, 0x39, 0x00, 0x81, 0x51, 0x99,
    0x3E, 0x28, 0x1F, 0x89, 0x3E, 0x00, 0x81, 0x51, 0x99, 0x3E, 0x28, 0x1F, 0x89, 0x3E, 0x00, 0x81,
    0x51, 0x99, 0x3E, 0x28, 0x1F, 0x89, 0x3E, 0x00, 0x81, 0x51, 0x99, 0x3E, 0x28, 0x00, 0x32, 0x28,
    0x1F, 0x89, 0x32, 0x00, 0x00, 0x3E, 0x00, 0x81, 0x51, 0x99, 0x3E, 0x28, 0x1F, 0x89, 0x3E, 0x00,
    0x81, 0x51, 0x99, 0x3E, 0x28, 0x1F, 0x89, 0x3E, 0x00, 0x81, 0x51, 0x99, 0x3E, 0x28, 0x1F, 0x89,
    0x3E, 0x00, 0x81, 0x51, 0x99, 0x3E, 0x28, 0x00, 0x2B, 0x28, 0x1F, 0x89, 0x2B, 0x00, 0x00, 0x3E,
    0x00, 0x81, 0x51, 0x99, 0x3E, 0x28, 0x1F, 0x89, 0x3E, 0x00, 0x81, 0x51, 0x99, 0x3E, 0x28, 0x00,
    0x32, 0x28, 0x1F, 0x89, 0x32, 0x00, 0x00, 0x3E, 0x00, 0x81, 0x51, 0x99, 0x3E, 0x28, 0x1F, 0x89,
    0x3E, 0x00, 0x81, 0x51, 0x99, 0x3E, 0x28, 0x1F, 0x89, 0x3E, 0x00, 0x81, 0x51, 0x99, 0x3E, 0x28,
    0x1F, 0x89, 0x3E, 0x00, 0x81, 0x51, 0x99, 0x3E, 0x28, 0x00, 0x2D, 0x28, 0x1F, 0x89, 0x2D, 0x00,
    0x00, 0x3E, 0x00, 0x81, 0x51, 0x99, 0x3E, 0x28, 0x1F, 0x89, 0x3E, 0x00, 0x81, 0x51, 0x99, 0x2B,
    0x28, 0x00, 0x3E, 0x28, 0x1F, 0x89, 0x3E, 0x00, 0x00, 0x2B, 0x00, 0x81, 0x51, 0x99, 0x3E, 0x28,
    0x1F, 0x89, 0x3E, 0x00, 0x81, 0x51, 0x99, 0x3E, 0x28, 0x1F, 0x89, 0x3E, 0x00, 0x81, 0x51, 0x99,
    0x3E, 0x28, 0x1F, 0x89, 0x3E, 0x00, 0x81, 0x51, 0x99, 0x32, 0x28, 0x00, 0x3E, 0x28, 0x1F, 0x89,
    0x3E, 0x00, 0x00, 0x32, 0x00, 0x81, 0x51, 0x99, 0x3E, 0x28, 0x1F, 0x89, 0x3E, 0x00, 0x81, 0x51,
    0x99, 0x3E, 0x28, 0x1F, 0x89, 0x3E, 0x00, 0x81, 0x51, 0x99, 0x3E, 0x28, 0x1F, 0x89, 0x3E, 0x00,
    0x81, 0x51, 0x99, 0x2B, 0x28, 0x00, 0x3E, 0x28, 0x1F, 0x89, 0x3E, 0x00, 0x00, 0x2B, 0x00, 0x81,
    0x51, 0x99, 0x3E, 0x28, 0x1F, 0x89, 0x3E, 0x00, 0x81, 0x51, 0x99, 0x32, 0x28, 0x00, 0x3E, 0x28,
    0x1F, 0x89, 0x3E, 0x00, 0x00, 0x32, 0x00, 0x81, 0x51, 0x99, 0x3E, 0x28, 0x1F, 0x89, 0x3E, 0x00,
    0x81, 0x51, 0x99, 0x3E, 0x28, 0x1F, 0x89, 0x3E, 0x00, 0x81, 0x51, 0x99, 0x3E, 0x28, 0x1F, 0x89,
    0x3E, 0x00, 0x81, 0x51, 0x99, 0x2D, 0x28, 0x00, 0x3E, 0x28, 0x1F, 0x89, 0x3E, 0x00, 0x00, 0x2D,
    0x00, 0x81, 0x51, 0x99, 0x3E, 0x28, 0x1F, 0x89, 0x3E, 0x00, 0x81, 0x51, 0x99, 0x3E, 0x28, 0x00,
    0x2B, 0x28, 0x1F, 0x89, 0x2B, 0x00, 0x00, 0x3E, 0x00, 0x81, 0x51, 0x99, 0x3E, 0x28, 0x1F, 0x89,
    0x3E, 0x00, 0x81, 0x51, 0x99, 0x3E, 0x28, 0x1F, 0x89, 0x3E, 0x00, 0x81, 0x51, 0x99, 0x3E, 0x28,
    0x1F, 0x89, 0x3E, 0x00, 0x81, 0x51, 0x99, 0x3E, 0x28, 0x00, 0x32, 0x28, 0x1F, 0x89, 0x32, 0x00,
    0x00, 0x3E, 0x00, 0x81, 0x51, 0x99, 0x3E, 0x28, 0x1F, 0x89, 0x3E, 0x00, 0x81, 0x51, 0x99, 0x3E,
    0x28, 0x1F, 0x89, 0x3E, 0x00, 0x81, 0x51, 0x99, 0x3E, 0x28, 0x1F, 0x89, 0x3E, 0x00, 0x81, 0x51,
    0x99, 0x3E, 0x28, 0x00, 0x2B, 0x28, 0x1F, 0x89, 0x2B, 0x00, 0x00, 0x3E, 0x00, 0x59, 0x99, 0x3E,
    0x1E, 0x1F, 0x89, 0x3E, 0x00, 0x59, 0x99, 0x3E, 0x28, 0x1F, 0x89, 0x3E, 0x00, 0x81, 0x51, 0x99,
    0x3E, 0x28, 0x00, 0x32, 0x28, 0x1F, 0x89, 0x32, 0x00, 0x00, 0x3E, 0x00, 0x81, 0x51, 0x99, 0x3E,
    0x28, 0x1F, 0x89, 0x3E, 0x00, 0x81, 0x51, 0x99, 0x3E, 0x28, 0x1F, 0x89, 0x3E, 0x00, 0x81, 0x51,
    0x99, 0x3E, 0x28, 0x1F, 0x89, 0x3E, 0x00, 0x81, 0x51, 0x99, 0x3E, 0x28, 0x00, 0x30, 0x28, 0x1F,
    0x89, 0x30, 0x00, 0x00, 0x3E, 0x00, 0x81, 0x51, 0x99, 0x3E, 0x28, 0x1F, 0x89, 0x3E, 0x00, 0x81,
    0x51, 0x99, 0x2B, 0x28, 0x00, 0x3E, 0x28, 0x1F, 0x89, 0x3E, 0x00, 0x00, 0x2B, 0x00, 0x81, 0x51,
    0x99, 0x3E, 0x28, 0x1F, 0x89, 0x3E, 0x00, 0x81, 0x51, 0x99, 0x3E, 0x28, 0x1F, 0x89, 0x3E, 0x00,
    0x81, 0x51, 0x99, 0x3E, 0x28, 0x1F, 0x89, 0x3E, 0x00, 0x81, 0x51, 0x99, 0x32, 0x28, 0x00, 0x3E,
    0x28, 0x1F, 0x89, 0x3E, 0x00, 0x00, 0x32, 0x00, 0x81, 0x51, 0x99, 0x3E, 0x28, 0x1F, 0x89, 0x3E,
    0x00, 0x59, 0x99, 0x2B, 0x28, 0x1F, 0x89, 0x2B, 0x00, 0x59, 0x99, 0x3E, 0x28, 0x1F, 0x89, 0x3E,
    0x00, 0x81, 0x51, 0x99, 0x3E, 0x28, 0x1F, 0x89, 0x3E, 0x00, 0x81, 0x51, 0x99, 0x32, 0x28, 0x00,
    0x3E, 0x28, 0x1F, 0x89, 0x3E, 0x00, 0x00, 0x32, 0x00, 0x81, 0x51, 0x99, 0x3E, 0x28, 0x00, 0x32,
    0x28, 0x1F, 0x89, 0x32, 0x00, 0x00, 0x3E, 0x00, 0x81, 0x51, 0x99, 0x3E, 0x28, 0x00, 0x2B, 0x28,
    0x1F, 0x89, 0x2B, 0x00, 0x00, 0x3E, 0x00, 0x81, 0x51, 0x99, 0x32, 0x28, 0x00, 0x3E, 0x28, 0x1F,
    0x89, 0x3E, 0x00, 0x00, 0x32, 0x00, 0x81, 0x51, 0x99, 0x3E, 0x28, 0x00, 0x32, 0x28, 0x1F, 0x89,
    0x32, 0x00, 0x00, 0x3E, 0x00, 0x81, 0x51, 0x99, 0x2B, 0x28, 0x00, 0x3E, 0x28, 0x1F, 0x89, 0x3E,
    0x00, 0x00, 0x2B, 0x00, 0x81, 0x51, 0x99, 0x3E, 0x28, 0x00, 0x30, 0x28, 0x1F, 0x89, 0x30, 0x00,
    0x00, 0x3E, 0x00, 0x81, 0x51, 0x99, 0x30, 0x28, 0x00, 0x3E, 0x28, 0x1F, 0x89, 0x3E, 0x00, 0x00,
    0x30, 0x00, 0x81, 0x51, 0x99, 0x3E, 0x28, 0x00, 0x2B, 0x28, 0x1F, 0x89, 0x2B, 0x00, 0x00, 0x3E,
    0x00, 0x81, 0x51, 0x99, 0x3E, 0x28, 0x1F, 0x89, 0x3E, 0x00, 0x81, 0x51, 0x99, 0x3E, 0x28, 0x1F,
    0x89, 0x3E, 0x00, 0x81, 0x51, 0x99, 0x3E, 0x28, 0x1F, 0x89, 0x3E, 0x00, 0x81, 0x51, 0x99, 0x3E,
    0x28, 0x00, 0x32, 0x28, 0x1F, 0x89, 0x32, 0x00, 0x00, 0x3E, 0x00, 0x81, 0x51, 0x99, 0x3E, 0x28,
    0x1F, 0x89, 0x3E, 0x00, 0x81, 0x51, 0x99, 0x3E, 0x28, 0x1F, 0x89, 0x3E, 0x00, 0x81, 0x51, 0x99,
    0x3E, 0x28, 0x1F, 0x89, 0x3E, 0x00, 0x81, 0x51, 0x99, 0x3E, 0x28, 0x00, 0x2B, 0x28, 0x1F, 0x89,
    0x2B, 0x00, 0x00, 0x3E, 0x00, 0x81, 0x51, 0x99, 0x3E, 0x28, 0x1F, 0x89, 0x3E, 0x00, 0x81, 0x51,
    0x99, 0x3E, 0x28, 0x00, 0x32, 0x28, 0x1F, 0x89, 0x32, 0x00, 0x00, 0x3E, 0x00, 0x81, 0x51, 0x99,
    0x3E, 0x28, 0x1F, 0x89, 0x3E, 0x00, 0x81, 0x51, 0x99, 0x3E, 0x28, 0x1F, 0x89, 0x3E, 0x00, 0x81,
    0x51, 0x99, 0x3E, 0x28, 0x1F, 0x89, 0x3E, 0x00, 0x81, 0x51, 0x99, 0x3E, 0x28, 0x00, 0x2D, 0x28,
    0x1F, 0x89, 0x2D, 0x00, 0x00, 0x3E, 0x00, 0x81, 0x51, 0x99, 0x3E, 0x28, 0x1F, 0x89, 0x3E, 0x00,
    0x81, 0x51, 0x99, 0x3E, 0x28, 0x00, 0x2B, 0x28, 0x1F, 0x89, 0x2B, 0x00, 0x00, 0x3E, 0x00, 0x81,
    0x51, 0x99, 0x3E, 0x28, 0x1F, 0x89, 0x3E, 0x00, 0x81, 0x51, 0x99, 0x3E, 0x28, 0x1F, 0x89, 0x3E,
    0x00, 0x81, 0x51, 0x99, 0x3E, 0x28, 0x1F, 0x89, 0x3E, 0x00, 0x81, 0x51, 0x99, 0x3E, 0x28, 0x00,
    0x32, 0x28, 0x1F, 0x89, 0x32, 0x00, 0x00, 0x3E, 0x00, 0x81, 0x51, 0x99, 0x3E, 0x28, 0x1F, 0x89,
    0x3E, 0x00, 0x81, 0x51, 0x99, 0x3E, 0x28, 0x1F, 0x89, 0x3E, 0x00, 0x81, 0x51, 0x99, 0x3E, 0x28,
    0x1F, 0x89, 0x3E, 0x00, 0x81, 0x51, 0x99, 0x3E, 0x28, 0x00, 0x2B, 0x28, 0x1F, 0x89, 0x2B, 0x00,
    0x00, 0x3E, 0x00, 0x81, 0x51, 0x99, 0x3E, 0x28, 0x1F, 0x89, 0x3E, 0x00, 0x81, 0x51, 0x99, 0x3E,
    0x28, 0x00, 0x32, 0x28, 0x1F, 0x89, 0x32, 0x00, 0x00, 0x3E, 0x00, 0x81, 0x51, 0x99, 0x3E, 0x28,
    0x1F, 0x89, 0x3E, 0x00, 0x81, 0x51, 0x99, 0x3E, 0x28, 0x1F, 0x89, 0x3E, 0x00, 0x81, 0x51, 0x99,
    0x3E, 0x28, 0x1F, 0x89, 0x3E, 0x00, 0x81, 0x51, 0x99, 0x3E, 0x28, 0x00, 0x2D, 0x28, 0x1F, 0x89,
    0x2D, 0x00, 0x00, 0x3E, 0x00, 0x81, 0x51, 0x99, 0x3E, 0x28, 0x1F, 0x89, 0x3E, 0x00, 0x81, 0x51,
    0x99, 0x3E, 0x28, 0x00, 0x2B, 0x28, 0x1F, 0x89, 0x2B, 0x00, 0x00, 0x3E, 0x00, 0x81, 0x51, 0x99,
    0x3E, 0x28, 0x1F, 0x89, 0x3E, 0x00, 0x81, 0x51, 0x99, 0x3E, 0x28, 0x1F, 0x89, 0x3E, 0x00, 0x81,
    0x51, 0x99, 0x3E, 0x28, 0x1F, 0x89, 0x3E, 0x00, 0x81, 0x51, 0x99, 0x3E, 0x28, 0x00, 0x32, 0x28,
    0x1F, 0x89, 0x32, 0x00, 0x00, 0x3E, 0x00, 0x81, 0x51, 0x99, 0x3E, 0x28, 0x1F, 0x89, 0x3E, 0x00,
    0x81, 0x51, 0x99, 0x3E, 0x28, 0x1F, 0x89, 0x3E, 0x00, 0x81, 0x51, 0x99, 0x3E, 0x28, 0x1F, 0x89,
    0x3E, 0x00, 0x81, 0x51, 0x99, 0x3E, 0x28, 0x00, 0x2B, 0x28, 0x1F, 0x89, 0x2B, 0x00, 0x00, 0x3E,
    0x00, 0x59, 0x99, 0x3E, 0x1E, 0x1F, 0x89, 0x3E, 0x00, 0x59, 0x99, 0x3E, 0x28, 0x1F, 0x89, 0x3E,
    0x00, 0x81, 0x51, 0x99, 0x3E, 0x28, 0x00, 0x32, 0x28, 0x1F, 0x89, 0x32, 0x00, 0x00, 0x3E, 0x00,
    0x81, 0x51, 0x99, 0x3E, 0x28, 0x1F, 0x89, 0x3E, 0x00, 0x81, 0x51, 0x99, 0x3E, 0x28, 0x1F, 0x89,
    0x3E, 0x00, 0x81, 0x51, 0x99, 0x3E, 0x28, 0x1F, 0x89, 0x3E, 0x00, 0x81, 0x51, 0x99, 0x3E, 0x28,
    0x00, 0x30, 0x28, 0x1F, 0x89, 0x30, 0x00, 0x00, 0x3E, 0x00, 0x81, 0x51, 0x99, 0x3E, 0x28, 0x1F,
    0x89, 0x3E, 0x00, 0x81, 0x51, 0x99, 0x3E, 0x28, 0x00, 0x2B, 0x28, 0x1F, 0x89, 0x2B, 0x00, 0x00,
    0x3E, 0x00, 0x81, 0x51, 0x99, 0x3E, 0x28, 0x1F, 0x89, 0x3E, 0x00, 0x81, 0x51, 0x99, 0x3E, 0x28,
    0x1F, 0x89, 0x3E, 0x00, 0x81, 0x51, 0x99, 0x3E, 0x28, 0x1F, 0x89, 0x3E, 0x00, 0x81, 0x51, 0x99,
    0x3E, 0x28, 0x00, 0x32, 0x28, 0x1F, 0x89, 0x32, 0x00, 0x00, 0x3E, 0x00, 0x81, 0x51, 0x99, 0x3E,
    0x28, 0x1F, 0x89, 0x3E, 0x00, 0x59, 0x99, 0x2B, 0x28, 0x1F, 0x89, 0x2B, 0x00, 0x59, 0x99, 0x3E,
    0x28, 0x1F, 0x89, 0x3E, 0x00, 0x81, 0x51, 0x99, 0x3E, 0x28, 0x1F, 0x89, 0x3E, 0x00, 0x81, 0x51,
    0x99, 0x3E, 0x28, 0x00, 0x32, 0x28, 0x1F, 0x89, 0x32, 0x00, 0x00, 0x3E, 0x00, 0x81, 0x51, 0x99,
    0x3E, 0x28, 0x1F, 0x89, 0x3E, 0x00, 0x31, 0x99, 0x32, 0x28, 0x1F, 0x89, 0x32, 0x00, 0x81, 0x01,
    0x99, 0x3E, 0x28, 0x1F, 0x89, 0x3E, 0x00, 0x81, 0x01, 0x99, 0x32, 0x28, 0x1F, 0x89, 0x32, 0x00,
    0x31, 0x99, 0x3E, 0x28, 0x1F, 0x89, 0x3E, 0x00, 0x81, 0x51, 0x99, 0x32, 0x28, 0x00, 0x3E, 0x28,
    0x1F, 0x89, 0x3E, 0x00, 0x00, 0x32, 0x00, 0x81, 0x51, 0x99, 0x3E, 0x28, 0x1F, 0x89, 0x3E, 0x00,
    0x31, 0x99, 0x32, 0x28, 0x1F, 0x89, 0x32, 0x00, 0x81, 0x01, 0x99, 0x3E, 0x28, 0x1F, 0x89, 0x3E,
    0x00, 0x81, 0x01, 0x99, 0x32, 0x28, 0x1F, 0x89, 0x32, 0x00, 0x31, 0x99, 0x3E, 0x28, 0x1F, 0x89,
    0x3E, 0x00, 0x81, 0x51, 0x99, 0x23, 0x5F, 0x00, 0x31, 0x50, 0x00, 0x39, 0x32, 0x00, 0x24, 0x50,
    0x1F, 0x89, 0x31, 0x00, 0x00, 0x39, 0x00, 0x00, 0x24, 0x00, 0x00, 0x23, 0x00, 0x81, 0xEF, 0x61,
    0x99, 0x31, 0x5F, 0x1F, 0x89, 0x31, 0x00, 0x00, 0xFF, 0x2F, 0x00, 0x4D, 0x54, 0x72, 0x6B, 0x00,
    0x00, 0x05, 0x21, 0x00, 0xB0, 0x00, 0x00, 0x00, 0x20, 0x00, 0x00, 0xC0, 0x77, 0x00, 0xFF, 0x03,
    0x08, 0x55, 0x6E, 0x74, 0x69, 0x74, 0x6C, 0x65, 0x64, 0x00, 0xB0, 0x07, 0x7F, 0x00, 0x00, 0x00,
    0x00, 0x20, 0x00, 0x00, 0x07, 0x7F, 0x00, 0xE0, 0x00, 0x40, 0x00, 0xB0, 0x07, 0x7F, 0x00, 0x0A,
    0x40, 0x00, 0x5D, 0x00, 0x00, 0x5B, 0x00, 0x00, 0x5F, 0x00, 0x00, 0x5C, 0x00, 0x00, 0x0B, 0x7F,
    0x00, 0x07, 0x7F, 0x00, 0x0A, 0x40, 0x00, 0x5D, 0x00, 0x00, 0x5B, 0x00, 0x00, 0x5F, 0x00, 0x00,
    0x5C, 0x00, 0x00, 0x0B, 0x7F, 0x00, 0xC0, 0x77, 0x81, 0xD2, 0x00, 0xB0, 0x07, 0x41, 0x00, 0x90,
    0x32, 0x50, 0x01, 0xB0, 0x07, 0x42, 0x3D, 0x07, 0x43, 0x3E, 0x07, 0x44, 0x3E, 0x07, 0x45, 0x3E,
    0x07, 0x46, 0x3E, 0x07, 0x47, 0x3E, 0x07, 0x48, 0x3E, 0x07, 0x49, 0x3E, 0x07, 0x4A, 0x3E, 0x07,
    0x4B, 0x3E, 0x07, 0x4C, 0x3E, 0x07, 0x4D, 0x3E, 0x07, 0x4E, 0x3E, 0x07, 0x4F, 0x3E, 0x07, 0x50,
    0x3E, 0x07, 0x51, 0x3D, 0x07, 0x52, 0x3E, 0x07, 0x53, 0x3E, 0x07, 0x54, 0x3E, 0x07, 0x55, 0x3E,
    0x07, 0x56, 0x3E, 0x07, 0x57, 0x3E, 0x07, 0x58, 0x3E, 0x07, 0x59, 0x3E, 0x07, 0x5A, 0x3E, 0x07,
    0x5B, 0x3E, 0x07, 0x5C, 0x3E, 0x07, 0x5D, 0x3E, 0x07, 0x5E, 0x3E, 0x07, 0x5F, 0x3E, 0x07, 0x60,
    0x3E, 0x07, 0x61, 0x3D, 0x07, 0x62, 0x3E, 0x07, 0x63, 0x3E, 0x07, 0x64, 0x3E, 0x07, 0x65, 0x3E,
    0x07, 0x66, 0x3E, 0x07, 0x67, 0x3E, 0x07, 0x68, 0x3E, 0x07, 0x69, 0x3E, 0x07, 0x6A, 0x3E, 0x07,
    0x6B, 0x3E, 0x07, 0x6C, 0x3E, 0x07, 0x6D, 0x3E, 0x07, 0x6E, 0x3E, 0x07, 0x6F, 0x3E, 0x07, 0x70,
    0x1E, 0x80, 0x32, 0x00, 0x1F, 0xB0, 0x07, 0x71, 0x3E, 0x07, 0x72, 0x3E, 0x07, 0x73, 0x3E, 0x07,
    0x74, 0x3E, 0x07, 0x75, 0x3E, 0x07, 0x76, 0x3E, 0x07, 0x77, 0x3E, 0x07, 0x78, 0x3E, 0x07, 0x79,
    0x3E, 0x07, 0x7A, 0x3E, 0x07, 0x7B, 0x3E, 0x07, 0x7C, 0x3E, 0x07, 0x7D, 0x3E, 0x07, 0x7E, 0x3E,
    0x07, 0x7F, 0x89, 0x92, 0x3D, 0x07, 0x3F, 0x00, 0x90, 0x33, 0x46, 0x01, 0xB0, 0x07, 0x40, 0x1E,
    0x07, 0x41, 0x1E, 0x07, 0x42, 0x1E, 0x07, 0x43, 0x1E, 0x07, 0x44, 0x1E, 0x07, 0x45, 0x1E, 0x07,
    0x46, 0x1E, 0x07, 0x47, 0x1E, 0x07, 0x48, 0x1E, 0x07, 0x49, 0x1E, 0x07, 0x4A, 0x1E, 0x07, 0x4B,
    0x1E, 0x07, 0x4C, 0x1E, 0x07, 0x4D, 0x1E, 0x07, 0x4E, 0x1E, 0x07, 0x4F, 0x1E, 0x07, 0x50, 0x1E,
    0x07, 0x51, 0x1E, 0x07, 0x52, 0x1E, 0x07, 0x53, 0x1E, 0x07, 0x54, 0x1E, 0x07, 0x55, 0x1E, 0x07,
    0x56, 0x1E, 0x07, 0x57, 0x1E, 0x07, 0x58, 0x1E, 0x07, 0x59, 0x1E, 0x07, 0x5A, 0x1E, 0x07, 0x5B,
    0x1E, 0x07, 0x5C, 0x1E, 0x07, 0x5D, 0x1E, 0x07, 0x5E, 0x1E, 0x07, 0x5F, 0x1E, 0x07, 0x60, 0x1E,
    0x07, 0x61, 0x1E, 0x07, 0x62, 0x1E, 0x07, 0x63, 0x1E, 0x07, 0x64, 0x1E, 0x07, 0x65, 0x1E, 0x07,
    0x66, 0x1E, 0x07, 0x67, 0x1E, 0x07, 0x68, 0x1E, 0x07, 0x69, 0x1E, 0x07, 0x6A, 0x1E, 0x07, 0x6B,
    0x1E, 0x07, 0x6C, 0x1E, 0x07, 0x6D, 0x1E, 0x07, 0x6E, 0x1E, 0x07, 0x6F, 0x1E, 0x07, 0x70, 0x1E,
    0x07, 0x71, 0x1E, 0x07, 0x72, 0x1E, 0x07, 0x73, 0x1E, 0x07, 0x74, 0x1E, 0x07, 0x75, 0x1E, 0x07,
    0x76, 0x1E, 0x07, 0x77, 0x1E, 0x07, 0x78, 0x1E, 0x07, 0x79, 0x1E, 0x07, 0x7A, 0x1E, 0x07, 0x7B,
    0x1E, 0x07, 0x7C, 0x1E, 0x07, 0x7D, 0x1E, 0x07, 0x7E, 0x1E, 0x07, 0x7F, 0x1D, 0x80, 0x33, 0x00,
    0x8B, 0xA0, 0x00, 0xB0, 0x07, 0x41, 0x00, 0x90, 0x33, 0x50, 0x01, 0xB0, 0x07, 0x42, 0x1E, 0x07,
    0x43, 0x1F, 0x07, 0x44, 0x1F, 0x07, 0x45, 0x1F, 0x07, 0x46, 0x1F, 0x07, 0x47, 0x1F, 0x07, 0x48,
    0x1F, 0x07, 0x49, 0x1F, 0x07, 0x4A, 0x1F, 0x07, 0x4B, 0x1F, 0x07, 0x4C, 0x1F, 0x07, 0x4D, 0x1F,
    0x07, 0x4E, 0x1F, 0x07, 0x4F, 0x1F, 0x07, 0x50, 0x1F, 0x07, 0x51, 0x1F, 0x07, 0x52, 0x1F, 0x07,
    0x53, 0x1F, 0x07, 0x54, 0x1F, 0x07, 0x55, 0x1F, 0x07, 0x56, 0x1F, 0x07, 0x57, 0x1F, 0x07, 0x58,
    0x1F, 0x07, 0x59, 0x1F, 0x07, 0x5A, 0x1F, 0x07, 0x5B, 0x1F, 0x07, 0x5C, 0x1F, 0x07, 0x5D, 0x1F,
    0x07, 0x5E, 0x1F, 0x07, 0x5F, 0x1F, 0x07, 0x60, 0x1F, 0x07, 0x61, 0x1E, 0x07, 0x62, 0x1F, 0x07,
    0x63, 0x1F, 0x07, 0x64, 0x1F, 0x07, 0x65, 0x1F, 0x07, 0x66, 0x1F, 0x07, 0x67, 0x1F, 0x07, 0x68,
    0x1F, 0x07, 0x69, 0x1F, 0x07, 0x6A, 0x1F, 0x07, 0x6B, 0x1F, 0x07, 0x6C, 0x1F, 0x07, 0x6D, 0x1F,
    0x07, 0x6E, 0x1F, 0x07, 0x6F, 0x1F, 0x07, 0x70, 0x1F, 0x07, 0x71, 0x1F, 0x07, 0x72, 0x1F, 0x07,
    0x73, 0x1F, 0x07, 0x74, 0x1F, 0x07, 0x75, 0x1F, 0x07, 0x76, 0x1F, 0x07, 0x77, 0x1F, 0x07, 0x78,
    0x1F, 0x07, 0x79, 0x1F, 0x07, 0x7A, 0x1F, 0x07, 0x7B, 0x1F, 0x07, 0x7C, 0x1F, 0x07, 0x7D, 0x1F,
    0x07, 0x7E, 0x1F, 0x07, 0x7F, 0x1E, 0x80, 0x33, 0x00, 0x81, 0xD2, 0x00, 0xB0, 0x07, 0x41, 0x00,
    0x90, 0x33, 0x50, 0x01, 0xB0, 0x07, 0x42, 0x1E, 0x07, 0x43, 0x1F, 0x07, 0x44, 0x1F, 0x07, 0x45,
    0x1F, 0x07, 0x46, 0x1F, 0x07, 0x47, 0x1F, 0x07, 0x48, 0x1F, 0x07, 0x49, 0x1F, 0x07, 0x4A, 0x1F,
    0x07, 0x4B, 0x1F, 0x07, 0x4C, 0x1F, 0x07, 0x4D, 0x1F, 0x07, 0x4E, 0x1F, 0x07, 0x4F, 0x1F, 0x07,
    0x50, 0x1F, 0x07, 0x51, 0x1F, 0x07, 0x52, 0x1F, 0x07, 0x53, 0x1F, 0x07, 0x54, 0x1F, 0x07, 0x55,
    0x1F, 0x07, 0x56, 0x1F, 0x07, 0x57, 0x1F, 0x07, 0x58, 0x1F, 0x07, 0x59, 0x1F, 0x07, 0x5A, 0x1F,
    0x07, 0x5B, 0x1F, 0x07, 0x5C, 0x1F, 0x07, 0x5D, 0x1F, 0x07, 0x5E, 0x1F, 0x07, 0x5F, 0x1F, 0x07,
    0x60, 0x1F, 0x07, 0x61, 0x1E, 0x07, 0x62, 0x1F, 0x07, 0x63, 0x1F, 0x07, 0x64, 0x1F, 0x07, 0x65,
    0x1F, 0x07, 0x66, 0x1F, 0x07, 0x67, 0x1F, 0x07, 0x68, 0x1F, 0x07, 0x69, 0x1F, 0x07, 0x6A, 0x1F,
    0x07, 0x6B, 0x1F, 0x07, 0x6C, 0x1F, 0x07, 0x6D, 0x1F, 0x07, 0x6E, 0x1F, 0x07, 0x6F, 0x1F, 0x07,
    0x70, 0x1F, 0x07, 0x71, 0x1F, 0x07, 0x72, 0x1F, 0x07, 0x73, 0x1F, 0x07, 0x74, 0x1F, 0x07, 0x75,
    0x1F, 0x07, 0x76, 0x1F, 0x07, 0x77, 0x1F, 0x07, 0x78, 0x1F, 0x07, 0x79, 0x1F, 0x07, 0x7A, 0x1F,
    0x07, 0x7B, 0x1F, 0x07, 0x7C, 0x1F, 0x07, 0x7D, 0x1F, 0x07, 0x7E, 0x1F, 0x07, 0x7F, 0x1E, 0x80,
    0x33, 0x00, 0x81, 0xF0, 0x00, 0xB0, 0x07, 0x3F, 0x00, 0x90, 0x34, 0x50, 0x01, 0xB0, 0x07, 0x40,
    0x1E, 0x07, 0x41, 0x1E, 0x07, 0x42, 0x1E, 0x07, 0x43, 0x1E, 0x07, 0x44, 0x1E, 0x07, 0x45, 0x1E,
    0x07, 0x46, 0x1E, 0x07, 0x47, 0x1E, 0x07, 0x48, 0x1E, 0x07, 0x49, 0x1E, 0x07, 0x4A, 0x1E, 0x07,
    0x4B, 0x1E, 0x07, 0x4C, 0x1E, 0x07, 0x4D, 0x1E, 0x07, 0x4E, 0x1E, 0x07, 0x4F, 0x1E, 0x07, 0x50,
    0x1E, 0x07, 0x51, 0x1E, 0x07, 0x52, 0x1E, 0x07, 0x53, 0x1E, 0x07, 0x54, 0x1E, 0x07, 0x55, 0x1E,
    0x07, 0x56, 0x1E, 0x07, 0x57, 0x1E, 0x07, 0x58, 0x1E, 0x07, 0x59, 0x1E, 0x07, 0x5A, 0x1E, 0x07,
    0x5B, 0x1E, 0x07, 0x5C, 0x1E, 0x07, 0x5D, 0x1E, 0x07, 0x5E, 0x1E, 0x07, 0x5F, 0x1E, 0x07, 0x60,
    0x1E, 0x07, 0x61, 0x1E, 0x07, 0x62, 0x1E, 0x07, 0x63, 0x1E, 0x07, 0x64, 0x1E, 0x07, 0x65, 0x1E,
    0x07, 0x66, 0x1E, 0x07, 0x67, 0x1E, 0x07, 0x68, 0x1E, 0x07, 0x69, 0x1E, 0x07, 0x6A, 0x1E, 0x07,
    0x6B, 0x1E, 0x07, 0x6C, 0x1E, 0x07, 0x6D, 0x1E, 0x07, 0x6E, 0x1E, 0x07, 0x6F, 0x1E, 0x07, 0x70,
    0x1E, 0x07, 0x71, 0x1E, 0x07, 0x72, 0x1E, 0x07, 0x73, 0x1E, 0x07, 0x74, 0x1E, 0x07, 0x75, 0x1E,
    0x07, 0x76, 0x1E, 0x07, 0x77, 0x1E, 0x07, 0x78, 0x1E, 0x07, 0x79, 0x1E, 0x07, 0x7A, 0x1E, 0x07,
    0x7B, 0x1E, 0x07, 0x7C, 0x1E, 0x07, 0x7D, 0x1E, 0x07, 0x7E, 0x1E, 0x07, 0x7F, 0x1D, 0x80, 0x34,
    0x00, 0x81, 0xE1, 0x00, 0xB0, 0x07, 0x3F, 0x00, 0x90, 0x34, 0x50, 0x01, 0xB0, 0x07, 0x40, 0x1E,
    0x07, 0x41, 0x1E, 0x07, 0x42, 0x1E, 0x07, 0x43, 0x1E, 0x07, 0x44, 0x1E, 0x07, 0x45, 0x1E, 0x07,
    0x46, 0x1E, 0x07, 0x47, 0x1E, 0x07, 0x48, 0x1E, 0x07, 0x49, 0x1E, 0x07, 0x4A, 0x1E, 0x07, 0x4B,
    0x1E, 0x07, 0x4C, 0x1E, 0x07, 0x4D, 0x1E, 0x07, 0x4E, 0x1E, 0x07, 0x4F, 0x1E, 0x07, 0x50, 0x1E,
    0x07, 0x51, 0x1E, 0x07, 0x52, 0x1E, 0x07, 0x53, 0x1E, 0x07, 0x54, 0x1E, 0x07, 0x55, 0x1E, 0x07,
    0x56, 0x1E, 0x07, 0x57, 0x1E, 0x07, 0x58, 0x1E, 0x07, 0x59, 0x1E, 0x07, 0x5A, 0x1E, 0x07, 0x5B,
    0x1E, 0x07, 0x5C, 0x1E, 0x07, 0x5D, 0x1E, 0x07, 0x5E, 0x1E, 0x07, 0x5F, 0x1E, 0x07, 0x60, 0x1E,
    0x07, 0x61, 0x1E, 0x07, 0x62, 0x1E, 0x07, 0x63, 0x1E, 0x07, 0x64, 0x1E, 0x07, 0x65, 0x1E, 0x07,
    0x66, 0x1E, 0x07, 0x67, 0x1E, 0x07, 0x68, 0x1E, 0x07, 0x69, 0x1E, 0x07, 0x6A, 0x1E, 0x07, 0x6B,
    0x1E, 0x07, 0x6C, 0x1E, 0x07, 0x6D, 0x1E, 0x07, 0x6E, 0x1E, 0x07, 0x6F, 0x1E, 0x07, 0x70, 0x1E,
    0x07, 0x71, 0x1E, 0x07, 0x72, 0x1E, 0x07, 0x73, 0x1E, 0x07, 0x74, 0x1E, 0x07, 0x75, 0x1E, 0x07,
    0x76, 0x1E, 0x07, 0x77, 0x1E, 0x07, 0x78, 0x1E, 0x07, 0x79, 0x1E, 0x07, 0x7A, 0x1E, 0x07, 0x7B,
    0x1E, 0x07, 0x7C, 0x1E, 0x07, 0x7D, 0x1E, 0x07, 0x7E, 0x1E, 0x07, 0x7F, 0x1D, 0x80, 0x34, 0x00,
    0x00, 0xFF, 0x2F, 0x00, 0x4D, 0x54, 0x72, 0x6B, 0x00, 0x00, 0x3B, 0x46, 0x00, 0xB1, 0x00, 0x00,
    0x00, 0x20, 0x00, 0x00, 0xC1, 0x51, 0x00, 0xFF, 0x03, 0x08, 0x55, 0x6E, 0x74, 0x69, 0x74, 0x6C,
    0x65, 0x64, 0x00, 0xB1, 0x07, 0x7F, 0x00, 0x00, 0x00, 0x00, 0x20, 0x00, 0x00, 0x07, 0x7F, 0x00,
    0xE1, 0x00, 0x40, 0x00, 0xB1, 0x07, 0x7F, 0x00, 0x0A, 0x40, 0x00, 0x5D, 0x00, 0x00, 0x5B, 0x00,
    0x00, 0x5F, 0x00, 0x00, 0x5C, 0x00, 0x00, 0x0B, 0x7F, 0x00, 0x07, 0x7F, 0x00, 0x0A, 0x40, 0x00,
    0x5D, 0x00, 0x00, 0x5B, 0x00, 0x00, 0x5F, 0x00, 0x00, 0x5C, 0x00, 0x00, 0x0B, 0x7F, 0x00, 0xC1,
    0x51, 0x81, 0xF0, 0x00, 0x91, 0x1B, 0x5F, 0x00, 0x27, 0x5F, 0x83, 0x60, 0x81, 0x27, 0x00, 0x00,
    0x1B, 0x00, 0x00, 0x91, 0x1B, 0x5F, 0x00, 0x27, 0x5F, 0x81, 0x70, 0x81, 0x27, 0x00, 0x00, 0x1B,
    0x00, 0x00, 0x91, 0x27, 0x5F, 0x00, 0x33, 0x5F, 0x81, 0x70, 0x81, 0x33, 0x00, 0x00, 0x27, 0x00,
    0x81, 0x70, 0x91, 0x27, 0x5F, 0x00, 0x33, 0x5F, 0x81, 0x70, 0x81, 0x33, 0x00, 0x00, 0x27, 0x00,
    0x00, 0x91, 0x25, 0x5F, 0x00, 0x31, 0x5F, 0x81, 0x70, 0x81, 0x31, 0x00, 0x00, 0x25, 0x00, 0x00,
    0x91, 0x27, 0x5F, 0x00, 0x33, 0x5F, 0x81, 0x70, 0x81, 0x33, 0x00, 0x00, 0x27, 0x00, 0x00, 0x91,
    0x1B, 0x5F, 0x00, 0x27, 0x5F, 0x83, 0x60, 0x81, 0x27, 0x00, 0x00, 0x1B, 0x00, 0x00, 0x91, 0x1B,
    0x5F, 0x00, 0x27, 0x5F, 0x81, 0x70, 0x81, 0x27, 0x00, 0x00, 0x1B, 0x00, 0x00, 0x91, 0x27, 0x5F,
    0x00, 0x33, 0x5F, 0x81, 0x70, 0x81, 0x33, 0x00, 0x00, 0x27, 0x00, 0x81, 0x70, 0x91, 0x27, 0x5F,
    0x00, 0x33, 0x5F, 0x81, 0x70, 0x81, 0x33, 0x00, 0x00, 0x27, 0x00, 0x00, 0x91, 0x25, 0x5F, 0x00,
    0x31, 0x5F, 0x81, 0x70, 0x81, 0x31, 0x00, 0x00, 0x25, 0x00, 0x00, 0x91, 0x27, 0x5F, 0x00, 0x33,
    0x5F, 0x81, 0x70, 0x81, 0x33, 0x00, 0x00, 0x27, 0x00, 0x00, 0x91, 0x1B, 0x5F, 0x00, 0x27, 0x5F,
    0x83, 0x60, 0x81, 0x27, 0x00, 0x00, 0x1B, 0x00, 0x00, 0x91, 0x1B, 0x5F, 0x00, 0x27, 0x5F, 0x81,
    0x70, 0x81, 0x27, 0x00, 0x00, 0x1B, 0x00, 0x00, 0x91, 0x27, 0x5F, 0x00, 0x33, 0x5F, 0x81, 0x70,
    0x81, 0x33, 0x00, 0x00, 0x27, 0x00, 0x81, 0x70, 0x91, 0x27, 0x5F, 0x00, 0x33, 0x5F, 0x81, 0x70,
    0x81, 0x33, 0x00, 0x00, 0x27, 0x00, 0x00, 0x91, 0x25, 0x5F, 0x00, 0x31, 0x5F, 0x81, 0x70, 0x81,
    0x31, 0x00, 0x00, 0x25, 0x00, 0x00, 0x91, 0x27, 0x5F, 0x00, 0x33, 0x5F, 0x81, 0x70, 0x81, 0x33,
    0x00, 0x00, 0x27, 0x00, 0x00, 0x91, 0x1B, 0x5F, 0x00, 0x27, 0x5F, 0x83, 0x60, 0x81, 0x27, 0x00,
    0x00, 0x1B, 0x00, 0x00, 0x91, 0x27, 0x5F, 0x00, 0x33, 0x5F, 0x81, 0x70, 0x81, 0x33, 0x00, 0x00,
    0x27, 0x00, 0x00, 0x91, 0x2A, 0x5F, 0x00, 0x36, 0x5F, 0x81, 0x70, 0x81, 0x36, 0x00, 0x00, 0x2A,
    0x00, 0x00, 0x91, 0x20, 0x5F, 0x00, 0x2C, 0x5F, 0x83, 0x60, 0x81, 0x2C, 0x00, 0x00, 0x20, 0x00,
    0x00, 0x91, 0x2A, 0x5F, 0x00, 0x36, 0x5F, 0x81, 0x70, 0x81, 0x36, 0x00, 0x00, 0x2A, 0x00, 0x00,
    0x91, 0x2C, 0x5F, 0x00, 0x38, 0x5F, 0x81, 0x70, 0x81, 0x38, 0x00, 0x00, 0x2C, 0x00, 0x00, 0x91,
    0x1B, 0x5F, 0x00, 0x27, 0x5F, 0x83, 0x60, 0x81, 0x27, 0x00, 0x00, 0x1B, 0x00, 0x00, 0x91, 0x1B,
    0x5F, 0x00, 0x27, 0x5F, 0x81, 0x70, 0x81, 0x27, 0x00, 0x00, 0x1B, 0x00, 0x00, 0x91, 0x27, 0x5F,
    0x00, 0x33, 0x5F, 0x81, 0x70, 0x81, 0x33, 0x00, 0x00, 0x27, 0x00, 0x81, 0x70, 0x91, 0x27, 0x5F,
    0x00, 0x33, 0x5F, 0x81, 0x70, 0x81, 0x33, 0x00, 0x00, 0x27, 0x00, 0x00, 0x91, 0x25, 0x5F, 0x00,
    0x31, 0x5F, 0x81, 0x70, 0x81, 0x31, 0x00, 0x00, 0x25, 0x00, 0x00, 0x91, 0x27, 0x5F, 0x00, 0x33,
    0x5F, 0x81, 0x70, 0x81, 0x33, 0x00, 0x00, 0x27, 0x00, 0x00, 0x91, 0x1B, 0x5F, 0x00, 0x27, 0x5F,
    0x83, 0x60, 0x81, 0x27, 0x00, 0x00, 0x1B, 0x00, 0x00, 0x91, 0x1B, 0x5F, 0x00, 0x27, 0x5F, 0x81,
    0x70, 0x81, 0x27, 0x00, 0x00, 0x1B, 0x00, 0x00, 0x91, 0x27, 0x5F, 0x00, 0x33, 0x5F, 0x81, 0x70,
    0x81, 0x33, 0x00, 0x00, 0x27, 0x00, 0x81, 0x70, 0x91, 0x27, 0x5F, 0x00, 0x33, 0x5F, 0x81, 0x70,
    0x81, 0x33, 0x00, 0x00, 0x27, 0x00, 0x00, 0x91, 0x25, 0x5F, 0x00, 0x31, 0x5F, 0x81, 0x70, 0x81,
    0x31, 0x00, 0x00, 0x25, 0x00, 0x00, 0x91, 0x27, 0x5F, 0x00, 0x33, 0x5F, 0x81, 0x70, 0x81, 0x33,
    0x00, 0x00, 0x27, 0x00, 0x00, 0x91, 0x1B, 0x5F, 0x00, 0x27, 0x5F, 0x83, 0x60, 0x81, 0x27, 0x00,
    0x00, 0x1B, 0x00, 0x00, 0x91, 0x1B, 0x5F, 0x00, 0x27, 0x5F, 0x81, 0x70, 0x81, 0x27, 0x00, 0x00,
    0x1B, 0x00, 0x00, 0x91, 0x27, 0x5F, 0x00, 0x33, 0x5F, 0x81, 0x70, 0x81, 0x33, 0x00, 0x00, 0x27,
    0x00, 0x81, 0x70, 0x91, 0x27, 0x5F, 0x00, 0x33, 0x5F, 0x81, 0x70, 0x81, 0x33, 0x00, 0x00, 0x27,
    0x00, 0x00, 0x91, 0x25, 0x5F, 0x00, 0x31, 0x5F, 0x81, 0x70, 0x81, 0x31, 0x00, 0x00, 0x25, 0x00,
    0x00, 0x91, 0x27, 0x5F, 0x00, 0x33, 0x5F, 0x81, 0x70, 0x81, 0x33, 0x00, 0x00, 0x27, 0x00, 0x00,
    0x91, 0x20, 0x5F, 0x00, 0x2C, 0x5F, 0x83, 0x60, 0x81, 0x2C, 0x00, 0x00, 0x20, 0x00, 0x00, 0x91,
    0x2A, 0x5F, 0x00, 0x36, 0x5F, 0x81, 0x70, 0x81, 0x36, 0x00, 0x00, 0x2A, 0x00, 0x00, 0x91, 0x2C,
    0x5F, 0x00, 0x38, 0x5F, 0x81, 0x70, 0x81, 0x38, 0x00, 0x00, 0x2C, 0x00, 0x00, 0x91, 0x1E, 0x5F,
    0x00, 0x2A, 0x5F, 0x83, 0x60, 0x81, 0x2A, 0x00, 0x00, 0x1E, 0x00, 0x00, 0x91, 0x27, 0x5F, 0x00,
    0x33, 0x5F, 0x81, 0x70, 0x81, 0x33, 0x00, 0x00, 0x27, 0x00, 0x00, 0x91, 0x2A, 0x5F, 0x00, 0x36,
    0x5F, 0x81, 0x70, 0x81, 0x36, 0x00, 0x00, 0x2A, 0x00, 0x00, 0x91, 0x1B, 0x5F, 0x00, 0x27, 0x5F,
    0x83, 0x60, 0x81, 0x27, 0x00, 0x00, 0x1B, 0x00, 0x00, 0x91, 0x1B, 0x5F, 0x00, 0x27, 0x5F, 0x81,
    0x70, 0x81, 0x27, 0x00, 0x00, 0x1B, 0x00, 0x00, 0x91, 0x27, 0x5F, 0x00, 0x33, 0x5F, 0x81, 0x70,
    0x81, 0x33, 0x00, 0x00, 0x27, 0x00, 0x81, 0x70, 0x91, 0x27, 0x5F, 0x00, 0x33, 0x5F, 0x81, 0x70,
    0x81, 0x33, 0x00, 0x00, 0x27, 0x00, 0x00, 0x91, 0x25, 0x5F, 0x00, 0x31, 0x5F, 0x81, 0x70, 0x81,
    0x31, 0x00, 0x00, 0x25, 0x00, 0x00, 0x91, 0x27, 0x5F, 0x00, 0x33, 0x5F, 0x81, 0x70, 0x81, 0x33,
    0x00, 0x00, 0x27, 0x00, 0x00, 0x91, 0x1B, 0x5F, 0x00, 0x27, 0x5F, 0x83, 0x60, 0x81, 0x27, 0x00,
    0x00, 0x1B, 0x00, 0x00, 0x91, 0x1B, 0x5F, 0x00, 0x27, 0x5F, 0x81, 0x70, 0x81, 0x27, 0x00, 0x00,
    0x1B, 0x00, 0x00, 0x91, 0x27, 0x5F, 0x00, 0x33, 0x5F, 0x81, 0x70, 0x81, 0x33, 0x00, 0x00, 0x27,
    0x00, 0x81, 0x70, 0x91, 0x27, 0x5F, 0x00, 0x33, 0x5F, 0x81, 0x70, 0x81, 0x33, 0x00, 0x00, 0x27,
    0x00, 0x00, 0x91, 0x25, 0x5F, 0x00, 0x31, 0x5F, 0x81, 0x70, 0x81, 0x31, 0x00, 0x00, 0x25, 0x00,
    0x00, 0x91, 0x27, 0x5F, 0x00, 0x33, 0x5F, 0x81, 0x70, 0x81, 0x33, 0x00, 0x00, 0x27, 0x00, 0x00,
    0x91, 0x1B, 0x5F, 0x00, 0x27, 0x5F, 0x83, 0x60, 0x81, 0x27, 0x00, 0x00, 0x1B, 0x00, 0x00, 0x91,
    0x1B, 0x5F, 0x00, 0x27, 0x5F, 0x81, 0x70, 0x81, 0x27, 0x00, 0x00, 0x1B, 0x00, 0x00, 0x91, 0x27,
    0x5F, 0x00, 0x33, 0x5F, 0x81, 0x70, 0x81, 0x33, 0x00, 0x00, 0x27, 0x00, 0x81, 0x70, 0x91, 0x27,
    0x5F, 0x00, 0x33, 0x5F, 0x81, 0x70, 0x81, 0x33, 0x00, 0x00, 0x27, 0x00, 0x00, 0x91, 0x25, 0x5F,
    0x00, 0x31, 0x5F, 0x81, 0x70, 0x81, 0x31, 0x00, 0x00, 0x25, 0x00, 0x00, 0x91, 0x27, 0x5F, 0x00,
    0x33, 0x5F, 0x81, 0x70, 0x81, 0x33, 0x00, 0x00, 0x27, 0x00, 0x00, 0x91, 0x1B, 0x5F, 0x00, 0x27,
    0x5F, 0x83, 0x60, 0x81, 0x27, 0x00, 0x00, 0x1B, 0x00, 0x00, 0x91, 0x27, 0x5F, 0x00, 0x33, 0x5F,
    0x81, 0x70, 0x81, 0x33, 0x00, 0x00, 0x27, 0x00, 0x00, 0x91, 0x2A, 0x5F, 0x00, 0x36, 0x5F, 0x81,
    0x70, 0x81, 0x36, 0x00, 0x00, 0x2A, 0x00, 0x00, 0x91, 0x20, 0x5F, 0x00, 0x2C, 0x5F, 0x83, 0x60,
    0x81, 0x2C, 0x00, 0x00, 0x20, 0x00, 0x00, 0x91, 0x2A, 0x5F, 0x00, 0x36, 0x5F, 0x81, 0x70, 0x81,
    0x36, 0x00, 0x00, 0x2A, 0x00, 0x00, 0x91, 0x2C, 0x5F, 0x00, 0x38, 0x5F, 0x81, 0x70, 0x81, 0x38,
    0x00, 0x00, 0x2C, 0x00, 0x00, 0x91, 0x1B, 0x5F, 0x00, 0x27, 0x5F, 0x83, 0x60, 0x81, 0x27, 0x00,
    0x00, 0x1B, 0x00, 0x00, 0x91, 0x1B, 0x5F, 0x00, 0x27, 0x5F, 0x81, 0x70, 0x81, 0x27, 0x00, 0x00,
    0x1B, 0x00, 0x00, 0x91, 0x27, 0x5F, 0x00, 0x33, 0x5F, 0x81, 0x70, 0x81, 0x33, 0x00, 0x00, 0x27,
    0x00, 0x81, 0x70, 0x91, 0x27, 0x5F, 0x00, 0x33, 0x5F, 0x81, 0x70, 0x81, 0x33, 0x00, 0x00, 0x27,
    0x00, 0x00, 0x91, 0x25, 0x5F, 0x00, 0x31, 0x5F, 0x81, 0x70, 0x81, 0x31, 0x00, 0x00, 0x25, 0x00,
    0x00, 0x91, 0x27, 0x5F, 0x00, 0x33, 0x5F, 0x81, 0x70, 0x81, 0x33, 0x00, 0x00, 0x27, 0x00, 0x00,
    0x91, 0x1B, 0x5F, 0x00, 0x27, 0x5F, 0x83, 0x60, 0x81, 0x27, 0x00, 0x00, 0x1B, 0x00, 0x00, 0x91,
    0x1B, 0x5F, 0x00, 0x27, 0x5F, 0x81, 0x70, 0x81, 0x27, 0x00, 0x00, 0x1B, 0x00, 0x00, 0x91, 0x27,
    0x5F, 0x00, 0x33, 0x5F, 0x81, 0x70, 0x81, 0x33, 0x00, 0x00, 0x27, 0x00, 0x81, 0x70, 0x91, 0x27,
    0x5F, 0x00, 0x33, 0x5F, 0x81, 0x70, 0x81, 0x33, 0x00, 0x00, 0x27, 0x00, 0x00, 0x91, 0x25, 0x5F,
    0x00, 0x31, 0x5F, 0x81, 0x70, 0x81, 0x31, 0x00, 0x00, 0x25, 0x00, 0x00, 0x91, 0x27, 0x5F, 0x00,
    0x33, 0x5F, 0x81, 0x70, 0x81, 0x33, 0x00, 0x00, 0x27, 0x00, 0x00, 0x91, 0x1B, 0x5F, 0x00, 0x27,
    0x5F, 0x83, 0x60, 0x81, 0x27, 0x00, 0x00, 0x1B, 0x00, 0x00, 0x91, 0x1B, 0x5F, 0x00, 0x27, 0x5F,
    0x81, 0x70, 0x81, 0x27, 0x00, 0x00, 0x1B, 0x00, 0x00, 0x91, 0x27, 0x5F, 0x00, 0x33, 0x5F, 0x81,
    0x70, 0x81, 0x33, 0x00, 0x00, 0x27, 0x00, 0x81, 0x70, 0x91, 0x27, 0x5F, 0x00, 0x33, 0x5F, 0x81,
    0x70, 0x81, 0x33, 0x00, 0x00, 0x27, 0x00, 0x00, 0x91, 0x25, 0x5F, 0x00, 0x31, 0x5F, 0x81, 0x70,
    0x81, 0x31, 0x00, 0x00, 0x25, 0x00, 0x00, 0x91, 0x27, 0x5F, 0x00, 0x33, 0x5F, 0x81, 0x70, 0x81,
    0x33, 0x00, 0x00, 0x27, 0x00, 0x00, 0x91, 0x20, 0x5F, 0x00, 0x2C, 0x5F, 0x83, 0x60, 0x81, 0x2C,
    0x00, 0x00, 0x20, 0x00, 0x00, 0x91, 0x2A, 0x5F, 0x00, 0x36, 0x5F, 0x81, 0x70, 0x81, 0x36, 0x00,
    0x00, 0x2A, 0x00, 0x00, 0x91, 0x2C, 0x5F, 0x00, 0x38, 0x5F, 0x81, 0x70, 0x81, 0x38, 0x00, 0x00,
    0x2C, 0x00, 0x00, 0x91, 0x1E, 0x5F, 0x00, 0x2A, 0x5F, 0x83, 0x60, 0x81, 0x2A, 0x00, 0x00, 0x1E,
    0x00, 0x00, 0x91, 0x27, 0x5F, 0x00, 0x33, 0x5F, 0x81, 0x70, 0x81, 0x33, 0x00, 0x00, 0x27, 0x00,
    0x00, 0x91, 0x2A, 0x5F, 0x00, 0x36, 0x5F, 0x81, 0x70, 0x81, 0x36, 0x00, 0x00, 0x2A, 0x00, 0x00,
    0x91, 0x1B, 0x5F, 0x00, 0x27, 0x5F, 0x83, 0x60, 0x81, 0x27, 0x00, 0x00, 0x1B, 0x00, 0x00, 0x91,
    0x1B, 0x5F, 0x00, 0x27, 0x5F, 0x81, 0x70, 0x81, 0x27, 0x00, 0x00, 0x1B, 0x00, 0x00, 0x91, 0x27,
    0x5F, 0x00, 0x33, 0x5F, 0x81, 0x70, 0x81, 0x33, 0x00, 0x00, 0x27, 0x00, 0x81, 0x70, 0x91, 0x27,
    0x5F, 0x00, 0x33, 0x5F, 0x81, 0x70, 0x81, 0x33, 0x00, 0x00, 0x27, 0x00, 0x00, 0x91, 0x25, 0x5F,
    0x00, 0x31, 0x5F, 0x81, 0x70, 0x81, 0x31, 0x00, 0x00, 0x25, 0x00, 0x00, 0x91, 0x27, 0x5F, 0x00,
    0x33, 0x5F, 0x81, 0x70, 0x81, 0x33, 0x00, 0x00, 0x27, 0x00, 0x00, 0x91, 0x1B, 0x5F, 0x00, 0x27,
    0x5F, 0x83, 0x60, 0x81, 0x27, 0x00, 0x00, 0x1B, 0x00, 0x00, 0x91, 0x1B, 0x5F, 0x00, 0x27, 0x5F,
    0x81, 0x70, 0x81, 0x27, 0x00, 0x00, 0x1B, 0x00, 0x00, 0x91, 0x27, 0x5F, 0x00, 0x33, 0x5F, 0x81,
    0x70, 0x81, 0x33, 0x00, 0x00, 0x27, 0x00, 0x81, 0x70, 0x91, 0x27, 0x5F, 0x00, 0x33, 0x5F, 0x81,
    0x70, 0x81, 0x33, 0x00, 0x00, 0x27, 0x00, 0x00, 0x91, 0x25, 0x5F, 0x00, 0x31, 0x5F, 0x81, 0x70,
    0x81, 0x31, 0x00, 0x00, 0x25, 0x00, 0x00, 0x91, 0x27, 0x5F, 0x00, 0x33, 0x5F, 0x81, 0x70, 0x81,
    0x33, 0x00, 0x00, 0x27, 0x00, 0x00, 0x91, 0x1B, 0x5F, 0x00, 0x27, 0x5F, 0x83, 0x60, 0x81, 0x27,
    0x00, 0x00, 0x1B, 0x00, 0x00, 0x91, 0x1B, 0x5F, 0x00, 0x27, 0x5F, 0x81, 0x70, 0x81, 0x27, 0x00,
    0x00, 0x1B, 0x00, 0x00, 0x91, 0x27, 0x5F, 0x00, 0x33, 0x5F, 0x81, 0x70, 0x81, 0x33, 0x00, 0x00,
    0x27, 0x00, 0x81, 0x70, 0x91, 0x27, 0x5F, 0x00, 0x33, 0x5F, 0x81, 0x70, 0x81, 0x33, 0x00, 0x00,
    0x27, 0x00, 0x00, 0x91, 0x25, 0x5F, 0x00, 0x31, 0x5F, 0x81, 0x70, 0x81, 0x31, 0x00, 0x00, 0x25,
    0x00, 0x00, 0x91, 0x27, 0x5F, 0x00, 0x33, 0x5F, 0x81, 0x70, 0x81, 0x33, 0x00, 0x00, 0x27, 0x00,
    0x00, 0x91, 0x1B, 0x5F, 0x00, 0x27, 0x5F, 0x83, 0x60, 0x81, 0x27, 0x00, 0x00, 0x1B, 0x00, 0x00,
    0x91, 0x27, 0x5F, 0x00, 0x33, 0x5F, 0x81, 0x70, 0x81, 0x33, 0x00, 0x00, 0x27, 0x00, 0x00, 0x91,
    0x2A, 0x5F, 0x00, 0x36, 0x5F, 0x81, 0x70, 0x81, 0x36, 0x00, 0x00, 0x2A, 0x00, 0x00, 0x91, 0x20,
    0x5F, 0x00, 0x2C, 0x5F, 0x83, 0x60, 0x81, 0x2C, 0x00, 0x00, 0x20, 0x00, 0x00, 0x91, 0x2A, 0x5F,
    0x00, 0x36, 0x5F, 0x81, 0x70, 0x81, 0x36, 0x00, 0x00, 0x2A, 0x00, 0x00, 0x91, 0x2C, 0x5F, 0x00,
    0x38, 0x5F, 0x81, 0x70, 0x81, 0x38, 0x00, 0x00, 0x2C, 0x00, 0x00, 0x91, 0x17, 0x5F, 0x00, 0x23,
    0x5F, 0x83, 0x60, 0x81, 0x23, 0x00, 0x00, 0x17, 0x00, 0x00, 0x91, 0x17, 0x5F, 0x00, 0x23, 0x5F,
    0x81, 0x70, 0x81, 0x23, 0x00, 0x00, 0x17, 0x00, 0x00, 0x91, 0x23, 0x5F, 0x00, 0x2F, 0x5F, 0x81,
    0x70, 0x81, 0x2F, 0x00, 0x00, 0x23, 0x00, 0x81, 0x70, 0x91, 0x23, 0x5F, 0x00, 0x2F, 0x5F, 0x81,
    0x70, 0x81, 0x2F, 0x00, 0x00, 0x23, 0x00, 0x00, 0x91, 0x22, 0x5F, 0x00, 0x2E, 0x5F, 0x81, 0x70,
    0x81, 0x2E, 0x00, 0x00, 0x22, 0x00, 0x00, 0x91, 0x23, 0x5F, 0x00, 0x2F, 0x5F, 0x81, 0x70, 0x81,
    0x2F, 0x00, 0x00, 0x23, 0x00, 0x00, 0x91, 0x17, 0x5F, 0x00, 0x23, 0x5F, 0x83, 0x60, 0x81, 0x23,
    0x00, 0x00, 0x17, 0x00, 0x00, 0x91, 0x17, 0x5F, 0x00, 0x23, 0x5F, 0x81, 0x70, 0x81, 0x23, 0x00,
    0x00, 0x17, 0x00, 0x00, 0x91, 0x23, 0x5F, 0x00, 0x2F, 0x5F, 0x81, 0x70, 0x81, 0x2F, 0x00, 0x00,
    0x23, 0x00, 0x81, 0x70, 0x91, 0x23, 0x5F, 0x00, 0x2F, 0x5F, 0x81, 0x70, 0x81, 0x2F, 0x00, 0x00,
    0x23, 0x00, 0x00, 0x91, 0x22, 0x5F, 0x00, 0x2E, 0x5F, 0x81, 0x70, 0x81, 0x2E, 0x00, 0x00, 0x22,
    0x00, 0x00, 0x91, 0x23, 0x5F, 0x00, 0x2F, 0x5F, 0x81, 0x70, 0x81, 0x2F, 0x00, 0x00, 0x23, 0x00,
    0x00, 0x91, 0x19, 0x5F, 0x00, 0x25, 0x5F, 0x83, 0x60, 0x81, 0x25, 0x00, 0x00, 0x19, 0x00, 0x00,
    0x91, 0x19, 0x5F, 0x00, 0x25, 0x5F, 0x81, 0x70, 0x81, 0x25, 0x00, 0x00, 0x19, 0x00, 0x00, 0x91,
    0x25, 0x5F, 0x00, 0x31, 0x5F, 0x81, 0x70, 0x81, 0x31, 0x00, 0x00, 0x25, 0x00, 0x81, 0x70, 0x91,
    0x25, 0x5F, 0x00, 0x31, 0x5F, 0x81, 0x70, 0x81, 0x31, 0x00, 0x00, 0x25, 0x00, 0x00, 0x91, 0x23,
    0x5F, 0x00, 0x2F, 0x5F, 0x81, 0x70, 0x81, 0x2F, 0x00, 0x00, 0x23, 0x00, 0x00, 0x91, 0x25, 0x5F,
    0x00, 0x31, 0x5F, 0x81, 0x70, 0x81, 0x31, 0x00, 0x00, 0x25, 0x00, 0x00, 0x91, 0x1A, 0x5F, 0x00,
    0x26, 0x5F, 0x83, 0x60, 0x81, 0x26, 0x00, 0x00, 0x1A, 0x00, 0x00, 0x91, 0x1A, 0x5F, 0x00, 0x26,
    0x5F, 0x81, 0x70, 0x81, 0x26, 0x00, 0x00, 0x1A, 0x00, 0x00, 0x91, 0x26, 0x5F, 0x00, 0x32, 0x5F,
    0x81, 0x70, 0x81, 0x32, 0x00, 0x00, 0x26, 0x00, 0x81, 0x70, 0x91, 0x26, 0x5F, 0x00, 0x32, 0x5F,
    0x81, 0x70, 0x81, 0x32, 0x00, 0x00, 0x26, 0x00, 0x00, 0x91, 0x22, 0x5F, 0x00, 0x2E, 0x5F, 0x81,
    0x70, 0x81, 0x2E, 0x00, 0x00, 0x22, 0x00, 0x00, 0x91, 0x26, 0x5F, 0x00, 0x32, 0x5F, 0x81, 0x70,
    0x81, 0x32, 0x00, 0x00, 0x26, 0x00, 0x00, 0x91, 0x1B, 0x5F, 0x00, 0x27, 0x5F, 0x83, 0x60, 0x81,
    0x27, 0x00, 0x00, 0x1B, 0x00, 0x00, 0x91, 0x1B, 0x5F, 0x00, 0x27, 0x5F, 0x81, 0x70, 0x81, 0x27,
    0x00, 0x00, 0x1B, 0x00, 0x00, 0x91, 0x27, 0x5F, 0x00, 0x33, 0x5F, 0x81, 0x70, 0x81, 0x33, 0x00,
    0x00, 0x27, 0x00, 0x81, 0x70, 0x91, 0x27, 0x5F, 0x00, 0x33, 0x5F, 0x81, 0x70, 0x81, 0x33, 0x00,
    0x00, 0x27, 0x00, 0x00, 0x91, 0x25, 0x5F, 0x00, 0x31, 0x5F, 0x81, 0x70, 0x81, 0x31, 0x00, 0x00,
    0x25, 0x00, 0x00, 0x91, 0x27, 0x5F, 0x00, 0x33, 0x5F, 0x81, 0x70, 0x81, 0x33, 0x00, 0x00, 0x27,
    0x00, 0x00, 0x91, 0x1B, 0x5F, 0x00, 0x27, 0x5F, 0x83, 0x60, 0x81, 0x27, 0x00, 0x00, 0x1B, 0x00,
    0x00, 0x91, 0x1B, 0x5F, 0x00, 0x27, 0x5F, 0x81, 0x70, 0x81, 0x27, 0x00, 0x00, 0x1B, 0x00, 0x00,
    0x91, 0x27, 0x5F, 0x00, 0x33, 0x5F, 0x81, 0x70, 0x81, 0x33, 0x00, 0x00, 0x27, 0x00, 0x81, 0x70,
    0x91, 0x27, 0x5F, 0x00, 0x33, 0x5F, 0x81, 0x70, 0x81, 0x33, 0x00, 0x00, 0x27, 0x00, 0x00, 0x91,
    0x25, 0x5F, 0x00, 0x31, 0x5F, 0x81, 0x70, 0x81, 0x31, 0x00, 0x00, 0x25, 0x00, 0x00, 0x91, 0x27,
    0x5F, 0x00, 0x33, 0x5F, 0x81, 0x70, 0x81, 0x33, 0x00, 0x00, 0x27, 0x00, 0x00, 0x91, 0x1B, 0x5F,
    0x00, 0x27, 0x5F, 0x83, 0x60, 0x81, 0x27, 0x00, 0x00, 0x1B, 0x00, 0x00, 0x91, 0x1B, 0x5F, 0x00,
    0x27, 0x5F, 0x81, 0x70, 0x81, 0x27, 0x00, 0x00, 0x1B, 0x00, 0x00, 0x91, 0x27, 0x5F, 0x00, 0x33,
    0x5F, 0x81, 0x70, 0x81, 0x33, 0x00, 0x00, 0x27, 0x00, 0x81, 0x70, 0x91, 0x27, 0x5F, 0x00, 0x33,
    0x5F, 0x81, 0x70, 0x81, 0x33, 0x00, 0x00, 0x27, 0x00, 0x00, 0x91, 0x25, 0x5F, 0x00, 0x31, 0x5F,
    0x81, 0x70, 0x81, 0x31, 0x00, 0x00, 0x25, 0x00, 0x00, 0x91, 0x27, 0x5F, 0x00, 0x33, 0x5F, 0x81,
    0x70, 0x81, 0x33, 0x00, 0x00, 0x27, 0x00, 0x00, 0x91, 0x1B, 0x5F, 0x00, 0x27, 0x5F, 0x83, 0x60,
    0x81, 0x27, 0x00, 0x00, 0x1B, 0x00, 0x00, 0x91, 0x27, 0x5F, 0x00, 0x33, 0x5F, 0x81, 0x70, 0x81,
    0x33, 0x00, 0x00, 0x27, 0x00, 0x00, 0x91, 0x2A, 0x5F, 0x00, 0x36, 0x5F, 0x81, 0x70, 0x81, 0x36,
    0x00, 0x00, 0x2A, 0x00, 0x00, 0x91, 0x20, 0x5F, 0x00, 0x2C, 0x5F, 0x83, 0x60, 0x81, 0x2C, 0x00,
    0x00, 0x20, 0x00, 0x00, 0x91, 0x2A, 0x5F, 0x00, 0x36, 0x5F, 0x81, 0x70, 0x81, 0x36, 0x00, 0x00,
    0x2A, 0x00, 0x00, 0x91, 0x2C, 0x5F, 0x00, 0x38, 0x5F, 0x81, 0x70, 0x81, 0x38, 0x00, 0x00, 0x2C,
    0x00, 0x00, 0x91, 0x17, 0x5F, 0x00, 0x23, 0x5F, 0x83, 0x60, 0x81, 0x23, 0x00, 0x00, 0x17, 0x00,
    0x00, 0x91, 0x17, 0x5F, 0x00, 0x23, 0x5F, 0x81, 0x70, 0x81, 0x23, 0x00, 0x00, 0x17, 0x00, 0x00,
    0x91, 0x23, 0x5F, 0x00, 0x2F, 0x5F, 0x81, 0x70, 0x81, 0x2F, 0x00, 0x00, 0x23, 0x00, 0x81, 0x70,
    0x91, 0x23, 0x5F, 0x00, 0x2F, 0x5F, 0x81, 0x70, 0x81, 0x2F, 0x00, 0x00, 0x23, 0x00, 0x00, 0x91,
    0x22, 0x5F, 0x00, 0x2E, 0x5F, 0x81, 0x70, 0x81, 0x2E, 0x00, 0x00, 0x22, 0x00, 0x00, 0x91, 0x23,
    0x5F, 0x00, 0x2F, 0x5F, 0x81, 0x70, 0x81, 0x2F, 0x00, 0x00, 0x23, 0x00, 0x00, 0x91, 0x17, 0x5F,
    0x00, 0x23, 0x5F, 0x83, 0x60, 0x81, 0x23, 0x00, 0x00, 0x17, 0x00, 0x00, 0x91, 0x17, 0x5F, 0x00,
    0x23, 0x5F, 0x81, 0x70, 0x81, 0x23, 0x00, 0x00, 0x17, 0x00, 0x00, 0x91, 0x23, 0x5F, 0x00, 0x2F,
    0x5F, 0x81, 0x70, 0x81, 0x2F, 0x00, 0x00, 0x23, 0x00, 0x81, 0x70, 0x91, 0x23, 0x5F, 0x00, 0x2F,
    0x5F, 0x81, 0x70, 0x81, 0x2F, 0x00, 0x00, 0x23, 0x00, 0x00, 0x91, 0x22, 0x5F, 0x00, 0x2E, 0x5F,
    0x81, 0x70, 0x81, 0x2E, 0x00, 0x00, 0x22, 0x00, 0x00, 0x91, 0x23, 0x5F, 0x00, 0x2F, 0x5F, 0x81,
    0x70, 0x81, 0x2F, 0x00, 0x00, 0x23, 0x00, 0x00, 0x91, 0x19, 0x5F, 0x00, 0x25, 0x5F, 0x83, 0x60,
    0x81, 0x25, 0x00, 0x00, 0x19, 0x00, 0x00, 0x91, 0x19, 0x5F, 0x00, 0x25, 0x5F, 0x81, 0x70, 0x81,
    0x25, 0x00, 0x00, 0x19, 0x00, 0x00, 0x91, 0x25, 0x5F, 0x00, 0x31, 0x5F, 0x81, 0x70, 0x81, 0x31,
    0x00, 0x00, 0x25, 0x00, 0x81, 0x70, 0x91, 0x25, 0x5F, 0x00, 0x31, 0x5F, 0x81, 0x70, 0x81, 0x31,
    0x00, 0x00, 0x25, 0x00, 0x00, 0x91, 0x23, 0x5F, 0x00, 0x2F, 0x5F, 0x81, 0x70, 0x81, 0x2F, 0x00,
    0x00, 0x23, 0x00, 0x00, 0x91, 0x25, 0x5F, 0x00, 0x31, 0x5F, 0x81, 0x70, 0x81, 0x31, 0x00, 0x00,
    0x25, 0x00, 0x00, 0x91, 0x1A, 0x5F, 0x00, 0x26, 0x5F, 0x83, 0x60, 0x81, 0x26, 0x00, 0x00, 0x1A,
    0x00, 0x00, 0x91, 0x1A, 0x5F, 0x00, 0x26, 0x5F, 0x81, 0x70, 0x81, 0x26, 0x00, 0x00, 0x1A, 0x00,
    0x00, 0x91, 0x26, 0x5F, 0x00, 0x32, 0x5F, 0x81, 0x70, 0x81, 0x32, 0x00, 0x00, 0x26, 0x00, 0x81,
    0x70, 0x91, 0x26, 0x5F, 0x00, 0x32, 0x5F, 0x81, 0x70, 0x81, 0x32, 0x00, 0x00, 0x26, 0x00, 0x00,
    0x91, 0x22, 0x5F, 0x00, 0x2E, 0x5F, 0x81, 0x70, 0x81, 0x2E, 0x00, 0x00, 0x22, 0x00, 0x00, 0x91,
    0x26, 0x5F, 0x00, 0x32, 0x5F, 0x81, 0x70, 0x81, 0x32, 0x00, 0x00, 0x26, 0x00, 0x00, 0x91, 0x1B,
    0x5F, 0x00, 0x27, 0x5F, 0x83, 0x60, 0x81, 0x27, 0x00, 0x00, 0x1B, 0x00, 0x00, 0x91, 0x1B, 0x5F,
    0x00, 0x27, 0x5F, 0x81, 0x70, 0x81, 0x27, 0x00, 0x00, 0x1B, 0x00, 0x00, 0x91, 0x27, 0x5F, 0x00,
    0x33, 0x5F, 0x81, 0x70, 0x81, 0x33, 0x00, 0x00, 0x27, 0x00, 0x81, 0x70, 0x91, 0x27, 0x5F, 0x00,
    0x33, 0x5F, 0x81, 0x70, 0x81, 0x33, 0x00, 0x00, 0x27, 0x00, 0x00, 0x91, 0x25, 0x5F, 0x00, 0x31,
    0x5F, 0x81, 0x70, 0x81, 0x31, 0x00, 0x00, 0x25, 0x00, 0x00, 0x91, 0x27, 0x5F, 0x00, 0x33, 0x5F,
    0x81, 0x70, 0x81, 0x33, 0x00, 0x00, 0x27, 0x00, 0x00, 0x91, 0x1B, 0x5F, 0x00, 0x27, 0x5F, 0x83,
    0x60, 0x81, 0x27, 0x00, 0x00, 0x1B, 0x00, 0x00, 0x91, 0x1B, 0x5F, 0x00, 0x27, 0x5F, 0x81, 0x70,
    0x81, 0x27, 0x00, 0x00, 0x1B, 0x00, 0x00, 0x91, 0x27, 0x5F, 0x00, 0x33, 0x5F, 0x81, 0x70, 0x81,
    0x33, 0x00, 0x00, 0x27, 0x00, 0x81, 0x70, 0x91, 0x27, 0x5F, 0x00, 0x33, 0x5F, 0x81, 0x70, 0x81,
    0x33, 0x00, 0x00, 0x27, 0x00, 0x00, 0x91, 0x25, 0x5F, 0x00, 0x31, 0x5F, 0x81, 0x70, 0x81, 0x31,
    0x00, 0x00, 0x25, 0x00, 0x00, 0x91, 0x27, 0x5F, 0x00, 0x33, 0x5F, 0x81, 0x70, 0x81, 0x33, 0x00,
    0x00, 0x27, 0x00, 0x00, 0x91, 0x1B, 0x5F, 0x00, 0x27, 0x5F, 0x83, 0x60, 0x81, 0x27, 0x00, 0x00,
    0x1B, 0x00, 0x00, 0x91, 0x1B, 0x5F, 0x00, 0x27, 0x5F, 0x81, 0x70, 0x81, 0x27, 0x00, 0x00, 0x1B,
    0x00, 0x00, 0x91, 0x27, 0x5F, 0x00, 0x33, 0x5F, 0x81, 0x70, 0x81, 0x33, 0x00, 0x00, 0x27, 0x00,
    0x81, 0x70, 0x91, 0x27, 0x5F, 0x00, 0x33, 0x5F, 0x81, 0x70, 0x81, 0x33, 0x00, 0x00, 0x27, 0x00,
    0x00, 0x91, 0x25, 0x5F, 0x00, 0x31, 0x5F, 0x81, 0x70, 0x81, 0x31, 0x00, 0x00, 0x25, 0x00, 0x00,
    0x91, 0x27, 0x5F, 0x00, 0x33, 0x5F, 0x81, 0x70, 0x81, 0x33, 0x00, 0x00, 0x27, 0x00, 0x00, 0x91,
    0x1B, 0x5F, 0x00, 0x27, 0x5F, 0x83, 0x60, 0x81, 0x27, 0x00, 0x00, 0x1B, 0x00, 0x00, 0x91, 0x27,
    0x5F, 0x00, 0x33, 0x5F, 0x81, 0x70, 0x81, 0x33, 0x00, 0x00, 0x27, 0x00, 0x00, 0x91, 0x2A, 0x5F,
    0x00, 0x36, 0x5F, 0x81, 0x70, 0x81, 0x36, 0x00, 0x00, 0x2A, 0x00, 0x00, 0x91, 0x20, 0x5F, 0x00,
    0x2C, 0x5F, 0x83, 0x60, 0x81, 0x2C, 0x00, 0x00, 0x20, 0x00, 0x00, 0x91, 0x2A, 0x5F, 0x00, 0x36,
    0x5F, 0x81, 0x70, 0x81, 0x36, 0x00, 0x00, 0x2A, 0x00, 0x00, 0x91, 0x2C, 0x5F, 0x00, 0x38, 0x5F,
    0x81, 0x70, 0x81, 0x38, 0x00, 0x00, 0x2C, 0x00, 0x00, 0x91, 0x17, 0x5F, 0x00, 0x23, 0x5F, 0x83,
    0x60, 0x81, 0x23, 0x00, 0x00, 0x17, 0x00, 0x00, 0x91, 0x17, 0x5F, 0x00, 0x23, 0x5F, 0x81, 0x70,
    0x81, 0x23, 0x00, 0x00, 0x17, 0x00, 0x00, 0x91, 0x23, 0x5F, 0x00, 0x2F, 0x5F, 0x81, 0x70, 0x81,
    0x2F, 0x00, 0x00, 0x23, 0x00, 0x81, 0x70, 0x91, 0x23, 0x5F, 0x00, 0x2F, 0x5F, 0x81, 0x70, 0x81,
    0x2F, 0x00, 0x00, 0x23, 0x00, 0x00, 0x91, 0x22, 0x5F, 0x00, 0x2E, 0x5F, 0x81, 0x70, 0x81, 0x2E,
    0x00, 0x00, 0x22, 0x00, 0x00, 0x91, 0x23, 0x5F, 0x00, 0x2F, 0x5F, 0x81, 0x70, 0x81, 0x2F, 0x00,
    0x00, 0x23, 0x00, 0x00, 0x91, 0x17, 0x5F, 0x00, 0x23, 0x5F, 0x83, 0x60, 0x81, 0x23, 0x00, 0x00,
    0x17, 0x00, 0x00, 0x91, 0x17, 0x5F, 0x00, 0x23, 0x5F, 0x81, 0x70, 0x81, 0x23, 0x00, 0x00, 0x17,
    0x00, 0x00, 0x91, 0x23, 0x5F, 0x00, 0x2F, 0x5F, 0x81, 0x70, 0x81, 0x2F, 0x00, 0x00, 0x23, 0x00,
    0x81, 0x70, 0x91, 0x23, 0x5F, 0x00, 0x2F, 0x5F, 0x81, 0x70, 0x81, 0x2F, 0x00, 0x00, 0x23, 0x00,
    0x00, 0x91, 0x22, 0x5F, 0x00, 0x2E, 0x5F, 0x81, 0x70, 0x81, 0x2E, 0x00, 0x00, 0x22, 0x00, 0x00,
    0x91, 0x23, 0x5F, 0x00, 0x2F, 0x5F, 0x81, 0x70, 0x81, 0x2F, 0x00, 0x00, 0x23, 0x00, 0x00, 0x91,
    0x19, 0x5F, 0x00, 0x25, 0x5F, 0x83, 0x60, 0x81, 0x25, 0x00, 0x00, 0x19, 0x00, 0x00, 0x91, 0x19,
    0x5F, 0x00, 0x25, 0x5F, 0x81, 0x70, 0x81, 0x25, 0x00, 0x00, 0x19, 0x00, 0x00, 0x91, 0x25, 0x5F,
    0x00, 0x31, 0x5F, 0x81, 0x70, 0x81, 0x31, 0x00, 0x00, 0x25, 0x00, 0x81, 0x70, 0x91, 0x25, 0x5F,
    0x00, 0x31, 0x5F, 0x81, 0x70, 0x81, 0x31, 0x00, 0x00, 0x25, 0x00, 0x00, 0x91, 0x23, 0x5F, 0x00,
    0x2F, 0x5F, 0x81, 0x70, 0x81, 0x2F, 0x00, 0x00, 0x23, 0x00, 0x00, 0x91, 0x25, 0x5F, 0x00, 0x31,
    0x5F, 0x81, 0x70, 0x81, 0x31, 0x00, 0x00, 0x25, 0x00, 0x00, 0x91, 0x1A, 0x5F, 0x00, 0x26, 0x5F,
    0x83, 0x60, 0x81, 0x26, 0x00, 0x00, 0x1A, 0x00, 0x00, 0x91, 0x1A, 0x5F, 0x00, 0x26, 0x5F, 0x81,
    0x70, 0x81, 0x26, 0x00, 0x00, 0x1A, 0x00, 0x00, 0x91, 0x26, 0x5F, 0x00, 0x32, 0x5F, 0x81, 0x70,
    0x81, 0x32, 0x00, 0x00, 0x26, 0x00, 0x81, 0x70, 0x91, 0x26, 0x5F, 0x00, 0x32, 0x5F, 0x81, 0x70,
    0x81, 0x32, 0x00, 0x00, 0x26, 0x00, 0x00, 0x91, 0x22, 0x5F, 0x00, 0x2E, 0x5F, 0x81, 0x70, 0x81,
    0x2E, 0x00, 0x00, 0x22, 0x00, 0x00, 0x91, 0x26, 0x5F, 0x00, 0x32, 0x5F, 0x81, 0x70, 0x81, 0x32,
    0x00, 0x00, 0x26, 0x00, 0x00, 0x91, 0x1B, 0x5F, 0x00, 0x27, 0x5F, 0x83, 0x60, 0x81, 0x27, 0x00,
    0x00, 0x1B, 0x00, 0x00, 0x91, 0x1B, 0x5F, 0x00, 0x27, 0x5F, 0x81, 0x70, 0x81, 0x27, 0x00, 0x00,
    0x1B, 0x00, 0x00, 0x91, 0x27, 0x5F, 0x00, 0x33, 0x5F, 0x81, 0x70, 0x81, 0x33, 0x00, 0x00, 0x27,
    0x00, 0x81, 0x70, 0x91, 0x27, 0x5F, 0x00, 0x33, 0x5F, 0x81, 0x70, 0x81, 0x33, 0x00, 0x00, 0x27,
    0x00, 0x00, 0x91, 0x25, 0x5F, 0x00, 0x31, 0x5F, 0x81, 0x70, 0x81, 0x31, 0x00, 0x00, 0x25, 0x00,
    0x00, 0x91, 0x27, 0x5F, 0x00, 0x33, 0x5F, 0x81, 0x70, 0x81, 0x33, 0x00, 0x00, 0x27, 0x00, 0x00,
    0x91, 0x1B, 0x5F, 0x00, 0x27, 0x5F, 0x83, 0x60, 0x81, 0x27, 0x00, 0x00, 0x1B, 0x00, 0x00, 0x91,
    0x1B, 0x5F, 0x00, 0x27, 0x5F, 0x81, 0x70, 0x81, 0x27, 0x00, 0x00, 0x1B, 0x00, 0x00, 0x91, 0x27,
    0x5F, 0x00, 0x33, 0x5F, 0x81, 0x70, 0x81, 0x33, 0x00, 0x00, 0x27, 0x00, 0x81, 0x70, 0x91, 0x27,
    0x5F, 0x00, 0x33, 0x5F, 0x81, 0x70, 0x81, 0x33, 0x00, 0x00, 0x27, 0x00, 0x00, 0x91, 0x25, 0x5F,
    0x00, 0x31, 0x5F, 0x81, 0x70, 0x81, 0x31, 0x00, 0x00, 0x25, 0x00, 0x00, 0x91, 0x27, 0x5F, 0x00,
    0x33, 0x5F, 0x81, 0x70, 0x81, 0x33, 0x00, 0x00, 0x27, 0x00, 0x00, 0x91, 0x1B, 0x5F, 0x00, 0x27,
    0x5F, 0x83, 0x60, 0x81, 0x27, 0x00, 0x00, 0x1B, 0x00, 0x00, 0x91, 0x1B, 0x5F, 0x00, 0x27, 0x5F,
    0x81, 0x70, 0x81, 0x27, 0x00, 0x00, 0x1B, 0x00, 0x00, 0x91, 0x27, 0x5F, 0x00, 0x33, 0x5F, 0x81,
    0x70, 0x81, 0x33, 0x00, 0x00, 0x27, 0x00, 0x81, 0x70, 0x91, 0x27, 0x5F, 0x00, 0x33, 0x5F, 0x81,
    0x70, 0x81, 0x33, 0x00, 0x00, 0x27, 0x00, 0x00, 0x91, 0x25, 0x5F, 0x00, 0x31, 0x5F, 0x81, 0x70,
    0x81, 0x31, 0x00, 0x00, 0x25, 0x00, 0x00, 0x91, 0x27, 0x5F, 0x00, 0x33, 0x5F, 0x81, 0x70, 0x81,
    0x33, 0x00, 0x00, 0x27, 0x00, 0x00, 0x91, 0x1B, 0x5F, 0x00, 0x27, 0x5F, 0x83, 0x60, 0x81, 0x27,
    0x00, 0x00, 0x1B, 0x00, 0x00, 0x91, 0x27, 0x5F, 0x00, 0x33, 0x5F, 0x81, 0x70, 0x81, 0x33, 0x00,
    0x00, 0x27, 0x00, 0x00, 0x91, 0x2A, 0x5F, 0x00, 0x36, 0x5F, 0x81, 0x70, 0x81, 0x36, 0x00, 0x00,
    0x2A, 0x00, 0x00, 0x91, 0x20, 0x5F, 0x00, 0x2C, 0x5F, 0x83, 0x60, 0x81, 0x2C, 0x00, 0x00, 0x20,
    0x00, 0x00, 0x91, 0x2A, 0x5F, 0x00, 0x36, 0x5F, 0x81, 0x70, 0x81, 0x36, 0x00, 0x00, 0x2A, 0x00,
    0x00, 0x91, 0x2C, 0x5F, 0x00, 0x38, 0x5F, 0x81, 0x70, 0x81, 0x38, 0x00, 0x00, 0x2C, 0x00, 0x00,
    0x91, 0x17, 0x5F, 0x00, 0x23, 0x5F, 0x83, 0x60, 0x81, 0x23, 0x00, 0x00, 0x17, 0x00, 0x00, 0x91,
    0x17, 0x5F, 0x00, 0x23, 0x5F, 0x81, 0x70, 0x81, 0x23, 0x00, 0x00, 0x17, 0x00, 0x00, 0x91, 0x23,
    0x5F, 0x00, 0x2F, 0x5F, 0x81, 0x70, 0x81, 0x2F, 0x00, 0x00, 0x23, 0x00, 0x81, 0x70, 0x91, 0x23,
    0x5F, 0x00, 0x2F, 0x5F, 0x81, 0x70, 0x81, 0x2F, 0x00, 0x00, 0x23, 0x00, 0x00, 0x91, 0x22, 0x5F,
    0x00, 0x2E, 0x5F, 0x81, 0x70, 0x81, 0x2E, 0x00, 0x00, 0x22, 0x00, 0x00, 0x91, 0x23, 0x5F, 0x00,
    0x2F, 0x5F, 0x81, 0x70, 0x81, 0x2F, 0x00, 0x00, 0x23, 0x00, 0x00, 0x91, 0x17, 0x5F, 0x00, 0x23,
    0x5F, 0x83, 0x60, 0x81, 0x23, 0x00, 0x00, 0x17, 0x00, 0x00, 0x91, 0x17, 0x5F, 0x00, 0x23, 0x5F,
    0x81, 0x70, 0x81, 0x23, 0x00, 0x00, 0x17, 0x00, 0x00, 0x91, 0x23, 0x5F, 0x00, 0x2F, 0x5F, 0x81,
    0x70, 0x81, 0x2F, 0x00, 0x00, 0x23, 0x00, 0x81, 0x70, 0x91, 0x23, 0x5F, 0x00, 0x2F, 0x5F, 0x81,
    0x70, 0x81, 0x2F, 0x00, 0x00, 0x23, 0x00, 0x00, 0x91, 0x22, 0x5F, 0x00, 0x2E, 0x5F, 0x81, 0x70,
    0x81, 0x2E, 0x00, 0x00, 0x22, 0x00, 0x00, 0x91, 0x23, 0x5F, 0x00, 0x2F, 0x5F, 0x81, 0x70, 0x81,
    0x2F, 0x00, 0x00, 0x23, 0x00, 0x00, 0x91, 0x19, 0x5F, 0x00, 0x25, 0x5F, 0x83, 0x60, 0x81, 0x25,
    0x00, 0x00, 0x19, 0x00, 0x00, 0x91, 0x19, 0x5F, 0x00, 0x25, 0x5F, 0x81, 0x70, 0x81, 0x25, 0x00,
    0x00, 0x19, 0x00, 0x00, 0x91, 0x25, 0x5F, 0x00, 0x31, 0x5F, 0x81, 0x70, 0x81, 0x31, 0x00, 0x00,
    0x25, 0x00, 0x81, 0x70, 0x91, 0x25, 0x5F, 0x00, 0x31, 0x5F, 0x81, 0x70, 0x81, 0x31, 0x00, 0x00,
    0x25, 0x00, 0x00, 0x91, 0x23, 0x5F, 0x00, 0x2F, 0x5F, 0x81, 0x70, 0x81, 0x2F, 0x00, 0x00, 0x23,
    0x00, 0x00, 0x91, 0x25, 0x5F, 0x00, 0x31, 0x5F, 0x81, 0x70, 0x81, 0x31, 0x00, 0x00, 0x25, 0x00,
    0x00, 0x91, 0x1A, 0x5F, 0x00, 0x26, 0x5F, 0x83, 0x60, 0x81, 0x26, 0x00, 0x00, 0x1A, 0x00, 0x00,
    0x91, 0x1A, 0x5F, 0x00, 0x26, 0x5F, 0x81, 0x70, 0x81, 0x26, 0x00, 0x00, 0x1A, 0x00, 0x00, 0x91,
    0x26, 0x5F, 0x00, 0x32, 0x5F, 0x81, 0x70, 0x81, 0x32, 0x00, 0x00, 0x26, 0x00, 0x81, 0x70, 0x91,
    0x26, 0x5F, 0x00, 0x32, 0x5F, 0x81, 0x70, 0x81, 0x32, 0x00, 0x00, 0x26, 0x00, 0x00, 0x91, 0x22,
    0x5F, 0x00, 0x2E, 0x5F, 0x81, 0x70, 0x81, 0x2E, 0x00, 0x00, 0x22, 0x00, 0x00, 0x91, 0x26, 0x5F,
    0x00, 0x32, 0x5F, 0x81, 0x70, 0x81, 0x32, 0x00, 0x00, 0x26, 0x00, 0x00, 0x91, 0x17, 0x5F, 0x00,
    0x23, 0x5F, 0x83, 0x60, 0x81, 0x23, 0x00, 0x00, 0x17, 0x00, 0x00, 0x91, 0x17, 0x5F, 0x00, 0x23,
    0x5F, 0x81, 0x70, 0x81, 0x23, 0x00, 0x00, 0x17, 0x00, 0x00, 0x91, 0x23, 0x5F, 0x00, 0x2F, 0x5F,
    0x81, 0x70, 0x81, 0x2F, 0x00, 0x00, 0x23, 0x00, 0x81, 0x70, 0x91, 0x23, 0x5F, 0x00, 0x2F, 0x5F,
    0x81, 0x70, 0x81, 0x2F, 0x00, 0x00, 0x23, 0x00, 0x00, 0x91, 0x22, 0x5F, 0x00, 0x2E, 0x5F, 0x81,
    0x70, 0x81, 0x2E, 0x00, 0x00, 0x22, 0x00, 0x00, 0x91, 0x23, 0x5F, 0x00, 0x2F, 0x5F, 0x81, 0x70,
    0x81, 0x2F, 0x00, 0x00, 0x23, 0x00, 0x00, 0x91, 0x17, 0x5F, 0x00, 0x23, 0x5F, 0x83, 0x60, 0x81,
    0x23, 0x00, 0x00, 0x17, 0x00, 0x00, 0x91, 0x17, 0x5F, 0x00, 0x23, 0x5F, 0x81, 0x70, 0x81, 0x23,
    0x00, 0x00, 0x17, 0x00, 0x00, 0x91, 0x23, 0x5F, 0x00, 0x2F, 0x5F, 0x81, 0x70, 0x81, 0x2F, 0x00,
    0x00, 0x23, 0x00, 0x81, 0x70, 0x91, 0x23, 0x5F, 0x00, 0x2F, 0x5F, 0x81, 0x70, 0x81, 0x2F, 0x00,
    0x00, 0x23, 0x00, 0x00, 0x91, 0x22, 0x5F, 0x00, 0x2E, 0x5F, 0x81, 0x70, 0x81, 0x2E, 0x00, 0x00,
    0x22, 0x00, 0x00, 0x91, 0x23, 0x5F, 0x00, 0x2F, 0x5F, 0x81, 0x70, 0x81, 0x2F, 0x00, 0x00, 0x23,
    0x00, 0x00, 0x91, 0x19, 0x5F, 0x00, 0x25, 0x5F, 0x83, 0x60, 0x81, 0x25, 0x00, 0x00, 0x19, 0x00,
    0x00, 0x91, 0x19, 0x5F, 0x00, 0x25, 0x5F, 0x81, 0x70, 0x81, 0x25, 0x00, 0x00, 0x19, 0x00, 0x00,
    0x91, 0x25, 0x5F, 0x00, 0x31, 0x5F, 0x81, 0x70, 0x81, 0x31, 0x00, 0x00, 0x25, 0x00, 0x81, 0x70,
    0x91, 0x25, 0x5F, 0x00, 0x31, 0x5F, 0x81, 0x70, 0x81, 0x31, 0x00, 0x00, 0x25, 0x00, 0x00, 0x91,
    0x23, 0x5F, 0x00, 0x2F, 0x5F, 0x81, 0x70, 0x81, 0x2F, 0x00, 0x00, 0x23, 0x00, 0x00, 0x91, 0x25,
    0x5F, 0x00, 0x31, 0x5F, 0x81, 0x70, 0x81, 0x31, 0x00, 0x00, 0x25, 0x00, 0x00, 0x91, 0x19, 0x5F,
    0x00, 0x25, 0x5F, 0x83, 0x60, 0x81, 0x25, 0x00, 0x00, 0x19, 0x00, 0x00, 0x91, 0x19, 0x5F, 0x00,
    0x25, 0x5F, 0x81, 0x70, 0x81, 0x25, 0x00, 0x00, 0x19, 0x00, 0x00, 0x91, 0x25, 0x5F, 0x00, 0x31,
    0x5F, 0x81, 0x70, 0x81, 0x31, 0x00, 0x00, 0x25, 0x00, 0x81, 0x70, 0x91, 0x25, 0x5F, 0x00, 0x31,
    0x5F, 0x81, 0x70, 0x81, 0x31, 0x00, 0x00, 0x25, 0x00, 0x00, 0x91, 0x23, 0x5F, 0x00, 0x2F, 0x5F,
    0x81, 0x70, 0x81, 0x2F, 0x00, 0x00, 0x23, 0x00, 0x00, 0x91, 0x25, 0x5F, 0x00, 0x31, 0x5F, 0x81,
    0x70, 0x81, 0x31, 0x00, 0x00, 0x25, 0x00, 0x00, 0x91, 0x1B, 0x5F, 0x00, 0x27, 0x5F, 0x83, 0x60,
    0x81, 0x27, 0x00, 0x00, 0x1B, 0x00, 0x00, 0x91, 0x1B, 0x5F, 0x00, 0x27, 0x5F, 0x81, 0x70, 0x81,
    0x27, 0x00, 0x00, 0x1B, 0x00, 0x00, 0x91, 0x27, 0x5F, 0x00, 0x33, 0x5F, 0x81, 0x70, 0x81, 0x33,
    0x00, 0x00, 0x27, 0x00, 0x81, 0x70, 0x91, 0x27, 0x5F, 0x00, 0x33, 0x5F, 0x81, 0x70, 0x81, 0x33,
    0x00, 0x00, 0x27, 0x00, 0x00, 0x91, 0x25, 0x5F, 0x00, 0x31, 0x5F, 0x81, 0x70, 0x81, 0x31, 0x00,
    0x00, 0x25, 0x00, 0x00, 0x91, 0x27, 0x5F, 0x00, 0x33, 0x5F, 0x81, 0x70, 0x81, 0x33, 0x00, 0x00,
    0x27, 0x00, 0x00, 0x91, 0x1B, 0x5F, 0x00, 0x27, 0x5F, 0x83, 0x60, 0x81, 0x27, 0x00, 0x00, 0x1B,
    0x00, 0x00, 0x91, 0x1B, 0x5F, 0x00, 0x27, 0x5F, 0x81, 0x70, 0x81, 0x27, 0x00, 0x00, 0x1B, 0x00,
    0x00, 0x91, 0x27, 0x5F, 0x00, 0x33, 0x5F, 0x81, 0x70, 0x81, 0x33, 0x00, 0x00, 0x27, 0x00, 0x81,
    0x70, 0x91, 0x27, 0x5F, 0x00, 0x33, 0x5F, 0x81, 0x70, 0x81, 0x33, 0x00, 0x00, 0x27, 0x00, 0x00,
    0x91, 0x25, 0x5F, 0x00, 0x31, 0x5F, 0x81, 0x70, 0x81, 0x31, 0x00, 0x00, 0x25, 0x00, 0x00, 0x91,
    0x27, 0x5F, 0x00, 0x33, 0x5F, 0x81, 0x70, 0x81, 0x33, 0x00, 0x00, 0x27, 0x00, 0x00, 0x91, 0x1B,
    0x5F, 0x00, 0x27, 0x5F, 0x83, 0x60, 0x81, 0x27, 0x00, 0x00, 0x1B, 0x00, 0x00, 0x91, 0x1B, 0x5F,
    0x00, 0x27, 0x5F, 0x81, 0x70, 0x81, 0x27, 0x00, 0x00, 0x1B, 0x00, 0x00, 0x91, 0x27, 0x5F, 0x00,
    0x33, 0x5F, 0x81, 0x70, 0x81, 0x33, 0x00, 0x00, 0x27, 0x00, 0x81, 0x70, 0x91, 0x27, 0x5F, 0x00,
    0x33, 0x5F, 0x81, 0x70, 0x81, 0x33, 0x00, 0x00, 0x27, 0x00, 0x00, 0x91, 0x25, 0x5F, 0x00, 0x31,
    0x5F, 0x81, 0x70, 0x81, 0x31, 0x00, 0x00, 0x25, 0x00, 0x00, 0x91, 0x27, 0x5F, 0x00, 0x33, 0x5F,
    0x81, 0x70, 0x81, 0x33, 0x00, 0x00, 0x27, 0x00, 0x00, 0x91, 0x20, 0x5F, 0x00, 0x2C, 0x5F, 0x83,
    0x60, 0x81, 0x2C, 0x00, 0x00, 0x20, 0x00, 0x00, 0x91, 0x2A, 0x5F, 0x00, 0x36, 0x5F, 0x81, 0x70,
    0x81, 0x36, 0x00, 0x00, 0x2A, 0x00, 0x00, 0x91, 0x2C, 0x5F, 0x00, 0x38, 0x5F, 0x81, 0x70, 0x81,
    0x38, 0x00, 0x00, 0x2C, 0x00, 0x00, 0x91, 0x1E, 0x5F, 0x00, 0x2A, 0x5F, 0x83, 0x60, 0x81, 0x2A,
    0x00, 0x00, 0x1E, 0x00, 0x00, 0x91, 0x27, 0x5F, 0x00, 0x33, 0x5F, 0x81, 0x70, 0x81, 0x33, 0x00,
    0x00, 0x27, 0x00, 0x00, 0x91, 0x2A, 0x5F, 0x00, 0x36, 0x5F, 0x81, 0x70, 0x81, 0x36, 0x00, 0x00,
    0x2A, 0x00, 0x00, 0x91, 0x17, 0x5F, 0x00, 0x23, 0x5F, 0x83, 0x60, 0x81, 0x23, 0x00, 0x00, 0x17,
    0x00, 0x00, 0x91, 0x17, 0x5F, 0x00, 0x23, 0x5F, 0x81, 0x70, 0x81, 0x23, 0x00, 0x00, 0x17, 0x00,
    0x00, 0x91, 0x23, 0x5F, 0x00, 0x2F, 0x5F, 0x81, 0x70, 0x81, 0x2F, 0x00, 0x00, 0x23, 0x00, 0x81,
    0x70, 0x91, 0x23, 0x5F, 0x00, 0x2F, 0x5F, 0x81, 0x70, 0x81, 0x2F, 0x00, 0x00, 0x23, 0x00, 0x00,
    0x91, 0x22, 0x5F, 0x00, 0x2E, 0x5F, 0x81, 0x70, 0x81, 0x2E, 0x00, 0x00, 0x22, 0x00, 0x00, 0x91,
    0x23, 0x5F, 0x00, 0x2F, 0x5F, 0x81, 0x70, 0x81, 0x2F, 0x00, 0x00, 0x23, 0x00, 0x00, 0x91, 0x17,
    0x5F, 0x00, 0x23, 0x5F, 0x83, 0x60, 0x81, 0x23, 0x00, 0x00, 0x17, 0x00, 0x00, 0x91, 0x17, 0x5F,
    0x00, 0x23, 0x5F, 0x81, 0x70, 0x81, 0x23, 0x00, 0x00, 0x17, 0x00, 0x00, 0x91, 0x23, 0x5F, 0x00,
    0x2F, 0x5F, 0x81, 0x70, 0x81, 0x2F, 0x00, 0x00, 0x23, 0x00, 0x81, 0x70, 0x91, 0x23, 0x5F, 0x00,
    0x2F, 0x5F, 0x81, 0x70, 0x81, 0x2F, 0x00, 0x00, 0x23, 0x00, 0x00, 0x91, 0x22, 0x5F, 0x00, 0x2E,
    0x5F, 0x81, 0x70, 0x81, 0x2E, 0x00, 0x00, 0x22, 0x00, 0x00, 0x91, 0x23, 0x5F, 0x00, 0x2F, 0x5F,
    0x81, 0x70, 0x81, 0x2F, 0x00, 0x00, 0x23, 0x00, 0x00, 0x91, 0x19, 0x5F, 0x00, 0x25, 0x5F, 0x83,
    0x60, 0x81, 0x25, 0x00, 0x00, 0x19, 0x00, 0x00, 0x91, 0x19, 0x5F, 0x00, 0x25, 0x5F, 0x81, 0x70,
    0x81, 0x25, 0x00, 0x00, 0x19, 0x00, 0x00, 0x91, 0x25, 0x5F, 0x00, 0x31, 0x5F, 0x81, 0x70, 0x81,
    0x31, 0x00, 0x00, 0x25, 0x00, 0x81, 0x70, 0x91, 0x25, 0x5F, 0x00, 0x31, 0x5F, 0x81, 0x70, 0x81,
    0x31, 0x00, 0x00, 0x25, 0x00, 0x00, 0x91, 0x23, 0x5F, 0x00, 0x2F, 0x5F, 0x81, 0x70, 0x81, 0x2F,
    0x00, 0x00, 0x23, 0x00, 0x00, 0x91, 0x25, 0x5F, 0x00, 0x31, 0x5F, 0x81, 0x70, 0x81, 0x31, 0x00,
    0x00, 0x25, 0x00, 0x00, 0x91, 0x19, 0x5F, 0x00, 0x25, 0x5F, 0x83, 0x60, 0x81, 0x25, 0x00, 0x00,
    0x19, 0x00, 0x00, 0x91, 0x19, 0x5F, 0x00, 0x25, 0x5F, 0x81, 0x70, 0x81, 0x25, 0x00, 0x00, 0x19,
    0x00, 0x00, 0x91, 0x25, 0x5F, 0x00, 0x31, 0x5F, 0x81, 0x70, 0x81, 0x31, 0x00, 0x00, 0x25, 0x00,
    0x81, 0x70, 0x91, 0x25, 0x5F, 0x00, 0x31, 0x5F, 0x81, 0x70, 0x81, 0x31, 0x00, 0x00, 0x25, 0x00,
    0x00, 0x91, 0x23, 0x5F, 0x00, 0x2F, 0x5F, 0x81, 0x70, 0x81, 0x2F, 0x00, 0x00, 0x23, 0x00, 0x00,
    0x91, 0x25, 0x5F, 0x00, 0x31, 0x5F, 0x81, 0x70, 0x81, 0x31, 0x00, 0x00, 0x25, 0x00, 0x00, 0x91,
    0x1B, 0x5F, 0x00, 0x27, 0x5F, 0x83, 0x60, 0x81, 0x27, 0x00, 0x00, 0x1B, 0x00, 0x00, 0x91, 0x1B,
    0x5F, 0x00, 0x27, 0x5F, 0x81, 0x70, 0x81, 0x27, 0x00, 0x00, 0x1B, 0x00, 0x00, 0x91, 0x27, 0x5F,
    0x00, 0x33, 0x5F, 0x81, 0x70, 0x81, 0x33, 0x00, 0x00, 0x27, 0x00, 0x81, 0x70, 0x91, 0x27, 0x5F,
    0x00, 0x33, 0x5F, 0x81, 0x70, 0x81, 0x33, 0x00, 0x00, 0x27, 0x00, 0x00, 0x91, 0x25, 0x5F, 0x00,
    0x31, 0x5F, 0x81, 0x70, 0x81, 0x31, 0x00, 0x00, 0x25, 0x00, 0x00, 0x91, 0x27, 0x5F, 0x00, 0x33,
    0x5F, 0x81, 0x70, 0x81, 0x33, 0x00, 0x00, 0x27, 0x00, 0x00, 0x91, 0x1B, 0x5F, 0x00, 0x27, 0x5F,
    0x83, 0x60, 0x81, 0x27, 0x00, 0x00, 0x1B, 0x00, 0x00, 0x91, 0x1B, 0x5F, 0x00, 0x27, 0x5F, 0x81,
    0x70, 0x81, 0x27, 0x00, 0x00, 0x1B, 0x00, 0x00, 0x91, 0x27, 0x5F, 0x00, 0x33, 0x5F, 0x81, 0x70,
    0x81, 0x33, 0x00, 0x00, 0x27, 0x00, 0x81, 0x70, 0x91, 0x27, 0x5F, 0x00, 0x33, 0x5F, 0x81, 0x70,
    0x81, 0x33, 0x00, 0x00, 0x27, 0x00, 0x00, 0x91, 0x25, 0x5F, 0x00, 0x31, 0x5F, 0x81, 0x70, 0x81,
    0x31, 0x00, 0x00, 0x25, 0x00, 0x00, 0x91, 0x27, 0x5F, 0x00, 0x33, 0x5F, 0x81, 0x70, 0x81, 0x33,
    0x00, 0x00, 0x27, 0x00, 0x00, 0x91, 0x1B, 0x5F, 0x00, 0x27, 0x5F, 0x83, 0x60, 0x81, 0x27, 0x00,
    0x00, 0x1B, 0x00, 0x00, 0x91, 0x1B, 0x5F, 0x00, 0x27, 0x5F, 0x81, 0x70, 0x81, 0x27, 0x00, 0x00,
    0x1B, 0x00, 0x00, 0x91, 0x27, 0x5F, 0x00, 0x33, 0x5F, 0x81, 0x70, 0x81, 0x33, 0x00, 0x00, 0x27,
    0x00, 0x81, 0x70, 0x91, 0x27, 0x5F, 0x00, 0x33, 0x5F, 0x81, 0x70, 0x81, 0x33, 0x00, 0x00, 0x27,
    0x00, 0x00, 0x91, 0x25, 0x5F, 0x00, 0x31, 0x5F, 0x81, 0x70, 0x81, 0x31, 0x00, 0x00, 0x25, 0x00,
    0x00, 0x91, 0x27, 0x5F, 0x00, 0x33, 0x5F, 0x81, 0x70, 0x81, 0x33, 0x00, 0x00, 0x27, 0x00, 0x00,
    0x91, 0x20, 0x5F, 0x00, 0x2C, 0x5F, 0x83, 0x60, 0x81, 0x2C, 0x00, 0x00, 0x20, 0x00, 0x00, 0x91,
    0x2A, 0x5F, 0x00, 0x36, 0x5F, 0x81, 0x70, 0x81, 0x36, 0x00, 0x00, 0x2A, 0x00, 0x00, 0x91, 0x2C,
    0x5F, 0x00, 0x38, 0x5F, 0x81, 0x70, 0x81, 0x38, 0x00, 0x00, 0x2C, 0x00, 0x00, 0x91, 0x1E, 0x5F,
    0x00, 0x2A, 0x5F, 0x83, 0x60, 0x81, 0x2A, 0x00, 0x00, 0x1E, 0x00, 0x00, 0x91, 0x27, 0x5F, 0x00,
    0x33, 0x5F, 0x81, 0x70, 0x81, 0x33, 0x00, 0x00, 0x27, 0x00, 0x00, 0x91, 0x2A, 0x5F, 0x00, 0x36,
    0x5F, 0x81, 0x70, 0x81, 0x36, 0x00, 0x00, 0x2A, 0x00, 0x00, 0x91, 0x17, 0x5F, 0x00, 0x23, 0x5F,
    0x83, 0x60, 0x81, 0x23, 0x00, 0x00, 0x17, 0x00, 0x00, 0x91, 0x17, 0x5F, 0x00, 0x23, 0x5F, 0x81,
    0x70, 0x81, 0x23, 0x00, 0x00, 0x17, 0x00, 0x00, 0x91, 0x23, 0x5F, 0x00, 0x2F, 0x5F, 0x81, 0x70,
    0x81, 0x2F, 0x00, 0x00, 0x23, 0x00, 0x81, 0x70, 0x91, 0x23, 0x5F, 0x00, 0x2F, 0x5F, 0x81, 0x70,
    0x81, 0x2F, 0x00, 0x00, 0x23, 0x00, 0x00, 0x91, 0x22, 0x5F, 0x00, 0x2E, 0x5F, 0x81, 0x70, 0x81,
    0x2E, 0x00, 0x00, 0x22, 0x00, 0x00, 0x91, 0x23, 0x5F, 0x00, 0x2F, 0x5F, 0x81, 0x70, 0x81, 0x2F,
    0x00, 0x00, 0x23, 0x00, 0x00, 0x91, 0x17, 0x5F, 0x00, 0x23, 0x5F, 0x83, 0x60, 0x81, 0x23, 0x00,
    0x00, 0x17, 0x00, 0x00, 0x91, 0x17, 0x5F, 0x00, 0x23, 0x5F, 0x81, 0x70, 0x81, 0x23, 0x00, 0x00,
    0x17, 0x00, 0x00, 0x91, 0x23, 0x5F, 0x00, 0x2F, 0x5F, 0x81, 0x70, 0x81, 0x2F, 0x00, 0x00, 0x23,
    0x00, 0x81, 0x70, 0x91, 0x23, 0x5F, 0x00, 0x2F, 0x5F, 0x81, 0x70, 0x81, 0x2F, 0x00, 0x00, 0x23,
    0x00, 0x00, 0x91, 0x22, 0x5F, 0x00, 0x2E, 0x5F, 0x81, 0x70, 0x81, 0x2E, 0x00, 0x00, 0x22, 0x00,
    0x00, 0x91, 0x23, 0x5F, 0x00, 0x2F, 0x5F, 0x81, 0x70, 0x81, 0x2F, 0x00, 0x00, 0x23, 0x00, 0x00,
    0x91, 0x19, 0x5F, 0x00, 0x25, 0x5F, 0x83, 0x60, 0x81, 0x25, 0x00, 0x00, 0x19, 0x00, 0x00, 0x91,
    0x19, 0x5F, 0x00, 0x25, 0x5F, 0x81, 0x70, 0x81, 0x25, 0x00, 0x00, 0x19, 0x00, 0x00, 0x91, 0x25,
    0x5F, 0x00, 0x31, 0x5F, 0x81, 0x70, 0x81, 0x31, 0x00, 0x00, 0x25, 0x00, 0x81, 0x70, 0x91, 0x25,
    0x5F, 0x00, 0x31, 0x5F, 0x81, 0x70, 0x81, 0x31, 0x00, 0x00, 0x25, 0x00, 0x00, 0x91, 0x23, 0x5F,
    0x00, 0x2F, 0x5F, 0x81, 0x70, 0x81, 0x2F, 0x00, 0x00, 0x23, 0x00, 0x00, 0x91, 0x25, 0x5F, 0x00,
    0x31, 0x5F, 0x81, 0x70, 0x81, 0x31, 0x00, 0x00, 0x25, 0x00, 0x00, 0x91, 0x19, 0x5F, 0x00, 0x25,
    0x5F, 0x83, 0x60, 0x81, 0x25, 0x00, 0x00, 0x19, 0x00, 0x00, 0x91, 0x19, 0x5F, 0x00, 0x25, 0x5F,
    0x81, 0x70, 0x81, 0x25, 0x00, 0x00, 0x19, 0x00, 0x00, 0x91, 0x25, 0x5F, 0x00, 0x31, 0x5F, 0x81,
    0x70, 0x81, 0x31, 0x00, 0x00, 0x25, 0x00, 0x81, 0x70, 0x91, 0x25, 0x5F, 0x00, 0x31, 0x5F, 0x81,
    0x70, 0x81, 0x31, 0x00, 0x00, 0x25, 0x00, 0x00, 0x91, 0x23, 0x5F, 0x00, 0x2F, 0x5F, 0x81, 0x70,
    0x81, 0x2F, 0x00, 0x00, 0x23, 0x00, 0x00, 0x91, 0x25, 0x5F, 0x00, 0x31, 0x5F, 0x81, 0x70, 0x81,
    0x31, 0x00, 0x00, 0x25, 0x00, 0x00, 0x91, 0x1B, 0x5F, 0x00, 0x27, 0x5F, 0x83, 0x60, 0x81, 0x27,
    0x00, 0x00, 0x1B, 0x00, 0x00, 0x91, 0x1B, 0x5F, 0x00, 0x27, 0x5F, 0x81, 0x70, 0x81, 0x27, 0x00,
    0x00, 0x1B, 0x00, 0x00, 0x91, 0x27, 0x5F, 0x00, 0x33, 0x5F, 0x81, 0x70, 0x81, 0x33, 0x00, 0x00,
    0x27, 0x00, 0x81, 0x70, 0x91, 0x27, 0x5F, 0x00, 0x33, 0x5F, 0x81, 0x70, 0x81, 0x33, 0x00, 0x00,
    0x27, 0x00, 0x00, 0x91, 0x25, 0x5F, 0x00, 0x31, 0x5F, 0x81, 0x70, 0x81, 0x31, 0x00, 0x00, 0x25,
    0x00, 0x00, 0x91, 0x27, 0x5F, 0x00, 0x33, 0x5F, 0x81, 0x70, 0x81, 0x33, 0x00, 0x00, 0x27, 0x00,
    0x00, 0x91, 0x1B, 0x5F, 0x00, 0x27, 0x5F, 0x83, 0x60, 0x81, 0x27, 0x00, 0x00, 0x1B, 0x00, 0x00,
    0x91, 0x1B, 0x5F, 0x00, 0x27, 0x5F, 0x81, 0x70, 0x81, 0x27, 0x00, 0x00, 0x1B, 0x00, 0x00, 0x91,
    0x27, 0x5F, 0x00, 0x33, 0x5F, 0x81, 0x70, 0x81, 0x33, 0x00, 0x00, 0x27, 0x00, 0x81, 0x70, 0x91,
    0x27, 0x5F, 0x00, 0x33, 0x5F, 0x81, 0x70, 0x81, 0x33, 0x00, 0x00, 0x27, 0x00, 0x00, 0x91, 0x25,
    0x5F, 0x00, 0x31, 0x5F, 0x81, 0x70, 0x81, 0x31, 0x00, 0x00, 0x25, 0x00, 0x00, 0x91, 0x27, 0x5F,
    0x00, 0x33, 0x5F, 0x81, 0x70, 0x81, 0x33, 0x00, 0x00, 0x27, 0x00, 0x00, 0x91, 0x1B, 0x5F, 0x00,
    0x27, 0x5F, 0x83, 0x60, 0x81, 0x27, 0x00, 0x00, 0x1B, 0x00, 0x00, 0x91, 0x1B, 0x5F, 0x00, 0x27,
    0x5F, 0x81, 0x70, 0x81, 0x27, 0x00, 0x00, 0x1B, 0x00, 0x00, 0x91, 0x27, 0x5F, 0x00, 0x33, 0x5F,
    0x81, 0x70, 0x81, 0x33, 0x00, 0x00, 0x27, 0x00, 0x81, 0x70, 0x91, 0x27, 0x5F, 0x00, 0x33, 0x5F,
    0x81, 0x70, 0x81, 0x33, 0x00, 0x00, 0x27, 0x00, 0x00, 0x91, 0x25, 0x5F, 0x00, 0x31, 0x5F, 0x81,
    0x70, 0x81, 0x31, 0x00, 0x00, 0x25, 0x00, 0x00, 0x91, 0x27, 0x5F, 0x00, 0x33, 0x5F, 0x81, 0x70,
    0x81, 0x33, 0x00, 0x00, 0x27, 0x00, 0x00, 0x91, 0x20, 0x5F, 0x00, 0x2C, 0x5F, 0x83, 0x60, 0x81,
    0x2C, 0x00, 0x00, 0x20, 0x00, 0x00, 0x91, 0x2A, 0x5F, 0x00, 0x36, 0x5F, 0x81, 0x70, 0x81, 0x36,
    0x00, 0x00, 0x2A, 0x00, 0x00, 0x91, 0x2C, 0x5F, 0x00, 0x38, 0x5F, 0x81, 0x70, 0x81, 0x38, 0x00,
    0x00, 0x2C, 0x00, 0x00, 0x91, 0x1E, 0x5F, 0x00, 0x2A, 0x5F, 0x83, 0x60, 0x81, 0x2A, 0x00, 0x00,
    0x1E, 0x00, 0x00, 0x91, 0x27, 0x5F, 0x00, 0x33, 0x5F, 0x81, 0x70, 0x81, 0x33, 0x00, 0x00, 0x27,
    0x00, 0x00, 0x91, 0x2A, 0x5F, 0x00, 0x36, 0x5F, 0x81, 0x70, 0x81, 0x36, 0x00, 0x00, 0x2A, 0x00,
    0x00, 0x91, 0x17, 0x5F, 0x00, 0x23, 0x5F, 0x83, 0x60, 0x81, 0x23, 0x00, 0x00, 0x17, 0x00, 0x00,
    0x91, 0x17, 0x5F, 0x00, 0x23, 0x5F, 0x81, 0x70, 0x81, 0x23, 0x00, 0x00, 0x17, 0x00, 0x00, 0x91,
    0x23, 0x5F, 0x00, 0x2F, 0x5F, 0x81, 0x70, 0x81, 0x2F, 0x00, 0x00, 0x23, 0x00, 0x81, 0x70, 0x91,
    0x23, 0x5F, 0x00, 0x2F, 0x5F, 0x81, 0x70, 0x81, 0x2F, 0x00, 0x00, 0x23, 0x00, 0x00, 0x91, 0x22,
    0x5F, 0x00, 0x2E, 0x5F, 0x81, 0x70, 0x81, 0x2E, 0x00, 0x00, 0x22, 0x00, 0x00, 0x91, 0x23, 0x5F,
    0x00, 0x2F, 0x5F, 0x81, 0x70, 0x81, 0x2F, 0x00, 0x00, 0x23, 0x00, 0x00, 0x91, 0x17, 0x5F, 0x00,
    0x23, 0x5F, 0x83, 0x60, 0x81, 0x23, 0x00, 0x00, 0x17, 0x00, 0x00, 0x91, 0x17, 0x5F, 0x00, 0x23,
    0x5F, 0x81, 0x70, 0x81, 0x23, 0x00, 0x00, 0x17, 0x00, 0x00, 0x91, 0x23, 0x5F, 0x00, 0x2F, 0x5F,
    0x81, 0x70, 0x81, 0x2F, 0x00, 0x00, 0x23, 0x00, 0x81, 0x70, 0x91, 0x23, 0x5F, 0x00, 0x2F, 0x5F,
    0x81, 0x70, 0x81, 0x2F, 0x00, 0x00, 0x23, 0x00, 0x00, 0x91, 0x22, 0x5F, 0x00, 0x2E, 0x5F, 0x81,
    0x70, 0x81, 0x2E, 0x00, 0x00, 0x22, 0x00, 0x00, 0x91, 0x23, 0x5F, 0x00, 0x2F, 0x5F, 0x81, 0x70,
    0x81, 0x2F, 0x00, 0x00, 0x23, 0x00, 0x00, 0x91, 0x19, 0x5F, 0x00, 0x25, 0x5F, 0x83, 0x60, 0x81,
    0x25, 0x00, 0x00, 0x19, 0x00, 0x00, 0x91, 0x19, 0x5F, 0x00, 0x25, 0x5F, 0x81, 0x70, 0x81, 0x25,
    0x00, 0x00, 0x19, 0x00, 0x00, 0x91, 0x25, 0x5F, 0x00, 0x31, 0x5F, 0x81, 0x70, 0x81, 0x31, 0x00,
    0x00, 0x25, 0x00, 0x81, 0x70, 0x91, 0x25, 0x5F, 0x00, 0x31, 0x5F, 0x81, 0x70, 0x81, 0x31, 0x00,
    0x00, 0x25, 0x00, 0x00, 0x91, 0x23, 0x5F, 0x00, 0x2F, 0x5F, 0x81, 0x70, 0x81, 0x2F, 0x00, 0x00,
    0x23, 0x00, 0x00, 0x91, 0x25, 0x5F, 0x00, 0x31, 0x5F, 0x81, 0x70, 0x81, 0x31, 0x00, 0x00, 0x25,
    0x00, 0x00, 0x91, 0x19, 0x5F, 0x00, 0x25, 0x5F, 0x83, 0x60, 0x81, 0x25, 0x00, 0x00, 0x19, 0x00,
    0x00, 0x91, 0x19, 0x5F, 0x00, 0x25, 0x5F, 0x81, 0x70, 0x81, 0x25, 0x00, 0x00, 0x19, 0x00, 0x00,
    0x91, 0x25, 0x5F, 0x00, 0x31, 0x5F, 0x81, 0x70, 0x81, 0x31, 0x00, 0x00, 0x25, 0x00, 0x81, 0x70,
    0x91, 0x25, 0x5F, 0x00, 0x31, 0x5F, 0x81, 0x70, 0x81, 0x31, 0x00, 0x00, 0x25, 0x00, 0x00, 0x91,
    0x23, 0x5F, 0x00, 0x2F, 0x5F, 0x81, 0x70, 0x81, 0x2F, 0x00, 0x00, 0x23, 0x00, 0x00, 0x91, 0x25,
    0x5F, 0x00, 0x31, 0x5F, 0x81, 0x70, 0x81, 0x31, 0x00, 0x00, 0x25, 0x00, 0x00, 0x91, 0x1B, 0x5F,
    0x00, 0x27, 0x5F, 0x83, 0x60, 0x81, 0x27, 0x00, 0x00, 0x1B, 0x00, 0x00, 0x91, 0x1B, 0x5F, 0x00,
    0x27, 0x5F, 0x81, 0x70, 0x81, 0x27, 0x00, 0x00, 0x1B, 0x00, 0x00, 0x91, 0x27, 0x5F, 0x00, 0x33,
    0x5F, 0x81, 0x70, 0x81, 0x33, 0x00, 0x00, 0x27, 0x00, 0x81, 0x70, 0x91, 0x27, 0x5F, 0x00, 0x33,
    0x5F, 0x81, 0x70, 0x81, 0x33, 0x00, 0x00, 0x27, 0x00, 0x00, 0x91, 0x25, 0x5F, 0x00, 0x31, 0x5F,
    0x81, 0x70, 0x81, 0x31, 0x00, 0x00, 0x25, 0x00, 0x00, 0x91, 0x27, 0x5F, 0x00, 0x33, 0x5F, 0x81,
    0x70, 0x81, 0x33, 0x00, 0x00, 0x27, 0x00, 0x00, 0x91, 0x1B, 0x5F, 0x00, 0x27, 0x5F, 0x83, 0x60,
    0x81, 0x27, 0x00, 0x00, 0x1B, 0x00, 0x00, 0x91, 0x1B, 0x5F, 0x00, 0x27, 0x5F, 0x81, 0x70, 0x81,
    0x27, 0x00, 0x00, 0x1B, 0x00, 0x00, 0x91, 0x27, 0x5F, 0x00, 0x33, 0x5F, 0x81, 0x70, 0x81, 0x33,
    0x00, 0x00, 0x27, 0x00, 0x81, 0x70, 0x91, 0x27, 0x5F, 0x00, 0x33, 0x5F, 0x81, 0x70, 0x81, 0x33,
    0x00, 0x00, 0x27, 0x00, 0x00, 0x91, 0x25, 0x5F, 0x00, 0x31, 0x5F, 0x81, 0x70, 0x81, 0x31, 0x00,
    0x00, 0x25, 0x00, 0x00, 0x91, 0x27, 0x5F, 0x00, 0x33, 0x5F, 0x81, 0x70, 0x81, 0x33, 0x00, 0x00,
    0x27, 0x00, 0x00, 0x91, 0x1B, 0x5F, 0x00, 0x27, 0x5F, 0x83, 0x60, 0x81, 0x27, 0x00, 0x00, 0x1B,
    0x00, 0x00, 0x91, 0x1B, 0x5F, 0x00, 0x27, 0x5F, 0x81, 0x70, 0x81, 0x27, 0x00, 0x00, 0x1B, 0x00,
    0x00, 0x91, 0x27, 0x5F, 0x00, 0x33, 0x5F, 0x81, 0x70, 0x81, 0x33, 0x00, 0x00, 0x27, 0x00, 0x81,
    0x70, 0x91, 0x27, 0x5F, 0x00, 0x33, 0x5F, 0x81, 0x70, 0x81, 0x33, 0x00, 0x00, 0x27, 0x00, 0x00,
    0x91, 0x25, 0x5F, 0x00, 0x31, 0x5F, 0x81, 0x70, 0x81, 0x31, 0x00, 0x00, 0x25, 0x00, 0x00, 0x91,
    0x27, 0x5F, 0x00, 0x33, 0x5F, 0x81, 0x70, 0x81, 0x33, 0x00, 0x00, 0x27, 0x00, 0x00, 0x91, 0x20,
    0x5F, 0x00, 0x2C, 0x5F, 0x83, 0x60, 0x81, 0x2C, 0x00, 0x00, 0x20, 0x00, 0x00, 0x91, 0x2A, 0x5F,
    0x00, 0x36, 0x5F, 0x81, 0x70, 0x81, 0x36, 0x00, 0x00, 0x2A, 0x00, 0x00, 0x91, 0x2C, 0x5F, 0x00,
    0x38, 0x5F, 0x81, 0x70, 0x81, 0x38, 0x00, 0x00, 0x2C, 0x00, 0x00, 0x91, 0x1E, 0x5F, 0x00, 0x2A,
    0x5F, 0x83, 0x60, 0x81, 0x2A, 0x00, 0x00, 0x1E, 0x00, 0x00, 0x91, 0x27, 0x5F, 0x00, 0x33, 0x5F,
    0x81, 0x70, 0x81, 0x33, 0x00, 0x00, 0x27, 0x00, 0x00, 0x91, 0x2A, 0x5F, 0x00, 0x36, 0x5F, 0x81,
    0x70, 0x81, 0x36, 0x00, 0x00, 0x2A, 0x00, 0x00, 0x91, 0x17, 0x50, 0x00, 0x23, 0x46, 0x00, 0x2A,
    0x3C, 0x9E, 0x00, 0x81, 0x23, 0x00, 0x00, 0x2A, 0x00, 0x00, 0x17, 0x00, 0x00, 0x91, 0x19, 0x50,
    0x00, 0x25, 0x46, 0x00, 0x2C, 0x3C, 0x9E, 0x00, 0x81, 0x25, 0x00, 0x00, 0x2C, 0x00, 0x00, 0x19,
    0x00, 0x00, 0x91, 0x1B, 0x50, 0x00, 0x27, 0x46, 0x00, 0x2E, 0x3C, 0xBC, 0x00, 0x81, 0x27, 0x00,
    0x00, 0x2E, 0x00, 0x00, 0x1B, 0x00, 0x00, 0x91, 0x17, 0x50, 0x00, 0x23, 0x46, 0x00, 0x2A, 0x3C,
    0x9E, 0x00, 0x81, 0x23, 0x00, 0x00, 0x2A, 0x00, 0x00, 0x17, 0x00, 0x00, 0x91, 0x19, 0x50, 0x00,
    0x25, 0x46, 0x00, 0x2C, 0x3C, 0x9E, 0x00, 0x81, 0x25, 0x00, 0x00, 0x2C, 0x00, 0x00, 0x19, 0x00,
    0x00, 0x91, 0x1B, 0x50, 0x00, 0x27, 0x46, 0x00, 0x2E, 0x3C, 0xBC, 0x00, 0x81, 0x27, 0x00, 0x00,
    0x2E, 0x00, 0x00, 0x1B, 0x00, 0x00, 0x91, 0x2A, 0x3C, 0x00, 0x17, 0x50, 0x00, 0x23, 0x46, 0x9E,
    0x00, 0x81, 0x17, 0x00, 0x00, 0x23, 0x00, 0x00, 0x2A, 0x00, 0x00, 0x91, 0x2C, 0x3C, 0x00, 0x19,
    0x50, 0x00, 0x25, 0x46, 0x9E, 0x00, 0x81, 0x19, 0x00, 0x00, 0x25, 0x00, 0x00, 0x2C, 0x00, 0x00,
    0x91, 0x2E, 0x3C, 0x00, 0x1B, 0x50, 0x00, 0x27, 0x46, 0xBC, 0x00, 0x81, 0x1B, 0x00, 0x00, 0x27,
    0x00, 0x00, 0x2E, 0x00, 0x00, 0x91, 0x23, 0x46, 0x00, 0x2A, 0x3C, 0x00, 0x17, 0x50, 0x9E, 0x00,
    0x81, 0x2A, 0x00, 0x00, 0x17, 0x00, 0x00, 0x23, 0x00, 0x00, 0x91, 0x25, 0x46, 0x00, 0x2C, 0x3C,
    0x00, 0x19, 0x50, 0x9E, 0x00, 0x81, 0x2C, 0x00, 0x00, 0x19, 0x00, 0x00, 0x25, 0x00, 0x00, 0x91,
    0x27, 0x46, 0x00, 0x2E, 0x3C, 0x00, 0x1B, 0x50, 0x9E, 0x00, 0x81, 0x2E, 0x00, 0x00, 0x1B, 0x00,
    0x00, 0x27, 0x00, 0x8F, 0x00, 0x91, 0x2C, 0x50, 0x00, 0x20, 0x50, 0x00, 0x38, 0x50, 0x87, 0x40,
    0x81, 0x20, 0x00, 0x00, 0x38, 0x00, 0x00, 0x2C, 0x00, 0x00, 0x91, 0x2A, 0x50, 0x00, 0x36, 0x50,
    0x00, 0x1E, 0x50, 0x87, 0x40, 0x81, 0x36, 0x00, 0x00, 0x1E, 0x00, 0x00, 0x2A, 0x00, 0x00, 0x91,
    0x1B, 0x5F, 0x00, 0x27, 0x5F, 0x83, 0x60, 0x81, 0x27, 0x00, 0x00, 0x1B, 0x00, 0x00, 0x91, 0x1B,
    0x5F, 0x00, 0x27, 0x5F, 0x81, 0x70, 0x81, 0x27, 0x00, 0x00, 0x1B, 0x00, 0x00, 0x91, 0x27, 0x5F,
    0x00, 0x33, 0x5F, 0x81, 0x70, 0x81, 0x33, 0x00, 0x00, 0x27, 0x00, 0x81, 0x70, 0x91, 0x27, 0x5F,
    0x00, 0x33, 0x5F, 0x81, 0x70, 0x81, 0x33, 0x00, 0x00, 0x27, 0x00, 0x00, 0x91, 0x25, 0x5F, 0x00,
    0x31, 0x5F, 0x81, 0x70, 0x81, 0x31, 0x00, 0x00, 0x25, 0x00, 0x00, 0x91, 0x27, 0x5F, 0x00, 0x33,
    0x5F, 0x81, 0x70, 0x81, 0x33, 0x00, 0x00, 0x27, 0x00, 0x00, 0x91, 0x1B, 0x5F, 0x00, 0x27, 0x5F,
    0x83, 0x60, 0x81, 0x27, 0x00, 0x00, 0x1B, 0x00, 0x00, 0x91, 0x1B, 0x5F, 0x00, 0x27, 0x5F, 0x81,
    0x70, 0x81, 0x27, 0x00, 0x00, 0x1B, 0x00, 0x00, 0x91, 0x27, 0x5F, 0x00, 0x33, 0x5F, 0x81, 0x70,
    0x81, 0x33, 0x00, 0x00, 0x27, 0x00, 0x81, 0x70, 0x91, 0x27, 0x5F, 0x00, 0x33, 0x5F, 0x81, 0x70,
    0x81, 0x33, 0x00, 0x00, 0x27, 0x00, 0x00, 0x91, 0x25, 0x5F, 0x00, 0x31, 0x5F, 0x81, 0x70, 0x81,
    0x31, 0x00, 0x00, 0x25, 0x00, 0x00, 0x91, 0x27, 0x5F, 0x00, 0x33, 0x5F, 0x81, 0x70, 0x81, 0x33,
    0x00, 0x00, 0x27, 0x00, 0x00, 0x91, 0x1B, 0x5F, 0x00, 0x27, 0x5F, 0x83, 0x60, 0x81, 0x27, 0x00,
    0x00, 0x1B, 0x00, 0x00, 0x91, 0x1B, 0x5F, 0x00, 0x27, 0x5F, 0x81, 0x70, 0x81, 0x27, 0x00, 0x00,
    0x1B, 0x00, 0x00, 0x91, 0x27, 0x5F, 0x00, 0x33, 0x5F, 0x81, 0x70, 0x81, 0x33, 0x00, 0x00, 0x27,
    0x00, 0x81, 0x70, 0x91, 0x27, 0x5F, 0x00, 0x33, 0x5F, 0x81, 0x70, 0x81, 0x33, 0x00, 0x00, 0x27,
    0x00, 0x00, 0x91, 0x25, 0x5F, 0x00, 0x31, 0x5F, 0x81, 0x70, 0x81, 0x31, 0x00, 0x00, 0x25, 0x00,
    0x00, 0x91, 0x27, 0x5F, 0x00, 0x33, 0x5F, 0x81, 0x70, 0x81, 0x33, 0x00, 0x00, 0x27, 0x00, 0x00,
    0x91, 0x1B, 0x5F, 0x00, 0x27, 0x5F, 0x83, 0x60, 0x81, 0x27, 0x00, 0x00, 0x1B, 0x00, 0x00, 0x91,
    0x27, 0x5F, 0x00, 0x33, 0x5F, 0x81, 0x70, 0x81, 0x33, 0x00, 0x00, 0x27, 0x00, 0x00, 0x91, 0x2A,
    0x5F, 0x00, 0x36, 0x5F, 0x81, 0x70, 0x81, 0x36, 0x00, 0x00, 0x2A, 0x00, 0x00, 0x91, 0x20, 0x5F,
    0x00, 0x2C, 0x5F, 0x83, 0x60, 0x81, 0x2C, 0x00, 0x00, 0x20, 0x00, 0x00, 0x91, 0x2A, 0x5F, 0x00,
    0x36, 0x5F, 0x81, 0x70, 0x81, 0x36, 0x00, 0x00, 0x2A, 0x00, 0x00, 0x91, 0x2C, 0x5F, 0x00, 0x38,
    0x5F, 0x81, 0x70, 0x81, 0x38, 0x00, 0x00, 0x2C, 0x00, 0x00, 0x91, 0x1B, 0x5F, 0x00, 0x27, 0x5F,
    0x83, 0x60, 0x81, 0x27, 0x00, 0x00, 0x1B, 0x00, 0x00, 0x91, 0x1B, 0x5F, 0x00, 0x27, 0x5F, 0x81,
    0x70, 0x81, 0x27, 0x00, 0x00, 0x1B, 0x00, 0x00, 0x91, 0x27, 0x5F, 0x00, 0x33, 0x5F, 0x81, 0x70,
    0x81, 0x33, 0x00, 0x00, 0x27, 0x00, 0x81, 0x70, 0x91, 0x27, 0x5F, 0x00, 0x33, 0x5F, 0x81, 0x70,
    0x81, 0x33, 0x00, 0x00, 0x27, 0x00, 0x00, 0x91, 0x25, 0x5F, 0x00, 0x31, 0x5F, 0x81, 0x70, 0x81,
    0x31, 0x00, 0x00, 0x25, 0x00, 0x00, 0x91, 0x27, 0x5F, 0x00, 0x33, 0x5F, 0x81, 0x70, 0x81, 0x33,
    0x00, 0x00, 0x27, 0x00, 0x00, 0x91, 0x1B, 0x5F, 0x00, 0x27, 0x5F, 0x83, 0x60, 0x81, 0x27, 0x00,
    0x00, 0x1B, 0x00, 0x00, 0x91, 0x1B, 0x5F, 0x00, 0x27, 0x5F, 0x81, 0x70, 0x81, 0x27, 0x00, 0x00,
    0x1B, 0x00, 0x00, 0x91, 0x27, 0x5F, 0x00, 0x33, 0x5F, 0x81, 0x70, 0x81, 0x33, 0x00, 0x00, 0x27,
    0x00, 0x81, 0x70, 0x91, 0x27, 0x5F, 0x00, 0x33, 0x5F, 0x81, 0x70, 0x81, 0x33, 0x00, 0x00, 0x27,
    0x00, 0x00, 0x91, 0x25, 0x5F, 0x00, 0x31, 0x5F, 0x81, 0x70, 0x81, 0x31, 0x00, 0x00, 0x25, 0x00,
    0x00, 0x91, 0x27, 0x5F, 0x00, 0x33, 0x5F, 0x81, 0x70, 0x81, 0x33, 0x00, 0x00, 0x27, 0x00, 0x00,
    0x91, 0x1B, 0x5F, 0x00, 0x27, 0x5F, 0x83, 0x60, 0x81, 0x27, 0x00, 0x00, 0x1B, 0x00, 0x00, 0x91,
    0x1B, 0x5F, 0x00, 0x27, 0x5F, 0x81, 0x70, 0x81, 0x27, 0x00, 0x00, 0x1B, 0x00, 0x00, 0x91, 0x27,
    0x5F, 0x00, 0x33, 0x5F, 0x81, 0x70, 0x81, 0x33, 0x00, 0x00, 0x27, 0x00, 0x81, 0x70, 0x91, 0x27,
    0x5F, 0x00, 0x33, 0x5F, 0x81, 0x70, 0x81, 0x33, 0x00, 0x00, 0x27, 0x00, 0x00, 0x91, 0x25, 0x5F,
    0x00, 0x31, 0x5F, 0x81, 0x70, 0x81, 0x31, 0x00, 0x00, 0x25, 0x00, 0x00, 0x91, 0x27, 0x5F, 0x00,
    0x33, 0x5F, 0x81, 0x70, 0x81, 0x33, 0x00, 0x00, 0x27, 0x00, 0x00, 0x91, 0x20, 0x5F, 0x00, 0x2C,
    0x5F, 0x83, 0x60, 0x81, 0x2C, 0x00, 0x00, 0x20, 0x00, 0x00, 0x91, 0x2A, 0x5F, 0x00, 0x36, 0x5F,
    0x81, 0x70, 0x81, 0x36, 0x00, 0x00, 0x2A, 0x00, 0x00, 0x91, 0x2C, 0x5F, 0x00, 0x38, 0x5F, 0x81,
    0x70, 0x81, 0x38, 0x00, 0x00, 0x2C, 0x00, 0x00, 0x91, 0x1E, 0x5F, 0x00, 0x2A, 0x5F, 0x83, 0x60,
    0x81, 0x2A, 0x00, 0x00, 0x1E, 0x00, 0x00, 0x91, 0x27, 0x5F, 0x00, 0x33, 0x5F, 0x81, 0x70, 0x81,
    0x33, 0x00, 0x00, 0x27, 0x00, 0x00, 0x91, 0x2A, 0x5F, 0x00, 0x36, 0x5F, 0x81, 0x70, 0x81, 0x36,
    0x00, 0x00, 0x2A, 0x00, 0x00, 0x91, 0x1B, 0x5F, 0x00, 0x27, 0x5F, 0x83, 0x60, 0x81, 0x27, 0x00,
    0x00, 0x1B, 0x00, 0x00, 0x91, 0x1B, 0x5F, 0x00, 0x27, 0x5F, 0x81, 0x70, 0x81, 0x27, 0x00, 0x00,
    0x1B, 0x00, 0x00, 0x91, 0x27, 0x5F, 0x00, 0x33, 0x5F, 0x81, 0x70, 0x81, 0x33, 0x00, 0x00, 0x27,
    0x00, 0x81, 0x70, 0x91, 0x27, 0x5F, 0x00, 0x33, 0x5F, 0x81, 0x70, 0x81, 0x33, 0x00, 0x00, 0x27,
    0x00, 0x00, 0x91, 0x25, 0x5F, 0x00, 0x31, 0x5F, 0x81, 0x70, 0x81, 0x31, 0x00, 0x00, 0x25, 0x00,
    0x00, 0x91, 0x27, 0x5F, 0x00, 0x33, 0x5F, 0x81, 0x70, 0x81, 0x33, 0x00, 0x00, 0x27, 0x00, 0x00,
    0x91, 0x1B, 0x5F, 0x00, 0x27, 0x5F, 0x83, 0x60, 0x81, 0x27, 0x00, 0x00, 0x1B, 0x00, 0x00, 0x91,
    0x1B, 0x5F, 0x00, 0x27, 0x5F, 0x81, 0x70, 0x81, 0x27, 0x00, 0x00, 0x1B, 0x00, 0x00, 0x91, 0x27,
    0x5F, 0x00, 0x33, 0x5F, 0x81, 0x70, 0x81, 0x33, 0x00, 0x00, 0x27, 0x00, 0x81, 0x70, 0x91, 0x27,
    0x5F, 0x00, 0x33, 0x5F, 0x81, 0x70, 0x81, 0x33, 0x00, 0x00, 0x27, 0x00, 0x00, 0x91, 0x25, 0x5F,
    0x00, 0x31, 0x5F, 0x81, 0x70, 0x81, 0x31, 0x00, 0x00, 0x25, 0x00, 0x00, 0x91, 0x27, 0x5F, 0x00,
    0x33, 0x5F, 0x81, 0x70, 0x81, 0x33, 0x00, 0x00, 0x27, 0x00, 0x00, 0x91, 0x1B, 0x5F, 0x00, 0x27,
    0x5F, 0x83, 0x60, 0x81, 0x27, 0x00, 0x00, 0x1B, 0x00, 0x00, 0x91, 0x1B, 0x5F, 0x00, 0x27, 0x5F,
    0x81, 0x70, 0x81, 0x27, 0x00, 0x00, 0x1B, 0x00, 0x00, 0x91, 0x27, 0x5F, 0x00, 0x33, 0x5F, 0x81,
    0x70, 0x81, 0x33, 0x00, 0x00, 0x27, 0x00, 0x81, 0x70, 0x91, 0x27, 0x5F, 0x00, 0x33, 0x5F, 0x81,
    0x70, 0x81, 0x33, 0x00, 0x00, 0x27, 0x00, 0x00, 0x91, 0x25, 0x5F, 0x00, 0x31, 0x5F, 0x81, 0x70,
    0x81, 0x31, 0x00, 0x00, 0x25, 0x00, 0x00, 0x91, 0x27, 0x5F, 0x00, 0x33, 0x5F, 0x81, 0x70, 0x81,
    0x33, 0x00, 0x00, 0x27, 0x00, 0x00, 0x91, 0x1B, 0x5F, 0x00, 0x27, 0x5F, 0x83, 0x60, 0x81, 0x27,
    0x00, 0x00, 0x1B, 0x00, 0x00, 0x91, 0x27, 0x5F, 0x00, 0x33, 0x5F, 0x81, 0x70, 0x81, 0x33, 0x00,
    0x00, 0x27, 0x00, 0x00, 0x91, 0x2A, 0x5F, 0x00, 0x36, 0x5F, 0x81, 0x70, 0x81, 0x36, 0x00, 0x00,
    0x2A, 0x00, 0x00, 0x91, 0x20, 0x5F, 0x00, 0x2C, 0x5F, 0x83, 0x60, 0x81, 0x2C, 0x00, 0x00, 0x20,
    0x00, 0x00, 0x91, 0x2A, 0x5F, 0x00, 0x36, 0x5F, 0x81, 0x70, 0x81, 0x36, 0x00, 0x00, 0x2A, 0x00,
    0x00, 0x91, 0x2C, 0x5F, 0x00, 0x38, 0x5F, 0x81, 0x70, 0x81, 0x38, 0x00, 0x00, 0x2C, 0x00, 0x00,
    0x91, 0x1B, 0x5F, 0x00, 0x27, 0x5F, 0x83, 0x60, 0x81, 0x27, 0x00, 0x00, 0x1B, 0x00, 0x00, 0x91,
    0x1B, 0x5F, 0x00, 0x27, 0x5F, 0x81, 0x70, 0x81, 0x27, 0x00, 0x00, 0x1B, 0x00, 0x00, 0x91, 0x27,
    0x5F, 0x00, 0x33, 0x5F, 0x81, 0x70, 0x81, 0x33, 0x00, 0x00, 0x27, 0x00, 0x81, 0x70, 0x91, 0x27,
    0x5F, 0x00, 0x33, 0x5F, 0x81, 0x70, 0x81, 0x33, 0x00, 0x00, 0x27, 0x00, 0x00, 0x91, 0x25, 0x5F,
    0x00, 0x31, 0x5F, 0x81, 0x70, 0x81, 0x31, 0x00, 0x00, 0x25, 0x00, 0x00, 0x91, 0x27, 0x5F, 0x00,
    0x33, 0x5F, 0x81, 0x70, 0x81, 0x33, 0x00, 0x00, 0x27, 0x00, 0x00, 0x91, 0x1B, 0x5F, 0x00, 0x27,
    0x5F, 0x83, 0x60, 0x81, 0x27, 0x00, 0x00, 0x1B, 0x00, 0x00, 0x91, 0x1B, 0x5F, 0x00, 0x27, 0x5F,
    0x81, 0x70, 0x81, 0x27, 0x00, 0x00, 0x1B, 0x00, 0x00, 0x91, 0x27, 0x5F, 0x00, 0x33, 0x5F, 0x81,
    0x70, 0x81, 0x33, 0x00, 0x00, 0x27, 0x00, 0x81, 0x70, 0x91, 0x27, 0x5F, 0x00, 0x33, 0x5F, 0x81,
    0x70, 0x81, 0x33, 0x00, 0x00, 0x27, 0x00, 0x00, 0x91, 0x25, 0x5F, 0x00, 0x31, 0x5F, 0x81, 0x70,
    0x81, 0x31, 0x00, 0x00, 0x25, 0x00, 0x00, 0x91, 0x27, 0x5F, 0x00, 0x33, 0x5F, 0x81, 0x70, 0x81,
    0x33, 0x00, 0x00, 0x27, 0x00, 0x00, 0x91, 0x1B, 0x5F, 0x00, 0x27, 0x5F, 0x83, 0x60, 0x81, 0x27,
    0x00, 0x00, 0x1B, 0x00, 0x00, 0x91, 0x1B, 0x5F, 0x00, 0x27, 0x5F, 0x81, 0x70, 0x81, 0x27, 0x00,
    0x00, 0x1B, 0x00, 0x00, 0x91, 0x27, 0x5F, 0x00, 0x33, 0x5F, 0x81, 0x70, 0x81, 0x33, 0x00, 0x00,
    0x27, 0x00, 0x81, 0x70, 0x91, 0x27, 0x5F, 0x00, 0x33, 0x5F, 0x81, 0x70, 0x81, 0x33, 0x00, 0x00,
    0x27, 0x00, 0x00, 0x91, 0x25, 0x5F, 0x00, 0x31, 0x5F, 0x81, 0x70, 0x81, 0x31, 0x00, 0x00, 0x25,
    0x00, 0x00, 0x91, 0x27, 0x5F, 0x00, 0x33, 0x5F, 0x81, 0x70, 0x81, 0x33, 0x00, 0x00, 0x27, 0x00,
    0x00, 0x91, 0x20, 0x5F, 0x00, 0x2C, 0x5F, 0x82, 0x40, 0x81, 0x2C, 0x00, 0x00, 0x20, 0x00, 0x00,
    0x91, 0x2A, 0x5F, 0x00, 0x36, 0x5F, 0x82, 0x40, 0x81, 0x36, 0x00, 0x00, 0x2A, 0x00, 0x00, 0x91,
    0x2C, 0x5F, 0x00, 0x38, 0x5F, 0x82, 0x40, 0x81, 0x38, 0x00, 0x00, 0x2C, 0x00, 0x00, 0x91, 0x1E,
    0x5F, 0x00, 0x2A, 0x5F, 0x82, 0x40, 0x81, 0x2A, 0x00, 0x00, 0x1E, 0x00, 0x00, 0x91, 0x27, 0x5F,
    0x00, 0x33, 0x5F, 0x82, 0x40, 0x81, 0x33, 0x00, 0x00, 0x27, 0x00, 0x00, 0x91, 0x2A, 0x5F, 0x00,
    0x36, 0x5F, 0x82, 0x40, 0x81, 0x36, 0x00, 0x00, 0x2A, 0x00, 0x00, 0x91, 0x1B, 0x5F, 0x00, 0x27,
    0x5F, 0x83, 0x60, 0x81, 0x27, 0x00, 0x00, 0x1B, 0x00, 0x00, 0x91, 0x1B, 0x5F, 0x00, 0x27, 0x5F,
    0x81, 0x70, 0x81, 0x27, 0x00, 0x00, 0x1B, 0x00, 0x00, 0x91, 0x27, 0x5F, 0x00, 0x33, 0x5F, 0x81,
    0x70, 0x81, 0x33, 0x00, 0x00, 0x27, 0x00, 0x81, 0x70, 0x91, 0x27, 0x5F, 0x00, 0x33, 0x5F, 0x81,
    0x70, 0x81, 0x33, 0x00, 0x00, 0x27, 0x00, 0x00, 0x91, 0x25, 0x5F, 0x00, 0x31, 0x5F, 0x81, 0x70,
    0x81, 0x31, 0x00, 0x00, 0x25, 0x00, 0x00, 0x91, 0x27, 0x5F, 0x00, 0x33, 0x5F, 0x81, 0x70, 0x81,
    0x33, 0x00, 0x00, 0x27, 0x00, 0x00, 0x91, 0x1B, 0x5F, 0x00, 0x27, 0x5F, 0x83, 0x60, 0x81, 0x27,
    0x00, 0x00, 0x1B, 0x00, 0x00, 0x91, 0x1B, 0x5F, 0x00, 0x27, 0x5F, 0x81, 0x70, 0x81, 0x27, 0x00,
    0x00, 0x1B, 0x00, 0x00, 0x91, 0x27, 0x5F, 0x00, 0x33, 0x5F, 0x81, 0x70, 0x81, 0x33, 0x00, 0x00,
    0x27, 0x00, 0x81, 0x70, 0x91, 0x27, 0x5F, 0x00, 0x33, 0x5F, 0x81, 0x70, 0x81, 0x33, 0x00, 0x00,
    0x27, 0x00, 0x00, 0x91, 0x25, 0x5F, 0x00, 0x31, 0x5F, 0x81, 0x70, 0x81, 0x31, 0x00, 0x00, 0x25,
    0x00, 0x00, 0x91, 0x27, 0x5F, 0x00, 0x33, 0x5F, 0x81, 0x70, 0x81, 0x33, 0x00, 0x00, 0x27, 0x00,
    0x00, 0x91, 0x1B, 0x5F, 0x00, 0x27, 0x5F, 0x83, 0x60, 0x81, 0x27, 0x00, 0x00, 0x1B, 0x00, 0x00,
    0x91, 0x1B, 0x5F, 0x00, 0x27, 0x5F, 0x81, 0x70, 0x81, 0x27, 0x00, 0x00, 0x1B, 0x00, 0x00, 0x91,
    0x27, 0x5F, 0x00, 0x33, 0x5F, 0x81, 0x70, 0x81, 0x33, 0x00, 0x00, 0x27, 0x00, 0x81, 0x70, 0x91,
    0x27, 0x5F, 0x00, 0x33, 0x5F, 0x81, 0x70, 0x81, 0x33, 0x00, 0x00, 0x27, 0x00, 0x00, 0x91, 0x25,
    0x5F, 0x00, 0x31, 0x5F, 0x81, 0x70, 0x81, 0x31, 0x00, 0x00, 0x25, 0x00, 0x00, 0x91, 0x27, 0x5F,
    0x00, 0x33, 0x5F, 0x81, 0x70, 0x81, 0x33, 0x00, 0x00, 0x27, 0x00, 0x00, 0x91, 0x1B, 0x5F, 0x00,
    0x27, 0x5F, 0x83, 0x60, 0x81, 0x27, 0x00, 0x00, 0x1B, 0x00, 0x00, 0x91, 0x27, 0x5F, 0x00, 0x33,
    0x5F, 0x81, 0x70, 0x81, 0x33, 0x00, 0x00, 0x27, 0x00, 0x00, 0x91, 0x2A, 0x5F, 0x00, 0x36, 0x5F,
    0x81, 0x70, 0x81, 0x36, 0x00, 0x00, 0x2A, 0x00, 0x00, 0x91, 0x20, 0x5F, 0x00, 0x2C, 0x5F, 0x83,
    0x60, 0x81, 0x2C, 0x00, 0x00, 0x20, 0x00, 0x00, 0x91, 0x2A, 0x5F, 0x00, 0x36, 0x5F, 0x81, 0x70,
    0x81, 0x36, 0x00, 0x00, 0x2A, 0x00, 0x00, 0x91, 0x2C, 0x5F, 0x00, 0x38, 0x5F, 0x81, 0x70, 0x81,
    0x38, 0x00, 0x00, 0x2C, 0x00, 0x00, 0x91, 0x17, 0x5F, 0x00, 0x23, 0x5F, 0x83, 0x60, 0x81, 0x23,
    0x00, 0x00, 0x17, 0x00, 0x00, 0x91, 0x17, 0x5F, 0x00, 0x23, 0x5F, 0x81, 0x70, 0x81, 0x23, 0x00,
    0x00, 0x17, 0x00, 0x00, 0x91, 0x23, 0x5F, 0x00, 0x2F, 0x5F, 0x81, 0x70, 0x81, 0x2F, 0x00, 0x00,
    0x23, 0x00, 0x81, 0x70, 0x91, 0x23, 0x5F, 0x00, 0x2F, 0x5F, 0x81, 0x70, 0x81, 0x2F, 0x00, 0x00,
    0x23, 0x00, 0x00, 0x91, 0x22, 0x5F, 0x00, 0x2E, 0x5F, 0x81, 0x70, 0x81, 0x2E, 0x00, 0x00, 0x22,
    0x00, 0x00, 0x91, 0x23, 0x5F, 0x00, 0x2F, 0x5F, 0x81, 0x70, 0x81, 0x2F, 0x00, 0x00, 0x23, 0x00,
    0x00, 0x91, 0x17, 0x5F, 0x00, 0x23, 0x5F, 0x83, 0x60, 0x81, 0x23, 0x00, 0x00, 0x17, 0x00, 0x00,
    0x91, 0x17, 0x5F, 0x00, 0x23, 0x5F, 0x81, 0x70, 0x81, 0x23, 0x00, 0x00, 0x17, 0x00, 0x00, 0x91,
    0x23, 0x5F, 0x00, 0x2F, 0x5F, 0x81, 0x70, 0x81, 0x2F, 0x00, 0x00, 0x23, 0x00, 0x81, 0x70, 0x91,
    0x23, 0x5F, 0x00, 0x2F, 0x5F, 0x81, 0x70, 0x81, 0x2F, 0x00, 0x00, 0x23, 0x00, 0x00, 0x91, 0x22,
    0x5F, 0x00, 0x2E, 0x5F, 0x81, 0x70, 0x81, 0x2E, 0x00, 0x00, 0x22, 0x00, 0x00, 0x91, 0x23, 0x5F,
    0x00, 0x2F, 0x5F, 0x81, 0x70, 0x81, 0x2F, 0x00, 0x00, 0x23, 0x00, 0x00, 0x91, 0x19, 0x5F, 0x00,
    0x25, 0x5F, 0x83, 0x60, 0x81, 0x25, 0x00, 0x00, 0x19, 0x00, 0x00, 0x91, 0x19, 0x5F, 0x00, 0x25,
    0x5F, 0x81, 0x70, 0x81, 0x25, 0x00, 0x00, 0x19, 0x00, 0x00, 0x91, 0x25, 0x5F, 0x00, 0x31, 0x5F,
    0x81, 0x70, 0x81, 0x31, 0x00, 0x00, 0x25, 0x00, 0x81, 0x70, 0x91, 0x25, 0x5F, 0x00, 0x31, 0x5F,
    0x81, 0x70, 0x81, 0x31, 0x00, 0x00, 0x25, 0x00, 0x00, 0x91, 0x23, 0x5F, 0x00, 0x2F, 0x5F, 0x81,
    0x70, 0x81, 0x2F, 0x00, 0x00, 0x23, 0x00, 0x00, 0x91, 0x25, 0x5F, 0x00, 0x31, 0x5F, 0x81, 0x70,
    0x81, 0x31, 0x00, 0x00, 0x25, 0x00, 0x00, 0x91, 0x1A, 0x5F, 0x00, 0x26, 0x5F, 0x83, 0x60, 0x81,
    0x26, 0x00, 0x00, 0x1A, 0x00, 0x00, 0x91, 0x1A, 0x5F, 0x00, 0x26, 0x5F, 0x81, 0x70, 0x81, 0x26,
    0x00, 0x00, 0x1A, 0x00, 0x00, 0x91, 0x26, 0x5F, 0x00, 0x32, 0x5F, 0x81, 0x70, 0x81, 0x32, 0x00,
    0x00, 0x26, 0x00, 0x81, 0x70, 0x91, 0x26, 0x5F, 0x00, 0x32, 0x5F, 0x81, 0x70, 0x81, 0x32, 0x00,
    0x00, 0x26, 0x00, 0x00, 0x91, 0x22, 0x5F, 0x00, 0x2E, 0x5F, 0x81, 0x70, 0x81, 0x2E, 0x00, 0x00,
    0x22, 0x00, 0x00, 0x91, 0x26, 0x5F, 0x00, 0x32, 0x5F, 0x81, 0x70, 0x81, 0x32, 0x00, 0x00, 0x26,
    0x00, 0x00, 0x91, 0x1B, 0x5F, 0x00, 0x27, 0x5F, 0x83, 0x60, 0x81, 0x27, 0x00, 0x00, 0x1B, 0x00,
    0x00, 0x91, 0x1B, 0x5F, 0x00, 0x27, 0x5F, 0x81, 0x70, 0x81, 0x27, 0x00, 0x00, 0x1B, 0x00, 0x00,
    0x91, 0x27, 0x5F, 0x00, 0x33, 0x5F, 0x81, 0x70, 0x81, 0x33, 0x00, 0x00, 0x27, 0x00, 0x81, 0x70,
    0x91, 0x27, 0x5F, 0x00, 0x33, 0x5F, 0x81, 0x70, 0x81, 0x33, 0x00, 0x00, 0x27, 0x00, 0x00, 0x91,
    0x25, 0x5F, 0x00, 0x31, 0x5F, 0x81, 0x70, 0x81, 0x31, 0x00, 0x00, 0x25, 0x00, 0x00, 0x91, 0x27,
    0x5F, 0x00, 0x33, 0x5F, 0x81, 0x70, 0x81, 0x33, 0x00, 0x00, 0x27, 0x00, 0x00, 0x91, 0x1B, 0x5F,
    0x00, 0x27, 0x5F, 0x83, 0x60, 0x81, 0x27, 0x00, 0x00, 0x1B, 0x00, 0x00, 0x91, 0x1B, 0x5F, 0x00,
    0x27, 0x5F, 0x81, 0x70, 0x81, 0x27, 0x00, 0x00, 0x1B, 0x00, 0x00, 0x91, 0x27, 0x5F, 0x00, 0x33,
    0x5F, 0x81, 0x70, 0x81, 0x33, 0x00, 0x00, 0x27, 0x00, 0x81, 0x70, 0x91, 0x27, 0x5F, 0x00, 0x33,
    0x5F, 0x81, 0x70, 0x81, 0x33, 0x00, 0x00, 0x27, 0x00, 0x00, 0x91, 0x25, 0x5F, 0x00, 0x31, 0x5F,
    0x81, 0x70, 0x81, 0x31, 0x00, 0x00, 0x25, 0x00, 0x00, 0x91, 0x27, 0x5F, 0x00, 0x33, 0x5F, 0x81,
    0x70, 0x81, 0x33, 0x00, 0x00, 0x27, 0x00, 0x00, 0x91, 0x1B, 0x5F, 0x00, 0x27, 0x5F, 0x83, 0x60,
    0x81, 0x27, 0x00, 0x00, 0x1B, 0x00, 0x00, 0x91, 0x1B, 0x5F, 0x00, 0x27, 0x5F, 0x81, 0x70, 0x81,
    0x27, 0x00, 0x00, 0x1B, 0x00, 0x00, 0x91, 0x27, 0x5F, 0x00, 0x33, 0x5F, 0x81, 0x70, 0x81, 0x33,
    0x00, 0x00, 0x27, 0x00, 0x81, 0x70, 0x91, 0x27, 0x5F, 0x00, 0x33, 0x5F, 0x81, 0x70, 0x81, 0x33,
    0x00, 0x00, 0x27, 0x00, 0x00, 0x91, 0x25, 0x5F, 0x00, 0x31, 0x5F, 0x81, 0x70, 0x81, 0x31, 0x00,
    0x00, 0x25, 0x00, 0x00, 0x91, 0x27, 0x5F, 0x00, 0x33, 0x5F, 0x81, 0x70, 0x81, 0x33, 0x00, 0x00,
    0x27, 0x00, 0x00, 0x91, 0x1B, 0x5F, 0x00, 0x27, 0x5F, 0x83, 0x60, 0x81, 0x27, 0x00, 0x00, 0x1B,
    0x00, 0x00, 0x91, 0x27, 0x5F, 0x00, 0x33, 0x5F, 0x81, 0x70, 0x81, 0x33, 0x00, 0x00, 0x27, 0x00,
    0x00, 0x91, 0x2A, 0x5F, 0x00, 0x36, 0x5F, 0x81, 0x70, 0x81, 0x36, 0x00, 0x00, 0x2A, 0x00, 0x00,
    0x91, 0x20, 0x5F, 0x00, 0x2C, 0x5F, 0x83, 0x60, 0x81, 0x2C, 0x00, 0x00, 0x20, 0x00, 0x00, 0x91,
    0x2A, 0x5F, 0x00, 0x36, 0x5F, 0x81, 0x70, 0x81, 0x36, 0x00, 0x00, 0x2A, 0x00, 0x00, 0x91, 0x2C,
    0x5F, 0x00, 0x38, 0x5F, 0x81, 0x70, 0x81, 0x38, 0x00, 0x00, 0x2C, 0x00, 0x00, 0x91, 0x17, 0x5F,
    0x00, 0x23, 0x5F, 0x83, 0x60, 0x81, 0x23, 0x00, 0x00, 0x17, 0x00, 0x00, 0x91, 0x17, 0x5F, 0x00,
    0x23, 0x5F, 0x81, 0x70, 0x81, 0x23, 0x00, 0x00, 0x17, 0x00, 0x00, 0x91, 0x23, 0x5F, 0x00, 0x2F,
    0x5F, 0x81, 0x70, 0x81, 0x2F, 0x00, 0x00, 0x23, 0x00, 0x81, 0x70, 0x91, 0x23, 0x5F, 0x00, 0x2F,
    0x5F, 0x81, 0x70, 0x81, 0x2F, 0x00, 0x00, 0x23, 0x00, 0x00, 0x91, 0x22, 0x5F, 0x00, 0x2E, 0x5F,
    0x81, 0x70, 0x81, 0x2E, 0x00, 0x00, 0x22, 0x00, 0x00, 0x91, 0x23, 0x5F, 0x00, 0x2F, 0x5F, 0x81,
    0x70, 0x81, 0x2F, 0x00, 0x00, 0x23, 0x00, 0x00, 0x91, 0x17, 0x5F, 0x00, 0x23, 0x5F, 0x83, 0x60,
    0x81, 0x23, 0x00, 0x00, 0x17, 0x00, 0x00, 0x91, 0x17, 0x5F, 0x00, 0x23, 0x5F, 0x81, 0x70, 0x81,
    0x23, 0x00, 0x00, 0x17, 0x00, 0x00, 0x91, 0x23, 0x5F, 0x00, 0x2F, 0x5F, 0x81, 0x70, 0x81, 0x2F,
    0x00, 0x00, 0x23, 0x00, 0x81, 0x70, 0x91, 0x23, 0x5F, 0x00, 0x2F, 0x5F, 0x81, 0x70, 0x81, 0x2F,
    0x00, 0x00, 0x23, 0x00, 0x00, 0x91, 0x22, 0x5F, 0x00, 0x2E, 0x5F, 0x81, 0x70, 0x81, 0x2E, 0x00,
    0x00, 0x22, 0x00, 0x00, 0x91, 0x23, 0x5F, 0x00, 0x2F, 0x5F, 0x81, 0x70, 0x81, 0x2F, 0x00, 0x00,
    0x23, 0x00, 0x00, 0x91, 0x19, 0x5F, 0x00, 0x25, 0x5F, 0x83, 0x60, 0x81, 0x25, 0x00, 0x00, 0x19,
    0x00, 0x00, 0x91, 0x19, 0x5F, 0x00, 0x25, 0x5F, 0x81, 0x70, 0x81, 0x25, 0x00, 0x00, 0x19, 0x00,
    0x00, 0x91, 0x25, 0x5F, 0x00, 0x31, 0x5F, 0x81, 0x70, 0x81, 0x31, 0x00, 0x00, 0x25, 0x00, 0x81,
    0x70, 0x91, 0x25, 0x5F, 0x00, 0x31, 0x5F, 0x81, 0x70, 0x81, 0x31, 0x00, 0x00, 0x25, 0x00, 0x00,
    0x91, 0x23, 0x5F, 0x00, 0x2F, 0x5F, 0x81, 0x70, 0x81, 0x2F, 0x00, 0x00, 0x23, 0x00, 0x00, 0x91,
    0x25, 0x5F, 0x00, 0x31, 0x5F, 0x81, 0x70, 0x81, 0x31, 0x00, 0x00, 0x25, 0x00, 0x00, 0x91, 0x1A,
    0x5F, 0x00, 0x26, 0x5F, 0x83, 0x60, 0x81, 0x26, 0x00, 0x00, 0x1A, 0x00, 0x00, 0x91, 0x1A, 0x5F,
    0x00, 0x26, 0x5F, 0x81, 0x70, 0x81, 0x26, 0x00, 0x00, 0x1A, 0x00, 0x00, 0x91, 0x26, 0x5F, 0x00,
    0x32, 0x5F, 0x81, 0x70, 0x81, 0x32, 0x00, 0x00, 0x26, 0x00, 0x81, 0x70, 0x91, 0x26, 0x5F, 0x00,
    0x32, 0x5F, 0x81, 0x70, 0x81, 0x32, 0x00, 0x00, 0x26, 0x00, 0x00, 0x91, 0x22, 0x5F, 0x00, 0x2E,
    0x5F, 0x81, 0x70, 0x81, 0x2E, 0x00, 0x00, 0x22, 0x00, 0x00, 0x91, 0x26, 0x5F, 0x00, 0x32, 0x5F,
    0x81, 0x70, 0x81, 0x32, 0x00, 0x00, 0x26, 0x00, 0x00, 0x91, 0x27, 0x5F, 0x00, 0x1B, 0x5F, 0x83,
    0x60, 0x81, 0x1B, 0x00, 0x00, 0x27, 0x00, 0x00, 0x91, 0x27, 0x5F, 0x00, 0x1B, 0x5F, 0x81, 0x70,
    0x81, 0x1B, 0x00, 0x00, 0x27, 0x00, 0x00, 0x91, 0x33, 0x5F, 0x00, 0x27, 0x5F, 0x81, 0x70, 0x81,
    0x27, 0x00, 0x00, 0x33, 0x00, 0x81, 0x70, 0x91, 0x33, 0x5F, 0x00, 0x27, 0x5F, 0x81, 0x70, 0x81,
    0x27, 0x00, 0x00, 0x33, 0x00, 0x00, 0x91, 0x31, 0x5F, 0x00, 0x25, 0x5F, 0x81, 0x70, 0x81, 0x25,
    0x00, 0x00, 0x31, 0x00, 0x00, 0x91, 0x33, 0x5F, 0x00, 0x27, 0x5F, 0x81, 0x70, 0x81, 0x27, 0x00,
    0x00, 0x33, 0x00, 0x00, 0x91, 0x27, 0x5F, 0x00, 0x1B, 0x5F, 0x83, 0x60, 0x81, 0x1B, 0x00, 0x00,
    0x27, 0x00, 0x00, 0x91, 0x27, 0x5F, 0x00, 0x1B, 0x5F, 0x81, 0x70, 0x81, 0x1B, 0x00, 0x00, 0x27,
    0x00, 0x00, 0x91, 0x33, 0x5F, 0x00, 0x27, 0x5F, 0x81, 0x70, 0x81, 0x27, 0x00, 0x00, 0x33, 0x00,
    0x81, 0x70, 0x91, 0x33, 0x5F, 0x00, 0x27, 0x5F, 0x81, 0x70, 0x81, 0x27, 0x00, 0x00, 0x33, 0x00,
    0x00, 0x91, 0x31, 0x5F, 0x00, 0x25, 0x5F, 0x81, 0x70, 0x81, 0x25, 0x00, 0x00, 0x31, 0x00, 0x00,
    0x91, 0x33, 0x5F, 0x00, 0x27, 0x5F, 0x81, 0x70, 0x81, 0x27, 0x00, 0x00, 0x33, 0x00, 0x00, 0x91,
    0x27, 0x5F, 0x00, 0x1B, 0x5F, 0x83, 0x60, 0x81, 0x1B, 0x00, 0x00, 0x27, 0x00, 0x00, 0x91, 0x27,
    0x5F, 0x00, 0x1B, 0x5F, 0x81, 0x70, 0x81, 0x1B, 0x00, 0x00, 0x27, 0x00, 0x00, 0x91, 0x33, 0x5F,
    0x00, 0x27, 0x5F, 0x81, 0x70, 0x81, 0x27, 0x00, 0x00, 0x33, 0x00, 0x81, 0x70, 0x91, 0x33, 0x5F,
    0x00, 0x27, 0x5F, 0x81, 0x70, 0x81, 0x27, 0x00, 0x00, 0x33, 0x00, 0x00, 0x91, 0x31, 0x5F, 0x00,
    0x25, 0x5F, 0x81, 0x70, 0x81, 0x25, 0x00, 0x00, 0x31, 0x00, 0x00, 0x91, 0x33, 0x5F, 0x00, 0x27,
    0x5F, 0x81, 0x70, 0x81, 0x27, 0x00, 0x00, 0x33, 0x00, 0x00, 0x91, 0x27, 0x5F, 0x00, 0x1B, 0x5F,
    0x83, 0x60, 0x81, 0x1B, 0x00, 0x00, 0x27, 0x00, 0x00, 0x91, 0x33, 0x5F, 0x00, 0x27, 0x5F, 0x81,
    0x70, 0x81, 0x27, 0x00, 0x00, 0x33, 0x00, 0x00, 0x91, 0x36, 0x5F, 0x00, 0x2A, 0x5F, 0x81, 0x70,
    0x81, 0x2A, 0x00, 0x00, 0x36, 0x00, 0x00, 0x91, 0x2C, 0x5F, 0x00, 0x20, 0x5F, 0x83, 0x60, 0x81,
    0x20, 0x00, 0x00, 0x2C, 0x00, 0x00, 0x91, 0x36, 0x5F, 0x00, 0x2A, 0x5F, 0x81, 0x70, 0x81, 0x2A,
    0x00, 0x00, 0x36, 0x00, 0x00, 0x91, 0x38, 0x5F, 0x00, 0x2C, 0x5F, 0x81, 0x70, 0x81, 0x2C, 0x00,
    0x00, 0x38, 0x00, 0x00, 0x91, 0x23, 0x5F, 0x00, 0x17, 0x5F, 0x83, 0x60, 0x81, 0x17, 0x00, 0x00,
    0x23, 0x00, 0x00, 0x91, 0x23, 0x5F, 0x00, 0x17, 0x5F, 0x81, 0x70, 0x81, 0x17, 0x00, 0x00, 0x23,
    0x00, 0x00, 0x91, 0x2F, 0x5F, 0x00, 0x23, 0x5F, 0x81, 0x70, 0x81, 0x23, 0x00, 0x00, 0x2F, 0x00,
    0x81, 0x70, 0x91, 0x2F, 0x5F, 0x00, 0x23, 0x5F, 0x81, 0x70, 0x81, 0x23, 0x00, 0x00, 0x2F, 0x00,
    0x00, 0x91, 0x2E, 0x5F, 0x00, 0x22, 0x5F, 0x81, 0x70, 0x81, 0x22, 0x00, 0x00, 0x2E, 0x00, 0x00,
    0x91, 0x2F, 0x5F, 0x00, 0x23, 0x5F, 0x81, 0x70, 0x81, 0x23, 0x00, 0x00, 0x2F, 0x00, 0x00, 0x91,
    0x23, 0x5F, 0x00, 0x17, 0x5F, 0x83, 0x60, 0x81, 0x17, 0x00, 0x00, 0x23, 0x00, 0x00, 0x91, 0x23,
    0x5F, 0x00, 0x17, 0x5F, 0x81, 0x70, 0x81, 0x17, 0x00, 0x00, 0x23, 0x00, 0x00, 0x91, 0x2F, 0x5F,
    0x00, 0x23, 0x5F, 0x81, 0x70, 0x81, 0x23, 0x00, 0x00, 0x2F, 0x00, 0x81, 0x70, 0x91, 0x2F, 0x5F,
    0x00, 0x23, 0x5F, 0x81, 0x70, 0x81, 0x23, 0x00, 0x00, 0x2F, 0x00, 0x00, 0x91, 0x2E, 0x5F, 0x00,
    0x22, 0x5F, 0x81, 0x70, 0x81, 0x22, 0x00, 0x00, 0x2E, 0x00, 0x00, 0x91, 0x2F, 0x5F, 0x00, 0x23,
    0x5F, 0x81, 0x70, 0x81, 0x23, 0x00, 0x00, 0x2F, 0x00, 0x00, 0x91, 0x25, 0x5F, 0x00, 0x19, 0x5F,
    0x83, 0x60, 0x81, 0x19, 0x00, 0x00, 0x25, 0x00, 0x00, 0x91, 0x25, 0x5F, 0x00, 0x19, 0x5F, 0x81,
    0x70, 0x81, 0x19, 0x00, 0x00, 0x25, 0x00, 0x00, 0x91, 0x31, 0x5F, 0x00, 0x25, 0x5F, 0x81, 0x70,
    0x81, 0x25, 0x00, 0x00, 0x31, 0x00, 0x81, 0x70, 0x91, 0x31, 0x5F, 0x00, 0x25, 0x5F, 0x81, 0x70,
    0x81, 0x25, 0x00, 0x00, 0x31, 0x00, 0x00, 0x91, 0x2F, 0x5F, 0x00, 0x23, 0x5F, 0x81, 0x70, 0x81,
    0x23, 0x00, 0x00, 0x2F, 0x00, 0x00, 0x91, 0x31, 0x5F, 0x00, 0x25, 0x5F, 0x81, 0x70, 0x81, 0x25,
    0x00, 0x00, 0x31, 0x00, 0x00, 0x91, 0x26, 0x5F, 0x00, 0x1A, 0x5F, 0x83, 0x60, 0x81, 0x1A, 0x00,
    0x00, 0x26, 0x00, 0x00, 0x91, 0x26, 0x5F, 0x00, 0x1A, 0x5F, 0x81, 0x70, 0x81, 0x1A, 0x00, 0x00,
    0x26, 0x00, 0x00, 0x91, 0x32, 0x5F, 0x00, 0x26, 0x5F, 0x81, 0x70, 0x81, 0x26, 0x00, 0x00, 0x32,
    0x00, 0x81, 0x70, 0x91, 0x32, 0x5F, 0x00, 0x26, 0x5F, 0x81, 0x70, 0x81, 0x26, 0x00, 0x00, 0x32,
    0x00, 0x00, 0x91, 0x2E, 0x5F, 0x00, 0x22, 0x5F, 0x81, 0x70, 0x81, 0x22, 0x00, 0x00, 0x2E, 0x00,
    0x00, 0x91, 0x32, 0x5F, 0x00, 0x26, 0x5F, 0x81, 0x70, 0x81, 0x26, 0x00, 0x00, 0x32, 0x00, 0x00,
    0x91, 0x27, 0x5F, 0x00, 0x1B, 0x5F, 0x83, 0x60, 0x81, 0x1B, 0x00, 0x00, 0x27, 0x00, 0x00, 0x91,
    0x27, 0x5F, 0x00, 0x1B, 0x5F, 0x81, 0x70, 0x81, 0x1B, 0x00, 0x00, 0x27, 0x00, 0x00, 0x91, 0x33,
    0x5F, 0x00, 0x27, 0x5F, 0x81, 0x70, 0x81, 0x27, 0x00, 0x00, 0x33, 0x00, 0x81, 0x70, 0x91, 0x33,
    0x5F, 0x00, 0x27, 0x5F, 0x81, 0x70, 0x81, 0x27, 0x00, 0x00, 0x33, 0x00, 0x00, 0x91, 0x31, 0x5F,
    0x00, 0x25, 0x5F, 0x81, 0x70, 0x81, 0x25, 0x00, 0x00, 0x31, 0x00, 0x00, 0x91, 0x33, 0x5F, 0x00,
    0x27, 0x5F, 0x81, 0x70, 0x81, 0x27, 0x00, 0x00, 0x33, 0x00, 0x00, 0x91, 0x27, 0x5F, 0x00, 0x1B,
    0x5F, 0x83, 0x60, 0x81, 0x1B, 0x00, 0x00, 0x27, 0x00, 0x00, 0x91, 0x27, 0x5F, 0x00, 0x1B, 0x5F,
    0x81, 0x70, 0x81, 0x1B, 0x00, 0x00, 0x27, 0x00, 0x00, 0x91, 0x33, 0x5F, 0x00, 0x27, 0x5F, 0x81,
    0x70, 0x81, 0x27, 0x00, 0x00, 0x33, 0x00, 0x81, 0x70, 0x91, 0x33, 0x5F, 0x00, 0x27, 0x5F, 0x81,
    0x70, 0x81, 0x27, 0x00, 0x00, 0x33, 0x00, 0x00, 0x91, 0x31, 0x5F, 0x00, 0x25, 0x5F, 0x81, 0x70,
    0x81, 0x25, 0x00, 0x00, 0x31, 0x00, 0x00, 0x91, 0x33, 0x5F, 0x00, 0x27, 0x5F, 0x81, 0x70, 0x81,
    0x27, 0x00, 0x00, 0x33, 0x00, 0x00, 0x91, 0x27, 0x5F, 0x00, 0x1B, 0x5F, 0x83, 0x60, 0x81, 0x1B,
    0x00, 0x00, 0x27, 0x00, 0x00, 0x91, 0x27, 0x5F, 0x00, 0x1B, 0x5F, 0x81, 0x70, 0x81, 0x1B, 0x00,
    0x00, 0x27, 0x00, 0x00, 0x91, 0x33, 0x5F, 0x00, 0x27, 0x5F, 0x81, 0x70, 0x81, 0x27, 0x00, 0x00,
    0x33, 0x00, 0x81, 0x70, 0x91, 0x33, 0x5F, 0x00, 0x27, 0x5F, 0x81, 0x70, 0x81, 0x27, 0x00, 0x00,
    0x33, 0x00, 0x00, 0x91, 0x31, 0x5F, 0x00, 0x25, 0x5F, 0x81, 0x70, 0x81, 0x25, 0x00, 0x00, 0x31,
    0x00, 0x00, 0x91, 0x33, 0x5F, 0x00, 0x27, 0x5F, 0x81, 0x70, 0x81, 0x27, 0x00, 0x00, 0x33, 0x00,
    0x00, 0x91, 0x27, 0x5F, 0x00, 0x1B, 0x5F, 0x83, 0x60, 0x81, 0x1B, 0x00, 0x00, 0x27, 0x00, 0x00,
    0x91, 0x33, 0x5F, 0x00, 0x27, 0x5F, 0x81, 0x70, 0x81, 0x27, 0x00, 0x00, 0x33, 0x00, 0x00, 0x91,
    0x36, 0x5F, 0x00, 0x2A, 0x5F, 0x81, 0x70, 0x81, 0x2A, 0x00, 0x00, 0x36, 0x00, 0x00, 0x91, 0x2C,
    0x5F, 0x00, 0x20, 0x5F, 0x83, 0x60, 0x81, 0x20, 0x00, 0x00, 0x2C, 0x00, 0x00, 0x91, 0x36, 0x5F,
    0x00, 0x2A, 0x5F, 0x81, 0x70, 0x81, 0x2A, 0x00, 0x00, 0x36, 0x00, 0x00, 0x91, 0x38, 0x5F, 0x00,
    0x2C, 0x5F, 0x81, 0x70, 0x81, 0x2C, 0x00, 0x00, 0x38, 0x00, 0x00, 0x91, 0x23, 0x5F, 0x00, 0x17,
    0x5F, 0x83, 0x60, 0x81, 0x17, 0x00, 0x00, 0x23, 0x00, 0x00, 0x91, 0x23, 0x5F, 0x00, 0x17, 0x5F,
    0x81, 0x70, 0x81, 0x17, 0x00, 0x00, 0x23, 0x00, 0x00, 0x91, 0x2F, 0x5F, 0x00, 0x23, 0x5F, 0x81,
    0x70, 0x81, 0x23, 0x00, 0x00, 0x2F, 0x00, 0x81, 0x70, 0x91, 0x2F, 0x5F, 0x00, 0x23, 0x5F, 0x81,
    0x70, 0x81, 0x23, 0x00, 0x00, 0x2F, 0x00, 0x00, 0x91, 0x2E, 0x5F, 0x00, 0x22, 0x5F, 0x81, 0x70,
    0x81, 0x22, 0x00, 0x00, 0x2E, 0x00, 0x00, 0x91, 0x2F, 0x5F, 0x00, 0x23, 0x5F, 0x81, 0x70, 0x81,
    0x23, 0x00, 0x00, 0x2F, 0x00, 0x00, 0x91, 0x23, 0x5F, 0x00, 0x17, 0x5F, 0x83, 0x60, 0x81, 0x17,
    0x00, 0x00, 0x23, 0x00, 0x00, 0x91, 0x23, 0x5F, 0x00, 0x17, 0x5F, 0x81, 0x70, 0x81, 0x17, 0x00,
    0x00, 0x23, 0x00, 0x00, 0x91, 0x2F, 0x5F, 0x00, 0x23, 0x5F, 0x81, 0x70, 0x81, 0x23, 0x00, 0x00,
    0x2F, 0x00, 0x81, 0x70, 0x91, 0x2F, 0x5F, 0x00, 0x23, 0x5F, 0x81, 0x70, 0x81, 0x23, 0x00, 0x00,
    0x2F, 0x00, 0x00, 0x91, 0x2E, 0x5F, 0x00, 0x22, 0x5F, 0x81, 0x70, 0x81, 0x22, 0x00, 0x00, 0x2E,
    0x00, 0x00, 0x91, 0x2F, 0x5F, 0x00, 0x23, 0x5F, 0x81, 0x70, 0x81, 0x23, 0x00, 0x00, 0x2F, 0x00,
    0x00, 0x91, 0x25, 0x5F, 0x00, 0x19, 0x5F, 0x83, 0x60, 0x81, 0x19, 0x00, 0x00, 0x25, 0x00, 0x00,
    0x91, 0x25, 0x5F, 0x00, 0x19, 0x5F, 0x81, 0x70, 0x81, 0x19, 0x00, 0x00, 0x25, 0x00, 0x00, 0x91,
    0x31, 0x5F, 0x00, 0x25, 0x5F, 0x81, 0x70, 0x81, 0x25, 0x00, 0x00, 0x31, 0x00, 0x81, 0x70, 0x91,
    0x31, 0x5F, 0x00, 0x25, 0x5F, 0x81, 0x70, 0x81, 0x25, 0x00, 0x00, 0x31, 0x00, 0x00, 0x91, 0x2F,
    0x5F, 0x00, 0x23, 0x5F, 0x81, 0x70, 0x81, 0x23, 0x00, 0x00, 0x2F, 0x00, 0x00, 0x91, 0x31, 0x5F,
    0x00, 0x25, 0x5F, 0x81, 0x70, 0x81, 0x25, 0x00, 0x00, 0x31, 0x00, 0x00, 0x91, 0x26, 0x5F, 0x00,
    0x1A, 0x5F, 0x83, 0x60, 0x81, 0x1A, 0x00, 0x00, 0x26, 0x00, 0x00, 0x91, 0x26, 0x5F, 0x00, 0x1A,
    0x5F, 0x81, 0x70, 0x81, 0x1A, 0x00, 0x00, 0x26, 0x00, 0x00, 0x91, 0x32, 0x5F, 0x00, 0x26, 0x5F,
    0x81, 0x70, 0x81, 0x26, 0x00, 0x00, 0x32, 0x00, 0x81, 0x70, 0x91, 0x32, 0x5F, 0x00, 0x26, 0x5F,
    0x81, 0x70, 0x81, 0x26, 0x00, 0x00, 0x32, 0x00, 0x00, 0x91, 0x2E, 0x5F, 0x00, 0x22, 0x5F, 0x81,
    0x70, 0x81, 0x22, 0x00, 0x00, 0x2E, 0x00, 0x00, 0x91, 0x32, 0x5F, 0x00, 0x26, 0x5F, 0x81, 0x70,
    0x81, 0x26, 0x00, 0x00, 0x32, 0x00, 0x00, 0x91, 0x17, 0x5F, 0x00, 0x23, 0x5F, 0x83, 0x60, 0x81,
    0x23, 0x00, 0x00, 0x17, 0x00, 0x00, 0x91, 0x17, 0x5F, 0x00, 0x23, 0x5F, 0x81, 0x70, 0x81, 0x23,
    0x00, 0x00, 0x17, 0x00, 0x00, 0x91, 0x23, 0x5F, 0x00, 0x2F, 0x5F, 0x81, 0x70, 0x81, 0x2F, 0x00,
    0x00, 0x23, 0x00, 0x81, 0x70, 0x91, 0x23, 0x5F, 0x00, 0x2F, 0x5F, 0x81, 0x70, 0x81, 0x2F, 0x00,
    0x00, 0x23, 0x00, 0x00, 0x91, 0x22, 0x5F, 0x00, 0x2E, 0x5F, 0x81, 0x70, 0x81, 0x2E, 0x00, 0x00,
    0x22, 0x00, 0x00, 0x91, 0x23, 0x5F, 0x00, 0x2F, 0x5F, 0x81, 0x70, 0x81, 0x2F, 0x00, 0x00, 0x23,
    0x00, 0x00, 0x91, 0x17, 0x5F, 0x00, 0x23, 0x5F, 0x83, 0x60, 0x81, 0x23, 0x00, 0x00, 0x17, 0x00,
    0x00, 0x91, 0x17, 0x5F, 0x00, 0x23, 0x5F, 0x81, 0x70, 0x81, 0x23, 0x00, 0x00, 0x17, 0x00, 0x00,
    0x91, 0x23, 0x5F, 0x00, 0x2F, 0x5F, 0x81, 0x70, 0x81, 0x2F, 0x00, 0x00, 0x23, 0x00, 0x81, 0x70,
    0x91, 0x23, 0x5F, 0x00, 0x2F, 0x5F, 0x81, 0x70, 0x81, 0x2F, 0x00, 0x00, 0x23, 0x00, 0x00, 0x91,
    0x22, 0x5F, 0x00, 0x2E, 0x5F, 0x81, 0x70, 0x81, 0x2E, 0x00, 0x00, 0x22, 0x00, 0x00, 0x91, 0x23,
    0x5F, 0x00, 0x2F, 0x5F, 0x81, 0x70, 0x81, 0x2F, 0x00, 0x00, 0x23, 0x00, 0x00, 0x91, 0x19, 0x5F,
    0x00, 0x25, 0x5F, 0x83, 0x60, 0x81, 0x25, 0x00, 0x00, 0x19, 0x00, 0x00, 0x91, 0x19, 0x5F, 0x00,
    0x25, 0x5F, 0x81, 0x70, 0x81, 0x25, 0x00, 0x00, 0x19, 0x00, 0x00, 0x91, 0x25, 0x5F, 0x00, 0x31,
    0x5F, 0x81, 0x70, 0x81, 0x31, 0x00, 0x00, 0x25, 0x00, 0x81, 0x70, 0x91, 0x25, 0x5F, 0x00, 0x31,
    0x5F, 0x81, 0x70, 0x81, 0x31, 0x00, 0x00, 0x25, 0x00, 0x00, 0x91, 0x23, 0x5F, 0x00, 0x2F, 0x5F,
    0x81, 0x70, 0x81, 0x2F, 0x00, 0x00, 0x23, 0x00, 0x00, 0x91, 0x25, 0x5F, 0x00, 0x31, 0x5F, 0x81,
    0x70, 0x81, 0x31, 0x00, 0x00, 0x25, 0x00, 0x00, 0x91, 0x19, 0x5F, 0x00, 0x25, 0x5F, 0x83, 0x60,
    0x81, 0x25, 0x00, 0x00, 0x19, 0x00, 0x00, 0x91, 0x19, 0x5F, 0x00, 0x25, 0x5F, 0x81, 0x70, 0x81,
    0x25, 0x00, 0x00, 0x19, 0x00, 0x00, 0x91, 0x25, 0x5F, 0x00, 0x31, 0x5F, 0x81, 0x70, 0x81, 0x31,
    0x00, 0x00, 0x25, 0x00, 0x81, 0x70, 0x91, 0x25, 0x5F, 0x00, 0x31, 0x5F, 0x81, 0x70, 0x81, 0x31,
    0x00, 0x00, 0x25, 0x00, 0x00, 0x91, 0x23, 0x5F, 0x00, 0x2F, 0x5F, 0x81, 0x70, 0x81, 0x2F, 0x00,
    0x00, 0x23, 0x00, 0x00, 0x91, 0x25, 0x5F, 0x00, 0x31, 0x5F, 0x81, 0x70, 0x81, 0x31, 0x00, 0x00,
    0x25, 0x00, 0x00, 0x91, 0x1B, 0x5F, 0x00, 0x27, 0x5F, 0x83, 0x60, 0x81, 0x27, 0x00, 0x00, 0x1B,
    0x00, 0x00, 0x91, 0x1B, 0x5F, 0x00, 0x27, 0x5F, 0x81, 0x70, 0x81, 0x27, 0x00, 0x00, 0x1B, 0x00,
    0x00, 0x91, 0x27, 0x5F, 0x00, 0x33, 0x5F, 0x81, 0x70, 0x81, 0x33, 0x00, 0x00, 0x27, 0x00, 0x81,
    0x70, 0x91, 0x27, 0x5F, 0x00, 0x33, 0x5F, 0x81, 0x70, 0x81, 0x33, 0x00, 0x00, 0x27, 0x00, 0x00,
    0x91, 0x25, 0x5F, 0x00, 0x31, 0x5F, 0x81, 0x70, 0x81, 0x31, 0x00, 0x00, 0x25, 0x00, 0x00, 0x91,
    0x27, 0x5F, 0x00, 0x33, 0x5F, 0x81, 0x70, 0x81, 0x33, 0x00, 0x00, 0x27, 0x00, 0x00, 0x91, 0x1B,
    0x5F, 0x00, 0x27, 0x5F, 0x83, 0x60, 0x81, 0x27, 0x00, 0x00, 0x1B, 0x00, 0x00, 0x91, 0x1B, 0x5F,
    0x00, 0x27, 0x5F, 0x81, 0x70, 0x81, 0x27, 0x00, 0x00, 0x1B, 0x00, 0x00, 0x91, 0x27, 0x5F, 0x00,
    0x33, 0x5F, 0x81, 0x70, 0x81, 0x33, 0x00, 0x00, 0x27, 0x00, 0x81, 0x70, 0x91, 0x27, 0x5F, 0x00,
    0x33, 0x5F, 0x81, 0x70, 0x81, 0x33, 0x00, 0x00, 0x27, 0x00, 0x00, 0x91, 0x25, 0x5F, 0x00, 0x31,
    0x5F, 0x81, 0x70, 0x81, 0x31, 0x00, 0x00, 0x25, 0x00, 0x00, 0x91, 0x27, 0x5F, 0x00, 0x33, 0x5F,
    0x81, 0x70, 0x81, 0x33, 0x00, 0x00, 0x27, 0x00, 0x00, 0x91, 0x1B, 0x5F, 0x00, 0x27, 0x5F, 0x83,
    0x60, 0x81, 0x27, 0x00, 0x00, 0x1B, 0x00, 0x00, 0x91, 0x1B, 0x5F, 0x00, 0x27, 0x5F, 0x81, 0x70,
    0x81, 0x27, 0x00, 0x00, 0x1B, 0x00, 0x00, 0x91, 0x27, 0x5F, 0x00, 0x33, 0x5F, 0x81, 0x70, 0x81,
    0x33, 0x00, 0x00, 0x27, 0x00, 0x81, 0x70, 0x91, 0x27, 0x5F, 0x00, 0x33, 0x5F, 0x81, 0x70, 0x81,
    0x33, 0x00, 0x00, 0x27, 0x00, 0x00, 0x91, 0x25, 0x5F, 0x00, 0x31, 0x5F, 0x81, 0x70, 0x81, 0x31,
    0x00, 0x00, 0x25, 0x00, 0x00, 0x91, 0x27, 0x5F, 0x00, 0x33, 0x5F, 0x81, 0x70, 0x81, 0x33, 0x00,
    0x00, 0x27, 0x00, 0x00, 0x91, 0x20, 0x5F, 0x00, 0x2C, 0x5F, 0x83, 0x60, 0x81, 0x2C, 0x00, 0x00,
    0x20, 0x00, 0x00, 0x91, 0x2A, 0x5F, 0x00, 0x36, 0x5F, 0x81, 0x70, 0x81, 0x36, 0x00, 0x00, 0x2A,
    0x00, 0x00, 0x91, 0x2C, 0x5F, 0x00, 0x38, 0x5F, 0x81, 0x70, 0x81, 0x38, 0x00, 0x00, 0x2C, 0x00,
    0x00, 0x91, 0x1E, 0x5F, 0x00, 0x2A, 0x5F, 0x83, 0x60, 0x81, 0x2A, 0x00, 0x00, 0x1E, 0x00, 0x00,
    0x91, 0x27, 0x5F, 0x00, 0x33, 0x5F, 0x81, 0x70, 0x81, 0x33, 0x00, 0x00, 0x27, 0x00, 0x00, 0x91,
    0x2A, 0x5F, 0x00, 0x36, 0x5F, 0x81, 0x70, 0x81, 0x36, 0x00, 0x00, 0x2A, 0x00, 0x00, 0x91, 0x17,
    0x5F, 0x00, 0x23, 0x5F, 0x83, 0x60, 0x81, 0x23, 0x00, 0x00, 0x17, 0x00, 0x00, 0x91, 0x17, 0x5F,
    0x00, 0x23, 0x5F, 0x81, 0x70, 0x81, 0x23, 0x00, 0x00, 0x17, 0x00, 0x00, 0x91, 0x23, 0x5F, 0x00,
    0x2F, 0x5F, 0x81, 0x70, 0x81, 0x2F, 0x00, 0x00, 0x23, 0x00, 0x81, 0x70, 0x91, 0x23, 0x5F, 0x00,
    0x2F, 0x5F, 0x81, 0x70, 0x81, 0x2F, 0x00, 0x00, 0x23, 0x00, 0x00, 0x91, 0x22, 0x5F, 0x00, 0x2E,
    0x5F, 0x81, 0x70, 0x81, 0x2E, 0x00, 0x00, 0x22, 0x00, 0x00, 0x91, 0x23, 0x5F, 0x00, 0x2F, 0x5F,
    0x81, 0x70, 0x81, 0x2F, 0x00, 0x00, 0x23, 0x00, 0x00, 0x91, 0x17, 0x5F, 0x00, 0x23, 0x5F, 0x83,
    0x60, 0x81, 0x23, 0x00, 0x00, 0x17, 0x00, 0x00, 0x91, 0x17, 0x5F, 0x00, 0x23, 0x5F, 0x81, 0x70,
    0x81, 0x23, 0x00, 0x00, 0x17, 0x00, 0x00, 0x91, 0x23, 0x5F, 0x00, 0x2F, 0x5F, 0x81, 0x70, 0x81,
    0x2F, 0x00, 0x00, 0x23, 0x00, 0x81, 0x70, 0x91, 0x23, 0x5F, 0x00, 0x2F, 0x5F, 0x81, 0x70, 0x81,
    0x2F, 0x00, 0x00, 0x23, 0x00, 0x00, 0x91, 0x22, 0x5F, 0x00, 0x2E, 0x5F, 0x81, 0x70, 0x81, 0x2E,
    0x00, 0x00, 0x22, 0x00, 0x00, 0x91, 0x23, 0x5F, 0x00, 0x2F, 0x5F, 0x81, 0x70, 0x81, 0x2F, 0x00,
    0x00, 0x23, 0x00, 0x00, 0x91, 0x19, 0x5F, 0x00, 0x25, 0x5F, 0x83, 0x60, 0x81, 0x25, 0x00, 0x00,
    0x19, 0x00, 0x00, 0x91, 0x19, 0x5F, 0x00, 0x25, 0x5F, 0x81, 0x70, 0x81, 0x25, 0x00, 0x00, 0x19,
    0x00, 0x00, 0x91, 0x25, 0x5F, 0x00, 0x31, 0x5F, 0x81, 0x70, 0x81, 0x31, 0x00, 0x00, 0x25, 0x00,
    0x81, 0x70, 0x91, 0x25, 0x5F, 0x00, 0x31, 0x5F, 0x81, 0x70, 0x81, 0x31, 0x00, 0x00, 0x25, 0x00,
    0x00, 0x91, 0x23, 0x5F, 0x00, 0x2F, 0x5F, 0x81, 0x70, 0x81, 0x2F, 0x00, 0x00, 0x23, 0x00, 0x00,
    0x91, 0x25, 0x5F, 0x00, 0x31, 0x5F, 0x81, 0x70, 0x81, 0x31, 0x00, 0x00, 0x25, 0x00, 0x00, 0x91,
    0x19, 0x5F, 0x00, 0x25, 0x5F, 0x83, 0x60, 0x81, 0x25, 0x00, 0x00, 0x19, 0x00, 0x00, 0x91, 0x19,
    0x5F, 0x00, 0x25, 0x5F, 0x81, 0x70, 0x81, 0x25, 0x00, 0x00, 0x19, 0x00, 0x00, 0x91, 0x25, 0x5F,
    0x00, 0x31, 0x5F, 0x81, 0x70, 0x81, 0x31, 0x00, 0x00, 0x25, 0x00, 0x81, 0x70, 0x91, 0x25, 0x5F,
    0x00, 0x31, 0x5F, 0x81, 0x70, 0x81, 0x31, 0x00, 0x00, 0x25, 0x00, 0x00, 0x91, 0x23, 0x5F, 0x00,
    0x2F, 0x5F, 0x81, 0x70, 0x81, 0x2F, 0x00, 0x00, 0x23, 0x00, 0x00, 0x91, 0x25, 0x5F, 0x00, 0x31,
    0x5F, 0x81, 0x70, 0x81, 0x31, 0x00, 0x00, 0x25, 0x00, 0x00, 0x91, 0x1B, 0x5F, 0x00, 0x27, 0x5F,
    0x83, 0x60, 0x81, 0x27, 0x00, 0x00, 0x1B, 0x00, 0x00, 0x91, 0x1B, 0x5F, 0x00, 0x27, 0x5F, 0x81,
    0x70, 0x81, 0x27, 0x00, 0x00, 0x1B, 0x00, 0x00, 0x91, 0x27, 0x5F, 0x00, 0x33, 0x5F, 0x81, 0x70,
    0x81, 0x33, 0x00, 0x00, 0x27, 0x00, 0x81, 0x70, 0x91, 0x27, 0x5F, 0x00, 0x33, 0x5F, 0x81, 0x70,
    0x81, 0x33, 0x00, 0x00, 0x27, 0x00, 0x00, 0x91, 0x25, 0x5F, 0x00, 0x31, 0x5F, 0x81, 0x70, 0x81,
    0x31, 0x00, 0x00, 0x25, 0x00, 0x00, 0x91, 0x27, 0x5F, 0x00, 0x33, 0x5F, 0x81, 0x70, 0x81, 0x33,
    0x00, 0x00, 0x27, 0x00, 0x00, 0x91, 0x1B, 0x5F, 0x00, 0x27, 0x5F, 0x83, 0x60, 0x81, 0x27, 0x00,
    0x00, 0x1B, 0x00, 0x00, 0x91, 0x1B, 0x5F, 0x00, 0x27, 0x5F, 0x81, 0x70, 0x81, 0x27, 0x00, 0x00,
    0x1B, 0x00, 0x00, 0x91, 0x27, 0x5F, 0x00, 0x33, 0x5F, 0x81, 0x70, 0x81, 0x33, 0x00, 0x00, 0x27,
    0x00, 0x81, 0x70, 0x91, 0x27, 0x5F, 0x00, 0x33, 0x5F, 0x81, 0x70, 0x81, 0x33, 0x00, 0x00, 0x27,
    0x00, 0x00, 0x91, 0x25, 0x5F, 0x00, 0x31, 0x5F, 0x81, 0x70, 0x81, 0x31, 0x00, 0x00, 0x25, 0x00,
    0x00, 0x91, 0x27, 0x5F, 0x00, 0x33, 0x5F, 0x81, 0x70, 0x81, 0x33, 0x00, 0x00, 0x27, 0x00, 0x00,
    0x91, 0x1B, 0x5F, 0x00, 0x27, 0x5F, 0x83, 0x60, 0x81, 0x27, 0x00, 0x00, 0x1B, 0x00, 0x00, 0x91,
    0x1B, 0x5F, 0x00, 0x27, 0x5F, 0x81, 0x70, 0x81, 0x27, 0x00, 0x00, 0x1B, 0x00, 0x00, 0x91, 0x27,
    0x5F, 0x00, 0x33, 0x5F, 0x81, 0x70, 0x81, 0x33, 0x00, 0x00, 0x27, 0x00, 0x81, 0x70, 0x91, 0x27,
    0x5F, 0x00, 0x33, 0x5F, 0x81, 0x70, 0x81, 0x33, 0x00, 0x00, 0x27, 0x00, 0x00, 0x91, 0x25, 0x5F,
    0x00, 0x31, 0x5F, 0x81, 0x70, 0x81, 0x31, 0x00, 0x00, 0x25, 0x00, 0x00, 0x91, 0x27, 0x5F, 0x00,
    0x33, 0x5F, 0x81, 0x70, 0x81, 0x33, 0x00, 0x00, 0x27, 0x00, 0x00, 0x91, 0x20, 0x5F, 0x00, 0x2C,
    0x5F, 0x83, 0x60, 0x81, 0x2C, 0x00, 0x00, 0x20, 0x00, 0x00, 0x91, 0x2A, 0x5F, 0x00, 0x36, 0x5F,
    0x81, 0x70, 0x81, 0x36, 0x00, 0x00, 0x2A, 0x00, 0x00, 0x91, 0x2C, 0x5F, 0x00, 0x38, 0x5F, 0x81,
    0x70, 0x81, 0x38, 0x00, 0x00, 0x2C, 0x00, 0x00, 0x91, 0x1E, 0x5F, 0x00, 0x2A, 0x5F, 0x83, 0x60,
    0x81, 0x2A, 0x00, 0x00, 0x1E, 0x00, 0x00, 0x91, 0x27, 0x5F, 0x00, 0x33, 0x5F, 0x81, 0x70, 0x81,
    0x33, 0x00, 0x00, 0x27, 0x00, 0x00, 0x91, 0x2A, 0x5F, 0x00, 0x36, 0x5F, 0x81, 0x70, 0x81, 0x36,
    0x00, 0x00, 0x2A, 0x00, 0x00, 0x91, 0x23, 0x5F, 0x00, 0x17, 0x5F, 0x83, 0x60, 0x81, 0x17, 0x00,
    0x00, 0x23, 0x00, 0x00, 0x91, 0x23, 0x5F, 0x00, 0x17, 0x5F, 0x81, 0x70, 0x81, 0x17, 0x00, 0x00,
    0x23, 0x00, 0x00, 0x91, 0x2F, 0x5F, 0x00, 0x23, 0x5F, 0x81, 0x70, 0x81, 0x23, 0x00, 0x00, 0x2F,
    0x00, 0x81, 0x70, 0x91, 0x2F, 0x5F, 0x00, 0x23, 0x5F, 0x81, 0x70, 0x81, 0x23, 0x00, 0x00, 0x2F,
    0x00, 0x00, 0x91, 0x2E, 0x5F, 0x00, 0x22, 0x5F, 0x81, 0x70, 0x81, 0x22, 0x00, 0x00, 0x2E, 0x00,
    0x00, 0x91, 0x2F, 0x5F, 0x00, 0x23, 0x5F, 0x81, 0x70, 0x81, 0x23, 0x00, 0x00, 0x2F, 0x00, 0x00,
    0x91, 0x23, 0x5F, 0x00, 0x17, 0x5F, 0x83, 0x60, 0x81, 0x17, 0x00, 0x00, 0x23, 0x00, 0x00, 0x91,
    0x23, 0x5F, 0x00, 0x17, 0x5F, 0x81, 0x70, 0x81, 0x17, 0x00, 0x00, 0x23, 0x00, 0x00, 0x91, 0x2F,
    0x5F, 0x00, 0x23, 0x5F, 0x81, 0x70, 0x81, 0x23, 0x00, 0x00, 0x2F, 0x00, 0x81, 0x70, 0x91, 0x2F,
    0x5F, 0x00, 0x23, 0x5F, 0x81, 0x70, 0x81, 0x23, 0x00, 0x00, 0x2F, 0x00, 0x00, 0x91, 0x2E, 0x5F,
    0x00, 0x22, 0x5F, 0x81, 0x70, 0x81, 0x22, 0x00, 0x00, 0x2E, 0x00, 0x00, 0x91, 0x2F, 0x5F, 0x00,
    0x23, 0x5F, 0x81, 0x70, 0x81, 0x23, 0x00, 0x00, 0x2F, 0x00, 0x00, 0x91, 0x25, 0x5F, 0x00, 0x19,
    0x5F, 0x83, 0x60, 0x81, 0x19, 0x00, 0x00, 0x25, 0x00, 0x00, 0x91, 0x25, 0x5F, 0x00, 0x19, 0x5F,
    0x81, 0x70, 0x81, 0x19, 0x00, 0x00, 0x25, 0x00, 0x00, 0x91, 0x31, 0x5F, 0x00, 0x25, 0x5F, 0x81,
    0x70, 0x81, 0x25, 0x00, 0x00, 0x31, 0x00, 0x81, 0x70, 0x91, 0x31, 0x5F, 0x00, 0x25, 0x5F, 0x81,
    0x70, 0x81, 0x25, 0x00, 0x00, 0x31, 0x00, 0x00, 0x91, 0x2F, 0x5F, 0x00, 0x23, 0x5F, 0x81, 0x70,
    0x81, 0x23, 0x00, 0x00, 0x2F, 0x00, 0x00, 0x91, 0x31, 0x5F, 0x00, 0x25, 0x5F, 0x81, 0x70, 0x81,
    0x25, 0x00, 0x00, 0x31, 0x00, 0x00, 0x91, 0x25, 0x5F, 0x00, 0x19, 0x5F, 0x83, 0x60, 0x81, 0x19,
    0x00, 0x00, 0x25, 0x00, 0x00, 0x91, 0x25, 0x5F, 0x00, 0x19, 0x5F, 0x81, 0x70, 0x81, 0x19, 0x00,
    0x00, 0x25, 0x00, 0x00, 0x91, 0x31, 0x5F, 0x00, 0x25, 0x5F, 0x81, 0x70, 0x81, 0x25, 0x00, 0x00,
    0x31, 0x00, 0x81, 0x70, 0x91, 0x31, 0x5F, 0x00, 0x25, 0x5F, 0x81, 0x70, 0x81, 0x25, 0x00, 0x00,
    0x31, 0x00, 0x00, 0x91, 0x2F, 0x5F, 0x00, 0x23, 0x5F, 0x81, 0x70, 0x81, 0x23, 0x00, 0x00, 0x2F,
    0x00, 0x00, 0x91, 0x31, 0x5F, 0x00, 0x25, 0x5F, 0x81, 0x70, 0x81, 0x25, 0x00, 0x00, 0x31, 0x00,
    0x00, 0x91, 0x27, 0x5F, 0x00, 0x1B, 0x5F, 0x83, 0x60, 0x81, 0x1B, 0x00, 0x00, 0x27, 0x00, 0x00,
    0x91, 0x27, 0x5F, 0x00, 0x1B, 0x5F, 0x81, 0x70, 0x81, 0x1B, 0x00, 0x00, 0x27, 0x00, 0x00, 0x91,
    0x33, 0x5F, 0x00, 0x27, 0x5F, 0x81, 0x70, 0x81, 0x27, 0x00, 0x00, 0x33, 0x00, 0x81, 0x70, 0x91,
    0x33, 0x5F, 0x00, 0x27, 0x5F, 0x81, 0x70, 0x81, 0x27, 0x00, 0x00, 0x33, 0x00, 0x00, 0x91, 0x31,
    0x5F, 0x00, 0x25, 0x5F, 0x81, 0x70, 0x81, 0x25, 0x00, 0x00, 0x31, 0x00, 0x00, 0x91, 0x33, 0x5F,
    0x00, 0x27, 0x5F, 0x81, 0x70, 0x81, 0x27, 0x00, 0x00, 0x33, 0x00, 0x00, 0x91, 0x27, 0x5F, 0x00,
    0x1B, 0x5F, 0x83, 0x60, 0x81, 0x1B, 0x00, 0x00, 0x27, 0x00, 0x00, 0x91, 0x27, 0x5F, 0x00, 0x1B,
    0x5F, 0x81, 0x70, 0x81, 0x1B, 0x00, 0x00, 0x27, 0x00, 0x00, 0x91, 0x33, 0x5F, 0x00, 0x27, 0x5F,
    0x81, 0x70, 0x81, 0x27, 0x00, 0x00, 0x33, 0x00, 0x81, 0x70, 0x91, 0x33, 0x5F, 0x00, 0x27, 0x5F,
    0x81, 0x70, 0x81, 0x27, 0x00, 0x00, 0x33, 0x00, 0x00, 0x91, 0x31, 0x5F, 0x00, 0x25, 0x5F, 0x81,
    0x70, 0x81, 0x25, 0x00, 0x00, 0x31, 0x00, 0x00, 0x91, 0x33, 0x5F, 0x00, 0x27, 0x5F, 0x81, 0x70,
    0x81, 0x27, 0x00, 0x00, 0x33, 0x00, 0x00, 0x91, 0x27, 0x5F, 0x00, 0x1B, 0x5F, 0x83, 0x60, 0x81,
    0x1B, 0x00, 0x00, 0x27, 0x00, 0x00, 0x91, 0x27, 0x5F, 0x00, 0x1B, 0x5F, 0x81, 0x70, 0x81, 0x1B,
    0x00, 0x00, 0x27, 0x00, 0x00, 0x91, 0x33, 0x5F, 0x00, 0x27, 0x5F, 0x81, 0x70, 0x81, 0x27, 0x00,
    0x00, 0x33, 0x00, 0x81, 0x70, 0x91, 0x33, 0x5F, 0x00, 0x27, 0x5F, 0x81, 0x70, 0x81, 0x27, 0x00,
    0x00, 0x33, 0x00, 0x00, 0x91, 0x31, 0x5F, 0x00, 0x25, 0x5F, 0x81, 0x70, 0x81, 0x25, 0x00, 0x00,
    0x31, 0x00, 0x00, 0x91, 0x33, 0x5F, 0x00, 0x27, 0x5F, 0x81, 0x70, 0x81, 0x27, 0x00, 0x00, 0x33,
    0x00, 0x00, 0x91, 0x2C, 0x5F, 0x00, 0x20, 0x5F, 0x83, 0x60, 0x81, 0x20, 0x00, 0x00, 0x2C, 0x00,
    0x00, 0x91, 0x36, 0x5F, 0x00, 0x2A, 0x5F, 0x81, 0x70, 0x81, 0x2A, 0x00, 0x00, 0x36, 0x00, 0x00,
    0x91, 0x38, 0x5F, 0x00, 0x2C, 0x5F, 0x81, 0x70, 0x81, 0x2C, 0x00, 0x00, 0x38, 0x00, 0x00, 0x91,
    0x2A, 0x5F, 0x00, 0x1E, 0x5F, 0x83, 0x60, 0x81, 0x1E, 0x00, 0x00, 0x2A, 0x00, 0x00, 0x91, 0x33,
    0x5F, 0x00, 0x27, 0x5F, 0x81, 0x70, 0x81, 0x27, 0x00, 0x00, 0x33, 0x00, 0x00, 0x91, 0x36, 0x5F,
    0x00, 0x2A, 0x5F, 0x81, 0x70, 0x81, 0x2A, 0x00, 0x00, 0x36, 0x00, 0x00, 0x91, 0x23, 0x5F, 0x00,
    0x17, 0x5F, 0x83, 0x60, 0x81, 0x17, 0x00, 0x00, 0x23, 0x00, 0x00, 0x91, 0x23, 0x5F, 0x00, 0x17,
    0x5F, 0x81, 0x70, 0x81, 0x17, 0x00, 0x00, 0x23, 0x00, 0x00, 0x91, 0x2F, 0x5F, 0x00, 0x23, 0x5F,
    0x81, 0x70, 0x81, 0x23, 0x00, 0x00, 0x2F, 0x00, 0x81, 0x70, 0x91, 0x2F, 0x5F, 0x00, 0x23, 0x5F,
    0x81, 0x70, 0x81, 0x23, 0x00, 0x00, 0x2F, 0x00, 0x00, 0x91, 0x2E, 0x5F, 0x00, 0x22, 0x5F, 0x81,
    0x70, 0x81, 0x22, 0x00, 0x00, 0x2E, 0x00, 0x00, 0x91, 0x2F, 0x5F, 0x00, 0x23, 0x5F, 0x81, 0x70,
    0x81, 0x23, 0x00, 0x00, 0x2F, 0x00, 0x00, 0x91, 0x23, 0x5F, 0x00, 0x17, 0x5F, 0x83, 0x60, 0x81,
    0x17, 0x00, 0x00, 0x23, 0x00, 0x00, 0x91, 0x23, 0x5F, 0x00, 0x17, 0x5F, 0x81, 0x70, 0x81, 0x17,
    0x00, 0x00, 0x23, 0x00, 0x00, 0x91, 0x2F, 0x5F, 0x00, 0x23, 0x5F, 0x81, 0x70, 0x81, 0x23, 0x00,
    0x00, 0x2F, 0x00, 0x81, 0x70, 0x91, 0x2F, 0x5F, 0x00, 0x23, 0x5F, 0x81, 0x70, 0x81, 0x23, 0x00,
    0x00, 0x2F, 0x00, 0x00, 0x91, 0x2E, 0x5F, 0x00, 0x22, 0x5F, 0x81, 0x70, 0x81, 0x22, 0x00, 0x00,
    0x2E, 0x00, 0x00, 0x91, 0x2F, 0x5F, 0x00, 0x23, 0x5F, 0x81, 0x70, 0x81, 0x23, 0x00, 0x00, 0x2F,
    0x00, 0x00, 0x91, 0x25, 0x5F, 0x00, 0x19, 0x5F, 0x83, 0x60, 0x81, 0x19, 0x00, 0x00, 0x25, 0x00,
    0x00, 0x91, 0x25, 0x5F, 0x00, 0x19, 0x5F, 0x81, 0x70, 0x81, 0x19, 0x00, 0x00, 0x25, 0x00, 0x00,
    0x91, 0x31, 0x5F, 0x00, 0x25, 0x5F, 0x81, 0x70, 0x81, 0x25, 0x00, 0x00, 0x31, 0x00, 0x81, 0x70,
    0x91, 0x31, 0x5F, 0x00, 0x25, 0x5F, 0x81, 0x70, 0x81, 0x25, 0x00, 0x00, 0x31, 0x00, 0x00, 0x91,
    0x2F, 0x5F, 0x00, 0x23, 0x5F, 0x81, 0x70, 0x81, 0x23, 0x00, 0x00, 0x2F, 0x00, 0x00, 0x91, 0x31,
    0x5F, 0x00, 0x25, 0x5F, 0x81, 0x70, 0x81, 0x25, 0x00, 0x00, 0x31, 0x00, 0x00, 0x91, 0x25, 0x5F,
    0x00, 0x19, 0x5F, 0x83, 0x60, 0x81, 0x19, 0x00, 0x00, 0x25, 0x00, 0x00, 0x91, 0x25, 0x5F, 0x00,
    0x19, 0x5F, 0x81, 0x70, 0x81, 0x19, 0x00, 0x00, 0x25, 0x00, 0x00, 0x91, 0x31, 0x5F, 0x00, 0x25,
    0x5F, 0x81, 0x70, 0x81, 0x25, 0x00, 0x00, 0x31, 0x00, 0x81, 0x70, 0x91, 0x31, 0x5F, 0x00, 0x25,
    0x5F, 0x81, 0x70, 0x81, 0x25, 0x00, 0x00, 0x31, 0x00, 0x00, 0x91, 0x2F, 0x5F, 0x00, 0x23, 0x5F,
    0x81, 0x70, 0x81, 0x23, 0x00, 0x00, 0x2F, 0x00, 0x00, 0x91, 0x31, 0x5F, 0x00, 0x25, 0x5F, 0x81,
    0x70, 0x81, 0x25, 0x00, 0x00, 0x31, 0x00, 0x00, 0x91, 0x27, 0x5F, 0x00, 0x1B, 0x5F, 0x83, 0x60,
    0x81, 0x1B, 0x00, 0x00, 0x27, 0x00, 0x00, 0x91, 0x27, 0x5F, 0x00, 0x1B, 0x5F, 0x81, 0x70, 0x81,
    0x1B, 0x00, 0x00, 0x27, 0x00, 0x00, 0x91, 0x33, 0x5F, 0x00, 0x27, 0x5F, 0x81, 0x70, 0x81, 0x27,
    0x00, 0x00, 0x33, 0x00, 0x81, 0x70, 0x91, 0x33, 0x5F, 0x00, 0x27, 0x5F, 0x81, 0x70, 0x81, 0x27,
    0x00, 0x00, 0x33, 0x00, 0x00, 0x91, 0x31, 0x5F, 0x00, 0x25, 0x5F, 0x81, 0x70, 0x81, 0x25, 0x00,
    0x00, 0x31, 0x00, 0x00, 0x91, 0x33, 0x5F, 0x00, 0x27, 0x5F, 0x81, 0x70, 0x81, 0x27, 0x00, 0x00,
    0x33, 0x00, 0x00, 0x91, 0x27, 0x5F, 0x00, 0x1B, 0x5F, 0x83, 0x60, 0x81, 0x1B, 0x00, 0x00, 0x27,
    0x00, 0x00, 0x91, 0x27, 0x5F, 0x00, 0x1B, 0x5F, 0x81, 0x70, 0x81, 0x1B, 0x00, 0x00, 0x27, 0x00,
    0x00, 0x91, 0x33, 0x5F, 0x00, 0x27, 0x5F, 0x81, 0x70, 0x81, 0x27, 0x00, 0x00, 0x33, 0x00, 0x81,
    0x70, 0x91, 0x33, 0x5F, 0x00, 0x27, 0x5F, 0x81, 0x70, 0x81, 0x27, 0x00, 0x00, 0x33, 0x00, 0x00,
    0x91, 0x31, 0x5F, 0x00, 0x25, 0x5F, 0x81, 0x70, 0x81, 0x25, 0x00, 0x00, 0x31, 0x00, 0x00, 0x91,
    0x33, 0x5F, 0x00, 0x27, 0x5F, 0x81, 0x70, 0x81, 0x27, 0x00, 0x00, 0x33, 0x00, 0x00, 0x91, 0x27,
    0x5F, 0x00, 0x1B, 0x5F, 0x83, 0x60, 0x81, 0x1B, 0x00, 0x00, 0x27, 0x00, 0x00, 0x91, 0x27, 0x5F,
    0x00, 0x1B, 0x5F, 0x81, 0x70, 0x81, 0x1B, 0x00, 0x00, 0x27, 0x00, 0x00, 0x91, 0x33, 0x5F, 0x00,
    0x27, 0x5F, 0x81, 0x70, 0x81, 0x27, 0x00, 0x00, 0x33, 0x00, 0x81, 0x70, 0x91, 0x33, 0x5F, 0x00,
    0x27, 0x5F, 0x81, 0x70, 0x81, 0x27, 0x00, 0x00, 0x33, 0x00, 0x00, 0x91, 0x31, 0x5F, 0x00, 0x25,
    0x5F, 0x81, 0x70, 0x81, 0x25, 0x00, 0x00, 0x31, 0x00, 0x00, 0x91, 0x33, 0x5F, 0x00, 0x27, 0x5F,
    0x81, 0x70, 0x81, 0x27, 0x00, 0x00, 0x33, 0x00, 0x00, 0x91, 0x2C, 0x5F, 0x00, 0x20, 0x5F, 0x83,
    0x60, 0x81, 0x20, 0x00, 0x00, 0x2C, 0x00, 0x00, 0x91, 0x36, 0x5F, 0x00, 0x2A, 0x5F, 0x81, 0x70,
    0x81, 0x2A, 0x00, 0x00, 0x36, 0x00, 0x00, 0x91, 0x38, 0x5F, 0x00, 0x2C, 0x5F, 0x81, 0x70, 0x81,
    0x2C, 0x00, 0x00, 0x38, 0x00, 0x00, 0x91, 0x2A, 0x5F, 0x00, 0x1E, 0x5F, 0x83, 0x60, 0x81, 0x1E,
    0x00, 0x00, 0x2A, 0x00, 0x00, 0x91, 0x33, 0x5F, 0x00, 0x27, 0x5F, 0x81, 0x70, 0x81, 0x27, 0x00,
    0x00, 0x33, 0x00, 0x00, 0x91, 0x36, 0x5F, 0x00, 0x2A, 0x5F, 0x81, 0x70, 0x81, 0x2A, 0x00, 0x00,
    0x36, 0x00, 0x00, 0x91, 0x18, 0x50, 0x00, 0x24, 0x46, 0x00, 0x2B, 0x3C, 0x9E, 0x00, 0x81, 0x24,
    0x00, 0x00, 0x2B, 0x00, 0x00, 0x18, 0x00, 0x00, 0x91, 0x1A, 0x50, 0x00, 0x26, 0x46, 0x00, 0x2D,
    0x3C, 0x9E, 0x00, 0x81, 0x26, 0x00, 0x00, 0x2D, 0x00, 0x00, 0x1A, 0x00, 0x00, 0x91, 0x1C, 0x50,
    0x00, 0x28, 0x46, 0x00, 0x2F, 0x3C, 0xBC, 0x00, 0x81, 0x28, 0x00, 0x00, 0x2F, 0x00, 0x00, 0x1C,
    0x00, 0x00, 0x91, 0x18, 0x50, 0x00, 0x24, 0x46, 0x00, 0x2B, 0x3C, 0x9E, 0x00, 0x81, 0x24, 0x00,
    0x00, 0x2B, 0x00, 0x00, 0x18, 0x00, 0x00, 0x91, 0x1A, 0x50, 0x00, 0x26, 0x46, 0x00, 0x2D, 0x3C,
    0x9E, 0x00, 0x81, 0x26, 0x00, 0x00, 0x2D, 0x00, 0x00, 0x1A, 0x00, 0x00, 0x91, 0x1C, 0x50, 0x00,
    0x28, 0x46, 0x00, 0x2F, 0x3C, 0xBC, 0x00, 0x81, 0x28, 0x00, 0x00, 0x2F, 0x00, 0x00, 0x1C, 0x00,
    0x00, 0x91, 0x2B, 0x3C, 0x00, 0x18, 0x50, 0x00, 0x24, 0x46, 0x9E, 0x00, 0x81, 0x18, 0x00, 0x00,
    0x24, 0x00, 0x00, 0x2B, 0x00, 0x00, 0x91, 0x2D, 0x3C, 0x00, 0x1A, 0x50, 0x00, 0x26, 0x46, 0x9E,
    0x00, 0x81, 0x1A, 0x00, 0x00, 0x26, 0x00, 0x00, 0x2D, 0x00, 0x00, 0x91, 0x2F, 0x3C, 0x00, 0x1C,
    0x50, 0x00, 0x28, 0x46, 0xBC, 0x00, 0x81, 0x1C, 0x00, 0x00, 0x28, 0x00, 0x00, 0x2F, 0x00, 0x00,
    0x91, 0x24, 0x46, 0x00, 0x2B, 0x3C, 0x00, 0x18, 0x50, 0x9E, 0x00, 0x81, 0x2B, 0x00, 0x00, 0x18,
    0x00, 0x00, 0x24, 0x00, 0x00, 0x91, 0x26, 0x46, 0x00, 0x2D, 0x3C, 0x00, 0x1A, 0x50, 0x9E, 0x00,
    0x81, 0x2D, 0x00, 0x00, 0x1A, 0x00, 0x00, 0x26, 0x00, 0x00, 0x91, 0x28, 0x46, 0x00, 0x2F, 0x3C,
    0x00, 0x1C, 0x50, 0xBC, 0x00, 0x81, 0x2F, 0x00, 0x00, 0x1C, 0x00, 0x00, 0x28, 0x00, 0x00, 0xFF,
    0x2F, 0x00, 0x4D, 0x54, 0x72, 0x6B, 0x00, 0x00, 0x02, 0x08, 0x00, 0xB2, 0x00, 0x00, 0x00, 0x20,
    0x00, 0x00, 0xC2, 0x7A, 0x00, 0xFF, 0x03, 0x08, 0x55, 0x6E, 0x74, 0x69, 0x74, 0x6C, 0x65, 0x64,
    0x00, 0xB2, 0x07, 0x7F, 0x00, 0x00, 0x00, 0x00, 0x20, 0x00, 0x00, 0x07, 0x7F, 0x00, 0xE2, 0x00,
    0x40, 0x00, 0xB2, 0x07, 0x7F, 0x00, 0x0A, 0x40, 0x00, 0x5D, 0x00, 0x00, 0x5B, 0x00, 0x00, 0x5F,
    0x00, 0x00, 0x5C, 0x00, 0x00, 0x0B, 0x7F, 0x00, 0x07, 0x7F, 0x00, 0x0A, 0x40, 0x00, 0x5D, 0x00,
    0x00, 0x5B, 0x00, 0x00, 0x5F, 0x00, 0x00, 0x5C, 0x00, 0x00, 0x0B, 0x7F, 0x81, 0xF0, 0x00, 0x92,
    0x4B, 0x5F, 0x81, 0x70, 0x82, 0x4B, 0x00, 0x00, 0x92, 0x4A, 0x5F, 0x81, 0x70, 0x82, 0x4A, 0x00,
    0x00, 0x92, 0x49, 0x5F, 0x81, 0x70, 0x82, 0x49, 0x00, 0x00, 0x92, 0x48, 0x5F, 0x81, 0x70, 0x82,
    0x48, 0x00, 0x00, 0x92, 0x47, 0x5F, 0x81, 0x70, 0x82, 0x47, 0x00, 0x00, 0x92, 0x46, 0x5F, 0x81,
    0x70, 0x82, 0x46, 0x00, 0x00, 0x92, 0x45, 0x5F, 0x81, 0x70, 0x82, 0x45, 0x00, 0x00, 0x92, 0x44,
    0x5F, 0x81, 0x70, 0x82, 0x44, 0x00, 0x00, 0x92, 0x43, 0x5F, 0x81, 0x70, 0x82, 0x43, 0x00, 0x00,
    0x92, 0x42, 0x5F, 0x81, 0x70, 0x82, 0x42, 0x00, 0x00, 0x92, 0x41, 0x5F, 0x81, 0x70, 0x82, 0x41,
    0x00, 0x00, 0x92, 0x40, 0x5F, 0x81, 0x70, 0x82, 0x40, 0x00, 0x00, 0x92, 0x3F, 0x5F, 0x81, 0x70,
    0x82, 0x3F, 0x00, 0x00, 0x92, 0x3E, 0x5F, 0x81, 0x70, 0x82, 0x3E, 0x00, 0x00, 0x92, 0x3D, 0x5F,
    0x81, 0x70, 0x82, 0x3D, 0x00, 0x00, 0x92, 0x3C, 0x5F, 0x81, 0x70, 0x82, 0x3C, 0x00, 0x00, 0x92,
    0x3B, 0x5F, 0x81, 0x70, 0x82, 0x3B, 0x00, 0x00, 0x92, 0x3A, 0x5F, 0x81, 0x70, 0x82, 0x3A, 0x00,
    0x00, 0x92, 0x39, 0x5F, 0x81, 0x70, 0x82, 0x39, 0x00, 0x00, 0x92, 0x38, 0x5F, 0x81, 0x70, 0x82,
    0x38, 0x00, 0x00, 0x92, 0x37, 0x5F, 0x81, 0x70, 0x82, 0x37, 0x00, 0x00, 0x92, 0x36, 0x5F, 0x81,
    0x70, 0x82, 0x36, 0x00, 0x00, 0x92, 0x35, 0x5F, 0x81, 0x70, 0x82, 0x35, 0x00, 0x00, 0x92, 0x34,
    0x5F, 0x81, 0x70, 0x82, 0x34, 0x00, 0x00, 0x92, 0x33, 0x5F, 0x81, 0x70, 0x82, 0x33, 0x00, 0x00,
    0x92, 0x32, 0x5F, 0x81, 0x70, 0x82, 0x32, 0x00, 0x00, 0x92, 0x31, 0x5F, 0x81, 0x70, 0x82, 0x31,
    0x00, 0x00, 0x92, 0x30, 0x5F, 0x81, 0x70, 0x82, 0x30, 0x00, 0x00, 0x92, 0x2F, 0x5F, 0x81, 0x70,
    0x82, 0x2F, 0x00, 0x00, 0x92, 0x2E, 0x5F, 0x81, 0x70, 0x82, 0x2E, 0x00, 0x00, 0x92, 0x2D, 0x5F,
    0x81, 0x70, 0x82, 0x2D, 0x00, 0x00, 0x92, 0x2C, 0x5F, 0x81, 0x70, 0x82, 0x2C, 0x00, 0x00, 0x92,
    0x2B, 0x5F, 0x81, 0x70, 0x82, 0x2B, 0x00, 0x00, 0x92, 0x2A, 0x5F, 0x81, 0x70, 0x82, 0x2A, 0x00,
    0x00, 0x92, 0x29, 0x5F, 0x81, 0x70, 0x82, 0x29, 0x00, 0x00, 0x92, 0x28, 0x5F, 0x81, 0x70, 0x82,
    0x28, 0x00, 0x00, 0x92, 0x27, 0x5F, 0x81, 0x70, 0x82, 0x27, 0x00, 0x00, 0x92, 0x26, 0x5F, 0x81,
    0x70, 0x82, 0x26, 0x00, 0x00, 0x92, 0x25, 0x5F, 0x81, 0x70, 0x82, 0x25, 0x00, 0x00, 0x92, 0x24,
    0x5F, 0x81, 0x70, 0x82, 0x24, 0x00, 0x00, 0x92, 0x23, 0x5F, 0x81, 0x70, 0x82, 0x23, 0x00, 0x00,
    0x92, 0x22, 0x5F, 0x81, 0x70, 0x82, 0x22, 0x00, 0x00, 0x92, 0x21, 0x5F, 0x81, 0x70, 0x82, 0x21,
    0x00, 0x00, 0x92, 0x20, 0x5F, 0x81, 0x70, 0x82, 0x20, 0x00, 0x00, 0x92, 0x1F, 0x5F, 0x81, 0x70,
    0x82, 0x1F, 0x00, 0x00, 0x92, 0x1E, 0x5F, 0x81, 0x70, 0x82, 0x1E, 0x00, 0x00, 0x92, 0x1D, 0x5F,
    0x81, 0x70, 0x82, 0x1D, 0x00, 0x00, 0x92, 0x1C, 0x5F, 0x81, 0x70, 0x82, 0x1C, 0x00, 0x00, 0xFF,
    0x2F, 0x00, 0x4D, 0x54, 0x72, 0x6B, 0x00, 0x00, 0x20, 0x12, 0x00, 0xB3, 0x00, 0x00, 0x00, 0x20,
    0x00, 0x00, 0xC3, 0x6E, 0x00, 0xFF, 0x03, 0x08, 0x55, 0x6E, 0x74, 0x69, 0x74, 0x6C, 0x65, 0x64,
    0x00, 0xB3, 0x07, 0x7F, 0x00, 0x00, 0x00, 0x00, 0x20, 0x00, 0x00, 0x07, 0x7F, 0x00, 0xE3, 0x00,
    0x40, 0x00, 0xB3, 0x07, 0x7F, 0x00, 0x0A, 0x40, 0x00, 0x5D, 0x00, 0x00, 0x5B, 0x00, 0x00, 0x5F,
    0x00, 0x00, 0x5C, 0x00, 0x00, 0x0B, 0x7F, 0x00, 0x07, 0x7F, 0x00, 0x0A, 0x40, 0x00, 0x5D, 0x00,
    0x00, 0x5B, 0x00, 0x00, 0x5F, 0x00, 0x00, 0x5C, 0x00, 0x00, 0x0B, 0x7F, 0x83, 0xE0, 0x00, 0x93,
    0x3F, 0x5F, 0x83, 0x60, 0x83, 0x3F, 0x00, 0x00, 0x93, 0x41, 0x5F, 0x83, 0x60, 0x83, 0x41, 0x00,
    0x00, 0x93, 0x42, 0x5F, 0x83, 0x60, 0x83, 0x42, 0x00, 0x00, 0x93, 0x44, 0x5F, 0x83, 0x60, 0x83,
    0x44, 0x00, 0x00, 0x93, 0x46, 0x5F, 0x87, 0x40, 0x83, 0x46, 0x00, 0x00, 0x93, 0x4B, 0x5F, 0x83,
    0x60, 0x83, 0x4B, 0x00, 0x00, 0x93, 0x49, 0x5F, 0x83, 0x60, 0x83, 0x49, 0x00, 0x00, 0x93, 0x46,
    0x5F, 0x87, 0x40, 0x83, 0x46, 0x00, 0x00, 0x93, 0x3F, 0x5F, 0x87, 0x40, 0x83, 0x3F, 0x00, 0x00,
    0x93, 0x46, 0x5F, 0x83, 0x60, 0x83, 0x46, 0x00, 0x00, 0x93, 0x44, 0x5F, 0x83, 0x60, 0x83, 0x44,
    0x00, 0x00, 0x93, 0x42, 0x5F, 0x83, 0x60, 0x83, 0x42, 0x00, 0x00, 0x93, 0x41, 0x5F, 0x83, 0x60,
    0x83, 0x41, 0x00, 0x00, 0x93, 0x3F, 0x5F, 0x83, 0x60, 0x83, 0x3F, 0x00, 0x00, 0x93, 0x41, 0x5F,
    0x83, 0x60, 0x83, 0x41, 0x00, 0x00, 0x93, 0x42, 0x5F, 0x83, 0x60, 0x83, 0x42, 0x00, 0x00, 0x93,
    0x44, 0x5F, 0x83, 0x60, 0x83, 0x44, 0x00, 0x00, 0x93, 0x46, 0x5F, 0x87, 0x40, 0x83, 0x46, 0x00,
    0x00, 0x93, 0x44, 0x5F, 0x83, 0x60, 0x83, 0x44, 0x00, 0x00, 0x93, 0x42, 0x5F, 0x83, 0x60, 0x83,
    0x42, 0x00, 0x00, 0x93, 0x41, 0x5F, 0x83, 0x60, 0x83, 0x41, 0x00, 0x00, 0x93, 0x3F, 0x5F, 0x83,
    0x60, 0x83, 0x3F, 0x00, 0x00, 0x93, 0x41, 0x5F, 0x83, 0x60, 0x83, 0x41, 0x00, 0x00, 0x93, 0x42,
    0x5F, 0x83, 0x60, 0x83, 0x42, 0x00, 0x00, 0x93, 0x41, 0x5F, 0x83, 0x60, 0x83, 0x41, 0x00, 0x00,
    0x93, 0x3F, 0x5F, 0x83, 0x60, 0x83, 0x3F, 0x00, 0x00, 0x93, 0x3E, 0x5F, 0x83, 0x60, 0x83, 0x3E,
    0x00, 0x00, 0x93, 0x42, 0x5F, 0x83, 0x60, 0x83, 0x42, 0x00, 0x00, 0x93, 0x3F, 0x5F, 0x83, 0x60,
    0x83, 0x3F, 0x00, 0x00, 0x93, 0x41, 0x5F, 0x83, 0x60, 0x83, 0x41, 0x00, 0x00, 0x93, 0x42, 0x5F,
    0x83, 0x60, 0x83, 0x42, 0x00, 0x00, 0x93, 0x44, 0x5F, 0x83, 0x60, 0x83, 0x44, 0x00, 0x00, 0x93,
    0x46, 0x5F, 0x87, 0x40, 0x83, 0x46, 0x00, 0x00, 0x93, 0x4B, 0x5F, 0x83, 0x60, 0x83, 0x4B, 0x00,
    0x00, 0x93, 0x49, 0x5F, 0x83, 0x60, 0x83, 0x49, 0x00, 0x00, 0x93, 0x46, 0x5F, 0x87, 0x40, 0x83,
    0x46, 0x00, 0x00, 0x93, 0x3F, 0x5F, 0x87, 0x40, 0x83, 0x3F, 0x00, 0x00, 0x93, 0x46, 0x5F, 0x83,
    0x60, 0x83, 0x46, 0x00, 0x00, 0x93, 0x44, 0x5F, 0x83, 0x60, 0x83, 0x44, 0x00, 0x00, 0x93, 0x42,
    0x5F, 0x83, 0x60, 0x83, 0x42, 0x00, 0x00, 0x93, 0x41, 0x5F, 0x83, 0x60, 0x83, 0x41, 0x00, 0x00,
    0x93, 0x3F, 0x5F, 0x83, 0x60, 0x83, 0x3F, 0x00, 0x00, 0x93, 0x41, 0x5F, 0x83, 0x60, 0x83, 0x41,
    0x00, 0x00, 0x93, 0x42, 0x5F, 0x83, 0x60, 0x83, 0x42, 0x00, 0x00, 0x93, 0x44, 0x5F, 0x83, 0x60,
    0x83, 0x44, 0x00, 0x00, 0x93, 0x46, 0x5F, 0x87, 0x40, 0x83, 0x46, 0x00, 0x00, 0x93, 0x44, 0x5F,
    0x83, 0x60, 0x83, 0x44, 0x00, 0x00, 0x93, 0x42, 0x5F, 0x83, 0x60, 0x83, 0x42, 0x00, 0x00, 0x93,
    0x41, 0x5F, 0x87, 0x40, 0x83, 0x41, 0x00, 0x00, 0x93, 0x42, 0x5F, 0x87, 0x40, 0x83, 0x42, 0x00,
    0x00, 0x93, 0x44, 0x5F, 0x87, 0x40, 0x83, 0x44, 0x00, 0x00, 0x93, 0x46, 0x5F, 0x87, 0x40, 0x83,
    0x46, 0x00, 0x00, 0x93, 0x3F, 0x5F, 0x00, 0x3A, 0x3C, 0x83, 0x60, 0x83, 0x3F, 0x00, 0x00, 0x3A,
    0x00, 0x00, 0x93, 0x41, 0x5F, 0x00, 0x3D, 0x3C, 0x83, 0x60, 0x83, 0x41, 0x00, 0x00, 0x3D, 0x00,
    0x00, 0x93, 0x3F, 0x3C, 0x00, 0x42, 0x5F, 0x83, 0x60, 0x83, 0x42, 0x00, 0x00, 0x3F, 0x00, 0x00,
    0x93, 0x44, 0x5F, 0x00, 0x41, 0x3C, 0x83, 0x60, 0x83, 0x44, 0x00, 0x00, 0x41, 0x00, 0x00, 0x93,
    0x42, 0x3C, 0x00, 0x46, 0x5F, 0x87, 0x40, 0x83, 0x46, 0x00, 0x00, 0x42, 0x00, 0x00, 0x93, 0x4B,
    0x5F, 0x00, 0x46, 0x3C, 0x83, 0x60, 0x83, 0x4B, 0x00, 0x00, 0x46, 0x00, 0x00, 0x93, 0x44, 0x3C,
    0x00, 0x49, 0x5F, 0x83, 0x60, 0x83, 0x49, 0x00, 0x00, 0x44, 0x00, 0x00, 0x93, 0x42, 0x3C, 0x00,
    0x46, 0x5F, 0x87, 0x40, 0x83, 0x46, 0x00, 0x00, 0x42, 0x00, 0x00, 0x93, 0x3F, 0x5F, 0x00, 0x3A,
    0x3C, 0x87, 0x40, 0x83, 0x3F, 0x00, 0x00, 0x3A, 0x00, 0x00, 0x93, 0x46, 0x5F, 0x00, 0x42, 0x3C,
    0x83, 0x60, 0x83, 0x46, 0x00, 0x00, 0x42, 0x00, 0x00, 0x93, 0x41, 0x3C, 0x00, 0x44, 0x5F, 0x83,
    0x60, 0x83, 0x44, 0x00, 0x00, 0x41, 0x00, 0x00, 0x93, 0x42, 0x5F, 0x00, 0x3F, 0x3C, 0x83, 0x60,
    0x83, 0x42, 0x00, 0x00, 0x3F, 0x00, 0x00, 0x93, 0x3D, 0x3C, 0x00, 0x41, 0x5F, 0x83, 0x60, 0x83,
    0x41, 0x00, 0x00, 0x3D, 0x00, 0x00, 0x93, 0x3F, 0x5F, 0x00, 0x3A, 0x3C, 0x83, 0x60, 0x83, 0x3A,
    0x00, 0x00, 0x3F, 0x00, 0x00, 0x93, 0x3D, 0x3C, 0x00, 0x41, 0x5F, 0x83, 0x60, 0x83, 0x3D, 0x00,
    0x00, 0x41, 0x00, 0x00, 0x93, 0x42, 0x5F, 0x00, 0x3F, 0x3C, 0x83, 0x60, 0x83, 0x3F, 0x00, 0x00,
    0x42, 0x00, 0x00, 0x93, 0x41, 0x3C, 0x00, 0x44, 0x5F, 0x83, 0x60, 0x83, 0x41, 0x00, 0x00, 0x44,
    0x00, 0x00, 0x93, 0x46, 0x5F, 0x00, 0x42, 0x3C, 0x87, 0x40, 0x83, 0x42, 0x00, 0x00, 0x46, 0x00,
    0x00, 0x93, 0x41, 0x3C, 0x00, 0x44, 0x5F, 0x83, 0x60, 0x83, 0x41, 0x00, 0x00, 0x44, 0x00, 0x00,
    0x93, 0x42, 0x5F, 0x00, 0x3F, 0x3C, 0x83, 0x60, 0x83, 0x3F, 0x00, 0x00, 0x42, 0x00, 0x00, 0x93,
    0x41, 0x5F, 0x00, 0x3D, 0x32, 0x83, 0x60, 0x83, 0x3D, 0x00, 0x00, 0x41, 0x00, 0x00, 0x93, 0x3F,
    0x5F, 0x00, 0x3A, 0x32, 0x83, 0x60, 0x83, 0x3A, 0x00, 0x00, 0x3F, 0x00, 0x00, 0x93, 0x3D, 0x32,
    0x00, 0x41, 0x5F, 0x83, 0x60, 0x83, 0x3D, 0x00, 0x00, 0x41, 0x00, 0x00, 0x93, 0x42, 0x5F, 0x00,
    0x3F, 0x32, 0x83, 0x60, 0x83, 0x3F, 0x00, 0x00, 0x42, 0x00, 0x00, 0x93, 0x3E, 0x32, 0x00, 0x41,
    0x5F, 0x83, 0x60, 0x83, 0x3E, 0x00, 0x00, 0x41, 0x00, 0x00, 0x93, 0x3F, 0x5F, 0x00, 0x3C, 0x32,
    0x83, 0x60, 0x83, 0x3C, 0x00, 0x00, 0x3F, 0x00, 0x00, 0x93, 0x3E, 0x5F, 0x00, 0x3A, 0x32, 0x83,
    0x60, 0x83, 0x3A, 0x00, 0x00, 0x3E, 0x00, 0x00, 0x93, 0x42, 0x5F, 0x00, 0x3E, 0x32, 0x83, 0x60,
    0x83, 0x3E, 0x00, 0x00, 0x42, 0x00, 0x00, 0x93, 0x3A, 0x3C, 0x00, 0x3F, 0x5F, 0x83, 0x60, 0x83,
    0x3A, 0x00, 0x00, 0x3F, 0x00, 0x00, 0x93, 0x3D, 0x3C, 0x00, 0x41, 0x5F, 0x83, 0x60, 0x83, 0x3D,
    0x00, 0x00, 0x41, 0x00, 0x00, 0x93, 0x3F, 0x3C, 0x00, 0x42, 0x5F, 0x83, 0x60, 0x83, 0x3F, 0x00,
    0x00, 0x42, 0x00, 0x00, 0x93, 0x41, 0x3C, 0x00, 0x44, 0x5F, 0x83, 0x60, 0x83, 0x41, 0x00, 0x00,
    0x44, 0x00, 0x00, 0x93, 0x42, 0x3C, 0x00, 0x46, 0x5F, 0x87, 0x40, 0x83, 0x42, 0x00, 0x00, 0x46,
    0x00, 0x00, 0x93, 0x46, 0x3C, 0x00, 0x4B, 0x5F, 0x83, 0x60, 0x83, 0x46, 0x00, 0x00, 0x4B, 0x00,
    0x00, 0x93, 0x44, 0x3C, 0x00, 0x49, 0x5F, 0x83, 0x60, 0x83, 0x44, 0x00, 0x00, 0x49, 0x00, 0x00,
    0x93, 0x42, 0x3C, 0x00, 0x46, 0x5F, 0x87, 0x40, 0x83, 0x42, 0x00, 0x00, 0x46, 0x00, 0x00, 0x93,
    0x3A, 0x3C, 0x00, 0x3F, 0x5F, 0x87, 0x40, 0x83, 0x3A, 0x00, 0x00, 0x3F, 0x00, 0x00, 0x93, 0x42,
    0x3C, 0x00, 0x46, 0x5F, 0x83, 0x60, 0x83, 0x42, 0x00, 0x00, 0x46, 0x00, 0x00, 0x93, 0x41, 0x3C,
    0x00, 0x44, 0x5F, 0x83, 0x60, 0x83, 0x41, 0x00, 0x00, 0x44, 0x00, 0x00, 0x93, 0x3F, 0x3C, 0x00,
    0x42, 0x5F, 0x83, 0x60, 0x83, 0x3F, 0x00, 0x00, 0x42, 0x00, 0x00, 0x93, 0x3D, 0x3C, 0x00, 0x41,
    0x5F, 0x83, 0x60, 0x83, 0x3D, 0x00, 0x00, 0x41, 0x00, 0x00, 0x93, 0x3A, 0x3C, 0x00, 0x3F, 0x5F,
    0x83, 0x60, 0x83, 0x3A, 0x00, 0x00, 0x3F, 0x00, 0x00, 0x93, 0x3D, 0x3C, 0x00, 0x41, 0x5F, 0x83,
    0x60, 0x83, 0x3D, 0x00, 0x00, 0x41, 0x00, 0x00, 0x93, 0x3F, 0x3C, 0x00, 0x42, 0x5F, 0x83, 0x60,
    0x83, 0x3F, 0x00, 0x00, 0x42, 0x00, 0x00, 0x93, 0x41, 0x3C, 0x00, 0x44, 0x5F, 0x83, 0x60, 0x83,
    0x41, 0x00, 0x00, 0x44, 0x00, 0x00, 0x93, 0x42, 0x3C, 0x00, 0x46, 0x5F, 0x87, 0x40, 0x83, 0x42,
    0x00, 0x00, 0x46, 0x00, 0x00, 0x93, 0x41, 0x3C, 0x00, 0x44, 0x5F, 0x83, 0x60, 0x83, 0x41, 0x00,
    0x00, 0x44, 0x00, 0x00, 0x93, 0x3F, 0x3C, 0x00, 0x42, 0x5F, 0x83, 0x60, 0x83, 0x3F, 0x00, 0x00,
    0x42, 0x00, 0x00, 0x93, 0x41, 0x5F, 0x00, 0x3D, 0x3C, 0x87, 0x40, 0x83, 0x41, 0x00, 0x00, 0x3D,
    0x00, 0x00, 0x93, 0x3F, 0x3C, 0x00, 0x42, 0x5F, 0x87, 0x40, 0x83, 0x42, 0x00, 0x00, 0x3F, 0x00,
    0x00, 0x93, 0x44, 0x5F, 0x00, 0x41, 0x3C, 0x87, 0x40, 0x83, 0x44, 0x00, 0x00, 0x41, 0x00, 0x00,
    0x93, 0x42, 0x3C, 0x00, 0x46, 0x5F, 0x87, 0x40, 0x83, 0x46, 0x00, 0x00, 0x42, 0x00, 0x00, 0x93,
    0x44, 0x28, 0x00, 0x49, 0x5F, 0x00, 0x41, 0x3C, 0x83, 0x60, 0x83, 0x49, 0x00, 0x00, 0x41, 0x00,
    0x00, 0x44, 0x00, 0x00, 0x93, 0x4B, 0x5F, 0x00, 0x46, 0x28, 0x00, 0x42, 0x3C, 0x83, 0x60, 0x83,
    0x4B, 0x00, 0x00, 0x42, 0x00, 0x00, 0x46, 0x00, 0x00, 0x93, 0x42, 0x28, 0x00, 0x46, 0x5F, 0x00,
    0x3F, 0x3C, 0x83, 0x60, 0x83, 0x46, 0x00, 0x00, 0x3F, 0x00, 0x00, 0x42, 0x00, 0x00, 0x93, 0x44,
    0x5F, 0x00, 0x41, 0x28, 0x00, 0x3D, 0x3C, 0x83, 0x60, 0x83, 0x44, 0x00, 0x00, 0x3D, 0x00, 0x00,
    0x41, 0x00, 0x00, 0x93, 0x42, 0x28, 0x00, 0x46, 0x5F, 0x00, 0x3F, 0x3C, 0x87, 0x40, 0x83, 0x46,
    0x00, 0x00, 0x3F, 0x00, 0x00, 0x42, 0x00, 0x00, 0x93, 0x44, 0x5F, 0x00, 0x41, 0x28, 0x00, 0x3D,
    0x3C, 0x83, 0x60, 0x83, 0x44, 0x00, 0x00, 0x3D, 0x00, 0x00, 0x41, 0x00, 0x00, 0x93, 0x42, 0x28,
    0x00, 0x46, 0x5F, 0x00, 0x3F, 0x3C, 0x83, 0x60, 0x83, 0x46, 0x00, 0x00, 0x3F, 0x00, 0x00, 0x42,
    0x00, 0x00, 0x93, 0x49, 0x5F, 0x00, 0x44, 0x28, 0x00, 0x41, 0x3C, 0x83, 0x60, 0x83, 0x49, 0x00,
    0x00, 0x41, 0x00, 0x00, 0x44, 0x00, 0x00, 0x93, 0x4B, 0x5F, 0x00, 0x46, 0x28, 0x00, 0x42, 0x3C,
    0x83, 0x60, 0x83, 0x4B, 0x00, 0x00, 0x42, 0x00, 0x00, 0x46, 0x00, 0x00, 0x93, 0x46, 0x5F, 0x00,
    0x42, 0x28, 0x00, 0x3F, 0x3C, 0x83, 0x60, 0x83, 0x46, 0x00, 0x00, 0x3F, 0x00, 0x00, 0x42, 0x00,
    0x00, 0x93, 0x44, 0x5F, 0x00, 0x41, 0x28, 0x00, 0x3D, 0x3C, 0x83, 0x60, 0x83, 0x44, 0x00, 0x00,
    0x3D, 0x00, 0x00, 0x41, 0x00, 0x00, 0x93, 0x46, 0x5F, 0x00, 0x42, 0x28, 0x00, 0x3F, 0x3C, 0x87,
    0x40, 0x83, 0x46, 0x00, 0x00, 0x3F, 0x00, 0x00, 0x42, 0x00, 0x00, 0x93, 0x44, 0x5F, 0x00, 0x41,
    0x28, 0x00, 0x3D, 0x3C, 0x83, 0x60, 0x83, 0x44, 0x00, 0x00, 0x3D, 0x00, 0x00, 0x41, 0x00, 0x00,
    0x93, 0x46, 0x5F, 0x00, 0x42, 0x28, 0x00, 0x3F, 0x3C, 0x83, 0x60, 0x83, 0x46, 0x00, 0x00, 0x3F,
    0x00, 0x00, 0x42, 0x00, 0x00, 0x93, 0x44, 0x5F, 0x00, 0x3D, 0x3C, 0x00, 0x41, 0x28, 0x83, 0x60,
    0x83, 0x3D, 0x00, 0x00, 0x44, 0x00, 0x00, 0x41, 0x00, 0x00, 0x93, 0x3A, 0x3C, 0x00, 0x42, 0x5F,
    0x00, 0x3F, 0x28, 0x83, 0x60, 0x83, 0x3A, 0x00, 0x00, 0x42, 0x00, 0x00, 0x3F, 0x00, 0x00, 0x93,
    0x3D, 0x28, 0x00, 0x38, 0x3C, 0x00, 0x41, 0x5F, 0x83, 0x60, 0x83, 0x38, 0x00, 0x00, 0x41, 0x00,
    0x00, 0x3D, 0x00, 0x00, 0x93, 0x35, 0x3C, 0x00, 0x3D, 0x5F, 0x00, 0x38, 0x28, 0x83, 0x60, 0x83,
    0x35, 0x00, 0x00, 0x3D, 0x00, 0x00, 0x38, 0x00, 0x00, 0x93, 0x3A, 0x28, 0x00, 0x36, 0x3C, 0x00,
    0x3F, 0x5F, 0x87, 0x40, 0x83, 0x36, 0x00, 0x00, 0x3F, 0x00, 0x00, 0x3A, 0x00, 0x00, 0x93, 0x3D,
    0x5F, 0x00, 0x38, 0x28, 0x00, 0x35, 0x3C, 0x83, 0x60, 0x83, 0x35, 0x00, 0x00, 0x3D, 0x00, 0x00,
    0x38, 0x00, 0x00, 0x93, 0x36, 0x3C, 0x00, 0x3F, 0x5F, 0x00, 0x3A, 0x28, 0x83, 0x60, 0x83, 0x36,
    0x00, 0x00, 0x3F, 0x00, 0x00, 0x3A, 0x00, 0x00, 0x93, 0x41, 0x5F, 0x00, 0x38, 0x3C, 0x00, 0x3D,
    0x28, 0x83, 0x60, 0x83, 0x38, 0x00, 0x00, 0x3D, 0x00, 0x00, 0x41, 0x00, 0x00, 0x93, 0x3F, 0x28,
    0x00, 0x42, 0x5F, 0x00, 0x3A, 0x3C, 0x83, 0x60, 0x83, 0x3A, 0x00, 0x00, 0x3F, 0x00, 0x00, 0x42,
    0x00, 0x00, 0x93, 0x3D, 0x3C, 0x00, 0x41, 0x28, 0x00, 0x44, 0x5F, 0x83, 0x60, 0x83, 0x3D, 0x00,
    0x00, 0x41, 0x00, 0x00, 0x44, 0x00, 0x00, 0x93, 0x46, 0x5F, 0x00, 0x3F, 0x3C, 0x00, 0x42, 0x28,
    0x83, 0x60, 0x83, 0x3F, 0x00, 0x00, 0x42, 0x00, 0x00, 0x46, 0x00, 0x00, 0x93, 0x3A, 0x28, 0x00,
    0x3F, 0x5F, 0x00, 0x36, 0x3C, 0x87, 0x40, 0x83, 0x36, 0x00, 0x00, 0x3A, 0x00, 0x00, 0x3F, 0x00,
    0x00, 0x93, 0x44, 0x5F, 0x00, 0x3F, 0x3C, 0x83, 0x60, 0x83, 0x3F, 0x00, 0x00, 0x44, 0x00, 0x00,
    0x93, 0x41, 0x3C, 0x00, 0x46, 0x5F, 0x83, 0x60, 0x83, 0x41, 0x00, 0x00, 0x46, 0x00, 0x00, 0x93,
    0x44, 0x28, 0x00, 0x49, 0x5F, 0x00, 0x41, 0x3C, 0x83, 0x60, 0x83, 0x44, 0x00, 0x00, 0x49, 0x00,
    0x00, 0x41, 0x00, 0x00, 0x93, 0x4B, 0x5F, 0x00, 0x46, 0x28, 0x00, 0x42, 0x3C, 0x83, 0x60, 0x83,
    0x4B, 0x00, 0x00, 0x46, 0x00, 0x00, 0x42, 0x00, 0x00, 0x93, 0x42, 0x28, 0x00, 0x46, 0x5F, 0x00,
    0x3F, 0x3C, 0x83, 0x60, 0x83, 0x42, 0x00, 0x00, 0x46, 0x00, 0x00, 0x3F, 0x00, 0x00, 0x93, 0x44,
    0x5F, 0x00, 0x41, 0x28, 0x00, 0x3D, 0x3C, 0x83, 0x60, 0x83, 0x44, 0x00, 0x00, 0x41, 0x00, 0x00,
    0x3D, 0x00, 0x00, 0x93, 0x42, 0x28, 0x00, 0x46, 0x5F, 0x00, 0x3F, 0x3C, 0x87, 0x40, 0x83, 0x42,
    0x00, 0x00, 0x46, 0x00, 0x00, 0x3F, 0x00, 0x00, 0x93, 0x44, 0x5F, 0x00, 0x41, 0x28, 0x00, 0x3D,
    0x3C, 0x83, 0x60, 0x83, 0x44, 0x00, 0x00, 0x41, 0x00, 0x00, 0x3D, 0x00, 0x00, 0x93, 0x42, 0x28,
    0x00, 0x46, 0x5F, 0x00, 0x3F, 0x3C, 0x83, 0x60, 0x83, 0x42, 0x00, 0x00, 0x46, 0x00, 0x00, 0x3F,
    0x00, 0x00, 0x93, 0x49, 0x5F, 0x00, 0x44, 0x28, 0x00, 0x41, 0x3C, 0x83, 0x60, 0x83, 0x49, 0x00,
    0x00, 0x44, 0x00, 0x00, 0x41, 0x00, 0x00, 0x93, 0x4B, 0x5F, 0x00, 0x46, 0x28, 0x00, 0x42, 0x3C,
    0x83, 0x60, 0x83, 0x4B, 0x00, 0x00, 0x46, 0x00, 0x00, 0x42, 0x00, 0x00, 0x93, 0x46, 0x5F, 0x00,
    0x42, 0x28, 0x00, 0x3F, 0x3C, 0x83, 0x60, 0x83, 0x46, 0x00, 0x00, 0x42, 0x00, 0x00, 0x3F, 0x00,
    0x00, 0x93, 0x44, 0x5F, 0x00, 0x41, 0x28, 0x00, 0x3D, 0x3C, 0x83, 0x60, 0x83, 0x44, 0x00, 0x00,
    0x41, 0x00, 0x00, 0x3D, 0x00, 0x00, 0x93, 0x46, 0x5F, 0x00, 0x42, 0x28, 0x00, 0x3F, 0x3C, 0x87,
    0x40, 0x83, 0x46, 0x00, 0x00, 0x42, 0x00, 0x00, 0x3F, 0x00, 0x00, 0x93, 0x44, 0x5F, 0x00, 0x41,
    0x28, 0x00, 0x3D, 0x3C, 0x83, 0x60, 0x83, 0x44, 0x00, 0x00, 0x41, 0x00, 0x00, 0x3D, 0x00, 0x00,
    0x93, 0x46, 0x5F, 0x00, 0x42, 0x28, 0x00, 0x3F, 0x3C, 0x83, 0x60, 0x83, 0x46, 0x00, 0x00, 0x42,
    0x00, 0x00, 0x3F, 0x00, 0x00, 0x93, 0x44, 0x5F, 0x00, 0x3D, 0x3C, 0x00, 0x41, 0x28, 0x83, 0x60,
    0x83, 0x44, 0x00, 0x00, 0x3D, 0x00, 0x00, 0x41, 0x00, 0x00, 0x93, 0x3A, 0x3C, 0x00, 0x42, 0x5F,
    0x00, 0x3F, 0x28, 0x83, 0x60, 0x83, 0x3A, 0x00, 0x00, 0x42, 0x00, 0x00, 0x3F, 0x00, 0x00, 0x93,
    0x3D, 0x28, 0x00, 0x38, 0x3C, 0x00, 0x41, 0x5F, 0x83, 0x60, 0x83, 0x3D, 0x00, 0x00, 0x38, 0x00,
    0x00, 0x41, 0x00, 0x00, 0x93, 0x35, 0x3C, 0x00, 0x3D, 0x5F, 0x00, 0x38, 0x28, 0x83, 0x60, 0x83,
    0x35, 0x00, 0x00, 0x3D, 0x00, 0x00, 0x38, 0x00, 0x00, 0x93, 0x3A, 0x28, 0x00, 0x36, 0x3C, 0x00,
    0x3F, 0x5F, 0x87, 0x40, 0x83, 0x3A, 0x00, 0x00, 0x36, 0x00, 0x00, 0x3F, 0x00, 0x00, 0x93, 0x3F,
    0x5F, 0x00, 0x38, 0x28, 0x00, 0x36, 0x3C, 0x83, 0x60, 0x83, 0x3F, 0x00, 0x00, 0x38, 0x00, 0x00,
    0x36, 0x00, 0x00, 0x93, 0x36, 0x3C, 0x00, 0x3F, 0x5F, 0x00, 0x3A, 0x28, 0x83, 0x60, 0x83, 0x36,
    0x00, 0x00, 0x3F, 0x00, 0x00, 0x3A, 0x00, 0x00, 0x93, 0x41, 0x5F, 0x00, 0x38, 0x3C, 0x00, 0x3D,
    0x28, 0x83, 0x60, 0x83, 0x41, 0x00, 0x00, 0x38, 0x00, 0x00, 0x3D, 0x00, 0x00, 0x93, 0x3F, 0x28,
    0x00, 0x42, 0x5F, 0x00, 0x3A, 0x3C, 0x83, 0x60, 0x83, 0x3F, 0x00, 0x00, 0x42, 0x00, 0x00, 0x3A,
    0x00, 0x00, 0x93, 0x3D, 0x3C, 0x00, 0x41, 0x28, 0x00, 0x44, 0x5F, 0x83, 0x60, 0x83, 0x3D, 0x00,
    0x00, 0x41, 0x00, 0x00, 0x44, 0x00, 0x00, 0x93, 0x46, 0x5F, 0x00, 0x3F, 0x50, 0x00, 0x42, 0x28,
    0x83, 0x60, 0x83, 0x46, 0x00, 0x00, 0x3F, 0x00, 0x00, 0x42, 0x00, 0x00, 0x93, 0x3A, 0x28, 0x00,
    0x3F, 0x5F, 0x00, 0x36, 0x3C, 0x87, 0x40, 0x83, 0x3A, 0x00, 0x00, 0x3F, 0x00, 0x00, 0x36, 0x00,
    0x00, 0x93, 0x46, 0x5F, 0x00, 0x3F, 0x3C, 0x83, 0x60, 0x83, 0x46, 0x00, 0x00, 0x3F, 0x00, 0x00,
    0x93, 0x41, 0x3C, 0x00, 0x49, 0x5F, 0x83, 0x60, 0x83, 0x41, 0x00, 0x00, 0x49, 0x00, 0x00, 0x93,
    0x44, 0x28, 0x00, 0x49, 0x5F, 0x00, 0x41, 0x3C, 0x83, 0x60, 0x83, 0x41, 0x00, 0x00, 0x44, 0x00,
    0x00, 0x49, 0x00, 0x00, 0x93, 0x4B, 0x5F, 0x00, 0x46, 0x28, 0x00, 0x42, 0x3C, 0x83, 0x60, 0x83,
    0x42, 0x00, 0x00, 0x4B, 0x00, 0x00, 0x46, 0x00, 0x00, 0x93, 0x42, 0x28, 0x00, 0x46, 0x5F, 0x00,
    0x3F, 0x3C, 0x83, 0x60, 0x83, 0x3F, 0x00, 0x00, 0x42, 0x00, 0x00, 0x46, 0x00, 0x00, 0x93, 0x44,
    0x5F, 0x00, 0x41, 0x28, 0x00, 0x3D, 0x3C, 0x83, 0x60, 0x83, 0x3D, 0x00, 0x00, 0x44, 0x00, 0x00,
    0x41, 0x00, 0x00, 0x93, 0x42, 0x28, 0x00, 0x46, 0x5F, 0x00, 0x3F, 0x3C, 0x87, 0x40, 0x83, 0x3F,
    0x00, 0x00, 0x42, 0x00, 0x00, 0x46, 0x00, 0x00, 0x93, 0x44, 0x5F, 0x00, 0x41, 0x28, 0x00, 0x3D,
    0x3C, 0x83, 0x60, 0x83, 0x3D, 0x00, 0x00, 0x44, 0x00, 0x00, 0x41, 0x00, 0x00, 0x93, 0x42, 0x28,
    0x00, 0x46, 0x5F, 0x00, 0x3F, 0x3C, 0x83, 0x60, 0x83, 0x3F, 0x00, 0x00, 0x42, 0x00, 0x00, 0x46,
    0x00, 0x00, 0x93, 0x49, 0x5F, 0x00, 0x44, 0x28, 0x00, 0x41, 0x3C, 0x83, 0x60, 0x83, 0x41, 0x00,
    0x00, 0x49, 0x00, 0x00, 0x44, 0x00, 0x00, 0x93, 0x4B, 0x5F, 0x00, 0x46, 0x28, 0x00, 0x42, 0x3C,
    0x83, 0x60, 0x83, 0x42, 0x00, 0x00, 0x4B, 0x00, 0x00, 0x46, 0x00, 0x00, 0x93, 0x46, 0x5F, 0x00,
    0x42, 0x28, 0x00, 0x3F, 0x3C, 0x83, 0x60, 0x83, 0x3F, 0x00, 0x00, 0x46, 0x00, 0x00, 0x42, 0x00,
    0x00, 0x93, 0x44, 0x5F, 0x00, 0x41, 0x28, 0x00, 0x3D, 0x3C, 0x83, 0x60, 0x83, 0x3D, 0x00, 0x00,
    0x44, 0x00, 0x00, 0x41, 0x00, 0x00, 0x93, 0x46, 0x5F, 0x00, 0x42, 0x28, 0x00, 0x3F, 0x3C, 0x87,
    0x40, 0x83, 0x3F, 0x00, 0x00, 0x46, 0x00, 0x00, 0x42, 0x00, 0x00, 0x93, 0x44, 0x5F, 0x00, 0x41,
    0x28, 0x00, 0x3D, 0x3C, 0x83, 0x60, 0x83, 0x3D, 0x00, 0x00, 0x44, 0x00, 0x00, 0x41, 0x00, 0x00,
    0x93, 0x46, 0x5F, 0x00, 0x42, 0x28, 0x00, 0x3F, 0x3C, 0x83, 0x60, 0x83, 0x3F, 0x00, 0x00, 0x46,
    0x00, 0x00, 0x42, 0x00, 0x00, 0x93, 0x44, 0x5F, 0x00, 0x3D, 0x3C, 0x00, 0x41, 0x28, 0x83, 0x60,
    0x83, 0x41, 0x00, 0x00, 0x44, 0x00, 0x00, 0x3D, 0x00, 0x00, 0x93, 0x3A, 0x3C, 0x00, 0x42, 0x5F,
    0x00, 0x3F, 0x28, 0x83, 0x60, 0x83, 0x3F, 0x00, 0x00, 0x3A, 0x00, 0x00, 0x42, 0x00, 0x00, 0x93,
    0x3D, 0x28, 0x00, 0x38, 0x3C, 0x00, 0x41, 0x5F, 0x83, 0x60, 0x83, 0x41, 0x00, 0x00, 0x3D, 0x00,
    0x00, 0x38, 0x00, 0x00, 0x93, 0x35, 0x3C, 0x00, 0x3D, 0x5F, 0x00, 0x38, 0x28, 0x83, 0x60, 0x83,
    0x38, 0x00, 0x00, 0x35, 0x00, 0x00, 0x3D, 0x00, 0x00, 0x93, 0x3A, 0x28, 0x00, 0x36, 0x3C, 0x00,
    0x3F, 0x5F, 0x87, 0x40, 0x83, 0x3F, 0x00, 0x00, 0x3A, 0x00, 0x00, 0x36, 0x00, 0x00, 0x93, 0x3D,
    0x5F, 0x00, 0x38, 0x28, 0x00, 0x35, 0x3C, 0x83, 0x60, 0x83, 0x35, 0x00, 0x00, 0x3D, 0x00, 0x00,
    0x38, 0x00, 0x00, 0x93, 0x36, 0x3C, 0x00, 0x3F, 0x5F, 0x00, 0x3A, 0x28, 0x83, 0x60, 0x83, 0x3A,
    0x00, 0x00, 0x36, 0x00, 0x00, 0x3F, 0x00, 0x00, 0x93, 0x41, 0x5F, 0x00, 0x38, 0x3C, 0x00, 0x3D,
    0x28, 0x83, 0x60, 0x83, 0x3D, 0x00, 0x00, 0x41, 0x00, 0x00, 0x38, 0x00, 0x00, 0x93, 0x3F, 0x28,
    0x00, 0x42, 0x5F, 0x00, 0x3A, 0x3C, 0x83, 0x60, 0x83, 0x3A, 0x00, 0x00, 0x3F, 0x00, 0x00, 0x42,
    0x00, 0x00, 0x93, 0x3D, 0x3C, 0x00, 0x41, 0x28, 0x00, 0x44, 0x5F, 0x83, 0x60, 0x83, 0x44, 0x00,
    0x00, 0x3D, 0x00, 0x00, 0x41, 0x00, 0x00, 0x93, 0x46, 0x5F, 0x00, 0x3F, 0x50, 0x00, 0x42, 0x28,
    0x83, 0x60, 0x83, 0x42, 0x00, 0x00, 0x46, 0x00, 0x00, 0x3F, 0x00, 0x00, 0x93, 0x3A, 0x28, 0x00,
    0x3F, 0x5F, 0x00, 0x36, 0x3C, 0x87, 0x40, 0x83, 0x36, 0x00, 0x00, 0x3A, 0x00, 0x00, 0x3F, 0x00,
    0x00, 0x93, 0x44, 0x5F, 0x00, 0x3F, 0x3C, 0x83, 0x60, 0x83, 0x3F, 0x00, 0x00, 0x44, 0x00, 0x00,
    0x93, 0x41, 0x3C, 0x00, 0x46, 0x5F, 0x83, 0x60, 0x83, 0x46, 0x00, 0x00, 0x41, 0x00, 0x00, 0x93,
    0x44, 0x28, 0x00, 0x49, 0x5F, 0x00, 0x41, 0x3C, 0x83, 0x60, 0x83, 0x49, 0x00, 0x00, 0x41, 0x00,
    0x00, 0x44, 0x00, 0x00, 0x93, 0x4B, 0x5F, 0x00, 0x46, 0x28, 0x00, 0x42, 0x3C, 0x83, 0x60, 0x83,
    0x46, 0x00, 0x00, 0x42, 0x00, 0x00, 0x4B, 0x00, 0x00, 0x93, 0x42, 0x28, 0x00, 0x46, 0x5F, 0x00,
    0x3F, 0x3C, 0x83, 0x60, 0x83, 0x46, 0x00, 0x00, 0x3F, 0x00, 0x00, 0x42, 0x00, 0x00, 0x93, 0x44,
    0x5F, 0x00, 0x41, 0x28, 0x00, 0x3D, 0x3C, 0x83, 0x60, 0x83, 0x41, 0x00, 0x00, 0x3D, 0x00, 0x00,
    0x44, 0x00, 0x00, 0x93, 0x42, 0x28, 0x00, 0x46, 0x5F, 0x00, 0x3F, 0x3C, 0x87, 0x40, 0x83, 0x46,
    0x00, 0x00, 0x3F, 0x00, 0x00, 0x42, 0x00, 0x00, 0x93, 0x44, 0x5F, 0x00, 0x41, 0x28, 0x00, 0x3D,
    0x3C, 0x83, 0x60, 0x83, 0x41, 0x00, 0x00, 0x3D, 0x00, 0x00, 0x44, 0x00, 0x00, 0x93, 0x42, 0x28,
    0x00, 0x46, 0x5F, 0x00, 0x3F, 0x3C, 0x83, 0x60, 0x83, 0x46, 0x00, 0x00, 0x3F, 0x00, 0x00, 0x42,
    0x00, 0x00, 0x93, 0x41, 0x3C, 0x00, 0x44, 0x28, 0x00, 0x49, 0x5F, 0x83, 0x60, 0x83, 0x41, 0x00,
    0x00, 0x44, 0x00, 0x00, 0x49, 0x00, 0x00, 0x93, 0x42, 0x3C, 0x00, 0x4B, 0x5F, 0x00, 0x46, 0x28,
    0x83, 0x60, 0x83, 0x42, 0x00, 0x00, 0x4B, 0x00, 0x00, 0x46, 0x00, 0x00, 0x93, 0x3F, 0x3C, 0x00,
    0x42, 0x28, 0x00, 0x46, 0x5F, 0x83, 0x60, 0x83, 0x3F, 0x00, 0x00, 0x42, 0x00, 0x00, 0x46, 0x00,
    0x00, 0x93, 0x3D, 0x3C, 0x00, 0x44, 0x5F, 0x00, 0x41, 0x28, 0x83, 0x60, 0x83, 0x3D, 0x00, 0x00,
    0x44, 0x00, 0x00, 0x41, 0x00, 0x00, 0x93, 0x3F, 0x3C, 0x00, 0x42, 0x28, 0x00, 0x46, 0x5F, 0x87,
    0x40, 0x83, 0x3F, 0x00, 0x00, 0x42, 0x00, 0x00, 0x46, 0x00, 0x00, 0x93, 0x44, 0x3C, 0x00, 0x4B,
    0x5F, 0x00, 0x46, 0x28, 0x83, 0x60, 0x83, 0x44, 0x00, 0x00, 0x4B, 0x00, 0x00, 0x46, 0x00, 0x00,
    0x93, 0x46, 0x3C, 0x00, 0x49, 0x28, 0x00, 0x4D, 0x5F, 0x83, 0x60, 0x83, 0x46, 0x00, 0x00, 0x49,
    0x00, 0x00, 0x4D, 0x00, 0x00, 0x93, 0x46, 0x3C, 0x00, 0x4E, 0x5F, 0x00, 0x4B, 0x28, 0x83, 0x60,
    0x83, 0x46, 0x00, 0x00, 0x4B, 0x00, 0x00, 0x4E, 0x00, 0x00, 0x93, 0x49, 0x28, 0x00, 0x44, 0x3C,
    0x00, 0x4D, 0x5F, 0x83, 0x60, 0x83, 0x44, 0x00, 0x00, 0x49, 0x00, 0x00, 0x4D, 0x00, 0x00, 0x93,
    0x4B, 0x5F, 0x00, 0x46, 0x28, 0x00, 0x42, 0x3C, 0x83, 0x60, 0x83, 0x42, 0x00, 0x00, 0x46, 0x00,
    0x00, 0x4B, 0x00, 0x00, 0x93, 0x3F, 0x3C, 0x00, 0x49, 0x5F, 0x00, 0x44, 0x28, 0x83, 0x60, 0x83,
    0x3F, 0x00, 0x00, 0x44, 0x00, 0x00, 0x49, 0x00, 0x00, 0x93, 0x3F, 0x3C, 0x00, 0x42, 0x28, 0x00,
    0x46, 0x5F, 0x87, 0x40, 0x83, 0x3F, 0x00, 0x00, 0x42, 0x00, 0x00, 0x46, 0x00, 0x00, 0x93, 0x44,
    0x5F, 0x00, 0x3D, 0x3C, 0x00, 0x41, 0x28, 0x83, 0x60, 0x83, 0x3D, 0x00, 0x00, 0x41, 0x00, 0x00,
    0x44, 0x00, 0x00, 0x93, 0x42, 0x28, 0x00, 0x46, 0x5F, 0x00, 0x3F, 0x3C, 0x83, 0x60, 0x83, 0x3F,
    0x00, 0x00, 0x42, 0x00, 0x00, 0x46, 0x00, 0x00, 0x93, 0x3A, 0x3C, 0x00, 0x44, 0x5F, 0x00, 0x41,
    0x28, 0x83, 0x60, 0x83, 0x3A, 0x00, 0x00, 0x41, 0x00, 0x00, 0x44, 0x00, 0x00, 0x93, 0x3F, 0x28,
    0x00, 0x38, 0x3C, 0x00, 0x42, 0x5F, 0x83, 0x60, 0x83, 0x38, 0x00, 0x00, 0x3F, 0x00, 0x00, 0x42,
    0x00, 0x00, 0x93, 0x41, 0x5F, 0x00, 0x3D, 0x28, 0x00, 0x38, 0x3C, 0x83, 0x60, 0x83, 0x38, 0x00,
    0x00, 0x3D, 0x00, 0x00, 0x41, 0x00, 0x00, 0x93, 0x38, 0x28, 0x00, 0x3D, 0x5F, 0x00, 0x35, 0x3C,
    0x83, 0x60, 0x83, 0x35, 0x00, 0x00, 0x38, 0x00, 0x00, 0x3D, 0x00, 0x00, 0x93, 0x36, 0x3C, 0x00,
    0x3A, 0x28, 0x00, 0x3F, 0x5F, 0x83, 0x60, 0x83, 0x36, 0x00, 0x00, 0x3A, 0x00, 0x00, 0x3F, 0x00,
    0x83, 0x60, 0x93, 0x44, 0x5F, 0x00, 0x3D, 0x32, 0x83, 0x60, 0x83, 0x44, 0x00, 0x00, 0x3D, 0x00,
    0x00, 0x93, 0x3F, 0x32, 0x00, 0x46, 0x5F, 0x83, 0x60, 0x83, 0x46, 0x00, 0x00, 0x3F, 0x00, 0x00,
    0x93, 0x49, 0x5F, 0x00, 0x41, 0x32, 0x83, 0x60, 0x83, 0x41, 0x00, 0x00, 0x49, 0x00, 0x00, 0x93,
    0x4B, 0x5F, 0x00, 0x42, 0x32, 0x83, 0x60, 0x83, 0x42, 0x00, 0x00, 0x4B, 0x00, 0x00, 0x93, 0x46,
    0x5F, 0x00, 0x3F, 0x32, 0x83, 0x60, 0x83, 0x3F, 0x00, 0x00, 0x46, 0x00, 0x00, 0x93, 0x44, 0x5F,
    0x00, 0x3D, 0x32, 0x83, 0x60, 0x83, 0x3D, 0x00, 0x00, 0x44, 0x00, 0x00, 0x93, 0x46, 0x5F, 0x00,
    0x3F, 0x32, 0x87, 0x40, 0x83, 0x3F, 0x00, 0x00, 0x46, 0x00, 0x00, 0x93, 0x44, 0x5F, 0x00, 0x3D,
    0x32, 0x83, 0x60, 0x83, 0x3D, 0x00, 0x00, 0x44, 0x00, 0x00, 0x93, 0x46, 0x5F, 0x00, 0x3F, 0x32,
    0x83, 0x60, 0x83, 0x3F, 0x00, 0x00, 0x46, 0x00, 0x00, 0x93, 0x49, 0x5F, 0x00, 0x41, 0x32, 0x83,
    0x60, 0x83, 0x41, 0x00, 0x00, 0x49, 0x00, 0x00, 0x93, 0x4B, 0x5F, 0x00, 0x42, 0x32, 0x83, 0x60,
    0x83, 0x42, 0x00, 0x00, 0x4B, 0x00, 0x00, 0x93, 0x46, 0x5F, 0x00, 0x3F, 0x32, 0x83, 0x60, 0x83,
    0x3F, 0x00, 0x00, 0x46, 0x00, 0x00, 0x93, 0x44, 0x5F, 0x00, 0x3D, 0x32, 0x83, 0x60, 0x83, 0x3D,
    0x00, 0x00, 0x44, 0x00, 0x00, 0x93, 0x46, 0x5F, 0x00, 0x3F, 0x32, 0x87, 0x40, 0x83, 0x3F, 0x00,
    0x00, 0x46, 0x00, 0x00, 0x93, 0x44, 0x5F, 0x00, 0x3D, 0x32, 0x83, 0x60, 0x83, 0x3D, 0x00, 0x00,
    0x44, 0x00, 0x00, 0x93, 0x46, 0x5F, 0x00, 0x3F, 0x32, 0x83, 0x60, 0x83, 0x3F, 0x00, 0x00, 0x46,
    0x00, 0x00, 0x93, 0x44, 0x5F, 0x00, 0x3D, 0x32, 0x83, 0x60, 0x83, 0x3D, 0x00, 0x00, 0x44, 0x00,
    0x00, 0x93, 0x42, 0x5F, 0x00, 0x3A, 0x32, 0x83, 0x60, 0x83, 0x3A, 0x00, 0x00, 0x42, 0x00, 0x00,
    0x93, 0x41, 0x5F, 0x00, 0x38, 0x32, 0x83, 0x60, 0x83, 0x38, 0x00, 0x00, 0x41, 0x00, 0x00, 0x93,
    0x3D, 0x5F, 0x00, 0x35, 0x32, 0x83, 0x60, 0x83, 0x35, 0x00, 0x00, 0x3D, 0x00, 0x00, 0x93, 0x3F,
    0x5F, 0x00, 0x36, 0x32, 0x87, 0x40, 0x83, 0x36, 0x00, 0x00, 0x3F, 0x00, 0x00, 0x93, 0x3D, 0x5F,
    0x00, 0x35, 0x32, 0x83, 0x60, 0x83, 0x35, 0x00, 0x00, 0x3D, 0x00, 0x00, 0x93, 0x3F, 0x5F, 0x00,
    0x36, 0x32, 0x83, 0x60, 0x83, 0x36, 0x00, 0x00, 0x3F, 0x00, 0x00, 0x93, 0x41, 0x5F, 0x00, 0x38,
    0x32, 0x83, 0x60, 0x83, 0x38, 0x00, 0x00, 0x41, 0x00, 0x00, 0x93, 0x42, 0x5F, 0x00, 0x3A, 0x32,
    0x83, 0x60, 0x83, 0x3A, 0x00, 0x00, 0x42, 0x00, 0x00, 0x93, 0x44, 0x5F, 0x00, 0x3D, 0x32, 0x83,
    0x60, 0x83, 0x3D, 0x00, 0x00, 0x44, 0x00, 0x00, 0x93, 0x46, 0x5F, 0x00, 0x3F, 0x32, 0x83, 0x60,
    0x83, 0x3F, 0x00, 0x00, 0x46, 0x00, 0x00, 0x93, 0x3F, 0x5F, 0x00, 0x36, 0x32, 0x87, 0x40, 0x83,
    0x36, 0x00, 0x00, 0x3F, 0x00, 0x00, 0x93, 0x44, 0x5F, 0x00, 0x3F, 0x32, 0x83, 0x60, 0x83, 0x3F,
    0x00, 0x00, 0x44, 0x00, 0x00, 0x93, 0x46, 0x5F, 0x00, 0x41, 0x32, 0x83, 0x60, 0x83, 0x41, 0x00,
    0x00, 0x46, 0x00, 0x00, 0x93, 0x49, 0x5F, 0x00, 0x41, 0x32, 0x83, 0x60, 0x83, 0x49, 0x00, 0x00,
    0x41, 0x00, 0x00, 0x93, 0x4B, 0x5F, 0x00, 0x42, 0x32, 0x83, 0x60, 0x83, 0x4B, 0x00, 0x00, 0x42,
    0x00, 0x00, 0x93, 0x46, 0x5F, 0x00, 0x3F, 0x32, 0x83, 0x60, 0x83, 0x46, 0x00, 0x00, 0x3F, 0x00,
    0x00, 0x93, 0x44, 0x5F, 0x00, 0x3D, 0x32, 0x83, 0x60, 0x83, 0x44, 0x00, 0x00, 0x3D, 0x00, 0x00,
    0x93, 0x46, 0x5F, 0x00, 0x3F, 0x32, 0x87, 0x40, 0x83, 0x46, 0x00, 0x00, 0x3F, 0x00, 0x00, 0x93,
    0x44, 0x5F, 0x00, 0x3D, 0x32, 0x83, 0x60, 0x83, 0x44, 0x00, 0x00, 0x3D, 0x00, 0x00, 0x93, 0x46,
    0x5F, 0x00, 0x3F, 0x32, 0x83, 0x60, 0x83, 0x46, 0x00, 0x00, 0x3F, 0x00, 0x00, 0x93, 0x49, 0x5F,
    0x00, 0x41, 0x32, 0x83, 0x60, 0x83, 0x49, 0x00, 0x00, 0x41, 0x00, 0x00, 0x93, 0x4B, 0x5F, 0x00,
    0x42, 0x32, 0x83, 0x60, 0x83, 0x4B, 0x00, 0x00, 0x42, 0x00, 0x00, 0x93, 0x46, 0x5F, 0x00, 0x3F,
    0x32, 0x83, 0x60, 0x83, 0x46, 0x00, 0x00, 0x3F, 0x00, 0x00, 0x93, 0x44, 0x5F, 0x00, 0x3D, 0x32,
    0x83, 0x60, 0x83, 0x44, 0x00, 0x00, 0x3D, 0x00, 0x00, 0x93, 0x46, 0x5F, 0x00, 0x3F, 0x32, 0x87,
    0x40, 0x83, 0x46, 0x00, 0x00, 0x3F, 0x00, 0x00, 0x93, 0x44, 0x5F, 0x00, 0x3D, 0x32, 0x83, 0x60,
    0x83, 0x44, 0x00, 0x00, 0x3D, 0x00, 0x00, 0x93, 0x46, 0x5F, 0x00, 0x3F, 0x32, 0x83, 0x60, 0x83,
    0x46, 0x00, 0x00, 0x3F, 0x00, 0x00, 0x93, 0x44, 0x5F, 0x00, 0x3D, 0x32, 0x83, 0x60, 0x83, 0x44,
    0x00, 0x00, 0x3D, 0x00, 0x00, 0x93, 0x42, 0x5F, 0x00, 0x3A, 0x32, 0x83, 0x60, 0x83, 0x42, 0x00,
    0x00, 0x3A, 0x00, 0x00, 0x93, 0x41, 0x5F, 0x00, 0x38, 0x32, 0x83, 0x60, 0x83, 0x41, 0x00, 0x00,
    0x38, 0x00, 0x00, 0x93, 0x3D, 0x5F, 0x00, 0x35, 0x32, 0x83, 0x60, 0x83, 0x3D, 0x00, 0x00, 0x35,
    0x00, 0x00, 0x93, 0x3F, 0x5F, 0x00, 0x36, 0x32, 0x87, 0x40, 0x83, 0x3F, 0x00, 0x00, 0x36, 0x00,
    0x00, 0x93, 0x3D, 0x5F, 0x00, 0x35, 0x32, 0x83, 0x60, 0x83, 0x3D, 0x00, 0x00, 0x35, 0x00, 0x00,
    0x93, 0x3F, 0x5F, 0x00, 0x36, 0x32, 0x83, 0x60, 0x83, 0x3F, 0x00, 0x00, 0x36, 0x00, 0x00, 0x93,
    0x41, 0x5F, 0x00, 0x38, 0x32, 0x83, 0x60, 0x83, 0x41, 0x00, 0x00, 0x38, 0x00, 0x00, 0x93, 0x42,
    0x5F, 0x00, 0x3A, 0x32, 0x83, 0x60, 0x83, 0x42, 0x00, 0x00, 0x3A, 0x00, 0x00, 0x93, 0x44, 0x5F,
    0x00, 0x3D, 0x32, 0x83, 0x60, 0x83, 0x44, 0x00, 0x00, 0x3D, 0x00, 0x00, 0x93, 0x46, 0x5F, 0x00,
    0x3F, 0x32, 0x83, 0x60, 0x83, 0x46, 0x00, 0x00, 0x3F, 0x00, 0x00, 0x93, 0x3F, 0x5F, 0x00, 0x36,
    0x32, 0x87, 0x40, 0x83, 0x3F, 0x00, 0x00, 0x36, 0x00, 0x00, 0x93, 0x44, 0x5F, 0x00, 0x3F, 0x32,
    0x83, 0x60, 0x83, 0x44, 0x00, 0x00, 0x3F, 0x00, 0x00, 0x93, 0x46, 0x5F, 0x00, 0x41, 0x32, 0x83,
    0x60, 0x83, 0x46, 0x00, 0x00, 0x41, 0x00, 0x00, 0x93, 0x41, 0x32, 0x00, 0x49, 0x5F, 0x83, 0x60,
    0x83, 0x41, 0x00, 0x00, 0x49, 0x00, 0x00, 0x93, 0x42, 0x32, 0x00, 0x4B, 0x5F, 0x83, 0x60, 0x83,
    0x42, 0x00, 0x00, 0x4B, 0x00, 0x00, 0x93, 0x3F, 0x32, 0x00, 0x46, 0x5F, 0x83, 0x60, 0x83, 0x3F,
    0x00, 0x00, 0x46, 0x00, 0x00, 0x93, 0x3D, 0x32, 0x00, 0x44, 0x5F, 0x83, 0x60, 0x83, 0x3D, 0x00,
    0x00, 0x44, 0x00, 0x00, 0x93, 0x3F, 0x32, 0x00, 0x46, 0x5F, 0x87, 0x40, 0x83, 0x3F, 0x00, 0x00,
    0x46, 0x00, 0x00, 0x93, 0x3D, 0x32, 0x00, 0x44, 0x5F, 0x83, 0x60, 0x83, 0x3D, 0x00, 0x00, 0x44,
    0x00, 0x00, 0x93, 0x3F, 0x32, 0x00, 0x46, 0x5F, 0x83, 0x60, 0x83, 0x3F, 0x00, 0x00, 0x46, 0x00,
    0x00, 0x93, 0x41, 0x32, 0x00, 0x49, 0x5F, 0x83, 0x60, 0x83, 0x41, 0x00, 0x00, 0x49, 0x00, 0x00,
    0x93, 0x42, 0x32, 0x00, 0x4B, 0x5F, 0x83, 0x60, 0x83, 0x42, 0x00, 0x00, 0x4B, 0x00, 0x00, 0x93,
    0x3F, 0x32, 0x00, 0x46, 0x5F, 0x83, 0x60, 0x83, 0x3F, 0x00, 0x00, 0x46, 0x00, 0x00, 0x93, 0x3D,
    0x32, 0x00, 0x44, 0x5F, 0x83, 0x60, 0x83, 0x3D, 0x00, 0x00, 0x44, 0x00, 0x00, 0x93, 0x3F, 0x32,
    0x00, 0x46, 0x5F, 0x87, 0x40, 0x83, 0x3F, 0x00, 0x00, 0x46, 0x00, 0x00, 0x93, 0x3D, 0x32, 0x00,
    0x44, 0x5F, 0x83, 0x60, 0x83, 0x3D, 0x00, 0x00, 0x44, 0x00, 0x00, 0x93, 0x3F, 0x32, 0x00, 0x46,
    0x5F, 0x83, 0x60, 0x83, 0x3F, 0x00, 0x00, 0x46, 0x00, 0x00, 0x93, 0x3D, 0x32, 0x00, 0x44, 0x5F,
    0x83, 0x60, 0x83, 0x3D, 0x00, 0x00, 0x44, 0x00, 0x00, 0x93, 0x3A, 0x32, 0x00, 0x42, 0x5F, 0x83,
    0x60, 0x83, 0x3A, 0x00, 0x00, 0x42, 0x00, 0x00, 0x93, 0x38, 0x32, 0x00, 0x41, 0x5F, 0x83, 0x60,
    0x83, 0x38, 0x00, 0x00, 0x41, 0x00, 0x00, 0x93, 0x35, 0x32, 0x00, 0x3D, 0x5F, 0x83, 0x60, 0x83,
    0x35, 0x00, 0x00, 0x3D, 0x00, 0x00, 0x93, 0x36, 0x32, 0x00, 0x3F, 0x5F, 0x87, 0x40, 0x83, 0x36,
    0x00, 0x00, 0x3F, 0x00, 0x00, 0x93, 0x35, 0x32, 0x00, 0x3D, 0x5F, 0x83, 0x60, 0x83, 0x35, 0x00,
    0x00, 0x3D, 0x00, 0x00, 0x93, 0x36, 0x32, 0x00, 0x3F, 0x5F, 0x83, 0x60, 0x83, 0x36, 0x00, 0x00,
    0x3F, 0x00, 0x00, 0x93, 0x38, 0x32, 0x00, 0x41, 0x5F, 0x83, 0x60, 0x83, 0x38, 0x00, 0x00, 0x41,
    0x00, 0x00, 0x93, 0x3A, 0x32, 0x00, 0x42, 0x5F, 0x83, 0x60, 0x83, 0x3A, 0x00, 0x00, 0x42, 0x00,
    0x00, 0x93, 0x3D, 0x32, 0x00, 0x44, 0x5F, 0x83, 0x60, 0x83, 0x3D, 0x00, 0x00, 0x44, 0x00, 0x00,
    0x93, 0x3F, 0x32, 0x00, 0x46, 0x5F, 0x83, 0x60, 0x83, 0x3F, 0x00, 0x00, 0x46, 0x00, 0x00, 0x93,
    0x36, 0x32, 0x00, 0x3F, 0x5F, 0x87, 0x40, 0x83, 0x36, 0x00, 0x00, 0x3F, 0x00, 0x00, 0x93, 0x3F,
    0x32, 0x00, 0x44, 0x5F, 0x83, 0x60, 0x83, 0x3F, 0x00, 0x00, 0x44, 0x00, 0x00, 0x93, 0x41, 0x32,
    0x00, 0x46, 0x5F, 0x83, 0x60, 0x83, 0x41, 0x00, 0x00, 0x46, 0x00, 0x00, 0x93, 0x49, 0x5F, 0x00,
    0x41, 0x32, 0x83, 0x60, 0x83, 0x49, 0x00, 0x00, 0x41, 0x00, 0x00, 0x93, 0x4B, 0x5F, 0x00, 0x42,
    0x32, 0x83, 0x60, 0x83, 0x4B, 0x00, 0x00, 0x42, 0x00, 0x00, 0x93, 0x46, 0x5F, 0x00, 0x3F, 0x32,
    0x83, 0x60, 0x83, 0x46, 0x00, 0x00, 0x3F, 0x00, 0x00, 0x93, 0x44, 0x5F, 0x00, 0x3D, 0x32, 0x83,
    0x60, 0x83, 0x44, 0x00, 0x00, 0x3D, 0x00, 0x00, 0x93, 0x46, 0x5F, 0x00, 0x3F, 0x32, 0x87, 0x40,
    0x83, 0x46, 0x00, 0x00, 0x3F, 0x00, 0x00, 0x93, 0x44, 0x5F, 0x00, 0x3D, 0x32, 0x83, 0x60, 0x83,
    0x44, 0x00, 0x00, 0x3D, 0x00, 0x00, 0x93, 0x46, 0x5F, 0x00, 0x3F, 0x32, 0x83, 0x60, 0x83, 0x46,
    0x00, 0x00, 0x3F, 0x00, 0x00, 0x93, 0x49, 0x5F, 0x00, 0x41, 0x32, 0x83, 0x60, 0x83, 0x49, 0x00,
    0x00, 0x41, 0x00, 0x00, 0x93, 0x4B, 0x5F, 0x00, 0x42, 0x32, 0x83, 0x60, 0x83, 0x4B, 0x00, 0x00,
    0x42, 0x00, 0x00, 0x93, 0x46, 0x5F, 0x00, 0x3F, 0x32, 0x83, 0x60, 0x83, 0x46, 0x00, 0x00, 0x3F,
    0x00, 0x00, 0x93, 0x44, 0x5F, 0x00, 0x3D, 0x32, 0x83, 0x60, 0x83, 0x44, 0x00, 0x00, 0x3D, 0x00,
    0x00, 0x93, 0x46, 0x5F, 0x00, 0x3F, 0x32, 0x87, 0x40, 0x83, 0x46, 0x00, 0x00, 0x3F, 0x00, 0x00,
    0x93, 0x4B, 0x5F, 0x00, 0x44, 0x32, 0x83, 0x60, 0x83, 0x4B, 0x00, 0x00, 0x44, 0x00, 0x00, 0x93,
    0x4D, 0x5F, 0x00, 0x46, 0x32, 0x83, 0x60, 0x83, 0x4D, 0x00, 0x00, 0x46, 0x00, 0x00, 0x93, 0x4E,
    0x5F, 0x00, 0x46, 0x32, 0x83, 0x60, 0x83, 0x4E, 0x00, 0x00, 0x46, 0x00, 0x00, 0x93, 0x4D, 0x5F,
    0x00, 0x44, 0x32, 0x83, 0x60, 0x83, 0x4D, 0x00, 0x00, 0x44, 0x00, 0x00, 0x93, 0x4B, 0x5F, 0x00,
    0x42, 0x32, 0x83, 0x60, 0x83, 0x4B, 0x00, 0x00, 0x42, 0x00, 0x00, 0x93, 0x49, 0x5F, 0x00, 0x41,
    0x32, 0x83, 0x60, 0x83, 0x49, 0x00, 0x00, 0x41, 0x00, 0x00, 0x93, 0x46, 0x5F, 0x00, 0x3F, 0x32,
    0x87, 0x40, 0x83, 0x46, 0x00, 0x00, 0x3F, 0x00, 0x00, 0x93, 0x44, 0x5F, 0x00, 0x3D, 0x32, 0x83,
    0x60, 0x83, 0x44, 0x00, 0x00, 0x3D, 0x00, 0x00, 0x93, 0x46, 0x5F, 0x00, 0x3F, 0x32, 0x83, 0x60,
    0x83, 0x46, 0x00, 0x00, 0x3F, 0x00, 0x00, 0x93, 0x44, 0x5F, 0x00, 0x3D, 0x32, 0x83, 0x60, 0x83,
    0x44, 0x00, 0x00, 0x3D, 0x00, 0x00, 0x93, 0x42, 0x5F, 0x00, 0x3A, 0x32, 0x83, 0x60, 0x83, 0x42,
    0x00, 0x00, 0x3A, 0x00, 0x00, 0x93, 0x41, 0x5F, 0x00, 0x38, 0x32, 0x83, 0x60, 0x83, 0x41, 0x00,
    0x00, 0x38, 0x00, 0x00, 0x93, 0x3D, 0x5F, 0x00, 0x35, 0x32, 0x83, 0x60, 0x83, 0x3D, 0x00, 0x00,
    0x35, 0x00, 0x00, 0x93, 0x3F, 0x5F, 0x00, 0x36, 0x32, 0x83, 0x60, 0x83, 0x3F, 0x00, 0x00, 0x36,
    0x00, 0x81, 0xFB, 0x20, 0x93, 0x3F, 0x5F, 0x83, 0x60, 0x83, 0x3F, 0x00, 0x00, 0x93, 0x41, 0x5F,
    0x83, 0x60, 0x83, 0x41, 0x00, 0x00, 0x93, 0x42, 0x5F, 0x83, 0x60, 0x83, 0x42, 0x00, 0x00, 0x93,
    0x44, 0x5F, 0x83, 0x60, 0x83, 0x44, 0x00, 0x00, 0x93, 0x46, 0x5F, 0x87, 0x40, 0x83, 0x46, 0x00,
    0x00, 0x93, 0x4B, 0x5F, 0x83, 0x60, 0x83, 0x4B, 0x00, 0x00, 0x93, 0x49, 0x5F, 0x83, 0x60, 0x83,
    0x49, 0x00, 0x00, 0x93, 0x46, 0x5F, 0x87, 0x40, 0x83, 0x46, 0x00, 0x00, 0x93, 0x3F, 0x5F, 0x87,
    0x40, 0x83, 0x3F, 0x00, 0x00, 0x93, 0x46, 0x5F, 0x83, 0x60, 0x83, 0x46, 0x00, 0x00, 0x93, 0x44,
    0x5F, 0x83, 0x60, 0x83, 0x44, 0x00, 0x00, 0x93, 0x42, 0x5F, 0x83, 0x60, 0x83, 0x42, 0x00, 0x00,
    0x93, 0x41, 0x5F, 0x83, 0x60, 0x83, 0x41, 0x00, 0x00, 0x93, 0x3F, 0x5F, 0x83, 0x60, 0x83, 0x3F,
    0x00, 0x00, 0x93, 0x41, 0x5F, 0x83, 0x60, 0x83, 0x41, 0x00, 0x00, 0x93, 0x42, 0x5F, 0x83, 0x60,
    0x83, 0x42, 0x00, 0x00, 0x93, 0x44, 0x5F, 0x83, 0x60, 0x83, 0x44, 0x00, 0x00, 0x93, 0x46, 0x5F,
    0x87, 0x40, 0x83, 0x46, 0x00, 0x00, 0x93, 0x44, 0x5F, 0x83, 0x60, 0x83, 0x44, 0x00, 0x00, 0x93,
    0x42, 0x5F, 0x83, 0x60, 0x83, 0x42, 0x00, 0x00, 0x93, 0x41, 0x5F, 0x83, 0x60, 0x83, 0x41, 0x00,
    0x00, 0x93, 0x3F, 0x5F, 0x83, 0x60, 0x83, 0x3F, 0x00, 0x00, 0x93, 0x41, 0x5F, 0x83, 0x60, 0x83,
    0x41, 0x00, 0x00, 0x93, 0x42, 0x5F, 0x83, 0x60, 0x83, 0x42, 0x00, 0x00, 0x93, 0x41, 0x5F, 0x83,
    0x60, 0x83, 0x41, 0x00, 0x00, 0x93, 0x3F, 0x5F, 0x83, 0x60, 0x83, 0x3F, 0x00, 0x00, 0x93, 0x3E,
    0x5F, 0x83, 0x60, 0x83, 0x3E, 0x00, 0x00, 0x93, 0x42, 0x5F, 0x83, 0x60, 0x83, 0x42, 0x00, 0x00,
    0x93, 0x3F, 0x5F, 0x83, 0x60, 0x83, 0x3F, 0x00, 0x00, 0x93, 0x41, 0x5F, 0x83, 0x60, 0x83, 0x41,
    0x00, 0x00, 0x93, 0x42, 0x5F, 0x83, 0x60, 0x83, 0x42, 0x00, 0x00, 0x93, 0x44, 0x5F, 0x83, 0x60,
    0x83, 0x44, 0x00, 0x00, 0x93, 0x46, 0x5F, 0x87, 0x40, 0x83, 0x46, 0x00, 0x00, 0x93, 0x4B, 0x5F,
    0x83, 0x60, 0x83, 0x4B, 0x00, 0x00, 0x93, 0x49, 0x5F, 0x83, 0x60, 0x83, 0x49, 0x00, 0x00, 0x93,
    0x46, 0x5F, 0x87, 0x40, 0x83, 0x46, 0x00, 0x00, 0x93, 0x3F, 0x5F, 0x87, 0x40, 0x83, 0x3F, 0x00,
    0x00, 0x93, 0x46, 0x5F, 0x83, 0x60, 0x83, 0x46, 0x00, 0x00, 0x93, 0x44, 0x5F, 0x83, 0x60, 0x83,
    0x44, 0x00, 0x00, 0x93, 0x42, 0x5F, 0x83, 0x60, 0x83, 0x42, 0x00, 0x00, 0x93, 0x41, 0x5F, 0x83,
    0x60, 0x83, 0x41, 0x00, 0x00, 0x93, 0x3F, 0x5F, 0x83, 0x60, 0x83, 0x3F, 0x00, 0x00, 0x93, 0x41,
    0x5F, 0x83, 0x60, 0x83, 0x41, 0x00, 0x00, 0x93, 0x42, 0x5F, 0x83, 0x60, 0x83, 0x42, 0x00, 0x00,
    0x93, 0x44, 0x5F, 0x83, 0x60, 0x83, 0x44, 0x00, 0x00, 0x93, 0x46, 0x5F, 0x87, 0x40, 0x83, 0x46,
    0x00, 0x00, 0x93, 0x44, 0x5F, 0x83, 0x60, 0x83, 0x44, 0x00, 0x00, 0x93, 0x42, 0x5F, 0x83, 0x60,
    0x83, 0x42, 0x00, 0x00, 0x93, 0x41, 0x5F, 0x87, 0x40, 0x83, 0x41, 0x00, 0x00, 0x93, 0x42, 0x5F,
    0x87, 0x40, 0x83, 0x42, 0x00, 0x00, 0x93, 0x44, 0x5F, 0x87, 0x40, 0x83, 0x44, 0x00, 0x00, 0x93,
    0x46, 0x5F, 0x87, 0x40, 0x83, 0x46, 0x00, 0x00, 0x93, 0x3F, 0x5F, 0x00, 0x3A, 0x3C, 0x83, 0x60,
    0x83, 0x3F, 0x00, 0x00, 0x3A, 0x00, 0x00, 0x93, 0x41, 0x5F, 0x00, 0x3D, 0x3C, 0x83, 0x60, 0x83,
    0x41, 0x00, 0x00, 0x3D, 0x00, 0x00, 0x93, 0x42, 0x5F, 0x00, 0x3F, 0x3C, 0x83, 0x60, 0x83, 0x42,
    0x00, 0x00, 0x3F, 0x00, 0x00, 0x93, 0x44, 0x5F, 0x00, 0x41, 0x3C, 0x83, 0x60, 0x83, 0x44, 0x00,
    0x00, 0x41, 0x00, 0x00, 0x93, 0x46, 0x5F, 0x00, 0x42, 0x3C, 0x87, 0x40, 0x83, 0x46, 0x00, 0x00,
    0x42, 0x00, 0x00, 0x93, 0x4B, 0x5F, 0x00, 0x46, 0x3C, 0x83, 0x60, 0x83, 0x4B, 0x00, 0x00, 0x46,
    0x00, 0x00, 0x93, 0x49, 0x5F, 0x00, 0x44, 0x3C, 0x83, 0x60, 0x83, 0x49, 0x00, 0x00, 0x44, 0x00,
    0x00, 0x93, 0x46, 0x5F, 0x00, 0x42, 0x3C, 0x87, 0x40, 0x83, 0x46, 0x00, 0x00, 0x42, 0x00, 0x00,
    0x93, 0x3F, 0x5F, 0x00, 0x3A, 0x3C, 0x87, 0x40, 0x83, 0x3F, 0x00, 0x00, 0x3A, 0x00, 0x00, 0x93,
    0x46, 0x5F, 0x00, 0x42, 0x3C, 0x83, 0x60, 0x83, 0x46, 0x00, 0x00, 0x42, 0x00, 0x00, 0x93, 0x44,
    0x5F, 0x00, 0x41, 0x3C, 0x83, 0x60, 0x83, 0x44, 0x00, 0x00, 0x41, 0x00, 0x00, 0x93, 0x42, 0x5F,
    0x00, 0x3F, 0x3C, 0x83, 0x60, 0x83, 0x42, 0x00, 0x00, 0x3F, 0x00, 0x00, 0x93, 0x41, 0x5F, 0x00,
    0x3D, 0x3C, 0x83, 0x60, 0x83, 0x41, 0x00, 0x00, 0x3D, 0x00, 0x00, 0x93, 0x3F, 0x5F, 0x00, 0x3A,
    0x3C, 0x83, 0x60, 0x83, 0x3F, 0x00, 0x00, 0x3A, 0x00, 0x00, 0x93, 0x41, 0x5F, 0x00, 0x3D, 0x3C,
    0x83, 0x60, 0x83, 0x41, 0x00, 0x00, 0x3D, 0x00, 0x00, 0x93, 0x42, 0x5F, 0x00, 0x3F, 0x3C, 0x83,
    0x60, 0x83, 0x42, 0x00, 0x00, 0x3F, 0x00, 0x00, 0x93, 0x44, 0x5F, 0x00, 0x41, 0x3C, 0x83, 0x60,
    0x83, 0x44, 0x00, 0x00, 0x41, 0x00, 0x00, 0x93, 0x46, 0x5F, 0x00, 0x42, 0x3C, 0x87, 0x40, 0x83,
    0x46, 0x00, 0x00, 0x42, 0x00, 0x00, 0x93, 0x44, 0x5F, 0x00, 0x41, 0x3C, 0x83, 0x60, 0x83, 0x44,
    0x00, 0x00, 0x41, 0x00, 0x00, 0x93, 0x42, 0x5F, 0x00, 0x3F, 0x3C, 0x83, 0x60, 0x83, 0x42, 0x00,
    0x00, 0x3F, 0x00, 0x00, 0x93, 0x3D, 0x32, 0x00, 0x41, 0x5F, 0x83, 0x60, 0x83, 0x3D, 0x00, 0x00,
    0x41, 0x00, 0x00, 0x93, 0x3A, 0x32, 0x00, 0x3F, 0x5F, 0x83, 0x60, 0x83, 0x3A, 0x00, 0x00, 0x3F,
    0x00, 0x00, 0x93, 0x3D, 0x32, 0x00, 0x41, 0x5F, 0x83, 0x60, 0x83, 0x3D, 0x00, 0x00, 0x41, 0x00,
    0x00, 0x93, 0x3F, 0x32, 0x00, 0x42, 0x5F, 0x83, 0x60, 0x83, 0x3F, 0x00, 0x00, 0x42, 0x00, 0x00,
    0x93, 0x3E, 0x32, 0x00, 0x41, 0x5F, 0x83, 0x60, 0x83, 0x3E, 0x00, 0x00, 0x41, 0x00, 0x00, 0x93,
    0x3C, 0x32, 0x00, 0x3F, 0x5F, 0x83, 0x60, 0x83, 0x3C, 0x00, 0x00, 0x3F, 0x00, 0x00, 0x93, 0x3A,
    0x32, 0x00, 0x3E, 0x5F, 0x83, 0x60, 0x83, 0x3A, 0x00, 0x00, 0x3E, 0x00, 0x00, 0x93, 0x3E, 0x32,
    0x00, 0x42, 0x5F, 0x83, 0x60, 0x83, 0x3E, 0x00, 0x00, 0x42, 0x00, 0x00, 0x93, 0x3F, 0x5F, 0x00,
    0x3A, 0x3C, 0x83, 0x60, 0x83, 0x3F, 0x00, 0x00, 0x3A, 0x00, 0x00, 0x93, 0x41, 0x5F, 0x00, 0x3D,
    0x3C, 0x83, 0x60, 0x83, 0x41, 0x00, 0x00, 0x3D, 0x00, 0x00, 0x93, 0x42, 0x5F, 0x00, 0x3F, 0x3C,
    0x83, 0x60, 0x83, 0x42, 0x00, 0x00, 0x3F, 0x00, 0x00, 0x93, 0x44, 0x5F, 0x00, 0x41, 0x3C, 0x83,
    0x60, 0x83, 0x44, 0x00, 0x00, 0x41, 0x00, 0x00, 0x93, 0x46, 0x5F, 0x00, 0x42, 0x3C, 0x87, 0x40,
    0x83, 0x46, 0x00, 0x00, 0x42, 0x00, 0x00, 0x93, 0x4B, 0x5F, 0x00, 0x46, 0x3C, 0x83, 0x60, 0x83,
    0x4B, 0x00, 0x00, 0x46, 0x00, 0x00, 0x93, 0x49, 0x5F, 0x00, 0x44, 0x3C, 0x83, 0x60, 0x83, 0x49,
    0x00, 0x00, 0x44, 0x00, 0x00, 0x93, 0x46, 0x5F, 0x00, 0x42, 0x3C, 0x87, 0x40, 0x83, 0x46, 0x00,
    0x00, 0x42, 0x00, 0x00, 0x93, 0x3F, 0x5F, 0x00, 0x3A, 0x3C, 0x87, 0x40, 0x83, 0x3F, 0x00, 0x00,
    0x3A, 0x00, 0x00, 0x93, 0x46, 0x5F, 0x00, 0x42, 0x3C, 0x83, 0x60, 0x83, 0x46, 0x00, 0x00, 0x42,
    0x00, 0x00, 0x93, 0x44, 0x5F, 0x00, 0x41, 0x3C, 0x83, 0x60, 0x83, 0x44, 0x00, 0x00, 0x41, 0x00,
    0x00, 0x93, 0x42, 0x5F, 0x00, 0x3F, 0x3C, 0x83, 0x60, 0x83, 0x42, 0x00, 0x00, 0x3F, 0x00, 0x00,
    0x93, 0x41, 0x5F, 0x00, 0x3D, 0x3C, 0x83, 0x60, 0x83, 0x41, 0x00, 0x00, 0x3D, 0x00, 0x00, 0x93,
    0x3F, 0x5F, 0x00, 0x3A, 0x3C, 0x83, 0x60, 0x83, 0x3F, 0x00, 0x00, 0x3A, 0x00, 0x00, 0x93, 0x41,
    0x5F, 0x00, 0x3D, 0x3C, 0x83, 0x60, 0x83, 0x41, 0x00, 0x00, 0x3D, 0x00, 0x00, 0x93, 0x42, 0x5F,
    0x00, 0x3F, 0x3C, 0x83, 0x60, 0x83, 0x42, 0x00, 0x00, 0x3F, 0x00, 0x00, 0x93, 0x44, 0x5F, 0x00,
    0x41, 0x3C, 0x83, 0x60, 0x83, 0x44, 0x00, 0x00, 0x41, 0x00, 0x00, 0x93, 0x46, 0x5F, 0x00, 0x42,
    0x3C, 0x87, 0x40, 0x83, 0x46, 0x00, 0x00, 0x42, 0x00, 0x00, 0x93, 0x44, 0x5F, 0x00, 0x41, 0x3C,
    0x83, 0x60, 0x83, 0x44, 0x00, 0x00, 0x41, 0x00, 0x00, 0x93, 0x42, 0x5F, 0x00, 0x3F, 0x3C, 0x83,
    0x60, 0x83, 0x42, 0x00, 0x00, 0x3F, 0x00, 0x00, 0x93, 0x41, 0x5F, 0x00, 0x3D, 0x3C, 0x87, 0x40,
    0x83, 0x41, 0x00, 0x00, 0x3D, 0x00, 0x00, 0x93, 0x42, 0x5F, 0x00, 0x3F, 0x3C, 0x87, 0x40, 0x83,
    0x42, 0x00, 0x00, 0x3F, 0x00, 0x00, 0x93, 0x44, 0x5F, 0x00, 0x41, 0x3C, 0x87, 0x40, 0x83, 0x44,
    0x00, 0x00, 0x41, 0x00, 0x00, 0x93, 0x46, 0x5F, 0x00, 0x42, 0x3C, 0x87, 0x40, 0x83, 0x46, 0x00,
    0x00, 0x42, 0x00, 0x00, 0x93, 0x49, 0x5F, 0x00, 0x41, 0x3C, 0x83, 0x60, 0x83, 0x49, 0x00, 0x00,
    0x41, 0x00, 0x00, 0x93, 0x4B, 0x5F, 0x00, 0x42, 0x3C, 0x83, 0x60, 0x83, 0x4B, 0x00, 0x00, 0x42,
    0x00, 0x00, 0x93, 0x46, 0x5F, 0x00, 0x3F, 0x3C, 0x83, 0x60, 0x83, 0x46, 0x00, 0x00, 0x3F, 0x00,
    0x00, 0x93, 0x44, 0x5F, 0x00, 0x3D, 0x3C, 0x83, 0x60, 0x83, 0x44, 0x00, 0x00, 0x3D, 0x00, 0x00,
    0x93, 0x46, 0x5F, 0x00, 0x3F, 0x3C, 0x87, 0x40, 0x83, 0x46, 0x00, 0x00, 0x3F, 0x00, 0x00, 0x93,
    0x44, 0x5F, 0x00, 0x3D, 0x3C, 0x83, 0x60, 0x83, 0x44, 0x00, 0x00, 0x3D, 0x00, 0x00, 0x93, 0x46,
    0x5F, 0x00, 0x3F, 0x3C, 0x83, 0x60, 0x83, 0x46, 0x00, 0x00, 0x3F, 0x00, 0x00, 0x93, 0x49, 0x5F,
    0x00, 0x41, 0x3C, 0x83, 0x60, 0x83, 0x49, 0x00, 0x00, 0x41, 0x00, 0x00, 0x93, 0x4B, 0x5F, 0x00,
    0x42, 0x3C, 0x83, 0x60, 0x83, 0x4B, 0x00, 0x00, 0x42, 0x00, 0x00, 0x93, 0x46, 0x5F, 0x00, 0x3F,
    0x3C, 0x83, 0x60, 0x83, 0x46, 0x00, 0x00, 0x3F, 0x00, 0x00, 0x93, 0x44, 0x5F, 0x00, 0x3D, 0x3C,
    0x83, 0x60, 0x83, 0x44, 0x00, 0x00, 0x3D, 0x00, 0x00, 0x93, 0x46, 0x5F, 0x00, 0x3F, 0x3C, 0x87,
    0x40, 0x83, 0x46, 0x00, 0x00, 0x3F, 0x00, 0x00, 0x93, 0x44, 0x5F, 0x00, 0x3D, 0x3C, 0x83, 0x60,
    0x83, 0x44, 0x00, 0x00, 0x3D, 0x00, 0x00, 0x93, 0x46, 0x5F, 0x00, 0x3F, 0x3C, 0x83, 0x60, 0x83,
    0x46, 0x00, 0x00, 0x3F, 0x00, 0x00, 0x93, 0x44, 0x5F, 0x00, 0x3D, 0x3C, 0x83, 0x60, 0x83, 0x44,
    0x00, 0x00, 0x3D, 0x00, 0x00, 0x93, 0x42, 0x5F, 0x00, 0x3A, 0x3C, 0x83, 0x60, 0x83, 0x42, 0x00,
    0x00, 0x3A, 0x00, 0x00, 0x93, 0x41, 0x5F, 0x00, 0x38, 0x3C, 0x83, 0x60, 0x83, 0x41, 0x00, 0x00,
    0x38, 0x00, 0x00, 0x93, 0x3D, 0x5F, 0x00, 0x35, 0x3C, 0x83, 0x60, 0x83, 0x3D, 0x00, 0x00, 0x35,
    0x00, 0x00, 0x93, 0x3F, 0x5F, 0x00, 0x36, 0x3C, 0x87, 0x40, 0x83, 0x3F, 0x00, 0x00, 0x36, 0x00,
    0x00, 0x93, 0x3D, 0x5F, 0x00, 0x35, 0x3C, 0x83, 0x60, 0x83, 0x3D, 0x00, 0x00, 0x35, 0x00, 0x00,
    0x93, 0x3F, 0x5F, 0x00, 0x36, 0x3C, 0x83, 0x60, 0x83, 0x3F, 0x00, 0x00, 0x36, 0x00, 0x00, 0x93,
    0x41, 0x5F, 0x00, 0x38, 0x3C, 0x83, 0x60, 0x83, 0x41, 0x00, 0x00, 0x38, 0x00, 0x00, 0x93, 0x42,
    0x5F, 0x00, 0x3A, 0x3C, 0x83, 0x60, 0x83, 0x42, 0x00, 0x00, 0x3A, 0x00, 0x00, 0x93, 0x44, 0x5F,
    0x00, 0x3D, 0x3C, 0x83, 0x60, 0x83, 0x44, 0x00, 0x00, 0x3D, 0x00, 0x00, 0x93, 0x46, 0x5F, 0x00,
    0x3F, 0x3C, 0x83, 0x60, 0x83, 0x46, 0x00, 0x00, 0x3F, 0x00, 0x00, 0x93, 0x3F, 0x5F, 0x00, 0x36,
    0x3C, 0x87, 0x40, 0x83, 0x3F, 0x00, 0x00, 0x36, 0x00, 0x00, 0x93, 0x44, 0x5F, 0x00, 0x3F, 0x3C,
    0x83, 0x60, 0x83, 0x44, 0x00, 0x00, 0x3F, 0x00, 0x00, 0x93, 0x46, 0x5F, 0x00, 0x41, 0x3C, 0x83,
    0x60, 0x83, 0x46, 0x00, 0x00, 0x41, 0x00, 0x00, 0x93, 0x49, 0x5F, 0x00, 0x41, 0x3C, 0x83, 0x60,
    0x83, 0x49, 0x00, 0x00, 0x41, 0x00, 0x00, 0x93, 0x4B, 0x5F, 0x00, 0x42, 0x3C, 0x83, 0x60, 0x83,
    0x4B, 0x00, 0x00, 0x42, 0x00, 0x00, 0x93, 0x46, 0x5F, 0x00, 0x3F, 0x3C, 0x83, 0x60, 0x83, 0x46,
    0x00, 0x00, 0x3F, 0x00, 0x00, 0x93, 0x44, 0x5F, 0x00, 0x3D, 0x3C, 0x83, 0x60, 0x83, 0x44, 0x00,
    0x00, 0x3D, 0x00, 0x00, 0x93, 0x46, 0x5F, 0x00, 0x3F, 0x3C, 0x87, 0x40, 0x83, 0x46, 0x00, 0x00,
    0x3F, 0x00, 0x00, 0x93, 0x44, 0x5F, 0x00, 0x3D, 0x3C, 0x83, 0x60, 0x83, 0x44, 0x00, 0x00, 0x3D,
    0x00, 0x00, 0x93, 0x46, 0x5F, 0x00, 0x3F, 0x3C, 0x83, 0x60, 0x83, 0x46, 0x00, 0x00, 0x3F, 0x00,
    0x00, 0x93, 0x49, 0x5F, 0x00, 0x41, 0x3C, 0x83, 0x60, 0x83, 0x49, 0x00, 0x00, 0x41, 0x00, 0x00,
    0x93, 0x4B, 0x5F, 0x00, 0x42, 0x3C, 0x83, 0x60, 0x83, 0x4B, 0x00, 0x00, 0x42, 0x00, 0x00, 0x93,
    0x46, 0x5F, 0x00, 0x3F, 0x3C, 0x83, 0x60, 0x83, 0x46, 0x00, 0x00, 0x3F, 0x00, 0x00, 0x93, 0x44,
    0x5F, 0x00, 0x3D, 0x3C, 0x83, 0x60, 0x83, 0x44, 0x00, 0x00, 0x3D, 0x00, 0x00, 0x93, 0x46, 0x5F,
    0x00, 0x3F, 0x3C, 0x87, 0x40, 0x83, 0x46, 0x00, 0x00, 0x3F, 0x00, 0x00, 0x93, 0x44, 0x5F, 0x00,
    0x3D, 0x3C, 0x83, 0x60, 0x83, 0x44, 0x00, 0x00, 0x3D, 0x00, 0x00, 0x93, 0x46, 0x5F, 0x00, 0x3F,
    0x3C, 0x83, 0x60, 0x83, 0x46, 0x00, 0x00, 0x3F, 0x00, 0x00, 0x93, 0x44, 0x5F, 0x00, 0x3D, 0x3C,
    0x83, 0x60, 0x83, 0x44, 0x00, 0x00, 0x3D, 0x00, 0x00, 0x93, 0x42, 0x5F, 0x00, 0x3A, 0x3C, 0x83,
    0x60, 0x83, 0x42, 0x00, 0x00, 0x3A, 0x00, 0x00, 0x93, 0x41, 0x5F, 0x00, 0x38, 0x3C, 0x83, 0x60,
    0x83, 0x41, 0x00, 0x00, 0x38, 0x00, 0x00, 0x93, 0x3D, 0x5F, 0x00, 0x35, 0x3C, 0x83, 0x60, 0x83,
    0x3D, 0x00, 0x00, 0x35, 0x00, 0x00, 0x93, 0x3F, 0x5F, 0x00, 0x36, 0x3C, 0x87, 0x40, 0x83, 0x3F,
    0x00, 0x00, 0x36, 0x00, 0x00, 0x93, 0x3D, 0x5F, 0x00, 0x36, 0x3C, 0x83, 0x60, 0x83, 0x3D, 0x00,
    0x00, 0x36, 0x00, 0x00, 0x93, 0x3F, 0x5F, 0x00, 0x36, 0x3C, 0x83, 0x60, 0x83, 0x3F, 0x00, 0x00,
    0x36, 0x00, 0x00, 0x93, 0x41, 0x5F, 0x00, 0x38, 0x3C, 0x83, 0x60, 0x83, 0x41, 0x00, 0x00, 0x38,
    0x00, 0x00, 0x93, 0x42, 0x5F, 0x00, 0x3A, 0x3C, 0x83, 0x60, 0x83, 0x42, 0x00, 0x00, 0x3A, 0x00,
    0x00, 0x93, 0x44, 0x5F, 0x00, 0x3D, 0x3C, 0x83, 0x60, 0x83, 0x44, 0x00, 0x00, 0x3D, 0x00, 0x00,
    0x93, 0x46, 0x5F, 0x83, 0x60, 0x83, 0x46, 0x00, 0x00, 0x93, 0x3F, 0x5F, 0x00, 0x36, 0x3C, 0x87,
    0x40, 0x83, 0x3F, 0x00, 0x00, 0x36, 0x00, 0x00, 0x93, 0x44, 0x5F, 0x00, 0x3F, 0x3C, 0x83, 0x60,
    0x83, 0x44, 0x00, 0x00, 0x3F, 0x00, 0x00, 0x93, 0x46, 0x5F, 0x00, 0x41, 0x3C, 0x83, 0x60, 0x83,
    0x46, 0x00, 0x00, 0x41, 0x00, 0x00, 0x93, 0x49, 0x5F, 0x00, 0x41, 0x3C, 0x83, 0x60, 0x83, 0x49,
    0x00, 0x00, 0x41, 0x00, 0x00, 0x93, 0x4B, 0x5F, 0x00, 0x42, 0x3C, 0x83, 0x60, 0x83, 0x4B, 0x00,
    0x00, 0x42, 0x00, 0x00, 0x93, 0x46, 0x5F, 0x00, 0x3F, 0x3C, 0x83, 0x60, 0x83, 0x46, 0x00, 0x00,
    0x3F, 0x00, 0x00, 0x93, 0x44, 0x5F, 0x00, 0x3D, 0x3C, 0x83, 0x60, 0x83, 0x44, 0x00, 0x00, 0x3D,
    0x00, 0x00, 0x93, 0x46, 0x5F, 0x00, 0x3F, 0x3C, 0x87, 0x40, 0x83, 0x46, 0x00, 0x00, 0x3F, 0x00,
    0x00, 0x93, 0x44, 0x5F, 0x00, 0x3D, 0x3C, 0x83, 0x60, 0x83, 0x44, 0x00, 0x00, 0x3D, 0x00, 0x00,
    0x93, 0x46, 0x5F, 0x00, 0x3F, 0x3C, 0x83, 0x60, 0x83, 0x46, 0x00, 0x00, 0x3F, 0x00, 0x00, 0x93,
    0x49, 0x5F, 0x00, 0x41, 0x3C, 0x83, 0x60, 0x83, 0x49, 0x00, 0x00, 0x41, 0x00, 0x00, 0x93, 0x4B,
    0x5F, 0x00, 0x42, 0x3C, 0x83, 0x60, 0x83, 0x4B, 0x00, 0x00, 0x42, 0x00, 0x00, 0x93, 0x46, 0x5F,
    0x00, 0x3F, 0x3C, 0x83, 0x60, 0x83, 0x46, 0x00, 0x00, 0x3F, 0x00, 0x00, 0x93, 0x44, 0x5F, 0x00,
    0x3D, 0x3C, 0x83, 0x60, 0x83, 0x44, 0x00, 0x00, 0x3D, 0x00, 0x00, 0x93, 0x46, 0x5F, 0x00, 0x3F,
    0x3C, 0x87, 0x40, 0x83, 0x46, 0x00, 0x00, 0x3F, 0x00, 0x00, 0x93, 0x44, 0x5F, 0x00, 0x3D, 0x3C,
    0x83, 0x60, 0x83, 0x44, 0x00, 0x00, 0x3D, 0x00, 0x00, 0x93, 0x46, 0x5F, 0x00, 0x3F, 0x3C, 0x83,
    0x60, 0x83, 0x46, 0x00, 0x00, 0x3F, 0x00, 0x00, 0x93, 0x44, 0x5F, 0x00, 0x3D, 0x3C, 0x83, 0x60,
    0x83, 0x44, 0x00, 0x00, 0x3D, 0x00, 0x00, 0x93, 0x42, 0x5F, 0x00, 0x3A, 0x3C, 0x83, 0x60, 0x83,
    0x42, 0x00, 0x00, 0x3A, 0x00, 0x00, 0x93, 0x41, 0x5F, 0x00, 0x38, 0x3C, 0x83, 0x60, 0x83, 0x41,
    0x00, 0x00, 0x38, 0x00, 0x00, 0x93, 0x3D, 0x5F, 0x00, 0x35, 0x3C, 0x83, 0x60, 0x83, 0x3D, 0x00,
    0x00, 0x35, 0x00, 0x00, 0x93, 0x3F, 0x5F, 0x00, 0x36, 0x3C, 0x87, 0x40, 0x83, 0x3F, 0x00, 0x00,
    0x36, 0x00, 0x00, 0x93, 0x3D, 0x5F, 0x00, 0x35, 0x3C, 0x83, 0x60, 0x83, 0x3D, 0x00, 0x00, 0x35,
    0x00, 0x00, 0x93, 0x3F, 0x5F, 0x00, 0x36, 0x3C, 0x83, 0x60, 0x83, 0x3F, 0x00, 0x00, 0x36, 0x00,
    0x00, 0x93, 0x41, 0x5F, 0x00, 0x38, 0x3C, 0x83, 0x60, 0x83, 0x41, 0x00, 0x00, 0x38, 0x00, 0x00,
    0x93, 0x42, 0x5F, 0x00, 0x3A, 0x3C, 0x83, 0x60, 0x83, 0x42, 0x00, 0x00, 0x3A, 0x00, 0x00, 0x93,
    0x44, 0x5F, 0x00, 0x3D, 0x3C, 0x83, 0x60, 0x83, 0x44, 0x00, 0x00, 0x3D, 0x00, 0x00, 0x93, 0x46,
    0x5F, 0x83, 0x60, 0x83, 0x46, 0x00, 0x00, 0x93, 0x3F, 0x5F, 0x00, 0x36, 0x3C, 0x87, 0x40, 0x83,
    0x3F, 0x00, 0x00, 0x36, 0x00, 0x00, 0x93, 0x44, 0x5F, 0x00, 0x3F, 0x3C, 0x83, 0x60, 0x83, 0x44,
    0x00, 0x00, 0x3F, 0x00, 0x00, 0x93, 0x46, 0x5F, 0x00, 0x41, 0x3C, 0x83, 0x60, 0x83, 0x46, 0x00,
    0x00, 0x41, 0x00, 0x00, 0x93, 0x49, 0x5F, 0x00, 0x41, 0x3C, 0x83, 0x60, 0x83, 0x49, 0x00, 0x00,
    0x41, 0x00, 0x00, 0x93, 0x4B, 0x5F, 0x00, 0x42, 0x3C, 0x83, 0x60, 0x83, 0x4B, 0x00, 0x00, 0x42,
    0x00, 0x00, 0x93, 0x46, 0x5F, 0x00, 0x3F, 0x3C, 0x83, 0x60, 0x83, 0x46, 0x00, 0x00, 0x3F, 0x00,
    0x00, 0x93, 0x44, 0x5F, 0x00, 0x3D, 0x3C, 0x83, 0x60, 0x83, 0x44, 0x00, 0x00, 0x3D, 0x00, 0x00,
    0x93, 0x46, 0x5F, 0x00, 0x3F, 0x3C, 0x87, 0x40, 0x83, 0x46, 0x00, 0x00, 0x3F, 0x00, 0x00, 0x93,
    0x44, 0x5F, 0x00, 0x3D, 0x3C, 0x83, 0x60, 0x83, 0x44, 0x00, 0x00, 0x3D, 0x00, 0x00, 0x93, 0x46,
    0x5F, 0x00, 0x3F, 0x3C, 0x83, 0x60, 0x83, 0x46, 0x00, 0x00, 0x3F, 0x00, 0x00, 0x93, 0x49, 0x5F,
    0x00, 0x41, 0x3C, 0x83, 0x60, 0x83, 0x49, 0x00, 0x00, 0x41, 0x00, 0x00, 0x93, 0x4B, 0x5F, 0x00,
    0x42, 0x3C, 0x83, 0x60, 0x83, 0x4B, 0x00, 0x00, 0x42, 0x00, 0x00, 0x93, 0x46, 0x5F, 0x00, 0x3F,
    0x3C, 0x83, 0x60, 0x83, 0x46, 0x00, 0x00, 0x3F, 0x00, 0x00, 0x93, 0x44, 0x5F, 0x00, 0x3D, 0x3C,
    0x83, 0x60, 0x83, 0x44, 0x00, 0x00, 0x3D, 0x00, 0x00, 0x93, 0x46, 0x5F, 0x00, 0x3F, 0x3C, 0x87,
    0x40, 0x83, 0x46, 0x00, 0x00, 0x3F, 0x00, 0x00, 0x93, 0x4B, 0x5F, 0x00, 0x44, 0x3C, 0x83, 0x60,
    0x83, 0x4B, 0x00, 0x00, 0x44, 0x00, 0x00, 0x93, 0x4D, 0x5F, 0x00, 0x46, 0x3C, 0x83, 0x60, 0x83,
    0x4D, 0x00, 0x00, 0x46, 0x00, 0x00, 0x93, 0x4E, 0x5F, 0x00, 0x46, 0x3C, 0x83, 0x60, 0x83, 0x4E,
    0x00, 0x00, 0x46, 0x00, 0x00, 0x93, 0x4D, 0x5F, 0x00, 0x44, 0x3C, 0x83, 0x60, 0x83, 0x4D, 0x00,
    0x00, 0x44, 0x00, 0x00, 0x93, 0x4B, 0x5F, 0x00, 0x42, 0x3C, 0x83, 0x60, 0x83, 0x4B, 0x00, 0x00,
    0x42, 0x00, 0x00, 0x93, 0x49, 0x5F, 0x00, 0x3F, 0x3C, 0x83, 0x60, 0x83, 0x49, 0x00, 0x00, 0x3F,
    0x00, 0x00, 0x93, 0x46, 0x5F, 0x00, 0x3F, 0x3C, 0x87, 0x40, 0x83, 0x46, 0x00, 0x00, 0x3F, 0x00,
    0x00, 0x93, 0x44, 0x5F, 0x00, 0x3D, 0x3C, 0x83, 0x60, 0x83, 0x44, 0x00, 0x00, 0x3D, 0x00, 0x00,
    0x93, 0x46, 0x5F, 0x00, 0x3F, 0x3C, 0x83, 0x60, 0x83, 0x46, 0x00, 0x00, 0x3F, 0x00, 0x00, 0x93,
    0x44, 0x5F, 0x00, 0x3A, 0x3C, 0x83, 0x60, 0x83, 0x44, 0x00, 0x00, 0x3A, 0x00, 0x00, 0x93, 0x42,
    0x5F, 0x00, 0x38, 0x3C, 0x83, 0x60, 0x83, 0x42, 0x00, 0x00, 0x38, 0x00, 0x00, 0x93, 0x41, 0x5F,
    0x00, 0x38, 0x3C, 0x83, 0x60, 0x83, 0x41, 0x00, 0x00, 0x38, 0x00, 0x00, 0x93, 0x3D, 0x5F, 0x00,
    0x35, 0x3C, 0x83, 0x60, 0x83, 0x3D, 0x00, 0x00, 0x35, 0x00, 0x00, 0x93, 0x3F, 0x5F, 0x00, 0x36,
    0x3C, 0x83, 0x60, 0x83, 0x3F, 0x00, 0x00, 0x36, 0x00, 0x83, 0x60, 0x93, 0x40, 0x32, 0x00, 0x47,
    0x5F, 0x83, 0x60, 0x83, 0x40, 0x00, 0x00, 0x47, 0x00, 0x00, 0x93, 0x4A, 0x5F, 0x00, 0x43, 0x32,
    0x83, 0x60, 0x83, 0x43, 0x00, 0x00, 0x4A, 0x00, 0x00, 0xFF, 0x2F, 0x00, 0x4D, 0x54, 0x72, 0x6B,
    0x00, 0x00, 0x10, 0x61, 0x00, 0xB4, 0x00, 0x00, 0x00, 0x20, 0x00, 0x00, 0xC4, 0x1E, 0x00, 0xFF,
    0x03, 0x08, 0x55, 0x6E, 0x74, 0x69, 0x74, 0x6C, 0x65, 0x64, 0x00, 0xB4, 0x07, 0x7F, 0x00, 0x00,
    0x00, 0x00, 0x20, 0x00, 0x00, 0x07, 0x7F, 0x00, 0x07, 0x64, 0x00, 0xE4, 0x00, 0x40, 0x00, 0xB4,
    0x0A, 0x40, 0x00, 0x5D, 0x00, 0x00, 0x5B, 0x00, 0x00, 0x5F, 0x00, 0x00, 0x5C, 0x00, 0x00, 0x0B,
    0x7F, 0x00, 0x0A, 0x40, 0x00, 0x5D, 0x00, 0x00, 0x5B, 0x00, 0x00, 0x5F, 0x00, 0x00, 0x5C, 0x00,
    0x00, 0x0B, 0x7F, 0x00, 0xC4, 0x1E, 0x83, 0xE0, 0x00, 0x94, 0x27, 0x3C, 0xBC, 0x00, 0x84, 0x27,
    0x00, 0x00, 0x94, 0x23, 0x3C, 0x9E, 0x00, 0x84, 0x23, 0x00, 0x00, 0x94, 0x25, 0x3C, 0x8F, 0x00,
    0x84, 0x25, 0x00, 0x00, 0x94, 0x26, 0x3C, 0x8F, 0x00, 0x84, 0x26, 0x00, 0x00, 0x94, 0x27, 0x3C,
    0xBC, 0x00, 0x84, 0x27, 0x00, 0x00, 0x94, 0x23, 0x3C, 0x9E, 0x00, 0x84, 0x23, 0x00, 0x00, 0x94,
    0x25, 0x3C, 0x8F, 0x00, 0x84, 0x25, 0x00, 0x00, 0x94, 0x26, 0x3C, 0x8F, 0x00, 0x84, 0x26, 0x00,
    0x00, 0x94, 0x3F, 0x3C, 0x00, 0x3A, 0x3C, 0x00, 0x33, 0x50, 0x00, 0x2E, 0x50, 0x00, 0x27, 0x50,
    0xBC, 0x00, 0x84, 0x3A, 0x00, 0x00, 0x33, 0x00, 0x00, 0x2E, 0x00, 0x00, 0x27, 0x00, 0x00, 0x3F,
    0x00, 0x00, 0x94, 0x3B, 0x3C, 0x00, 0x36, 0x3C, 0x00, 0x2F, 0x50, 0x00, 0x23, 0x50, 0x00, 0x2A,
    0x50, 0x9E, 0x00, 0x84, 0x36, 0x00, 0x00, 0x2F, 0x00, 0x00, 0x23, 0x00, 0x00, 0x2A, 0x00, 0x00,
    0x3B, 0x00, 0x00, 0x94, 0x38, 0x3C, 0x00, 0x3D, 0x3C, 0x00, 0x2C, 0x50, 0x00, 0x25, 0x50, 0x00,
    0x31, 0x50, 0x8F, 0x00, 0x84, 0x3D, 0x00, 0x00, 0x2C, 0x00, 0x00, 0x25, 0x00, 0x00, 0x31, 0x00,
    0x00, 0x38, 0x00, 0x00, 0x94, 0x3A, 0x3C, 0x00, 0x3E, 0x3C, 0x00, 0x2E, 0x50, 0x00, 0x26, 0x50,
    0x00, 0x32, 0x50, 0x8F, 0x00, 0x84, 0x3E, 0x00, 0x00, 0x2E, 0x00, 0x00, 0x26, 0x00, 0x00, 0x32,
    0x00, 0x00, 0x3A, 0x00, 0x00, 0x94, 0x3F, 0x3C, 0x00, 0x3A, 0x3C, 0x00, 0x33, 0x50, 0x00, 0x2E,
    0x50, 0x00, 0x27, 0x50, 0xBC, 0x00, 0x84, 0x3A, 0x00, 0x00, 0x33, 0x00, 0x00, 0x2E, 0x00, 0x00,
    0x27, 0x00, 0x00, 0x3F, 0x00, 0x00, 0x94, 0x3B, 0x3C, 0x00, 0x36, 0x3C, 0x00, 0x2F, 0x50, 0x00,
    0x23, 0x50, 0x00, 0x2A, 0x50, 0x9E, 0x00, 0x84, 0x36, 0x00, 0x00, 0x2F, 0x00, 0x00, 0x23, 0x00,
    0x00, 0x2A, 0x00, 0x00, 0x3B, 0x00, 0x00, 0x94, 0x38, 0x3C, 0x00, 0x3D, 0x3C, 0x00, 0x2C, 0x50,
    0x00, 0x25, 0x50, 0x00, 0x31, 0x50, 0x8F, 0x00, 0x84, 0x3D, 0x00, 0x00, 0x2C, 0x00, 0x00, 0x25,
    0x00, 0x00, 0x31, 0x00, 0x00, 0x38, 0x00, 0x00, 0x94, 0x3A, 0x3C, 0x00, 0x3E, 0x3C, 0x00, 0x2E,
    0x50, 0x00, 0x26, 0x50, 0x00, 0x32, 0x50, 0x8F, 0x00, 0x84, 0x3E, 0x00, 0x00, 0x2E, 0x00, 0x00,
    0x26, 0x00, 0x00, 0x32, 0x00, 0x00, 0x3A, 0x00, 0x00, 0x94, 0x2A, 0x50, 0x00, 0x23, 0x50, 0x00,
    0x3B, 0x3C, 0x00, 0x36, 0x3C, 0x00, 0x2F, 0x50, 0x9E, 0x00, 0x84, 0x23, 0x00, 0x00, 0x3B, 0x00,
    0x00, 0x36, 0x00, 0x00, 0x2F, 0x00, 0x00, 0x2A, 0x00, 0x00, 0x94, 0x2C, 0x50, 0x00, 0x25, 0x50,
    0x00, 0x3D, 0x3C, 0x00, 0x38, 0x3C, 0x00, 0x31, 0x50, 0x9E, 0x00, 0x84, 0x25, 0x00, 0x00, 0x3D,
    0x00, 0x00, 0x38, 0x00, 0x00, 0x31, 0x00, 0x00, 0x2C, 0x00, 0x00, 0x94, 0x33, 0x50, 0x00, 0x27,
    0x50, 0x00, 0x3A, 0x3C, 0x00, 0x3F, 0x3C, 0x00, 0x2E, 0x50, 0xBC, 0x00, 0x84, 0x27, 0x00, 0x00,
    0x3A, 0x00, 0x00, 0x3F, 0x00, 0x00, 0x2E, 0x00, 0x00, 0x33, 0x00, 0x00, 0x94, 0x2A, 0x50, 0x00,
    0x23, 0x50, 0x00, 0x3B, 0x3C, 0x00, 0x36, 0x3C, 0x00, 0x2F, 0x50, 0x9E, 0x00, 0x84, 0x23, 0x00,
    0x00, 0x3B, 0x00, 0x00, 0x36, 0x00, 0x00, 0x2F, 0x00, 0x00, 0x2A, 0x00, 0x00, 0x94, 0x2C, 0x50,
    0x00, 0x25, 0x50, 0x00, 0x3D, 0x3C, 0x00, 0x38, 0x3C, 0x00, 0x31, 0x50, 0x9E, 0x00, 0x84, 0x25,
    0x00, 0x00, 0x3D, 0x00, 0x00, 0x38, 0x00, 0x00, 0x31, 0x00, 0x00, 0x2C, 0x00, 0x00, 0x94, 0x33,
    0x50, 0x00, 0x27, 0x50, 0x00, 0x3A, 0x3C, 0x00, 0x3F, 0x3C, 0x00, 0x2E, 0x50, 0xBC, 0x00, 0x84,
    0x27, 0x00, 0x00, 0x3A, 0x00, 0x00, 0x3F, 0x00, 0x00, 0x2E, 0x00, 0x00, 0x33, 0x00, 0x00, 0x94,
    0x2A, 0x50, 0x00, 0x23, 0x50, 0x00, 0x3B, 0x3C, 0x00, 0x36, 0x3C, 0x00, 0x2F, 0x50, 0x9E, 0x00,
    0x84, 0x23, 0x00, 0x00, 0x3B, 0x00, 0x00, 0x36, 0x00, 0x00, 0x2F, 0x00, 0x00, 0x2A, 0x00, 0x00,
    0x94, 0x2C, 0x50, 0x00, 0x25, 0x50, 0x00, 0x3D, 0x3C, 0x00, 0x38, 0x3C, 0x00, 0x31, 0x50, 0x9E,
    0x00, 0x84, 0x25, 0x00, 0x00, 0x3D, 0x00, 0x00, 0x38, 0x00, 0x00, 0x31, 0x00, 0x00, 0x2C, 0x00,
    0x00, 0x94, 0x33, 0x50, 0x00, 0x27, 0x50, 0x00, 0x3A, 0x3C, 0x00, 0x3F, 0x3C, 0x00, 0x2E, 0x50,
    0xBC, 0x00, 0x84, 0x27, 0x00, 0x00, 0x3A, 0x00, 0x00, 0x3F, 0x00, 0x00, 0x2E, 0x00, 0x00, 0x33,
    0x00, 0x00, 0x94, 0x2A, 0x50, 0x00, 0x23, 0x50, 0x00, 0x3B, 0x3C, 0x00, 0x36, 0x3C, 0x00, 0x2F,
    0x50, 0x9E, 0x00, 0x84, 0x23, 0x00, 0x00, 0x3B, 0x00, 0x00, 0x36, 0x00, 0x00, 0x2F, 0x00, 0x00,
    0x2A, 0x00, 0x00, 0x94, 0x2C, 0x50, 0x00, 0x25, 0x50, 0x00, 0x3D, 0x3C, 0x00, 0x38, 0x3C, 0x00,
    0x31, 0x50, 0x9E, 0x00, 0x84, 0x25, 0x00, 0x00, 0x3D, 0x00, 0x00, 0x38, 0x00, 0x00, 0x31, 0x00,
    0x00, 0x2C, 0x00, 0x00, 0x94, 0x33, 0x50, 0x00, 0x27, 0x50, 0x00, 0x3A, 0x3C, 0x00, 0x3F, 0x3C,
    0x00, 0x2E, 0x50, 0xBC, 0x00, 0x84, 0x27, 0x00, 0x00, 0x3A, 0x00, 0x00, 0x3F, 0x00, 0x00, 0x2E,
    0x00, 0x00, 0x33, 0x00, 0x00, 0x94, 0x2F, 0x50, 0x00, 0x2A, 0x50, 0x00, 0x23, 0x50, 0x00, 0x3B,
    0x3C, 0x00, 0x36, 0x3C, 0x9E, 0x00, 0x84, 0x2A, 0x00, 0x00, 0x23, 0x00, 0x00, 0x3B, 0x00, 0x00,
    0x36, 0x00, 0x00, 0x2F, 0x00, 0x00, 0x94, 0x31, 0x50, 0x00, 0x2C, 0x50, 0x00, 0x25, 0x50, 0x00,
    0x3D, 0x3C, 0x00, 0x38, 0x3C, 0x9E, 0x00, 0x84, 0x2C, 0x00, 0x00, 0x25, 0x00, 0x00, 0x3D, 0x00,
    0x00, 0x38, 0x00, 0x00, 0x31, 0x00, 0x00, 0x94, 0x2E, 0x50, 0x00, 0x33, 0x50, 0x00, 0x27, 0x50,
    0x00, 0x3A, 0x3C, 0x00, 0x3F, 0x3C, 0xBC, 0x00, 0x84, 0x33, 0x00, 0x00, 0x27, 0x00, 0x00, 0x3A,
    0x00, 0x00, 0x3F, 0x00, 0x00, 0x2E, 0x00, 0x00, 0x94, 0x2F, 0x50, 0x00, 0x2A, 0x50, 0x00, 0x23,
    0x50, 0x00, 0x3B, 0x3C, 0x00, 0x36, 0x3C, 0x9E, 0x00, 0x84, 0x2A, 0x00, 0x00, 0x23, 0x00, 0x00,
    0x3B, 0x00, 0x00, 0x36, 0x00, 0x00, 0x2F, 0x00, 0x00, 0x94, 0x31, 0x50, 0x00, 0x2C, 0x50, 0x00,
    0x25, 0x50, 0x00, 0x3D, 0x3C, 0x00, 0x38, 0x3C, 0x9E, 0x00, 0x84, 0x2C, 0x00, 0x00, 0x25, 0x00,
    0x00, 0x3D, 0x00, 0x00, 0x38, 0x00, 0x00, 0x31, 0x00, 0x00, 0x94, 0x2E, 0x50, 0x00, 0x33, 0x50,
    0x00, 0x27, 0x50, 0x00, 0x3A, 0x3C, 0x00, 0x3F, 0x3C, 0xBC, 0x00, 0x84, 0x33, 0x00, 0x00, 0x27,
    0x00, 0x00, 0x3A, 0x00, 0x00, 0x3F, 0x00, 0x00, 0x2E, 0x00, 0x00, 0x94, 0x2F, 0x50, 0x00, 0x2A,
    0x50, 0x00, 0x23, 0x50, 0x00, 0x3B, 0x3C, 0x00, 0x36, 0x3C, 0x9E, 0x00, 0x84, 0x2A, 0x00, 0x00,
    0x23, 0x00, 0x00, 0x3B, 0x00, 0x00, 0x36, 0x00, 0x00, 0x2F, 0x00, 0x00, 0x94, 0x31, 0x50, 0x00,
    0x2C, 0x50, 0x00, 0x25, 0x50, 0x00, 0x3D, 0x3C, 0x00, 0x38, 0x3C, 0x9E, 0x00, 0x84, 0x2C, 0x00,
    0x00, 0x25, 0x00, 0x00, 0x3D, 0x00, 0x00, 0x38, 0x00, 0x00, 0x31, 0x00, 0x00, 0x94, 0x2E, 0x50,
    0x00, 0x33, 0x50, 0x00, 0x27, 0x50, 0x00, 0x3A, 0x3C, 0x00, 0x3F, 0x3C, 0xBC, 0x00, 0x84, 0x33,
    0x00, 0x00, 0x27, 0x00, 0x00, 0x3A, 0x00, 0x00, 0x3F, 0x00, 0x00, 0x2E, 0x00, 0x00, 0x94, 0x2F,
    0x50, 0x00, 0x2A, 0x50, 0x00, 0x36, 0x3C, 0x00, 0x23, 0x50, 0x9E, 0x00, 0x84, 0x2A, 0x00, 0x00,
    0x36, 0x00, 0x00, 0x23, 0x00, 0x00, 0x2F, 0x00, 0x00, 0x94, 0x31, 0x50, 0x00, 0x2C, 0x50, 0x00,
    0x38, 0x3C, 0x00, 0x25, 0x50, 0x9E, 0x00, 0x84, 0x2C, 0x00, 0x00, 0x38, 0x00, 0x00, 0x25, 0x00,
    0x00, 0x31, 0x00, 0x00, 0x94, 0x2E, 0x50, 0x00, 0x33, 0x50, 0x00, 0x3A, 0x3C, 0x00, 0x27, 0x50,
    0x9E, 0x00, 0x84, 0x33, 0x00, 0x00, 0x3A, 0x00, 0x00, 0x27, 0x00, 0x00, 0x2E, 0x00, 0x8F, 0x00,
    0x94, 0x38, 0x50, 0x00, 0x33, 0x50, 0x00, 0x2C, 0x50, 0x87, 0x40, 0x84, 0x33, 0x00, 0x00, 0x2C,
    0x00, 0x00, 0x38, 0x00, 0x00, 0x94, 0x36, 0x50, 0x00, 0x31, 0x50, 0x00, 0x2A, 0x50, 0x87, 0x40,
    0x84, 0x31, 0x00, 0x00, 0x2A, 0x00, 0x00, 0x36, 0x00, 0x00, 0x94, 0x2E, 0x50, 0x00, 0x33, 0x50,
    0x00, 0x27, 0x50, 0x83, 0x60, 0x84, 0x33, 0x00, 0x00, 0x27, 0x00, 0x00, 0x2E, 0x00, 0x00, 0x94,
    0x2E, 0x50, 0x00, 0x33, 0x50, 0x00, 0x27, 0x50, 0x81, 0x70, 0x84, 0x33, 0x00, 0x00, 0x27, 0x00,
    0x00, 0x2E, 0x00, 0x00, 0x94, 0x3A, 0x50, 0x00, 0x3F, 0x50, 0x00, 0x33, 0x50, 0x81, 0x70, 0x84,
    0x3F, 0x00, 0x00, 0x33, 0x00, 0x00, 0x3A, 0x00, 0x81, 0x70, 0x94, 0x3A, 0x50, 0x00, 0x3F, 0x50,
    0x00, 0x33, 0x50, 0x81, 0x70, 0x84, 0x3F, 0x00, 0x00, 0x33, 0x00, 0x00, 0x3A, 0x00, 0x00, 0x94,
    0x38, 0x50, 0x00, 0x3D, 0x50, 0x00, 0x31, 0x50, 0x81, 0x70, 0x84, 0x3D, 0x00, 0x00, 0x31, 0x00,
    0x00, 0x38, 0x00, 0x00, 0x94, 0x3A, 0x50, 0x00, 0x3F, 0x50, 0x00, 0x33, 0x50, 0x81, 0x70, 0x84,
    0x3F, 0x00, 0x00, 0x33, 0x00, 0x00, 0x3A, 0x00, 0x00, 0x94, 0x2E, 0x50, 0x00, 0x33, 0x50, 0x00,
    0x27, 0x50, 0x83, 0x60, 0x84, 0x33, 0x00, 0x00, 0x27, 0x00, 0x00, 0x2E, 0x00, 0x00, 0x94, 0x2E,
    0x50, 0x00, 0x33, 0x50, 0x00, 0x27, 0x50, 0x81, 0x70, 0x84, 0x33, 0x00, 0x00, 0x27, 0x00, 0x00,
    0x2E, 0x00, 0x00, 0x94, 0x3A, 0x50, 0x00, 0x3F, 0x50, 0x00, 0x33, 0x50, 0x81, 0x70, 0x84, 0x3F,
    0x00, 0x00, 0x33, 0x00, 0x00, 0x3A, 0x00, 0x81, 0x70, 0x94, 0x3A, 0x50, 0x00, 0x3F, 0x50, 0x00,
    0x33, 0x50, 0x81, 0x70, 0x84, 0x3F, 0x00, 0x00, 0x33, 0x00, 0x00, 0x3A, 0x00, 0x00, 0x94, 0x38,
    0x50, 0x00, 0x3D, 0x50, 0x00, 0x31, 0x50, 0x81, 0x70, 0x84, 0x3D, 0x00, 0x00, 0x31, 0x00, 0x00,
    0x38, 0x00, 0x00, 0x94, 0x3A, 0x50, 0x00, 0x3F, 0x50, 0x00, 0x33, 0x50, 0x81, 0x70, 0x84, 0x3F,
    0x00, 0x00, 0x33, 0x00, 0x00, 0x3A, 0x00, 0x00, 0x94, 0x2E, 0x50, 0x00, 0x33, 0x50, 0x00, 0x27,
    0x50, 0x83, 0x60, 0x84, 0x33, 0x00, 0x00, 0x27, 0x00, 0x00, 0x2E, 0x00, 0x00, 0x94, 0x2E, 0x50,
    0x00, 0x33, 0x50, 0x00, 0x27, 0x50, 0x81, 0x70, 0x84, 0x33, 0x00, 0x00, 0x27, 0x00, 0x00, 0x2E,
    0x00, 0x00, 0x94, 0x3A, 0x50, 0x00, 0x3F, 0x50, 0x00, 0x33, 0x50, 0x81, 0x70, 0x84, 0x3F, 0x00,
    0x00, 0x33, 0x00, 0x00, 0x3A, 0x00, 0x81, 0x70, 0x94, 0x3A, 0x50, 0x00, 0x3F, 0x50, 0x00, 0x33,
    0x50, 0x81, 0x70, 0x84, 0x3F, 0x00, 0x00, 0x33, 0x00, 0x00, 0x3A, 0x00, 0x00, 0x94, 0x38, 0x50,
    0x00, 0x3D, 0x50, 0x00, 0x31, 0x50, 0x81, 0x70, 0x84, 0x3D, 0x00, 0x00, 0x31, 0x00, 0x00, 0x38,
    0x00, 0x00, 0x94, 0x3A, 0x50, 0x00, 0x3F, 0x50, 0x00, 0x33, 0x50, 0x81, 0x70, 0x84, 0x3F, 0x00,
    0x00, 0x33, 0x00, 0x00, 0x3A, 0x00, 0x00, 0x94, 0x2E, 0x50, 0x00, 0x33, 0x50, 0x00, 0x27, 0x50,
    0x83, 0x60, 0x84, 0x33, 0x00, 0x00, 0x27, 0x00, 0x00, 0x2E, 0x00, 0x00, 0x94, 0x3A, 0x50, 0x00,
    0x3F, 0x50, 0x00, 0x33, 0x50, 0x81, 0x70, 0x84, 0x3F, 0x00, 0x00, 0x33, 0x00, 0x00, 0x3A, 0x00,
    0x00, 0x94, 0x3D, 0x50, 0x00, 0x42, 0x50, 0x00, 0x36, 0x50, 0x81, 0x70, 0x84, 0x42, 0x00, 0x00,
    0x36, 0x00, 0x00, 0x3D, 0x00, 0x00, 0x94, 0x33, 0x50, 0x00, 0x38, 0x50, 0x00, 0x2C, 0x50, 0x83,
    0x60, 0x84, 0x38, 0x00, 0x00, 0x2C, 0x00, 0x00, 0x33, 0x00, 0x00, 0x94, 0x3D, 0x50, 0x00, 0x42,
    0x50, 0x00, 0x36, 0x50, 0x81, 0x70, 0x84, 0x42, 0x00, 0x00, 0x36, 0x00, 0x00, 0x3D, 0x00, 0x00,
    0x94, 0x3F, 0x50, 0x00, 0x44, 0x50, 0x00, 0x38, 0x50, 0x81, 0x70, 0x84, 0x44, 0x00, 0x00, 0x38,
    0x00, 0x00, 0x3F, 0x00, 0x00, 0x94, 0x2E, 0x50, 0x00, 0x33, 0x50, 0x00, 0x27, 0x50, 0x83, 0x60,
    0x84, 0x33, 0x00, 0x00, 0x27, 0x00, 0x00, 0x2E, 0x00, 0x00, 0x94, 0x2E, 0x50, 0x00, 0x33, 0x50,
    0x00, 0x27, 0x50, 0x81, 0x70, 0x84, 0x33, 0x00, 0x00, 0x27, 0x00, 0x00, 0x2E, 0x00, 0x00, 0x94,
    0x3A, 0x50, 0x00, 0x3F, 0x50, 0x00, 0x33, 0x50, 0x81, 0x70, 0x84, 0x3F, 0x00, 0x00, 0x33, 0x00,
    0x00, 0x3A, 0x00, 0x81, 0x70, 0x94, 0x3A, 0x50, 0x00, 0x3F, 0x50, 0x00, 0x33, 0x50, 0x81, 0x70,
    0x84, 0x3F, 0x00, 0x00, 0x33, 0x00, 0x00, 0x3A, 0x00, 0x00, 0x94, 0x38, 0x50, 0x00, 0x3D, 0x50,
    0x00, 0x31, 0x50, 0x81, 0x70, 0x84, 0x3D, 0x00, 0x00, 0x31, 0x00, 0x00, 0x38, 0x00, 0x00, 0x94,
    0x3A, 0x50, 0x00, 0x3F, 0x50, 0x00, 0x33, 0x50, 0x81, 0x70, 0x84, 0x3F, 0x00, 0x00, 0x33, 0x00,
    0x00, 0x3A, 0x00, 0x00, 0x94, 0x2E, 0x50, 0x00, 0x33, 0x50, 0x00, 0x27, 0x50, 0x83, 0x60, 0x84,
    0x33, 0x00, 0x00, 0x27, 0x00, 0x00, 0x2E, 0x00, 0x00, 0x94, 0x2E, 0x50, 0x00, 0x33, 0x50, 0x00,
    0x27, 0x50, 0x81, 0x70, 0x84, 0x33, 0x00, 0x00, 0x27, 0x00, 0x00, 0x2E, 0x00, 0x00, 0x94, 0x3A,
    0x50, 0x00, 0x3F, 0x50, 0x00, 0x33, 0x50, 0x81, 0x70, 0x84, 0x3F, 0x00, 0x00, 0x33, 0x00, 0x00,
    0x3A, 0x00, 0x81, 0x70, 0x94, 0x3A, 0x50, 0x00, 0x3F, 0x50, 0x00, 0x33, 0x50, 0x81, 0x70, 0x84,
    0x3F, 0x00, 0x00, 0x33, 0x00, 0x00, 0x3A, 0x00, 0x00, 0x94, 0x38, 0x50, 0x00, 0x3D, 0x50, 0x00,
    0x31, 0x50, 0x81, 0x70, 0x84, 0x3D, 0x00, 0x00, 0x31, 0x00, 0x00, 0x38, 0x00, 0x00, 0x94, 0x3A,
    0x50, 0x00, 0x3F, 0x50, 0x00, 0x33, 0x50, 0x81, 0x70, 0x84, 0x3F, 0x00, 0x00, 0x33, 0x00, 0x00,
    0x3A, 0x00, 0x00, 0x94, 0x2E, 0x50, 0x00, 0x33, 0x50, 0x00, 0x27, 0x50, 0x83, 0x60, 0x84, 0x33,
    0x00, 0x00, 0x27, 0x00, 0x00, 0x2E, 0x00, 0x00, 0x94, 0x2E, 0x50, 0x00, 0x33, 0x50, 0x00, 0x27,
    0x50, 0x81, 0x70, 0x84, 0x33, 0x00, 0x00, 0x27, 0x00, 0x00, 0x2E, 0x00, 0x00, 0x94, 0x3A, 0x50,
    0x00, 0x3F, 0x50, 0x00, 0x33, 0x50, 0x81, 0x70, 0x84, 0x3F, 0x00, 0x00, 0x33, 0x00, 0x00, 0x3A,
    0x00, 0x81, 0x70, 0x94, 0x3A, 0x50, 0x00, 0x3F, 0x50, 0x00, 0x33, 0x50, 0x81, 0x70, 0x84, 0x3F,
    0x00, 0x00, 0x33, 0x00, 0x00, 0x3A, 0x00, 0x00, 0x94, 0x38, 0x50, 0x00, 0x3D, 0x50, 0x00, 0x31,
    0x50, 0x81, 0x70, 0x84, 0x3D, 0x00, 0x00, 0x31, 0x00, 0x00, 0x38, 0x00, 0x00, 0x94, 0x3A, 0x50,
    0x00, 0x3F, 0x50, 0x00, 0x33, 0x50, 0x81, 0x70, 0x84, 0x3F, 0x00, 0x00, 0x33, 0x00, 0x00, 0x3A,
    0x00, 0x00, 0x94, 0x33, 0x50, 0x00, 0x38, 0x50, 0x00, 0x2C, 0x50, 0x83, 0x60, 0x84, 0x38, 0x00,
    0x00, 0x2C, 0x00, 0x00, 0x33, 0x00, 0x00, 0x94, 0x3D, 0x50, 0x00, 0x42, 0x50, 0x00, 0x36, 0x50,
    0x81, 0x70, 0x84, 0x42, 0x00, 0x00, 0x36, 0x00, 0x00, 0x3D, 0x00, 0x00, 0x94, 0x3F, 0x50, 0x00,
    0x44, 0x50, 0x00, 0x38, 0x50, 0x81, 0x70, 0x84, 0x44, 0x00, 0x00, 0x38, 0x00, 0x00, 0x3F, 0x00,
    0x00, 0x94, 0x31, 0x50, 0x00, 0x36, 0x50, 0x00, 0x2A, 0x50, 0x83, 0x60, 0x84, 0x36, 0x00, 0x00,
    0x2A, 0x00, 0x00, 0x31, 0x00, 0x00, 0x94, 0x3A, 0x50, 0x00, 0x3F, 0x50, 0x00, 0x33, 0x50, 0x81,
    0x70, 0x84, 0x3F, 0x00, 0x00, 0x33, 0x00, 0x00, 0x3A, 0x00, 0x00, 0x94, 0x3D, 0x50, 0x00, 0x42,
    0x50, 0x00, 0x36, 0x50, 0x81, 0x70, 0x84, 0x42, 0x00, 0x00, 0x36, 0x00, 0x00, 0x3D, 0x00, 0x00,
    0x94, 0x2E, 0x50, 0x00, 0x33, 0x50, 0x00, 0x27, 0x50, 0x83, 0x60, 0x84, 0x33, 0x00, 0x00, 0x27,
    0x00, 0x00, 0x2E, 0x00, 0x00, 0x94, 0x2E, 0x50, 0x00, 0x33, 0x50, 0x00, 0x27, 0x50, 0x81, 0x70,
    0x84, 0x33, 0x00, 0x00, 0x27, 0x00, 0x00, 0x2E, 0x00, 0x00, 0x94, 0x3A, 0x50, 0x00, 0x3F, 0x50,
    0x00, 0x33, 0x50, 0x81, 0x70, 0x84, 0x3F, 0x00, 0x00, 0x33, 0x00, 0x00, 0x3A, 0x00, 0x81, 0x70,
    0x94, 0x3A, 0x50, 0x00, 0x3F, 0x50, 0x00, 0x33, 0x50, 0x81, 0x70, 0x84, 0x3F, 0x00, 0x00, 0x33,
    0x00, 0x00, 0x3A, 0x00, 0x00, 0x94, 0x38, 0x50, 0x00, 0x3D, 0x50, 0x00, 0x31, 0x50, 0x81, 0x70,
    0x84, 0x3D, 0x00, 0x00, 0x31, 0x00, 0x00, 0x38, 0x00, 0x00, 0x94, 0x3A, 0x50, 0x00, 0x3F, 0x50,
    0x00, 0x33, 0x50, 0x81, 0x70, 0x84, 0x3F, 0x00, 0x00, 0x33, 0x00, 0x00, 0x3A, 0x00, 0x00, 0x94,
    0x2E, 0x50, 0x00, 0x33, 0x50, 0x00, 0x27, 0x50, 0x83, 0x60, 0x84, 0x33, 0x00, 0x00, 0x27, 0x00,
    0x00, 0x2E, 0x00, 0x00, 0x94, 0x2E, 0x50, 0x00, 0x33, 0x50, 0x00, 0x27, 0x50, 0x81, 0x70, 0x84,
    0x33, 0x00, 0x00, 0x27, 0x00, 0x00, 0x2E, 0x00, 0x00, 0x94, 0x3A, 0x50, 0x00, 0x3F, 0x50, 0x00,
    0x33, 0x50, 0x81, 0x70, 0x84, 0x3F, 0x00, 0x00, 0x33, 0x00, 0x00, 0x3A, 0x00, 0x81, 0x70, 0x94,
    0x3A, 0x50, 0x00, 0x3F, 0x50, 0x00, 0x33, 0x50, 0x81, 0x70, 0x84, 0x3F, 0x00, 0x00, 0x33, 0x00,
    0x00, 0x3A, 0x00, 0x00, 0x94, 0x38, 0x50, 0x00, 0x3D, 0x50, 0x00, 0x31, 0x50, 0x81, 0x70, 0x84,
    0x3D, 0x00, 0x00, 0x31, 0x00, 0x00, 0x38, 0x00, 0x00, 0x94, 0x3A, 0x50, 0x00, 0x3F, 0x50, 0x00,
    0x33, 0x50, 0x81, 0x70, 0x84, 0x3F, 0x00, 0x00, 0x33, 0x00, 0x00, 0x3A, 0x00, 0x00, 0x94, 0x2E,
    0x50, 0x00, 0x33, 0x50, 0x00, 0x27, 0x50, 0x83, 0x60, 0x84, 0x33, 0x00, 0x00, 0x27, 0x00, 0x00,
    0x2E, 0x00, 0x00, 0x94, 0x2E, 0x50, 0x00, 0x33, 0x50, 0x00, 0x27, 0x50, 0x81, 0x70, 0x84, 0x33,
    0x00, 0x00, 0x27, 0x00, 0x00, 0x2E, 0x00, 0x00, 0x94, 0x3A, 0x50, 0x00, 0x3F, 0x50, 0x00, 0x33,
    0x50, 0x81, 0x70, 0x84, 0x3F, 0x00, 0x00, 0x33, 0x00, 0x00, 0x3A, 0x00, 0x81, 0x70, 0x94, 0x3A,
    0x50, 0x00, 0x3F, 0x50, 0x00, 0x33, 0x50, 0x81, 0x70, 0x84, 0x3F, 0x00, 0x00, 0x33, 0x00, 0x00,
    0x3A, 0x00, 0x00, 0x94, 0x38, 0x50, 0x00, 0x3D, 0x50, 0x00, 0x31, 0x50, 0x81, 0x70, 0x84, 0x3D,
    0x00, 0x00, 0x31, 0x00, 0x00, 0x38, 0x00, 0x00, 0x94, 0x3A, 0x50, 0x00, 0x3F, 0x50, 0x00, 0x33,
    0x50, 0x81, 0x70, 0x84, 0x3F, 0x00, 0x00, 0x33, 0x00, 0x00, 0x3A, 0x00, 0x00, 0x94, 0x2E, 0x50,
    0x00, 0x33, 0x50, 0x00, 0x27, 0x50, 0x83, 0x60, 0x84, 0x33, 0x00, 0x00, 0x27, 0x00, 0x00, 0x2E,
    0x00, 0x00, 0x94, 0x3A, 0x50, 0x00, 0x3F, 0x50, 0x00, 0x33, 0x50, 0x81, 0x70, 0x84, 0x3F, 0x00,
    0x00, 0x33, 0x00, 0x00, 0x3A, 0x00, 0x00, 0x94, 0x3D, 0x50, 0x00, 0x42, 0x50, 0x00, 0x36, 0x50,
    0x81, 0x70, 0x84, 0x42, 0x00, 0x00, 0x36, 0x00, 0x00, 0x3D, 0x00, 0x00, 0x94, 0x33, 0x50, 0x00,
    0x38, 0x50, 0x00, 0x2C, 0x50, 0x83, 0x60, 0x84, 0x38, 0x00, 0x00, 0x2C, 0x00, 0x00, 0x33, 0x00,
    0x00, 0x94, 0x3D, 0x50, 0x00, 0x42, 0x50, 0x00, 0x36, 0x50, 0x81, 0x70, 0x84, 0x42, 0x00, 0x00,
    0x36, 0x00, 0x00, 0x3D, 0x00, 0x00, 0x94, 0x3F, 0x50, 0x00, 0x44, 0x50, 0x00, 0x38, 0x50, 0x81,
    0x70, 0x84, 0x44, 0x00, 0x00, 0x38, 0x00, 0x00, 0x3F, 0x00, 0x00, 0x94, 0x2E, 0x50, 0x00, 0x33,
    0x50, 0x00, 0x27, 0x50, 0x83, 0x60, 0x84, 0x33, 0x00, 0x00, 0x27, 0x00, 0x00, 0x2E, 0x00, 0x00,
    0x94, 0x2E, 0x50, 0x00, 0x33, 0x50, 0x00, 0x27, 0x50, 0x81, 0x70, 0x84, 0x33, 0x00, 0x00, 0x27,
    0x00, 0x00, 0x2E, 0x00, 0x00, 0x94, 0x3A, 0x50, 0x00, 0x3F, 0x50, 0x00, 0x33, 0x50, 0x81, 0x70,
    0x84, 0x3F, 0x00, 0x00, 0x33, 0x00, 0x00, 0x3A, 0x00, 0x81, 0x70, 0x94, 0x3A, 0x50, 0x00, 0x3F,
    0x50, 0x00, 0x33, 0x50, 0x81, 0x70, 0x84, 0x3F, 0x00, 0x00, 0x33, 0x00, 0x00, 0x3A, 0x00, 0x00,
    0x94, 0x38, 0x50, 0x00, 0x3D, 0x50, 0x00, 0x31, 0x50, 0x81, 0x70, 0x84, 0x3D, 0x00, 0x00, 0x31,
    0x00, 0x00, 0x38, 0x00, 0x00, 0x94, 0x3A, 0x50, 0x00, 0x3F, 0x50, 0x00, 0x33, 0x50, 0x81, 0x70,
    0x84, 0x3F, 0x00, 0x00, 0x33, 0x00, 0x00, 0x3A, 0x00, 0x00, 0x94, 0x2E, 0x50, 0x00, 0x33, 0x50,
    0x00, 0x27, 0x50, 0x83, 0x60, 0x84, 0x33, 0x00, 0x00, 0x27, 0x00, 0x00, 0x2E, 0x00, 0x00, 0x94,
    0x2E, 0x50, 0x00, 0x33, 0x50, 0x00, 0x27, 0x50, 0x81, 0x70, 0x84, 0x33, 0x00, 0x00, 0x27, 0x00,
    0x00, 0x2E, 0x00, 0x00, 0x94, 0x3A, 0x50, 0x00, 0x3F, 0x50, 0x00, 0x33, 0x50, 0x81, 0x70, 0x84,
    0x3F, 0x00, 0x00, 0x33, 0x00, 0x00, 0x3A, 0x00, 0x81, 0x70, 0x94, 0x3A, 0x50, 0x00, 0x3F, 0x50,
    0x00, 0x33, 0x50, 0x81, 0x70, 0x84, 0x3F, 0x00, 0x00, 0x33, 0x00, 0x00, 0x3A, 0x00, 0x00, 0x94,
    0x38, 0x50, 0x00, 0x3D, 0x50, 0x00, 0x31, 0x50, 0x81, 0x70, 0x84, 0x3D, 0x00, 0x00, 0x31, 0x00,
    0x00, 0x38, 0x00, 0x00, 0x94, 0x3A, 0x50, 0x00, 0x3F, 0x50, 0x00, 0x33, 0x50, 0x81, 0x70, 0x84,
    0x3F, 0x00, 0x00, 0x33, 0x00, 0x00, 0x3A, 0x00, 0x00, 0x94, 0x2E, 0x50, 0x00, 0x33, 0x50, 0x00,
    0x27, 0x50, 0x83, 0x60, 0x84, 0x33, 0x00, 0x00, 0x27, 0x00, 0x00, 0x2E, 0x00, 0x00, 0x94, 0x2E,
    0x50, 0x00, 0x33, 0x50, 0x00, 0x27, 0x50, 0x81, 0x70, 0x84, 0x33, 0x00, 0x00, 0x27, 0x00, 0x00,
    0x2E, 0x00, 0x00, 0x94, 0x3A, 0x50, 0x00, 0x3F, 0x50, 0x00, 0x33, 0x50, 0x81, 0x70, 0x84, 0x3F,
    0x00, 0x00, 0x33, 0x00, 0x00, 0x3A, 0x00, 0x81, 0x70, 0x94, 0x3A, 0x50, 0x00, 0x3F, 0x50, 0x00,
    0x33, 0x50, 0x81, 0x70, 0x84, 0x3F, 0x00, 0x00, 0x33, 0x00, 0x00, 0x3A, 0x00, 0x00, 0x94, 0x38,
    0x50, 0x00, 0x3D, 0x50, 0x00, 0x31, 0x50, 0x81, 0x70, 0x84, 0x3D, 0x00, 0x00, 0x31, 0x00, 0x00,
    0x38, 0x00, 0x00, 0x94, 0x3A, 0x50, 0x00, 0x3F, 0x50, 0x00, 0x33, 0x50, 0x81, 0x70, 0x84, 0x3F,
    0x00, 0x00, 0x33, 0x00, 0x00, 0x3A, 0x00, 0x00, 0x94, 0x2C, 0x50, 0x00, 0x38, 0x50, 0x00, 0x33,
    0x50, 0x82, 0x40, 0x84, 0x38, 0x00, 0x00, 0x33, 0x00, 0x00, 0x2C, 0x00, 0x00, 0x94, 0x36, 0x50,
    0x00, 0x42, 0x50, 0x00, 0x3D, 0x50, 0x82, 0x40, 0x84, 0x42, 0x00, 0x00, 0x3D, 0x00, 0x00, 0x36,
    0x00, 0x00, 0x94, 0x38, 0x50, 0x00, 0x44, 0x50, 0x00, 0x3F, 0x50, 0x82, 0x40, 0x84, 0x44, 0x00,
    0x00, 0x3F, 0x00, 0x00, 0x38, 0x00, 0x00, 0x94, 0x2A, 0x50, 0x00, 0x36, 0x50, 0x00, 0x31, 0x50,
    0x82, 0x40, 0x84, 0x36, 0x00, 0x00, 0x31, 0x00, 0x00, 0x2A, 0x00, 0x00, 0x94, 0x33, 0x50, 0x00,
    0x3F, 0x50, 0x00, 0x3A, 0x50, 0x82, 0x40, 0x84, 0x3F, 0x00, 0x00, 0x3A, 0x00, 0x00, 0x33, 0x00,
    0x00, 0x94, 0x36, 0x50, 0x00, 0x42, 0x50, 0x00, 0x3D, 0x50, 0x82, 0x40, 0x84, 0x42, 0x00, 0x00,
    0x3D, 0x00, 0x00, 0x36, 0x00, 0x00, 0x94, 0x3F, 0x3C, 0x00, 0x3A, 0x3C, 0x00, 0x33, 0x50, 0x00,
    0x2E, 0x50, 0x00, 0x27, 0x50, 0xBC, 0x00, 0x84, 0x3A, 0x00, 0x00, 0x33, 0x00, 0x00, 0x2E, 0x00,
    0x00, 0x27, 0x00, 0x00, 0x3F, 0x00, 0x00, 0x94, 0x3B, 0x3C, 0x00, 0x36, 0x3C, 0x00, 0x2F, 0x50,
    0x00, 0x23, 0x50, 0x00, 0x2A, 0x50, 0x9E, 0x00, 0x84, 0x36, 0x00, 0x00, 0x2F, 0x00, 0x00, 0x23,
    0x00, 0x00, 0x2A, 0x00, 0x00, 0x3B, 0x00, 0x00, 0x94, 0x38, 0x3C, 0x00, 0x3D, 0x3C, 0x00, 0x2C,
    0x50, 0x00, 0x25, 0x50, 0x00, 0x31, 0x50, 0x8F, 0x00, 0x84, 0x3D, 0x00, 0x00, 0x2C, 0x00, 0x00,
    0x25, 0x00, 0x00, 0x31, 0x00, 0x00, 0x38, 0x00, 0x00, 0x94, 0x3A, 0x3C, 0x00, 0x3E, 0x3C, 0x00,
    0x2E, 0x50, 0x00, 0x26, 0x50, 0x00, 0x32, 0x50, 0x8F, 0x00, 0x84, 0x3E, 0x00, 0x00, 0x2E, 0x00,
    0x00, 0x26, 0x00, 0x00, 0x32, 0x00, 0x00, 0x3A, 0x00, 0x00, 0x94, 0x3F, 0x3C, 0x00, 0x3A, 0x3C,
    0x00, 0x33, 0x50, 0x00, 0x2E, 0x50, 0x00, 0x27, 0x50, 0xBC, 0x00, 0x84, 0x3A, 0x00, 0x00, 0x33,
    0x00, 0x00, 0x2E, 0x00, 0x00, 0x27, 0x00, 0x00, 0x3F, 0x00, 0x00, 0x94, 0x3B, 0x3C, 0x00, 0x36,
    0x3C, 0x00, 0x2F, 0x50, 0x00, 0x23, 0x50, 0x00, 0x2A, 0x50, 0x9E, 0x00, 0x84, 0x36, 0x00, 0x00,
    0x2F, 0x00, 0x00, 0x23, 0x00, 0x00, 0x2A, 0x00, 0x00, 0x3B, 0x00, 0x00, 0x94, 0x38, 0x3C, 0x00,
    0x3D, 0x3C, 0x00, 0x2C, 0x50, 0x00, 0x25, 0x50, 0x00, 0x31, 0x50, 0x8F, 0x00, 0x84, 0x3D, 0x00,
    0x00, 0x2C, 0x00, 0x00, 0x25, 0x00, 0x00, 0x31, 0x00, 0x00, 0x38, 0x00, 0x00, 0x94, 0x3A, 0x3C,
    0x00, 0x3E, 0x3C, 0x00, 0x2E, 0x50, 0x00, 0x26, 0x50, 0x00, 0x32, 0x50, 0x8F, 0x00, 0x84, 0x3E,
    0x00, 0x00, 0x2E, 0x00, 0x00, 0x26, 0x00, 0x00, 0x32, 0x00, 0x00, 0x3A, 0x00, 0x00, 0x94, 0x27,
    0x50, 0x00, 0x3F, 0x3C, 0x00, 0x3A, 0x3C, 0x00, 0x33, 0x50, 0x00, 0x2E, 0x50, 0xBC, 0x00, 0x84,
    0x3F, 0x00, 0x00, 0x3A, 0x00, 0x00, 0x33, 0x00, 0x00, 0x2E, 0x00, 0x00, 0x27, 0x00, 0x00, 0x94,
    0x2A, 0x50, 0x00, 0x3B, 0x3C, 0x00, 0x36, 0x3C, 0x00, 0x2F, 0x50, 0x00, 0x23, 0x50, 0x9E, 0x00,
    0x84, 0x3B, 0x00, 0x00, 0x36, 0x00, 0x00, 0x2F, 0x00, 0x00, 0x23, 0x00, 0x00, 0x2A, 0x00, 0x00,
    0x94, 0x31, 0x50, 0x00, 0x38, 0x3C, 0x00, 0x3D, 0x3C, 0x00, 0x2C, 0x50, 0x00, 0x25, 0x50, 0x8F,
    0x00, 0x84, 0x38, 0x00, 0x00, 0x3D, 0x00, 0x00, 0x2C, 0x00, 0x00, 0x25, 0x00, 0x00, 0x31, 0x00,
    0x00, 0x94, 0x32, 0x50, 0x00, 0x3A, 0x3C, 0x00, 0x3E, 0x3C, 0x00, 0x2E, 0x50, 0x00, 0x26, 0x50,
    0x8F, 0x00, 0x84, 0x3A, 0x00, 0x00, 0x3E, 0x00, 0x00, 0x2E, 0x00, 0x00, 0x26, 0x00, 0x00, 0x32,
    0x00, 0x00, 0x94, 0x27, 0x50, 0x00, 0x3F, 0x3C, 0x00, 0x3A, 0x3C, 0x00, 0x33, 0x50, 0x00, 0x2E,
    0x50, 0xBC, 0x00, 0x84, 0x3F, 0x00, 0x00, 0x3A, 0x00, 0x00, 0x33, 0x00, 0x00, 0x2E, 0x00, 0x00,
    0x27, 0x00, 0x00, 0x94, 0x2A, 0x50, 0x00, 0x3B, 0x3C, 0x00, 0x36, 0x3C, 0x00, 0x2F, 0x50, 0x00,
    0x23, 0x50, 0x9E, 0x00, 0x84, 0x3B, 0x00, 0x00, 0x36, 0x00, 0x00, 0x2F, 0x00, 0x00, 0x23, 0x00,
    0x00, 0x2A, 0x00, 0x00, 0x94, 0x31, 0x50, 0x00, 0x38, 0x3C, 0x00, 0x3D, 0x3C, 0x00, 0x2C, 0x50,
    0x00, 0x25, 0x50, 0x8F, 0x00, 0x84, 0x38, 0x00, 0x00, 0x3D, 0x00, 0x00, 0x2C, 0x00, 0x00, 0x25,
    0x00, 0x00, 0x31, 0x00, 0x00, 0x94, 0x32, 0x50, 0x00, 0x3A, 0x3C, 0x00, 0x3E, 0x3C, 0x00, 0x2E,
    0x50, 0x00, 0x26, 0x50, 0x8F, 0x00, 0x84, 0x3A, 0x00, 0x00, 0x3E, 0x00, 0x00, 0x2E, 0x00, 0x00,
    0x26, 0x00, 0x00, 0x32, 0x00, 0x00, 0x94, 0x2A, 0x50, 0x00, 0x23, 0x50, 0x00, 0x3B, 0x3C, 0x00,
    0x36, 0x3C, 0x00, 0x2F, 0x50, 0x9E, 0x00, 0x84, 0x23, 0x00, 0x00, 0x3B, 0x00, 0x00, 0x36, 0x00,
    0x00, 0x2F, 0x00, 0x00, 0x2A, 0x00, 0x00, 0x94, 0x2C, 0x50, 0x00, 0x25, 0x50, 0x00, 0x3D, 0x3C,
    0x00, 0x38, 0x3C, 0x00, 0x31, 0x50, 0x9E, 0x00, 0x84, 0x25, 0x00, 0x00, 0x3D, 0x00, 0x00, 0x38,
    0x00, 0x00, 0x31, 0x00, 0x00, 0x2C, 0x00, 0x00, 0x94, 0x33, 0x50, 0x00, 0x27, 0x50, 0x00, 0x3A,
    0x3C, 0x00, 0x3F, 0x3C, 0x00, 0x2E, 0x50, 0xBC, 0x00, 0x84, 0x27, 0x00, 0x00, 0x3A, 0x00, 0x00,
    0x3F, 0x00, 0x00, 0x2E, 0x00, 0x00, 0x33, 0x00, 0x00, 0x94, 0x2A, 0x50, 0x00, 0x23, 0x50, 0x00,
    0x3B, 0x3C, 0x00, 0x36, 0x3C, 0x00, 0x2F, 0x50, 0x9E, 0x00, 0x84, 0x23, 0x00, 0x00, 0x3B, 0x00,
    0x00, 0x36, 0x00, 0x00, 0x2F, 0x00, 0x00, 0x2A, 0x00, 0x00, 0x94, 0x2C, 0x50, 0x00, 0x25, 0x50,
    0x00, 0x3D, 0x3C, 0x00, 0x38, 0x3C, 0x00, 0x31, 0x50, 0x9E, 0x00, 0x84, 0x25, 0x00, 0x00, 0x3D,
    0x00, 0x00, 0x38, 0x00, 0x00, 0x31, 0x00, 0x00, 0x2C, 0x00, 0x00, 0x94, 0x33, 0x50, 0x00, 0x27,
    0x50, 0x00, 0x3A, 0x3C, 0x00, 0x3F, 0x3C, 0x00, 0x2E, 0x50, 0xBC, 0x00, 0x84, 0x27, 0x00, 0x00,
    0x3A, 0x00, 0x00, 0x3F, 0x00, 0x00, 0x2E, 0x00, 0x00, 0x33, 0x00, 0x00, 0x94, 0x2F, 0x50, 0x00,
    0x2A, 0x50, 0x00, 0x23, 0x50, 0x00, 0x3B, 0x3C, 0x00, 0x36, 0x3C, 0x9E, 0x00, 0x84, 0x2A, 0x00,
    0x00, 0x23, 0x00, 0x00, 0x3B, 0x00, 0x00, 0x36, 0x00, 0x00, 0x2F, 0x00, 0x00, 0x94, 0x31, 0x50,
    0x00, 0x2C, 0x50, 0x00, 0x25, 0x50, 0x00, 0x3D, 0x3C, 0x00, 0x38, 0x3C, 0x9E, 0x00, 0x84, 0x2C,
    0x00, 0x00, 0x25, 0x00, 0x00, 0x3D, 0x00, 0x00, 0x38, 0x00, 0x00, 0x31, 0x00, 0x00, 0x94, 0x2E,
    0x50, 0x00, 0x33, 0x50, 0x00, 0x27, 0x50, 0x00, 0x3A, 0x3C, 0x00, 0x3F, 0x3C, 0xBC, 0x00, 0x84,
    0x33, 0x00, 0x00, 0x27, 0x00, 0x00, 0x3A, 0x00, 0x00, 0x3F, 0x00, 0x00, 0x2E, 0x00, 0x00, 0x94,
    0x2F, 0x50, 0x00, 0x2A, 0x50, 0x00, 0x23, 0x50, 0x00, 0x3B, 0x3C, 0x00, 0x36, 0x3C, 0x9E, 0x00,
    0x84, 0x2A, 0x00, 0x00, 0x23, 0x00, 0x00, 0x3B, 0x00, 0x00, 0x36, 0x00, 0x00, 0x2F, 0x00, 0x00,
    0x94, 0x31, 0x50, 0x00, 0x2C, 0x50, 0x00, 0x25, 0x50, 0x00, 0x3D, 0x3C, 0x00, 0x38, 0x3C, 0x9E,
    0x00, 0x84, 0x2C, 0x00, 0x00, 0x25, 0x00, 0x00, 0x3D, 0x00, 0x00, 0x38, 0x00, 0x00, 0x31, 0x00,
    0x00, 0x94, 0x2E, 0x50, 0x00, 0x33, 0x50, 0x00, 0x27, 0x50, 0x00, 0x3A, 0x3C, 0x00, 0x3F, 0x3C,
    0xBC, 0x00, 0x84, 0x33, 0x00, 0x00, 0x27, 0x00, 0x00, 0x3A, 0x00, 0x00, 0x3F, 0x00, 0x00, 0x2E,
    0x00, 0x00, 0xFF, 0x2F, 0x00, 0x4D, 0x54, 0x72, 0x6B, 0x00, 0x00, 0x1F, 0x53, 0x00, 0xB5, 0x00,
    0x00, 0x00, 0x20, 0x00, 0x00, 0xC5, 0x51, 0x00, 0xFF, 0x03, 0x08, 0x55, 0x6E, 0x74, 0x69, 0x74,
    0x6C, 0x65, 0x64, 0x00, 0xB5, 0x07, 0x7F, 0x00, 0x00, 0x00, 0x00, 0x20, 0x00, 0x00, 0x07, 0x7F,
    0x00, 0x07, 0x64, 0x00, 0xE5, 0x00, 0x40, 0x00, 0xB5, 0x0A, 0x40, 0x00, 0x5D, 0x00, 0x00, 0x5B,
    0x00, 0x00, 0x5F, 0x00, 0x00, 0x5C, 0x00, 0x00, 0x0B, 0x7F, 0x00, 0x0A, 0x40, 0x00, 0x5D, 0x00,
    0x00, 0x5B, 0x00, 0x00, 0x5F, 0x00, 0x00, 0x5C, 0x00, 0x00, 0x0B, 0x7F, 0x00, 0xC5, 0x51, 0x83,
    0xE0, 0x00, 0x95, 0x33, 0x50, 0x83, 0x60, 0x85, 0x33, 0x00, 0x00, 0x95, 0x3F, 0x50, 0x81, 0x70,
    0x85, 0x3F, 0x00, 0x00, 0x95, 0x3F, 0x50, 0x81, 0x70, 0x85, 0x3F, 0x00, 0x81, 0x70, 0x95, 0x3F,
    0x50, 0x81, 0x70, 0x85, 0x3F, 0x00, 0x00, 0x95, 0x3D, 0x50, 0x81, 0x70, 0x85, 0x3D, 0x00, 0x00,
    0x95, 0x3F, 0x50, 0x81, 0x70, 0x85, 0x3F, 0x00, 0x00, 0x95, 0x33, 0x50, 0x83, 0x60, 0x85, 0x33,
    0x00, 0x00, 0x95, 0x3F, 0x50, 0x81, 0x70, 0x85, 0x3F, 0x00, 0x00, 0x95, 0x3F, 0x50, 0x81, 0x70,
    0x85, 0x3F, 0x00, 0x81, 0x70, 0x95, 0x3F, 0x50, 0x81, 0x70, 0x85, 0x3F, 0x00, 0x00, 0x95, 0x3D,
    0x50, 0x81, 0x70, 0x85, 0x3D, 0x00, 0x00, 0x95, 0x3F, 0x50, 0x81, 0x70, 0x85, 0x3F, 0x00, 0x00,
    0x95, 0x33, 0x50, 0x83, 0x60, 0x85, 0x33, 0x00, 0x00, 0x95, 0x3F, 0x50, 0x81, 0x70, 0x85, 0x3F,
    0x00, 0x00, 0x95, 0x3F, 0x50, 0x81, 0x70, 0x85, 0x3F, 0x00, 0x81, 0x70, 0x95, 0x3F, 0x50, 0x81,
    0x70, 0x85, 0x3F, 0x00, 0x00, 0x95, 0x3D, 0x50, 0x81, 0x70, 0x85, 0x3D, 0x00, 0x00, 0x95, 0x3F,
    0x50, 0x81, 0x70, 0x85, 0x3F, 0x00, 0x00, 0x95, 0x33, 0x50, 0x83, 0x60, 0x85, 0x33, 0x00, 0x00,
    0x95, 0x3F, 0x50, 0x81, 0x70, 0x85, 0x3F, 0x00, 0x00, 0x95, 0x42, 0x50, 0x81, 0x70, 0x85, 0x42,
    0x00, 0x00, 0x95, 0x38, 0x50, 0x83, 0x60, 0x85, 0x38, 0x00, 0x00, 0x95, 0x42, 0x50, 0x81, 0x70,
    0x85, 0x42, 0x00, 0x00, 0x95, 0x44, 0x50, 0x81, 0x70, 0x85, 0x44, 0x00, 0x00, 0x95, 0x2F, 0x50,
    0x83, 0x60, 0x85, 0x2F, 0x00, 0x00, 0x95, 0x3F, 0x50, 0x81, 0x70, 0x85, 0x3F, 0x00, 0x00, 0x95,
    0x3F, 0x50, 0x81, 0x70, 0x85, 0x3F, 0x00, 0x81, 0x70, 0x95, 0x3F, 0x50, 0x81, 0x70, 0x85, 0x3F,
    0x00, 0x00, 0x95, 0x3D, 0x50, 0x81, 0x70, 0x85, 0x3D, 0x00, 0x00, 0x95, 0x3F, 0x50, 0x81, 0x70,
    0x85, 0x3F, 0x00, 0x00, 0x95, 0x2F, 0x50, 0x83, 0x60, 0x85, 0x2F, 0x00, 0x00, 0x95, 0x3F, 0x50,
    0x81, 0x70, 0x85, 0x3F, 0x00, 0x00, 0x95, 0x3F, 0x50, 0x81, 0x70, 0x85, 0x3F, 0x00, 0x81, 0x70,
    0x95, 0x3F, 0x50, 0x81, 0x70, 0x85, 0x3F, 0x00, 0x00, 0x95, 0x3D, 0x50, 0x81, 0x70, 0x85, 0x3D,
    0x00, 0x00, 0x95, 0x3F, 0x50, 0x81, 0x70, 0x85, 0x3F, 0x00, 0x00, 0x95, 0x31, 0x50, 0x83, 0x60,
    0x85, 0x31, 0x00, 0x00, 0x95, 0x3F, 0x50, 0x81, 0x70, 0x85, 0x3F, 0x00, 0x00, 0x95, 0x3F, 0x50,
    0x81, 0x70, 0x85, 0x3F, 0x00, 0x81, 0x70, 0x95, 0x3F, 0x50, 0x81, 0x70, 0x85, 0x3F, 0x00, 0x00,
    0x95, 0x3D, 0x50, 0x81, 0x70, 0x85, 0x3D, 0x00, 0x00, 0x95, 0x3F, 0x50, 0x81, 0x70, 0x85, 0x3F,
    0x00, 0x00, 0x95, 0x33, 0x50, 0x83, 0x60, 0x85, 0x33, 0x00, 0x00, 0x95, 0x3F, 0x50, 0x81, 0x70,
    0x85, 0x3F, 0x00, 0x00, 0x95, 0x42, 0x50, 0x81, 0x70, 0x85, 0x42, 0x00, 0x00, 0x95, 0x38, 0x50,
    0x83, 0x60, 0x85, 0x38, 0x00, 0x00, 0x95, 0x42, 0x50, 0x81, 0x70, 0x85, 0x42, 0x00, 0x00, 0x95,
    0x44, 0x50, 0x81, 0x70, 0x85, 0x44, 0x00, 0x00, 0x95, 0x33, 0x50, 0x83, 0x60, 0x85, 0x33, 0x00,
    0x00, 0x95, 0x3F, 0x50, 0x81, 0x70, 0x85, 0x3F, 0x00, 0x00, 0x95, 0x3F, 0x50, 0x81, 0x70, 0x85,
    0x3F, 0x00, 0x81, 0x70, 0x95, 0x3F, 0x50, 0x81, 0x70, 0x85, 0x3F, 0x00, 0x00, 0x95, 0x3D, 0x50,
    0x81, 0x70, 0x85, 0x3D, 0x00, 0x00, 0x95, 0x3F, 0x50, 0x81, 0x70, 0x85, 0x3F, 0x00, 0x00, 0x95,
    0x33, 0x50, 0x83, 0x60, 0x85, 0x33, 0x00, 0x00, 0x95, 0x3F, 0x50, 0x81, 0x70, 0x85, 0x3F, 0x00,
    0x00, 0x95, 0x3F, 0x50, 0x81, 0x70, 0x85, 0x3F, 0x00, 0x81, 0x70, 0x95, 0x3F, 0x50, 0x81, 0x70,
    0x85, 0x3F, 0x00, 0x00, 0x95, 0x3D, 0x50, 0x81, 0x70, 0x85, 0x3D, 0x00, 0x00, 0x95, 0x3F, 0x50,
    0x81, 0x70, 0x85, 0x3F, 0x00, 0x00, 0x95, 0x33, 0x50, 0x83, 0x60, 0x85, 0x33, 0x00, 0x00, 0x95,
    0x3F, 0x50, 0x81, 0x70, 0x85, 0x3F, 0x00, 0x00, 0x95, 0x3F, 0x50, 0x81, 0x70, 0x85, 0x3F, 0x00,
    0x81, 0x70, 0x95, 0x3F, 0x50, 0x81, 0x70, 0x85, 0x3F, 0x00, 0x00, 0x95, 0x3D, 0x50, 0x81, 0x70,
    0x85, 0x3D, 0x00, 0x00, 0x95, 0x3F, 0x50, 0x81, 0x70, 0x85, 0x3F, 0x00, 0x00, 0x95, 0x33, 0x50,
    0x83, 0x60, 0x85, 0x33, 0x00, 0x00, 0x95, 0x3F, 0x50, 0x81, 0x70, 0x85, 0x3F, 0x00, 0x00, 0x95,
    0x42, 0x50, 0x81, 0x70, 0x85, 0x42, 0x00, 0x00, 0x95, 0x38, 0x50, 0x83, 0x60, 0x85, 0x38, 0x00,
    0x00, 0x95, 0x42, 0x50, 0x81, 0x70, 0x85, 0x42, 0x00, 0x00, 0x95, 0x44, 0x50, 0x81, 0x70, 0x85,
    0x44, 0x00, 0x00, 0x95, 0x2F, 0x50, 0x83, 0x60, 0x85, 0x2F, 0x00, 0x00, 0x95, 0x3F, 0x50, 0x81,
    0x70, 0x85, 0x3F, 0x00, 0x00, 0x95, 0x3F, 0x50, 0x81, 0x70, 0x85, 0x3F, 0x00, 0x81, 0x70, 0x95,
    0x3F, 0x50, 0x81, 0x70, 0x85, 0x3F, 0x00, 0x00, 0x95, 0x3D, 0x50, 0x81, 0x70, 0x85, 0x3D, 0x00,
    0x00, 0x95, 0x3F, 0x50, 0x81, 0x70, 0x85, 0x3F, 0x00, 0x00, 0x95, 0x2F, 0x50, 0x83, 0x60, 0x85,
    0x2F, 0x00, 0x00, 0x95, 0x3F, 0x50, 0x81, 0x70, 0x85, 0x3F, 0x00, 0x00, 0x95, 0x3F, 0x50, 0x81,
    0x70, 0x85, 0x3F, 0x00, 0x81, 0x70, 0x95, 0x3F, 0x50, 0x81, 0x70, 0x85, 0x3F, 0x00, 0x00, 0x95,
    0x3D, 0x50, 0x81, 0x70, 0x85, 0x3D, 0x00, 0x00, 0x95, 0x3F, 0x50, 0x81, 0x70, 0x85, 0x3F, 0x00,
    0x00, 0x95, 0x31, 0x50, 0x83, 0x60, 0x85, 0x31, 0x00, 0x00, 0x95, 0x3F, 0x50, 0x81, 0x70, 0x85,
    0x3F, 0x00, 0x00, 0x95, 0x3F, 0x50, 0x81, 0x70, 0x85, 0x3F, 0x00, 0x81, 0x70, 0x95, 0x3F, 0x50,
    0x81, 0x70, 0x85, 0x3F, 0x00, 0x00, 0x95, 0x3D, 0x50, 0x81, 0x70, 0x85, 0x3D, 0x00, 0x00, 0x95,
    0x3F, 0x50, 0x81, 0x70, 0x85, 0x3F, 0x00, 0x00, 0x95, 0x33, 0x50, 0x83, 0x60, 0x85, 0x33, 0x00,
    0x00, 0x95, 0x3F, 0x50, 0x81, 0x70, 0x85, 0x3F, 0x00, 0x00, 0x95, 0x42, 0x50, 0x81, 0x70, 0x85,
    0x42, 0x00, 0x00, 0x95, 0x38, 0x50, 0x83, 0x60, 0x85, 0x38, 0x00, 0x00, 0x95, 0x42, 0x50, 0x81,
    0x70, 0x85, 0x42, 0x00, 0x00, 0x95, 0x44, 0x50, 0x81, 0x70, 0x85, 0x44, 0x00, 0x00, 0x95, 0x33,
    0x50, 0x83, 0x60, 0x85, 0x33, 0x00, 0x00, 0x95, 0x3F, 0x50, 0x81, 0x70, 0x85, 0x3F, 0x00, 0x00,
    0x95, 0x3F, 0x50, 0x81, 0x70, 0x85, 0x3F, 0x00, 0x81, 0x70, 0x95, 0x3F, 0x50, 0x81, 0x70, 0x85,
    0x3F, 0x00, 0x00, 0x95, 0x3D, 0x50, 0x81, 0x70, 0x85, 0x3D, 0x00, 0x00, 0x95, 0x3F, 0x50, 0x81,
    0x70, 0x85, 0x3F, 0x00, 0x00, 0x95, 0x33, 0x50, 0x83, 0x60, 0x85, 0x33, 0x00, 0x00, 0x95, 0x3F,
    0x50, 0x81, 0x70, 0x85, 0x3F, 0x00, 0x00, 0x95, 0x3F, 0x50, 0x81, 0x70, 0x85, 0x3F, 0x00, 0x81,
    0x70, 0x95, 0x3F, 0x50, 0x81, 0x70, 0x85, 0x3F, 0x00, 0x00, 0x95, 0x3D, 0x50, 0x81, 0x70, 0x85,
    0x3D, 0x00, 0x00, 0x95, 0x3F, 0x50, 0x81, 0x70, 0x85, 0x3F, 0x00, 0x00, 0x95, 0x33, 0x50, 0x83,
    0x60, 0x85, 0x33, 0x00, 0x00, 0x95, 0x3F, 0x50, 0x81, 0x70, 0x85, 0x3F, 0x00, 0x00, 0x95, 0x3F,
    0x50, 0x81, 0x70, 0x85, 0x3F, 0x00, 0x81, 0x70, 0x95, 0x3F, 0x50, 0x81, 0x70, 0x85, 0x3F, 0x00,
    0x00, 0x95, 0x3D, 0x50, 0x81, 0x70, 0x85, 0x3D, 0x00, 0x00, 0x95, 0x3F, 0x50, 0x81, 0x70, 0x85,
    0x3F, 0x00, 0x00, 0x95, 0x33, 0x50, 0x83, 0x60, 0x85, 0x33, 0x00, 0x00, 0x95, 0x3F, 0x50, 0x81,
    0x70, 0x85, 0x3F, 0x00, 0x00, 0x95, 0x42, 0x50, 0x81, 0x70, 0x85, 0x42, 0x00, 0x00, 0x95, 0x38,
    0x50, 0x83, 0x60, 0x85, 0x38, 0x00, 0x00, 0x95, 0x42, 0x50, 0x81, 0x70, 0x85, 0x42, 0x00, 0x00,
    0x95, 0x44, 0x50, 0x81, 0x70, 0x85, 0x44, 0x00, 0x00, 0x95, 0x2F, 0x50, 0x83, 0x60, 0x85, 0x2F,
    0x00, 0x00, 0x95, 0x3F, 0x50, 0x81, 0x70, 0x85, 0x3F, 0x00, 0x00, 0x95, 0x3F, 0x50, 0x81, 0x70,
    0x85, 0x3F, 0x00, 0x81, 0x70, 0x95, 0x3F, 0x50, 0x81, 0x70, 0x85, 0x3F, 0x00, 0x00, 0x95, 0x3D,
    0x50, 0x81, 0x70, 0x85, 0x3D, 0x00, 0x00, 0x95, 0x3F, 0x50, 0x81, 0x70, 0x85, 0x3F, 0x00, 0x00,
    0x95, 0x2F, 0x50, 0x83, 0x60, 0x85, 0x2F, 0x00, 0x00, 0x95, 0x3F, 0x50, 0x81, 0x70, 0x85, 0x3F,
    0x00, 0x00, 0x95, 0x3F, 0x50, 0x81, 0x70, 0x85, 0x3F, 0x00, 0x81, 0x70, 0x95, 0x3F, 0x50, 0x81,
    0x70, 0x85, 0x3F, 0x00, 0x00, 0x95, 0x3D, 0x50, 0x81, 0x70, 0x85, 0x3D, 0x00, 0x00, 0x95, 0x3F,
    0x50, 0x81, 0x70, 0x85, 0x3F, 0x00, 0x00, 0x95, 0x31, 0x50, 0x83, 0x60, 0x85, 0x31, 0x00, 0x00,
    0x95, 0x3F, 0x50, 0x81, 0x70, 0x85, 0x3F, 0x00, 0x00, 0x95, 0x3F, 0x50, 0x81, 0x70, 0x85, 0x3F,
    0x00, 0x81, 0x70, 0x95, 0x3F, 0x50, 0x81, 0x70, 0x85, 0x3F, 0x00, 0x00, 0x95, 0x3D, 0x50, 0x81,
    0x70, 0x85, 0x3D, 0x00, 0x00, 0x95, 0x3F, 0x50, 0x81, 0x70, 0x85, 0x3F, 0x00, 0x00, 0x95, 0x33,
    0x50, 0x83, 0x60, 0x85, 0x33, 0x00, 0x00, 0x95, 0x3F, 0x50, 0x81, 0x70, 0x85, 0x3F, 0x00, 0x00,
    0x95, 0x42, 0x50, 0x81, 0x70, 0x85, 0x42, 0x00, 0x00, 0x95, 0x38, 0x50, 0x83, 0x60, 0x85, 0x38,
    0x00, 0x00, 0x95, 0x42, 0x50, 0x81, 0x70, 0x85, 0x42, 0x00, 0x00, 0x95, 0x44, 0x50, 0x81, 0x70,
    0x85, 0x44, 0x00, 0x00, 0x95, 0x33, 0x50, 0x83, 0x60, 0x85, 0x33, 0x00, 0x00, 0x95, 0x3F, 0x50,
    0x81, 0x70, 0x85, 0x3F, 0x00, 0x00, 0x95, 0x3F, 0x50, 0x81, 0x70, 0x85, 0x3F, 0x00, 0x81, 0x70,
    0x95, 0x3F, 0x50, 0x81, 0x70, 0x85, 0x3F, 0x00, 0x00, 0x95, 0x3D, 0x50, 0x81, 0x70, 0x85, 0x3D,
    0x00, 0x00, 0x95, 0x3F, 0x50, 0x81, 0x70, 0x85, 0x3F, 0x00, 0x00, 0x95, 0x33, 0x50, 0x83, 0x60,
    0x85, 0x33, 0x00, 0x00, 0x95, 0x3F, 0x50, 0x81, 0x70, 0x85, 0x3F, 0x00, 0x00, 0x95, 0x3F, 0x50,
    0x81, 0x70, 0x85, 0x3F, 0x00, 0x81, 0x70, 0x95, 0x3F, 0x50, 0x81, 0x70, 0x85, 0x3F, 0x00, 0x00,
    0x95, 0x3D, 0x50, 0x81, 0x70, 0x85, 0x3D, 0x00, 0x00, 0x95, 0x3F, 0x50, 0x81, 0x70, 0x85, 0x3F,
    0x00, 0x00, 0x95, 0x33, 0x50, 0x83, 0x60, 0x85, 0x33, 0x00, 0x00, 0x95, 0x3F, 0x50, 0x81, 0x70,
    0x85, 0x3F, 0x00, 0x00, 0x95, 0x3F, 0x50, 0x81, 0x70, 0x85, 0x3F, 0x00, 0x81, 0x70, 0x95, 0x3F,
    0x50, 0x81, 0x70, 0x85, 0x3F, 0x00, 0x00, 0x95, 0x3D, 0x50, 0x81, 0x70, 0x85, 0x3D, 0x00, 0x00,
    0x95, 0x3F, 0x50, 0x81, 0x70, 0x85, 0x3F, 0x00, 0x00, 0x95, 0x33, 0x50, 0x83, 0x60, 0x85, 0x33,
    0x00, 0x00, 0x95, 0x3F, 0x50, 0x81, 0x70, 0x85, 0x3F, 0x00, 0x00, 0x95, 0x42, 0x50, 0x81, 0x70,
    0x85, 0x42, 0x00, 0x00, 0x95, 0x38, 0x50, 0x83, 0x60, 0x85, 0x38, 0x00, 0x00, 0x95, 0x42, 0x50,
    0x81, 0x70, 0x85, 0x42, 0x00, 0x00, 0x95, 0x44, 0x50, 0x81, 0x70, 0x85, 0x44, 0x00, 0x00, 0x95,
    0x2F, 0x50, 0x83, 0x60, 0x85, 0x2F, 0x00, 0x00, 0x95, 0x3F, 0x50, 0x81, 0x70, 0x85, 0x3F, 0x00,
    0x00, 0x95, 0x3F, 0x50, 0x81, 0x70, 0x85, 0x3F, 0x00, 0x81, 0x70, 0x95, 0x3F, 0x50, 0x81, 0x70,
    0x85, 0x3F, 0x00, 0x00, 0x95, 0x3D, 0x50, 0x81, 0x70, 0x85, 0x3D, 0x00, 0x00, 0x95, 0x3F, 0x50,
    0x81, 0x70, 0x85, 0x3F, 0x00, 0x00, 0x95, 0x2F, 0x50, 0x83, 0x60, 0x85, 0x2F, 0x00, 0x00, 0x95,
    0x3F, 0x50, 0x81, 0x70, 0x85, 0x3F, 0x00, 0x00, 0x95, 0x3F, 0x50, 0x81, 0x70, 0x85, 0x3F, 0x00,
    0x81, 0x70, 0x95, 0x3F, 0x50, 0x81, 0x70, 0x85, 0x3F, 0x00, 0x00, 0x95, 0x3D, 0x50, 0x81, 0x70,
    0x85, 0x3D, 0x00, 0x00, 0x95, 0x3F, 0x50, 0x81, 0x70, 0x85, 0x3F, 0x00, 0x00, 0x95, 0x31, 0x50,
    0x83, 0x60, 0x85, 0x31, 0x00, 0x00, 0x95, 0x3D, 0x50, 0x83, 0x60, 0x85, 0x3D, 0x00, 0x00, 0x95,
    0x33, 0x50, 0x83, 0x60, 0x85, 0x33, 0x00, 0x00, 0x95, 0x3F, 0x50, 0x83, 0x60, 0x85, 0x3F, 0x00,
    0x00, 0x95, 0x35, 0x50, 0x83, 0x60, 0x85, 0x35, 0x00, 0x00, 0x95, 0x41, 0x50, 0x83, 0x60, 0x85,
    0x41, 0x00, 0x00, 0x95, 0x36, 0x50, 0x83, 0x60, 0x85, 0x36, 0x00, 0x00, 0x95, 0x42, 0x50, 0x83,
    0x60, 0x85, 0x42, 0x00, 0x00, 0x95, 0x2F, 0x50, 0x83, 0x60, 0x85, 0x2F, 0x00, 0x00, 0x95, 0x3F,
    0x50, 0x81, 0x70, 0x85, 0x3F, 0x00, 0x00, 0x95, 0x3F, 0x50, 0x81, 0x70, 0x85, 0x3F, 0x00, 0x81,
    0x70, 0x95, 0x3F, 0x50, 0x81, 0x70, 0x85, 0x3F, 0x00, 0x00, 0x95, 0x3D, 0x50, 0x81, 0x70, 0x85,
    0x3D, 0x00, 0x00, 0x95, 0x3F, 0x50, 0x81, 0x70, 0x85, 0x3F, 0x00, 0x00, 0x95, 0x2F, 0x50, 0x83,
    0x60, 0x85, 0x2F, 0x00, 0x00, 0x95, 0x3F, 0x50, 0x81, 0x70, 0x85, 0x3F, 0x00, 0x00, 0x95, 0x3F,
    0x50, 0x81, 0x70, 0x85, 0x3F, 0x00, 0x81, 0x70, 0x95, 0x3F, 0x50, 0x81, 0x70, 0x85, 0x3F, 0x00,
    0x00, 0x95, 0x3D, 0x50, 0x81, 0x70, 0x85, 0x3D, 0x00, 0x00, 0x95, 0x3F, 0x50, 0x81, 0x70, 0x85,
    0x3F, 0x00, 0x00, 0x95, 0x31, 0x50, 0x83, 0x60, 0x85, 0x31, 0x00, 0x00, 0x95, 0x3F, 0x50, 0x81,
    0x70, 0x85, 0x3F, 0x00, 0x00, 0x95, 0x3F, 0x50, 0x81, 0x70, 0x85, 0x3F, 0x00, 0x81, 0x70, 0x95,
    0x3F, 0x50, 0x81, 0x70, 0x85, 0x3F, 0x00, 0x00, 0x95, 0x3D, 0x50, 0x81, 0x70, 0x85, 0x3D, 0x00,
    0x00, 0x95, 0x3F, 0x50, 0x81, 0x70, 0x85, 0x3F, 0x00, 0x00, 0x95, 0x31, 0x50, 0x83, 0x60, 0x85,
    0x31, 0x00, 0x00, 0x95, 0x3F, 0x50, 0x81, 0x70, 0x85, 0x3F, 0x00, 0x00, 0x95, 0x3F, 0x50, 0x81,
    0x70, 0x85, 0x3F, 0x00, 0x81, 0x70, 0x95, 0x3F, 0x50, 0x81, 0x70, 0x85, 0x3F, 0x00, 0x00, 0x95,
    0x3D, 0x50, 0x81, 0x70, 0x85, 0x3D, 0x00, 0x00, 0x95, 0x3F, 0x50, 0x81, 0x70, 0x85, 0x3F, 0x00,
    0x00, 0x95, 0x33, 0x50, 0x83, 0x60, 0x85, 0x33, 0x00, 0x00, 0x95, 0x3F, 0x50, 0x81, 0x70, 0x85,
    0x3F, 0x00, 0x00, 0x95, 0x3F, 0x50, 0x81, 0x70, 0x85, 0x3F, 0x00, 0x81, 0x70, 0x95, 0x3F, 0x50,
    0x81, 0x70, 0x85, 0x3F, 0x00, 0x00, 0x95, 0x3D, 0x50, 0x81, 0x70, 0x85, 0x3D, 0x00, 0x00, 0x95,
    0x3F, 0x50, 0x81, 0x70, 0x85, 0x3F, 0x00, 0x00, 0x95, 0x33, 0x50, 0x83, 0x60, 0x85, 0x33, 0x00,
    0x00, 0x95, 0x3F, 0x50, 0x81, 0x70, 0x85, 0x3F, 0x00, 0x00, 0x95, 0x3F, 0x50, 0x81, 0x70, 0x85,
    0x3F, 0x00, 0x81, 0x70, 0x95, 0x3F, 0x50, 0x81, 0x70, 0x85, 0x3F, 0x00, 0x00, 0x95, 0x3D, 0x50,
    0x81, 0x70, 0x85, 0x3D, 0x00, 0x00, 0x95, 0x3F, 0x50, 0x81, 0x70, 0x85, 0x3F, 0x00, 0x00, 0x95,
    0x33, 0x50, 0x83, 0x60, 0x85, 0x33, 0x00, 0x00, 0x95, 0x3F, 0x50, 0x81, 0x70, 0x85, 0x3F, 0x00,
    0x00, 0x95, 0x3F, 0x50, 0x81, 0x70, 0x85, 0x3F, 0x00, 0x81, 0x70, 0x95, 0x3F, 0x50, 0x81, 0x70,
    0x85, 0x3F, 0x00, 0x00, 0x95, 0x3D, 0x50, 0x81, 0x70, 0x85, 0x3D, 0x00, 0x00, 0x95, 0x3F, 0x50,
    0x81, 0x70, 0x85, 0x3F, 0x00, 0x00, 0x95, 0x38, 0x50, 0x83, 0x60, 0x85, 0x38, 0x00, 0x00, 0x95,
    0x3F, 0x50, 0x81, 0x70, 0x85, 0x3F, 0x00, 0x00, 0x95, 0x3F, 0x50, 0x81, 0x70, 0x85, 0x3F, 0x00,
    0x00, 0x95, 0x36, 0x50, 0x81, 0x70, 0x3F, 0x50, 0x81, 0x70, 0x85, 0x3F, 0x00, 0x00, 0x36, 0x00,
    0x00, 0x95, 0x3D, 0x50, 0x81, 0x70, 0x85, 0x3D, 0x00, 0x00, 0x95, 0x3F, 0x50, 0x81, 0x70, 0x85,
    0x3F, 0x00, 0x00, 0x95, 0x2F, 0x50, 0x83, 0x60, 0x85, 0x2F, 0x00, 0x00, 0x95, 0x3F, 0x50, 0x81,
    0x70, 0x85, 0x3F, 0x00, 0x00, 0x95, 0x3F, 0x50, 0x81, 0x70, 0x85, 0x3F, 0x00, 0x81, 0x70, 0x95,
    0x3F, 0x50, 0x81, 0x70, 0x85, 0x3F, 0x00, 0x00, 0x95, 0x3D, 0x50, 0x81, 0x70, 0x85, 0x3D, 0x00,
    0x00, 0x95, 0x3F, 0x50, 0x81, 0x70, 0x85, 0x3F, 0x00, 0x00, 0x95, 0x2F, 0x50, 0x83, 0x60, 0x85,
    0x2F, 0x00, 0x00, 0x95, 0x3F, 0x50, 0x81, 0x70, 0x85, 0x3F, 0x00, 0x00, 0x95, 0x3F, 0x50, 0x81,
    0x70, 0x85, 0x3F, 0x00, 0x81, 0x70, 0x95, 0x3F, 0x50, 0x81, 0x70, 0x85, 0x3F, 0x00, 0x00, 0x95,
    0x3D, 0x50, 0x81, 0x70, 0x85, 0x3D, 0x00, 0x00, 0x95, 0x3F, 0x50, 0x81, 0x70, 0x85, 0x3F, 0x00,
    0x00, 0x95, 0x31, 0x50, 0x83, 0x60, 0x85, 0x31, 0x00, 0x00, 0x95, 0x3F, 0x50, 0x81, 0x70, 0x85,
    0x3F, 0x00, 0x00, 0x95, 0x3F, 0x50, 0x81, 0x70, 0x85, 0x3F, 0x00, 0x81, 0x70, 0x95, 0x3F, 0x50,
    0x81, 0x70, 0x85, 0x3F, 0x00, 0x00, 0x95, 0x3D, 0x50, 0x81, 0x70, 0x85, 0x3D, 0x00, 0x00, 0x95,
    0x3F, 0x50, 0x81, 0x70, 0x85, 0x3F, 0x00, 0x00, 0x95, 0x31, 0x50, 0x83, 0x60, 0x85, 0x31, 0x00,
    0x00, 0x95, 0x3F, 0x50, 0x81, 0x70, 0x85, 0x3F, 0x00, 0x00, 0x95, 0x3F, 0x50, 0x81, 0x70, 0x85,
    0x3F, 0x00, 0x81, 0x70, 0x95, 0x3F, 0x50, 0x81, 0x70, 0x85, 0x3F, 0x00, 0x00, 0x95, 0x3D, 0x50,
    0x81, 0x70, 0x85, 0x3D, 0x00, 0x00, 0x95, 0x3F, 0x50, 0x81, 0x70, 0x85, 0x3F, 0x00, 0x00, 0x95,
    0x33, 0x50, 0x83, 0x60, 0x85, 0x33, 0x00, 0x00, 0x95, 0x3F, 0x50, 0x81, 0x70, 0x85, 0x3F, 0x00,
    0x00, 0x95, 0x3F, 0x50, 0x81, 0x70, 0x85, 0x3F, 0x00, 0x81, 0x70, 0x95, 0x3F, 0x50, 0x81, 0x70,
    0x85, 0x3F, 0x00, 0x00, 0x95, 0x3D, 0x50, 0x81, 0x70, 0x85, 0x3D, 0x00, 0x00, 0x95, 0x3F, 0x50,
    0x81, 0x70, 0x85, 0x3F, 0x00, 0x00, 0x95, 0x33, 0x50, 0x83, 0x60, 0x85, 0x33, 0x00, 0x00, 0x95,
    0x3F, 0x50, 0x81, 0x70, 0x85, 0x3F, 0x00, 0x00, 0x95, 0x3F, 0x50, 0x81, 0x70, 0x85, 0x3F, 0x00,
    0x81, 0x70, 0x95, 0x3F, 0x50, 0x81, 0x70, 0x85, 0x3F, 0x00, 0x00, 0x95, 0x3D, 0x50, 0x81, 0x70,
    0x85, 0x3D, 0x00, 0x00, 0x95, 0x3F, 0x50, 0x81, 0x70, 0x85, 0x3F, 0x00, 0x00, 0x95, 0x33, 0x50,
    0x83, 0x60, 0x85, 0x33, 0x00, 0x00, 0x95, 0x3F, 0x50, 0x81, 0x70, 0x85, 0x3F, 0x00, 0x00, 0x95,
    0x3F, 0x50, 0x81, 0x70, 0x85, 0x3F, 0x00, 0x81, 0x70, 0x95, 0x3F, 0x50, 0x81, 0x70, 0x85, 0x3F,
    0x00, 0x00, 0x95, 0x3D, 0x50, 0x81, 0x70, 0x85, 0x3D, 0x00, 0x00, 0x95, 0x3F, 0x50, 0x81, 0x70,
    0x85, 0x3F, 0x00, 0x00, 0x95, 0x38, 0x50, 0x83, 0x60, 0x85, 0x38, 0x00, 0x00, 0x95, 0x3F, 0x50,
    0x81, 0x70, 0x85, 0x3F, 0x00, 0x00, 0x95, 0x3F, 0x50, 0x81, 0x70, 0x85, 0x3F, 0x00, 0x00, 0x95,
    0x36, 0x50, 0x81, 0x70, 0x3F, 0x50, 0x81, 0x70, 0x85, 0x3F, 0x00, 0x00, 0x36, 0x00, 0x00, 0x95,
    0x3D, 0x50, 0x81, 0x70, 0x85, 0x3D, 0x00, 0x00, 0x95, 0x3F, 0x50, 0x81, 0x70, 0x85, 0x3F, 0x00,
    0x00, 0x95, 0x2F, 0x50, 0x83, 0x60, 0x85, 0x2F, 0x00, 0x00, 0x95, 0x3F, 0x50, 0x81, 0x70, 0x85,
    0x3F, 0x00, 0x00, 0x95, 0x3F, 0x50, 0x81, 0x70, 0x85, 0x3F, 0x00, 0x81, 0x70, 0x95, 0x3F, 0x50,
    0x81, 0x70, 0x85, 0x3F, 0x00, 0x00, 0x95, 0x3D, 0x50, 0x81, 0x70, 0x85, 0x3D, 0x00, 0x00, 0x95,
    0x3F, 0x50, 0x81, 0x70, 0x85, 0x3F, 0x00, 0x00, 0x95, 0x2F, 0x50, 0x83, 0x60, 0x85, 0x2F, 0x00,
    0x00, 0x95, 0x3F, 0x50, 0x81, 0x70, 0x85, 0x3F, 0x00, 0x00, 0x95, 0x3F, 0x50, 0x81, 0x70, 0x85,
    0x3F, 0x00, 0x81, 0x70, 0x95, 0x3F, 0x50, 0x81, 0x70, 0x85, 0x3F, 0x00, 0x00, 0x95, 0x3D, 0x50,
    0x81, 0x70, 0x85, 0x3D, 0x00, 0x00, 0x95, 0x3F, 0x50, 0x81, 0x70, 0x85, 0x3F, 0x00, 0x00, 0x95,
    0x31, 0x50, 0x83, 0x60, 0x85, 0x31, 0x00, 0x00, 0x95, 0x3F, 0x50, 0x81, 0x70, 0x85, 0x3F, 0x00,
    0x00, 0x95, 0x3F, 0x50, 0x81, 0x70, 0x85, 0x3F, 0x00, 0x81, 0x70, 0x95, 0x3F, 0x50, 0x81, 0x70,
    0x85, 0x3F, 0x00, 0x00, 0x95, 0x3D, 0x50, 0x81, 0x70, 0x85, 0x3D, 0x00, 0x00, 0x95, 0x3F, 0x50,
    0x81, 0x70, 0x85, 0x3F, 0x00, 0x00, 0x95, 0x31, 0x50, 0x83, 0x60, 0x85, 0x31, 0x00, 0x00, 0x95,
    0x3F, 0x50, 0x81, 0x70, 0x85, 0x3F, 0x00, 0x00, 0x95, 0x3F, 0x50, 0x81, 0x70, 0x85, 0x3F, 0x00,
    0x81, 0x70, 0x95, 0x3F, 0x50, 0x81, 0x70, 0x85, 0x3F, 0x00, 0x00, 0x95, 0x3D, 0x50, 0x81, 0x70,
    0x85, 0x3D, 0x00, 0x00, 0x95, 0x3F, 0x50, 0x81, 0x70, 0x85, 0x3F, 0x00, 0x00, 0x95, 0x33, 0x50,
    0x83, 0x60, 0x85, 0x33, 0x00, 0x00, 0x95, 0x3F, 0x50, 0x81, 0x70, 0x85, 0x3F, 0x00, 0x00, 0x95,
    0x3F, 0x50, 0x81, 0x70, 0x85, 0x3F, 0x00, 0x81, 0x70, 0x95, 0x3F, 0x50, 0x81, 0x70, 0x85, 0x3F,
    0x00, 0x00, 0x95, 0x3D, 0x50, 0x81, 0x70, 0x85, 0x3D, 0x00, 0x00, 0x95, 0x3F, 0x50, 0x81, 0x70,
    0x85, 0x3F, 0x00, 0x00, 0x95, 0x33, 0x50, 0x83, 0x60, 0x85, 0x33, 0x00, 0x00, 0x95, 0x3F, 0x50,
    0x81, 0x70, 0x85, 0x3F, 0x00, 0x00, 0x95, 0x3F, 0x50, 0x81, 0x70, 0x85, 0x3F, 0x00, 0x81, 0x70,
    0x95, 0x3F, 0x50, 0x81, 0x70, 0x85, 0x3F, 0x00, 0x00, 0x95, 0x3D, 0x50, 0x81, 0x70, 0x85, 0x3D,
    0x00, 0x00, 0x95, 0x3F, 0x50, 0x81, 0x70, 0x85, 0x3F, 0x00, 0x00, 0x95, 0x33, 0x50, 0x83, 0x60,
    0x85, 0x33, 0x00, 0x00, 0x95, 0x3F, 0x50, 0x81, 0x70, 0x85, 0x3F, 0x00, 0x00, 0x95, 0x3F, 0x50,
    0x81, 0x70, 0x85, 0x3F, 0x00, 0x81, 0x70, 0x95, 0x3F, 0x50, 0x81, 0x70, 0x85, 0x3F, 0x00, 0x00,
    0x95, 0x3D, 0x50, 0x81, 0x70, 0x85, 0x3D, 0x00, 0x00, 0x95, 0x3F, 0x50, 0x81, 0x70, 0x85, 0x3F,
    0x00, 0x00, 0x95, 0x38, 0x50, 0x83, 0x60, 0x85, 0x38, 0x00, 0x00, 0x95, 0x3F, 0x50, 0x81, 0x70,
    0x85, 0x3F, 0x00, 0x00, 0x95, 0x3F, 0x50, 0x81, 0x70, 0x85, 0x3F, 0x00, 0x00, 0x95, 0x36, 0x50,
    0x81, 0x70, 0x3F, 0x50, 0x81, 0x70, 0x85, 0x3F, 0x00, 0x00, 0x36, 0x00, 0x00, 0x95, 0x3D, 0x50,
    0x81, 0x70, 0x85, 0x3D, 0x00, 0x00, 0x95, 0x3F, 0x50, 0x81, 0x70, 0x85, 0x3F, 0x00, 0x00, 0x95,
    0x2F, 0x50, 0x83, 0x60, 0x85, 0x2F, 0x00, 0x00, 0x95, 0x3F, 0x50, 0x81, 0x70, 0x85, 0x3F, 0x00,
    0x00, 0x95, 0x3F, 0x50, 0x81, 0x70, 0x85, 0x3F, 0x00, 0x81, 0x70, 0x95, 0x3F, 0x50, 0x81, 0x70,
    0x85, 0x3F, 0x00, 0x00, 0x95, 0x3D, 0x50, 0x81, 0x70, 0x85, 0x3D, 0x00, 0x00, 0x95, 0x3F, 0x50,
    0x81, 0x70, 0x85, 0x3F, 0x00, 0x00, 0x95, 0x2F, 0x50, 0x83, 0x60, 0x85, 0x2F, 0x00, 0x00, 0x95,
    0x3F, 0x50, 0x81, 0x70, 0x85, 0x3F, 0x00, 0x00, 0x95, 0x3F, 0x50, 0x81, 0x70, 0x85, 0x3F, 0x00,
    0x81, 0x70, 0x95, 0x3F, 0x50, 0x81, 0x70, 0x85, 0x3F, 0x00, 0x00, 0x95, 0x3D, 0x50, 0x81, 0x70,
    0x85, 0x3D, 0x00, 0x00, 0x95, 0x3F, 0x50, 0x81, 0x70, 0x85, 0x3F, 0x00, 0x00, 0x95, 0x31, 0x50,
    0x83, 0x60, 0x85, 0x31, 0x00, 0x00, 0x95, 0x3F, 0x50, 0x81, 0x70, 0x85, 0x3F, 0x00, 0x00, 0x95,
    0x3F, 0x50, 0x81, 0x70, 0x85, 0x3F, 0x00, 0x81, 0x70, 0x95, 0x3F, 0x50, 0x81, 0x70, 0x85, 0x3F,
    0x00, 0x00, 0x95, 0x3D, 0x50, 0x81, 0x70, 0x85, 0x3D, 0x00, 0x00, 0x95, 0x3F, 0x50, 0x81, 0x70,
    0x85, 0x3F, 0x00, 0x00, 0x95, 0x31, 0x50, 0x83, 0x60, 0x85, 0x31, 0x00, 0x00, 0x95, 0x3F, 0x50,
    0x81, 0x70, 0x85, 0x3F, 0x00, 0x00, 0x95, 0x3F, 0x50, 0x81, 0x70, 0x85, 0x3F, 0x00, 0x81, 0x70,
    0x95, 0x3F, 0x50, 0x81, 0x70, 0x85, 0x3F, 0x00, 0x00, 0x95, 0x3D, 0x50, 0x81, 0x70, 0x85, 0x3D,
    0x00, 0x00, 0x95, 0x3F, 0x50, 0x81, 0x70, 0x85, 0x3F, 0x00, 0x00, 0x95, 0x33, 0x50, 0x83, 0x60,
    0x85, 0x33, 0x00, 0x00, 0x95, 0x3F, 0x50, 0x81, 0x70, 0x85, 0x3F, 0x00, 0x00, 0x95, 0x3F, 0x50,
    0x81, 0x70, 0x85, 0x3F, 0x00, 0x81, 0x70, 0x95, 0x3F, 0x50, 0x81, 0x70, 0x85, 0x3F, 0x00, 0x00,
    0x95, 0x3D, 0x50, 0x81, 0x70, 0x85, 0x3D, 0x00, 0x00, 0x95, 0x3F, 0x50, 0x81, 0x70, 0x85, 0x3F,
    0x00, 0x00, 0x95, 0x33, 0x50, 0x83, 0x60, 0x85, 0x33, 0x00, 0x00, 0x95, 0x3F, 0x50, 0x81, 0x70,
    0x85, 0x3F, 0x00, 0x00, 0x95, 0x3F, 0x50, 0x81, 0x70, 0x85, 0x3F, 0x00, 0x81, 0x70, 0x95, 0x3F,
    0x50, 0x81, 0x70, 0x85, 0x3F, 0x00, 0x00, 0x95, 0x3D, 0x50, 0x81, 0x70, 0x85, 0x3D, 0x00, 0x00,
    0x95, 0x3F, 0x50, 0x81, 0x70, 0x85, 0x3F, 0x00, 0x00, 0x95, 0x33, 0x50, 0x83, 0x60, 0x85, 0x33,
    0x00, 0x00, 0x95, 0x3F, 0x50, 0x81, 0x70, 0x85, 0x3F, 0x00, 0x00, 0x95, 0x3F, 0x50, 0x81, 0x70,
    0x85, 0x3F, 0x00, 0x81, 0x70, 0x95, 0x3F, 0x50, 0x81, 0x70, 0x85, 0x3F, 0x00, 0x00, 0x95, 0x3D,
    0x50, 0x81, 0x70, 0x85, 0x3D, 0x00, 0x00, 0x95, 0x3F, 0x50, 0x81, 0x70, 0x85, 0x3F, 0x00, 0x00,
    0x95, 0x38, 0x50, 0x83, 0x60, 0x85, 0x38, 0x00, 0x00, 0x95, 0x3F, 0x50, 0x81, 0x70, 0x85, 0x3F,
    0x00, 0x00, 0x95, 0x3F, 0x50, 0x81, 0x70, 0x85, 0x3F, 0x00, 0x00, 0x95, 0x36, 0x50, 0x81, 0x70,
    0x3F, 0x50, 0x81, 0x70, 0x85, 0x3F, 0x00, 0x00, 0x36, 0x00, 0x00, 0x95, 0x3D, 0x50, 0x81, 0x70,
    0x85, 0x3D, 0x00, 0x00, 0x95, 0x3F, 0x50, 0x81, 0x70, 0x85, 0x3F, 0x00, 0x83, 0xD1, 0x00, 0x95,
    0x44, 0x46, 0x87, 0x40, 0x85, 0x44, 0x00, 0x00, 0x95, 0x42, 0x46, 0x87, 0x40, 0x85, 0x42, 0x00,
    0x00, 0x95, 0x33, 0x50, 0x83, 0x60, 0x85, 0x33, 0x00, 0x00, 0x95, 0x3F, 0x50, 0x81, 0x70, 0x85,
    0x3F, 0x00, 0x00, 0x95, 0x3F, 0x50, 0x81, 0x70, 0x85, 0x3F, 0x00, 0x81, 0x70, 0x95, 0x3F, 0x50,
    0x81, 0x70, 0x85, 0x3F, 0x00, 0x00, 0x95, 0x3D, 0x50, 0x81, 0x70, 0x85, 0x3D, 0x00, 0x00, 0x95,
    0x3F, 0x50, 0x81, 0x70, 0x85, 0x3F, 0x00, 0x00, 0x95, 0x33, 0x50, 0x83, 0x60, 0x85, 0x33, 0x00,
    0x00, 0x95, 0x3F, 0x50, 0x81, 0x70, 0x85, 0x3F, 0x00, 0x00, 0x95, 0x3F, 0x50, 0x81, 0x70, 0x85,
    0x3F, 0x00, 0x81, 0x70, 0x95, 0x3F, 0x50, 0x81, 0x70, 0x85, 0x3F, 0x00, 0x00, 0x95, 0x3D, 0x50,
    0x81, 0x70, 0x85, 0x3D, 0x00, 0x00, 0x95, 0x3F, 0x50, 0x81, 0x70, 0x85, 0x3F, 0x00, 0x00, 0x95,
    0x33, 0x50, 0x83, 0x60, 0x85, 0x33, 0x00, 0x00, 0x95, 0x3F, 0x50, 0x81, 0x70, 0x85, 0x3F, 0x00,
    0x00, 0x95, 0x3F, 0x50, 0x81, 0x70, 0x85, 0x3F, 0x00, 0x81, 0x70, 0x95, 0x3F, 0x50, 0x81, 0x70,
    0x85, 0x3F, 0x00, 0x00, 0x95, 0x3D, 0x50, 0x81, 0x70, 0x85, 0x3D, 0x00, 0x00, 0x95, 0x3F, 0x50,
    0x81, 0x70, 0x85, 0x3F, 0x00, 0x00, 0x95, 0x33, 0x50, 0x83, 0x60, 0x85, 0x33, 0x00, 0x00, 0x95,
    0x3F, 0x50, 0x81, 0x70, 0x85, 0x3F, 0x00, 0x00, 0x95, 0x42, 0x50, 0x81, 0x70, 0x85, 0x42, 0x00,
    0x00, 0x95, 0x38, 0x50, 0x83, 0x60, 0x85, 0x38, 0x00, 0x00, 0x95, 0x42, 0x50, 0x81, 0x70, 0x85,
    0x42, 0x00, 0x00, 0x95, 0x44, 0x50, 0x81, 0x70, 0x85, 0x44, 0x00, 0x00, 0x95, 0x33, 0x50, 0x83,
    0x60, 0x85, 0x33, 0x00, 0x00, 0x95, 0x3F, 0x50, 0x81, 0x70, 0x85, 0x3F, 0x00, 0x00, 0x95, 0x3F,
    0x50, 0x81, 0x70, 0x85, 0x3F, 0x00, 0x81, 0x70, 0x95, 0x3F, 0x50, 0x81, 0x70, 0x85, 0x3F, 0x00,
    0x00, 0x95, 0x3D, 0x50, 0x81, 0x70, 0x85, 0x3D, 0x00, 0x00, 0x95, 0x3F, 0x50, 0x81, 0x70, 0x85,
    0x3F, 0x00, 0x00, 0x95, 0x33, 0x50, 0x83, 0x60, 0x85, 0x33, 0x00, 0x00, 0x95, 0x3F, 0x50, 0x81,
    0x70, 0x85, 0x3F, 0x00, 0x00, 0x95, 0x3F, 0x50, 0x81, 0x70, 0x85, 0x3F, 0x00, 0x81, 0x70, 0x95,
    0x3F, 0x50, 0x81, 0x70, 0x85, 0x3F, 0x00, 0x00, 0x95, 0x3D, 0x50, 0x81, 0x70, 0x85, 0x3D, 0x00,
    0x00, 0x95, 0x3F, 0x50, 0x81, 0x70, 0x85, 0x3F, 0x00, 0x00, 0x95, 0x33, 0x50, 0x83, 0x60, 0x85,
    0x33, 0x00, 0x00, 0x95, 0x3F, 0x50, 0x81, 0x70, 0x85, 0x3F, 0x00, 0x00, 0x95, 0x3F, 0x50, 0x81,
    0x70, 0x85, 0x3F, 0x00, 0x81, 0x70, 0x95, 0x3F, 0x50, 0x81, 0x70, 0x85, 0x3F, 0x00, 0x00, 0x95,
    0x3D, 0x50, 0x81, 0x70, 0x85, 0x3D, 0x00, 0x00, 0x95, 0x3F, 0x50, 0x81, 0x70, 0x85, 0x3F, 0x00,
    0x00, 0x95, 0x38, 0x50, 0x83, 0x60, 0x85, 0x38, 0x00, 0x00, 0x95, 0x42, 0x50, 0x81, 0x70, 0x85,
    0x42, 0x00, 0x00, 0x95, 0x44, 0x50, 0x81, 0x70, 0x85, 0x44, 0x00, 0x00, 0x95, 0x36, 0x50, 0x83,
    0x60, 0x85, 0x36, 0x00, 0x00, 0x95, 0x3F, 0x50, 0x81, 0x70, 0x85, 0x3F, 0x00, 0x00, 0x95, 0x42,
    0x50, 0x81, 0x70, 0x85, 0x42, 0x00, 0x00, 0x95, 0x33, 0x50, 0x83, 0x60, 0x85, 0x33, 0x00, 0x00,
    0x95, 0x3F, 0x50, 0x81, 0x70, 0x85, 0x3F, 0x00, 0x00, 0x95, 0x3F, 0x50, 0x81, 0x70, 0x85, 0x3F,
    0x00, 0x81, 0x70, 0x95, 0x3F, 0x50, 0x81, 0x70, 0x85, 0x3F, 0x00, 0x00, 0x95, 0x3D, 0x50, 0x81,
    0x70, 0x85, 0x3D, 0x00, 0x00, 0x95, 0x3F, 0x50, 0x81, 0x70, 0x85, 0x3F, 0x00, 0x00, 0x95, 0x33,
    0x50, 0x83, 0x60, 0x85, 0x33, 0x00, 0x00, 0x95, 0x3F, 0x50, 0x81, 0x70, 0x85, 0x3F, 0x00, 0x00,
    0x95, 0x3F, 0x50, 0x81, 0x70, 0x85, 0x3F, 0x00, 0x81, 0x70, 0x95, 0x3F, 0x50, 0x81, 0x70, 0x85,
    0x3F, 0x00, 0x00, 0x95, 0x3D, 0x50, 0x81, 0x70, 0x85, 0x3D, 0x00, 0x00, 0x95, 0x3F, 0x50, 0x81,
    0x70, 0x85, 0x3F, 0x00, 0x00, 0x95, 0x33, 0x50, 0x83, 0x60, 0x85, 0x33, 0x00, 0x00, 0x95, 0x3F,
    0x50, 0x81, 0x70, 0x85, 0x3F, 0x00, 0x00, 0x95, 0x3F, 0x50, 0x81, 0x70, 0x85, 0x3F, 0x00, 0x81,
    0x70, 0x95, 0x3F, 0x50, 0x81, 0x70, 0x85, 0x3F, 0x00, 0x00, 0x95, 0x3D, 0x50, 0x81, 0x70, 0x85,
    0x3D, 0x00, 0x00, 0x95, 0x3F, 0x50, 0x81, 0x70, 0x85, 0x3F, 0x00, 0x00, 0x95, 0x33, 0x50, 0x83,
    0x60, 0x85, 0x33, 0x00, 0x00, 0x95, 0x3F, 0x50, 0x81, 0x70, 0x85, 0x3F, 0x00, 0x00, 0x95, 0x42,
    0x50, 0x81, 0x70, 0x85, 0x42, 0x00, 0x00, 0x95, 0x38, 0x50, 0x83, 0x60, 0x85, 0x38, 0x00, 0x00,
    0x95, 0x42, 0x50, 0x81, 0x70, 0x85, 0x42, 0x00, 0x00, 0x95, 0x44, 0x50, 0x81, 0x70, 0x85, 0x44,
    0x00, 0x00, 0x95, 0x33, 0x50, 0x83, 0x60, 0x85, 0x33, 0x00, 0x00, 0x95, 0x3F, 0x50, 0x81, 0x70,
    0x85, 0x3F, 0x00, 0x00, 0x95, 0x3F, 0x50, 0x81, 0x70, 0x85, 0x3F, 0x00, 0x81, 0x70, 0x95, 0x3F,
    0x50, 0x81, 0x70, 0x85, 0x3F, 0x00, 0x00, 0x95, 0x3D, 0x50, 0x81, 0x70, 0x85, 0x3D, 0x00, 0x00,
    0x95, 0x3F, 0x50, 0x81, 0x70, 0x85, 0x3F, 0x00, 0x00, 0x95, 0x33, 0x50, 0x83, 0x60, 0x85, 0x33,
    0x00, 0x00, 0x95, 0x3F, 0x50, 0x81, 0x70, 0x85, 0x3F, 0x00, 0x00, 0x95, 0x3F, 0x50, 0x81, 0x70,
    0x85, 0x3F, 0x00, 0x81, 0x70, 0x95, 0x3F, 0x50, 0x81, 0x70, 0x85, 0x3F, 0x00, 0x00, 0x95, 0x3D,
    0x50, 0x81, 0x70, 0x85, 0x3D, 0x00, 0x00, 0x95, 0x3F, 0x50, 0x81, 0x70, 0x85, 0x3F, 0x00, 0x00,
    0x95, 0x33, 0x50, 0x83, 0x60, 0x85, 0x33, 0x00, 0x00, 0x95, 0x3F, 0x50, 0x81, 0x70, 0x85, 0x3F,
    0x00, 0x00, 0x95, 0x3F, 0x50, 0x81, 0x70, 0x85, 0x3F, 0x00, 0x81, 0x70, 0x95, 0x3F, 0x50, 0x81,
    0x70, 0x85, 0x3F, 0x00, 0x00, 0x95, 0x3D, 0x50, 0x81, 0x70, 0x85, 0x3D, 0x00, 0x00, 0x95, 0x3F,
    0x50, 0x81, 0x70, 0x85, 0x3F, 0x00, 0x00, 0x95, 0x38, 0x50, 0x82, 0x40, 0x85, 0x38, 0x00, 0x00,
    0x95, 0x42, 0x50, 0x82, 0x40, 0x85, 0x42, 0x00, 0x00, 0x95, 0x44, 0x50, 0x82, 0x40, 0x85, 0x44,
    0x00, 0x00, 0x95, 0x36, 0x50, 0x82, 0x40, 0x85, 0x36, 0x00, 0x00, 0x95, 0x3F, 0x50, 0x82, 0x40,
    0x85, 0x3F, 0x00, 0x00, 0x95, 0x42, 0x50, 0x82, 0x40, 0x85, 0x42, 0x00, 0x00, 0x95, 0x33, 0x50,
    0x83, 0x60, 0x85, 0x33, 0x00, 0x00, 0x95, 0x3F, 0x50, 0x81, 0x70, 0x85, 0x3F, 0x00, 0x00, 0x95,
    0x3F, 0x50, 0x81, 0x70, 0x85, 0x3F, 0x00, 0x81, 0x70, 0x95, 0x3F, 0x50, 0x81, 0x70, 0x85, 0x3F,
    0x00, 0x00, 0x95, 0x3D, 0x50, 0x81, 0x70, 0x85, 0x3D, 0x00, 0x00, 0x95, 0x3F, 0x50, 0x81, 0x70,
    0x85, 0x3F, 0x00, 0x00, 0x95, 0x33, 0x50, 0x83, 0x60, 0x85, 0x33, 0x00, 0x00, 0x95, 0x3F, 0x50,
    0x81, 0x70, 0x85, 0x3F, 0x00, 0x00, 0x95, 0x3F, 0x50, 0x81, 0x70, 0x85, 0x3F, 0x00, 0x81, 0x70,
    0x95, 0x3F, 0x50, 0x81, 0x70, 0x85, 0x3F, 0x00, 0x00, 0x95, 0x3D, 0x50, 0x81, 0x70, 0x85, 0x3D,
    0x00, 0x00, 0x95, 0x3F, 0x50, 0x81, 0x70, 0x85, 0x3F, 0x00, 0x00, 0x95, 0x33, 0x50, 0x83, 0x60,
    0x85, 0x33, 0x00, 0x00, 0x95, 0x3F, 0x50, 0x81, 0x70, 0x85, 0x3F, 0x00, 0x00, 0x95, 0x3F, 0x50,
    0x81, 0x70, 0x85, 0x3F, 0x00, 0x81, 0x70, 0x95, 0x3F, 0x50, 0x81, 0x70, 0x85, 0x3F, 0x00, 0x00,
    0x95, 0x3D, 0x50, 0x81, 0x70, 0x85, 0x3D, 0x00, 0x00, 0x95, 0x3F, 0x50, 0x81, 0x70, 0x85, 0x3F,
    0x00, 0x00, 0x95, 0x33, 0x50, 0x83, 0x60, 0x85, 0x33, 0x00, 0x00, 0x95, 0x3F, 0x50, 0x81, 0x70,
    0x85, 0x3F, 0x00, 0x00, 0x95, 0x42, 0x50, 0x81, 0x70, 0x85, 0x42, 0x00, 0x00, 0x95, 0x38, 0x50,
    0x83, 0x60, 0x85, 0x38, 0x00, 0x00, 0x95, 0x42, 0x50, 0x81, 0x70, 0x85, 0x42, 0x00, 0x00, 0x95,
    0x44, 0x50, 0x81, 0x70, 0x85, 0x44, 0x00, 0x00, 0x95, 0x2F, 0x50, 0x83, 0x60, 0x85, 0x2F, 0x00,
    0x00, 0x95, 0x3F, 0x50, 0x81, 0x70, 0x85, 0x3F, 0x00, 0x00, 0x95, 0x3F, 0x50, 0x81, 0x70, 0x85,
    0x3F, 0x00, 0x81, 0x70, 0x95, 0x3F, 0x50, 0x81, 0x70, 0x85, 0x3F, 0x00, 0x00, 0x95, 0x3D, 0x50,
    0x81, 0x70, 0x85, 0x3D, 0x00, 0x00, 0x95, 0x3F, 0x50, 0x81, 0x70, 0x85, 0x3F, 0x00, 0x00, 0x95,
    0x2F, 0x50, 0x83, 0x60, 0x85, 0x2F, 0x00, 0x00, 0x95, 0x3F, 0x50, 0x81, 0x70, 0x85, 0x3F, 0x00,
    0x00, 0x95, 0x3F, 0x50, 0x81, 0x70, 0x85, 0x3F, 0x00, 0x81, 0x70, 0x95, 0x3F, 0x50, 0x81, 0x70,
    0x85, 0x3F, 0x00, 0x00, 0x95, 0x3D, 0x50, 0x81, 0x70, 0x85, 0x3D, 0x00, 0x00, 0x95, 0x3F, 0x50,
    0x81, 0x70, 0x85, 0x3F, 0x00, 0x00, 0x95, 0x31, 0x50, 0x83, 0x60, 0x85, 0x31, 0x00, 0x00, 0x95,
    0x3F, 0x50, 0x81, 0x70, 0x85, 0x3F, 0x00, 0x00, 0x95, 0x3F, 0x50, 0x81, 0x70, 0x85, 0x3F, 0x00,
    0x81, 0x70, 0x95, 0x3F, 0x50, 0x81, 0x70, 0x85, 0x3F, 0x00, 0x00, 0x95, 0x3D, 0x50, 0x81, 0x70,
    0x85, 0x3D, 0x00, 0x00, 0x95, 0x3F, 0x50, 0x81, 0x70, 0x85, 0x3F, 0x00, 0x00, 0x95, 0x33, 0x50,
    0x83, 0x60, 0x85, 0x33, 0x00, 0x00, 0x95, 0x3F, 0x50, 0x81, 0x70, 0x85, 0x3F, 0x00, 0x00, 0x95,
    0x42, 0x50, 0x81, 0x70, 0x85, 0x42, 0x00, 0x00, 0x95, 0x38, 0x50, 0x83, 0x60, 0x85, 0x38, 0x00,
    0x00, 0x95, 0x42, 0x50, 0x81, 0x70, 0x85, 0x42, 0x00, 0x00, 0x95, 0x44, 0x50, 0x81, 0x70, 0x85,
    0x44, 0x00, 0x00, 0x95, 0x33, 0x50, 0x83, 0x60, 0x85, 0x33, 0x00, 0x00, 0x95, 0x3F, 0x50, 0x81,
    0x70, 0x85, 0x3F, 0x00, 0x00, 0x95, 0x3F, 0x50, 0x81, 0x70, 0x85, 0x3F, 0x00, 0x81, 0x70, 0x95,
    0x3F, 0x50, 0x81, 0x70, 0x85, 0x3F, 0x00, 0x00, 0x95, 0x3D, 0x50, 0x81, 0x70, 0x85, 0x3D, 0x00,
    0x00, 0x95, 0x3F, 0x50, 0x81, 0x70, 0x85, 0x3F, 0x00, 0x00, 0x95, 0x33, 0x50, 0x83, 0x60, 0x85,
    0x33, 0x00, 0x00, 0x95, 0x3F, 0x50, 0x81, 0x70, 0x85, 0x3F, 0x00, 0x00, 0x95, 0x3F, 0x50, 0x81,
    0x70, 0x85, 0x3F, 0x00, 0x81, 0x70, 0x95, 0x3F, 0x50, 0x81, 0x70, 0x85, 0x3F, 0x00, 0x00, 0x95,
    0x3D, 0x50, 0x81, 0x70, 0x85, 0x3D, 0x00, 0x00, 0x95, 0x3F, 0x50, 0x81, 0x70, 0x85, 0x3F, 0x00,
    0x00, 0x95, 0x33, 0x50, 0x83, 0x60, 0x85, 0x33, 0x00, 0x00, 0x95, 0x3F, 0x50, 0x81, 0x70, 0x85,
    0x3F, 0x00, 0x00, 0x95, 0x3F, 0x50, 0x81, 0x70, 0x85, 0x3F, 0x00, 0x81, 0x70, 0x95, 0x3F, 0x50,
    0x81, 0x70, 0x85, 0x3F, 0x00, 0x00, 0x95, 0x3D, 0x50, 0x81, 0x70, 0x85, 0x3D, 0x00, 0x00, 0x95,
    0x3F, 0x50, 0x81, 0x70, 0x85, 0x3F, 0x00, 0x00, 0x95, 0x33, 0x50, 0x83, 0x60, 0x85, 0x33, 0x00,
    0x00, 0x95, 0x3F, 0x50, 0x81, 0x70, 0x85, 0x3F, 0x00, 0x00, 0x95, 0x42, 0x50, 0x81, 0x70, 0x85,
    0x42, 0x00, 0x00, 0x95, 0x38, 0x50, 0x83, 0x60, 0x85, 0x38, 0x00, 0x00, 0x95, 0x42, 0x50, 0x81,
    0x70, 0x85, 0x42, 0x00, 0x00, 0x95, 0x44, 0x50, 0x81, 0x70, 0x85, 0x44, 0x00, 0x00, 0x95, 0x2F,
    0x50, 0x83, 0x60, 0x85, 0x2F, 0x00, 0x00, 0x95, 0x3F, 0x50, 0x81, 0x70, 0x85, 0x3F, 0x00, 0x00,
    0x95, 0x3F, 0x50, 0x81, 0x70, 0x85, 0x3F, 0x00, 0x81, 0x70, 0x95, 0x3F, 0x50, 0x81, 0x70, 0x85,
    0x3F, 0x00, 0x00, 0x95, 0x3D, 0x50, 0x81, 0x70, 0x85, 0x3D, 0x00, 0x00, 0x95, 0x3F, 0x50, 0x81,
    0x70, 0x85, 0x3F, 0x00, 0x00, 0x95, 0x2F, 0x50, 0x83, 0x60, 0x85, 0x2F, 0x00, 0x00, 0x95, 0x3F,
    0x50, 0x81, 0x70, 0x85, 0x3F, 0x00, 0x00, 0x95, 0x3F, 0x50, 0x81, 0x70, 0x85, 0x3F, 0x00, 0x81,
    0x70, 0x95, 0x3F, 0x50, 0x81, 0x70, 0x85, 0x3F, 0x00, 0x00, 0x95, 0x3D, 0x50, 0x81, 0x70, 0x85,
    0x3D, 0x00, 0x00, 0x95, 0x3F, 0x50, 0x81, 0x70, 0x85, 0x3F, 0x00, 0x00, 0x95, 0x31, 0x50, 0x83,
    0x60, 0x85, 0x31, 0x00, 0x00, 0x95, 0x3F, 0x50, 0x81, 0x70, 0x85, 0x3F, 0x00, 0x00, 0x95, 0x3F,
    0x50, 0x81, 0x70, 0x85, 0x3F, 0x00, 0x81, 0x70, 0x95, 0x3F, 0x50, 0x81, 0x70, 0x85, 0x3F, 0x00,
    0x00, 0x95, 0x3D, 0x50, 0x81, 0x70, 0x85, 0x3D, 0x00, 0x00, 0x95, 0x3F, 0x50, 0x81, 0x70, 0x85,
    0x3F, 0x00, 0x00, 0x95, 0x33, 0x50, 0x83, 0x60, 0x85, 0x33, 0x00, 0x00, 0x95, 0x3F, 0x50, 0x81,
    0x70, 0x85, 0x3F, 0x00, 0x00, 0x95, 0x42, 0x50, 0x81, 0x70, 0x85, 0x42, 0x00, 0x00, 0x95, 0x38,
    0x50, 0x83, 0x60, 0x85, 0x38, 0x00, 0x00, 0x95, 0x42, 0x50, 0x81, 0x70, 0x85, 0x42, 0x00, 0x00,
    0x95, 0x44, 0x50, 0x81, 0x70, 0x85, 0x44, 0x00, 0x00, 0x95, 0x33, 0x50, 0x83, 0x60, 0x85, 0x33,
    0x00, 0x00, 0x95, 0x3F, 0x50, 0x81, 0x70, 0x85, 0x3F, 0x00, 0x00, 0x95, 0x3F, 0x50, 0x81, 0x70,
    0x85, 0x3F, 0x00, 0x81, 0x70, 0x95, 0x3F, 0x50, 0x81, 0x70, 0x85, 0x3F, 0x00, 0x00, 0x95, 0x3D,
    0x50, 0x81, 0x70, 0x85, 0x3D, 0x00, 0x00, 0x95, 0x3F, 0x50, 0x81, 0x70, 0x85, 0x3F, 0x00, 0x00,
    0x95, 0x33, 0x50, 0x83, 0x60, 0x85, 0x33, 0x00, 0x00, 0x95, 0x3F, 0x50, 0x81, 0x70, 0x85, 0x3F,
    0x00, 0x00, 0x95, 0x3F, 0x50, 0x81, 0x70, 0x85, 0x3F, 0x00, 0x81, 0x70, 0x95, 0x3F, 0x50, 0x81,
    0x70, 0x85, 0x3F, 0x00, 0x00, 0x95, 0x3D, 0x50, 0x81, 0x70, 0x85, 0x3D, 0x00, 0x00, 0x95, 0x3F,
    0x50, 0x81, 0x70, 0x85, 0x3F, 0x00, 0x00, 0x95, 0x33, 0x50, 0x83, 0x60, 0x85, 0x33, 0x00, 0x00,
    0x95, 0x3F, 0x50, 0x81, 0x70, 0x85, 0x3F, 0x00, 0x00, 0x95, 0x3F, 0x50, 0x81, 0x70, 0x85, 0x3F,
    0x00, 0x81, 0x70, 0x95, 0x3F, 0x50, 0x81, 0x70, 0x85, 0x3F, 0x00, 0x00, 0x95, 0x3D, 0x50, 0x81,
    0x70, 0x85, 0x3D, 0x00, 0x00, 0x95, 0x3F, 0x50, 0x81, 0x70, 0x85, 0x3F, 0x00, 0x00, 0x95, 0x33,
    0x50, 0x83, 0x60, 0x85, 0x33, 0x00, 0x00, 0x95, 0x3F, 0x50, 0x81, 0x70, 0x85, 0x3F, 0x00, 0x00,
    0x95, 0x42, 0x50, 0x81, 0x70, 0x85, 0x42, 0x00, 0x00, 0x95, 0x38, 0x50, 0x83, 0x60, 0x85, 0x38,
    0x00, 0x00, 0x95, 0x42, 0x50, 0x81, 0x70, 0x85, 0x42, 0x00, 0x00, 0x95, 0x44, 0x50, 0x81, 0x70,
    0x85, 0x44, 0x00, 0x00, 0x95, 0x2F, 0x50, 0x83, 0x60, 0x85, 0x2F, 0x00, 0x00, 0x95, 0x3F, 0x50,
    0x81, 0x70, 0x85, 0x3F, 0x00, 0x00, 0x95, 0x3F, 0x50, 0x81, 0x70, 0x85, 0x3F, 0x00, 0x81, 0x70,
    0x95, 0x3F, 0x50, 0x81, 0x70, 0x85, 0x3F, 0x00, 0x00, 0x95, 0x3D, 0x50, 0x81, 0x70, 0x85, 0x3D,
    0x00, 0x00, 0x95, 0x3F, 0x50, 0x81, 0x70, 0x85, 0x3F, 0x00, 0x00, 0x95, 0x2F, 0x50, 0x83, 0x60,
    0x85, 0x2F, 0x00, 0x00, 0x95, 0x3F, 0x50, 0x81, 0x70, 0x85, 0x3F, 0x00, 0x00, 0x95, 0x3F, 0x50,
    0x81, 0x70, 0x85, 0x3F, 0x00, 0x81, 0x70, 0x95, 0x3F, 0x50, 0x81, 0x70, 0x85, 0x3F, 0x00, 0x00,
    0x95, 0x3D, 0x50, 0x81, 0x70, 0x85, 0x3D, 0x00, 0x00, 0x95, 0x3F, 0x50, 0x81, 0x70, 0x85, 0x3F,
    0x00, 0x00, 0x95, 0x31, 0x50, 0x83, 0x60, 0x85, 0x31, 0x00, 0x00, 0x95, 0x3F, 0x50, 0x81, 0x70,
    0x85, 0x3F, 0x00, 0x00, 0x95, 0x3F, 0x50, 0x81, 0x70, 0x85, 0x3F, 0x00, 0x81, 0x70, 0x95, 0x3F,
    0x50, 0x81, 0x70, 0x85, 0x3F, 0x00, 0x00, 0x95, 0x3D, 0x50, 0x81, 0x70, 0x85, 0x3D, 0x00, 0x00,
    0x95, 0x3F, 0x50, 0x81, 0x70, 0x85, 0x3F, 0x00, 0x00, 0x95, 0x33, 0x50, 0x83, 0x60, 0x85, 0x33,
    0x00, 0x00, 0x95, 0x3F, 0x50, 0x81, 0x70, 0x85, 0x3F, 0x00, 0x00, 0x95, 0x42, 0x50, 0x81, 0x70,
    0x85, 0x42, 0x00, 0x00, 0x95, 0x38, 0x50, 0x83, 0x60, 0x85, 0x38, 0x00, 0x00, 0x95, 0x42, 0x50,
    0x81, 0x70, 0x85, 0x42, 0x00, 0x00, 0x95, 0x44, 0x50, 0x81, 0x70, 0x85, 0x44, 0x00, 0x00, 0x95,
    0x33, 0x50, 0x83, 0x60, 0x85, 0x33, 0x00, 0x00, 0x95, 0x3F, 0x50, 0x81, 0x70, 0x85, 0x3F, 0x00,
    0x00, 0x95, 0x3F, 0x50, 0x81, 0x70, 0x85, 0x3F, 0x00, 0x81, 0x70, 0x95, 0x3F, 0x50, 0x81, 0x70,
    0x85, 0x3F, 0x00, 0x00, 0x95, 0x3D, 0x50, 0x81, 0x70, 0x85, 0x3D, 0x00, 0x00, 0x95, 0x3F, 0x50,
    0x81, 0x70, 0x85, 0x3F, 0x00, 0x00, 0x95, 0x33, 0x50, 0x83, 0x60, 0x85, 0x33, 0x00, 0x00, 0x95,
    0x3F, 0x50, 0x81, 0x70, 0x85, 0x3F, 0x00, 0x00, 0x95, 0x3F, 0x50, 0x81, 0x70, 0x85, 0x3F, 0x00,
    0x81, 0x70, 0x95, 0x3F, 0x50, 0x81, 0x70, 0x85, 0x3F, 0x00, 0x00, 0x95, 0x3D, 0x50, 0x81, 0x70,
    0x85, 0x3D, 0x00, 0x00, 0x95, 0x3F, 0x50, 0x81, 0x70, 0x85, 0x3F, 0x00, 0x00, 0x95, 0x33, 0x50,
    0x83, 0x60, 0x85, 0x33, 0x00, 0x00, 0x95, 0x3F, 0x50, 0x81, 0x70, 0x85, 0x3F, 0x00, 0x00, 0x95,
    0x3F, 0x50, 0x81, 0x70, 0x85, 0x3F, 0x00, 0x81, 0x70, 0x95, 0x3F, 0x50, 0x81, 0x70, 0x85, 0x3F,
    0x00, 0x00, 0x95, 0x3D, 0x50, 0x81, 0x70, 0x85, 0x3D, 0x00, 0x00, 0x95, 0x3F, 0x50, 0x81, 0x70,
    0x85, 0x3F, 0x00, 0x00, 0x95, 0x33, 0x50, 0x83, 0x60, 0x85, 0x33, 0x00, 0x00, 0x95, 0x3F, 0x50,
    0x81, 0x70, 0x85, 0x3F, 0x00, 0x00, 0x95, 0x42, 0x50, 0x81, 0x70, 0x85, 0x42, 0x00, 0x00, 0x95,
    0x38, 0x50, 0x83, 0x60, 0x85, 0x38, 0x00, 0x00, 0x95, 0x42, 0x50, 0x81, 0x70, 0x85, 0x42, 0x00,
    0x00, 0x95, 0x44, 0x50, 0x81, 0x70, 0x85, 0x44, 0x00, 0x00, 0x95, 0x2F, 0x50, 0x83, 0x60, 0x85,
    0x2F, 0x00, 0x00, 0x95, 0x3F, 0x50, 0x81, 0x70, 0x85, 0x3F, 0x00, 0x00, 0x95, 0x3F, 0x50, 0x81,
    0x70, 0x85, 0x3F, 0x00, 0x81, 0x70, 0x95, 0x3F, 0x50, 0x81, 0x70, 0x85, 0x3F, 0x00, 0x00, 0x95,
    0x3D, 0x50, 0x81, 0x70, 0x85, 0x3D, 0x00, 0x00, 0x95, 0x3F, 0x50, 0x81, 0x70, 0x85, 0x3F, 0x00,
    0x00, 0x95, 0x2F, 0x50, 0x83, 0x60, 0x85, 0x2F, 0x00, 0x00, 0x95, 0x3F, 0x50, 0x81, 0x70, 0x85,
    0x3F, 0x00, 0x00, 0x95, 0x3F, 0x50, 0x81, 0x70, 0x85, 0x3F, 0x00, 0x81, 0x70, 0x95, 0x3F, 0x50,
    0x81, 0x70, 0x85, 0x3F, 0x00, 0x00, 0x95, 0x3D, 0x50, 0x81, 0x70, 0x85, 0x3D, 0x00, 0x00, 0x95,
    0x3F, 0x50, 0x81, 0x70, 0x85, 0x3F, 0x00, 0x00, 0x95, 0x31, 0x50, 0x83, 0x60, 0x85, 0x31, 0x00,
    0x00, 0x95, 0x3F, 0x50, 0x81, 0x70, 0x85, 0x3F, 0x00, 0x00, 0x95, 0x3F, 0x50, 0x81, 0x70, 0x85,
    0x3F, 0x00, 0x81, 0x70, 0x95, 0x3F, 0x50, 0x81, 0x70, 0x85, 0x3F, 0x00, 0x00, 0x95, 0x3D, 0x50,
    0x81, 0x70, 0x85, 0x3D, 0x00, 0x00, 0x95, 0x3F, 0x50, 0x81, 0x70, 0x85, 0x3F, 0x00, 0x00, 0x95,
    0x33, 0x50, 0x83, 0x60, 0x85, 0x33, 0x00, 0x00, 0x95, 0x3F, 0x50, 0x81, 0x70, 0x85, 0x3F, 0x00,
    0x00, 0x95, 0x42, 0x50, 0x81, 0x70, 0x85, 0x42, 0x00, 0x00, 0x95, 0x38, 0x50, 0x83, 0x60, 0x85,
    0x38, 0x00, 0x00, 0x95, 0x42, 0x50, 0x81, 0x70, 0x85, 0x42, 0x00, 0x00, 0x95, 0x44, 0x50, 0x81,
    0x70, 0x85, 0x44, 0x00, 0x00, 0x95, 0x2F, 0x50, 0x83, 0x60, 0x85, 0x2F, 0x00, 0x00, 0x95, 0x3F,
    0x50, 0x81, 0x70, 0x85, 0x3F, 0x00, 0x00, 0x95, 0x3F, 0x50, 0x81, 0x70, 0x85, 0x3F, 0x00, 0x81,
    0x70, 0x95, 0x3F, 0x50, 0x81, 0x70, 0x85, 0x3F, 0x00, 0x00, 0x95, 0x3D, 0x50, 0x81, 0x70, 0x85,
    0x3D, 0x00, 0x00, 0x95, 0x3F, 0x50, 0x81, 0x70, 0x85, 0x3F, 0x00, 0x00, 0x95, 0x2F, 0x50, 0x83,
    0x60, 0x85, 0x2F, 0x00, 0x00, 0x95, 0x3F, 0x50, 0x81, 0x70, 0x85, 0x3F, 0x00, 0x00, 0x95, 0x3F,
    0x50, 0x81, 0x70, 0x85, 0x3F, 0x00, 0x81, 0x70, 0x95, 0x3F, 0x50, 0x81, 0x70, 0x85, 0x3F, 0x00,
    0x00, 0x95, 0x3D, 0x50, 0x81, 0x70, 0x85, 0x3D, 0x00, 0x00, 0x95, 0x3F, 0x50, 0x81, 0x70, 0x85,
    0x3F, 0x00, 0x00, 0x95, 0x31, 0x50, 0x83, 0x60, 0x85, 0x31, 0x00, 0x00, 0x95, 0x3F, 0x50, 0x81,
    0x70, 0x85, 0x3F, 0x00, 0x00, 0x95, 0x3F, 0x50, 0x81, 0x70, 0x85, 0x3F, 0x00, 0x81, 0x70, 0x95,
    0x3F, 0x50, 0x81, 0x70, 0x85, 0x3F, 0x00, 0x00, 0x95, 0x3D, 0x50, 0x81, 0x70, 0x85, 0x3D, 0x00,
    0x00, 0x95, 0x3F, 0x50, 0x81, 0x70, 0x85, 0x3F, 0x00, 0x00, 0x95, 0x31, 0x50, 0x83, 0x60, 0x85,
    0x31, 0x00, 0x00, 0x95, 0x3F, 0x50, 0x81, 0x70, 0x85, 0x3F, 0x00, 0x00, 0x95, 0x3F, 0x50, 0x81,
    0x70, 0x85, 0x3F, 0x00, 0x81, 0x70, 0x95, 0x3F, 0x50, 0x81, 0x70, 0x85, 0x3F, 0x00, 0x00, 0x95,
    0x3D, 0x50, 0x81, 0x70, 0x85, 0x3D, 0x00, 0x00, 0x95, 0x3F, 0x50, 0x81, 0x70, 0x85, 0x3F, 0x00,
    0x00, 0x95, 0x33, 0x50, 0x83, 0x60, 0x85, 0x33, 0x00, 0x00, 0x95, 0x3F, 0x50, 0x81, 0x70, 0x85,
    0x3F, 0x00, 0x00, 0x95, 0x3F, 0x50, 0x81, 0x70, 0x85, 0x3F, 0x00, 0x81, 0x70, 0x95, 0x3F, 0x50,
    0x81, 0x70, 0x85, 0x3F, 0x00, 0x00, 0x95, 0x3D, 0x50, 0x81, 0x70, 0x85, 0x3D, 0x00, 0x00, 0x95,
    0x3F, 0x50, 0x81, 0x70, 0x85, 0x3F, 0x00, 0x00, 0x95, 0x33, 0x50, 0x83, 0x60, 0x85, 0x33, 0x00,
    0x00, 0x95, 0x3F, 0x50, 0x81, 0x70, 0x85, 0x3F, 0x00, 0x00, 0x95, 0x3F, 0x50, 0x81, 0x70, 0x85,
    0x3F, 0x00, 0x81, 0x70, 0x95, 0x3F, 0x50, 0x81, 0x70, 0x85, 0x3F, 0x00, 0x00, 0x95, 0x3D, 0x50,
    0x81, 0x70, 0x85, 0x3D, 0x00, 0x00, 0x95, 0x3F, 0x50, 0x81, 0x70, 0x85, 0x3F, 0x00, 0x00, 0x95,
    0x33, 0x50, 0x83, 0x60, 0x85, 0x33, 0x00, 0x00, 0x95, 0x3F, 0x50, 0x81, 0x70, 0x85, 0x3F, 0x00,
    0x00, 0x95, 0x3F, 0x50, 0x81, 0x70, 0x85, 0x3F, 0x00, 0x81, 0x70, 0x95, 0x3F, 0x50, 0x81, 0x70,
    0x85, 0x3F, 0x00, 0x00, 0x95, 0x3D, 0x50, 0x81, 0x70, 0x85, 0x3D, 0x00, 0x00, 0x95, 0x3F, 0x50,
    0x81, 0x70, 0x85, 0x3F, 0x00, 0x00, 0x95, 0x38, 0x50, 0x83, 0x60, 0x85, 0x38, 0x00, 0x00, 0x95,
    0x3F, 0x50, 0x81, 0x70, 0x85, 0x3F, 0x00, 0x00, 0x95, 0x3F, 0x50, 0x81, 0x70, 0x85, 0x3F, 0x00,
    0x00, 0x95, 0x36, 0x50, 0x81, 0x70, 0x3F, 0x50, 0x81, 0x70, 0x85, 0x3F, 0x00, 0x00, 0x36, 0x00,
    0x00, 0x95, 0x3D, 0x50, 0x81, 0x70, 0x85, 0x3D, 0x00, 0x00, 0x95, 0x3F, 0x50, 0x81, 0x70, 0x85,
    0x3F, 0x00, 0x00, 0x95, 0x2F, 0x50, 0x83, 0x60, 0x85, 0x2F, 0x00, 0x00, 0x95, 0x3F, 0x50, 0x81,
    0x70, 0x85, 0x3F, 0x00, 0x00, 0x95, 0x3F, 0x50, 0x81, 0x70, 0x85, 0x3F, 0x00, 0x81, 0x70, 0x95,
    0x3F, 0x50, 0x81, 0x70, 0x85, 0x3F, 0x00, 0x00, 0x95, 0x3D, 0x50, 0x81, 0x70, 0x85, 0x3D, 0x00,
    0x00, 0x95, 0x3F, 0x50, 0x81, 0x70, 0x85, 0x3F, 0x00, 0x00, 0x95, 0x2F, 0x50, 0x83, 0x60, 0x85,
    0x2F, 0x00, 0x00, 0x95, 0x3F, 0x50, 0x81, 0x70, 0x85, 0x3F, 0x00, 0x00, 0x95, 0x3F, 0x50, 0x81,
    0x70, 0x85, 0x3F, 0x00, 0x81, 0x70, 0x95, 0x3F, 0x50, 0x81, 0x70, 0x85, 0x3F, 0x00, 0x00, 0x95,
    0x3D, 0x50, 0x81, 0x70, 0x85, 0x3D, 0x00, 0x00, 0x95, 0x3F, 0x50, 0x81, 0x70, 0x85, 0x3F, 0x00,
    0x00, 0x95, 0x31, 0x50, 0x83, 0x60, 0x85, 0x31, 0x00, 0x00, 0x95, 0x3F, 0x50, 0x81, 0x70, 0x85,
    0x3F, 0x00, 0x00, 0x95, 0x3F, 0x50, 0x81, 0x70, 0x85, 0x3F, 0x00, 0x81, 0x70, 0x95, 0x3F, 0x50,
    0x81, 0x70, 0x85, 0x3F, 0x00, 0x00, 0x95, 0x3D, 0x50, 0x81, 0x70, 0x85, 0x3D, 0x00, 0x00, 0x95,
    0x3F, 0x50, 0x81, 0x70, 0x85, 0x3F, 0x00, 0x00, 0x95, 0x31, 0x50, 0x83, 0x60, 0x85, 0x31, 0x00,
    0x00, 0x95, 0x3F, 0x50, 0x81, 0x70, 0x85, 0x3F, 0x00, 0x00, 0x95, 0x3F, 0x50, 0x81, 0x70, 0x85,
    0x3F, 0x00, 0x81, 0x70, 0x95, 0x3F, 0x50, 0x81, 0x70, 0x85, 0x3F, 0x00, 0x00, 0x95, 0x3D, 0x50,
    0x81, 0x70, 0x85, 0x3D, 0x00, 0x00, 0x95, 0x3F, 0x50, 0x81, 0x70, 0x85, 0x3F, 0x00, 0x00, 0x95,
    0x33, 0x50, 0x83, 0x60, 0x85, 0x33, 0x00, 0x00, 0x95, 0x3F, 0x50, 0x81, 0x70, 0x85, 0x3F, 0x00,
    0x00, 0x95, 0x3F, 0x50, 0x81, 0x70, 0x85, 0x3F, 0x00, 0x81, 0x70, 0x95, 0x3F, 0x50, 0x81, 0x70,
    0x85, 0x3F, 0x00, 0x00, 0x95, 0x3D, 0x50, 0x81, 0x70, 0x85, 0x3D, 0x00, 0x00, 0x95, 0x3F, 0x50,
    0x81, 0x70, 0x85, 0x3F, 0x00, 0x00, 0x95, 0x33, 0x50, 0x83, 0x60, 0x85, 0x33, 0x00, 0x00, 0x95,
    0x3F, 0x50, 0x81, 0x70, 0x85, 0x3F, 0x00, 0x00, 0x95, 0x3F, 0x50, 0x81, 0x70, 0x85, 0x3F, 0x00,
    0x81, 0x70, 0x95, 0x3F, 0x50, 0x81, 0x70, 0x85, 0x3F, 0x00, 0x00, 0x95, 0x3D, 0x50, 0x81, 0x70,
    0x85, 0x3D, 0x00, 0x00, 0x95, 0x3F, 0x50, 0x81, 0x70, 0x85, 0x3F, 0x00, 0x00, 0x95, 0x33, 0x50,
    0x83, 0x60, 0x85, 0x33, 0x00, 0x00, 0x95, 0x3F, 0x50, 0x81, 0x70, 0x85, 0x3F, 0x00, 0x00, 0x95,
    0x3F, 0x50, 0x81, 0x70, 0x85, 0x3F, 0x00, 0x81, 0x70, 0x95, 0x3F, 0x50, 0x81, 0x70, 0x85, 0x3F,
    0x00, 0x00, 0x95, 0x3D, 0x50, 0x81, 0x70, 0x85, 0x3D, 0x00, 0x00, 0x95, 0x3F, 0x50, 0x81, 0x70,
    0x85, 0x3F, 0x00, 0x00, 0x95, 0x38, 0x50, 0x83, 0x60, 0x85, 0x38, 0x00, 0x00, 0x95, 0x3F, 0x50,
    0x81, 0x70, 0x85, 0x3F, 0x00, 0x00, 0x95, 0x3F, 0x50, 0x81, 0x70, 0x85, 0x3F, 0x00, 0x00, 0x95,
    0x36, 0x50, 0x81, 0x70, 0x3F, 0x50, 0x81, 0x70, 0x85, 0x3F, 0x00, 0x00, 0x36, 0x00, 0x00, 0x95,
    0x3D, 0x50, 0x81, 0x70, 0x85, 0x3D, 0x00, 0x00, 0x95, 0x3F, 0x50, 0x81, 0x70, 0x85, 0x3F, 0x00,
    0x00, 0x95, 0x2F, 0x50, 0x83, 0x60, 0x85, 0x2F, 0x00, 0x00, 0x95, 0x3F, 0x50, 0x81, 0x70, 0x85,
    0x3F, 0x00, 0x00, 0x95, 0x3F, 0x50, 0x81, 0x70, 0x85, 0x3F, 0x00, 0x81, 0x70, 0x95, 0x3F, 0x50,
    0x81, 0x70, 0x85, 0x3F, 0x00, 0x00, 0x95, 0x3D, 0x50, 0x81, 0x70, 0x85, 0x3D, 0x00, 0x00, 0x95,
    0x3F, 0x50, 0x81, 0x70, 0x85, 0x3F, 0x00, 0x00, 0x95, 0x2F, 0x50, 0x83, 0x60, 0x85, 0x2F, 0x00,
    0x00, 0x95, 0x3F, 0x50, 0x81, 0x70, 0x85, 0x3F, 0x00, 0x00, 0x95, 0x3F, 0x50, 0x81, 0x70, 0x85,
    0x3F, 0x00, 0x81, 0x70, 0x95, 0x3F, 0x50, 0x81, 0x70, 0x85, 0x3F, 0x00, 0x00, 0x95, 0x3D, 0x50,
    0x81, 0x70, 0x85, 0x3D, 0x00, 0x00, 0x95, 0x3F, 0x50, 0x81, 0x70, 0x85, 0x3F, 0x00, 0x00, 0x95,
    0x31, 0x50, 0x83, 0x60, 0x85, 0x31, 0x00, 0x00, 0x95, 0x3F, 0x50, 0x81, 0x70, 0x85, 0x3F, 0x00,
    0x00, 0x95, 0x3F, 0x50, 0x81, 0x70, 0x85, 0x3F, 0x00, 0x81, 0x70, 0x95, 0x3F, 0x50, 0x81, 0x70,
    0x85, 0x3F, 0x00, 0x00, 0x95, 0x3D, 0x50, 0x81, 0x70, 0x85, 0x3D, 0x00, 0x00, 0x95, 0x3F, 0x50,
    0x81, 0x70, 0x85, 0x3F, 0x00, 0x00, 0x95, 0x31, 0x50, 0x83, 0x60, 0x85, 0x31, 0x00, 0x00, 0x95,
    0x3F, 0x50, 0x81, 0x70, 0x85, 0x3F, 0x00, 0x00, 0x95, 0x3F, 0x50, 0x81, 0x70, 0x85, 0x3F, 0x00,
    0x81, 0x70, 0x95, 0x3F, 0x50, 0x81, 0x70, 0x85, 0x3F, 0x00, 0x00, 0x95, 0x3D, 0x50, 0x81, 0x70,
    0x85, 0x3D, 0x00, 0x00, 0x95, 0x3F, 0x50, 0x81, 0x70, 0x85, 0x3F, 0x00, 0x00, 0x95, 0x33, 0x50,
    0x83, 0x60, 0x85, 0x33, 0x00, 0x00, 0x95, 0x3F, 0x50, 0x81, 0x70, 0x85, 0x3F, 0x00, 0x00, 0x95,
    0x3F, 0x50, 0x81, 0x70, 0x85, 0x3F, 0x00, 0x81, 0x70, 0x95, 0x3F, 0x50, 0x81, 0x70, 0x85, 0x3F,
    0x00, 0x00, 0x95, 0x3D, 0x50, 0x81, 0x70, 0x85, 0x3D, 0x00, 0x00, 0x95, 0x3F, 0x50, 0x81, 0x70,
    0x85, 0x3F, 0x00, 0x00, 0x95, 0x33, 0x50, 0x83, 0x60, 0x85, 0x33, 0x00, 0x00, 0x95, 0x3F, 0x50,
    0x81, 0x70, 0x85, 0x3F, 0x00, 0x00, 0x95, 0x3F, 0x50, 0x81, 0x70, 0x85, 0x3F, 0x00, 0x81, 0x70,
    0x95, 0x3F, 0x50, 0x81, 0x70, 0x85, 0x3F, 0x00, 0x00, 0x95, 0x3D, 0x50, 0x81, 0x70, 0x85, 0x3D,
    0x00, 0x00, 0x95, 0x3F, 0x50, 0x81, 0x70, 0x85, 0x3F, 0x00, 0x00, 0x95, 0x33, 0x50, 0x83, 0x60,
    0x85, 0x33, 0x00, 0x00, 0x95, 0x3F, 0x50, 0x81, 0x70, 0x85, 0x3F, 0x00, 0x00, 0x95, 0x3F, 0x50,
    0x81, 0x70, 0x85, 0x3F, 0x00, 0x81, 0x70, 0x95, 0x3F, 0x50, 0x81, 0x70, 0x85, 0x3F, 0x00, 0x00,
    0x95, 0x3D, 0x50, 0x81, 0x70, 0x85, 0x3D, 0x00, 0x00, 0x95, 0x3F, 0x50, 0x81, 0x70, 0x85, 0x3F,
    0x00, 0x00, 0x95, 0x38, 0x50, 0x83, 0x60, 0x85, 0x38, 0x00, 0x00, 0x95, 0x3F, 0x50, 0x81, 0x70,
    0x85, 0x3F, 0x00, 0x00, 0x95, 0x3F, 0x50, 0x81, 0x70, 0x85, 0x3F, 0x00, 0x00, 0x95, 0x36, 0x50,
    0x81, 0x70, 0x3F, 0x50, 0x81, 0x70, 0x85, 0x3F, 0x00, 0x00, 0x36, 0x00, 0x00, 0x95, 0x3D, 0x50,
    0x81, 0x70, 0x85, 0x3D, 0x00, 0x00, 0x95, 0x3F, 0x50, 0x81, 0x70, 0x85, 0x3F, 0x00, 0x00, 0x95,
    0x2F, 0x50, 0x83, 0x60, 0x85, 0x2F, 0x00, 0x00, 0x95, 0x3F, 0x50, 0x81, 0x70, 0x85, 0x3F, 0x00,
    0x00, 0x95, 0x3F, 0x50, 0x81, 0x70, 0x85, 0x3F, 0x00, 0x81, 0x70, 0x95, 0x3F, 0x50, 0x81, 0x70,
    0x85, 0x3F, 0x00, 0x00, 0x95, 0x3D, 0x50, 0x81, 0x70, 0x85, 0x3D, 0x00, 0x00, 0x95, 0x3F, 0x50,
    0x81, 0x70, 0x85, 0x3F, 0x00, 0x00, 0x95, 0x2F, 0x50, 0x83, 0x60, 0x85, 0x2F, 0x00, 0x00, 0x95,
    0x3F, 0x50, 0x81, 0x70, 0x85, 0x3F, 0x00, 0x00, 0x95, 0x3F, 0x50, 0x81, 0x70, 0x85, 0x3F, 0x00,
    0x81, 0x70, 0x95, 0x3F, 0x50, 0x81, 0x70, 0x85, 0x3F, 0x00, 0x00, 0x95, 0x3D, 0x50, 0x81, 0x70,
    0x85, 0x3D, 0x00, 0x00, 0x95, 0x3F, 0x50, 0x81, 0x70, 0x85, 0x3F, 0x00, 0x00, 0x95, 0x31, 0x50,
    0x83, 0x60, 0x85, 0x31, 0x00, 0x00, 0x95, 0x3F, 0x50, 0x81, 0x70, 0x85, 0x3F, 0x00, 0x00, 0x95,
    0x3F, 0x50, 0x81, 0x70, 0x85, 0x3F, 0x00, 0x81, 0x70, 0x95, 0x3F, 0x50, 0x81, 0x70, 0x85, 0x3F,
    0x00, 0x00, 0x95, 0x3D, 0x50, 0x81, 0x70, 0x85, 0x3D, 0x00, 0x00, 0x95, 0x3F, 0x50, 0x81, 0x70,
    0x85, 0x3F, 0x00, 0x00, 0x95, 0x31, 0x50, 0x83, 0x60, 0x85, 0x31, 0x00, 0x00, 0x95, 0x3F, 0x50,
    0x81, 0x70, 0x85, 0x3F, 0x00, 0x00, 0x95, 0x3F, 0x50, 0x81, 0x70, 0x85, 0x3F, 0x00, 0x81, 0x70,
    0x95, 0x3F, 0x50, 0x81, 0x70, 0x85, 0x3F, 0x00, 0x00, 0x95, 0x3D, 0x50, 0x81, 0x70, 0x85, 0x3D,
    0x00, 0x00, 0x95, 0x3F, 0x50, 0x81, 0x70, 0x85, 0x3F, 0x00, 0x00, 0x95, 0x33, 0x50, 0x83, 0x60,
    0x85, 0x33, 0x00, 0x00, 0x95, 0x3F, 0x50, 0x81, 0x70, 0x85, 0x3F, 0x00, 0x00, 0x95, 0x3F, 0x50,
    0x81, 0x70, 0x85, 0x3F, 0x00, 0x81, 0x70, 0x95, 0x3F, 0x50, 0x81, 0x70, 0x85, 0x3F, 0x00, 0x00,
    0x95, 0x3D, 0x50, 0x81, 0x70, 0x85, 0x3D, 0x00, 0x00, 0x95, 0x3F, 0x50, 0x81, 0x70, 0x85, 0x3F,
    0x00, 0x00, 0x95, 0x33, 0x50, 0x83, 0x60, 0x85, 0x33, 0x00, 0x00, 0x95, 0x3F, 0x50, 0x81, 0x70,
    0x85, 0x3F, 0x00, 0x00, 0x95, 0x3F, 0x50, 0x81, 0x70, 0x85, 0x3F, 0x00, 0x81, 0x70, 0x95, 0x3F,
    0x50, 0x81, 0x70, 0x85, 0x3F, 0x00, 0x00, 0x95, 0x3D, 0x50, 0x81, 0x70, 0x85, 0x3D, 0x00, 0x00,
    0x95, 0x3F, 0x50, 0x81, 0x70, 0x85, 0x3F, 0x00, 0x00, 0x95, 0x33, 0x50, 0x83, 0x60, 0x85, 0x33,
    0x00, 0x00, 0x95, 0x3F, 0x50, 0x81, 0x70, 0x85, 0x3F, 0x00, 0x00, 0x95, 0x3F, 0x50, 0x81, 0x70,
    0x85, 0x3F, 0x00, 0x81, 0x70, 0x95, 0x3F, 0x50, 0x81, 0x70, 0x85, 0x3F, 0x00, 0x00, 0x95, 0x3D,
    0x50, 0x81, 0x70, 0x85, 0x3D, 0x00, 0x00, 0x95, 0x3F, 0x50, 0x81, 0x70, 0x85, 0x3F, 0x00, 0x00,
    0x95, 0x38, 0x50, 0x83, 0x60, 0x85, 0x38, 0x00, 0x00, 0x95, 0x3F, 0x50, 0x81, 0x70, 0x85, 0x3F,
    0x00, 0x00, 0x95, 0x3F, 0x50, 0x81, 0x70, 0x85, 0x3F, 0x00, 0x00, 0x95, 0x36, 0x50, 0x81, 0x70,
    0x3F, 0x50, 0x81, 0x70, 0x85, 0x3F, 0x00, 0x00, 0x36, 0x00, 0x00, 0x95, 0x3D, 0x50, 0x81, 0x70,
    0x85, 0x3D, 0x00, 0x00, 0x95, 0x3F, 0x50, 0x81, 0x70, 0x85, 0x3F, 0x00, 0x00, 0xFF, 0x2F, 0x00,
    0x4D, 0x54, 0x72, 0x6B, 0x00, 0x00, 0x2C, 0xA8, 0x00, 0xB6, 0x00, 0x00, 0x00, 0x20, 0x00, 0x00,
    0xC6, 0x50, 0x00, 0xFF, 0x03, 0x08, 0x55, 0x6E, 0x74, 0x69, 0x74, 0x6C, 0x65, 0x64, 0x00, 0xB6,
    0x07, 0x7F, 0x00, 0x00, 0x00, 0x00, 0x20, 0x00, 0x00, 0x07, 0x7F, 0x00, 0x07, 0x64, 0x83, 0xE0,
    0x00, 0x96, 0x3F, 0x3C, 0x83, 0x60, 0x86, 0x3F, 0x00, 0x00, 0x96, 0x3F, 0x3C, 0x81, 0x70, 0x86,
    0x3F, 0x00, 0x00, 0x96, 0x4B, 0x3C, 0x81, 0x70, 0x86, 0x4B, 0x00, 0x81, 0x70, 0x96, 0x4B, 0x3C,
    0x81, 0x70, 0x86, 0x4B, 0x00, 0x00, 0x96, 0x49, 0x3C, 0x81, 0x70, 0x86, 0x49, 0x00, 0x00, 0x96,
    0x4B, 0x3C, 0x81, 0x70, 0x86, 0x4B, 0x00, 0x00, 0x96, 0x3F, 0x3C, 0x83, 0x60, 0x86, 0x3F, 0x00,
    0x00, 0x96, 0x3F, 0x3C, 0x81, 0x70, 0x86, 0x3F, 0x00, 0x00, 0x96, 0x4B, 0x3C, 0x81, 0x70, 0x86,
    0x4B, 0x00, 0x81, 0x70, 0x96, 0x4B, 0x3C, 0x81, 0x70, 0x86, 0x4B, 0x00, 0x00, 0x96, 0x49, 0x3C,
    0x81, 0x70, 0x86, 0x49, 0x00, 0x00, 0x96, 0x4B, 0x3C, 0x81, 0x70, 0x86, 0x4B, 0x00, 0x00, 0x96,
    0x3F, 0x3C, 0x83, 0x60, 0x86, 0x3F, 0x00, 0x00, 0x96, 0x3F, 0x3C, 0x81, 0x70, 0x86, 0x3F, 0x00,
    0x00, 0x96, 0x4B, 0x3C, 0x81, 0x70, 0x86, 0x4B, 0x00, 0x81, 0x70, 0x96, 0x4B, 0x3C, 0x81, 0x70,
    0x86, 0x4B, 0x00, 0x00, 0x96, 0x49, 0x3C, 0x81, 0x70, 0x86, 0x49, 0x00, 0x00, 0x96, 0x4B, 0x3C,
    0x81, 0x70, 0x86, 0x4B, 0x00, 0x00, 0x96, 0x3F, 0x3C, 0x83, 0x60, 0x86, 0x3F, 0x00, 0x00, 0x96,
    0x4B, 0x3C, 0x81, 0x70, 0x86, 0x4B, 0x00, 0x00, 0x96, 0x4E, 0x3C, 0x81, 0x70, 0x86, 0x4E, 0x00,
    0x00, 0x96, 0x44, 0x3C, 0x83, 0x60, 0x86, 0x44, 0x00, 0x00, 0x96, 0x4E, 0x3C, 0x81, 0x70, 0x86,
    0x4E, 0x00, 0x00, 0x96, 0x50, 0x3C, 0x81, 0x70, 0x86, 0x50, 0x00, 0x00, 0x96, 0x3F, 0x3C, 0x83,
    0x60, 0x86, 0x3F, 0x00, 0x00, 0x96, 0x3F, 0x3C, 0x81, 0x70, 0x86, 0x3F, 0x00, 0x00, 0x96, 0x4B,
    0x3C, 0x81, 0x70, 0x86, 0x4B, 0x00, 0x81, 0x70, 0x96, 0x4B, 0x3C, 0x81, 0x70, 0x86, 0x4B, 0x00,
    0x00, 0x96, 0x49, 0x3C, 0x81, 0x70, 0x86, 0x49, 0x00, 0x00, 0x96, 0x4B, 0x3C, 0x81, 0x70, 0x86,
    0x4B, 0x00, 0x00, 0x96, 0x3F, 0x3C, 0x83, 0x60, 0x86, 0x3F, 0x00, 0x00, 0x96, 0x3F, 0x3C, 0x81,
    0x70, 0x86, 0x3F, 0x00, 0x00, 0x96, 0x4B, 0x3C, 0x81, 0x70, 0x86, 0x4B, 0x00, 0x81, 0x70, 0x96,
    0x4B, 0x3C, 0x81, 0x70, 0x86, 0x4B, 0x00, 0x00, 0x96, 0x49, 0x3C, 0x81, 0x70, 0x86, 0x49, 0x00,
    0x00, 0x96, 0x4B, 0x3C, 0x81, 0x70, 0x86, 0x4B, 0x00, 0x00, 0x96, 0x3F, 0x3C, 0x83, 0x60, 0x86,
    0x3F, 0x00, 0x00, 0x96, 0x3F, 0x3C, 0x81, 0x70, 0x86, 0x3F, 0x00, 0x00, 0x96, 0x4B, 0x3C, 0x81,
    0x70, 0x86, 0x4B, 0x00, 0x81, 0x70, 0x96, 0x4B, 0x3C, 0x81, 0x70, 0x86, 0x4B, 0x00, 0x00, 0x96,
    0x49, 0x3C, 0x81, 0x70, 0x86, 0x49, 0x00, 0x00, 0x96, 0x4B, 0x3C, 0x81, 0x70, 0x86, 0x4B, 0x00,
    0x00, 0x96, 0x3F, 0x3C, 0x83, 0x60, 0x86, 0x3F, 0x00, 0x00, 0x96, 0x4B, 0x3C, 0x81, 0x70, 0x86,
    0x4B, 0x00, 0x00, 0x96, 0x4E, 0x3C, 0x81, 0x70, 0x86, 0x4E, 0x00, 0x00, 0x96, 0x44, 0x3C, 0x83,
    0x60, 0x86, 0x44, 0x00, 0x00, 0x96, 0x4E, 0x3C, 0x81, 0x70, 0x86, 0x4E, 0x00, 0x00, 0x96, 0x50,
    0x3C, 0x81, 0x70, 0x86, 0x50, 0x00, 0x00, 0x96, 0x3F, 0x3C, 0x83, 0x60, 0x86, 0x3F, 0x00, 0x00,
    0x96, 0x3F, 0x3C, 0x81, 0x70, 0x86, 0x3F, 0x00, 0x00, 0x96, 0x4B, 0x3C, 0x81, 0x70, 0x86, 0x4B,
    0x00, 0x81, 0x70, 0x96, 0x4B, 0x3C, 0x81, 0x70, 0x86, 0x4B, 0x00, 0x00, 0x96, 0x49, 0x3C, 0x81,
    0x70, 0x86, 0x49, 0x00, 0x00, 0x96, 0x4B, 0x3C, 0x81, 0x70, 0x86, 0x4B, 0x00, 0x00, 0x96, 0x3F,
    0x3C, 0x83, 0x60, 0x86, 0x3F, 0x00, 0x00, 0x96, 0x3F, 0x3C, 0x81, 0x70, 0x86, 0x3F, 0x00, 0x00,
    0x96, 0x4B, 0x3C, 0x81, 0x70, 0x86, 0x4B, 0x00, 0x81, 0x70, 0x96, 0x4B, 0x3C, 0x81, 0x70, 0x86,
    0x4B, 0x00, 0x00, 0x96, 0x49, 0x3C, 0x81, 0x70, 0x86, 0x49, 0x00, 0x00, 0x96, 0x4B, 0x3C, 0x81,
    0x70, 0x86, 0x4B, 0x00, 0x00, 0x96, 0x3F, 0x3C, 0x83, 0x60, 0x86, 0x3F, 0x00, 0x00, 0x96, 0x3F,
    0x3C, 0x81, 0x70, 0x86, 0x3F, 0x00, 0x00, 0x96, 0x4B, 0x3C, 0x81, 0x70, 0x86, 0x4B, 0x00, 0x81,
    0x70, 0x96, 0x4B, 0x3C, 0x81, 0x70, 0x86, 0x4B, 0x00, 0x00, 0x96, 0x49, 0x3C, 0x81, 0x70, 0x86,
    0x49, 0x00, 0x00, 0x96, 0x4B, 0x3C, 0x81, 0x70, 0x86, 0x4B, 0x00, 0x00, 0x96, 0x3F, 0x3C, 0x83,
    0x60, 0x86, 0x3F, 0x00, 0x00, 0x96, 0x4B, 0x3C, 0x81, 0x70, 0x86, 0x4B, 0x00, 0x00, 0x96, 0x4E,
    0x3C, 0x81, 0x70, 0x86, 0x4E, 0x00, 0x00, 0x96, 0x44, 0x3C, 0x83, 0x60, 0x86, 0x44, 0x00, 0x00,
    0x96, 0x4E, 0x3C, 0x81, 0x70, 0x86, 0x4E, 0x00, 0x00, 0x96, 0x50, 0x3C, 0x81, 0x70, 0x86, 0x50,
    0x00, 0x00, 0x96, 0x3F, 0x3C, 0x83, 0x60, 0x86, 0x3F, 0x00, 0x00, 0x96, 0x3F, 0x3C, 0x81, 0x70,
    0x86, 0x3F, 0x00, 0x00, 0x96, 0x4B, 0x3C, 0x81, 0x70, 0x86, 0x4B, 0x00, 0x81, 0x70, 0x96, 0x4B,
    0x3C, 0x81, 0x70, 0x86, 0x4B, 0x00, 0x00, 0x96, 0x49, 0x3C, 0x81, 0x70, 0x86, 0x49, 0x00, 0x00,
    0x96, 0x4B, 0x3C, 0x81, 0x70, 0x86, 0x4B, 0x00, 0x00, 0x96, 0x3F, 0x3C, 0x83, 0x60, 0x86, 0x3F,
    0x00, 0x00, 0x96, 0x3F, 0x3C, 0x81, 0x70, 0x86, 0x3F, 0x00, 0x00, 0x96, 0x4B, 0x3C, 0x81, 0x70,
    0x86, 0x4B, 0x00, 0x81, 0x70, 0x96, 0x4B, 0x3C, 0x81, 0x70, 0x86, 0x4B, 0x00, 0x00, 0x96, 0x49,
    0x3C, 0x81, 0x70, 0x86, 0x49, 0x00, 0x00, 0x96, 0x4B, 0x3C, 0x81, 0x70, 0x86, 0x4B, 0x00, 0x00,
    0x96, 0x3F, 0x3C, 0x83, 0x60, 0x86, 0x3F, 0x00, 0x00, 0x96, 0x3F, 0x3C, 0x81, 0x70, 0x86, 0x3F,
    0x00, 0x00, 0x96, 0x4B, 0x3C, 0x81, 0x70, 0x86, 0x4B, 0x00, 0x81, 0x70, 0x96, 0x4B, 0x3C, 0x81,
    0x70, 0x86, 0x4B, 0x00, 0x00, 0x96, 0x49, 0x3C, 0x81, 0x70, 0x86, 0x49, 0x00, 0x00, 0x96, 0x4B,
    0x3C, 0x81, 0x70, 0x86, 0x4B, 0x00, 0x00, 0x96, 0x3F, 0x3C, 0x83, 0x60, 0x86, 0x3F, 0x00, 0x00,
    0x96, 0x4B, 0x3C, 0x81, 0x70, 0x86, 0x4B, 0x00, 0x00, 0x96, 0x4E, 0x3C, 0x81, 0x70, 0x86, 0x4E,
    0x00, 0x00, 0x96, 0x44, 0x3C, 0x83, 0x60, 0x86, 0x44, 0x00, 0x00, 0x96, 0x4E, 0x3C, 0x81, 0x70,
    0x86, 0x4E, 0x00, 0x00, 0x96, 0x50, 0x3C, 0x81, 0x70, 0x86, 0x50, 0x00, 0x00, 0x96, 0x3F, 0x3C,
    0x83, 0x60, 0x86, 0x3F, 0x00, 0x00, 0x96, 0x3F, 0x3C, 0x81, 0x70, 0x86, 0x3F, 0x00, 0x00, 0x96,
    0x4B, 0x3C, 0x81, 0x70, 0x86, 0x4B, 0x00, 0x81, 0x70, 0x96, 0x4B, 0x3C, 0x81, 0x70, 0x86, 0x4B,
    0x00, 0x00, 0x96, 0x49, 0x3C, 0x81, 0x70, 0x86, 0x49, 0x00, 0x00, 0x96, 0x4B, 0x3C, 0x81, 0x70,
    0x86, 0x4B, 0x00, 0x00, 0x96, 0x3F, 0x3C, 0x83, 0x60, 0x86, 0x3F, 0x00, 0x00, 0x96, 0x3F, 0x3C,
    0x81, 0x70, 0x86, 0x3F, 0x00, 0x00, 0x96, 0x4B, 0x3C, 0x81, 0x70, 0x86, 0x4B, 0x00, 0x81, 0x70,
    0x96, 0x4B, 0x3C, 0x81, 0x70, 0x86, 0x4B, 0x00, 0x00, 0x96, 0x49, 0x3C, 0x81, 0x70, 0x86, 0x49,
    0x00, 0x00, 0x96, 0x4B, 0x3C, 0x81, 0x70, 0x86, 0x4B, 0x00, 0x00, 0x96, 0x3F, 0x3C, 0x83, 0x60,
    0x86, 0x3F, 0x00, 0x00, 0x96, 0x3F, 0x3C, 0x81, 0x70, 0x86, 0x3F, 0x00, 0x00, 0x96, 0x4B, 0x3C,
    0x81, 0x70, 0x86, 0x4B, 0x00, 0x81, 0x70, 0x96, 0x4B, 0x3C, 0x81, 0x70, 0x86, 0x4B, 0x00, 0x00,
    0x96, 0x49, 0x3C, 0x81, 0x70, 0x86, 0x49, 0x00, 0x00, 0x96, 0x4B, 0x3C, 0x81, 0x70, 0x86, 0x4B,
    0x00, 0x00, 0x96, 0x3F, 0x3C, 0x83, 0x60, 0x86, 0x3F, 0x00, 0x00, 0x96, 0x4B, 0x3C, 0x81, 0x70,
    0x86, 0x4B, 0x00, 0x00, 0x96, 0x4E, 0x3C, 0x81, 0x70, 0x86, 0x4E, 0x00, 0x00, 0x96, 0x44, 0x3C,
    0x83, 0x60, 0x86, 0x44, 0x00, 0x00, 0x96, 0x4E, 0x3C, 0x81, 0x70, 0x86, 0x4E, 0x00, 0x00, 0x96,
    0x50, 0x3C, 0x81, 0x70, 0x86, 0x50, 0x00, 0x00, 0x96, 0x3F, 0x3C, 0x83, 0x60, 0x86, 0x3F, 0x00,
    0x00, 0x96, 0x3F, 0x3C, 0x81, 0x70, 0x86, 0x3F, 0x00, 0x00, 0x96, 0x4B, 0x3C, 0x81, 0x70, 0x86,
    0x4B, 0x00, 0x81, 0x70, 0x96, 0x4B, 0x3C, 0x81, 0x70, 0x86, 0x4B, 0x00, 0x00, 0x96, 0x49, 0x3C,
    0x81, 0x70, 0x86, 0x49, 0x00, 0x00, 0x96, 0x4B, 0x3C, 0x81, 0x70, 0x86, 0x4B, 0x00, 0x00, 0x96,
    0x3F, 0x3C, 0x83, 0x60, 0x86, 0x3F, 0x00, 0x00, 0x96, 0x3F, 0x3C, 0x81, 0x70, 0x86, 0x3F, 0x00,
    0x00, 0x96, 0x4B, 0x3C, 0x81, 0x70, 0x86, 0x4B, 0x00, 0x81, 0x70, 0x96, 0x4B, 0x3C, 0x81, 0x70,
    0x86, 0x4B, 0x00, 0x00, 0x96, 0x49, 0x3C, 0x81, 0x70, 0x86, 0x49, 0x00, 0x00, 0x96, 0x4B, 0x3C,
    0x81, 0x70, 0x86, 0x4B, 0x00, 0x00, 0x96, 0x3F, 0x3C, 0x83, 0x60, 0x86, 0x3F, 0x00, 0x00, 0x96,
    0x3F, 0x3C, 0x81, 0x70, 0x86, 0x3F, 0x00, 0x00, 0x96, 0x4B, 0x3C, 0x81, 0x70, 0x86, 0x4B, 0x00,
    0x81, 0x70, 0x96, 0x4B, 0x3C, 0x81, 0x70, 0x86, 0x4B, 0x00, 0x00, 0x96, 0x49, 0x3C, 0x81, 0x70,
    0x86, 0x49, 0x00, 0x00, 0x96, 0x4B, 0x3C, 0x81, 0x70, 0x86, 0x4B, 0x00, 0x00, 0x96, 0x3F, 0x3C,
    0x83, 0x60, 0x86, 0x3F, 0x00, 0x00, 0x96, 0x4B, 0x3C, 0x81, 0x70, 0x86, 0x4B, 0x00, 0x00, 0x96,
    0x4E, 0x3C, 0x81, 0x70, 0x86, 0x4E, 0x00, 0x00, 0x96, 0x44, 0x3C, 0x83, 0x60, 0x86, 0x44, 0x00,
    0x00, 0x96, 0x4E, 0x3C, 0x81, 0x70, 0x86, 0x4E, 0x00, 0x00, 0x96, 0x50, 0x3C, 0x81, 0x70, 0x86,
    0x50, 0x00, 0x00, 0x96, 0x3F, 0x3C, 0x83, 0x60, 0x86, 0x3F, 0x00, 0x00, 0x96, 0x3F, 0x3C, 0x81,
    0x70, 0x86, 0x3F, 0x00, 0x00, 0x96, 0x4B, 0x3C, 0x81, 0x70, 0x86, 0x4B, 0x00, 0x81, 0x70, 0x96,
    0x4B, 0x3C, 0x81, 0x70, 0x86, 0x4B, 0x00, 0x00, 0x96, 0x49, 0x3C, 0x81, 0x70, 0x86, 0x49, 0x00,
    0x00, 0x96, 0x4B, 0x3C, 0x81, 0x70, 0x86, 0x4B, 0x00, 0x00, 0x96, 0x3F, 0x3C, 0x83, 0x60, 0x86,
    0x3F, 0x00, 0x00, 0x96, 0x3F, 0x3C, 0x81, 0x70, 0x86, 0x3F, 0x00, 0x00, 0x96, 0x4B, 0x3C, 0x81,
    0x70, 0x86, 0x4B, 0x00, 0x81, 0x70, 0x96, 0x4B, 0x3C, 0x81, 0x70, 0x86, 0x4B, 0x00, 0x00, 0x96,
    0x49, 0x3C, 0x81, 0x70, 0x86, 0x49, 0x00, 0x00, 0x96, 0x4B, 0x3C, 0x81, 0x70, 0x86, 0x4B, 0x00,
    0x00, 0x96, 0x3F, 0x3C, 0x83, 0x60, 0x86, 0x3F, 0x00, 0x00, 0x96, 0x3F, 0x3C, 0x81, 0x70, 0x86,
    0x3F, 0x00, 0x00, 0x96, 0x4B, 0x3C, 0x81, 0x70, 0x86, 0x4B, 0x00, 0x81, 0x70, 0x96, 0x4B, 0x3C,
    0x81, 0x70, 0x86, 0x4B, 0x00, 0x00, 0x96, 0x49, 0x3C, 0x81, 0x70, 0x86, 0x49, 0x00, 0x00, 0x96,
    0x4B, 0x3C, 0x81, 0x70, 0x86, 0x4B, 0x00, 0x00, 0x96, 0x3F, 0x3C, 0x83, 0x60, 0x86, 0x3F, 0x00,
    0x00, 0x96, 0x4B, 0x3C, 0x81, 0x70, 0x86, 0x4B, 0x00, 0x00, 0x96, 0x4E, 0x3C, 0x81, 0x70, 0x86,
    0x4E, 0x00, 0x00, 0x96, 0x44, 0x3C, 0x83, 0x60, 0x86, 0x44, 0x00, 0x00, 0x96, 0x4E, 0x3C, 0x81,
    0x70, 0x86, 0x4E, 0x00, 0x00, 0x96, 0x50, 0x3C, 0x81, 0x70, 0x86, 0x50, 0x00, 0x00, 0x96, 0x3F,
    0x3C, 0x83, 0x60, 0x86, 0x3F, 0x00, 0x00, 0x96, 0x3F, 0x3C, 0x81, 0x70, 0x86, 0x3F, 0x00, 0x00,
    0x96, 0x4B, 0x3C, 0x81, 0x70, 0x86, 0x4B, 0x00, 0x81, 0x70, 0x96, 0x4B, 0x3C, 0x81, 0x70, 0x86,
    0x4B, 0x00, 0x00, 0x96, 0x49, 0x3C, 0x81, 0x70, 0x86, 0x49, 0x00, 0x00, 0x96, 0x4B, 0x3C, 0x81,
    0x70, 0x86, 0x4B, 0x00, 0x00, 0x96, 0x3F, 0x3C, 0x83, 0x60, 0x86, 0x3F, 0x00, 0x00, 0x96, 0x3F,
    0x3C, 0x81, 0x70, 0x86, 0x3F, 0x00, 0x00, 0x96, 0x4B, 0x3C, 0x81, 0x70, 0x86, 0x4B, 0x00, 0x81,
    0x70, 0x96, 0x4B, 0x3C, 0x81, 0x70, 0x86, 0x4B, 0x00, 0x00, 0x96, 0x49, 0x3C, 0x81, 0x70, 0x86,
    0x49, 0x00, 0x00, 0x96, 0x4B, 0x3C, 0x81, 0x70, 0x86, 0x4B, 0x00, 0x00, 0x96, 0x3F, 0x3C, 0x83,
    0x60, 0x86, 0x3F, 0x00, 0x00, 0x96, 0x3F, 0x3C, 0x81, 0x70, 0x86, 0x3F, 0x00, 0x00, 0x96, 0x4B,
    0x3C, 0x81, 0x70, 0x86, 0x4B, 0x00, 0x81, 0x70, 0x96, 0x4B, 0x3C, 0x81, 0x70, 0x86, 0x4B, 0x00,
    0x00, 0x96, 0x49, 0x3C, 0x81, 0x70, 0x86, 0x49, 0x00, 0x00, 0x96, 0x4B, 0x3C, 0x81, 0x70, 0x86,
    0x4B, 0x00, 0x00, 0x96, 0x3F, 0x3C, 0x83, 0x60, 0x86, 0x3F, 0x00, 0x00, 0x96, 0x4B, 0x3C, 0x81,
    0x70, 0x86, 0x4B, 0x00, 0x00, 0x96, 0x4E, 0x3C, 0x81, 0x70, 0x86, 0x4E, 0x00, 0x00, 0x96, 0x44,
    0x3C, 0x83, 0x60, 0x86, 0x44, 0x00, 0x00, 0x96, 0x4E, 0x3C, 0x81, 0x70, 0x86, 0x4E, 0x00, 0x00,
    0x96, 0x50, 0x3C, 0x81, 0x70, 0x86, 0x50, 0x00, 0x00, 0x96, 0x3F, 0x3C, 0x83, 0x60, 0x86, 0x3F,
    0x00, 0x00, 0x96, 0x3F, 0x3C, 0x81, 0x70, 0x86, 0x3F, 0x00, 0x00, 0x96, 0x4B, 0x3C, 0x81, 0x70,
    0x86, 0x4B, 0x00, 0x81, 0x70, 0x96, 0x4B, 0x3C, 0x81, 0x70, 0x86, 0x4B, 0x00, 0x00, 0x96, 0x49,
    0x3C, 0x81, 0x70, 0x86, 0x49, 0x00, 0x00, 0x96, 0x4B, 0x3C, 0x81, 0x70, 0x86, 0x4B, 0x00, 0x00,
    0x96, 0x3F, 0x3C, 0x83, 0x60, 0x86, 0x3F, 0x00, 0x00, 0x96, 0x3F, 0x3C, 0x81, 0x70, 0x86, 0x3F,
    0x00, 0x00, 0x96, 0x4B, 0x3C, 0x81, 0x70, 0x86, 0x4B, 0x00, 0x81, 0x70, 0x96, 0x4B, 0x3C, 0x81,
    0x70, 0x86, 0x4B, 0x00, 0x00, 0x96, 0x49, 0x3C, 0x81, 0x70, 0x86, 0x49, 0x00, 0x00, 0x96, 0x4B,
    0x3C, 0x81, 0x70, 0x86, 0x4B, 0x00, 0x00, 0x96, 0x3F, 0x3C, 0x83, 0x60, 0x86, 0x3F, 0x00, 0x00,
    0x96, 0x3F, 0x3C, 0x81, 0x70, 0x86, 0x3F, 0x00, 0x00, 0x96, 0x4B, 0x3C, 0x81, 0x70, 0x86, 0x4B,
    0x00, 0x81, 0x70, 0x96, 0x4B, 0x3C, 0x81, 0x70, 0x86, 0x4B, 0x00, 0x00, 0x96, 0x49, 0x3C, 0x81,
    0x70, 0x86, 0x49, 0x00, 0x00, 0x96, 0x4B, 0x3C, 0x81, 0x70, 0x86, 0x4B, 0x00, 0x00, 0x96, 0x3F,
    0x3C, 0x83, 0x60, 0x86, 0x3F, 0x00, 0x00, 0x96, 0x4B, 0x3C, 0x81, 0x70, 0x86, 0x4B, 0x00, 0x00,
    0x96, 0x4E, 0x3C, 0x81, 0x70, 0x86, 0x4E, 0x00, 0x00, 0x96, 0x44, 0x3C, 0x83, 0x60, 0x86, 0x44,
    0x00, 0x00, 0x96, 0x4E, 0x3C, 0x81, 0x70, 0x86, 0x4E, 0x00, 0x00, 0x96, 0x50, 0x3C, 0x81, 0x70,
    0x86, 0x50, 0x00, 0x00, 0x96, 0x3F, 0x3C, 0x83, 0x60, 0x86, 0x3F, 0x00, 0x00, 0x96, 0x3F, 0x3C,
    0x81, 0x70, 0x86, 0x3F, 0x00, 0x00, 0x96, 0x4B, 0x3C, 0x81, 0x70, 0x86, 0x4B, 0x00, 0x81, 0x70,
    0x96, 0x4B, 0x3C, 0x81, 0x70, 0x86, 0x4B, 0x00, 0x00, 0x96, 0x49, 0x3C, 0x81, 0x70, 0x86, 0x49,
    0x00, 0x00, 0x96, 0x4B, 0x3C, 0x81, 0x70, 0x86, 0x4B, 0x00, 0x00, 0x96, 0x3F, 0x3C, 0x83, 0x60,
    0x86, 0x3F, 0x00, 0x00, 0x96, 0x3F, 0x3C, 0x81, 0x70, 0x86, 0x3F, 0x00, 0x00, 0x96, 0x4B, 0x3C,
    0x81, 0x70, 0x86, 0x4B, 0x00, 0x81, 0x70, 0x96, 0x4B, 0x3C, 0x81, 0x70, 0x86, 0x4B, 0x00, 0x00,
    0x96, 0x49, 0x3C, 0x81, 0x70, 0x86, 0x49, 0x00, 0x00, 0x96, 0x4B, 0x3C, 0x81, 0x70, 0x86, 0x4B,
    0x00, 0x00, 0x96, 0x3F, 0x3C, 0x83, 0x60, 0x86, 0x3F, 0x00, 0x00, 0x96, 0x3F, 0x3C, 0x81, 0x70,
    0x86, 0x3F, 0x00, 0x00, 0x96, 0x4B, 0x3C, 0x81, 0x70, 0x86, 0x4B, 0x00, 0x81, 0x70, 0x96, 0x4B,
    0x3C, 0x81, 0x70, 0x86, 0x4B, 0x00, 0x00, 0x96, 0x49, 0x3C, 0x81, 0x70, 0x86, 0x49, 0x00, 0x00,
    0x96, 0x4B, 0x3C, 0x81, 0x70, 0x86, 0x4B, 0x00, 0x00, 0x96, 0x3F, 0x3C, 0x83, 0x60, 0x86, 0x3F,
    0x00, 0x00, 0x96, 0x4B, 0x3C, 0x81, 0x70, 0x86, 0x4B, 0x00, 0x00, 0x96, 0x4E, 0x3C, 0x81, 0x70,
    0x86, 0x4E, 0x00, 0x00, 0x96, 0x44, 0x3C, 0x83, 0x60, 0x86, 0x44, 0x00, 0x00, 0x96, 0x4E, 0x3C,
    0x81, 0x70, 0x86, 0x4E, 0x00, 0x00, 0x96, 0x50, 0x3C, 0x81, 0x70, 0x86, 0x50, 0x00, 0x00, 0x96,
    0x3F, 0x3C, 0x83, 0x60, 0x86, 0x3F, 0x00, 0x00, 0x96, 0x3F, 0x3C, 0x81, 0x70, 0x86, 0x3F, 0x00,
    0x00, 0x96, 0x4B, 0x3C, 0x81, 0x70, 0x86, 0x4B, 0x00, 0x81, 0x70, 0x96, 0x4B, 0x3C, 0x81, 0x70,
    0x86, 0x4B, 0x00, 0x00, 0x96, 0x49, 0x3C, 0x81, 0x70, 0x86, 0x49, 0x00, 0x00, 0x96, 0x4B, 0x3C,
    0x81, 0x70, 0x86, 0x4B, 0x00, 0x00, 0x96, 0x3F, 0x3C, 0x83, 0x60, 0x86, 0x3F, 0x00, 0x00, 0x96,
    0x3F, 0x3C, 0x81, 0x70, 0x86, 0x3F, 0x00, 0x00, 0x96, 0x4B, 0x3C, 0x81, 0x70, 0x86, 0x4B, 0x00,
    0x81, 0x70, 0x96, 0x4B, 0x3C, 0x81, 0x70, 0x86, 0x4B, 0x00, 0x00, 0x96, 0x49, 0x3C, 0x81, 0x70,
    0x86, 0x49, 0x00, 0x00, 0x96, 0x4B, 0x3C, 0x81, 0x70, 0x86, 0x4B, 0x00, 0x00, 0x96, 0x3F, 0x3C,
    0x83, 0x60, 0x86, 0x3F, 0x00, 0x00, 0x96, 0x3F, 0x3C, 0x81, 0x70, 0x86, 0x3F, 0x00, 0x00, 0x96,
    0x4B, 0x3C, 0x81, 0x70, 0x86, 0x4B, 0x00, 0x81, 0x70, 0x96, 0x4B, 0x3C, 0x81, 0x70, 0x86, 0x4B,
    0x00, 0x00, 0x96, 0x49, 0x3C, 0x81, 0x70, 0x86, 0x49, 0x00, 0x00, 0x96, 0x4B, 0x3C, 0x81, 0x70,
    0x86, 0x4B, 0x00, 0x00, 0x96, 0x3F, 0x3C, 0x83, 0x60, 0x86, 0x3F, 0x00, 0x00, 0x96, 0x4B, 0x3C,
    0x81, 0x70, 0x86, 0x4B, 0x00, 0x00, 0x96, 0x4E, 0x3C, 0x81, 0x70, 0x86, 0x4E, 0x00, 0x00, 0x96,
    0x44, 0x3C, 0x83, 0x60, 0x86, 0x44, 0x00, 0x00, 0x96, 0x4E, 0x3C, 0x81, 0x70, 0x86, 0x4E, 0x00,
    0x00, 0x96, 0x50, 0x3C, 0x81, 0x70, 0x86, 0x50, 0x00, 0x00, 0x96, 0x3F, 0x3C, 0x83, 0x60, 0x86,
    0x3F, 0x00, 0x00, 0x96, 0x3F, 0x3C, 0x81, 0x70, 0x86, 0x3F, 0x00, 0x00, 0x96, 0x4B, 0x3C, 0x81,
    0x70, 0x86, 0x4B, 0x00, 0x81, 0x70, 0x96, 0x4B, 0x3C, 0x81, 0x70, 0x86, 0x4B, 0x00, 0x00, 0x96,
    0x49, 0x3C, 0x81, 0x70, 0x86, 0x49, 0x00, 0x00, 0x96, 0x4B, 0x3C, 0x81, 0x70, 0x86, 0x4B, 0x00,
    0x00, 0x96, 0x3F, 0x3C, 0x83, 0x60, 0x86, 0x3F, 0x00, 0x00, 0x96, 0x3F, 0x3C, 0x81, 0x70, 0x86,
    0x3F, 0x00, 0x00, 0x96, 0x4B, 0x3C, 0x81, 0x70, 0x86, 0x4B, 0x00, 0x81, 0x70, 0x96, 0x4B, 0x3C,
    0x81, 0x70, 0x86, 0x4B, 0x00, 0x00, 0x96, 0x49, 0x3C, 0x81, 0x70, 0x86, 0x49, 0x00, 0x00, 0x96,
    0x4B, 0x3C, 0x81, 0x70, 0x86, 0x4B, 0x00, 0x00, 0x96, 0x3F, 0x3C, 0x83, 0x60, 0x86, 0x3F, 0x00,
    0x00, 0x96, 0x3F, 0x3C, 0x81, 0x70, 0x86, 0x3F, 0x00, 0x00, 0x96, 0x4B, 0x3C, 0x81, 0x70, 0x86,
    0x4B, 0x00, 0x81, 0x70, 0x96, 0x4B, 0x3C, 0x81, 0x70, 0x86, 0x4B, 0x00, 0x00, 0x96, 0x49, 0x3C,
    0x81, 0x70, 0x86, 0x49, 0x00, 0x00, 0x96, 0x4B, 0x3C, 0x81, 0x70, 0x86, 0x4B, 0x00, 0x00, 0x96,
    0x3F, 0x3C, 0x83, 0x60, 0x86, 0x3F, 0x00, 0x00, 0x96, 0x4B, 0x3C, 0x81, 0x70, 0x86, 0x4B, 0x00,
    0x00, 0x96, 0x4E, 0x3C, 0x81, 0x70, 0x86, 0x4E, 0x00, 0x00, 0x96, 0x44, 0x3C, 0x83, 0x60, 0x86,
    0x44, 0x00, 0x00, 0x96, 0x4E, 0x3C, 0x81, 0x70, 0x86, 0x4E, 0x00, 0x00, 0x96, 0x50, 0x3C, 0x81,
    0x70, 0x86, 0x50, 0x00, 0x00, 0x96, 0x3F, 0x3C, 0x83, 0x60, 0x86, 0x3F, 0x00, 0x00, 0x96, 0x3F,
    0x3C, 0x81, 0x70, 0x86, 0x3F, 0x00, 0x00, 0x96, 0x4B, 0x3C, 0x81, 0x70, 0x86, 0x4B, 0x00, 0x81,
    0x70, 0x96, 0x4B, 0x3C, 0x81, 0x70, 0x86, 0x4B, 0x00, 0x00, 0x96, 0x49, 0x3C, 0x81, 0x70, 0x86,
    0x49, 0x00, 0x00, 0x96, 0x4B, 0x3C, 0x81, 0x70, 0x86, 0x4B, 0x00, 0x00, 0x96, 0x3F, 0x3C, 0x83,
    0x60, 0x86, 0x3F, 0x00, 0x00, 0x96, 0x3F, 0x3C, 0x81, 0x70, 0x86, 0x3F, 0x00, 0x00, 0x96, 0x4B,
    0x3C, 0x81, 0x70, 0x86, 0x4B, 0x00, 0x81, 0x70, 0x96, 0x4B, 0x3C, 0x81, 0x70, 0x86, 0x4B, 0x00,
    0x00, 0x96, 0x49, 0x3C, 0x81, 0x70, 0x86, 0x49, 0x00, 0x00, 0x96, 0x4B, 0x3C, 0x81, 0x70, 0x86,
    0x4B, 0x00, 0x00, 0x96, 0x3F, 0x3C, 0x83, 0x60, 0x86, 0x3F, 0x00, 0x00, 0x96, 0x3F, 0x3C, 0x81,
    0x70, 0x86, 0x3F, 0x00, 0x00, 0x96, 0x4B, 0x3C, 0x81, 0x70, 0x86, 0x4B, 0x00, 0x81, 0x70, 0x96,
    0x4B, 0x3C, 0x81, 0x70, 0x86, 0x4B, 0x00, 0x00, 0x96, 0x49, 0x3C, 0x81, 0x70, 0x86, 0x49, 0x00,
    0x00, 0x96, 0x4B, 0x3C, 0x81, 0x70, 0x86, 0x4B, 0x00, 0x00, 0x96, 0x3F, 0x3C, 0x83, 0x60, 0x86,
    0x3F, 0x00, 0x00, 0x96, 0x4B, 0x3C, 0x81, 0x70, 0x86, 0x4B, 0x00, 0x00, 0x96, 0x4E, 0x3C, 0x81,
    0x70, 0x86, 0x4E, 0x00, 0x00, 0x96, 0x44, 0x3C, 0x83, 0x60, 0x86, 0x44, 0x00, 0x00, 0x96, 0x4E,
    0x3C, 0x81, 0x70, 0x86, 0x4E, 0x00, 0x00, 0x96, 0x50, 0x3C, 0x81, 0x70, 0x86, 0x50, 0x00, 0x00,
    0x96, 0x3F, 0x3C, 0x83, 0x60, 0x86, 0x3F, 0x00, 0x00, 0x96, 0x3F, 0x3C, 0x81, 0x70, 0x86, 0x3F,
    0x00, 0x00, 0x96, 0x4B, 0x3C, 0x81, 0x70, 0x86, 0x4B, 0x00, 0x81, 0x70, 0x96, 0x4B, 0x3C, 0x81,
    0x70, 0x86, 0x4B, 0x00, 0x00, 0x96, 0x49, 0x3C, 0x81, 0x70, 0x86, 0x49, 0x00, 0x00, 0x96, 0x4B,
    0x3C, 0x81, 0x70, 0x86, 0x4B, 0x00, 0x00, 0x96, 0x3F, 0x3C, 0x83, 0x60, 0x86, 0x3F, 0x00, 0x00,
    0x96, 0x3F, 0x3C, 0x81, 0x70, 0x86, 0x3F, 0x00, 0x00, 0x96, 0x4B, 0x3C, 0x81, 0x70, 0x86, 0x4B,
    0x00, 0x81, 0x70, 0x96, 0x4B, 0x3C, 0x81, 0x70, 0x86, 0x4B, 0x00, 0x00, 0x96, 0x49, 0x3C, 0x81,
    0x70, 0x86, 0x49, 0x00, 0x00, 0x96, 0x4B, 0x3C, 0x81, 0x70, 0x86, 0x4B, 0x00, 0x00, 0x96, 0x3F,
    0x3C, 0x83, 0x60, 0x86, 0x3F, 0x00, 0x00, 0x96, 0x3F, 0x3C, 0x81, 0x70, 0x86, 0x3F, 0x00, 0x00,
    0x96, 0x4B, 0x3C, 0x81, 0x70, 0x86, 0x4B, 0x00, 0x81, 0x70, 0x96, 0x4B, 0x3C, 0x81, 0x70, 0x86,
    0x4B, 0x00, 0x00, 0x96, 0x49, 0x3C, 0x81, 0x70, 0x86, 0x49, 0x00, 0x00, 0x96, 0x4B, 0x3C, 0x81,
    0x70, 0x86, 0x4B, 0x00, 0x00, 0x96, 0x3F, 0x3C, 0x83, 0x60, 0x86, 0x3F, 0x00, 0x00, 0x96, 0x4B,
    0x3C, 0x81, 0x70, 0x86, 0x4B, 0x00, 0x00, 0x96, 0x4E, 0x3C, 0x81, 0x70, 0x86, 0x4E, 0x00, 0x00,
    0x96, 0x44, 0x3C, 0x83, 0x60, 0x86, 0x44, 0x00, 0x00, 0x96, 0x4E, 0x3C, 0x81, 0x70, 0x86, 0x4E,
    0x00, 0x00, 0x96, 0x50, 0x3C, 0x81, 0x70, 0x86, 0x50, 0x00, 0x00, 0x96, 0x3F, 0x3C, 0x83, 0x60,
    0x86, 0x3F, 0x00, 0x00, 0x96, 0x3F, 0x3C, 0x81, 0x70, 0x86, 0x3F, 0x00, 0x00, 0x96, 0x4B, 0x3C,
    0x81, 0x70, 0x86, 0x4B, 0x00, 0x81, 0x70, 0x96, 0x4B, 0x3C, 0x81, 0x70, 0x86, 0x4B, 0x00, 0x00,
    0x96, 0x49, 0x3C, 0x81, 0x70, 0x86, 0x49, 0x00, 0x00, 0x96, 0x4B, 0x3C, 0x81, 0x70, 0x86, 0x4B,
    0x00, 0x00, 0x96, 0x3F, 0x3C, 0x83, 0x60, 0x86, 0x3F, 0x00, 0x00, 0x96, 0x3F, 0x3C, 0x81, 0x70,
    0x86, 0x3F, 0x00, 0x00, 0x96, 0x4B, 0x3C, 0x81, 0x70, 0x86, 0x4B, 0x00, 0x81, 0x70, 0x96, 0x4B,
    0x3C, 0x81, 0x70, 0x86, 0x4B, 0x00, 0x00, 0x96, 0x49, 0x3C, 0x81, 0x70, 0x86, 0x49, 0x00, 0x00,
    0x96, 0x4B, 0x3C, 0x81, 0x70, 0x86, 0x4B, 0x00, 0x00, 0x96, 0x3F, 0x3C, 0x83, 0x60, 0x86, 0x3F,
    0x00, 0x00, 0x96, 0x3F, 0x3C, 0x81, 0x70, 0x86, 0x3F, 0x00, 0x00, 0x96, 0x4B, 0x3C, 0x81, 0x70,
    0x86, 0x4B, 0x00, 0x81, 0x70, 0x96, 0x4B, 0x3C, 0x81, 0x70, 0x86, 0x4B, 0x00, 0x00, 0x96, 0x49,
    0x3C, 0x81, 0x70, 0x86, 0x49, 0x00, 0x00, 0x96, 0x4B, 0x3C, 0x81, 0x70, 0x86, 0x4B, 0x00, 0x00,
    0x96, 0x3F, 0x3C, 0x83, 0x60, 0x86, 0x3F, 0x00, 0x00, 0x96, 0x4B, 0x3C, 0x81, 0x70, 0x86, 0x4B,
    0x00, 0x00, 0x96, 0x4E, 0x3C, 0x81, 0x70, 0x86, 0x4E, 0x00, 0x00, 0x96, 0x44, 0x3C, 0x83, 0x60,
    0x86, 0x44, 0x00, 0x00, 0x96, 0x4E, 0x3C, 0x81, 0x70, 0x86, 0x4E, 0x00, 0x00, 0x96, 0x50, 0x3C,
    0x81, 0x70, 0x86, 0x50, 0x00, 0x00, 0x96, 0x3F, 0x3C, 0x83, 0x60, 0x86, 0x3F, 0x00, 0x00, 0x96,
    0x3F, 0x3C, 0x81, 0x70, 0x86, 0x3F, 0x00, 0x00, 0x96, 0x4B, 0x3C, 0x81, 0x70, 0x86, 0x4B, 0x00,
    0x81, 0x70, 0x96, 0x4B, 0x3C, 0x81, 0x70, 0x86, 0x4B, 0x00, 0x00, 0x96, 0x49, 0x3C, 0x81, 0x70,
    0x86, 0x49, 0x00, 0x00, 0x96, 0x4B, 0x3C, 0x81, 0x70, 0x86, 0x4B, 0x00, 0x00, 0x96, 0x3F, 0x3C,
    0x83, 0x60, 0x86, 0x3F, 0x00, 0x00, 0x96, 0x3F, 0x3C, 0x81, 0x70, 0x86, 0x3F, 0x00, 0x00, 0x96,
    0x4B, 0x3C, 0x81, 0x70, 0x86, 0x4B, 0x00, 0x81, 0x70, 0x96, 0x4B, 0x3C, 0x81, 0x70, 0x86, 0x4B,
    0x00, 0x00, 0x96, 0x49, 0x3C, 0x81, 0x70, 0x86, 0x49, 0x00, 0x00, 0x96, 0x4B, 0x3C, 0x81, 0x70,
    0x86, 0x4B, 0x00, 0x00, 0x96, 0x3F, 0x3C, 0x83, 0x60, 0x86, 0x3F, 0x00, 0x00, 0x96, 0x3F, 0x3C,
    0x81, 0x70, 0x86, 0x3F, 0x00, 0x00, 0x96, 0x4B, 0x3C, 0x81, 0x70, 0x86, 0x4B, 0x00, 0x81, 0x70,
    0x96, 0x4B, 0x3C, 0x81, 0x70, 0x86, 0x4B, 0x00, 0x00, 0x96, 0x49, 0x3C, 0x81, 0x70, 0x86, 0x49,
    0x00, 0x00, 0x96, 0x4B, 0x3C, 0x81, 0x70, 0x86, 0x4B, 0x00, 0x00, 0x96, 0x3F, 0x3C, 0x83, 0x60,
    0x86, 0x3F, 0x00, 0x00, 0x96, 0x4B, 0x3C, 0x81, 0x70, 0x86, 0x4B, 0x00, 0x00, 0x96, 0x4E, 0x3C,
    0x81, 0x70, 0x86, 0x4E, 0x00, 0x00, 0x96, 0x44, 0x3C, 0x83, 0x60, 0x86, 0x44, 0x00, 0x00, 0x96,
    0x4E, 0x3C, 0x81, 0x70, 0x86, 0x4E, 0x00, 0x00, 0x96, 0x50, 0x3C, 0x81, 0x70, 0x86, 0x50, 0x00,
    0x00, 0x96, 0x3F, 0x3C, 0x83, 0x60, 0x86, 0x3F, 0x00, 0x00, 0x96, 0x3F, 0x3C, 0x81, 0x70, 0x86,
    0x3F, 0x00, 0x00, 0x96, 0x4B, 0x3C, 0x81, 0x70, 0x86, 0x4B, 0x00, 0x81, 0x70, 0x96, 0x4B, 0x3C,
    0x81, 0x70, 0x86, 0x4B, 0x00, 0x00, 0x96, 0x49, 0x3C, 0x81, 0x70, 0x86, 0x49, 0x00, 0x00, 0x96,
    0x4B, 0x3C, 0x81, 0x70, 0x86, 0x4B, 0x00, 0x00, 0x96, 0x3F, 0x3C, 0x83, 0x60, 0x86, 0x3F, 0x00,
    0x00, 0x96, 0x3F, 0x3C, 0x81, 0x70, 0x86, 0x3F, 0x00, 0x00, 0x96, 0x4B, 0x3C, 0x81, 0x70, 0x86,
    0x4B, 0x00, 0x81, 0x70, 0x96, 0x4B, 0x3C, 0x81, 0x70, 0x86, 0x4B, 0x00, 0x00, 0x96, 0x49, 0x3C,
    0x81, 0x70, 0x86, 0x49, 0x00, 0x00, 0x96, 0x4B, 0x3C, 0x81, 0x70, 0x86, 0x4B, 0x00, 0x00, 0x96,
    0x3F, 0x3C, 0x83, 0x60, 0x86, 0x3F, 0x00, 0x00, 0x96, 0x3F, 0x3C, 0x81, 0x70, 0x86, 0x3F, 0x00,
    0x00, 0x96, 0x4B, 0x3C, 0x81, 0x70, 0x86, 0x4B, 0x00, 0x81, 0x70, 0x96, 0x4B, 0x3C, 0x81, 0x70,
    0x86, 0x4B, 0x00, 0x00, 0x96, 0x49, 0x3C, 0x81, 0x70, 0x86, 0x49, 0x00, 0x00, 0x96, 0x4B, 0x3C,
    0x81, 0x70, 0x86, 0x4B, 0x00, 0x00, 0x96, 0x3F, 0x3C, 0x83, 0x60, 0x86, 0x3F, 0x00, 0x00, 0x96,
    0x4B, 0x3C, 0x81, 0x70, 0x86, 0x4B, 0x00, 0x00, 0x96, 0x4E, 0x3C, 0x81, 0x70, 0x86, 0x4E, 0x00,
    0x00, 0x96, 0x44, 0x3C, 0x83, 0x60, 0x86, 0x44, 0x00, 0x00, 0x96, 0x4E, 0x3C, 0x81, 0x70, 0x86,
    0x4E, 0x00, 0x00, 0x96, 0x50, 0x3C, 0x81, 0x70, 0x86, 0x50, 0x00, 0x00, 0x96, 0x3F, 0x3C, 0x83,
    0x60, 0x86, 0x3F, 0x00, 0x00, 0x96, 0x3F, 0x3C, 0x81, 0x70, 0x86, 0x3F, 0x00, 0x00, 0x96, 0x4B,
    0x3C, 0x81, 0x70, 0x86, 0x4B, 0x00, 0x81, 0x70, 0x96, 0x4B, 0x3C, 0x81, 0x70, 0x86, 0x4B, 0x00,
    0x00, 0x96, 0x49, 0x3C, 0x81, 0x70, 0x86, 0x49, 0x00, 0x00, 0x96, 0x4B, 0x3C, 0x81, 0x70, 0x86,
    0x4B, 0x00, 0x00, 0x96, 0x3F, 0x3C, 0x83, 0x60, 0x86, 0x3F, 0x00, 0x00, 0x96, 0x3F, 0x3C, 0x81,
    0x70, 0x86, 0x3F, 0x00, 0x00, 0x96, 0x4B, 0x3C, 0x81, 0x70, 0x86, 0x4B, 0x00, 0x81, 0x70, 0x96,
    0x4B, 0x3C, 0x81, 0x70, 0x86, 0x4B, 0x00, 0x00, 0x96, 0x49, 0x3C, 0x81, 0x70, 0x86, 0x49, 0x00,
    0x00, 0x96, 0x4B, 0x3C, 0x81, 0x70, 0x86, 0x4B, 0x00, 0x00, 0x96, 0x3F, 0x3C, 0x83, 0x60, 0x86,
    0x3F, 0x00, 0x00, 0x96, 0x3F, 0x3C, 0x81, 0x70, 0x86, 0x3F, 0x00, 0x00, 0x96, 0x4B, 0x3C, 0x81,
    0x70, 0x86, 0x4B, 0x00, 0x81, 0x70, 0x96, 0x4B, 0x3C, 0x81, 0x70, 0x86, 0x4B, 0x00, 0x00, 0x96,
    0x49, 0x3C, 0x81, 0x70, 0x86, 0x49, 0x00, 0x00, 0x96, 0x4B, 0x3C, 0x81, 0x70, 0x86, 0x4B, 0x00,
    0x00, 0x96, 0x3F, 0x3C, 0x83, 0x60, 0x86, 0x3F, 0x00, 0x00, 0x96, 0x4B, 0x3C, 0x81, 0x70, 0x86,
    0x4B, 0x00, 0x00, 0x96, 0x4E, 0x3C, 0x81, 0x70, 0x86, 0x4E, 0x00, 0x00, 0x96, 0x44, 0x3C, 0x83,
    0x60, 0x86, 0x44, 0x00, 0x00, 0x96, 0x4E, 0x3C, 0x81, 0x70, 0x86, 0x4E, 0x00, 0x00, 0x96, 0x50,
    0x3C, 0x81, 0x70, 0x86, 0x50, 0x00, 0x00, 0x96, 0x3F, 0x3C, 0x83, 0x60, 0x86, 0x3F, 0x00, 0x00,
    0x96, 0x3F, 0x3C, 0x81, 0x70, 0x86, 0x3F, 0x00, 0x00, 0x96, 0x4B, 0x3C, 0x81, 0x70, 0x86, 0x4B,
    0x00, 0x81, 0x70, 0x96, 0x4B, 0x3C, 0x81, 0x70, 0x86, 0x4B, 0x00, 0x00, 0x96, 0x49, 0x3C, 0x81,
    0x70, 0x86, 0x49, 0x00, 0x00, 0x96, 0x4B, 0x3C, 0x81, 0x70, 0x86, 0x4B, 0x00, 0x00, 0x96, 0x3F,
    0x3C, 0x83, 0x60, 0x86, 0x3F, 0x00, 0x00, 0x96, 0x3F, 0x3C, 0x81, 0x70, 0x86, 0x3F, 0x00, 0x00,
    0x96, 0x4B, 0x3C, 0x81, 0x70, 0x86, 0x4B, 0x00, 0x81, 0x70, 0x96, 0x4B, 0x3C, 0x81, 0x70, 0x86,
    0x4B, 0x00, 0x00, 0x96, 0x49, 0x3C, 0x81, 0x70, 0x86, 0x49, 0x00, 0x00, 0x96, 0x4B, 0x3C, 0x81,
    0x70, 0x86, 0x4B, 0x00, 0x00, 0x96, 0x3F, 0x3C, 0x83, 0x60, 0x86, 0x3F, 0x00, 0x00, 0x96, 0x3F,
    0x3C, 0x81, 0x70, 0x86, 0x3F, 0x00, 0x00, 0x96, 0x4B, 0x3C, 0x81, 0x70, 0x86, 0x4B, 0x00, 0x81,
    0x70, 0x96, 0x4B, 0x3C, 0x81, 0x70, 0x86, 0x4B, 0x00, 0x00, 0x96, 0x49, 0x3C, 0x81, 0x70, 0x86,
    0x49, 0x00, 0x00, 0x96, 0x4B, 0x3C, 0x81, 0x70, 0x86, 0x4B, 0x00, 0x00, 0x96, 0x3F, 0x3C, 0x83,
    0x60, 0x86, 0x3F, 0x00, 0x00, 0x96, 0x4B, 0x3C, 0x81, 0x70, 0x86, 0x4B, 0x00, 0x00, 0x96, 0x4E,
    0x3C, 0x81, 0x70, 0x86, 0x4E, 0x00, 0x00, 0x96, 0x44, 0x3C, 0x83, 0x60, 0x86, 0x44, 0x00, 0x00,
    0x96, 0x4E, 0x3C, 0x81, 0x70, 0x86, 0x4E, 0x00, 0x00, 0x96, 0x50, 0x3C, 0x81, 0x70, 0x86, 0x50,
    0x00, 0x00, 0x96, 0x3F, 0x3C, 0x83, 0x60, 0x86, 0x3F, 0x00, 0x00, 0x96, 0x3F, 0x3C, 0x81, 0x70,
    0x86, 0x3F, 0x00, 0x00, 0x96, 0x4B, 0x3C, 0x81, 0x70, 0x86, 0x4B, 0x00, 0x81, 0x70, 0x96, 0x4B,
    0x3C, 0x81, 0x70, 0x86, 0x4B, 0x00, 0x00, 0x96, 0x49, 0x3C, 0x81, 0x70, 0x86, 0x49, 0x00, 0x00,
    0x96, 0x4B, 0x3C, 0x81, 0x70, 0x86, 0x4B, 0x00, 0x00, 0x96, 0x3F, 0x3C, 0x83, 0x60, 0x86, 0x3F,
    0x00, 0x00, 0x96, 0x3F, 0x3C, 0x81, 0x70, 0x86, 0x3F, 0x00, 0x00, 0x96, 0x4B, 0x3C, 0x81, 0x70,
    0x86, 0x4B, 0x00, 0x81, 0x70, 0x96, 0x4B, 0x3C, 0x81, 0x70, 0x86, 0x4B, 0x00, 0x00, 0x96, 0x49,
    0x3C, 0x81, 0x70, 0x86, 0x49, 0x00, 0x00, 0x96, 0x4B, 0x3C, 0x81, 0x70, 0x86, 0x4B, 0x00, 0x00,
    0x96, 0x3F, 0x3C, 0x83, 0x60, 0x86, 0x3F, 0x00, 0x00, 0x96, 0x3F, 0x3C, 0x81, 0x70, 0x86, 0x3F,
    0x00, 0x00, 0x96, 0x4B, 0x3C, 0x81, 0x70, 0x86, 0x4B, 0x00, 0x81, 0x70, 0x96, 0x4B, 0x3C, 0x81,
    0x70, 0x86, 0x4B, 0x00, 0x00, 0x96, 0x49, 0x3C, 0x81, 0x70, 0x86, 0x49, 0x00, 0x00, 0x96, 0x4B,
    0x3C, 0x81, 0x70, 0x86, 0x4B, 0x00, 0x00, 0x96, 0x3F, 0x3C, 0x83, 0x60, 0x86, 0x3F, 0x00, 0x00,
    0x96, 0x4B, 0x3C, 0x81, 0x70, 0x86, 0x4B, 0x00, 0x00, 0x96, 0x4E, 0x3C, 0x81, 0x70, 0x86, 0x4E,
    0x00, 0x00, 0x96, 0x44, 0x3C, 0x83, 0x60, 0x86, 0x44, 0x00, 0x00, 0x96, 0x4E, 0x3C, 0x81, 0x70,
    0x86, 0x4E, 0x00, 0x00, 0x96, 0x50, 0x3C, 0x81, 0x70, 0x86, 0x50, 0x00, 0x00, 0x96, 0x3F, 0x3C,
    0x83, 0x60, 0x86, 0x3F, 0x00, 0x00, 0x96, 0x3F, 0x3C, 0x81, 0x70, 0x86, 0x3F, 0x00, 0x00, 0x96,
    0x4B, 0x3C, 0x81, 0x70, 0x86, 0x4B, 0x00, 0x81, 0x70, 0x96, 0x4B, 0x3C, 0x81, 0x70, 0x86, 0x4B,
    0x00, 0x00, 0x96, 0x49, 0x3C, 0x81, 0x70, 0x86, 0x49, 0x00, 0x00, 0x96, 0x4B, 0x3C, 0x81, 0x70,
    0x86, 0x4B, 0x00, 0x00, 0x96, 0x3F, 0x3C, 0x83, 0x60, 0x86, 0x3F, 0x00, 0x00, 0x96, 0x3F, 0x3C,
    0x81, 0x70, 0x86, 0x3F, 0x00, 0x00, 0x96, 0x4B, 0x3C, 0x81, 0x70, 0x86, 0x4B, 0x00, 0x81, 0x70,
    0x96, 0x4B, 0x3C, 0x81, 0x70, 0x86, 0x4B, 0x00, 0x00, 0x96, 0x49, 0x3C, 0x81, 0x70, 0x86, 0x49,
    0x00, 0x00, 0x96, 0x4B, 0x3C, 0x81, 0x70, 0x86, 0x4B, 0x00, 0x00, 0x96, 0x3F, 0x3C, 0x83, 0x60,
    0x86, 0x3F, 0x00, 0x00, 0x96, 0x3F, 0x3C, 0x81, 0x70, 0x86, 0x3F, 0x00, 0x00, 0x96, 0x4B, 0x3C,
    0x81, 0x70, 0x86, 0x4B, 0x00, 0x81, 0x70, 0x96, 0x4B, 0x3C, 0x81, 0x70, 0x86, 0x4B, 0x00, 0x00,
    0x96, 0x49, 0x3C, 0x81, 0x70, 0x86, 0x49, 0x00, 0x00, 0x96, 0x4B, 0x3C, 0x81, 0x70, 0x86, 0x4B,
    0x00, 0x00, 0x96, 0x3F, 0x3C, 0x83, 0x60, 0x86, 0x3F, 0x00, 0x00, 0x96, 0x4B, 0x3C, 0x81, 0x70,
    0x86, 0x4B, 0x00, 0x00, 0x96, 0x4E, 0x3C, 0x81, 0x70, 0x86, 0x4E, 0x00, 0x00, 0x96, 0x44, 0x3C,
    0x83, 0x60, 0x86, 0x44, 0x00, 0x00, 0x96, 0x4E, 0x3C, 0x81, 0x70, 0x86, 0x4E, 0x00, 0x00, 0x96,
    0x50, 0x3C, 0x81, 0x70, 0x86, 0x50, 0x00, 0x00, 0x96, 0x3F, 0x3C, 0x83, 0x60, 0x86, 0x3F, 0x00,
    0x00, 0x96, 0x3F, 0x3C, 0x81, 0x70, 0x86, 0x3F, 0x00, 0x00, 0x96, 0x4B, 0x3C, 0x81, 0x70, 0x86,
    0x4B, 0x00, 0x81, 0x70, 0x96, 0x4B, 0x3C, 0x81, 0x70, 0x86, 0x4B, 0x00, 0x00, 0x96, 0x49, 0x3C,
    0x81, 0x70, 0x86, 0x49, 0x00, 0x00, 0x96, 0x4B, 0x3C, 0x81, 0x70, 0x86, 0x4B, 0x00, 0x00, 0x96,
    0x3F, 0x3C, 0x83, 0x60, 0x86, 0x3F, 0x00, 0x00, 0x96, 0x3F, 0x3C, 0x81, 0x70, 0x86, 0x3F, 0x00,
    0x00, 0x96, 0x4B, 0x3C, 0x81, 0x70, 0x86, 0x4B, 0x00, 0x81, 0x70, 0x96, 0x4B, 0x3C, 0x81, 0x70,
    0x86, 0x4B, 0x00, 0x00, 0x96, 0x49, 0x3C, 0x81, 0x70, 0x86, 0x49, 0x00, 0x00, 0x96, 0x4B, 0x3C,
    0x81, 0x70, 0x86, 0x4B, 0x00, 0x00, 0x96, 0x3F, 0x3C, 0x83, 0x60, 0x86, 0x3F, 0x00, 0x00, 0x96,
    0x3F, 0x3C, 0x81, 0x70, 0x86, 0x3F, 0x00, 0x00, 0x96, 0x4B, 0x3C, 0x81, 0x70, 0x86, 0x4B, 0x00,
    0x81, 0x70, 0x96, 0x4B, 0x3C, 0x81, 0x70, 0x86, 0x4B, 0x00, 0x00, 0x96, 0x49, 0x3C, 0x81, 0x70,
    0x86, 0x49, 0x00, 0x00, 0x96, 0x4B, 0x3C, 0x81, 0x70, 0x86, 0x4B, 0x00, 0x00, 0x96, 0x3F, 0x3C,
    0x83, 0x60, 0x86, 0x3F, 0x00, 0x00, 0x96, 0x4B, 0x3C, 0x81, 0x70, 0x86, 0x4B, 0x00, 0x00, 0x96,
    0x4E, 0x3C, 0x81, 0x70, 0x86, 0x4E, 0x00, 0x00, 0x96, 0x44, 0x3C, 0x83, 0x60, 0x86, 0x44, 0x00,
    0x00, 0x96, 0x4E, 0x3C, 0x81, 0x70, 0x86, 0x4E, 0x00, 0x00, 0x96, 0x50, 0x3C, 0x81, 0x70, 0x86,
    0x50, 0x00, 0x00, 0x96, 0x3F, 0x3C, 0x83, 0x60, 0x86, 0x3F, 0x00, 0x00, 0x96, 0x3F, 0x3C, 0x81,
    0x70, 0x86, 0x3F, 0x00, 0x00, 0x96, 0x4B, 0x3C, 0x81, 0x70, 0x86, 0x4B, 0x00, 0x81, 0x70, 0x96,
    0x4B, 0x3C, 0x81, 0x70, 0x86, 0x4B, 0x00, 0x00, 0x96, 0x49, 0x3C, 0x81, 0x70, 0x86, 0x49, 0x00,
    0x00, 0x96, 0x4B, 0x3C, 0x81, 0x70, 0x86, 0x4B, 0x00, 0x00, 0x96, 0x3F, 0x3C, 0x83, 0x60, 0x86,
    0x3F, 0x00, 0x00, 0x96, 0x3F, 0x3C, 0x81, 0x70, 0x86, 0x3F, 0x00, 0x00, 0x96, 0x4B, 0x3C, 0x81,
    0x70, 0x86, 0x4B, 0x00, 0x81, 0x70, 0x96, 0x4B, 0x3C, 0x81, 0x70, 0x86, 0x4B, 0x00, 0x00, 0x96,
    0x49, 0x3C, 0x81, 0x70, 0x86, 0x49, 0x00, 0x00, 0x96, 0x4B, 0x3C, 0x81, 0x70, 0x86, 0x4B, 0x00,
    0x00, 0x96, 0x3F, 0x3C, 0x83, 0x60, 0x86, 0x3F, 0x00, 0x00, 0x96, 0x3F, 0x3C, 0x81, 0x70, 0x86,
    0x3F, 0x00, 0x00, 0x96, 0x4B, 0x3C, 0x81, 0x70, 0x86, 0x4B, 0x00, 0x81, 0x70, 0x96, 0x4B, 0x3C,
    0x81, 0x70, 0x86, 0x4B, 0x00, 0x00, 0x96, 0x49, 0x3C, 0x81, 0x70, 0x86, 0x49, 0x00, 0x00, 0x96,
    0x4B, 0x3C, 0x81, 0x70, 0x86, 0x4B, 0x00, 0x00, 0x96, 0x3F, 0x3C, 0x83, 0x60, 0x86, 0x3F, 0x00,
    0x00, 0x96, 0x4B, 0x3C, 0x81, 0x70, 0x86, 0x4B, 0x00, 0x00, 0x96, 0x4E, 0x3C, 0x81, 0x70, 0x86,
    0x4E, 0x00, 0x00, 0x96, 0x44, 0x3C, 0x83, 0x60, 0x86, 0x44, 0x00, 0x00, 0x96, 0x4E, 0x3C, 0x81,
    0x70, 0x86, 0x4E, 0x00, 0x00, 0x96, 0x50, 0x3C, 0x81, 0x70, 0x86, 0x50, 0x00, 0x00, 0x96, 0x3F,
    0x3C, 0x83, 0x60, 0x86, 0x3F, 0x00, 0x00, 0x96, 0x3F, 0x3C, 0x81, 0x70, 0x86, 0x3F, 0x00, 0x00,
    0x96, 0x4B, 0x3C, 0x81, 0x70, 0x86, 0x4B, 0x00, 0x81, 0x70, 0x96, 0x4B, 0x3C, 0x81, 0x70, 0x86,
    0x4B, 0x00, 0x00, 0x96, 0x49, 0x3C, 0x81, 0x70, 0x86, 0x49, 0x00, 0x00, 0x96, 0x4B, 0x3C, 0x81,
    0x70, 0x86, 0x4B, 0x00, 0x00, 0x96, 0x3F, 0x3C, 0x83, 0x60, 0x86, 0x3F, 0x00, 0x00, 0x96, 0x3F,
    0x3C, 0x81, 0x70, 0x86, 0x3F, 0x00, 0x00, 0x96, 0x4B, 0x3C, 0x81, 0x70, 0x86, 0x4B, 0x00, 0x81,
    0x70, 0x96, 0x4B, 0x3C, 0x81, 0x70, 0x86, 0x4B, 0x00, 0x00, 0x96, 0x49, 0x3C, 0x81, 0x70, 0x86,
    0x49, 0x00, 0x00, 0x96, 0x4B, 0x3C, 0x81, 0x70, 0x86, 0x4B, 0x00, 0x00, 0x96, 0x3F, 0x3C, 0x83,
    0x60, 0x86, 0x3F, 0x00, 0x00, 0x96, 0x3F, 0x3C, 0x81, 0x70, 0x86, 0x3F, 0x00, 0x00, 0x96, 0x4B,
    0x3C, 0x81, 0x70, 0x86, 0x4B, 0x00, 0x81, 0x70, 0x96, 0x4B, 0x3C, 0x81, 0x70, 0x86, 0x4B, 0x00,
    0x00, 0x96, 0x49, 0x3C, 0x81, 0x70, 0x86, 0x49, 0x00, 0x00, 0x96, 0x4B, 0x3C, 0x81, 0x70, 0x86,
    0x4B, 0x00, 0x00, 0x96, 0x3F, 0x3C, 0x83, 0x60, 0x86, 0x3F, 0x00, 0x00, 0x96, 0x4B, 0x3C, 0x81,
    0x70, 0x86, 0x4B, 0x00, 0x00, 0x96, 0x4E, 0x3C, 0x81, 0x70, 0x86, 0x4E, 0x00, 0x00, 0x96, 0x44,
    0x3C, 0x83, 0x60, 0x86, 0x44, 0x00, 0x00, 0x96, 0x4E, 0x3C, 0x81, 0x70, 0x86, 0x4E, 0x00, 0x00,
    0x96, 0x50, 0x3C, 0x81, 0x70, 0x86, 0x50, 0x00, 0x00, 0x96, 0x3F, 0x3C, 0x83, 0x60, 0x86, 0x3F,
    0x00, 0x00, 0x96, 0x3F, 0x3C, 0x81, 0x70, 0x86, 0x3F, 0x00, 0x00, 0x96, 0x4B, 0x3C, 0x81, 0x70,
    0x86, 0x4B, 0x00, 0x81, 0x70, 0x96, 0x4B, 0x3C, 0x81, 0x70, 0x86, 0x4B, 0x00, 0x00, 0x96, 0x49,
    0x3C, 0x81, 0x70, 0x86, 0x49, 0x00, 0x00, 0x96, 0x4B, 0x3C, 0x81, 0x70, 0x86, 0x4B, 0x00, 0x00,
    0x96, 0x3F, 0x3C, 0x83, 0x60, 0x86, 0x3F, 0x00, 0x00, 0x96, 0x3F, 0x3C, 0x81, 0x70, 0x86, 0x3F,
    0x00, 0x00, 0x96, 0x4B, 0x3C, 0x81, 0x70, 0x86, 0x4B, 0x00, 0x81, 0x70, 0x96, 0x4B, 0x3C, 0x81,
    0x70, 0x86, 0x4B, 0x00, 0x00, 0x96, 0x49, 0x3C, 0x81, 0x70, 0x86, 0x49, 0x00, 0x00, 0x96, 0x4B,
    0x3C, 0x81, 0x70, 0x86, 0x4B, 0x00, 0x00, 0x96, 0x3F, 0x3C, 0x83, 0x60, 0x86, 0x3F, 0x00, 0x00,
    0x96, 0x3F, 0x3C, 0x81, 0x70, 0x86, 0x3F, 0x00, 0x00, 0x96, 0x4B, 0x3C, 0x81, 0x70, 0x86, 0x4B,
    0x00, 0x81, 0x70, 0x96, 0x4B, 0x3C, 0x81, 0x70, 0x86, 0x4B, 0x00, 0x00, 0x96, 0x49, 0x3C, 0x81,
    0x70, 0x86, 0x49, 0x00, 0x00, 0x96, 0x4B, 0x3C, 0x81, 0x70, 0x86, 0x4B, 0x00, 0x00, 0x96, 0x3F,
    0x3C, 0x83, 0x60, 0x86, 0x3F, 0x00, 0x00, 0x96, 0x4B, 0x3C, 0x81, 0x70, 0x86, 0x4B, 0x00, 0x00,
    0x96, 0x4E, 0x3C, 0x81, 0x70, 0x86, 0x4E, 0x00, 0x00, 0x96, 0x44, 0x3C, 0x83, 0x60, 0x86, 0x44,
    0x00, 0x00, 0x96, 0x4E, 0x3C, 0x81, 0x70, 0x86, 0x4E, 0x00, 0x00, 0x96, 0x50, 0x3C, 0x81, 0x70,
    0x86, 0x50, 0x00, 0x00, 0x96, 0x3F, 0x3C, 0x83, 0x60, 0x86, 0x3F, 0x00, 0x00, 0x96, 0x3F, 0x3C,
    0x81, 0x70, 0x86, 0x3F, 0x00, 0x00, 0x96, 0x4B, 0x3C, 0x81, 0x70, 0x86, 0x4B, 0x00, 0x81, 0x70,
    0x96, 0x4B, 0x3C, 0x81, 0x70, 0x86, 0x4B, 0x00, 0x00, 0x96, 0x49, 0x3C, 0x81, 0x70, 0x86, 0x49,
    0x00, 0x00, 0x96, 0x4B, 0x3C, 0x81, 0x70, 0x86, 0x4B, 0x00, 0x00, 0x96, 0x3F, 0x3C, 0x83, 0x60,
    0x86, 0x3F, 0x00, 0x00, 0x96, 0x3F, 0x3C, 0x81, 0x70, 0x86, 0x3F, 0x00, 0x00, 0x96, 0x4B, 0x3C,
    0x81, 0x70, 0x86, 0x4B, 0x00, 0x81, 0x70, 0x96, 0x4B, 0x3C, 0x81, 0x70, 0x86, 0x4B, 0x00, 0x00,
    0x96, 0x49, 0x3C, 0x81, 0x70, 0x86, 0x49, 0x00, 0x00, 0x96, 0x4B, 0x3C, 0x81, 0x70, 0x86, 0x4B,
    0x00, 0x00, 0x96, 0x3F, 0x3C, 0x83, 0x60, 0x86, 0x3F, 0x00, 0x00, 0x96, 0x3F, 0x3C, 0x81, 0x70,
    0x86, 0x3F, 0x00, 0x00, 0x96, 0x4B, 0x3C, 0x81, 0x70, 0x86, 0x4B, 0x00, 0x81, 0x70, 0x96, 0x4B,
    0x3C, 0x81, 0x70, 0x86, 0x4B, 0x00, 0x00, 0x96, 0x49, 0x3C, 0x81, 0x70, 0x86, 0x49, 0x00, 0x00,
    0x96, 0x4B, 0x3C, 0x81, 0x70, 0x86, 0x4B, 0x00, 0x00, 0x96, 0x3F, 0x3C, 0x83, 0x60, 0x86, 0x3F,
    0x00, 0x00, 0x96, 0x4B, 0x3C, 0x81, 0x70, 0x86, 0x4B, 0x00, 0x00, 0x96, 0x4E, 0x3C, 0x81, 0x70,
    0x86, 0x4E, 0x00, 0x00, 0x96, 0x44, 0x3C, 0x83, 0x60, 0x86, 0x44, 0x00, 0x00, 0x96, 0x4E, 0x3C,
    0x81, 0x70, 0x86, 0x4E, 0x00, 0x00, 0x96, 0x50, 0x3C, 0x81, 0x70, 0x86, 0x50, 0x00, 0x00, 0x96,
    0x3F, 0x3C, 0x83, 0x60, 0x86, 0x3F, 0x00, 0x00, 0x96, 0x3F, 0x3C, 0x81, 0x70, 0x86, 0x3F, 0x00,
    0x00, 0x96, 0x4B, 0x3C, 0x81, 0x70, 0x86, 0x4B, 0x00, 0x81, 0x70, 0x96, 0x4B, 0x3C, 0x81, 0x70,
    0x86, 0x4B, 0x00, 0x00, 0x96, 0x49, 0x3C, 0x81, 0x70, 0x86, 0x49, 0x00, 0x00, 0x96, 0x4B, 0x3C,
    0x81, 0x70, 0x86, 0x4B, 0x00, 0x00, 0x96, 0x3F, 0x3C, 0x83, 0x60, 0x86, 0x3F, 0x00, 0x00, 0x96,
    0x3F, 0x3C, 0x81, 0x70, 0x86, 0x3F, 0x00, 0x00, 0x96, 0x4B, 0x3C, 0x81, 0x70, 0x86, 0x4B, 0x00,
    0x81, 0x70, 0x96, 0x4B, 0x3C, 0x81, 0x70, 0x86, 0x4B, 0x00, 0x00, 0x96, 0x49, 0x3C, 0x81, 0x70,
    0x86, 0x49, 0x00, 0x00, 0x96, 0x4B, 0x3C, 0x81, 0x70, 0x86, 0x4B, 0x00, 0x00, 0x96, 0x3F, 0x3C,
    0x83, 0x60, 0x86, 0x3F, 0x00, 0x00, 0x96, 0x3F, 0x3C, 0x81, 0x70, 0x86, 0x3F, 0x00, 0x00, 0x96,
    0x4B, 0x3C, 0x81, 0x70, 0x86, 0x4B, 0x00, 0x81, 0x70, 0x96, 0x4B, 0x3C, 0x81, 0x70, 0x86, 0x4B,
    0x00, 0x00, 0x96, 0x49, 0x3C, 0x81, 0x70, 0x86, 0x49, 0x00, 0x00, 0x96, 0x4B, 0x3C, 0x81, 0x70,
    0x86, 0x4B, 0x00, 0x00, 0x96, 0x3F, 0x3C, 0x83, 0x60, 0x86, 0x3F, 0x00, 0x00, 0x96, 0x4B, 0x3C,
    0x81, 0x70, 0x86, 0x4B, 0x00, 0x00, 0x96, 0x4E, 0x3C, 0x81, 0x70, 0x86, 0x4E, 0x00, 0x00, 0x96,
    0x44, 0x3C, 0x83, 0x60, 0x86, 0x44, 0x00, 0x00, 0x96, 0x4E, 0x3C, 0x81, 0x70, 0x86, 0x4E, 0x00,
    0x00, 0x96, 0x50, 0x3C, 0x81, 0x70, 0x86, 0x50, 0x00, 0x00, 0x96, 0x3F, 0x3C, 0x83, 0x60, 0x86,
    0x3F, 0x00, 0x00, 0x96, 0x3F, 0x3C, 0x81, 0x70, 0x86, 0x3F, 0x00, 0x00, 0x96, 0x4B, 0x3C, 0x81,
    0x70, 0x86, 0x4B, 0x00, 0x81, 0x70, 0x96, 0x4B, 0x3C, 0x81, 0x70, 0x86, 0x4B, 0x00, 0x00, 0x96,
    0x49, 0x3C, 0x81, 0x70, 0x86, 0x49, 0x00, 0x00, 0x96, 0x4B, 0x3C, 0x81, 0x70, 0x86, 0x4B, 0x00,
    0x00, 0x96, 0x3F, 0x3C, 0x83, 0x60, 0x86, 0x3F, 0x00, 0x00, 0x96, 0x3F, 0x3C, 0x81, 0x70, 0x86,
    0x3F, 0x00, 0x00, 0x96, 0x4B, 0x3C, 0x81, 0x70, 0x86, 0x4B, 0x00, 0x81, 0x70, 0x96, 0x4B, 0x3C,
    0x81, 0x70, 0x86, 0x4B, 0x00, 0x00, 0x96, 0x49, 0x3C, 0x81, 0x70, 0x86, 0x49, 0x00, 0x00, 0x96,
    0x4B, 0x3C, 0x81, 0x70, 0x86, 0x4B, 0x00, 0x00, 0x96, 0x3F, 0x3C, 0x83, 0x60, 0x86, 0x3F, 0x00,
    0x00, 0x96, 0x3F, 0x3C, 0x81, 0x70, 0x86, 0x3F, 0x00, 0x00, 0x96, 0x4B, 0x3C, 0x81, 0x70, 0x86,
    0x4B, 0x00, 0x81, 0x70, 0x96, 0x4B, 0x3C, 0x81, 0x70, 0x86, 0x4B, 0x00, 0x00, 0x96, 0x49, 0x3C,
    0x81, 0x70, 0x86, 0x49, 0x00, 0x00, 0x96, 0x4B, 0x3C, 0x81, 0x70, 0x86, 0x4B, 0x00, 0x00, 0x96,
    0x3F, 0x3C, 0x83, 0x60, 0x86, 0x3F, 0x00, 0x00, 0x96, 0x4B, 0x3C, 0x81, 0x70, 0x86, 0x4B, 0x00,
    0x00, 0x96, 0x4E, 0x3C, 0x81, 0x70, 0x86, 0x4E, 0x00, 0x00, 0x96, 0x44, 0x3C, 0x83, 0x60, 0x86,
    0x44, 0x00, 0x00, 0x96, 0x4E, 0x3C, 0x81, 0x70, 0x86, 0x4E, 0x00, 0x00, 0x96, 0x50, 0x3C, 0x81,
    0x70, 0x86, 0x50, 0x00, 0x00, 0x96, 0x3F, 0x3C, 0x83, 0x60, 0x86, 0x3F, 0x00, 0x00, 0x96, 0x3F,
    0x3C, 0x81, 0x70, 0x86, 0x3F, 0x00, 0x00, 0x96, 0x4B, 0x3C, 0x81, 0x70, 0x86, 0x4B, 0x00, 0x81,
    0x70, 0x96, 0x4B, 0x3C, 0x81, 0x70, 0x86, 0x4B, 0x00, 0x00, 0x96, 0x49, 0x3C, 0x81, 0x70, 0x86,
    0x49, 0x00, 0x00, 0x96, 0x4B, 0x3C, 0x81, 0x70, 0x86, 0x4B, 0x00, 0x00, 0x96, 0x3F, 0x3C, 0x83,
    0x60, 0x86, 0x3F, 0x00, 0x00, 0x96, 0x3F, 0x3C, 0x81, 0x70, 0x86, 0x3F, 0x00, 0x00, 0x96, 0x4B,
    0x3C, 0x81, 0x70, 0x86, 0x4B, 0x00, 0x81, 0x70, 0x96, 0x4B, 0x3C, 0x81, 0x70, 0x86, 0x4B, 0x00,
    0x00, 0x96, 0x49, 0x3C, 0x81, 0x70, 0x86, 0x49, 0x00, 0x00, 0x96, 0x4B, 0x3C, 0x81, 0x70, 0x86,
    0x4B, 0x00, 0x00, 0x96, 0x3F, 0x3C, 0x83, 0x60, 0x86, 0x3F, 0x00, 0x00, 0x96, 0x3F, 0x3C, 0x81,
    0x70, 0x86, 0x3F, 0x00, 0x00, 0x96, 0x4B, 0x3C, 0x81, 0x70, 0x86, 0x4B, 0x00, 0x81, 0x70, 0x96,
    0x4B, 0x3C, 0x81, 0x70, 0x86, 0x4B, 0x00, 0x00, 0x96, 0x49, 0x3C, 0x81, 0x70, 0x86, 0x49, 0x00,
    0x00, 0x96, 0x4B, 0x3C, 0x81, 0x70, 0x86, 0x4B, 0x00, 0x00, 0x96, 0x3F, 0x3C, 0x83, 0x60, 0x86,
    0x3F, 0x00, 0x00, 0x96, 0x4B, 0x3C, 0x81, 0x70, 0x86, 0x4B, 0x00, 0x00, 0x96, 0x4E, 0x3C, 0x81,
    0x70, 0x86, 0x4E, 0x00, 0x00, 0x96, 0x44, 0x3C, 0x83, 0x60, 0x86, 0x44, 0x00, 0x00, 0x96, 0x4E,
    0x3C, 0x81, 0x70, 0x86, 0x4E, 0x00, 0x00, 0x96, 0x50, 0x3C, 0x81, 0x70, 0x86, 0x50, 0x00, 0x00,
    0x96, 0x3F, 0x3C, 0x83, 0x60, 0x86, 0x3F, 0x00, 0x00, 0x96, 0x3F, 0x3C, 0x81, 0x70, 0x86, 0x3F,
    0x00, 0x00, 0x96, 0x4B, 0x3C, 0x81, 0x70, 0x86, 0x4B, 0x00, 0x81, 0x70, 0x96, 0x4B, 0x3C, 0x81,
    0x70, 0x86, 0x4B, 0x00, 0x00, 0x96, 0x49, 0x3C, 0x81, 0x70, 0x86, 0x49, 0x00, 0x00, 0x96, 0x4B,
    0x3C, 0x81, 0x70, 0x86, 0x4B, 0x00, 0x00, 0x96, 0x3F, 0x3C, 0x83, 0x60, 0x86, 0x3F, 0x00, 0x00,
    0x96, 0x3F, 0x3C, 0x81, 0x70, 0x86, 0x3F, 0x00, 0x00, 0x96, 0x4B, 0x3C, 0x81, 0x70, 0x86, 0x4B,
    0x00, 0x81, 0x70, 0x96, 0x4B, 0x3C, 0x81, 0x70, 0x86, 0x4B, 0x00, 0x00, 0x96, 0x49, 0x3C, 0x81,
    0x70, 0x86, 0x49, 0x00, 0x00, 0x96, 0x4B, 0x3C, 0x81, 0x70, 0x86, 0x4B, 0x00, 0x00, 0x96, 0x3F,
    0x3C, 0x83, 0x60, 0x86, 0x3F, 0x00, 0x00, 0x96, 0x3F, 0x3C, 0x81, 0x70, 0x86, 0x3F, 0x00, 0x00,
    0x96, 0x4B, 0x3C, 0x81, 0x70, 0x86, 0x4B, 0x00, 0x81, 0x70, 0x96, 0x4B, 0x3C, 0x81, 0x70, 0x86,
    0x4B, 0x00, 0x00, 0x96, 0x49, 0x3C, 0x81, 0x70, 0x86, 0x49, 0x00, 0x00, 0x96, 0x4B, 0x3C, 0x81,
    0x70, 0x86, 0x4B, 0x00, 0x00, 0x96, 0x3F, 0x3C, 0x83, 0x60, 0x86, 0x3F, 0x00, 0x00, 0x96, 0x4B,
    0x3C, 0x81, 0x70, 0x86, 0x4B, 0x00, 0x00, 0x96, 0x4E, 0x3C, 0x81, 0x70, 0x86, 0x4E, 0x00, 0x00,
    0x96, 0x44, 0x3C, 0x83, 0x60, 0x86, 0x44, 0x00, 0x00, 0x96, 0x4E, 0x3C, 0x81, 0x70, 0x86, 0x4E,
    0x00, 0x00, 0x96, 0x50, 0x3C, 0x81, 0x70, 0x86, 0x50, 0x00, 0x00, 0x96, 0x3F, 0x3C, 0x83, 0x60,
    0x86, 0x3F, 0x00, 0x00, 0x96, 0x3F, 0x3C, 0x81, 0x70, 0x86, 0x3F, 0x00, 0x00, 0x96, 0x4B, 0x3C,
    0x81, 0x70, 0x86, 0x4B, 0x00, 0x81, 0x70, 0x96, 0x4B, 0x3C, 0x81, 0x70, 0x86, 0x4B, 0x00, 0x00,
    0x96, 0x49, 0x3C, 0x81, 0x70, 0x86, 0x49, 0x00, 0x00, 0x96, 0x4B, 0x3C, 0x81, 0x70, 0x86, 0x4B,
    0x00, 0x00, 0x96, 0x3F, 0x3C, 0x83, 0x60, 0x86, 0x3F, 0x00, 0x00, 0x96, 0x3F, 0x3C, 0x81, 0x70,
    0x86, 0x3F, 0x00, 0x00, 0x96, 0x4B, 0x3C, 0x81, 0x70, 0x86, 0x4B, 0x00, 0x81, 0x70, 0x96, 0x4B,
    0x3C, 0x81, 0x70, 0x86, 0x4B, 0x00, 0x00, 0x96, 0x49, 0x3C, 0x81, 0x70, 0x86, 0x49, 0x00, 0x00,
    0x96, 0x4B, 0x3C, 0x81, 0x70, 0x86, 0x4B, 0x00, 0x00, 0x96, 0x3F, 0x3C, 0x83, 0x60, 0x86, 0x3F,
    0x00, 0x00, 0x96, 0x3F, 0x3C, 0x81, 0x70, 0x86, 0x3F, 0x00, 0x00, 0x96, 0x4B, 0x3C, 0x81, 0x70,
    0x86, 0x4B, 0x00, 0x81, 0x70, 0x96, 0x4B, 0x3C, 0x81, 0x70, 0x86, 0x4B, 0x00, 0x00, 0x96, 0x49,
    0x3C, 0x81, 0x70, 0x86, 0x49, 0x00, 0x00, 0x96, 0x4B, 0x3C, 0x81, 0x70, 0x86, 0x4B, 0x00, 0x00,
    0x96, 0x3F, 0x3C, 0x83, 0x60, 0x86, 0x3F, 0x00, 0x00, 0x96, 0x4B, 0x3C, 0x81, 0x70, 0x86, 0x4B,
    0x00, 0x00, 0x96, 0x4E, 0x3C, 0x81, 0x70, 0x86, 0x4E, 0x00, 0x00, 0x96, 0x44, 0x3C, 0x83, 0x60,
    0x86, 0x44, 0x00, 0x00, 0x96, 0x4E, 0x3C, 0x81, 0x70, 0x86, 0x4E, 0x00, 0x00, 0x96, 0x50, 0x3C,
    0x81, 0x70, 0x86, 0x50, 0x00, 0x00, 0x96, 0x3F, 0x3C, 0x83, 0x60, 0x86, 0x3F, 0x00, 0x00, 0x96,
    0x3F, 0x3C, 0x81, 0x70, 0x86, 0x3F, 0x00, 0x00, 0x96, 0x4B, 0x3C, 0x81, 0x70, 0x86, 0x4B, 0x00,
    0x81, 0x70, 0x96, 0x4B, 0x3C, 0x81, 0x70, 0x86, 0x4B, 0x00, 0x00, 0x96, 0x49, 0x3C, 0x81, 0x70,
    0x86, 0x49, 0x00, 0x00, 0x96, 0x4B, 0x3C, 0x81, 0x70, 0x86, 0x4B, 0x00, 0x00, 0x96, 0x3F, 0x3C,
    0x83, 0x60, 0x86, 0x3F, 0x00, 0x00, 0x96, 0x3F, 0x3C, 0x81, 0x70, 0x86, 0x3F, 0x00, 0x00, 0x96,
    0x4B, 0x3C, 0x81, 0x70, 0x86, 0x4B, 0x00, 0x81, 0x70, 0x96, 0x4B, 0x3C, 0x81, 0x70, 0x86, 0x4B,
    0x00, 0x00, 0x96, 0x49, 0x3C, 0x81, 0x70, 0x86, 0x49, 0x00, 0x00, 0x96, 0x4B, 0x3C, 0x81, 0x70,
    0x86, 0x4B, 0x00, 0x00, 0x96, 0x3F, 0x3C, 0x83, 0x60, 0x86, 0x3F, 0x00, 0x00, 0x96, 0x3F, 0x3C,
    0x81, 0x70, 0x86, 0x3F, 0x00, 0x00, 0x96, 0x4B, 0x3C, 0x81, 0x70, 0x86, 0x4B, 0x00, 0x81, 0x70,
    0x96, 0x4B, 0x3C, 0x81, 0x70, 0x86, 0x4B, 0x00, 0x00, 0x96, 0x49, 0x3C, 0x81, 0x70, 0x86, 0x49,
    0x00, 0x00, 0x96, 0x4B, 0x3C, 0x81, 0x70, 0x86, 0x4B, 0x00, 0x00, 0x96, 0x3F, 0x3C, 0x83, 0x60,
    0x86, 0x3F, 0x00, 0x00, 0x96, 0x4B, 0x3C, 0x81, 0x70, 0x86, 0x4B, 0x00, 0x00, 0x96, 0x4E, 0x3C,
    0x81, 0x70, 0x86, 0x4E, 0x00, 0x00, 0x96, 0x44, 0x3C, 0x83, 0x60, 0x86, 0x44, 0x00, 0x00, 0x96,
    0x4E, 0x3C, 0x81, 0x70, 0x86, 0x4E, 0x00, 0x00, 0x96, 0x50, 0x3C, 0x81, 0x70, 0x86, 0x50, 0x00,
    0x00, 0x96, 0x3F, 0x3C, 0x83, 0x60, 0x86, 0x3F, 0x00, 0x00, 0x96, 0x3F, 0x3C, 0x81, 0x70, 0x86,
    0x3F, 0x00, 0x00, 0x96, 0x4B, 0x3C, 0x81, 0x70, 0x86, 0x4B, 0x00, 0x81, 0x70, 0x96, 0x4B, 0x3C,
    0x81, 0x70, 0x86, 0x4B, 0x00, 0x00, 0x96, 0x49, 0x3C, 0x81, 0x70, 0x86, 0x49, 0x00, 0x00, 0x96,
    0x4B, 0x3C, 0x81, 0x70, 0x86, 0x4B, 0x00, 0x00, 0x96, 0x3F, 0x3C, 0x83, 0x60, 0x86, 0x3F, 0x00,
    0x00, 0x96, 0x3F, 0x3C, 0x81, 0x70, 0x86, 0x3F, 0x00, 0x00, 0x96, 0x4B, 0x3C, 0x81, 0x70, 0x86,
    0x4B, 0x00, 0x81, 0x70, 0x96, 0x4B, 0x3C, 0x81, 0x70, 0x86, 0x4B, 0x00, 0x00, 0x96, 0x49, 0x3C,
    0x81, 0x70, 0x86, 0x49, 0x00, 0x00, 0x96, 0x4B, 0x3C, 0x81, 0x70, 0x86, 0x4B, 0x00, 0x00, 0x96,
    0x3F, 0x3C, 0x83, 0x60, 0x86, 0x3F, 0x00, 0x00, 0x96, 0x3F, 0x3C, 0x81, 0x70, 0x86, 0x3F, 0x00,
    0x00, 0x96, 0x4B, 0x3C, 0x81, 0x70, 0x86, 0x4B, 0x00, 0x81, 0x70, 0x96, 0x4B, 0x3C, 0x81, 0x70,
    0x86, 0x4B, 0x00, 0x00, 0x96, 0x49, 0x3C, 0x81, 0x70, 0x86, 0x49, 0x00, 0x00, 0x96, 0x4B, 0x3C,
    0x81, 0x70, 0x86, 0x4B, 0x00, 0x00, 0x96, 0x3F, 0x3C, 0x83, 0x60, 0x86, 0x3F, 0x00, 0x00, 0x96,
    0x4B, 0x3C, 0x81, 0x70, 0x86, 0x4B, 0x00, 0x00, 0x96, 0x4E, 0x3C, 0x81, 0x70, 0x86, 0x4E, 0x00,
    0x00, 0x96, 0x44, 0x3C, 0x83, 0x60, 0x86, 0x44, 0x00, 0x00, 0x96, 0x4E, 0x3C, 0x81, 0x70, 0x86,
    0x4E, 0x00, 0x00, 0x96, 0x50, 0x3C, 0x81, 0x70, 0x86, 0x50, 0x00, 0x00, 0x96, 0x3F, 0x3C, 0x83,
    0x60, 0x86, 0x3F, 0x00, 0x00, 0x96, 0x3F, 0x3C, 0x81, 0x70, 0x86, 0x3F, 0x00, 0x00, 0x96, 0x4B,
    0x3C, 0x81, 0x70, 0x86, 0x4B, 0x00, 0x81, 0x70, 0x96, 0x4B, 0x3C, 0x81, 0x70, 0x86, 0x4B, 0x00,
    0x00, 0x96, 0x49, 0x3C, 0x81, 0x70, 0x86, 0x49, 0x00, 0x00, 0x96, 0x4B, 0x3C, 0x81, 0x70, 0x86,
    0x4B, 0x00, 0x00, 0x96, 0x3F, 0x3C, 0x83, 0x60, 0x86, 0x3F, 0x00, 0x00, 0x96, 0x3F, 0x3C, 0x81,
    0x70, 0x86, 0x3F, 0x00, 0x00, 0x96, 0x4B, 0x3C, 0x81, 0x70, 0x86, 0x4B, 0x00, 0x81, 0x70, 0x96,
    0x4B, 0x3C, 0x81, 0x70, 0x86, 0x4B, 0x00, 0x00, 0x96, 0x49, 0x3C, 0x81, 0x70, 0x86, 0x49, 0x00,
    0x00, 0x96, 0x4B, 0x3C, 0x81, 0x70, 0x86, 0x4B, 0x00, 0x00, 0x96, 0x3F, 0x3C, 0x83, 0x60, 0x86,
    0x3F, 0x00, 0x00, 0x96, 0x3F, 0x3C, 0x81, 0x70, 0x86, 0x3F, 0x00, 0x00, 0x96, 0x4B, 0x3C, 0x81,
    0x70, 0x86, 0x4B, 0x00, 0x81, 0x70, 0x96, 0x4B, 0x3C, 0x81, 0x70, 0x86, 0x4B, 0x00, 0x00, 0x96,
    0x49, 0x3C, 0x81, 0x70, 0x86, 0x49, 0x00, 0x00, 0x96, 0x4B, 0x3C, 0x81, 0x70, 0x86, 0x4B, 0x00,
    0x00, 0x96, 0x3F, 0x3C, 0x83, 0x60, 0x86, 0x3F, 0x00, 0x00, 0x96, 0x4B, 0x3C, 0x81, 0x70, 0x86,
    0x4B, 0x00, 0x00, 0x96, 0x4E, 0x3C, 0x81, 0x70, 0x86, 0x4E, 0x00, 0x00, 0x96, 0x44, 0x3C, 0x83,
    0x60, 0x86, 0x44, 0x00, 0x00, 0x96, 0x4E, 0x3C, 0x81, 0x70, 0x86, 0x4E, 0x00, 0x00, 0x96, 0x50,
    0x3C, 0x81, 0x70, 0x86, 0x50, 0x00, 0x00, 0x96, 0x3F, 0x3C, 0x83, 0x60, 0x86, 0x3F, 0x00, 0x00,
    0x96, 0x3F, 0x3C, 0x81, 0x70, 0x86, 0x3F, 0x00, 0x00, 0x96, 0x4B, 0x3C, 0x81, 0x70, 0x86, 0x4B,
    0x00, 0x81, 0x70, 0x96, 0x4B, 0x3C, 0x81, 0x70, 0x86, 0x4B, 0x00, 0x00, 0x96, 0x49, 0x3C, 0x81,
    0x70, 0x86, 0x49, 0x00, 0x00, 0x96, 0x4B, 0x3C, 0x81, 0x70, 0x86, 0x4B, 0x00, 0x00, 0x96, 0x3F,
    0x3C, 0x83, 0x60, 0x86, 0x3F, 0x00, 0x00, 0x96, 0x3F, 0x3C, 0x81, 0x70, 0x86, 0x3F, 0x00, 0x00,
    0x96, 0x4B, 0x3C, 0x81, 0x70, 0x86, 0x4B, 0x00, 0x81, 0x70, 0x96, 0x4B, 0x3C, 0x81, 0x70, 0x86,
    0x4B, 0x00, 0x00, 0x96, 0x49, 0x3C, 0x81, 0x70, 0x86, 0x49, 0x00, 0x00, 0x96, 0x4B, 0x3C, 0x81,
    0x70, 0x86, 0x4B, 0x00, 0x00, 0x96, 0x3F, 0x3C, 0x83, 0x60, 0x86, 0x3F, 0x00, 0x00, 0x96, 0x3F,
    0x3C, 0x81, 0x70, 0x86, 0x3F, 0x00, 0x00, 0x96, 0x4B, 0x3C, 0x81, 0x70, 0x86, 0x4B, 0x00, 0x81,
    0x70, 0x96, 0x4B, 0x3C, 0x81, 0x70, 0x86, 0x4B, 0x00, 0x00, 0x96, 0x49, 0x3C, 0x81, 0x70, 0x86,
    0x49, 0x00, 0x00, 0x96, 0x4B, 0x3C, 0x81, 0x70, 0x86, 0x4B, 0x00, 0x00, 0x96, 0x3F, 0x3C, 0x83,
    0x60, 0x86, 0x3F, 0x00, 0x00, 0x96, 0x4B, 0x3C, 0x81, 0x70, 0x86, 0x4B, 0x00, 0x00, 0x96, 0x4E,
    0x3C, 0x81, 0x70, 0x86, 0x4E, 0x00, 0x00, 0x96, 0x44, 0x3C, 0x83, 0x60, 0x86, 0x44, 0x00, 0x00,
    0x96, 0x4E, 0x3C, 0x81, 0x70, 0x86, 0x4E, 0x00, 0x00, 0x96, 0x50, 0x3C, 0x81, 0x70, 0x86, 0x50,
    0x00, 0x00, 0x96, 0x3F, 0x3C, 0x83, 0x60, 0x86, 0x3F, 0x00, 0x00, 0x96, 0x3F, 0x3C, 0x81, 0x70,
    0x86, 0x3F, 0x00, 0x00, 0x96, 0x4B, 0x3C, 0x81, 0x70, 0x86, 0x4B, 0x00, 0x81, 0x70, 0x96, 0x4B,
    0x3C, 0x81, 0x70, 0x86, 0x4B, 0x00, 0x00, 0x96, 0x49, 0x3C, 0x81, 0x70, 0x86, 0x49, 0x00, 0x00,
    0x96, 0x4B, 0x3C, 0x81, 0x70, 0x86, 0x4B, 0x00, 0x00, 0x96, 0x3F, 0x3C, 0x83, 0x60, 0x86, 0x3F,
    0x00, 0x00, 0x96, 0x3F, 0x3C, 0x81, 0x70, 0x86, 0x3F, 0x00, 0x00, 0x96, 0x4B, 0x3C, 0x81, 0x70,
    0x86, 0x4B, 0x00, 0x81, 0x70, 0x96, 0x4B, 0x3C, 0x81, 0x70, 0x86, 0x4B, 0x00, 0x00, 0x96, 0x49,
    0x3C, 0x81, 0x70, 0x86, 0x49, 0x00, 0x00, 0x96, 0x4B, 0x3C, 0x81, 0x70, 0x86, 0x4B, 0x00, 0x00,
    0x96, 0x3F, 0x3C, 0x83, 0x60, 0x86, 0x3F, 0x00, 0x00, 0x96, 0x3F, 0x3C, 0x81, 0x70, 0x86, 0x3F,
    0x00, 0x00, 0x96, 0x4B, 0x3C, 0x81, 0x70, 0x86, 0x4B, 0x00, 0x81, 0x70, 0x96, 0x4B, 0x3C, 0x81,
    0x70, 0x86, 0x4B, 0x00, 0x00, 0x96, 0x49, 0x3C, 0x81, 0x70, 0x86, 0x49, 0x00, 0x00, 0x96, 0x4B,
    0x3C, 0x81, 0x70, 0x86, 0x4B, 0x00, 0x00, 0x96, 0x3F, 0x3C, 0x83, 0x60, 0x86, 0x3F, 0x00, 0x00,
    0x96, 0x4B, 0x3C, 0x81, 0x70, 0x86, 0x4B, 0x00, 0x00, 0x96, 0x4E, 0x3C, 0x81, 0x70, 0x86, 0x4E,
    0x00, 0x00, 0x96, 0x44, 0x3C, 0x83, 0x60, 0x86, 0x44, 0x00, 0x00, 0x96, 0x4E, 0x3C, 0x81, 0x70,
    0x86, 0x4E, 0x00, 0x00, 0x96, 0x50, 0x3C, 0x81, 0x70, 0x86, 0x50, 0x00, 0x00, 0x96, 0x3F, 0x3C,
    0x83, 0x60, 0x86, 0x3F, 0x00, 0x00, 0x96, 0x3F, 0x3C, 0x81, 0x70, 0x86, 0x3F, 0x00, 0x00, 0x96,
    0x4B, 0x3C, 0x81, 0x70, 0x86, 0x4B, 0x00, 0x81, 0x70, 0x96, 0x4B, 0x3C, 0x81, 0x70, 0x86, 0x4B,
    0x00, 0x00, 0x96, 0x49, 0x3C, 0x81, 0x70, 0x86, 0x49, 0x00, 0x00, 0x96, 0x4B, 0x3C, 0x81, 0x70,
    0x86, 0x4B, 0x00, 0x00, 0x96, 0x3F, 0x3C, 0x83, 0x60, 0x86, 0x3F, 0x00, 0x00, 0x96, 0x3F, 0x3C,
    0x81, 0x70, 0x86, 0x3F, 0x00, 0x00, 0x96, 0x4B, 0x3C, 0x81, 0x70, 0x86, 0x4B, 0x00, 0x81, 0x70,
    0x96, 0x4B, 0x3C, 0x81, 0x70, 0x86, 0x4B, 0x00, 0x00, 0x96, 0x49, 0x3C, 0x81, 0x70, 0x86, 0x49,
    0x00, 0x00, 0x96, 0x4B, 0x3C, 0x81, 0x70, 0x86, 0x4B, 0x00, 0x00, 0x96, 0x3F, 0x3C, 0x83, 0x60,
    0x86, 0x3F, 0x00, 0x00, 0x96, 0x3F, 0x3C, 0x81, 0x70, 0x86, 0x3F, 0x00, 0x00, 0x96, 0x4B, 0x3C,
    0x81, 0x70, 0x86, 0x4B, 0x00, 0x81, 0x70, 0x96, 0x4B, 0x3C, 0x81, 0x70, 0x86, 0x4B, 0x00, 0x00,
    0x96, 0x49, 0x3C, 0x81, 0x70, 0x86, 0x49, 0x00, 0x00, 0x96, 0x4B, 0x3C, 0x81, 0x70, 0x86, 0x4B,
    0x00, 0x00, 0x96, 0x3F, 0x3C, 0x83, 0x60, 0x86, 0x3F, 0x00, 0x00, 0x96, 0x4B, 0x3C, 0x81, 0x70,
    0x86, 0x4B, 0x00, 0x00, 0x96, 0x4E, 0x3C, 0x81, 0x70, 0x86, 0x4E, 0x00, 0x00, 0x96, 0x44, 0x3C,
    0x83, 0x60, 0x86, 0x44, 0x00, 0x00, 0x96, 0x4E, 0x3C, 0x81, 0x70, 0x86, 0x4E, 0x00, 0x00, 0x96,
    0x50, 0x3C, 0x81, 0x70, 0x86, 0x50, 0x00, 0x00, 0x96, 0x3F, 0x3C, 0x83, 0x60, 0x86, 0x3F, 0x00,
    0x00, 0x96, 0x3F, 0x3C, 0x81, 0x70, 0x86, 0x3F, 0x00, 0x00, 0x96, 0x4B, 0x3C, 0x81, 0x70, 0x86,
    0x4B, 0x00, 0x81, 0x70, 0x96, 0x4B, 0x3C, 0x81, 0x70, 0x86, 0x4B, 0x00, 0x00, 0x96, 0x49, 0x3C,
    0x81, 0x70, 0x86, 0x49, 0x00, 0x00, 0x96, 0x4B, 0x3C, 0x81, 0x70, 0x86, 0x4B, 0x00, 0x00, 0x96,
    0x3F, 0x3C, 0x83, 0x60, 0x86, 0x3F, 0x00, 0x00, 0x96, 0x3F, 0x3C, 0x81, 0x70, 0x86, 0x3F, 0x00,
    0x00, 0x96, 0x4B, 0x3C, 0x81, 0x70, 0x86, 0x4B, 0x00, 0x81, 0x70, 0x96, 0x4B, 0x3C, 0x81, 0x70,
    0x86, 0x4B, 0x00, 0x00, 0x96, 0x49, 0x3C, 0x81, 0x70, 0x86, 0x49, 0x00, 0x00, 0x96, 0x4B, 0x3C,
    0x81, 0x70, 0x86, 0x4B, 0x00, 0x00, 0x96, 0x3F, 0x3C, 0x83, 0x60, 0x86, 0x3F, 0x00, 0x00, 0x96,
    0x3F, 0x3C, 0x81, 0x70, 0x86, 0x3F, 0x00, 0x00, 0x96, 0x4B, 0x3C, 0x81, 0x70, 0x86, 0x4B, 0x00,
    0x81, 0x70, 0x96, 0x4B, 0x3C, 0x81, 0x70, 0x86, 0x4B, 0x00, 0x00, 0x96, 0x49, 0x3C, 0x81, 0x70,
    0x86, 0x49, 0x00, 0x00, 0x96, 0x4B, 0x3C, 0x81, 0x70, 0x86, 0x4B, 0x00, 0x00, 0x96, 0x3F, 0x3C,
    0x83, 0x60, 0x86, 0x3F, 0x00, 0x00, 0x96, 0x4B, 0x3C, 0x81, 0x70, 0x86, 0x4B, 0x00, 0x00, 0x96,
    0x4E, 0x3C, 0x81, 0x70, 0x86, 0x4E, 0x00, 0x00, 0x96, 0x44, 0x3C, 0x83, 0x60, 0x86, 0x44, 0x00,
    0x00, 0x96, 0x4E, 0x3C, 0x81, 0x70, 0x86, 0x4E, 0x00, 0x00, 0x96, 0x50, 0x3C, 0x81, 0x70, 0x86,
    0x50, 0x00, 0x00, 0x96, 0x3F, 0x3C, 0x83, 0x60, 0x86, 0x3F, 0x00, 0x00, 0x96, 0x3F, 0x3C, 0x81,
    0x70, 0x86, 0x3F, 0x00, 0x00, 0x96, 0x4B, 0x3C, 0x81, 0x70, 0x86, 0x4B, 0x00, 0x81, 0x70, 0x96,
    0x4B, 0x3C, 0x81, 0x70, 0x86, 0x4B, 0x00, 0x00, 0x96, 0x49, 0x3C, 0x81, 0x70, 0x86, 0x49, 0x00,
    0x00, 0x96, 0x4B, 0x3C, 0x81, 0x70, 0x86, 0x4B, 0x00, 0x00, 0x96, 0x3F, 0x3C, 0x83, 0x60, 0x86,
    0x3F, 0x00, 0x00, 0x96, 0x3F, 0x3C, 0x81, 0x70, 0x86, 0x3F, 0x00, 0x00, 0x96, 0x4B, 0x3C, 0x81,
    0x70, 0x86, 0x4B, 0x00, 0x81, 0x70, 0x96, 0x4B, 0x3C, 0x81, 0x70, 0x86, 0x4B, 0x00, 0x00, 0x96,
    0x49, 0x3C, 0x81, 0x70, 0x86, 0x49, 0x00, 0x00, 0x96, 0x4B, 0x3C, 0x81, 0x70, 0x86, 0x4B, 0x00,
    0x00, 0x96, 0x3F, 0x3C, 0x83, 0x60, 0x86, 0x3F, 0x00, 0x00, 0x96, 0x3F, 0x3C, 0x81, 0x70, 0x86,
    0x3F, 0x00, 0x00, 0x96, 0x4B, 0x3C, 0x81, 0x70, 0x86, 0x4B, 0x00, 0x81, 0x70, 0x96, 0x4B, 0x3C,
    0x81, 0x70, 0x86, 0x4B, 0x00, 0x00, 0x96, 0x49, 0x3C, 0x81, 0x70, 0x86, 0x49, 0x00, 0x00, 0x96,
    0x4B, 0x3C, 0x81, 0x70, 0x86, 0x4B, 0x00, 0x00, 0x96, 0x3F, 0x3C, 0x83, 0x60, 0x86, 0x3F, 0x00,
    0x00, 0x96, 0x4B, 0x3C, 0x81, 0x70, 0x86, 0x4B, 0x00, 0x00, 0x96, 0x4E, 0x3C, 0x81, 0x70, 0x86,
    0x4E, 0x00, 0x00, 0x96, 0x44, 0x3C, 0x83, 0x60, 0x86, 0x44, 0x00, 0x00, 0x96, 0x4E, 0x3C, 0x81,
    0x70, 0x86, 0x4E, 0x00, 0x00, 0x96, 0x50, 0x3C, 0x81, 0x70, 0x86, 0x50, 0x00, 0x00, 0x96, 0x3F,
    0x3C, 0x83, 0x60, 0x86, 0x3F, 0x00, 0x00, 0x96, 0x3F, 0x3C, 0x81, 0x70, 0x86, 0x3F, 0x00, 0x00,
    0x96, 0x4B, 0x3C, 0x81, 0x70, 0x86, 0x4B, 0x00, 0x81, 0x70, 0x96, 0x4B, 0x3C, 0x81, 0x70, 0x86,
    0x4B, 0x00, 0x00, 0x96, 0x49, 0x3C, 0x81, 0x70, 0x86, 0x49, 0x00, 0x00, 0x96, 0x4B, 0x3C, 0x81,
    0x70, 0x86, 0x4B, 0x00, 0x00, 0x96, 0x3F, 0x3C, 0x83, 0x60, 0x86, 0x3F, 0x00, 0x00, 0x96, 0x3F,
    0x3C, 0x81, 0x70, 0x86, 0x3F, 0x00, 0x00, 0x96, 0x4B, 0x3C, 0x81, 0x70, 0x86, 0x4B, 0x00, 0x81,
    0x70, 0x96, 0x4B, 0x3C, 0x81, 0x70, 0x86, 0x4B, 0x00, 0x00, 0x96, 0x49, 0x3C, 0x81, 0x70, 0x86,
    0x49, 0x00, 0x00, 0x96, 0x4B, 0x3C, 0x81, 0x70, 0x86, 0x4B, 0x00, 0x00, 0x96, 0x3F, 0x3C, 0x83,
    0x60, 0x86, 0x3F, 0x00, 0x00, 0x96, 0x3F, 0x3C, 0x81, 0x70, 0x86, 0x3F, 0x00, 0x00, 0x96, 0x4B,
    0x3C, 0x81, 0x70, 0x86, 0x4B, 0x00, 0x81, 0x70, 0x96, 0x4B, 0x3C, 0x81, 0x70, 0x86, 0x4B, 0x00,
    0x00, 0x96, 0x49, 0x3C, 0x81, 0x70, 0x86, 0x49, 0x00, 0x00, 0x96, 0x4B, 0x3C, 0x81, 0x70, 0x86,
    0x4B, 0x00, 0x00, 0x96, 0x3F, 0x3C, 0x83, 0x60, 0x86, 0x3F, 0x00, 0x00, 0x96, 0x4B, 0x3C, 0x81,
    0x70, 0x86, 0x4B, 0x00, 0x00, 0x96, 0x4E, 0x3C, 0x81, 0x70, 0x86, 0x4E, 0x00, 0x00, 0x96, 0x44,
    0x3C, 0x83, 0x60, 0x86, 0x44, 0x00, 0x00, 0x96, 0x4E, 0x3C, 0x81, 0x70, 0x86, 0x4E, 0x00, 0x00,
    0x96, 0x50, 0x3C, 0x81, 0x70, 0x86, 0x50, 0x00, 0x00, 0x96, 0x3F, 0x3C, 0x83, 0x60, 0x86, 0x3F,
    0x00, 0x00, 0x96, 0x3F, 0x3C, 0x81, 0x70, 0x86, 0x3F, 0x00, 0x00, 0x96, 0x4B, 0x3C, 0x81, 0x70,
    0x86, 0x4B, 0x00, 0x81, 0x70, 0x96, 0x4B, 0x3C, 0x81, 0x70, 0x86, 0x4B, 0x00, 0x00, 0x96, 0x49,
    0x3C, 0x81, 0x70, 0x86, 0x49, 0x00, 0x00, 0x96, 0x4B, 0x3C, 0x81, 0x70, 0x86, 0x4B, 0x00, 0x00,
    0x96, 0x3F, 0x3C, 0x83, 0x60, 0x86, 0x3F, 0x00, 0x00, 0x96, 0x3F, 0x3C, 0x81, 0x70, 0x86, 0x3F,
    0x00, 0x00, 0x96, 0x4B, 0x3C, 0x81, 0x70, 0x86, 0x4B, 0x00, 0x81, 0x70, 0x96, 0x4B, 0x3C, 0x81,
    0x70, 0x86, 0x4B, 0x00, 0x00, 0x96, 0x49, 0x3C, 0x81, 0x70, 0x86, 0x49, 0x00, 0x00, 0x96, 0x4B,
    0x3C, 0x81, 0x70, 0x86, 0x4B, 0x00, 0x00, 0x96, 0x3F, 0x3C, 0x83, 0x60, 0x86, 0x3F, 0x00, 0x00,
    0x96, 0x3F, 0x3C, 0x81, 0x70, 0x86, 0x3F, 0x00, 0x00, 0x96, 0x4B, 0x3C, 0x81, 0x70, 0x86, 0x4B,
    0x00, 0x81, 0x70, 0x96, 0x4B, 0x3C, 0x81, 0x70, 0x86, 0x4B, 0x00, 0x00, 0x96, 0x49, 0x3C, 0x81,
    0x70, 0x86, 0x49, 0x00, 0x00, 0x96, 0x4B, 0x3C, 0x81, 0x70, 0x86, 0x4B, 0x00, 0x00, 0x96, 0x3F,
    0x3C, 0x83, 0x60, 0x86, 0x3F, 0x00, 0x00, 0x96, 0x4B, 0x3C, 0x81, 0x70, 0x86, 0x4B, 0x00, 0x00,
    0x96, 0x4E, 0x3C, 0x81, 0x70, 0x86, 0x4E, 0x00, 0x00, 0x96, 0x44, 0x3C, 0x83, 0x60, 0x86, 0x44,
    0x00, 0x00, 0x96, 0x4E, 0x3C, 0x81, 0x70, 0x86, 0x4E, 0x00, 0x00, 0x96, 0x50, 0x3C, 0x81, 0x70,
    0x86, 0x50, 0x00, 0x00, 0x96, 0x3F, 0x3C, 0x83, 0x60, 0x86, 0x3F, 0x00, 0x00, 0x96, 0x3F, 0x3C,
    0x81, 0x70, 0x86, 0x3F, 0x00, 0x00, 0x96, 0x4B, 0x3C, 0x81, 0x70, 0x86, 0x4B, 0x00, 0x81, 0x70,
    0x96, 0x4B, 0x3C, 0x81, 0x70, 0x86, 0x4B, 0x00, 0x00, 0x96, 0x49, 0x3C, 0x81, 0x70, 0x86, 0x49,
    0x00, 0x00, 0x96, 0x4B, 0x3C, 0x81, 0x70, 0x86, 0x4B, 0x00, 0x00, 0x96, 0x3F, 0x3C, 0x83, 0x60,
    0x86, 0x3F, 0x00, 0x00, 0x96, 0x3F, 0x3C, 0x81, 0x70, 0x86, 0x3F, 0x00, 0x00, 0x96, 0x4B, 0x3C,
    0x81, 0x70, 0x86, 0x4B, 0x00, 0x81, 0x70, 0x96, 0x4B, 0x3C, 0x81, 0x70, 0x86, 0x4B, 0x00, 0x00,
    0x96, 0x49, 0x3C, 0x81, 0x70, 0x86, 0x49, 0x00, 0x00, 0x96, 0x4B, 0x3C, 0x81, 0x70, 0x86, 0x4B,
    0x00, 0x00, 0x96, 0x3F, 0x3C, 0x83, 0x60, 0x86, 0x3F, 0x00, 0x00, 0x96, 0x3F, 0x3C, 0x81, 0x70,
    0x86, 0x3F, 0x00, 0x00, 0x96, 0x4B, 0x3C, 0x81, 0x70, 0x86, 0x4B, 0x00, 0x81, 0x70, 0x96, 0x4B,
    0x3C, 0x81, 0x70, 0x86, 0x4B, 0x00, 0x00, 0x96, 0x49, 0x3C, 0x81, 0x70, 0x86, 0x49, 0x00, 0x00,
    0x96, 0x4B, 0x3C, 0x81, 0x70, 0x86, 0x4B, 0x00, 0x00, 0x96, 0x3F, 0x3C, 0x83, 0x60, 0x86, 0x3F,
    0x00, 0x00, 0x96, 0x4B, 0x3C, 0x81, 0x70, 0x86, 0x4B, 0x00, 0x00, 0x96, 0x4E, 0x3C, 0x81, 0x70,
    0x86, 0x4E, 0x00, 0x00, 0x96, 0x44, 0x3C, 0x83, 0x60, 0x86, 0x44, 0x00, 0x00, 0x96, 0x4E, 0x3C,
    0x81, 0x70, 0x86, 0x4E, 0x00, 0x00, 0x96, 0x50, 0x3C, 0x81, 0x70, 0x86, 0x50, 0x00, 0x00, 0x96,
    0x3F, 0x3C, 0x83, 0x60, 0x86, 0x3F, 0x00, 0x00, 0x96, 0x3F, 0x3C, 0x81, 0x70, 0x86, 0x3F, 0x00,
    0x00, 0x96, 0x4B, 0x3C, 0x81, 0x70, 0x86, 0x4B, 0x00, 0x81, 0x70, 0x96, 0x4B, 0x3C, 0x81, 0x70,
    0x86, 0x4B, 0x00, 0x00, 0x96, 0x49, 0x3C, 0x81, 0x70, 0x86, 0x49, 0x00, 0x00, 0x96, 0x4B, 0x3C,
    0x81, 0x70, 0x86, 0x4B, 0x00, 0x00, 0x96, 0x3F, 0x3C, 0x83, 0x60, 0x86, 0x3F, 0x00, 0x00, 0x96,
    0x3F, 0x3C, 0x81, 0x70, 0x86, 0x3F, 0x00, 0x00, 0x96, 0x4B, 0x3C, 0x81, 0x70, 0x86, 0x4B, 0x00,
    0x81, 0x70, 0x96, 0x4B, 0x3C, 0x81, 0x70, 0x86, 0x4B, 0x00, 0x00, 0x96, 0x49, 0x3C, 0x81, 0x70,
    0x86, 0x49, 0x00, 0x00, 0x96, 0x4B, 0x3C, 0x81, 0x70, 0x86, 0x4B, 0x00, 0x00, 0x96, 0x3F, 0x3C,
    0x83, 0x60, 0x86, 0x3F, 0x00, 0x00, 0x96, 0x3F, 0x3C, 0x81, 0x70, 0x86, 0x3F, 0x00, 0x00, 0x96,
    0x4B, 0x3C, 0x81, 0x70, 0x86, 0x4B, 0x00, 0x81, 0x70, 0x96, 0x4B, 0x3C, 0x81, 0x70, 0x86, 0x4B,
    0x00, 0x00, 0x96, 0x49, 0x3C, 0x81, 0x70, 0x86, 0x49, 0x00, 0x00, 0x96, 0x4B, 0x3C, 0x81, 0x70,
    0x86, 0x4B, 0x00, 0x00, 0x96, 0x3F, 0x3C, 0x83, 0x60, 0x86, 0x3F, 0x00, 0x00, 0x96, 0x4B, 0x3C,
    0x81, 0x70, 0x86, 0x4B, 0x00, 0x00, 0x96, 0x4E, 0x3C, 0x81, 0x70, 0x86, 0x4E, 0x00, 0x00, 0x96,
    0x44, 0x3C, 0x83, 0x60, 0x86, 0x44, 0x00, 0x00, 0x96, 0x4E, 0x3C, 0x81, 0x70, 0x86, 0x4E, 0x00,
    0x00, 0x96, 0x50, 0x3C, 0x81, 0x70, 0x86, 0x50, 0x00, 0x00, 0x96, 0x3F, 0x3C, 0x83, 0x60, 0x86,
    0x3F, 0x00, 0x00, 0x96, 0x3F, 0x3C, 0x81, 0x70, 0x86, 0x3F, 0x00, 0x00, 0x96, 0x4B, 0x3C, 0x81,
    0x70, 0x86, 0x4B, 0x00, 0x81, 0x70, 0x96, 0x4B, 0x3C, 0x81, 0x70, 0x86, 0x4B, 0x00, 0x00, 0x96,
    0x49, 0x3C, 0x81, 0x70, 0x86, 0x49, 0x00, 0x00, 0x96, 0x4B, 0x3C, 0x81, 0x70, 0x86, 0x4B, 0x00,
    0x00, 0x96, 0x3F, 0x3C, 0x83, 0x60, 0x86, 0x3F, 0x00, 0x00, 0x96, 0x3F, 0x3C, 0x81, 0x70, 0x86,
    0x3F, 0x00, 0x00, 0x96, 0x4B, 0x3C, 0x81, 0x70, 0x86, 0x4B, 0x00, 0x81, 0x70, 0x96, 0x4B, 0x3C,
    0x81, 0x70, 0x86, 0x4B, 0x00, 0x00, 0x96, 0x49, 0x3C, 0x81, 0x70, 0x86, 0x49, 0x00, 0x00, 0x96,
    0x4B, 0x3C, 0x81, 0x70, 0x86, 0x4B, 0x00, 0x00, 0x96, 0x3F, 0x3C, 0x83, 0x60, 0x86, 0x3F, 0x00,
    0x00, 0x96, 0x3F, 0x3C, 0x81, 0x70, 0x86, 0x3F, 0x00, 0x00, 0x96, 0x4B, 0x3C, 0x81, 0x70, 0x86,
    0x4B, 0x00, 0x81, 0x70, 0x96, 0x4B, 0x3C, 0x81, 0x70, 0x86, 0x4B, 0x00, 0x00, 0x96, 0x49, 0x3C,
    0x81, 0x70, 0x86, 0x49, 0x00, 0x00, 0x96, 0x4B, 0x3C, 0x81, 0x70, 0x86, 0x4B, 0x00, 0x00, 0x96,
    0x3F, 0x3C, 0x83, 0x60, 0x86, 0x3F, 0x00, 0x00, 0x96, 0x4B, 0x3C, 0x81, 0x70, 0x86, 0x4B, 0x00,
    0x00, 0x96, 0x4E, 0x3C, 0x81, 0x70, 0x86, 0x4E, 0x00, 0x00, 0x96, 0x44, 0x3C, 0x83, 0x60, 0x86,
    0x44, 0x00, 0x00, 0x96, 0x4E, 0x3C, 0x81, 0x70, 0x86, 0x4E, 0x00, 0x00, 0x96, 0x50, 0x3C, 0x81,
    0x70, 0x86, 0x50, 0x00, 0x00, 0x96, 0x40, 0x3C, 0x83, 0x60, 0x86, 0x40, 0x00, 0x00, 0x96, 0x40,
    0x3C, 0x81, 0x70, 0x86, 0x40, 0x00, 0x00, 0x96, 0x4C, 0x3C, 0x81, 0x70, 0x86, 0x4C, 0x00, 0x81,
    0x70, 0x96, 0x4C, 0x3C, 0x81, 0x70, 0x86, 0x4C, 0x00, 0x00, 0x96, 0x4A, 0x3C, 0x81, 0x70, 0x86,
    0x4A, 0x00, 0x00, 0x96, 0x4C, 0x3C, 0x81, 0x70, 0x86, 0x4C, 0x00, 0x00, 0x96, 0x40, 0x3C, 0x83,
    0x60, 0x86, 0x40, 0x00, 0x00, 0x96, 0x40, 0x3C, 0x81, 0x70, 0x86, 0x40, 0x00, 0x00, 0x96, 0x4C,
    0x3C, 0x81, 0x70, 0x86, 0x4C, 0x00, 0x81, 0x70, 0x96, 0x4C, 0x3C, 0x81, 0x70, 0x86, 0x4C, 0x00,
    0x00, 0x96, 0x4A, 0x3C, 0x81, 0x70, 0x86, 0x4A, 0x00, 0x00, 0x96, 0x4C, 0x3C, 0x81, 0x70, 0x86,
    0x4C, 0x00, 0x00, 0x96, 0x40, 0x3C, 0x83, 0x60, 0x86, 0x40, 0x00, 0x00, 0x96, 0x40, 0x3C, 0x81,
    0x70, 0x86, 0x40, 0x00, 0x00, 0x96, 0x4C, 0x3C, 0x81, 0x70, 0x86, 0x4C, 0x00, 0x81, 0x70, 0x96,
    0x4C, 0x3C, 0x81, 0x70, 0x86, 0x4C, 0x00, 0x00, 0x96, 0x4A, 0x3C, 0x81, 0x70, 0x86, 0x4A, 0x00,
    0x00, 0x96, 0x4C, 0x3C, 0x81, 0x70, 0x86, 0x4C, 0x00, 0x00, 0x96, 0x40, 0x3C, 0x83, 0x60, 0x86,
    0x40, 0x00, 0x00, 0x96, 0x4C, 0x3C, 0x81, 0x70, 0x86, 0x4C, 0x00, 0x00, 0x96, 0x4F, 0x3C, 0x81,
    0x70, 0x86, 0x4F, 0x00, 0x00, 0x96, 0x45, 0x3C, 0x83, 0x60, 0x86, 0x45, 0x00, 0x00, 0x96, 0x4F,
    0x3C, 0x81, 0x70, 0x86, 0x4F, 0x00, 0x00, 0x96, 0x51, 0x3C, 0x81, 0x70, 0x86, 0x51, 0x00, 0x00,
    0x96, 0x40, 0x3C, 0x83, 0x60, 0x86, 0x40, 0x00, 0x00, 0x96, 0x40, 0x3C, 0x81, 0x70, 0x86, 0x40,
    0x00, 0x00, 0x96, 0x4C, 0x3C, 0x81, 0x70, 0x86, 0x4C, 0x00, 0x81, 0x70, 0x96, 0x4C, 0x3C, 0x81,
    0x70, 0x86, 0x4C, 0x00, 0x00, 0x96, 0x4A, 0x3C, 0x81, 0x70, 0x86, 0x4A, 0x00, 0x00, 0x96, 0x4C,
    0x3C, 0x81, 0x70, 0x86, 0x4C, 0x00, 0x00, 0x96, 0x40, 0x3C, 0x83, 0x60, 0x86, 0x40, 0x00, 0x00,
    0x96, 0x40, 0x3C, 0x81, 0x70, 0x86, 0x40, 0x00, 0x00, 0x96, 0x4C, 0x3C, 0x81, 0x70, 0x86, 0x4C,
    0x00, 0x81, 0x70, 0x96, 0x4C, 0x3C, 0x81, 0x70, 0x86, 0x4C, 0x00, 0x00, 0x96, 0x4A, 0x3C, 0x81,
    0x70, 0x86, 0x4A, 0x00, 0x00, 0x96, 0x4C, 0x3C, 0x81, 0x70, 0x86, 0x4C, 0x00, 0x00, 0x96, 0x40,
    0x3C, 0x83, 0x60, 0x86, 0x40, 0x00, 0x00, 0x96, 0x40, 0x3C, 0x81, 0x70, 0x86, 0x40, 0x00, 0x00,
    0x96, 0x4C, 0x3C, 0x81, 0x70, 0x86, 0x4C, 0x00, 0x81, 0x70, 0x96, 0x4C, 0x3C, 0x81, 0x70, 0x86,
    0x4C, 0x00, 0x00, 0x96, 0x4A, 0x3C, 0x81, 0x70, 0x86, 0x4A, 0x00, 0x00, 0x96, 0x4C, 0x3C, 0x81,
    0x70, 0x86, 0x4C, 0x00, 0x00, 0x96, 0x40, 0x3C, 0x83, 0x60, 0x86, 0x40, 0x00, 0x00, 0x96, 0x4C,
    0x3C, 0x81, 0x70, 0x86, 0x4C, 0x00, 0x00, 0x96, 0x4F, 0x3C, 0x81, 0x70, 0x86, 0x4F, 0x00, 0x00,
    0x96, 0x45, 0x3C, 0x83, 0x60, 0x86, 0x45, 0x00, 0x00, 0x96, 0x4F, 0x3C, 0x81, 0x70, 0x86, 0x4F,
    0x00, 0x00, 0x96, 0x51, 0x3C, 0x81, 0x70, 0x86, 0x51, 0x00, 0x00, 0x96, 0x40, 0x3C, 0x83, 0x60,
    0x86, 0x40, 0x00, 0x00, 0x96, 0x40, 0x3C, 0x81, 0x70, 0x86, 0x40, 0x00, 0x00, 0x96, 0x4C, 0x3C,
    0x81, 0x70, 0x86, 0x4C, 0x00, 0x81, 0x70, 0x96, 0x4C, 0x3C, 0x81, 0x70, 0x86, 0x4C, 0x00, 0x00,
    0x96, 0x4A, 0x3C, 0x81, 0x70, 0x86, 0x4A, 0x00, 0x00, 0x96, 0x4C, 0x3C, 0x81, 0x70, 0x86, 0x4C,
    0x00, 0x00, 0x96, 0x40, 0x3C, 0x83, 0x60, 0x86, 0x40, 0x00, 0x00, 0x96, 0x40, 0x3C, 0x81, 0x70,
    0x86, 0x40, 0x00, 0x00, 0x96, 0x4C, 0x3C, 0x81, 0x70, 0x86, 0x4C, 0x00, 0x81, 0x70, 0x96, 0x4C,
    0x3C, 0x81, 0x70, 0x86, 0x4C, 0x00, 0x00, 0x96, 0x4A, 0x3C, 0x81, 0x70, 0x86, 0x4A, 0x00, 0x00,
    0x96, 0x4C, 0x3C, 0x81, 0x70, 0x86, 0x4C, 0x00, 0x00, 0x96, 0x40, 0x3C, 0x83, 0x60, 0x86, 0x40,
    0x00, 0x00, 0x96, 0x40, 0x3C, 0x81, 0x70, 0x86, 0x40, 0x00, 0x00, 0x96, 0x4C, 0x3C, 0x81, 0x70,
    0x86, 0x4C, 0x00, 0x81, 0x70, 0x96, 0x4C, 0x3C, 0x81, 0x70, 0x86, 0x4C, 0x00, 0x00, 0x96, 0x4A,
    0x3C, 0x81, 0x70, 0x86, 0x4A, 0x00, 0x00, 0x96, 0x4C, 0x3C, 0x81, 0x70, 0x86, 0x4C, 0x00, 0x00,
    0x96, 0x40, 0x3C, 0x83, 0x60, 0x86, 0x40, 0x00, 0x00, 0x96, 0x4C, 0x3C, 0x81, 0x70, 0x86, 0x4C,
    0x00, 0x00, 0x96, 0x4F, 0x3C, 0x81, 0x70, 0x86, 0x4F, 0x00, 0x00, 0x96, 0x45, 0x3C, 0x83, 0x60,
    0x86, 0x45, 0x00, 0x00, 0x96, 0x4F, 0x3C, 0x81, 0x70, 0x86, 0x4F, 0x00, 0x00, 0x96, 0x51, 0x3C,
    0x81, 0x70, 0x86, 0x51, 0x00, 0x00, 0x96, 0x40, 0x3C, 0x83, 0x60, 0x86, 0x40, 0x00, 0x00, 0x96,
    0x40, 0x3C, 0x81, 0x70, 0x86, 0x40, 0x00, 0x00, 0x96, 0x4C, 0x3C, 0x81, 0x70, 0x86, 0x4C, 0x00,
    0x81, 0x70, 0x96, 0x4C, 0x3C, 0x81, 0x70, 0x86, 0x4C, 0x00, 0x00, 0x96, 0x4A, 0x3C, 0x81, 0x70,
    0x86, 0x4A, 0x00, 0x00, 0x96, 0x4C, 0x3C, 0x81, 0x70, 0x86, 0x4C, 0x00, 0x00, 0x96, 0x40, 0x3C,
    0x83, 0x60, 0x86, 0x40, 0x00, 0x00, 0x96, 0x40, 0x3C, 0x81, 0x70, 0x86, 0x40, 0x00, 0x00, 0x96,
    0x4C, 0x3C, 0x81, 0x70, 0x86, 0x4C, 0x00, 0x81, 0x70, 0x96, 0x4C, 0x3C, 0x81, 0x70, 0x86, 0x4C,
    0x00, 0x00, 0x96, 0x4A, 0x3C, 0x81, 0x70, 0x86, 0x4A, 0x00, 0x00, 0x96, 0x4C, 0x3C, 0x81, 0x70,
    0x86, 0x4C, 0x00, 0x00, 0x96, 0x40, 0x3C, 0x83, 0x60, 0x86, 0x40, 0x00, 0x00, 0x96, 0x40, 0x3C,
    0x81, 0x70, 0x86, 0x40, 0x00, 0x00, 0x96, 0x4C, 0x3C, 0x81, 0x70, 0x86, 0x4C, 0x00, 0x81, 0x70,
    0x96, 0x4C, 0x3C, 0x81, 0x70, 0x86, 0x4C, 0x00, 0x00, 0x96, 0x4A, 0x3C, 0x81, 0x70, 0x86, 0x4A,
    0x00, 0x00, 0x96, 0x4C, 0x3C, 0x81, 0x70, 0x86, 0x4C, 0x00, 0x00, 0x96, 0x40, 0x3C, 0x83, 0x60,
    0x86, 0x40, 0x00, 0x00, 0x96, 0x4C, 0x3C, 0x81, 0x70, 0x86, 0x4C, 0x00, 0x00, 0x96, 0x4F, 0x3C,
    0x81, 0x70, 0x86, 0x4F, 0x00, 0x00, 0x96, 0x45, 0x3C, 0x83, 0x60, 0x86, 0x45, 0x00, 0x00, 0x96,
    0x4F, 0x3C, 0x81, 0x70, 0x86, 0x4F, 0x00, 0x00, 0x96, 0x51, 0x3C, 0x81, 0x70, 0x86, 0x51, 0x00,
    0x00, 0x96, 0x40, 0x3C, 0x83, 0x60, 0x86, 0x40, 0x00, 0x00, 0x96, 0x40, 0x3C, 0x81, 0x70, 0x86,
    0x40, 0x00, 0x00, 0x96, 0x4C, 0x3C, 0x81, 0x70, 0x86, 0x4C, 0x00, 0x81, 0x70, 0x96, 0x4C, 0x3C,
    0x81, 0x70, 0x86, 0x4C, 0x00, 0x00, 0x96, 0x4A, 0x3C, 0x81, 0x70, 0x86, 0x4A, 0x00, 0x00, 0x96,
    0x4C, 0x3C, 0x81, 0x70, 0x86, 0x4C, 0x00, 0x00, 0x96, 0x40, 0x3C, 0x83, 0x60, 0x86, 0x40, 0x00,
    0x00, 0x96, 0x40, 0x3C, 0x81, 0x70, 0x86, 0x40, 0x00, 0x00, 0x96, 0x4C, 0x3C, 0x81, 0x70, 0x86,
    0x4C, 0x00, 0x81, 0x70, 0x96, 0x4C, 0x3C, 0x81, 0x70, 0x86, 0x4C, 0x00, 0x00, 0x96, 0x4A, 0x3C,
    0x81, 0x70, 0x86, 0x4A, 0x00, 0x00, 0x96, 0x4C, 0x3C, 0x81, 0x70, 0x86, 0x4C, 0x00, 0x00, 0x96,
    0x40, 0x3C, 0x83, 0x60, 0x86, 0x40, 0x00, 0x00, 0x96, 0x40, 0x3C, 0x81, 0x70, 0x86, 0x40, 0x00,
    0x00, 0x96, 0x4C, 0x3C, 0x81, 0x70, 0x86, 0x4C, 0x00, 0x81, 0x70, 0x96, 0x4C, 0x3C, 0x81, 0x70,
    0x86, 0x4C, 0x00, 0x00, 0x96, 0x4A, 0x3C, 0x81, 0x70, 0x86, 0x4A, 0x00, 0x00, 0x96, 0x4C, 0x3C,
    0x81, 0x70, 0x86, 0x4C, 0x00, 0x00, 0x96, 0x40, 0x3C, 0x83, 0x60, 0x86, 0x40, 0x00, 0x00, 0x96,
    0x4C, 0x3C, 0x81, 0x70, 0x86, 0x4C, 0x00, 0x00, 0x96, 0x4F, 0x3C, 0x81, 0x70, 0x86, 0x4F, 0x00,
    0x00, 0x96, 0x45, 0x3C, 0x83, 0x60, 0x86, 0x45, 0x00, 0x00, 0x96, 0x4F, 0x3C, 0x81, 0x70, 0x86,
    0x4F, 0x00, 0x00, 0x96, 0x51, 0x3C, 0x81, 0x70, 0x86, 0x51, 0x00, 0x00, 0x96, 0x40, 0x3C, 0x83,
    0x60, 0x86, 0x40, 0x00, 0x00, 0x96, 0x40, 0x3C, 0x81, 0x70, 0x86, 0x40, 0x00, 0x00, 0x96, 0x4C,
    0x3C, 0x81, 0x70, 0x86, 0x4C, 0x00, 0x81, 0x70, 0x96, 0x4C, 0x3C, 0x81, 0x70, 0x86, 0x4C, 0x00,
    0x00, 0x96, 0x4A, 0x3C, 0x81, 0x70, 0x86, 0x4A, 0x00, 0x00, 0x96, 0x4C, 0x3C, 0x81, 0x70, 0x86,
    0x4C, 0x00, 0x00, 0x96, 0x40, 0x3C, 0x83, 0x60, 0x86, 0x40, 0x00, 0x00, 0x96, 0x40, 0x3C, 0x81,
    0x70, 0x86, 0x40, 0x00, 0x00, 0x96, 0x4C, 0x3C, 0x81, 0x70, 0x86, 0x4C, 0x00, 0x81, 0x70, 0x96,
    0x4C, 0x3C, 0x81, 0x70, 0x86, 0x4C, 0x00, 0x00, 0x96, 0x4A, 0x3C, 0x81, 0x70, 0x86, 0x4A, 0x00,
    0x00, 0x96, 0x4C, 0x3C, 0x81, 0x70, 0x86, 0x4C, 0x00, 0x00, 0x96, 0x40, 0x3C, 0x83, 0x60, 0x86,
    0x40, 0x00, 0x00, 0x96, 0x40, 0x3C, 0x81, 0x70, 0x86, 0x40, 0x00, 0x00, 0x96, 0x4C, 0x3C, 0x81,
    0x70, 0x86, 0x4C, 0x00, 0x81, 0x70, 0x96, 0x4C, 0x3C, 0x81, 0x70, 0x86, 0x4C, 0x00, 0x00, 0x96,
    0x4A, 0x3C, 0x81, 0x70, 0x86, 0x4A, 0x00, 0x00, 0x96, 0x4C, 0x3C, 0x81, 0x70, 0x86, 0x4C, 0x00,
    0x00, 0x96, 0x40, 0x3C, 0x83, 0x60, 0x86, 0x40, 0x00, 0x00, 0x96, 0x4C, 0x3C, 0x81, 0x70, 0x86,
    0x4C, 0x00, 0x00, 0x96, 0x4F, 0x3C, 0x81, 0x70, 0x86, 0x4F, 0x00, 0x00, 0x96, 0x45, 0x3C, 0x83,
    0x60, 0x86, 0x45, 0x00, 0x00, 0x96, 0x4F, 0x3C, 0x81, 0x70, 0x86, 0x4F, 0x00, 0x00, 0x96, 0x51,
    0x3C, 0x81, 0x70, 0x86, 0x51, 0x00, 0x00, 0x96, 0x40, 0x3C, 0x83, 0x60, 0x86, 0x40, 0x00, 0x00,
    0x96, 0x40, 0x3C, 0x81, 0x70, 0x86, 0x40, 0x00, 0x00, 0x96, 0x4C, 0x3C, 0x81, 0x70, 0x86, 0x4C,
    0x00, 0x81, 0x70, 0x96, 0x4C, 0x3C, 0x81, 0x70, 0x86, 0x4C, 0x00, 0x00, 0x96, 0x4A, 0x3C, 0x81,
    0x70, 0x86, 0x4A, 0x00, 0x00, 0x96, 0x4C, 0x3C, 0x81, 0x70, 0x86, 0x4C, 0x00, 0x00, 0x96, 0x40,
    0x3C, 0x83, 0x60, 0x86, 0x40, 0x00, 0x00, 0x96, 0x40, 0x3C, 0x81, 0x70, 0x86, 0x40, 0x00, 0x00,
    0x96, 0x4C, 0x3C, 0x81, 0x70, 0x86, 0x4C, 0x00, 0x81, 0x70, 0x96, 0x4C, 0x3C, 0x81, 0x70, 0x86,
    0x4C, 0x00, 0x00, 0x96, 0x4A, 0x3C, 0x81, 0x70, 0x86, 0x4A, 0x00, 0x00, 0x96, 0x4C, 0x3C, 0x81,
    0x70, 0x86, 0x4C, 0x00, 0x00, 0x96, 0x40, 0x3C, 0x83, 0x60, 0x86, 0x40, 0x00, 0x00, 0x96, 0x40,
    0x3C, 0x81, 0x70, 0x86, 0x40, 0x00, 0x00, 0x96, 0x4C, 0x3C, 0x81, 0x70, 0x86, 0x4C, 0x00, 0x81,
    0x70, 0x96, 0x4C, 0x3C, 0x81, 0x70, 0x86, 0x4C, 0x00, 0x00, 0x96, 0x4A, 0x3C, 0x81, 0x70, 0x86,
    0x4A, 0x00, 0x00, 0x96, 0x4C, 0x3C, 0x81, 0x70, 0x86, 0x4C, 0x00, 0x00, 0x96, 0x40, 0x3C, 0x83,
    0x60, 0x86, 0x40, 0x00, 0x00, 0x96, 0x4C, 0x3C, 0x81, 0x70, 0x86, 0x4C, 0x00, 0x00, 0x96, 0x4F,
    0x3C, 0x81, 0x70, 0x86, 0x4F, 0x00, 0x00, 0x96, 0x45, 0x3C, 0x83, 0x60, 0x86, 0x45, 0x00, 0x00,
    0x96, 0x4F, 0x3C, 0x81, 0x70, 0x86, 0x4F, 0x00, 0x00, 0x96, 0x51, 0x3C, 0x81, 0x70, 0x86, 0x51,
    0x00, 0x00, 0x96, 0x40, 0x3C, 0x83, 0x60, 0x86, 0x40, 0x00, 0x00, 0x96, 0x40, 0x3C, 0x81, 0x70,
    0x86, 0x40, 0x00, 0x00, 0x96, 0x4C, 0x3C, 0x81, 0x70, 0x86, 0x4C, 0x00, 0x81, 0x70, 0x96, 0x4C,
    0x3C, 0x81, 0x70, 0x86, 0x4C, 0x00, 0x00, 0x96, 0x4A, 0x3C, 0x81, 0x70, 0x86, 0x4A, 0x00, 0x00,
    0x96, 0x4C, 0x3C, 0x81, 0x70, 0x86, 0x4C, 0x00, 0x00, 0x96, 0x40, 0x3C, 0x83, 0x60, 0x86, 0x40,
    0x00, 0x00, 0x96, 0x40, 0x3C, 0x81, 0x70, 0x86, 0x40, 0x00, 0x00, 0x96, 0x4C, 0x3C, 0x81, 0x70,
    0x86, 0x4C, 0x00, 0x81, 0x70, 0x96, 0x4C, 0x3C, 0x81, 0x70, 0x86, 0x4C, 0x00, 0x00, 0x96, 0x4A,
    0x3C, 0x81, 0x70, 0x86, 0x4A, 0x00, 0x00, 0x96, 0x4C, 0x3C, 0x81, 0x70, 0x86, 0x4C, 0x00, 0x00,
    0x96, 0x40, 0x3C, 0x83, 0x60, 0x86, 0x40, 0x00, 0x00, 0x96, 0x40, 0x3C, 0x81, 0x70, 0x86, 0x40,
    0x00, 0x00, 0x96, 0x4C, 0x3C, 0x81, 0x70, 0x86, 0x4C, 0x00, 0x81, 0x70, 0x96, 0x4C, 0x3C, 0x81,
    0x70, 0x86, 0x4C, 0x00, 0x00, 0x96, 0x4A, 0x3C, 0x81, 0x70, 0x86, 0x4A, 0x00, 0x00, 0x96, 0x4C,
    0x3C, 0x81, 0x70, 0x86, 0x4C, 0x00, 0x00, 0x96, 0x40, 0x3C, 0x83, 0x60, 0x86, 0x40, 0x00, 0x00,
    0x96, 0x4C, 0x3C, 0x81, 0x70, 0x86, 0x4C, 0x00, 0x00, 0x96, 0x4F, 0x3C, 0x81, 0x70, 0x86, 0x4F,
    0x00, 0x00, 0x96, 0x45, 0x3C, 0x83, 0x60, 0x86, 0x45, 0x00, 0x00, 0x96, 0x4F, 0x3C, 0x81, 0x70,
    0x86, 0x4F, 0x00, 0x00, 0x96, 0x51, 0x3C, 0x81, 0x70, 0x86, 0x51, 0x00, 0x00, 0xFF, 0x2F, 0x00,
    0x4D, 0x54, 0x72, 0x6B, 0x00, 0x00, 0x06, 0xC7, 0x00, 0xB7, 0x00, 0x00, 0x00, 0x20, 0x00, 0x00,
    0xC7, 0x28, 0x00, 0xFF, 0x03, 0x08, 0x55, 0x6E, 0x74, 0x69, 0x74, 0x6C, 0x65, 0x64, 0x00, 0xB7,
    0x07, 0x7F, 0x00, 0x00, 0x00, 0x00, 0x20, 0x00, 0x00, 0x07, 0x7F, 0x00, 0x07, 0x6E, 0x00, 0xE7,
    0x00, 0x40, 0x00, 0xB7, 0x0A, 0x40, 0x00, 0x5D, 0x00, 0x00, 0x5B, 0x00, 0x00, 0x5F, 0x00, 0x00,
    0x5C, 0x00, 0x00, 0x0B, 0x7F, 0x00, 0x0A, 0x40, 0x00, 0x5D, 0x00, 0x00, 0x5B, 0x00, 0x00, 0x5F,
    0x00, 0x00, 0x5C, 0x00, 0x00, 0x0B, 0x7F, 0x98, 0xB0, 0x00, 0x97, 0x42, 0x32, 0x00, 0x4A, 0x5F,
    0x83, 0x60, 0x87, 0x42, 0x00, 0x00, 0x4A, 0x00, 0x00, 0x97, 0x43, 0x32, 0x00, 0x4C, 0x5F, 0x83,
    0x60, 0x87, 0x43, 0x00, 0x00, 0x4C, 0x00, 0x00, 0x97, 0x40, 0x32, 0x00, 0x47, 0x5F, 0x83, 0x60,
    0x87, 0x40, 0x00, 0x00, 0x47, 0x00, 0x00, 0x97, 0x3E, 0x32, 0x00, 0x45, 0x5F, 0x83, 0x60, 0x87,
    0x3E, 0x00, 0x00, 0x45, 0x00, 0x00, 0x97, 0x40, 0x32, 0x00, 0x47, 0x5F, 0x87, 0x40, 0x87, 0x40,
    0x00, 0x00, 0x47, 0x00, 0x00, 0x97, 0x3E, 0x32, 0x00, 0x45, 0x5F, 0x83, 0x60, 0x87, 0x3E, 0x00,
    0x00, 0x45, 0x00, 0x00, 0x97, 0x40, 0x32, 0x00, 0x47, 0x5F, 0x83, 0x60, 0x87, 0x40, 0x00, 0x00,
    0x47, 0x00, 0x00, 0x97, 0x42, 0x32, 0x00, 0x4A, 0x5F, 0x83, 0x60, 0x87, 0x42, 0x00, 0x00, 0x4A,
    0x00, 0x00, 0x97, 0x43, 0x32, 0x00, 0x4C, 0x5F, 0x83, 0x60, 0x87, 0x43, 0x00, 0x00, 0x4C, 0x00,
    0x00, 0x97, 0x40, 0x32, 0x00, 0x47, 0x5F, 0x83, 0x60, 0x87, 0x40, 0x00, 0x00, 0x47, 0x00, 0x00,
    0x97, 0x3E, 0x32, 0x00, 0x45, 0x5F, 0x83, 0x60, 0x87, 0x3E, 0x00, 0x00, 0x45, 0x00, 0x00, 0x97,
    0x40, 0x32, 0x00, 0x47, 0x5F, 0x87, 0x40, 0x87, 0x40, 0x00, 0x00, 0x47, 0x00, 0x00, 0x97, 0x3E,
    0x32, 0x00, 0x45, 0x5F, 0x83, 0x60, 0x87, 0x3E, 0x00, 0x00, 0x45, 0x00, 0x00, 0x97, 0x40, 0x32,
    0x00, 0x47, 0x5F, 0x83, 0x60, 0x87, 0x40, 0x00, 0x00, 0x47, 0x00, 0x00, 0x97, 0x3E, 0x32, 0x00,
    0x45, 0x5F, 0x83, 0x60, 0x87, 0x3E, 0x00, 0x00, 0x45, 0x00, 0x00, 0x97, 0x3B, 0x32, 0x00, 0x43,
    0x5F, 0x83, 0x60, 0x87, 0x3B, 0x00, 0x00, 0x43, 0x00, 0x00, 0x97, 0x39, 0x32, 0x00, 0x42, 0x5F,
    0x83, 0x60, 0x87, 0x39, 0x00, 0x00, 0x42, 0x00, 0x00, 0x97, 0x36, 0x32, 0x00, 0x3E, 0x5F, 0x83,
    0x60, 0x87, 0x36, 0x00, 0x00, 0x3E, 0x00, 0x00, 0x97, 0x37, 0x32, 0x00, 0x40, 0x5F, 0x87, 0x40,
    0x87, 0x37, 0x00, 0x00, 0x40, 0x00, 0x00, 0x97, 0x36, 0x32, 0x00, 0x3E, 0x5F, 0x83, 0x60, 0x87,
    0x36, 0x00, 0x00, 0x3E, 0x00, 0x00, 0x97, 0x37, 0x32, 0x00, 0x40, 0x5F, 0x83, 0x60, 0x87, 0x37,
    0x00, 0x00, 0x40, 0x00, 0x00, 0x97, 0x39, 0x32, 0x00, 0x42, 0x5F, 0x83, 0x60, 0x87, 0x39, 0x00,
    0x00, 0x42, 0x00, 0x00, 0x97, 0x3B, 0x32, 0x00, 0x43, 0x5F, 0x83, 0x60, 0x87, 0x3B, 0x00, 0x00,
    0x43, 0x00, 0x00, 0x97, 0x3E, 0x32, 0x00, 0x45, 0x5F, 0x83, 0x60, 0x87, 0x3E, 0x00, 0x00, 0x45,
    0x00, 0x00, 0x97, 0x40, 0x32, 0x00, 0x47, 0x5F, 0x83, 0x60, 0x87, 0x40, 0x00, 0x00, 0x47, 0x00,
    0x00, 0x97, 0x37, 0x32, 0x00, 0x40, 0x5F, 0x87, 0x40, 0x87, 0x37, 0x00, 0x00, 0x40, 0x00, 0x00,
    0x97, 0x40, 0x32, 0x00, 0x45, 0x5F, 0x83, 0x60, 0x87, 0x40, 0x00, 0x00, 0x45, 0x00, 0x00, 0x97,
    0x42, 0x32, 0x00, 0x47, 0x5F, 0x83, 0x60, 0x87, 0x42, 0x00, 0x00, 0x47, 0x00, 0x00, 0x97, 0x42,
    0x32, 0x00, 0x4A, 0x5F, 0x83, 0x60, 0x87, 0x42, 0x00, 0x00, 0x4A, 0x00, 0x00, 0x97, 0x43, 0x32,
    0x00, 0x4C, 0x5F, 0x83, 0x60, 0x87, 0x43, 0x00, 0x00, 0x4C, 0x00, 0x00, 0x97, 0x40, 0x32, 0x00,
    0x47, 0x5F, 0x83, 0x60, 0x87, 0x40, 0x00, 0x00, 0x47, 0x00, 0x00, 0x97, 0x3E, 0x32, 0x00, 0x45,
    0x5F, 0x83, 0x60, 0x87, 0x3E, 0x00, 0x00, 0x45, 0x00, 0x00, 0x97, 0x40, 0x32, 0x00, 0x47, 0x5F,
    0x87, 0x40, 0x87, 0x40, 0x00, 0x00, 0x47, 0x00, 0x00, 0x97, 0x3E, 0x32, 0x00, 0x45, 0x5F, 0x83,
    0x60, 0x87, 0x3E, 0x00, 0x00, 0x45, 0x00, 0x00, 0x97, 0x40, 0x32, 0x00, 0x47, 0x5F, 0x83, 0x60,
    0x87, 0x40, 0x00, 0x00, 0x47, 0x00, 0x00, 0x97, 0x42, 0x32, 0x00, 0x4A, 0x5F, 0x83, 0x60, 0x87,
    0x42, 0x00, 0x00, 0x4A, 0x00, 0x00, 0x97, 0x43, 0x32, 0x00, 0x4C, 0x5F, 0x83, 0x60, 0x87, 0x43,
    0x00, 0x00, 0x4C, 0x00, 0x00, 0x97, 0x40, 0x32, 0x00, 0x47, 0x5F, 0x83, 0x60, 0x87, 0x40, 0x00,
    0x00, 0x47, 0x00, 0x00, 0x97, 0x3E, 0x32, 0x00, 0x45, 0x5F, 0x83, 0x60, 0x87, 0x3E, 0x00, 0x00,
    0x45, 0x00, 0x00, 0x97, 0x40, 0x32, 0x00, 0x47, 0x5F, 0x87, 0x40, 0x87, 0x40, 0x00, 0x00, 0x47,
    0x00, 0x00, 0x97, 0x3E, 0x32, 0x00, 0x45, 0x5F, 0x83, 0x60, 0x87, 0x3E, 0x00, 0x00, 0x45, 0x00,
    0x00, 0x97, 0x40, 0x32, 0x00, 0x47, 0x5F, 0x83, 0x60, 0x87, 0x40, 0x00, 0x00, 0x47, 0x00, 0x00,
    0x97, 0x3E, 0x32, 0x00, 0x45, 0x5F, 0x83, 0x60, 0x87, 0x3E, 0x00, 0x00, 0x45, 0x00, 0x00, 0x97,
    0x3B, 0x32, 0x00, 0x43, 0x5F, 0x83, 0x60, 0x87, 0x3B, 0x00, 0x00, 0x43, 0x00, 0x00, 0x97, 0x39,
    0x32, 0x00, 0x42, 0x5F, 0x83, 0x60, 0x87, 0x39, 0x00, 0x00, 0x42, 0x00, 0x00, 0x97, 0x36, 0x32,
    0x00, 0x3E, 0x5F, 0x83, 0x60, 0x87, 0x36, 0x00, 0x00, 0x3E, 0x00, 0x00, 0x97, 0x37, 0x32, 0x00,
    0x40, 0x5F, 0x87, 0x40, 0x87, 0x37, 0x00, 0x00, 0x40, 0x00, 0x00, 0x97, 0x37, 0x32, 0x00, 0x3E,
    0x5F, 0x83, 0x60, 0x87, 0x37, 0x00, 0x00, 0x3E, 0x00, 0x00, 0x97, 0x37, 0x32, 0x00, 0x40, 0x5F,
    0x83, 0x60, 0x87, 0x37, 0x00, 0x00, 0x40, 0x00, 0x00, 0x97, 0x39, 0x32, 0x00, 0x42, 0x5F, 0x83,
    0x60, 0x87, 0x39, 0x00, 0x00, 0x42, 0x00, 0x00, 0x97, 0x3B, 0x32, 0x00, 0x43, 0x5F, 0x83, 0x60,
    0x87, 0x3B, 0x00, 0x00, 0x43, 0x00, 0x00, 0x97, 0x3E, 0x32, 0x00, 0x45, 0x5F, 0x83, 0x60, 0x87,
    0x3E, 0x00, 0x00, 0x45, 0x00, 0x00, 0x97, 0x40, 0x32, 0x00, 0x47, 0x5F, 0x83, 0x60, 0x87, 0x40,
    0x00, 0x00, 0x47, 0x00, 0x00, 0x97, 0x37, 0x32, 0x00, 0x40, 0x5F, 0x87, 0x40, 0x87, 0x37, 0x00,
    0x00, 0x40, 0x00, 0x00, 0x97, 0x40, 0x32, 0x00, 0x45, 0x5F, 0x83, 0x60, 0x87, 0x40, 0x00, 0x00,
    0x45, 0x00, 0x00, 0x97, 0x42, 0x32, 0x00, 0x47, 0x5F, 0x83, 0x60, 0x87, 0x42, 0x00, 0x00, 0x47,
    0x00, 0x00, 0x97, 0x42, 0x32, 0x00, 0x4A, 0x5F, 0x83, 0x60, 0x87, 0x42, 0x00, 0x00, 0x4A, 0x00,
    0x00, 0x97, 0x43, 0x32, 0x00, 0x4C, 0x5F, 0x83, 0x60, 0x87, 0x43, 0x00, 0x00, 0x4C, 0x00, 0x00,
    0x97, 0x40, 0x32, 0x00, 0x47, 0x5F, 0x83, 0x60, 0x87, 0x40, 0x00, 0x00, 0x47, 0x00, 0x00, 0x97,
    0x3E, 0x32, 0x00, 0x45, 0x5F, 0x83, 0x60, 0x87, 0x3E, 0x00, 0x00, 0x45, 0x00, 0x00, 0x97, 0x40,
    0x32, 0x00, 0x47, 0x5F, 0x87, 0x40, 0x87, 0x40, 0x00, 0x00, 0x47, 0x00, 0x00, 0x97, 0x3E, 0x32,
    0x00, 0x45, 0x5F, 0x83, 0x60, 0x87, 0x3E, 0x00, 0x00, 0x45, 0x00, 0x00, 0x97, 0x40, 0x32, 0x00,
    0x47, 0x5F, 0x83, 0x60, 0x87, 0x40, 0x00, 0x00, 0x47, 0x00, 0x00, 0x97, 0x42, 0x32, 0x00, 0x4A,
    0x5F, 0x83, 0x60, 0x87, 0x42, 0x00, 0x00, 0x4A, 0x00, 0x00, 0x97, 0x43, 0x32, 0x00, 0x4C, 0x5F,
    0x83, 0x60, 0x87, 0x43, 0x00, 0x00, 0x4C, 0x00, 0x00, 0x97, 0x40, 0x32, 0x00, 0x47, 0x5F, 0x83,
    0x60, 0x87, 0x40, 0x00, 0x00, 0x47, 0x00, 0x00, 0x97, 0x3E, 0x32, 0x00, 0x45, 0x5F, 0x83, 0x60,
    0x87, 0x3E, 0x00, 0x00, 0x45, 0x00, 0x00, 0x97, 0x40, 0x32, 0x00, 0x47, 0x5F, 0x87, 0x40, 0x87,
    0x40, 0x00, 0x00, 0x47, 0x00, 0x00, 0x97, 0x3E, 0x32, 0x00, 0x45, 0x5F, 0x83, 0x60, 0x87, 0x3E,
    0x00, 0x00, 0x45, 0x00, 0x00, 0x97, 0x40, 0x32, 0x00, 0x47, 0x5F, 0x83, 0x60, 0x87, 0x40, 0x00,
    0x00, 0x47, 0x00, 0x00, 0x97, 0x3E, 0x32, 0x00, 0x45, 0x5F, 0x83, 0x60, 0x87, 0x3E, 0x00, 0x00,
    0x45, 0x00, 0x00, 0x97, 0x3B, 0x32, 0x00, 0x43, 0x5F, 0x83, 0x60, 0x87, 0x3B, 0x00, 0x00, 0x43,
    0x00, 0x00, 0x97, 0x39, 0x32, 0x00, 0x42, 0x5F, 0x83, 0x60, 0x87, 0x39, 0x00, 0x00, 0x42, 0x00,
    0x00, 0x97, 0x36, 0x32, 0x00, 0x3E, 0x5F, 0x83, 0x60, 0x87, 0x36, 0x00, 0x00, 0x3E, 0x00, 0x00,
    0x97, 0x37, 0x32, 0x00, 0x40, 0x5F, 0x87, 0x40, 0x87, 0x37, 0x00, 0x00, 0x40, 0x00, 0x00, 0x97,
    0x36, 0x32, 0x00, 0x3E, 0x5F, 0x83, 0x60, 0x87, 0x36, 0x00, 0x00, 0x3E, 0x00, 0x00, 0x97, 0x37,
    0x32, 0x00, 0x40, 0x5F, 0x83, 0x60, 0x87, 0x37, 0x00, 0x00, 0x40, 0x00, 0x00, 0x97, 0x39, 0x32,
    0x00, 0x42, 0x5F, 0x83, 0x60, 0x87, 0x39, 0x00, 0x00, 0x42, 0x00, 0x00, 0x97, 0x3B, 0x32, 0x00,
    0x43, 0x5F, 0x83, 0x60, 0x87, 0x3B, 0x00, 0x00, 0x43, 0x00, 0x00, 0x97, 0x3E, 0x32, 0x00, 0x45,
    0x5F, 0x83, 0x60, 0x87, 0x3E, 0x00, 0x00, 0x45, 0x00, 0x00, 0x97, 0x40, 0x32, 0x00, 0x47, 0x5F,
    0x83, 0x60, 0x87, 0x40, 0x00, 0x00, 0x47, 0x00, 0x00, 0x97, 0x37, 0x32, 0x00, 0x40, 0x5F, 0x87,
    0x40, 0x87, 0x37, 0x00, 0x00, 0x40, 0x00, 0x00, 0x97, 0x40, 0x32, 0x00, 0x45, 0x5F, 0x83, 0x60,
    0x87, 0x40, 0x00, 0x00, 0x45, 0x00, 0x00, 0x97, 0x42, 0x32, 0x00, 0x47, 0x5F, 0x83, 0x60, 0x87,
    0x42, 0x00, 0x00, 0x47, 0x00, 0x00, 0x97, 0x42, 0x32, 0x00, 0x4A, 0x5F, 0x83, 0x60, 0x87, 0x42,
    0x00, 0x00, 0x4A, 0x00, 0x00, 0x97, 0x43, 0x32, 0x00, 0x4C, 0x5F, 0x83, 0x60, 0x87, 0x43, 0x00,
    0x00, 0x4C, 0x00, 0x00, 0x97, 0x40, 0x32, 0x00, 0x47, 0x5F, 0x83, 0x60, 0x87, 0x40, 0x00, 0x00,
    0x47, 0x00, 0x00, 0x97, 0x3E, 0x32, 0x00, 0x45, 0x5F, 0x83, 0x60, 0x87, 0x3E, 0x00, 0x00, 0x45,
    0x00, 0x00, 0x97, 0x40, 0x32, 0x00, 0x47, 0x5F, 0x87, 0x40, 0x87, 0x40, 0x00, 0x00, 0x47, 0x00,
    0x00, 0x97, 0x3E, 0x32, 0x00, 0x45, 0x5F, 0x83, 0x60, 0x87, 0x3E, 0x00, 0x00, 0x45, 0x00, 0x00,
    0x97, 0x40, 0x32, 0x00, 0x47, 0x5F, 0x83, 0x60, 0x87, 0x40, 0x00, 0x00, 0x47, 0x00, 0x00, 0x97,
    0x42, 0x32, 0x00, 0x4A, 0x5F, 0x83, 0x60, 0x87, 0x42, 0x00, 0x00, 0x4A, 0x00, 0x00, 0x97, 0x43,
    0x32, 0x00, 0x4C, 0x5F, 0x83, 0x60, 0x87, 0x43, 0x00, 0x00, 0x4C, 0x00, 0x00, 0x97, 0x40, 0x32,
    0x00, 0x47, 0x5F, 0x83, 0x60, 0x87, 0x40, 0x00, 0x00, 0x47, 0x00, 0x00, 0x97, 0x3E, 0x32, 0x00,
    0x45, 0x5F, 0x83, 0x60, 0x87, 0x3E, 0x00, 0x00, 0x45, 0x00, 0x00, 0x97, 0x40, 0x32, 0x00, 0x47,
    0x5F, 0x87, 0x40, 0x87, 0x40, 0x00, 0x00, 0x47, 0x00, 0x00, 0x97, 0x45, 0x32, 0x00, 0x4C, 0x5F,
    0x83, 0x60, 0x87, 0x45, 0x00, 0x00, 0x4C, 0x00, 0x00, 0x97, 0x47, 0x32, 0x00, 0x4E, 0x5F, 0x83,
    0x60, 0x87, 0x47, 0x00, 0x00, 0x4E, 0x00, 0x00, 0x97, 0x47, 0x32, 0x00, 0x4F, 0x5F, 0x83, 0x60,
    0x87, 0x47, 0x00, 0x00, 0x4F, 0x00, 0x00, 0x97, 0x45, 0x32, 0x00, 0x4E, 0x5F, 0x83, 0x60, 0x87,
    0x45, 0x00, 0x00, 0x4E, 0x00, 0x00, 0x97, 0x43, 0x32, 0x00, 0x4C, 0x5F, 0x83, 0x60, 0x87, 0x43,
    0x00, 0x00, 0x4C, 0x00, 0x00, 0x97, 0x42, 0x32, 0x00, 0x4A, 0x5F, 0x83, 0x60, 0x87, 0x42, 0x00,
    0x00, 0x4A, 0x00, 0x00, 0x97, 0x40, 0x32, 0x00, 0x47, 0x5F, 0x87, 0x40, 0x87, 0x40, 0x00, 0x00,
    0x47, 0x00, 0x00, 0x97, 0x3E, 0x32, 0x00, 0x45, 0x5F, 0x83, 0x60, 0x87, 0x3E, 0x00, 0x00, 0x45,
    0x00, 0x00, 0x97, 0x40, 0x32, 0x00, 0x47, 0x5F, 0x83, 0x60, 0x87, 0x40, 0x00, 0x00, 0x47, 0x00,
    0x00, 0x97, 0x3E, 0x32, 0x00, 0x45, 0x5F, 0x83, 0x60, 0x87, 0x3E, 0x00, 0x00, 0x45, 0x00, 0x00,
    0x97, 0x3B, 0x32, 0x00, 0x43, 0x5F, 0x83, 0x60, 0x87, 0x3B, 0x00, 0x00, 0x43, 0x00, 0x00, 0x97,
    0x39, 0x32, 0x00, 0x42, 0x5F, 0x83, 0x60, 0x87, 0x39, 0x00, 0x00, 0x42, 0x00, 0x00, 0x97, 0x36,
    0x32, 0x00, 0x3E, 0x5F, 0x83, 0x60, 0x87, 0x36, 0x00, 0x00, 0x3E, 0x00, 0x00, 0x97, 0x37, 0x32,
    0x00, 0x40, 0x5F, 0x83, 0x60, 0x87, 0x37, 0x00, 0x00, 0x40, 0x00, 0x00, 0xFF, 0x2F, 0x00, 0x4D,
    0x54, 0x72, 0x6B, 0x00, 0x00, 0x01, 0xE4, 0x00, 0xB8, 0x00, 0x00, 0x00, 0x20, 0x00, 0x00, 0xC8,
    0x1E, 0x00, 0xFF, 0x03, 0x08, 0x55, 0x6E, 0x74, 0x69, 0x74, 0x6C, 0x65, 0x64, 0x00, 0xB8, 0x07,
    0x7F, 0x00, 0x00, 0x00, 0x00, 0x20, 0x00, 0x00, 0x07, 0x7F, 0x00, 0x07, 0x6E, 0x00, 0xE8, 0x00,
    0x40, 0x00, 0xB8, 0x0A, 0x40, 0x00, 0x5D, 0x00, 0x00, 0x5B, 0x00, 0x00, 0x5F, 0x00, 0x00, 0x5C,
    0x00, 0x00, 0x0B, 0x7F, 0x00, 0x0A, 0x40, 0x00, 0x5D, 0x00, 0x00, 0x5B, 0x00, 0x00, 0x5F, 0x00,
    0x00, 0x5C, 0x00, 0x00, 0x0B, 0x7F, 0x00, 0xC8, 0x1E, 0x98, 0xB0, 0x00, 0x98, 0x3C, 0x3C, 0x00,
    0x37, 0x3C, 0x00, 0x24, 0x50, 0x00, 0x30, 0x50, 0x00, 0x2B, 0x50, 0x9E, 0x00, 0x88, 0x37, 0x00,
    0x00, 0x24, 0x00, 0x00, 0x30, 0x00, 0x00, 0x2B, 0x00, 0x00, 0x3C, 0x00, 0x00, 0x98, 0x3E, 0x3C,
    0x00, 0x39, 0x3C, 0x00, 0x26, 0x50, 0x00, 0x32, 0x50, 0x00, 0x2D, 0x50, 0x9E, 0x00, 0x88, 0x39,
    0x00, 0x00, 0x26, 0x00, 0x00, 0x32, 0x00, 0x00, 0x2D, 0x00, 0x00, 0x3E, 0x00, 0x00, 0x98, 0x3B,
    0x3C, 0x00, 0x40, 0x3C, 0x00, 0x28, 0x50, 0x00, 0x2F, 0x50, 0x00, 0x34, 0x50, 0xBC, 0x00, 0x88,
    0x40, 0x00, 0x00, 0x28, 0x00, 0x00, 0x2F, 0x00, 0x00, 0x34, 0x00, 0x00, 0x3B, 0x00, 0x00, 0x98,
    0x3C, 0x3C, 0x00, 0x37, 0x3C, 0x00, 0x24, 0x50, 0x00, 0x30, 0x50, 0x00, 0x2B, 0x50, 0x9E, 0x00,
    0x88, 0x37, 0x00, 0x00, 0x24, 0x00, 0x00, 0x30, 0x00, 0x00, 0x2B, 0x00, 0x00, 0x3C, 0x00, 0x00,
    0x98, 0x3E, 0x3C, 0x00, 0x39, 0x3C, 0x00, 0x26, 0x50, 0x00, 0x32, 0x50, 0x00, 0x2D, 0x50, 0x9E,
    0x00, 0x88, 0x39, 0x00, 0x00, 0x26, 0x00, 0x00, 0x32, 0x00, 0x00, 0x2D, 0x00, 0x00, 0x3E, 0x00,
    0x00, 0x98, 0x3B, 0x3C, 0x00, 0x40, 0x3C, 0x00, 0x28, 0x50, 0x00, 0x2F, 0x50, 0x00, 0x34, 0x50,
    0xBC, 0x00, 0x88, 0x40, 0x00, 0x00, 0x28, 0x00, 0x00, 0x2F, 0x00, 0x00, 0x34, 0x00, 0x00, 0x3B,
    0x00, 0x00, 0x98, 0x3C, 0x3C, 0x00, 0x37, 0x3C, 0x00, 0x24, 0x50, 0x00, 0x30, 0x50, 0x00, 0x2B,
    0x50, 0x9E, 0x00, 0x88, 0x37, 0x00, 0x00, 0x24, 0x00, 0x00, 0x30, 0x00, 0x00, 0x2B, 0x00, 0x00,
    0x3C, 0x00, 0x00, 0x98, 0x3E, 0x3C, 0x00, 0x39, 0x3C, 0x00, 0x26, 0x50, 0x00, 0x32, 0x50, 0x00,
    0x2D, 0x50, 0x9E, 0x00, 0x88, 0x39, 0x00, 0x00, 0x26, 0x00, 0x00, 0x32, 0x00, 0x00, 0x2D, 0x00,
    0x00, 0x3E, 0x00, 0x00, 0x98, 0x3B, 0x3C, 0x00, 0x40, 0x3C, 0x00, 0x28, 0x50, 0x00, 0x2F, 0x50,
    0x00, 0x34, 0x50, 0xBC, 0x00, 0x88, 0x40, 0x00, 0x00, 0x28, 0x00, 0x00, 0x2F, 0x00, 0x00, 0x34,
    0x00, 0x00, 0x3B, 0x00, 0x00, 0x98, 0x3C, 0x3C, 0x00, 0x37, 0x3C, 0x00, 0x24, 0x50, 0x00, 0x30,
    0x50, 0x00, 0x2B, 0x50, 0x9E, 0x00, 0x88, 0x37, 0x00, 0x00, 0x24, 0x00, 0x00, 0x30, 0x00, 0x00,
    0x2B, 0x00, 0x00, 0x3C, 0x00, 0x00, 0x98, 0x3E, 0x3C, 0x00, 0x39, 0x3C, 0x00, 0x26, 0x50, 0x00,
    0x32, 0x50, 0x00, 0x2D, 0x50, 0x9E, 0x00, 0x88, 0x39, 0x00, 0x00, 0x26, 0x00, 0x00, 0x32, 0x00,
    0x00, 0x2D, 0x00, 0x00, 0x3E, 0x00, 0x00, 0x98, 0x3B, 0x3C, 0x00, 0x40, 0x3C, 0x00, 0x28, 0x50,
    0x00, 0x2F, 0x50, 0x00, 0x34, 0x50, 0xBC, 0x00, 0x88, 0x40, 0x00, 0x00, 0x28, 0x00, 0x00, 0x2F,
    0x00, 0x00, 0x34, 0x00, 0x00, 0x3B, 0x00, 0x00, 0xFF, 0x2F, 0x00, 0x4D, 0x54, 0x72, 0x6B, 0x00,
    0x00, 0x07, 0xEA, 0x00, 0xBA, 0x00, 0x00, 0x00, 0x20, 0x00, 0x00, 0xCA, 0x1D, 0x00, 0xFF, 0x03,
    0x08, 0x55, 0x6E, 0x74, 0x69, 0x74, 0x6C, 0x65, 0x64, 0x00, 0xBA, 0x07, 0x7F, 0x00, 0x00, 0x00,
    0x00, 0x20, 0x00, 0x00, 0x07, 0x7F, 0x00, 0x07, 0x6E, 0x00, 0xEA, 0x00, 0x40, 0x00, 0xBA, 0x0A,
    0x40, 0x00, 0x5D, 0x00, 0x00, 0x5B, 0x00, 0x00, 0x5F, 0x00, 0x00, 0x5C, 0x00, 0x00, 0x0B, 0x7F,
    0x9A, 0xA0, 0x00, 0x07, 0x01, 0x00, 0x9A, 0x3C, 0x46, 0x00, 0x37, 0x46, 0x00, 0x30, 0x32, 0x01,
    0xBA, 0x07, 0x02, 0x82, 0x1C, 0x07, 0x03, 0x81, 0x43, 0x8A, 0x37, 0x00, 0x00, 0x30, 0x00, 0x00,
    0x3C, 0x00, 0x00, 0x9A, 0x3C, 0x46, 0x00, 0x37, 0x46, 0x00, 0x30, 0x32, 0x59, 0xBA, 0x07, 0x04,
    0x82, 0x1D, 0x07, 0x05, 0x82, 0x1C, 0x07, 0x06, 0x3E, 0x8A, 0x37, 0x00, 0x00, 0x30, 0x00, 0x00,
    0x3C, 0x00, 0x00, 0x9A, 0x3C, 0x46, 0x00, 0x37, 0x46, 0x00, 0x30, 0x32, 0x81, 0x5F, 0xBA, 0x07,
    0x07, 0x82, 0x1C, 0x07, 0x08, 0x81, 0x55, 0x8A, 0x37, 0x00, 0x00, 0x30, 0x00, 0x00, 0x3C, 0x00,
    0x00, 0x9A, 0x3C, 0x46, 0x00, 0x37, 0x46, 0x00, 0x30, 0x32, 0x48, 0xBA, 0x07, 0x09, 0x82, 0x1C,
    0x07, 0x0A, 0x7C, 0x8A, 0x37, 0x00, 0x00, 0x30, 0x00, 0x00, 0x3C, 0x00, 0x00, 0x9A, 0x3C, 0x46,
    0x00, 0x37, 0x46, 0x00, 0x30, 0x32, 0x81, 0x21, 0xBA, 0x07, 0x0B, 0x82, 0x1C, 0x07, 0x0C, 0x82,
    0x13, 0x8A, 0x37, 0x00, 0x00, 0x30, 0x00, 0x00, 0x3C, 0x00, 0x00, 0x9A, 0x3C, 0x46, 0x00, 0x37,
    0x46, 0x00, 0x30, 0x32, 0x09, 0xBA, 0x07, 0x0D, 0x82, 0x1D, 0x07, 0x0E, 0x82, 0x1C, 0x07, 0x0F,
    0x81, 0x0E, 0x8A, 0x37, 0x00, 0x00, 0x30, 0x00, 0x00, 0x3C, 0x00, 0x00, 0x9A, 0x39, 0x46, 0x00,
    0x32, 0x32, 0x00, 0x3E, 0x46, 0x81, 0x0F, 0xBA, 0x07, 0x10, 0x82, 0x1C, 0x07, 0x11, 0x35, 0x8A,
    0x32, 0x00, 0x00, 0x3E, 0x00, 0x00, 0x39, 0x00, 0x00, 0x9A, 0x39, 0x46, 0x00, 0x32, 0x32, 0x00,
    0x3E, 0x46, 0x81, 0x68, 0xBA, 0x07, 0x12, 0x82, 0x1C, 0x07, 0x13, 0x81, 0x4C, 0x8A, 0x32, 0x00,
    0x00, 0x3E, 0x00, 0x00, 0x39, 0x00, 0x00, 0x9A, 0x39, 0x46, 0x00, 0x32, 0x32, 0x00, 0x3E, 0x46,
    0x51, 0xBA, 0x07, 0x14, 0x82, 0x1C, 0x07, 0x15, 0x82, 0x1C, 0x07, 0x16, 0x47, 0x8A, 0x32, 0x00,
    0x00, 0x3E, 0x00, 0x00, 0x39, 0x00, 0x00, 0x9A, 0x39, 0x46, 0x00, 0x32, 0x32, 0x00, 0x3E, 0x46,
    0x81, 0x56, 0xBA, 0x07, 0x17, 0x82, 0x0A, 0x8A, 0x32, 0x00, 0x00, 0x3E, 0x00, 0x00, 0x39, 0x00,
    0x00, 0x9A, 0x39, 0x46, 0x00, 0x32, 0x32, 0x00, 0x3E, 0x46, 0x12, 0xBA, 0x07, 0x18, 0x82, 0x1D,
    0x07, 0x19, 0x82, 0x1C, 0x07, 0x1A, 0x81, 0x05, 0x8A, 0x32, 0x00, 0x00, 0x3E, 0x00, 0x00, 0x39,
    0x00, 0x00, 0x9A, 0x39, 0x46, 0x00, 0x32, 0x32, 0x00, 0x3E, 0x46, 0x81, 0x18, 0xBA, 0x07, 0x1B,
    0x82, 0x1C, 0x07, 0x1C, 0x82, 0x1C, 0x8A, 0x32, 0x00, 0x00, 0x3E, 0x00, 0x00, 0x39, 0x00, 0x00,
    0x9A, 0x3B, 0x46, 0x00, 0x34, 0x32, 0x00, 0x40, 0x46, 0x01, 0xBA, 0x07, 0x1D, 0x82, 0x1C, 0x07,
    0x1E, 0x81, 0x43, 0x8A, 0x34, 0x00, 0x00, 0x40, 0x00, 0x00, 0x3B, 0x00, 0x00, 0x9A, 0x3B, 0x46,
    0x00, 0x34, 0x32, 0x00, 0x40, 0x46, 0x59, 0xBA, 0x07, 0x1F, 0x82, 0x1D, 0x07, 0x20, 0x82, 0x1C,
    0x07, 0x21, 0x3E, 0x8A, 0x34, 0x00, 0x00, 0x40, 0x00, 0x00, 0x3B, 0x00, 0x00, 0x9A, 0x3B, 0x46,
    0x00, 0x34, 0x32, 0x00, 0x40, 0x46, 0x81, 0x5F, 0xBA, 0x07, 0x22, 0x82, 0x1C, 0x07, 0x23, 0x81,
    0x55, 0x8A, 0x34, 0x00, 0x00, 0x40, 0x00, 0x00, 0x3B, 0x00, 0x00, 0x9A, 0x3B, 0x46, 0x00, 0x34,
    0x32, 0x00, 0x40, 0x46, 0x48, 0xBA, 0x07, 0x24, 0x82, 0x1C, 0x07, 0x25, 0x7C, 0x8A, 0x34, 0x00,
    0x00, 0x40, 0x00, 0x00, 0x3B, 0x00, 0x00, 0x9A, 0x3B, 0x46, 0x00, 0x34, 0x32, 0x00, 0x40, 0x46,
    0x81, 0x21, 0xBA, 0x07, 0x26, 0x82, 0x1C, 0x07, 0x27, 0x82, 0x13, 0x8A, 0x34, 0x00, 0x00, 0x40,
    0x00, 0x00, 0x3B, 0x00, 0x00, 0x9A, 0x3B, 0x46, 0x00, 0x34, 0x32, 0x00, 0x40, 0x46, 0x09, 0xBA,
    0x07, 0x28, 0x82, 0x1D, 0x07, 0x29, 0x82, 0x1C, 0x07, 0x2A, 0x81, 0x0E, 0x8A, 0x34, 0x00, 0x00,
    0x40, 0x00, 0x00, 0x3B, 0x00, 0x00, 0x9A, 0x40, 0x46, 0x00, 0x3B, 0x46, 0x00, 0x34, 0x32, 0x81,
    0x0F, 0xBA, 0x07, 0x2B, 0x82, 0x1C, 0x07, 0x2C, 0x35, 0x8A, 0x3B, 0x00, 0x00, 0x34, 0x00, 0x00,
    0x40, 0x00, 0x00, 0x9A, 0x40, 0x46, 0x00, 0x3B, 0x46, 0x00, 0x34, 0x32, 0x81, 0x68, 0xBA, 0x07,
    0x2D, 0x82, 0x1C, 0x07, 0x2E, 0x81, 0x4C, 0x8A, 0x3B, 0x00, 0x00, 0x34, 0x00, 0x00, 0x40, 0x00,
    0x00, 0x9A, 0x40, 0x46, 0x00, 0x3B, 0x46, 0x00, 0x34, 0x32, 0x51, 0xBA, 0x07, 0x2F, 0x82, 0x1C,
    0x07, 0x30, 0x82, 0x1C, 0x07, 0x31, 0x47, 0x8A, 0x3B, 0x00, 0x00, 0x34, 0x00, 0x00, 0x40, 0x00,
    0x00, 0x9A, 0x40, 0x46, 0x00, 0x3B, 0x46, 0x00, 0x34, 0x32, 0x81, 0x56, 0xBA, 0x07, 0x32, 0x82,
    0x0A, 0x8A, 0x3B, 0x00, 0x00, 0x34, 0x00, 0x00, 0x40, 0x00, 0x00, 0x9A, 0x40, 0x46, 0x00, 0x3B,
    0x46, 0x00, 0x34, 0x32, 0x12, 0xBA, 0x07, 0x33, 0x82, 0x1D, 0x07, 0x34, 0x82, 0x1C, 0x07, 0x35,
    0x81, 0x05, 0x8A, 0x3B, 0x00, 0x00, 0x34, 0x00, 0x00, 0x40, 0x00, 0x00, 0x9A, 0x40, 0x46, 0x00,
    0x3B, 0x46, 0x00, 0x34, 0x32, 0x81, 0x18, 0xBA, 0x07, 0x36, 0x82, 0x1C, 0x07, 0x37, 0x82, 0x1C,
    0x8A, 0x3B, 0x00, 0x00, 0x34, 0x00, 0x00, 0x40, 0x00, 0x00, 0x9A, 0x30, 0x32, 0x00, 0x3C, 0x46,
    0x00, 0x37, 0x46, 0x01, 0xBA, 0x07, 0x38, 0x82, 0x1C, 0x07, 0x39, 0x81, 0x43, 0x8A, 0x3C, 0x00,
    0x00, 0x37, 0x00, 0x00, 0x30, 0x00, 0x00, 0x9A, 0x30, 0x32, 0x00, 0x3C, 0x46, 0x00, 0x37, 0x46,
    0x59, 0xBA, 0x07, 0x3A, 0x82, 0x1D, 0x07, 0x3B, 0x82, 0x1C, 0x07, 0x3C, 0x3E, 0x8A, 0x3C, 0x00,
    0x00, 0x37, 0x00, 0x00, 0x30, 0x00, 0x00, 0x9A, 0x30, 0x32, 0x00, 0x3C, 0x46, 0x00, 0x37, 0x46,
    0x81, 0x5F, 0xBA, 0x07, 0x3D, 0x82, 0x1C, 0x07, 0x3E, 0x81, 0x55, 0x8A, 0x3C, 0x00, 0x00, 0x37,
    0x00, 0x00, 0x30, 0x00, 0x00, 0x9A, 0x30, 0x32, 0x00, 0x3C, 0x46, 0x00, 0x37, 0x46, 0x48, 0xBA,
    0x07, 0x3F, 0x82, 0x1C, 0x07, 0x40, 0x7C, 0x8A, 0x3C, 0x00, 0x00, 0x37, 0x00, 0x00, 0x30, 0x00,
    0x00, 0x9A, 0x30, 0x32, 0x00, 0x3C, 0x46, 0x00, 0x37, 0x46, 0x81, 0x21, 0xBA, 0x07, 0x41, 0x82,
    0x1C, 0x07, 0x42, 0x82, 0x13, 0x8A, 0x3C, 0x00, 0x00, 0x37, 0x00, 0x00, 0x30, 0x00, 0x00, 0x9A,
    0x30, 0x32, 0x00, 0x3C, 0x46, 0x00, 0x37, 0x46, 0x09, 0xBA, 0x07, 0x43, 0x82, 0x1D, 0x07, 0x44,
    0x82, 0x1C, 0x07, 0x45, 0x81, 0x0E, 0x8A, 0x3C, 0x00, 0x00, 0x37, 0x00, 0x00, 0x30, 0x00, 0x00,
    0x9A, 0x3E, 0x46, 0x00, 0x39, 0x46, 0x00, 0x32, 0x32, 0x81, 0x0F, 0xBA, 0x07, 0x46, 0x82, 0x1C,
    0x07, 0x47, 0x35, 0x8A, 0x39, 0x00, 0x00, 0x32, 0x00, 0x00, 0x3E, 0x00, 0x00, 0x9A, 0x3E, 0x46,
    0x00, 0x39, 0x46, 0x00, 0x32, 0x32, 0x81, 0x68, 0xBA, 0x07, 0x48, 0x82, 0x1C, 0x07, 0x49, 0x81,
    0x4C, 0x8A, 0x39, 0x00, 0x00, 0x32, 0x00, 0x00, 0x3E, 0x00, 0x00, 0x9A, 0x3E, 0x46, 0x00, 0x39,
    0x46, 0x00, 0x32, 0x32, 0x51, 0xBA, 0x07, 0x4A, 0x82, 0x1C, 0x07, 0x4B, 0x82, 0x1C, 0x07, 0x4C,
    0x47, 0x8A, 0x39, 0x00, 0x00, 0x32, 0x00, 0x00, 0x3E, 0x00, 0x00, 0x9A, 0x3E, 0x46, 0x00, 0x39,
    0x46, 0x00, 0x32, 0x32, 0x81, 0x56, 0xBA, 0x07, 0x4D, 0x82, 0x0A, 0x8A, 0x39, 0x00, 0x00, 0x32,
    0x00, 0x00, 0x3E, 0x00, 0x00, 0x9A, 0x3E, 0x46, 0x00, 0x39, 0x46, 0x00, 0x32, 0x32, 0x12, 0xBA,
    0x07, 0x4E, 0x82, 0x1D, 0x07, 0x4F, 0x82, 0x1C, 0x07, 0x50, 0x81, 0x05, 0x8A, 0x39, 0x00, 0x00,
    0x32, 0x00, 0x00, 0x3E, 0x00, 0x00, 0x9A, 0x3E, 0x46, 0x00, 0x39, 0x46, 0x00, 0x32, 0x32, 0x81,
    0x18, 0xBA, 0x07, 0x51, 0x82, 0x1C, 0x07, 0x52, 0x82, 0x1C, 0x8A, 0x39, 0x00, 0x00, 0x32, 0x00,
    0x00, 0x3E, 0x00, 0x00, 0x9A, 0x40, 0x46, 0x00, 0x3B, 0x46, 0x00, 0x34, 0x32, 0x01, 0xBA, 0x07,
    0x53, 0x82, 0x1C, 0x07, 0x54, 0x81, 0x43, 0x8A, 0x3B, 0x00, 0x00, 0x34, 0x00, 0x00, 0x40, 0x00,
    0x00, 0x9A, 0x40, 0x46, 0x00, 0x3B, 0x46, 0x00, 0x34, 0x32, 0x59, 0xBA, 0x07, 0x55, 0x82, 0x1D,
    0x07, 0x56, 0x82, 0x1C, 0x07, 0x57, 0x3E, 0x8A, 0x3B, 0x00, 0x00, 0x34, 0x00, 0x00, 0x40, 0x00,
    0x00, 0x9A, 0x40, 0x46, 0x00, 0x3B, 0x46, 0x00, 0x34, 0x32, 0x81, 0x5F, 0xBA, 0x07, 0x58, 0x82,
    0x1C, 0x07, 0x59, 0x81, 0x55, 0x8A, 0x3B, 0x00, 0x00, 0x34, 0x00, 0x00, 0x40, 0x00, 0x00, 0x9A,
    0x40, 0x46, 0x00, 0x3B, 0x46, 0x00, 0x34, 0x32, 0x48, 0xBA, 0x07, 0x5A, 0x82, 0x1C, 0x07, 0x5B,
    0x7C, 0x8A, 0x3B, 0x00, 0x00, 0x34, 0x00, 0x00, 0x40, 0x00, 0x00, 0x9A, 0x40, 0x46, 0x00, 0x3B,
    0x46, 0x00, 0x34, 0x32, 0x81, 0x21, 0xBA, 0x07, 0x5C, 0x82, 0x1C, 0x07, 0x5D, 0x82, 0x13, 0x8A,
    0x3B, 0x00, 0x00, 0x34, 0x00, 0x00, 0x40, 0x00, 0x00, 0x9A, 0x40, 0x46, 0x00, 0x3B, 0x46, 0x00,
    0x34, 0x32, 0x09, 0xBA, 0x07, 0x5E, 0x82, 0x1D, 0x07, 0x5F, 0x82, 0x1C, 0x07, 0x60, 0x81, 0x0E,
    0x8A, 0x3B, 0x00, 0x00, 0x34, 0x00, 0x00, 0x40, 0x00, 0x00, 0x9A, 0x34, 0x32, 0x00, 0x40, 0x46,
    0x00, 0x3B, 0x46, 0x81, 0x0F, 0xBA, 0x07, 0x61, 0x82, 0x1C, 0x07, 0x62, 0x35, 0x8A, 0x40, 0x00,
    0x00, 0x3B, 0x00, 0x00, 0x34, 0x00, 0x00, 0x9A, 0x34, 0x32, 0x00, 0x40, 0x46, 0x00, 0x3B, 0x46,
    0x81, 0x68, 0xBA, 0x07, 0x63, 0x82, 0x1C, 0x07, 0x64, 0x81, 0x4C, 0x8A, 0x40, 0x00, 0x00, 0x3B,
    0x00, 0x00, 0x34, 0x00, 0x00, 0x9A, 0x34, 0x32, 0x00, 0x40, 0x46, 0x00, 0x3B, 0x46, 0x51, 0xBA,
    0x07, 0x65, 0x82, 0x1C, 0x07, 0x66, 0x82, 0x1C, 0x07, 0x67, 0x47, 0x8A, 0x40, 0x00, 0x00, 0x3B,
    0x00, 0x00, 0x34, 0x00, 0x00, 0x9A, 0x34, 0x32, 0x00, 0x40, 0x46, 0x00, 0x3B, 0x46, 0x81, 0x56,
    0xBA, 0x07, 0x68, 0x82, 0x0A, 0x8A, 0x40, 0x00, 0x00, 0x3B, 0x00, 0x00, 0x34, 0x00, 0x00, 0x9A,
    0x34, 0x32, 0x00, 0x40, 0x46, 0x00, 0x3B, 0x46, 0x12, 0xBA, 0x07, 0x69, 0x82, 0x1D, 0x07, 0x6A,
    0x82, 0x1C, 0x07, 0x6B, 0x81, 0x05, 0x8A, 0x40, 0x00, 0x00, 0x3B, 0x00, 0x00, 0x34, 0x00, 0x00,
    0x9A, 0x34, 0x32, 0x00, 0x40, 0x46, 0x00, 0x3B, 0x46, 0x81, 0x18, 0xBA, 0x07, 0x6C, 0x82, 0x1C,
    0x07, 0x6D, 0x82, 0x1C, 0x8A, 0x40, 0x00, 0x00, 0x3B, 0x00, 0x00, 0x34, 0x00, 0x00, 0xBA, 0x07,
    0x6E, 0x00, 0x9A, 0x32, 0x3C, 0x00, 0x3E, 0x46, 0x00, 0x39, 0x50, 0x83, 0x60, 0x8A, 0x3E, 0x00,
    0x00, 0x39, 0x00, 0x00, 0x32, 0x00, 0x00, 0x9A, 0x34, 0x3C, 0x00, 0x40, 0x46, 0x00, 0x3B, 0x50,
    0x85, 0x50, 0x8A, 0x40, 0x00, 0x00, 0x3B, 0x00, 0x00, 0x34, 0x00, 0x00, 0x9A, 0x34, 0x3C, 0x00,
    0x40, 0x46, 0x00, 0x3B, 0x50, 0x85, 0x50, 0x8A, 0x40, 0x00, 0x00, 0x3B, 0x00, 0x00, 0x34, 0x00,
    0x00, 0x9A, 0x34, 0x3C, 0x00, 0x40, 0x46, 0x00, 0x3B, 0x50, 0x83, 0x60, 0x8A, 0x40, 0x00, 0x00,
    0x3B, 0x00, 0x00, 0x34, 0x00, 0x00, 0x9A, 0x34, 0x3C, 0x00, 0x40, 0x46, 0x00, 0x3B, 0x50, 0x85,
    0x50, 0x8A, 0x40, 0x00, 0x00, 0x3B, 0x00, 0x00, 0x34, 0x00, 0x00, 0x9A, 0x34, 0x3C, 0x00, 0x40,
    0x46, 0x00, 0x3B, 0x50, 0x85, 0x50, 0x8A, 0x40, 0x00, 0x00, 0x3B, 0x00, 0x00, 0x34, 0x00, 0x00,
    0x9A, 0x34, 0x3C, 0x00, 0x40, 0x46, 0x00, 0x3B, 0x50, 0x83, 0x60, 0x8A, 0x40, 0x00, 0x00, 0x3B,
    0x00, 0x00, 0x34, 0x00, 0x00, 0x9A, 0x34, 0x3C, 0x00, 0x40, 0x46, 0x00, 0x3B, 0x50, 0x85, 0x50,
    0x8A, 0x40, 0x00, 0x00, 0x3B, 0x00, 0x00, 0x34, 0x00, 0x00, 0x9A, 0x34, 0x3C, 0x00, 0x40, 0x46,
    0x00, 0x3B, 0x50, 0x85, 0x50, 0x8A, 0x40, 0x00, 0x00, 0x3B, 0x00, 0x00, 0x34, 0x00, 0x00, 0x9A,
    0x34, 0x3C, 0x00, 0x40, 0x46, 0x00, 0x3B, 0x50, 0x83, 0x60, 0x8A, 0x40, 0x00, 0x00, 0x3B, 0x00,
    0x00, 0x34, 0x00, 0x00, 0x9A, 0x34, 0x3C, 0x00, 0x40, 0x46, 0x00, 0x3B, 0x50, 0x85, 0x50, 0x8A,
    0x40, 0x00, 0x00, 0x3B, 0x00, 0x00, 0x34, 0x00, 0x00, 0x9A, 0x34, 0x3C, 0x00, 0x40, 0x46, 0x00,
    0x3B, 0x50, 0x85, 0x50, 0x8A, 0x40, 0x00, 0x00, 0x3B, 0x00, 0x00, 0x34, 0x00, 0x00, 0x9A, 0x34,
    0x3C, 0x00, 0x40, 0x46, 0x00, 0x3B, 0x50, 0x83, 0x60, 0x8A, 0x40, 0x00, 0x00, 0x3B, 0x00, 0x00,
    0x34, 0x00, 0x00, 0x9A, 0x34, 0x3C, 0x00, 0x40, 0x46, 0x00, 0x3B, 0x50, 0x85, 0x50, 0x8A, 0x40,
    0x00, 0x00, 0x3B, 0x00, 0x00, 0x34, 0x00, 0x00, 0x9A, 0x34, 0x3C, 0x00, 0x40, 0x46, 0x00, 0x3B,
    0x50, 0x85, 0x50, 0x8A, 0x40, 0x00, 0x00, 0x3B, 0x00, 0x00, 0x34, 0x00, 0x00, 0x9A, 0x34, 0x3C,
    0x00, 0x40, 0x46, 0x00, 0x3B, 0x50, 0x83, 0x60, 0x8A, 0x40, 0x00, 0x00, 0x3B, 0x00, 0x00, 0x34,
    0x00, 0x00, 0x9A, 0x34, 0x3C, 0x00, 0x40, 0x46, 0x00, 0x3B, 0x50, 0x85, 0x50, 0x8A, 0x40, 0x00,
    0x00, 0x3B, 0x00, 0x00, 0x34, 0x00, 0x00, 0x9A, 0x34, 0x3C, 0x00, 0x40, 0x46, 0x00, 0x3B, 0x50,
    0x85, 0x50, 0x8A, 0x40, 0x00, 0x00, 0x3B, 0x00, 0x00, 0x34, 0x00, 0x00, 0x9A, 0x3B, 0x50, 0x00,
    0x34, 0x3C, 0x00, 0x40, 0x46, 0x83, 0x60, 0x8A, 0x34, 0x00, 0x00, 0x40, 0x00, 0x00, 0x3B, 0x00,
    0x00, 0x9A, 0x3B, 0x50, 0x00, 0x34, 0x3C, 0x00, 0x40, 0x46, 0x85, 0x50, 0x8A, 0x34, 0x00, 0x00,
    0x40, 0x00, 0x00, 0x3B, 0x00, 0x00, 0x9A, 0x3B, 0x50, 0x00, 0x34, 0x3C, 0x00, 0x40, 0x46, 0x85,
    0x50, 0x8A, 0x34, 0x00, 0x00, 0x40, 0x00, 0x00, 0x3B, 0x00, 0x00, 0x9A, 0x3B, 0x50, 0x00, 0x34,
    0x3C, 0x00, 0x40, 0x46, 0x83, 0x60, 0x8A, 0x34, 0x00, 0x00, 0x40, 0x00, 0x00, 0x3B, 0x00, 0x00,
    0x9A, 0x3B, 0x50, 0x00, 0x34, 0x3C, 0x00, 0x40, 0x46, 0x85, 0x50, 0x8A, 0x34, 0x00, 0x00, 0x40,
    0x00, 0x00, 0x3B, 0x00, 0x00, 0x9A, 0x3B, 0x50, 0x00, 0x34, 0x3C, 0x00, 0x40, 0x46, 0x85, 0x50,
    0x8A, 0x34, 0x00, 0x00, 0x40, 0x00, 0x00, 0x3B, 0x00, 0x00, 0xFF, 0x2F, 0x00
};
